M48
; DRILL file {KiCad (5.1.4-0-10_14)} date 2020 January 05, Sunday 20:33:40
; FORMAT={-:-/ absolute / metric / decimal}
; #@! TF.CreationDate,2020-01-05T20:33:40+01:00
; #@! TF.GenerationSoftware,Kicad,Pcbnew,(5.1.4-0-10_14)
; #@! TF.FileFunction,Plated,1,2,PTH
FMAT,2
METRIC
T1C0.400
T2C0.700
T3C0.800
T4C0.900
T5C1.000
T6C1.100
T7C1.220
T8C1.420
T9C1.430
T10C1.700
T11C2.000
%
G90
G05
T1
X108.25Y-71.0
X129.5Y-51.25
X137.84Y-79.24
X170.75Y-81.25
T2
X155.8Y-86.6
X155.8Y-91.68
X123.0Y-54.0
X128.08Y-54.0
X164.5Y-53.0
X169.58Y-53.0
X141.42Y-128.5
X146.5Y-128.5
X156.42Y-53.0
X161.5Y-53.0
X132.0Y-67.0
X137.08Y-67.0
X176.5Y-141.0
X176.5Y-146.08
X182.0Y-55.0
X182.0Y-60.08
X182.92Y-73.0
X188.0Y-73.0
X180.5Y-140.92
X180.5Y-146.0
X131.92Y-71.0
X174.5Y-52.0
X179.58Y-52.0
X137.0Y-71.0
X174.0Y-55.0
X179.08Y-55.0
X160.25Y-92.25
X160.25Y-97.33
X135.0Y-92.92
X135.0Y-98.0
X123.0Y-60.0
X143.6Y-116.0
X143.6Y-121.08
X184.25Y-65.0
X103.0Y-63.0
X118.6Y-104.4
X118.6Y-109.48
X128.08Y-60.0
X179.17Y-65.0
X103.0Y-68.08
T3
X171.0Y-101.0
X171.0Y-103.5
X172.88Y-133.5
X180.5Y-133.5
X162.4Y-123.8
X148.5Y-66.5
X140.88Y-66.5
X119.0Y-53.0
X166.4Y-123.6
X166.4Y-131.1
X183.0Y-69.0
X190.5Y-69.0
X131.0Y-92.5
X131.0Y-100.0
X119.0Y-60.5
X131.0Y-54.0
X131.0Y-56.54
X131.0Y-59.08
X131.0Y-61.62
X138.62Y-54.0
X138.62Y-56.54
X138.62Y-59.08
X138.62Y-61.62
X165.0Y-64.0
X162.4Y-131.3
X165.0Y-66.54
X165.0Y-69.08
X165.0Y-71.62
X165.0Y-74.16
X165.0Y-76.7
X165.0Y-79.24
X172.62Y-64.0
X172.62Y-66.54
X172.62Y-69.08
X172.62Y-71.62
X172.62Y-74.16
X172.62Y-76.7
X172.62Y-79.24
X124.0Y-111.0
X124.0Y-113.54
X124.0Y-116.08
X124.0Y-118.62
X124.0Y-121.16
X124.0Y-123.7
X124.0Y-126.24
X124.0Y-128.78
X131.62Y-111.0
X131.62Y-113.54
X131.62Y-116.08
X131.62Y-121.16
X131.62Y-123.7
X131.62Y-126.24
X131.62Y-128.78
X159.0Y-66.5
X131.62Y-118.62
X153.5Y-71.0
X153.5Y-73.5
X151.38Y-66.5
X172.88Y-137.0
X180.5Y-137.0
X159.0Y-56.0
X166.5Y-56.0
X117.0Y-87.0
X117.0Y-89.54
X117.0Y-92.08
X117.0Y-94.62
X124.62Y-87.0
X124.62Y-89.54
X124.62Y-92.08
X124.62Y-94.62
X179.2Y-96.6
X179.2Y-104.1
X111.2Y-101.8
X147.0Y-71.0
X147.0Y-73.5
X183.4Y-96.6
X183.4Y-104.1
X111.2Y-109.42
X157.4Y-128.4
X157.4Y-130.9
X115.6Y-101.8
X115.6Y-109.42
X115.0Y-69.0
X122.5Y-69.0
T4
X149.26Y-89.0
X151.8Y-89.0
T5
X196.5Y-95.0
X196.5Y-97.54
X196.5Y-100.08
X194.0Y-114.62
X194.0Y-107.0
X194.0Y-109.54
X194.0Y-112.08
X196.54Y-107.0
X196.54Y-109.54
X196.54Y-112.08
X148.0Y-108.25
X150.5Y-108.25
X153.0Y-108.25
X194.0Y-117.16
X196.54Y-114.62
X196.54Y-117.16
X194.0Y-119.7
X194.0Y-122.24
X194.0Y-124.78
X196.54Y-119.7
X196.54Y-122.24
X196.54Y-124.78
T6
X188.6Y-108.4
X188.6Y-110.94
X188.6Y-113.48
X188.4Y-119.8
X188.4Y-122.34
X188.4Y-124.88
T7
X150.6Y-113.0
X110.25Y-130.25
X190.5Y-130.0
T8
X150.6Y-116.1
X110.25Y-133.35
X190.5Y-133.1
T9
X150.6Y-124.4
X110.25Y-141.65
X190.5Y-141.4
T10
X190.5Y-58.9
X110.25Y-58.65
T11
X185.35Y-60.5
X195.65Y-60.5
X105.1Y-60.25
X115.4Y-60.25
T5
G00X150.5Y-54.0
M15
G01X148.5Y-54.0
M16
G05
G00X150.5Y-60.0
M15
G01X148.5Y-60.0
M16
G05
G00X144.8Y-56.0
M15
G01X144.8Y-58.0
M16
G05
T0
M30
