G04 #@! TF.GenerationSoftware,KiCad,Pcbnew,(5.1.4-0-10_14)*
G04 #@! TF.CreationDate,2019-11-25T16:16:25+01:00*
G04 #@! TF.ProjectId,Sync-Ope-proto,53796e63-2d4f-4706-952d-70726f746f2e,0.1*
G04 #@! TF.SameCoordinates,Original*
G04 #@! TF.FileFunction,Legend,Top*
G04 #@! TF.FilePolarity,Positive*
%FSLAX46Y46*%
G04 Gerber Fmt 4.6, Leading zero omitted, Abs format (unit mm)*
G04 Created by KiCad (PCBNEW (5.1.4-0-10_14)) date 2019-11-25 16:16:25*
%MOMM*%
%LPD*%
G04 APERTURE LIST*
%ADD10C,0.150000*%
%ADD11C,0.120000*%
%ADD12C,0.400000*%
%ADD13C,0.127000*%
%ADD14C,0.050000*%
G04 APERTURE END LIST*
D10*
X142178571Y-113821428D02*
X140678571Y-113821428D01*
X140678571Y-113464285D01*
X140750000Y-113250000D01*
X140892857Y-113107142D01*
X141035714Y-113035714D01*
X141321428Y-112964285D01*
X141535714Y-112964285D01*
X141821428Y-113035714D01*
X141964285Y-113107142D01*
X142107142Y-113250000D01*
X142178571Y-113464285D01*
X142178571Y-113821428D01*
X142178571Y-111464285D02*
X141464285Y-111964285D01*
X142178571Y-112321428D02*
X140678571Y-112321428D01*
X140678571Y-111750000D01*
X140750000Y-111607142D01*
X140821428Y-111535714D01*
X140964285Y-111464285D01*
X141178571Y-111464285D01*
X141321428Y-111535714D01*
X141392857Y-111607142D01*
X141464285Y-111750000D01*
X141464285Y-112321428D01*
X141464285Y-110535714D02*
X142178571Y-110535714D01*
X140678571Y-111035714D02*
X141464285Y-110535714D01*
X140678571Y-110035714D01*
X141607142Y-109535714D02*
X141607142Y-108392857D01*
X140678571Y-107821428D02*
X142178571Y-107464285D01*
X141107142Y-107178571D01*
X142178571Y-106892857D01*
X140678571Y-106535714D01*
X141392857Y-105964285D02*
X141392857Y-105464285D01*
X142178571Y-105250000D02*
X142178571Y-105964285D01*
X140678571Y-105964285D01*
X140678571Y-105250000D01*
X140678571Y-104821428D02*
X140678571Y-103964285D01*
X142178571Y-104392857D02*
X140678571Y-104392857D01*
X176321428Y-147678571D02*
X176821428Y-149178571D01*
X177321428Y-147678571D01*
X177821428Y-149178571D02*
X177821428Y-147678571D01*
X178535714Y-149178571D02*
X178535714Y-147678571D01*
X178892857Y-147678571D01*
X179107142Y-147750000D01*
X179250000Y-147892857D01*
X179321428Y-148035714D01*
X179392857Y-148321428D01*
X179392857Y-148535714D01*
X179321428Y-148821428D01*
X179250000Y-148964285D01*
X179107142Y-149107142D01*
X178892857Y-149178571D01*
X178535714Y-149178571D01*
X180035714Y-148392857D02*
X180535714Y-148392857D01*
X180750000Y-149178571D02*
X180035714Y-149178571D01*
X180035714Y-147678571D01*
X180750000Y-147678571D01*
X181678571Y-147678571D02*
X181964285Y-147678571D01*
X182107142Y-147750000D01*
X182250000Y-147892857D01*
X182321428Y-148178571D01*
X182321428Y-148678571D01*
X182250000Y-148964285D01*
X182107142Y-149107142D01*
X181964285Y-149178571D01*
X181678571Y-149178571D01*
X181535714Y-149107142D01*
X181392857Y-148964285D01*
X181321428Y-148678571D01*
X181321428Y-148178571D01*
X181392857Y-147892857D01*
X181535714Y-147750000D01*
X181678571Y-147678571D01*
X182607142Y-149321428D02*
X183750000Y-149321428D01*
X184964285Y-149178571D02*
X184464285Y-148464285D01*
X184107142Y-149178571D02*
X184107142Y-147678571D01*
X184678571Y-147678571D01*
X184821428Y-147750000D01*
X184892857Y-147821428D01*
X184964285Y-147964285D01*
X184964285Y-148178571D01*
X184892857Y-148321428D01*
X184821428Y-148392857D01*
X184678571Y-148464285D01*
X184107142Y-148464285D01*
X185607142Y-148392857D02*
X186107142Y-148392857D01*
X186321428Y-149178571D02*
X185607142Y-149178571D01*
X185607142Y-147678571D01*
X186321428Y-147678571D01*
X187821428Y-149035714D02*
X187750000Y-149107142D01*
X187535714Y-149178571D01*
X187392857Y-149178571D01*
X187178571Y-149107142D01*
X187035714Y-148964285D01*
X186964285Y-148821428D01*
X186892857Y-148535714D01*
X186892857Y-148321428D01*
X186964285Y-148035714D01*
X187035714Y-147892857D01*
X187178571Y-147750000D01*
X187392857Y-147678571D01*
X187535714Y-147678571D01*
X187750000Y-147750000D01*
X187821428Y-147821428D01*
X188464285Y-148392857D02*
X188964285Y-148392857D01*
X189178571Y-149178571D02*
X188464285Y-149178571D01*
X188464285Y-147678571D01*
X189178571Y-147678571D01*
X189821428Y-149178571D02*
X189821428Y-147678571D01*
X190321428Y-147678571D02*
X190821428Y-149178571D01*
X191321428Y-147678571D01*
X191821428Y-148392857D02*
X192321428Y-148392857D01*
X192535714Y-149178571D02*
X191821428Y-149178571D01*
X191821428Y-147678571D01*
X192535714Y-147678571D01*
X181714285Y-50928571D02*
X182214285Y-52428571D01*
X182714285Y-50928571D01*
X183214285Y-52428571D02*
X183214285Y-50928571D01*
X183928571Y-52428571D02*
X183928571Y-50928571D01*
X184285714Y-50928571D01*
X184500000Y-51000000D01*
X184642857Y-51142857D01*
X184714285Y-51285714D01*
X184785714Y-51571428D01*
X184785714Y-51785714D01*
X184714285Y-52071428D01*
X184642857Y-52214285D01*
X184500000Y-52357142D01*
X184285714Y-52428571D01*
X183928571Y-52428571D01*
X185428571Y-51642857D02*
X185928571Y-51642857D01*
X186142857Y-52428571D02*
X185428571Y-52428571D01*
X185428571Y-50928571D01*
X186142857Y-50928571D01*
X187071428Y-50928571D02*
X187357142Y-50928571D01*
X187500000Y-51000000D01*
X187642857Y-51142857D01*
X187714285Y-51428571D01*
X187714285Y-51928571D01*
X187642857Y-52214285D01*
X187500000Y-52357142D01*
X187357142Y-52428571D01*
X187071428Y-52428571D01*
X186928571Y-52357142D01*
X186785714Y-52214285D01*
X186714285Y-51928571D01*
X186714285Y-51428571D01*
X186785714Y-51142857D01*
X186928571Y-51000000D01*
X187071428Y-50928571D01*
X188000000Y-52571428D02*
X189142857Y-52571428D01*
X189785714Y-50928571D02*
X190071428Y-50928571D01*
X190214285Y-51000000D01*
X190357142Y-51142857D01*
X190428571Y-51428571D01*
X190428571Y-51928571D01*
X190357142Y-52214285D01*
X190214285Y-52357142D01*
X190071428Y-52428571D01*
X189785714Y-52428571D01*
X189642857Y-52357142D01*
X189500000Y-52214285D01*
X189428571Y-51928571D01*
X189428571Y-51428571D01*
X189500000Y-51142857D01*
X189642857Y-51000000D01*
X189785714Y-50928571D01*
X191071428Y-50928571D02*
X191071428Y-52142857D01*
X191142857Y-52285714D01*
X191214285Y-52357142D01*
X191357142Y-52428571D01*
X191642857Y-52428571D01*
X191785714Y-52357142D01*
X191857142Y-52285714D01*
X191928571Y-52142857D01*
X191928571Y-50928571D01*
X192428571Y-50928571D02*
X193285714Y-50928571D01*
X192857142Y-52428571D02*
X192857142Y-50928571D01*
X107214285Y-51428571D02*
X107714285Y-52928571D01*
X108214285Y-51428571D01*
X108714285Y-52928571D02*
X108714285Y-51428571D01*
X109428571Y-52928571D02*
X109428571Y-51428571D01*
X109785714Y-51428571D01*
X110000000Y-51500000D01*
X110142857Y-51642857D01*
X110214285Y-51785714D01*
X110285714Y-52071428D01*
X110285714Y-52285714D01*
X110214285Y-52571428D01*
X110142857Y-52714285D01*
X110000000Y-52857142D01*
X109785714Y-52928571D01*
X109428571Y-52928571D01*
X110928571Y-52142857D02*
X111428571Y-52142857D01*
X111642857Y-52928571D02*
X110928571Y-52928571D01*
X110928571Y-51428571D01*
X111642857Y-51428571D01*
X112571428Y-51428571D02*
X112857142Y-51428571D01*
X113000000Y-51500000D01*
X113142857Y-51642857D01*
X113214285Y-51928571D01*
X113214285Y-52428571D01*
X113142857Y-52714285D01*
X113000000Y-52857142D01*
X112857142Y-52928571D01*
X112571428Y-52928571D01*
X112428571Y-52857142D01*
X112285714Y-52714285D01*
X112214285Y-52428571D01*
X112214285Y-51928571D01*
X112285714Y-51642857D01*
X112428571Y-51500000D01*
X112571428Y-51428571D01*
X113500000Y-53071428D02*
X114642857Y-53071428D01*
X115000000Y-52928571D02*
X115000000Y-51428571D01*
X115714285Y-52928571D02*
X115714285Y-51428571D01*
X116571428Y-52928571D01*
X116571428Y-51428571D01*
X107928571Y-147178571D02*
X108428571Y-148678571D01*
X108928571Y-147178571D01*
X109428571Y-148678571D02*
X109428571Y-147178571D01*
X110142857Y-148678571D02*
X110142857Y-147178571D01*
X110500000Y-147178571D01*
X110714285Y-147250000D01*
X110857142Y-147392857D01*
X110928571Y-147535714D01*
X111000000Y-147821428D01*
X111000000Y-148035714D01*
X110928571Y-148321428D01*
X110857142Y-148464285D01*
X110714285Y-148607142D01*
X110500000Y-148678571D01*
X110142857Y-148678571D01*
X111642857Y-147892857D02*
X112142857Y-147892857D01*
X112357142Y-148678571D02*
X111642857Y-148678571D01*
X111642857Y-147178571D01*
X112357142Y-147178571D01*
X113285714Y-147178571D02*
X113571428Y-147178571D01*
X113714285Y-147250000D01*
X113857142Y-147392857D01*
X113928571Y-147678571D01*
X113928571Y-148178571D01*
X113857142Y-148464285D01*
X113714285Y-148607142D01*
X113571428Y-148678571D01*
X113285714Y-148678571D01*
X113142857Y-148607142D01*
X113000000Y-148464285D01*
X112928571Y-148178571D01*
X112928571Y-147678571D01*
X113000000Y-147392857D01*
X113142857Y-147250000D01*
X113285714Y-147178571D01*
X114214285Y-148821428D02*
X115357142Y-148821428D01*
X115642857Y-148607142D02*
X115857142Y-148678571D01*
X116214285Y-148678571D01*
X116357142Y-148607142D01*
X116428571Y-148535714D01*
X116500000Y-148392857D01*
X116500000Y-148250000D01*
X116428571Y-148107142D01*
X116357142Y-148035714D01*
X116214285Y-147964285D01*
X115928571Y-147892857D01*
X115785714Y-147821428D01*
X115714285Y-147750000D01*
X115642857Y-147607142D01*
X115642857Y-147464285D01*
X115714285Y-147321428D01*
X115785714Y-147250000D01*
X115928571Y-147178571D01*
X116285714Y-147178571D01*
X116500000Y-147250000D01*
X117142857Y-147892857D02*
X117642857Y-147892857D01*
X117857142Y-148678571D02*
X117142857Y-148678571D01*
X117142857Y-147178571D01*
X117857142Y-147178571D01*
X118500000Y-148678571D02*
X118500000Y-147178571D01*
X119357142Y-148678571D01*
X119357142Y-147178571D01*
X120071428Y-148678571D02*
X120071428Y-147178571D01*
X120428571Y-147178571D01*
X120642857Y-147250000D01*
X120785714Y-147392857D01*
X120857142Y-147535714D01*
X120928571Y-147821428D01*
X120928571Y-148035714D01*
X120857142Y-148321428D01*
X120785714Y-148464285D01*
X120642857Y-148607142D01*
X120428571Y-148678571D01*
X120071428Y-148678571D01*
X133547619Y-143734523D02*
X133833333Y-143829761D01*
X134309523Y-143829761D01*
X134500000Y-143734523D01*
X134595238Y-143639285D01*
X134690476Y-143448809D01*
X134690476Y-143258333D01*
X134595238Y-143067857D01*
X134500000Y-142972619D01*
X134309523Y-142877380D01*
X133928571Y-142782142D01*
X133738095Y-142686904D01*
X133642857Y-142591666D01*
X133547619Y-142401190D01*
X133547619Y-142210714D01*
X133642857Y-142020238D01*
X133738095Y-141925000D01*
X133928571Y-141829761D01*
X134404761Y-141829761D01*
X134690476Y-141925000D01*
X135357142Y-142496428D02*
X135833333Y-143829761D01*
X136309523Y-142496428D02*
X135833333Y-143829761D01*
X135642857Y-144305952D01*
X135547619Y-144401190D01*
X135357142Y-144496428D01*
X137071428Y-142496428D02*
X137071428Y-143829761D01*
X137071428Y-142686904D02*
X137166666Y-142591666D01*
X137357142Y-142496428D01*
X137642857Y-142496428D01*
X137833333Y-142591666D01*
X137928571Y-142782142D01*
X137928571Y-143829761D01*
X139738095Y-143734523D02*
X139547619Y-143829761D01*
X139166666Y-143829761D01*
X138976190Y-143734523D01*
X138880952Y-143639285D01*
X138785714Y-143448809D01*
X138785714Y-142877380D01*
X138880952Y-142686904D01*
X138976190Y-142591666D01*
X139166666Y-142496428D01*
X139547619Y-142496428D01*
X139738095Y-142591666D01*
X140595238Y-143067857D02*
X142119047Y-143067857D01*
X143452380Y-141829761D02*
X143833333Y-141829761D01*
X144023809Y-141925000D01*
X144214285Y-142115476D01*
X144309523Y-142496428D01*
X144309523Y-143163095D01*
X144214285Y-143544047D01*
X144023809Y-143734523D01*
X143833333Y-143829761D01*
X143452380Y-143829761D01*
X143261904Y-143734523D01*
X143071428Y-143544047D01*
X142976190Y-143163095D01*
X142976190Y-142496428D01*
X143071428Y-142115476D01*
X143261904Y-141925000D01*
X143452380Y-141829761D01*
X145166666Y-142496428D02*
X145166666Y-144496428D01*
X145166666Y-142591666D02*
X145357142Y-142496428D01*
X145738095Y-142496428D01*
X145928571Y-142591666D01*
X146023809Y-142686904D01*
X146119047Y-142877380D01*
X146119047Y-143448809D01*
X146023809Y-143639285D01*
X145928571Y-143734523D01*
X145738095Y-143829761D01*
X145357142Y-143829761D01*
X145166666Y-143734523D01*
X147738095Y-143734523D02*
X147547619Y-143829761D01*
X147166666Y-143829761D01*
X146976190Y-143734523D01*
X146880952Y-143544047D01*
X146880952Y-142782142D01*
X146976190Y-142591666D01*
X147166666Y-142496428D01*
X147547619Y-142496428D01*
X147738095Y-142591666D01*
X147833333Y-142782142D01*
X147833333Y-142972619D01*
X146880952Y-143163095D01*
X150214285Y-142496428D02*
X150214285Y-144496428D01*
X150214285Y-142591666D02*
X150404761Y-142496428D01*
X150785714Y-142496428D01*
X150976190Y-142591666D01*
X151071428Y-142686904D01*
X151166666Y-142877380D01*
X151166666Y-143448809D01*
X151071428Y-143639285D01*
X150976190Y-143734523D01*
X150785714Y-143829761D01*
X150404761Y-143829761D01*
X150214285Y-143734523D01*
X152023809Y-143829761D02*
X152023809Y-142496428D01*
X152023809Y-142877380D02*
X152119047Y-142686904D01*
X152214285Y-142591666D01*
X152404761Y-142496428D01*
X152595238Y-142496428D01*
X153547619Y-143829761D02*
X153357142Y-143734523D01*
X153261904Y-143639285D01*
X153166666Y-143448809D01*
X153166666Y-142877380D01*
X153261904Y-142686904D01*
X153357142Y-142591666D01*
X153547619Y-142496428D01*
X153833333Y-142496428D01*
X154023809Y-142591666D01*
X154119047Y-142686904D01*
X154214285Y-142877380D01*
X154214285Y-143448809D01*
X154119047Y-143639285D01*
X154023809Y-143734523D01*
X153833333Y-143829761D01*
X153547619Y-143829761D01*
X154785714Y-142496428D02*
X155547619Y-142496428D01*
X155071428Y-141829761D02*
X155071428Y-143544047D01*
X155166666Y-143734523D01*
X155357142Y-143829761D01*
X155547619Y-143829761D01*
X156500000Y-143829761D02*
X156309523Y-143734523D01*
X156214285Y-143639285D01*
X156119047Y-143448809D01*
X156119047Y-142877380D01*
X156214285Y-142686904D01*
X156309523Y-142591666D01*
X156500000Y-142496428D01*
X156785714Y-142496428D01*
X156976190Y-142591666D01*
X157071428Y-142686904D01*
X157166666Y-142877380D01*
X157166666Y-143448809D01*
X157071428Y-143639285D01*
X156976190Y-143734523D01*
X156785714Y-143829761D01*
X156500000Y-143829761D01*
X159928571Y-141829761D02*
X160119047Y-141829761D01*
X160309523Y-141925000D01*
X160404761Y-142020238D01*
X160500000Y-142210714D01*
X160595238Y-142591666D01*
X160595238Y-143067857D01*
X160500000Y-143448809D01*
X160404761Y-143639285D01*
X160309523Y-143734523D01*
X160119047Y-143829761D01*
X159928571Y-143829761D01*
X159738095Y-143734523D01*
X159642857Y-143639285D01*
X159547619Y-143448809D01*
X159452380Y-143067857D01*
X159452380Y-142591666D01*
X159547619Y-142210714D01*
X159642857Y-142020238D01*
X159738095Y-141925000D01*
X159928571Y-141829761D01*
X161452380Y-143639285D02*
X161547619Y-143734523D01*
X161452380Y-143829761D01*
X161357142Y-143734523D01*
X161452380Y-143639285D01*
X161452380Y-143829761D01*
X163452380Y-143829761D02*
X162309523Y-143829761D01*
X162880952Y-143829761D02*
X162880952Y-141829761D01*
X162690476Y-142115476D01*
X162500000Y-142305952D01*
X162309523Y-142401190D01*
X129738095Y-145075000D02*
X129547619Y-144979761D01*
X129261904Y-144979761D01*
X128976190Y-145075000D01*
X128785714Y-145265476D01*
X128690476Y-145455952D01*
X128595238Y-145836904D01*
X128595238Y-146122619D01*
X128690476Y-146503571D01*
X128785714Y-146694047D01*
X128976190Y-146884523D01*
X129261904Y-146979761D01*
X129452380Y-146979761D01*
X129738095Y-146884523D01*
X129833333Y-146789285D01*
X129833333Y-146122619D01*
X129452380Y-146122619D01*
X131547619Y-146979761D02*
X131547619Y-145932142D01*
X131452380Y-145741666D01*
X131261904Y-145646428D01*
X130880952Y-145646428D01*
X130690476Y-145741666D01*
X131547619Y-146884523D02*
X131357142Y-146979761D01*
X130880952Y-146979761D01*
X130690476Y-146884523D01*
X130595238Y-146694047D01*
X130595238Y-146503571D01*
X130690476Y-146313095D01*
X130880952Y-146217857D01*
X131357142Y-146217857D01*
X131547619Y-146122619D01*
X133261904Y-146884523D02*
X133071428Y-146979761D01*
X132690476Y-146979761D01*
X132500000Y-146884523D01*
X132404761Y-146694047D01*
X132404761Y-145932142D01*
X132500000Y-145741666D01*
X132690476Y-145646428D01*
X133071428Y-145646428D01*
X133261904Y-145741666D01*
X133357142Y-145932142D01*
X133357142Y-146122619D01*
X132404761Y-146313095D01*
X132500000Y-144979761D02*
X132595238Y-145075000D01*
X132500000Y-145170238D01*
X132404761Y-145075000D01*
X132500000Y-144979761D01*
X132500000Y-145170238D01*
X133261904Y-144979761D02*
X133357142Y-145075000D01*
X133261904Y-145170238D01*
X133166666Y-145075000D01*
X133261904Y-144979761D01*
X133261904Y-145170238D01*
X134500000Y-146979761D02*
X134309523Y-146884523D01*
X134214285Y-146694047D01*
X134214285Y-144979761D01*
X137357142Y-144979761D02*
X137357142Y-146408333D01*
X137261904Y-146694047D01*
X137071428Y-146884523D01*
X136785714Y-146979761D01*
X136595238Y-146979761D01*
X139166666Y-146979761D02*
X139166666Y-145932142D01*
X139071428Y-145741666D01*
X138880952Y-145646428D01*
X138500000Y-145646428D01*
X138309523Y-145741666D01*
X139166666Y-146884523D02*
X138976190Y-146979761D01*
X138500000Y-146979761D01*
X138309523Y-146884523D01*
X138214285Y-146694047D01*
X138214285Y-146503571D01*
X138309523Y-146313095D01*
X138500000Y-146217857D01*
X138976190Y-146217857D01*
X139166666Y-146122619D01*
X139833333Y-145646428D02*
X140595238Y-145646428D01*
X140119047Y-144979761D02*
X140119047Y-146694047D01*
X140214285Y-146884523D01*
X140404761Y-146979761D01*
X140595238Y-146979761D01*
X141547619Y-146979761D02*
X141357142Y-146884523D01*
X141261904Y-146789285D01*
X141166666Y-146598809D01*
X141166666Y-146027380D01*
X141261904Y-145836904D01*
X141357142Y-145741666D01*
X141547619Y-145646428D01*
X141833333Y-145646428D01*
X142023809Y-145741666D01*
X142119047Y-145836904D01*
X142214285Y-146027380D01*
X142214285Y-146598809D01*
X142119047Y-146789285D01*
X142023809Y-146884523D01*
X141833333Y-146979761D01*
X141547619Y-146979761D01*
X143071428Y-145646428D02*
X143071428Y-146979761D01*
X143071428Y-145836904D02*
X143166666Y-145741666D01*
X143357142Y-145646428D01*
X143642857Y-145646428D01*
X143833333Y-145741666D01*
X143928571Y-145932142D01*
X143928571Y-146979761D01*
X148023809Y-146979761D02*
X147928571Y-146979761D01*
X147738095Y-146884523D01*
X147452380Y-146598809D01*
X146976190Y-146027380D01*
X146785714Y-145741666D01*
X146690476Y-145455952D01*
X146690476Y-145265476D01*
X146785714Y-145075000D01*
X146976190Y-144979761D01*
X147071428Y-144979761D01*
X147261904Y-145075000D01*
X147357142Y-145265476D01*
X147357142Y-145360714D01*
X147261904Y-145551190D01*
X147166666Y-145646428D01*
X146595238Y-146027380D01*
X146500000Y-146122619D01*
X146404761Y-146313095D01*
X146404761Y-146598809D01*
X146500000Y-146789285D01*
X146595238Y-146884523D01*
X146785714Y-146979761D01*
X147071428Y-146979761D01*
X147261904Y-146884523D01*
X147357142Y-146789285D01*
X147642857Y-146408333D01*
X147738095Y-146122619D01*
X147738095Y-145932142D01*
X151261904Y-146884523D02*
X151071428Y-146979761D01*
X150690476Y-146979761D01*
X150500000Y-146884523D01*
X150404761Y-146789285D01*
X150309523Y-146598809D01*
X150309523Y-146027380D01*
X150404761Y-145836904D01*
X150500000Y-145741666D01*
X150690476Y-145646428D01*
X151071428Y-145646428D01*
X151261904Y-145741666D01*
X151928571Y-145646428D02*
X152404761Y-146979761D01*
X152880952Y-145646428D02*
X152404761Y-146979761D01*
X152214285Y-147455952D01*
X152119047Y-147551190D01*
X151928571Y-147646428D01*
X153642857Y-146979761D02*
X153642857Y-144979761D01*
X153642857Y-145741666D02*
X153833333Y-145646428D01*
X154214285Y-145646428D01*
X154404761Y-145741666D01*
X154500000Y-145836904D01*
X154595238Y-146027380D01*
X154595238Y-146598809D01*
X154500000Y-146789285D01*
X154404761Y-146884523D01*
X154214285Y-146979761D01*
X153833333Y-146979761D01*
X153642857Y-146884523D01*
X156214285Y-146884523D02*
X156023809Y-146979761D01*
X155642857Y-146979761D01*
X155452380Y-146884523D01*
X155357142Y-146694047D01*
X155357142Y-145932142D01*
X155452380Y-145741666D01*
X155642857Y-145646428D01*
X156023809Y-145646428D01*
X156214285Y-145741666D01*
X156309523Y-145932142D01*
X156309523Y-146122619D01*
X155357142Y-146313095D01*
X157166666Y-146979761D02*
X157166666Y-145646428D01*
X157166666Y-146027380D02*
X157261904Y-145836904D01*
X157357142Y-145741666D01*
X157547619Y-145646428D01*
X157738095Y-145646428D01*
X158404761Y-146979761D02*
X158404761Y-144979761D01*
X158404761Y-145741666D02*
X158595238Y-145646428D01*
X158976190Y-145646428D01*
X159166666Y-145741666D01*
X159261904Y-145836904D01*
X159357142Y-146027380D01*
X159357142Y-146598809D01*
X159261904Y-146789285D01*
X159166666Y-146884523D01*
X158976190Y-146979761D01*
X158595238Y-146979761D01*
X158404761Y-146884523D01*
X160500000Y-146979761D02*
X160309523Y-146884523D01*
X160214285Y-146789285D01*
X160119047Y-146598809D01*
X160119047Y-146027380D01*
X160214285Y-145836904D01*
X160309523Y-145741666D01*
X160500000Y-145646428D01*
X160785714Y-145646428D01*
X160976190Y-145741666D01*
X161071428Y-145836904D01*
X161166666Y-146027380D01*
X161166666Y-146598809D01*
X161071428Y-146789285D01*
X160976190Y-146884523D01*
X160785714Y-146979761D01*
X160500000Y-146979761D01*
X161833333Y-145646428D02*
X162309523Y-146979761D01*
X162785714Y-145646428D02*
X162309523Y-146979761D01*
X162119047Y-147455952D01*
X162023809Y-147551190D01*
X161833333Y-147646428D01*
X164404761Y-144979761D02*
X164023809Y-144979761D01*
X163833333Y-145075000D01*
X163738095Y-145170238D01*
X163547619Y-145455952D01*
X163452380Y-145836904D01*
X163452380Y-146598809D01*
X163547619Y-146789285D01*
X163642857Y-146884523D01*
X163833333Y-146979761D01*
X164214285Y-146979761D01*
X164404761Y-146884523D01*
X164500000Y-146789285D01*
X164595238Y-146598809D01*
X164595238Y-146122619D01*
X164500000Y-145932142D01*
X164404761Y-145836904D01*
X164214285Y-145741666D01*
X163833333Y-145741666D01*
X163642857Y-145836904D01*
X163547619Y-145932142D01*
X163452380Y-146122619D01*
X166309523Y-144979761D02*
X165928571Y-144979761D01*
X165738095Y-145075000D01*
X165642857Y-145170238D01*
X165452380Y-145455952D01*
X165357142Y-145836904D01*
X165357142Y-146598809D01*
X165452380Y-146789285D01*
X165547619Y-146884523D01*
X165738095Y-146979761D01*
X166119047Y-146979761D01*
X166309523Y-146884523D01*
X166404761Y-146789285D01*
X166500000Y-146598809D01*
X166500000Y-146122619D01*
X166404761Y-145932142D01*
X166309523Y-145836904D01*
X166119047Y-145741666D01*
X165738095Y-145741666D01*
X165547619Y-145836904D01*
X165452380Y-145932142D01*
X165357142Y-146122619D01*
X168214285Y-144979761D02*
X167833333Y-144979761D01*
X167642857Y-145075000D01*
X167547619Y-145170238D01*
X167357142Y-145455952D01*
X167261904Y-145836904D01*
X167261904Y-146598809D01*
X167357142Y-146789285D01*
X167452380Y-146884523D01*
X167642857Y-146979761D01*
X168023809Y-146979761D01*
X168214285Y-146884523D01*
X168309523Y-146789285D01*
X168404761Y-146598809D01*
X168404761Y-146122619D01*
X168309523Y-145932142D01*
X168214285Y-145836904D01*
X168023809Y-145741666D01*
X167642857Y-145741666D01*
X167452380Y-145836904D01*
X167357142Y-145932142D01*
X167261904Y-146122619D01*
D11*
X177420000Y-141620000D02*
X177420000Y-145460000D01*
X175580000Y-141620000D02*
X175580000Y-145460000D01*
X186000000Y-131980000D02*
X186000000Y-142480000D01*
X195000000Y-131980000D02*
X195000000Y-142480000D01*
X195000000Y-142480000D02*
X191000000Y-142480000D01*
X190000000Y-142480000D02*
X186000000Y-142480000D01*
X195000000Y-131980000D02*
X190850000Y-131980000D01*
X190150000Y-131980000D02*
X186000000Y-131980000D01*
X192300000Y-136480000D02*
G75*
G03X192300000Y-136480000I-1800000J0D01*
G01*
X189440000Y-129000000D02*
X189440000Y-129800000D01*
X189440000Y-129000000D02*
X190300000Y-129000000D01*
D12*
X183300000Y-60500000D02*
G75*
G03X183300000Y-60500000I-200000J0D01*
G01*
D13*
X195850000Y-57365000D02*
X194384000Y-57365000D01*
X186616000Y-57365000D02*
X185150000Y-57365000D01*
X186616000Y-63635000D02*
X185150000Y-63635000D01*
X195850000Y-63635000D02*
X194384000Y-63635000D01*
X186617924Y-57362628D02*
G75*
G02X194384000Y-57365000I3882076J-3151223D01*
G01*
X194382076Y-63637372D02*
G75*
G02X186616000Y-63635000I-3882076J3151223D01*
G01*
X185150000Y-62265000D02*
X185150000Y-63635000D01*
X185150000Y-57365000D02*
X185150000Y-58735000D01*
X195850000Y-57365000D02*
X195850000Y-58735000D01*
X195850000Y-62265000D02*
X195850000Y-63635000D01*
D11*
X183630000Y-65920000D02*
X179790000Y-65920000D01*
X183630000Y-64080000D02*
X179790000Y-64080000D01*
X105750000Y-132230000D02*
X105750000Y-142730000D01*
X114750000Y-132230000D02*
X114750000Y-142730000D01*
X114750000Y-142730000D02*
X110750000Y-142730000D01*
X109750000Y-142730000D02*
X105750000Y-142730000D01*
X114750000Y-132230000D02*
X110600000Y-132230000D01*
X109900000Y-132230000D02*
X105750000Y-132230000D01*
X112050000Y-136730000D02*
G75*
G03X112050000Y-136730000I-1800000J0D01*
G01*
X109190000Y-129250000D02*
X109190000Y-130050000D01*
X109190000Y-129250000D02*
X110050000Y-129250000D01*
X160020000Y-129650000D02*
G75*
G03X160020000Y-129650000I-2620000J0D01*
G01*
X159980000Y-129650000D02*
X154820000Y-129650000D01*
X159980000Y-129690000D02*
X154820000Y-129690000D01*
X159979000Y-129730000D02*
X154821000Y-129730000D01*
X159978000Y-129770000D02*
X154822000Y-129770000D01*
X159976000Y-129810000D02*
X154824000Y-129810000D01*
X159973000Y-129850000D02*
X154827000Y-129850000D01*
X159969000Y-129890000D02*
X158440000Y-129890000D01*
X156360000Y-129890000D02*
X154831000Y-129890000D01*
X159965000Y-129930000D02*
X158440000Y-129930000D01*
X156360000Y-129930000D02*
X154835000Y-129930000D01*
X159961000Y-129970000D02*
X158440000Y-129970000D01*
X156360000Y-129970000D02*
X154839000Y-129970000D01*
X159956000Y-130010000D02*
X158440000Y-130010000D01*
X156360000Y-130010000D02*
X154844000Y-130010000D01*
X159950000Y-130050000D02*
X158440000Y-130050000D01*
X156360000Y-130050000D02*
X154850000Y-130050000D01*
X159943000Y-130090000D02*
X158440000Y-130090000D01*
X156360000Y-130090000D02*
X154857000Y-130090000D01*
X159936000Y-130130000D02*
X158440000Y-130130000D01*
X156360000Y-130130000D02*
X154864000Y-130130000D01*
X159928000Y-130170000D02*
X158440000Y-130170000D01*
X156360000Y-130170000D02*
X154872000Y-130170000D01*
X159920000Y-130210000D02*
X158440000Y-130210000D01*
X156360000Y-130210000D02*
X154880000Y-130210000D01*
X159911000Y-130250000D02*
X158440000Y-130250000D01*
X156360000Y-130250000D02*
X154889000Y-130250000D01*
X159901000Y-130290000D02*
X158440000Y-130290000D01*
X156360000Y-130290000D02*
X154899000Y-130290000D01*
X159891000Y-130330000D02*
X158440000Y-130330000D01*
X156360000Y-130330000D02*
X154909000Y-130330000D01*
X159880000Y-130371000D02*
X158440000Y-130371000D01*
X156360000Y-130371000D02*
X154920000Y-130371000D01*
X159868000Y-130411000D02*
X158440000Y-130411000D01*
X156360000Y-130411000D02*
X154932000Y-130411000D01*
X159855000Y-130451000D02*
X158440000Y-130451000D01*
X156360000Y-130451000D02*
X154945000Y-130451000D01*
X159842000Y-130491000D02*
X158440000Y-130491000D01*
X156360000Y-130491000D02*
X154958000Y-130491000D01*
X159828000Y-130531000D02*
X158440000Y-130531000D01*
X156360000Y-130531000D02*
X154972000Y-130531000D01*
X159814000Y-130571000D02*
X158440000Y-130571000D01*
X156360000Y-130571000D02*
X154986000Y-130571000D01*
X159798000Y-130611000D02*
X158440000Y-130611000D01*
X156360000Y-130611000D02*
X155002000Y-130611000D01*
X159782000Y-130651000D02*
X158440000Y-130651000D01*
X156360000Y-130651000D02*
X155018000Y-130651000D01*
X159765000Y-130691000D02*
X158440000Y-130691000D01*
X156360000Y-130691000D02*
X155035000Y-130691000D01*
X159748000Y-130731000D02*
X158440000Y-130731000D01*
X156360000Y-130731000D02*
X155052000Y-130731000D01*
X159729000Y-130771000D02*
X158440000Y-130771000D01*
X156360000Y-130771000D02*
X155071000Y-130771000D01*
X159710000Y-130811000D02*
X158440000Y-130811000D01*
X156360000Y-130811000D02*
X155090000Y-130811000D01*
X159690000Y-130851000D02*
X158440000Y-130851000D01*
X156360000Y-130851000D02*
X155110000Y-130851000D01*
X159668000Y-130891000D02*
X158440000Y-130891000D01*
X156360000Y-130891000D02*
X155132000Y-130891000D01*
X159647000Y-130931000D02*
X158440000Y-130931000D01*
X156360000Y-130931000D02*
X155153000Y-130931000D01*
X159624000Y-130971000D02*
X158440000Y-130971000D01*
X156360000Y-130971000D02*
X155176000Y-130971000D01*
X159600000Y-131011000D02*
X158440000Y-131011000D01*
X156360000Y-131011000D02*
X155200000Y-131011000D01*
X159575000Y-131051000D02*
X158440000Y-131051000D01*
X156360000Y-131051000D02*
X155225000Y-131051000D01*
X159549000Y-131091000D02*
X158440000Y-131091000D01*
X156360000Y-131091000D02*
X155251000Y-131091000D01*
X159522000Y-131131000D02*
X158440000Y-131131000D01*
X156360000Y-131131000D02*
X155278000Y-131131000D01*
X159495000Y-131171000D02*
X158440000Y-131171000D01*
X156360000Y-131171000D02*
X155305000Y-131171000D01*
X159465000Y-131211000D02*
X158440000Y-131211000D01*
X156360000Y-131211000D02*
X155335000Y-131211000D01*
X159435000Y-131251000D02*
X158440000Y-131251000D01*
X156360000Y-131251000D02*
X155365000Y-131251000D01*
X159404000Y-131291000D02*
X158440000Y-131291000D01*
X156360000Y-131291000D02*
X155396000Y-131291000D01*
X159371000Y-131331000D02*
X158440000Y-131331000D01*
X156360000Y-131331000D02*
X155429000Y-131331000D01*
X159337000Y-131371000D02*
X158440000Y-131371000D01*
X156360000Y-131371000D02*
X155463000Y-131371000D01*
X159301000Y-131411000D02*
X158440000Y-131411000D01*
X156360000Y-131411000D02*
X155499000Y-131411000D01*
X159264000Y-131451000D02*
X158440000Y-131451000D01*
X156360000Y-131451000D02*
X155536000Y-131451000D01*
X159226000Y-131491000D02*
X158440000Y-131491000D01*
X156360000Y-131491000D02*
X155574000Y-131491000D01*
X159185000Y-131531000D02*
X158440000Y-131531000D01*
X156360000Y-131531000D02*
X155615000Y-131531000D01*
X159143000Y-131571000D02*
X158440000Y-131571000D01*
X156360000Y-131571000D02*
X155657000Y-131571000D01*
X159099000Y-131611000D02*
X158440000Y-131611000D01*
X156360000Y-131611000D02*
X155701000Y-131611000D01*
X159053000Y-131651000D02*
X158440000Y-131651000D01*
X156360000Y-131651000D02*
X155747000Y-131651000D01*
X159005000Y-131691000D02*
X158440000Y-131691000D01*
X156360000Y-131691000D02*
X155795000Y-131691000D01*
X158954000Y-131731000D02*
X158440000Y-131731000D01*
X156360000Y-131731000D02*
X155846000Y-131731000D01*
X158900000Y-131771000D02*
X158440000Y-131771000D01*
X156360000Y-131771000D02*
X155900000Y-131771000D01*
X158843000Y-131811000D02*
X158440000Y-131811000D01*
X156360000Y-131811000D02*
X155957000Y-131811000D01*
X158783000Y-131851000D02*
X158440000Y-131851000D01*
X156360000Y-131851000D02*
X156017000Y-131851000D01*
X158719000Y-131891000D02*
X158440000Y-131891000D01*
X156360000Y-131891000D02*
X156081000Y-131891000D01*
X158651000Y-131931000D02*
X158440000Y-131931000D01*
X156360000Y-131931000D02*
X156149000Y-131931000D01*
X158578000Y-131971000D02*
X156222000Y-131971000D01*
X158498000Y-132011000D02*
X156302000Y-132011000D01*
X158411000Y-132051000D02*
X156389000Y-132051000D01*
X158315000Y-132091000D02*
X156485000Y-132091000D01*
X158205000Y-132131000D02*
X156595000Y-132131000D01*
X158077000Y-132171000D02*
X156723000Y-132171000D01*
X157918000Y-132211000D02*
X156882000Y-132211000D01*
X157684000Y-132251000D02*
X157116000Y-132251000D01*
X158875000Y-126845225D02*
X158875000Y-127345225D01*
X159125000Y-127095225D02*
X158625000Y-127095225D01*
X172725000Y-99695225D02*
X172225000Y-99695225D01*
X172475000Y-99445225D02*
X172475000Y-99945225D01*
X171284000Y-104851000D02*
X170716000Y-104851000D01*
X171518000Y-104811000D02*
X170482000Y-104811000D01*
X171677000Y-104771000D02*
X170323000Y-104771000D01*
X171805000Y-104731000D02*
X170195000Y-104731000D01*
X171915000Y-104691000D02*
X170085000Y-104691000D01*
X172011000Y-104651000D02*
X169989000Y-104651000D01*
X172098000Y-104611000D02*
X169902000Y-104611000D01*
X172178000Y-104571000D02*
X169822000Y-104571000D01*
X169960000Y-104531000D02*
X169749000Y-104531000D01*
X172251000Y-104531000D02*
X172040000Y-104531000D01*
X169960000Y-104491000D02*
X169681000Y-104491000D01*
X172319000Y-104491000D02*
X172040000Y-104491000D01*
X169960000Y-104451000D02*
X169617000Y-104451000D01*
X172383000Y-104451000D02*
X172040000Y-104451000D01*
X169960000Y-104411000D02*
X169557000Y-104411000D01*
X172443000Y-104411000D02*
X172040000Y-104411000D01*
X169960000Y-104371000D02*
X169500000Y-104371000D01*
X172500000Y-104371000D02*
X172040000Y-104371000D01*
X169960000Y-104331000D02*
X169446000Y-104331000D01*
X172554000Y-104331000D02*
X172040000Y-104331000D01*
X169960000Y-104291000D02*
X169395000Y-104291000D01*
X172605000Y-104291000D02*
X172040000Y-104291000D01*
X169960000Y-104251000D02*
X169347000Y-104251000D01*
X172653000Y-104251000D02*
X172040000Y-104251000D01*
X169960000Y-104211000D02*
X169301000Y-104211000D01*
X172699000Y-104211000D02*
X172040000Y-104211000D01*
X169960000Y-104171000D02*
X169257000Y-104171000D01*
X172743000Y-104171000D02*
X172040000Y-104171000D01*
X169960000Y-104131000D02*
X169215000Y-104131000D01*
X172785000Y-104131000D02*
X172040000Y-104131000D01*
X169960000Y-104091000D02*
X169174000Y-104091000D01*
X172826000Y-104091000D02*
X172040000Y-104091000D01*
X169960000Y-104051000D02*
X169136000Y-104051000D01*
X172864000Y-104051000D02*
X172040000Y-104051000D01*
X169960000Y-104011000D02*
X169099000Y-104011000D01*
X172901000Y-104011000D02*
X172040000Y-104011000D01*
X169960000Y-103971000D02*
X169063000Y-103971000D01*
X172937000Y-103971000D02*
X172040000Y-103971000D01*
X169960000Y-103931000D02*
X169029000Y-103931000D01*
X172971000Y-103931000D02*
X172040000Y-103931000D01*
X169960000Y-103891000D02*
X168996000Y-103891000D01*
X173004000Y-103891000D02*
X172040000Y-103891000D01*
X169960000Y-103851000D02*
X168965000Y-103851000D01*
X173035000Y-103851000D02*
X172040000Y-103851000D01*
X169960000Y-103811000D02*
X168935000Y-103811000D01*
X173065000Y-103811000D02*
X172040000Y-103811000D01*
X169960000Y-103771000D02*
X168905000Y-103771000D01*
X173095000Y-103771000D02*
X172040000Y-103771000D01*
X169960000Y-103731000D02*
X168878000Y-103731000D01*
X173122000Y-103731000D02*
X172040000Y-103731000D01*
X169960000Y-103691000D02*
X168851000Y-103691000D01*
X173149000Y-103691000D02*
X172040000Y-103691000D01*
X169960000Y-103651000D02*
X168825000Y-103651000D01*
X173175000Y-103651000D02*
X172040000Y-103651000D01*
X169960000Y-103611000D02*
X168800000Y-103611000D01*
X173200000Y-103611000D02*
X172040000Y-103611000D01*
X169960000Y-103571000D02*
X168776000Y-103571000D01*
X173224000Y-103571000D02*
X172040000Y-103571000D01*
X169960000Y-103531000D02*
X168753000Y-103531000D01*
X173247000Y-103531000D02*
X172040000Y-103531000D01*
X169960000Y-103491000D02*
X168732000Y-103491000D01*
X173268000Y-103491000D02*
X172040000Y-103491000D01*
X169960000Y-103451000D02*
X168710000Y-103451000D01*
X173290000Y-103451000D02*
X172040000Y-103451000D01*
X169960000Y-103411000D02*
X168690000Y-103411000D01*
X173310000Y-103411000D02*
X172040000Y-103411000D01*
X169960000Y-103371000D02*
X168671000Y-103371000D01*
X173329000Y-103371000D02*
X172040000Y-103371000D01*
X169960000Y-103331000D02*
X168652000Y-103331000D01*
X173348000Y-103331000D02*
X172040000Y-103331000D01*
X169960000Y-103291000D02*
X168635000Y-103291000D01*
X173365000Y-103291000D02*
X172040000Y-103291000D01*
X169960000Y-103251000D02*
X168618000Y-103251000D01*
X173382000Y-103251000D02*
X172040000Y-103251000D01*
X169960000Y-103211000D02*
X168602000Y-103211000D01*
X173398000Y-103211000D02*
X172040000Y-103211000D01*
X169960000Y-103171000D02*
X168586000Y-103171000D01*
X173414000Y-103171000D02*
X172040000Y-103171000D01*
X169960000Y-103131000D02*
X168572000Y-103131000D01*
X173428000Y-103131000D02*
X172040000Y-103131000D01*
X169960000Y-103091000D02*
X168558000Y-103091000D01*
X173442000Y-103091000D02*
X172040000Y-103091000D01*
X169960000Y-103051000D02*
X168545000Y-103051000D01*
X173455000Y-103051000D02*
X172040000Y-103051000D01*
X169960000Y-103011000D02*
X168532000Y-103011000D01*
X173468000Y-103011000D02*
X172040000Y-103011000D01*
X169960000Y-102971000D02*
X168520000Y-102971000D01*
X173480000Y-102971000D02*
X172040000Y-102971000D01*
X169960000Y-102930000D02*
X168509000Y-102930000D01*
X173491000Y-102930000D02*
X172040000Y-102930000D01*
X169960000Y-102890000D02*
X168499000Y-102890000D01*
X173501000Y-102890000D02*
X172040000Y-102890000D01*
X169960000Y-102850000D02*
X168489000Y-102850000D01*
X173511000Y-102850000D02*
X172040000Y-102850000D01*
X169960000Y-102810000D02*
X168480000Y-102810000D01*
X173520000Y-102810000D02*
X172040000Y-102810000D01*
X169960000Y-102770000D02*
X168472000Y-102770000D01*
X173528000Y-102770000D02*
X172040000Y-102770000D01*
X169960000Y-102730000D02*
X168464000Y-102730000D01*
X173536000Y-102730000D02*
X172040000Y-102730000D01*
X169960000Y-102690000D02*
X168457000Y-102690000D01*
X173543000Y-102690000D02*
X172040000Y-102690000D01*
X169960000Y-102650000D02*
X168450000Y-102650000D01*
X173550000Y-102650000D02*
X172040000Y-102650000D01*
X169960000Y-102610000D02*
X168444000Y-102610000D01*
X173556000Y-102610000D02*
X172040000Y-102610000D01*
X169960000Y-102570000D02*
X168439000Y-102570000D01*
X173561000Y-102570000D02*
X172040000Y-102570000D01*
X169960000Y-102530000D02*
X168435000Y-102530000D01*
X173565000Y-102530000D02*
X172040000Y-102530000D01*
X169960000Y-102490000D02*
X168431000Y-102490000D01*
X173569000Y-102490000D02*
X172040000Y-102490000D01*
X173573000Y-102450000D02*
X168427000Y-102450000D01*
X173576000Y-102410000D02*
X168424000Y-102410000D01*
X173578000Y-102370000D02*
X168422000Y-102370000D01*
X173579000Y-102330000D02*
X168421000Y-102330000D01*
X173580000Y-102290000D02*
X168420000Y-102290000D01*
X173580000Y-102250000D02*
X168420000Y-102250000D01*
X173620000Y-102250000D02*
G75*
G03X173620000Y-102250000I-2620000J0D01*
G01*
X148857665Y-90078608D02*
G75*
G03X152090000Y-90235516I1672335J1078608D01*
G01*
X148857665Y-87921392D02*
G75*
G02X152090000Y-87764484I1672335J-1078608D01*
G01*
X149488870Y-90079837D02*
G75*
G03X151570961Y-90080000I1041130J1079837D01*
G01*
X149488870Y-87920163D02*
G75*
G02X151570961Y-87920000I1041130J-1079837D01*
G01*
X152090000Y-90236000D02*
X152090000Y-90080000D01*
X152090000Y-87920000D02*
X152090000Y-87764000D01*
X112320000Y-104090000D02*
X110080000Y-104090000D01*
X112320000Y-104330000D02*
X110080000Y-104330000D01*
X112320000Y-104210000D02*
X110080000Y-104210000D01*
X111200000Y-108380000D02*
X111200000Y-107730000D01*
X111200000Y-102840000D02*
X111200000Y-103490000D01*
X112320000Y-107730000D02*
X112320000Y-103490000D01*
X110080000Y-107730000D02*
X112320000Y-107730000D01*
X110080000Y-103490000D02*
X110080000Y-107730000D01*
X112320000Y-103490000D02*
X110080000Y-103490000D01*
D13*
X115600000Y-62015000D02*
X115600000Y-63385000D01*
X115600000Y-57115000D02*
X115600000Y-58485000D01*
X104900000Y-57115000D02*
X104900000Y-58485000D01*
X104900000Y-62015000D02*
X104900000Y-63385000D01*
X114132076Y-63387372D02*
G75*
G02X106366000Y-63385000I-3882076J3151223D01*
G01*
X106367924Y-57112628D02*
G75*
G02X114134000Y-57115000I3882076J-3151223D01*
G01*
X115600000Y-63385000D02*
X114134000Y-63385000D01*
X106366000Y-63385000D02*
X104900000Y-63385000D01*
X106366000Y-57115000D02*
X104900000Y-57115000D01*
X115600000Y-57115000D02*
X114134000Y-57115000D01*
D12*
X103050000Y-60250000D02*
G75*
G03X103050000Y-60250000I-200000J0D01*
G01*
D11*
X192670000Y-126110000D02*
X197870000Y-126110000D01*
X192670000Y-108270000D02*
X192670000Y-126110000D01*
X197870000Y-105670000D02*
X197870000Y-126110000D01*
X192670000Y-108270000D02*
X195270000Y-108270000D01*
X195270000Y-108270000D02*
X195270000Y-105670000D01*
X195270000Y-105670000D02*
X197870000Y-105670000D01*
X192670000Y-107000000D02*
X192670000Y-105670000D01*
X192670000Y-105670000D02*
X194000000Y-105670000D01*
X149540000Y-112000000D02*
X150400000Y-112000000D01*
X149540000Y-112000000D02*
X149540000Y-112800000D01*
X152400000Y-119480000D02*
G75*
G03X152400000Y-119480000I-1800000J0D01*
G01*
X150250000Y-114980000D02*
X146100000Y-114980000D01*
X155100000Y-114980000D02*
X150950000Y-114980000D01*
X150100000Y-125480000D02*
X146100000Y-125480000D01*
X155100000Y-125480000D02*
X151100000Y-125480000D01*
X155100000Y-114980000D02*
X155100000Y-125480000D01*
X146100000Y-114980000D02*
X146100000Y-125480000D01*
X135810000Y-52670000D02*
G75*
G02X133810000Y-52670000I-1000000J0D01*
G01*
X133810000Y-52670000D02*
X132160000Y-52670000D01*
X132160000Y-52670000D02*
X132160000Y-62950000D01*
X132160000Y-62950000D02*
X137460000Y-62950000D01*
X137460000Y-62950000D02*
X137460000Y-52670000D01*
X137460000Y-52670000D02*
X135810000Y-52670000D01*
X123460000Y-85670000D02*
X121810000Y-85670000D01*
X123460000Y-95950000D02*
X123460000Y-85670000D01*
X118160000Y-95950000D02*
X123460000Y-95950000D01*
X118160000Y-85670000D02*
X118160000Y-95950000D01*
X119810000Y-85670000D02*
X118160000Y-85670000D01*
X121810000Y-85670000D02*
G75*
G02X119810000Y-85670000I-1000000J0D01*
G01*
X187250000Y-124880000D02*
X184710000Y-124880000D01*
X187250000Y-122340000D02*
X184710000Y-122340000D01*
X187250000Y-119800000D02*
X184710000Y-119800000D01*
X170180000Y-127460000D02*
X168980000Y-127460000D01*
X172580000Y-127460000D02*
X171380000Y-127460000D01*
X174980000Y-127460000D02*
X173780000Y-127460000D01*
X170180000Y-117220000D02*
X168980000Y-117220000D01*
X172580000Y-117220000D02*
X171380000Y-117220000D01*
X174980000Y-117220000D02*
X173780000Y-117220000D01*
X168820000Y-126820000D02*
X168820000Y-127460000D01*
X168820000Y-124420000D02*
X168820000Y-125620000D01*
X168820000Y-122020000D02*
X168820000Y-123220000D01*
X168820000Y-119619000D02*
X168820000Y-120820000D01*
X168820000Y-117220000D02*
X168820000Y-118420000D01*
X184710000Y-127460000D02*
X175220000Y-127460000D01*
X184710000Y-117220000D02*
X175220000Y-117220000D01*
X175220000Y-117220000D02*
X175220000Y-127460000D01*
X184710000Y-117220000D02*
X184710000Y-127460000D01*
X184910000Y-105820000D02*
X184910000Y-116060000D01*
X175420000Y-105820000D02*
X175420000Y-116060000D01*
X184910000Y-105820000D02*
X175420000Y-105820000D01*
X184910000Y-116060000D02*
X175420000Y-116060000D01*
X169020000Y-105820000D02*
X169020000Y-107020000D01*
X169020000Y-108219000D02*
X169020000Y-109420000D01*
X169020000Y-110620000D02*
X169020000Y-111820000D01*
X169020000Y-113020000D02*
X169020000Y-114220000D01*
X169020000Y-115420000D02*
X169020000Y-116060000D01*
X175180000Y-105820000D02*
X173980000Y-105820000D01*
X172780000Y-105820000D02*
X171580000Y-105820000D01*
X170380000Y-105820000D02*
X169180000Y-105820000D01*
X175180000Y-116060000D02*
X173980000Y-116060000D01*
X172780000Y-116060000D02*
X171580000Y-116060000D01*
X170380000Y-116060000D02*
X169180000Y-116060000D01*
X187450000Y-108400000D02*
X184910000Y-108400000D01*
X187450000Y-110940000D02*
X184910000Y-110940000D01*
X187450000Y-113480000D02*
X184910000Y-113480000D01*
X169810000Y-62670000D02*
G75*
G02X167810000Y-62670000I-1000000J0D01*
G01*
X167810000Y-62670000D02*
X166160000Y-62670000D01*
X166160000Y-62670000D02*
X166160000Y-80570000D01*
X166160000Y-80570000D02*
X171460000Y-80570000D01*
X171460000Y-80570000D02*
X171460000Y-62670000D01*
X171460000Y-62670000D02*
X169810000Y-62670000D01*
X163670000Y-62610000D02*
X163670000Y-80630000D01*
X163670000Y-80630000D02*
X173950000Y-80630000D01*
X173950000Y-80630000D02*
X173950000Y-62610000D01*
X173950000Y-62610000D02*
X163670000Y-62610000D01*
X128810000Y-109670000D02*
G75*
G02X126810000Y-109670000I-1000000J0D01*
G01*
X126810000Y-109670000D02*
X125160000Y-109670000D01*
X125160000Y-109670000D02*
X125160000Y-130110000D01*
X125160000Y-130110000D02*
X130460000Y-130110000D01*
X130460000Y-130110000D02*
X130460000Y-109670000D01*
X130460000Y-109670000D02*
X128810000Y-109670000D01*
X122670000Y-109610000D02*
X122670000Y-130170000D01*
X122670000Y-130170000D02*
X132950000Y-130170000D01*
X132950000Y-130170000D02*
X132950000Y-109610000D01*
X132950000Y-109610000D02*
X122670000Y-109610000D01*
X120420000Y-54730000D02*
X117580000Y-54730000D01*
X117580000Y-54730000D02*
X117580000Y-58770000D01*
X117580000Y-58770000D02*
X120420000Y-58770000D01*
X120420000Y-58770000D02*
X120420000Y-54730000D01*
X119000000Y-54040000D02*
X119000000Y-54730000D01*
X119000000Y-59460000D02*
X119000000Y-58770000D01*
X145540000Y-56000000D02*
X146230000Y-56000000D01*
X150960000Y-56000000D02*
X150270000Y-56000000D01*
X146230000Y-57420000D02*
X150270000Y-57420000D01*
X146230000Y-54580000D02*
X146230000Y-57420000D01*
X150270000Y-54580000D02*
X146230000Y-54580000D01*
X150270000Y-57420000D02*
X150270000Y-54580000D01*
X116730000Y-67580000D02*
X116730000Y-70420000D01*
X116730000Y-70420000D02*
X120770000Y-70420000D01*
X120770000Y-70420000D02*
X120770000Y-67580000D01*
X120770000Y-67580000D02*
X116730000Y-67580000D01*
X116040000Y-69000000D02*
X116730000Y-69000000D01*
X121460000Y-69000000D02*
X120770000Y-69000000D01*
X131000000Y-93540000D02*
X131000000Y-94230000D01*
X131000000Y-98960000D02*
X131000000Y-98270000D01*
X129580000Y-94230000D02*
X129580000Y-98270000D01*
X132420000Y-94230000D02*
X129580000Y-94230000D01*
X132420000Y-98270000D02*
X132420000Y-94230000D01*
X129580000Y-98270000D02*
X132420000Y-98270000D01*
X184730000Y-67580000D02*
X184730000Y-70420000D01*
X184730000Y-70420000D02*
X188770000Y-70420000D01*
X188770000Y-70420000D02*
X188770000Y-67580000D01*
X188770000Y-67580000D02*
X184730000Y-67580000D01*
X184040000Y-69000000D02*
X184730000Y-69000000D01*
X189460000Y-69000000D02*
X188770000Y-69000000D01*
X167820000Y-125330000D02*
X164980000Y-125330000D01*
X164980000Y-125330000D02*
X164980000Y-129370000D01*
X164980000Y-129370000D02*
X167820000Y-129370000D01*
X167820000Y-129370000D02*
X167820000Y-125330000D01*
X166400000Y-124640000D02*
X166400000Y-125330000D01*
X166400000Y-130060000D02*
X166400000Y-129370000D01*
X162400000Y-130260000D02*
X162400000Y-129570000D01*
X162400000Y-124840000D02*
X162400000Y-125530000D01*
X163820000Y-129570000D02*
X163820000Y-125530000D01*
X160980000Y-129570000D02*
X163820000Y-129570000D01*
X160980000Y-125530000D02*
X160980000Y-129570000D01*
X163820000Y-125530000D02*
X160980000Y-125530000D01*
X184820000Y-98330000D02*
X181980000Y-98330000D01*
X181980000Y-98330000D02*
X181980000Y-102370000D01*
X181980000Y-102370000D02*
X184820000Y-102370000D01*
X184820000Y-102370000D02*
X184820000Y-98330000D01*
X183400000Y-97640000D02*
X183400000Y-98330000D01*
X183400000Y-103060000D02*
X183400000Y-102370000D01*
X179200000Y-103060000D02*
X179200000Y-102370000D01*
X179200000Y-97640000D02*
X179200000Y-98330000D01*
X180620000Y-102370000D02*
X180620000Y-98330000D01*
X177780000Y-102370000D02*
X180620000Y-102370000D01*
X177780000Y-98330000D02*
X177780000Y-102370000D01*
X180620000Y-98330000D02*
X177780000Y-98330000D01*
X145479000Y-107370000D02*
X145479000Y-103433000D01*
X145479000Y-99066000D02*
X145479000Y-95130000D01*
X155520000Y-107370000D02*
X155520000Y-103433000D01*
X155520000Y-99066000D02*
X155520000Y-95130000D01*
X145479000Y-107370000D02*
X147129000Y-107370000D01*
X148871000Y-107370000D02*
X149630000Y-107370000D01*
X151371000Y-107370000D02*
X152130000Y-107370000D01*
X153870000Y-107370000D02*
X155520000Y-107370000D01*
X145479000Y-95130000D02*
X155520000Y-95130000D01*
X103920000Y-63620000D02*
X103920000Y-67460000D01*
X102080000Y-63620000D02*
X102080000Y-67460000D01*
X123620000Y-59080000D02*
X127460000Y-59080000D01*
X123620000Y-60920000D02*
X127460000Y-60920000D01*
X123380000Y-64920000D02*
X119540000Y-64920000D01*
X123380000Y-63080000D02*
X119540000Y-63080000D01*
X123620000Y-54920000D02*
X127460000Y-54920000D01*
X123620000Y-53080000D02*
X127460000Y-53080000D01*
X154880000Y-87220000D02*
X154880000Y-91060000D01*
X156720000Y-87220000D02*
X156720000Y-91060000D01*
X132620000Y-66080000D02*
X136460000Y-66080000D01*
X132620000Y-67920000D02*
X136460000Y-67920000D01*
X146380000Y-53920000D02*
X142540000Y-53920000D01*
X146380000Y-52080000D02*
X142540000Y-52080000D01*
X136380000Y-70080000D02*
X132540000Y-70080000D01*
X136380000Y-71920000D02*
X132540000Y-71920000D01*
X135920000Y-97380000D02*
X135920000Y-93540000D01*
X134080000Y-97380000D02*
X134080000Y-93540000D01*
X150620000Y-53920000D02*
X154460000Y-53920000D01*
X150620000Y-52080000D02*
X154460000Y-52080000D01*
X159330000Y-92870000D02*
X159330000Y-96710000D01*
X161170000Y-92870000D02*
X161170000Y-96710000D01*
X179580000Y-145380000D02*
X179580000Y-141540000D01*
X181420000Y-145380000D02*
X181420000Y-141540000D01*
X119520000Y-105020000D02*
X119520000Y-108860000D01*
X117680000Y-105020000D02*
X117680000Y-108860000D01*
X174620000Y-55920000D02*
X178460000Y-55920000D01*
X174620000Y-54080000D02*
X178460000Y-54080000D01*
X142680000Y-116620000D02*
X142680000Y-120460000D01*
X144520000Y-116620000D02*
X144520000Y-120460000D01*
X182920000Y-55620000D02*
X182920000Y-59460000D01*
X181080000Y-55620000D02*
X181080000Y-59460000D01*
X187380000Y-72080000D02*
X183540000Y-72080000D01*
X187380000Y-73920000D02*
X183540000Y-73920000D01*
X175620000Y-52420000D02*
X179460000Y-52420000D01*
X175620000Y-50580000D02*
X179460000Y-50580000D01*
X116720000Y-103490000D02*
X114480000Y-103490000D01*
X114480000Y-103490000D02*
X114480000Y-107730000D01*
X114480000Y-107730000D02*
X116720000Y-107730000D01*
X116720000Y-107730000D02*
X116720000Y-103490000D01*
X115600000Y-102840000D02*
X115600000Y-103490000D01*
X115600000Y-108380000D02*
X115600000Y-107730000D01*
X116720000Y-104210000D02*
X114480000Y-104210000D01*
X116720000Y-104330000D02*
X114480000Y-104330000D01*
X116720000Y-104090000D02*
X114480000Y-104090000D01*
D10*
X96166666Y-143202380D02*
X95833333Y-142726190D01*
X95595238Y-143202380D02*
X95595238Y-142202380D01*
X95976190Y-142202380D01*
X96071428Y-142250000D01*
X96119047Y-142297619D01*
X96166666Y-142392857D01*
X96166666Y-142535714D01*
X96119047Y-142630952D01*
X96071428Y-142678571D01*
X95976190Y-142726190D01*
X95595238Y-142726190D01*
X96595238Y-142678571D02*
X96928571Y-142678571D01*
X97071428Y-143202380D02*
X96595238Y-143202380D01*
X96595238Y-142202380D01*
X97071428Y-142202380D01*
X97833333Y-142678571D02*
X97500000Y-142678571D01*
X97500000Y-143202380D02*
X97500000Y-142202380D01*
X97976190Y-142202380D01*
X98500000Y-142202380D02*
X98500000Y-142440476D01*
X98261904Y-142345238D02*
X98500000Y-142440476D01*
X98738095Y-142345238D01*
X98357142Y-142630952D02*
X98500000Y-142440476D01*
X98642857Y-142630952D01*
X99261904Y-142202380D02*
X99261904Y-142440476D01*
X99023809Y-142345238D02*
X99261904Y-142440476D01*
X99500000Y-142345238D01*
X99119047Y-142630952D02*
X99261904Y-142440476D01*
X99404761Y-142630952D01*
X174952380Y-144182857D02*
X174476190Y-144516190D01*
X174952380Y-144754285D02*
X173952380Y-144754285D01*
X173952380Y-144373333D01*
X174000000Y-144278095D01*
X174047619Y-144230476D01*
X174142857Y-144182857D01*
X174285714Y-144182857D01*
X174380952Y-144230476D01*
X174428571Y-144278095D01*
X174476190Y-144373333D01*
X174476190Y-144754285D01*
X174952380Y-143230476D02*
X174952380Y-143801904D01*
X174952380Y-143516190D02*
X173952380Y-143516190D01*
X174095238Y-143611428D01*
X174190476Y-143706666D01*
X174238095Y-143801904D01*
X174047619Y-142849523D02*
X174000000Y-142801904D01*
X173952380Y-142706666D01*
X173952380Y-142468571D01*
X174000000Y-142373333D01*
X174047619Y-142325714D01*
X174142857Y-142278095D01*
X174238095Y-142278095D01*
X174380952Y-142325714D01*
X174952380Y-142897142D01*
X174952380Y-142278095D01*
X183916666Y-128702380D02*
X183916666Y-129416666D01*
X183869047Y-129559523D01*
X183773809Y-129654761D01*
X183630952Y-129702380D01*
X183535714Y-129702380D01*
X184821428Y-129035714D02*
X184821428Y-129702380D01*
X184583333Y-128654761D02*
X184345238Y-129369047D01*
X184964285Y-129369047D01*
X201666666Y-142952380D02*
X201333333Y-142476190D01*
X201095238Y-142952380D02*
X201095238Y-141952380D01*
X201476190Y-141952380D01*
X201571428Y-142000000D01*
X201619047Y-142047619D01*
X201666666Y-142142857D01*
X201666666Y-142285714D01*
X201619047Y-142380952D01*
X201571428Y-142428571D01*
X201476190Y-142476190D01*
X201095238Y-142476190D01*
X202095238Y-142428571D02*
X202428571Y-142428571D01*
X202571428Y-142952380D02*
X202095238Y-142952380D01*
X202095238Y-141952380D01*
X202571428Y-141952380D01*
X203333333Y-142428571D02*
X203000000Y-142428571D01*
X203000000Y-142952380D02*
X203000000Y-141952380D01*
X203476190Y-141952380D01*
X204000000Y-141952380D02*
X204000000Y-142190476D01*
X203761904Y-142095238D02*
X204000000Y-142190476D01*
X204238095Y-142095238D01*
X203857142Y-142380952D02*
X204000000Y-142190476D01*
X204142857Y-142380952D01*
X204761904Y-141952380D02*
X204761904Y-142190476D01*
X204523809Y-142095238D02*
X204761904Y-142190476D01*
X205000000Y-142095238D01*
X204619047Y-142380952D02*
X204761904Y-142190476D01*
X204904761Y-142380952D01*
D14*
X185916190Y-54951597D02*
X185916190Y-55666905D01*
X185868502Y-55809966D01*
X185773128Y-55905340D01*
X185630067Y-55953027D01*
X185534692Y-55953027D01*
X186822245Y-54951597D02*
X186631497Y-54951597D01*
X186536122Y-54999285D01*
X186488435Y-55046972D01*
X186393061Y-55190033D01*
X186345374Y-55380782D01*
X186345374Y-55762279D01*
X186393061Y-55857653D01*
X186440748Y-55905340D01*
X186536122Y-55953027D01*
X186726871Y-55953027D01*
X186822245Y-55905340D01*
X186869932Y-55857653D01*
X186917620Y-55762279D01*
X186917620Y-55523843D01*
X186869932Y-55428469D01*
X186822245Y-55380782D01*
X186726871Y-55333095D01*
X186536122Y-55333095D01*
X186440748Y-55380782D01*
X186393061Y-55428469D01*
X186345374Y-55523843D01*
D10*
X195166666Y-49752380D02*
X194833333Y-49276190D01*
X194595238Y-49752380D02*
X194595238Y-48752380D01*
X194976190Y-48752380D01*
X195071428Y-48800000D01*
X195119047Y-48847619D01*
X195166666Y-48942857D01*
X195166666Y-49085714D01*
X195119047Y-49180952D01*
X195071428Y-49228571D01*
X194976190Y-49276190D01*
X194595238Y-49276190D01*
X195595238Y-49228571D02*
X195928571Y-49228571D01*
X196071428Y-49752380D02*
X195595238Y-49752380D01*
X195595238Y-48752380D01*
X196071428Y-48752380D01*
X196833333Y-49228571D02*
X196500000Y-49228571D01*
X196500000Y-49752380D02*
X196500000Y-48752380D01*
X196976190Y-48752380D01*
X197500000Y-48752380D02*
X197500000Y-48990476D01*
X197261904Y-48895238D02*
X197500000Y-48990476D01*
X197738095Y-48895238D01*
X197357142Y-49180952D02*
X197500000Y-48990476D01*
X197642857Y-49180952D01*
X198261904Y-48752380D02*
X198261904Y-48990476D01*
X198023809Y-48895238D02*
X198261904Y-48990476D01*
X198500000Y-48895238D01*
X198119047Y-49180952D02*
X198261904Y-48990476D01*
X198404761Y-49180952D01*
X102166666Y-49752380D02*
X101833333Y-49276190D01*
X101595238Y-49752380D02*
X101595238Y-48752380D01*
X101976190Y-48752380D01*
X102071428Y-48800000D01*
X102119047Y-48847619D01*
X102166666Y-48942857D01*
X102166666Y-49085714D01*
X102119047Y-49180952D01*
X102071428Y-49228571D01*
X101976190Y-49276190D01*
X101595238Y-49276190D01*
X102595238Y-49228571D02*
X102928571Y-49228571D01*
X103071428Y-49752380D02*
X102595238Y-49752380D01*
X102595238Y-48752380D01*
X103071428Y-48752380D01*
X103833333Y-49228571D02*
X103500000Y-49228571D01*
X103500000Y-49752380D02*
X103500000Y-48752380D01*
X103976190Y-48752380D01*
X104500000Y-48752380D02*
X104500000Y-48990476D01*
X104261904Y-48895238D02*
X104500000Y-48990476D01*
X104738095Y-48895238D01*
X104357142Y-49180952D02*
X104500000Y-48990476D01*
X104642857Y-49180952D01*
X105261904Y-48752380D02*
X105261904Y-48990476D01*
X105023809Y-48895238D02*
X105261904Y-48990476D01*
X105500000Y-48895238D01*
X105119047Y-49180952D02*
X105261904Y-48990476D01*
X105404761Y-49180952D01*
X179107142Y-67202380D02*
X178773809Y-66726190D01*
X178535714Y-67202380D02*
X178535714Y-66202380D01*
X178916666Y-66202380D01*
X179011904Y-66250000D01*
X179059523Y-66297619D01*
X179107142Y-66392857D01*
X179107142Y-66535714D01*
X179059523Y-66630952D01*
X179011904Y-66678571D01*
X178916666Y-66726190D01*
X178535714Y-66726190D01*
X180059523Y-67202380D02*
X179488095Y-67202380D01*
X179773809Y-67202380D02*
X179773809Y-66202380D01*
X179678571Y-66345238D01*
X179583333Y-66440476D01*
X179488095Y-66488095D01*
X180535714Y-67202380D02*
X180726190Y-67202380D01*
X180821428Y-67154761D01*
X180869047Y-67107142D01*
X180964285Y-66964285D01*
X181011904Y-66773809D01*
X181011904Y-66392857D01*
X180964285Y-66297619D01*
X180916666Y-66250000D01*
X180821428Y-66202380D01*
X180630952Y-66202380D01*
X180535714Y-66250000D01*
X180488095Y-66297619D01*
X180440476Y-66392857D01*
X180440476Y-66630952D01*
X180488095Y-66726190D01*
X180535714Y-66773809D01*
X180630952Y-66821428D01*
X180821428Y-66821428D01*
X180916666Y-66773809D01*
X180964285Y-66726190D01*
X181011904Y-66630952D01*
X105666666Y-127202380D02*
X105666666Y-127916666D01*
X105619047Y-128059523D01*
X105523809Y-128154761D01*
X105380952Y-128202380D01*
X105285714Y-128202380D01*
X106047619Y-127202380D02*
X106666666Y-127202380D01*
X106333333Y-127583333D01*
X106476190Y-127583333D01*
X106571428Y-127630952D01*
X106619047Y-127678571D01*
X106666666Y-127773809D01*
X106666666Y-128011904D01*
X106619047Y-128107142D01*
X106571428Y-128154761D01*
X106476190Y-128202380D01*
X106190476Y-128202380D01*
X106095238Y-128154761D01*
X106047619Y-128107142D01*
X154107142Y-130892857D02*
X154154761Y-130940476D01*
X154202380Y-131083333D01*
X154202380Y-131178571D01*
X154154761Y-131321428D01*
X154059523Y-131416666D01*
X153964285Y-131464285D01*
X153773809Y-131511904D01*
X153630952Y-131511904D01*
X153440476Y-131464285D01*
X153345238Y-131416666D01*
X153250000Y-131321428D01*
X153202380Y-131178571D01*
X153202380Y-131083333D01*
X153250000Y-130940476D01*
X153297619Y-130892857D01*
X154202380Y-129940476D02*
X154202380Y-130511904D01*
X154202380Y-130226190D02*
X153202380Y-130226190D01*
X153345238Y-130321428D01*
X153440476Y-130416666D01*
X153488095Y-130511904D01*
X153202380Y-129321428D02*
X153202380Y-129226190D01*
X153250000Y-129130952D01*
X153297619Y-129083333D01*
X153392857Y-129035714D01*
X153583333Y-128988095D01*
X153821428Y-128988095D01*
X154011904Y-129035714D01*
X154107142Y-129083333D01*
X154154761Y-129130952D01*
X154202380Y-129226190D01*
X154202380Y-129321428D01*
X154154761Y-129416666D01*
X154107142Y-129464285D01*
X154011904Y-129511904D01*
X153821428Y-129559523D01*
X153583333Y-129559523D01*
X153392857Y-129511904D01*
X153297619Y-129464285D01*
X153250000Y-129416666D01*
X153202380Y-129321428D01*
X175107142Y-102892857D02*
X175154761Y-102940476D01*
X175202380Y-103083333D01*
X175202380Y-103178571D01*
X175154761Y-103321428D01*
X175059523Y-103416666D01*
X174964285Y-103464285D01*
X174773809Y-103511904D01*
X174630952Y-103511904D01*
X174440476Y-103464285D01*
X174345238Y-103416666D01*
X174250000Y-103321428D01*
X174202380Y-103178571D01*
X174202380Y-103083333D01*
X174250000Y-102940476D01*
X174297619Y-102892857D01*
X175202380Y-101940476D02*
X175202380Y-102511904D01*
X175202380Y-102226190D02*
X174202380Y-102226190D01*
X174345238Y-102321428D01*
X174440476Y-102416666D01*
X174488095Y-102511904D01*
X175202380Y-100988095D02*
X175202380Y-101559523D01*
X175202380Y-101273809D02*
X174202380Y-101273809D01*
X174345238Y-101369047D01*
X174440476Y-101464285D01*
X174488095Y-101559523D01*
X149791904Y-92412380D02*
X149791904Y-91412380D01*
X150030000Y-91412380D01*
X150172857Y-91460000D01*
X150268095Y-91555238D01*
X150315714Y-91650476D01*
X150363333Y-91840952D01*
X150363333Y-91983809D01*
X150315714Y-92174285D01*
X150268095Y-92269523D01*
X150172857Y-92364761D01*
X150030000Y-92412380D01*
X149791904Y-92412380D01*
X151315714Y-92412380D02*
X150744285Y-92412380D01*
X151030000Y-92412380D02*
X151030000Y-91412380D01*
X150934761Y-91555238D01*
X150839523Y-91650476D01*
X150744285Y-91698095D01*
X111452380Y-100238095D02*
X110452380Y-100238095D01*
X110452380Y-100000000D01*
X110500000Y-99857142D01*
X110595238Y-99761904D01*
X110690476Y-99714285D01*
X110880952Y-99666666D01*
X111023809Y-99666666D01*
X111214285Y-99714285D01*
X111309523Y-99761904D01*
X111404761Y-99857142D01*
X111452380Y-100000000D01*
X111452380Y-100238095D01*
X110452380Y-99333333D02*
X110452380Y-98714285D01*
X110833333Y-99047619D01*
X110833333Y-98904761D01*
X110880952Y-98809523D01*
X110928571Y-98761904D01*
X111023809Y-98714285D01*
X111261904Y-98714285D01*
X111357142Y-98761904D01*
X111404761Y-98809523D01*
X111452380Y-98904761D01*
X111452380Y-99190476D01*
X111404761Y-99285714D01*
X111357142Y-99333333D01*
X113452380Y-102061904D02*
X112452380Y-102061904D01*
X113452380Y-101490476D02*
X112880952Y-101919047D01*
X112452380Y-101490476D02*
X113023809Y-102061904D01*
D14*
X108166190Y-53701597D02*
X108166190Y-54416905D01*
X108118502Y-54559966D01*
X108023128Y-54655340D01*
X107880067Y-54703027D01*
X107784692Y-54703027D01*
X109167620Y-54703027D02*
X108595374Y-54703027D01*
X108881497Y-54703027D02*
X108881497Y-53701597D01*
X108786122Y-53844659D01*
X108690748Y-53940033D01*
X108595374Y-53987720D01*
D10*
X195166666Y-103202380D02*
X195166666Y-103916666D01*
X195119047Y-104059523D01*
X195023809Y-104154761D01*
X194880952Y-104202380D01*
X194785714Y-104202380D01*
X195595238Y-103297619D02*
X195642857Y-103250000D01*
X195738095Y-103202380D01*
X195976190Y-103202380D01*
X196071428Y-103250000D01*
X196119047Y-103297619D01*
X196166666Y-103392857D01*
X196166666Y-103488095D01*
X196119047Y-103630952D01*
X195547619Y-104202380D01*
X196166666Y-104202380D01*
X144166666Y-111452380D02*
X144166666Y-112166666D01*
X144119047Y-112309523D01*
X144023809Y-112404761D01*
X143880952Y-112452380D01*
X143785714Y-112452380D01*
X145119047Y-111452380D02*
X144642857Y-111452380D01*
X144595238Y-111928571D01*
X144642857Y-111880952D01*
X144738095Y-111833333D01*
X144976190Y-111833333D01*
X145071428Y-111880952D01*
X145119047Y-111928571D01*
X145166666Y-112023809D01*
X145166666Y-112261904D01*
X145119047Y-112357142D01*
X145071428Y-112404761D01*
X144976190Y-112452380D01*
X144738095Y-112452380D01*
X144642857Y-112404761D01*
X144595238Y-112357142D01*
X134048095Y-51122380D02*
X134048095Y-51931904D01*
X134095714Y-52027142D01*
X134143333Y-52074761D01*
X134238571Y-52122380D01*
X134429047Y-52122380D01*
X134524285Y-52074761D01*
X134571904Y-52027142D01*
X134619523Y-51931904D01*
X134619523Y-51122380D01*
X135619523Y-52122380D02*
X135048095Y-52122380D01*
X135333809Y-52122380D02*
X135333809Y-51122380D01*
X135238571Y-51265238D01*
X135143333Y-51360476D01*
X135048095Y-51408095D01*
X120048095Y-84122380D02*
X120048095Y-84931904D01*
X120095714Y-85027142D01*
X120143333Y-85074761D01*
X120238571Y-85122380D01*
X120429047Y-85122380D01*
X120524285Y-85074761D01*
X120571904Y-85027142D01*
X120619523Y-84931904D01*
X120619523Y-84122380D01*
X121048095Y-84217619D02*
X121095714Y-84170000D01*
X121190952Y-84122380D01*
X121429047Y-84122380D01*
X121524285Y-84170000D01*
X121571904Y-84217619D01*
X121619523Y-84312857D01*
X121619523Y-84408095D01*
X121571904Y-84550952D01*
X121000476Y-85122380D01*
X121619523Y-85122380D01*
X167272380Y-119261904D02*
X168081904Y-119261904D01*
X168177142Y-119214285D01*
X168224761Y-119166666D01*
X168272380Y-119071428D01*
X168272380Y-118880952D01*
X168224761Y-118785714D01*
X168177142Y-118738095D01*
X168081904Y-118690476D01*
X167272380Y-118690476D01*
X167272380Y-118309523D02*
X167272380Y-117690476D01*
X167653333Y-118023809D01*
X167653333Y-117880952D01*
X167700952Y-117785714D01*
X167748571Y-117738095D01*
X167843809Y-117690476D01*
X168081904Y-117690476D01*
X168177142Y-117738095D01*
X168224761Y-117785714D01*
X168272380Y-117880952D01*
X168272380Y-118166666D01*
X168224761Y-118261904D01*
X168177142Y-118309523D01*
X167472380Y-111701904D02*
X168281904Y-111701904D01*
X168377142Y-111654285D01*
X168424761Y-111606666D01*
X168472380Y-111511428D01*
X168472380Y-111320952D01*
X168424761Y-111225714D01*
X168377142Y-111178095D01*
X168281904Y-111130476D01*
X167472380Y-111130476D01*
X167805714Y-110225714D02*
X168472380Y-110225714D01*
X167424761Y-110463809D02*
X168139047Y-110701904D01*
X168139047Y-110082857D01*
X168048095Y-61122380D02*
X168048095Y-61931904D01*
X168095714Y-62027142D01*
X168143333Y-62074761D01*
X168238571Y-62122380D01*
X168429047Y-62122380D01*
X168524285Y-62074761D01*
X168571904Y-62027142D01*
X168619523Y-61931904D01*
X168619523Y-61122380D01*
X169571904Y-61122380D02*
X169095714Y-61122380D01*
X169048095Y-61598571D01*
X169095714Y-61550952D01*
X169190952Y-61503333D01*
X169429047Y-61503333D01*
X169524285Y-61550952D01*
X169571904Y-61598571D01*
X169619523Y-61693809D01*
X169619523Y-61931904D01*
X169571904Y-62027142D01*
X169524285Y-62074761D01*
X169429047Y-62122380D01*
X169190952Y-62122380D01*
X169095714Y-62074761D01*
X169048095Y-62027142D01*
X127048095Y-108122380D02*
X127048095Y-108931904D01*
X127095714Y-109027142D01*
X127143333Y-109074761D01*
X127238571Y-109122380D01*
X127429047Y-109122380D01*
X127524285Y-109074761D01*
X127571904Y-109027142D01*
X127619523Y-108931904D01*
X127619523Y-108122380D01*
X128524285Y-108122380D02*
X128333809Y-108122380D01*
X128238571Y-108170000D01*
X128190952Y-108217619D01*
X128095714Y-108360476D01*
X128048095Y-108550952D01*
X128048095Y-108931904D01*
X128095714Y-109027142D01*
X128143333Y-109074761D01*
X128238571Y-109122380D01*
X128429047Y-109122380D01*
X128524285Y-109074761D01*
X128571904Y-109027142D01*
X128619523Y-108931904D01*
X128619523Y-108693809D01*
X128571904Y-108598571D01*
X128524285Y-108550952D01*
X128429047Y-108503333D01*
X128238571Y-108503333D01*
X128143333Y-108550952D01*
X128095714Y-108598571D01*
X128048095Y-108693809D01*
X121777142Y-56916666D02*
X121824761Y-56964285D01*
X121872380Y-57107142D01*
X121872380Y-57202380D01*
X121824761Y-57345238D01*
X121729523Y-57440476D01*
X121634285Y-57488095D01*
X121443809Y-57535714D01*
X121300952Y-57535714D01*
X121110476Y-57488095D01*
X121015238Y-57440476D01*
X120920000Y-57345238D01*
X120872380Y-57202380D01*
X120872380Y-57107142D01*
X120920000Y-56964285D01*
X120967619Y-56916666D01*
X121872380Y-55964285D02*
X121872380Y-56535714D01*
X121872380Y-56250000D02*
X120872380Y-56250000D01*
X121015238Y-56345238D01*
X121110476Y-56440476D01*
X121158095Y-56535714D01*
X148083333Y-58777142D02*
X148035714Y-58824761D01*
X147892857Y-58872380D01*
X147797619Y-58872380D01*
X147654761Y-58824761D01*
X147559523Y-58729523D01*
X147511904Y-58634285D01*
X147464285Y-58443809D01*
X147464285Y-58300952D01*
X147511904Y-58110476D01*
X147559523Y-58015238D01*
X147654761Y-57920000D01*
X147797619Y-57872380D01*
X147892857Y-57872380D01*
X148035714Y-57920000D01*
X148083333Y-57967619D01*
X148464285Y-57967619D02*
X148511904Y-57920000D01*
X148607142Y-57872380D01*
X148845238Y-57872380D01*
X148940476Y-57920000D01*
X148988095Y-57967619D01*
X149035714Y-58062857D01*
X149035714Y-58158095D01*
X148988095Y-58300952D01*
X148416666Y-58872380D01*
X149035714Y-58872380D01*
X118583333Y-66937142D02*
X118535714Y-66984761D01*
X118392857Y-67032380D01*
X118297619Y-67032380D01*
X118154761Y-66984761D01*
X118059523Y-66889523D01*
X118011904Y-66794285D01*
X117964285Y-66603809D01*
X117964285Y-66460952D01*
X118011904Y-66270476D01*
X118059523Y-66175238D01*
X118154761Y-66080000D01*
X118297619Y-66032380D01*
X118392857Y-66032380D01*
X118535714Y-66080000D01*
X118583333Y-66127619D01*
X118916666Y-66032380D02*
X119535714Y-66032380D01*
X119202380Y-66413333D01*
X119345238Y-66413333D01*
X119440476Y-66460952D01*
X119488095Y-66508571D01*
X119535714Y-66603809D01*
X119535714Y-66841904D01*
X119488095Y-66937142D01*
X119440476Y-66984761D01*
X119345238Y-67032380D01*
X119059523Y-67032380D01*
X118964285Y-66984761D01*
X118916666Y-66937142D01*
X128937142Y-96416666D02*
X128984761Y-96464285D01*
X129032380Y-96607142D01*
X129032380Y-96702380D01*
X128984761Y-96845238D01*
X128889523Y-96940476D01*
X128794285Y-96988095D01*
X128603809Y-97035714D01*
X128460952Y-97035714D01*
X128270476Y-96988095D01*
X128175238Y-96940476D01*
X128080000Y-96845238D01*
X128032380Y-96702380D01*
X128032380Y-96607142D01*
X128080000Y-96464285D01*
X128127619Y-96416666D01*
X128365714Y-95559523D02*
X129032380Y-95559523D01*
X127984761Y-95797619D02*
X128699047Y-96035714D01*
X128699047Y-95416666D01*
X190333333Y-72107142D02*
X190285714Y-72154761D01*
X190142857Y-72202380D01*
X190047619Y-72202380D01*
X189904761Y-72154761D01*
X189809523Y-72059523D01*
X189761904Y-71964285D01*
X189714285Y-71773809D01*
X189714285Y-71630952D01*
X189761904Y-71440476D01*
X189809523Y-71345238D01*
X189904761Y-71250000D01*
X190047619Y-71202380D01*
X190142857Y-71202380D01*
X190285714Y-71250000D01*
X190333333Y-71297619D01*
X191238095Y-71202380D02*
X190761904Y-71202380D01*
X190714285Y-71678571D01*
X190761904Y-71630952D01*
X190857142Y-71583333D01*
X191095238Y-71583333D01*
X191190476Y-71630952D01*
X191238095Y-71678571D01*
X191285714Y-71773809D01*
X191285714Y-72011904D01*
X191238095Y-72107142D01*
X191190476Y-72154761D01*
X191095238Y-72202380D01*
X190857142Y-72202380D01*
X190761904Y-72154761D01*
X190714285Y-72107142D01*
X169357142Y-129916666D02*
X169404761Y-129964285D01*
X169452380Y-130107142D01*
X169452380Y-130202380D01*
X169404761Y-130345238D01*
X169309523Y-130440476D01*
X169214285Y-130488095D01*
X169023809Y-130535714D01*
X168880952Y-130535714D01*
X168690476Y-130488095D01*
X168595238Y-130440476D01*
X168500000Y-130345238D01*
X168452380Y-130202380D01*
X168452380Y-130107142D01*
X168500000Y-129964285D01*
X168547619Y-129916666D01*
X168452380Y-129059523D02*
X168452380Y-129250000D01*
X168500000Y-129345238D01*
X168547619Y-129392857D01*
X168690476Y-129488095D01*
X168880952Y-129535714D01*
X169261904Y-129535714D01*
X169357142Y-129488095D01*
X169404761Y-129440476D01*
X169452380Y-129345238D01*
X169452380Y-129154761D01*
X169404761Y-129059523D01*
X169357142Y-129011904D01*
X169261904Y-128964285D01*
X169023809Y-128964285D01*
X168928571Y-129011904D01*
X168880952Y-129059523D01*
X168833333Y-129154761D01*
X168833333Y-129345238D01*
X168880952Y-129440476D01*
X168928571Y-129488095D01*
X169023809Y-129535714D01*
X160357142Y-124166666D02*
X160404761Y-124214285D01*
X160452380Y-124357142D01*
X160452380Y-124452380D01*
X160404761Y-124595238D01*
X160309523Y-124690476D01*
X160214285Y-124738095D01*
X160023809Y-124785714D01*
X159880952Y-124785714D01*
X159690476Y-124738095D01*
X159595238Y-124690476D01*
X159500000Y-124595238D01*
X159452380Y-124452380D01*
X159452380Y-124357142D01*
X159500000Y-124214285D01*
X159547619Y-124166666D01*
X159452380Y-123833333D02*
X159452380Y-123166666D01*
X160452380Y-123595238D01*
X186357142Y-96916666D02*
X186404761Y-96964285D01*
X186452380Y-97107142D01*
X186452380Y-97202380D01*
X186404761Y-97345238D01*
X186309523Y-97440476D01*
X186214285Y-97488095D01*
X186023809Y-97535714D01*
X185880952Y-97535714D01*
X185690476Y-97488095D01*
X185595238Y-97440476D01*
X185500000Y-97345238D01*
X185452380Y-97202380D01*
X185452380Y-97107142D01*
X185500000Y-96964285D01*
X185547619Y-96916666D01*
X185880952Y-96345238D02*
X185833333Y-96440476D01*
X185785714Y-96488095D01*
X185690476Y-96535714D01*
X185642857Y-96535714D01*
X185547619Y-96488095D01*
X185500000Y-96440476D01*
X185452380Y-96345238D01*
X185452380Y-96154761D01*
X185500000Y-96059523D01*
X185547619Y-96011904D01*
X185642857Y-95964285D01*
X185690476Y-95964285D01*
X185785714Y-96011904D01*
X185833333Y-96059523D01*
X185880952Y-96154761D01*
X185880952Y-96345238D01*
X185928571Y-96440476D01*
X185976190Y-96488095D01*
X186071428Y-96535714D01*
X186261904Y-96535714D01*
X186357142Y-96488095D01*
X186404761Y-96440476D01*
X186452380Y-96345238D01*
X186452380Y-96154761D01*
X186404761Y-96059523D01*
X186357142Y-96011904D01*
X186261904Y-95964285D01*
X186071428Y-95964285D01*
X185976190Y-96011904D01*
X185928571Y-96059523D01*
X185880952Y-96154761D01*
X177107142Y-97166666D02*
X177154761Y-97214285D01*
X177202380Y-97357142D01*
X177202380Y-97452380D01*
X177154761Y-97595238D01*
X177059523Y-97690476D01*
X176964285Y-97738095D01*
X176773809Y-97785714D01*
X176630952Y-97785714D01*
X176440476Y-97738095D01*
X176345238Y-97690476D01*
X176250000Y-97595238D01*
X176202380Y-97452380D01*
X176202380Y-97357142D01*
X176250000Y-97214285D01*
X176297619Y-97166666D01*
X177202380Y-96690476D02*
X177202380Y-96500000D01*
X177154761Y-96404761D01*
X177107142Y-96357142D01*
X176964285Y-96261904D01*
X176773809Y-96214285D01*
X176392857Y-96214285D01*
X176297619Y-96261904D01*
X176250000Y-96309523D01*
X176202380Y-96404761D01*
X176202380Y-96595238D01*
X176250000Y-96690476D01*
X176297619Y-96738095D01*
X176392857Y-96785714D01*
X176630952Y-96785714D01*
X176726190Y-96738095D01*
X176773809Y-96690476D01*
X176821428Y-96595238D01*
X176821428Y-96404761D01*
X176773809Y-96309523D01*
X176726190Y-96261904D01*
X176630952Y-96214285D01*
X144654761Y-94452380D02*
X144321428Y-93976190D01*
X144083333Y-94452380D02*
X144083333Y-93452380D01*
X144464285Y-93452380D01*
X144559523Y-93500000D01*
X144607142Y-93547619D01*
X144654761Y-93642857D01*
X144654761Y-93785714D01*
X144607142Y-93880952D01*
X144559523Y-93928571D01*
X144464285Y-93976190D01*
X144083333Y-93976190D01*
X144940476Y-93452380D02*
X145273809Y-94452380D01*
X145607142Y-93452380D01*
X146464285Y-94452380D02*
X145892857Y-94452380D01*
X146178571Y-94452380D02*
X146178571Y-93452380D01*
X146083333Y-93595238D01*
X145988095Y-93690476D01*
X145892857Y-93738095D01*
X105372380Y-65706666D02*
X104896190Y-66040000D01*
X105372380Y-66278095D02*
X104372380Y-66278095D01*
X104372380Y-65897142D01*
X104420000Y-65801904D01*
X104467619Y-65754285D01*
X104562857Y-65706666D01*
X104705714Y-65706666D01*
X104800952Y-65754285D01*
X104848571Y-65801904D01*
X104896190Y-65897142D01*
X104896190Y-66278095D01*
X105372380Y-64754285D02*
X105372380Y-65325714D01*
X105372380Y-65040000D02*
X104372380Y-65040000D01*
X104515238Y-65135238D01*
X104610476Y-65230476D01*
X104658095Y-65325714D01*
X125373333Y-58532380D02*
X125040000Y-58056190D01*
X124801904Y-58532380D02*
X124801904Y-57532380D01*
X125182857Y-57532380D01*
X125278095Y-57580000D01*
X125325714Y-57627619D01*
X125373333Y-57722857D01*
X125373333Y-57865714D01*
X125325714Y-57960952D01*
X125278095Y-58008571D01*
X125182857Y-58056190D01*
X124801904Y-58056190D01*
X125754285Y-57627619D02*
X125801904Y-57580000D01*
X125897142Y-57532380D01*
X126135238Y-57532380D01*
X126230476Y-57580000D01*
X126278095Y-57627619D01*
X126325714Y-57722857D01*
X126325714Y-57818095D01*
X126278095Y-57960952D01*
X125706666Y-58532380D01*
X126325714Y-58532380D01*
X121333333Y-62702380D02*
X121000000Y-62226190D01*
X120761904Y-62702380D02*
X120761904Y-61702380D01*
X121142857Y-61702380D01*
X121238095Y-61750000D01*
X121285714Y-61797619D01*
X121333333Y-61892857D01*
X121333333Y-62035714D01*
X121285714Y-62130952D01*
X121238095Y-62178571D01*
X121142857Y-62226190D01*
X120761904Y-62226190D01*
X121666666Y-61702380D02*
X122285714Y-61702380D01*
X121952380Y-62083333D01*
X122095238Y-62083333D01*
X122190476Y-62130952D01*
X122238095Y-62178571D01*
X122285714Y-62273809D01*
X122285714Y-62511904D01*
X122238095Y-62607142D01*
X122190476Y-62654761D01*
X122095238Y-62702380D01*
X121809523Y-62702380D01*
X121714285Y-62654761D01*
X121666666Y-62607142D01*
X125373333Y-52532380D02*
X125040000Y-52056190D01*
X124801904Y-52532380D02*
X124801904Y-51532380D01*
X125182857Y-51532380D01*
X125278095Y-51580000D01*
X125325714Y-51627619D01*
X125373333Y-51722857D01*
X125373333Y-51865714D01*
X125325714Y-51960952D01*
X125278095Y-52008571D01*
X125182857Y-52056190D01*
X124801904Y-52056190D01*
X126230476Y-51865714D02*
X126230476Y-52532380D01*
X125992380Y-51484761D02*
X125754285Y-52199047D01*
X126373333Y-52199047D01*
X158172380Y-89306666D02*
X157696190Y-89640000D01*
X158172380Y-89878095D02*
X157172380Y-89878095D01*
X157172380Y-89497142D01*
X157220000Y-89401904D01*
X157267619Y-89354285D01*
X157362857Y-89306666D01*
X157505714Y-89306666D01*
X157600952Y-89354285D01*
X157648571Y-89401904D01*
X157696190Y-89497142D01*
X157696190Y-89878095D01*
X157172380Y-88401904D02*
X157172380Y-88878095D01*
X157648571Y-88925714D01*
X157600952Y-88878095D01*
X157553333Y-88782857D01*
X157553333Y-88544761D01*
X157600952Y-88449523D01*
X157648571Y-88401904D01*
X157743809Y-88354285D01*
X157981904Y-88354285D01*
X158077142Y-88401904D01*
X158124761Y-88449523D01*
X158172380Y-88544761D01*
X158172380Y-88782857D01*
X158124761Y-88878095D01*
X158077142Y-88925714D01*
X134373333Y-65532380D02*
X134040000Y-65056190D01*
X133801904Y-65532380D02*
X133801904Y-64532380D01*
X134182857Y-64532380D01*
X134278095Y-64580000D01*
X134325714Y-64627619D01*
X134373333Y-64722857D01*
X134373333Y-64865714D01*
X134325714Y-64960952D01*
X134278095Y-65008571D01*
X134182857Y-65056190D01*
X133801904Y-65056190D01*
X135230476Y-64532380D02*
X135040000Y-64532380D01*
X134944761Y-64580000D01*
X134897142Y-64627619D01*
X134801904Y-64770476D01*
X134754285Y-64960952D01*
X134754285Y-65341904D01*
X134801904Y-65437142D01*
X134849523Y-65484761D01*
X134944761Y-65532380D01*
X135135238Y-65532380D01*
X135230476Y-65484761D01*
X135278095Y-65437142D01*
X135325714Y-65341904D01*
X135325714Y-65103809D01*
X135278095Y-65008571D01*
X135230476Y-64960952D01*
X135135238Y-64913333D01*
X134944761Y-64913333D01*
X134849523Y-64960952D01*
X134801904Y-65008571D01*
X134754285Y-65103809D01*
X144293333Y-51702380D02*
X143960000Y-51226190D01*
X143721904Y-51702380D02*
X143721904Y-50702380D01*
X144102857Y-50702380D01*
X144198095Y-50750000D01*
X144245714Y-50797619D01*
X144293333Y-50892857D01*
X144293333Y-51035714D01*
X144245714Y-51130952D01*
X144198095Y-51178571D01*
X144102857Y-51226190D01*
X143721904Y-51226190D01*
X144626666Y-50702380D02*
X145293333Y-50702380D01*
X144864761Y-51702380D01*
X134293333Y-73372380D02*
X133960000Y-72896190D01*
X133721904Y-73372380D02*
X133721904Y-72372380D01*
X134102857Y-72372380D01*
X134198095Y-72420000D01*
X134245714Y-72467619D01*
X134293333Y-72562857D01*
X134293333Y-72705714D01*
X134245714Y-72800952D01*
X134198095Y-72848571D01*
X134102857Y-72896190D01*
X133721904Y-72896190D01*
X134864761Y-72800952D02*
X134769523Y-72753333D01*
X134721904Y-72705714D01*
X134674285Y-72610476D01*
X134674285Y-72562857D01*
X134721904Y-72467619D01*
X134769523Y-72420000D01*
X134864761Y-72372380D01*
X135055238Y-72372380D01*
X135150476Y-72420000D01*
X135198095Y-72467619D01*
X135245714Y-72562857D01*
X135245714Y-72610476D01*
X135198095Y-72705714D01*
X135150476Y-72753333D01*
X135055238Y-72800952D01*
X134864761Y-72800952D01*
X134769523Y-72848571D01*
X134721904Y-72896190D01*
X134674285Y-72991428D01*
X134674285Y-73181904D01*
X134721904Y-73277142D01*
X134769523Y-73324761D01*
X134864761Y-73372380D01*
X135055238Y-73372380D01*
X135150476Y-73324761D01*
X135198095Y-73277142D01*
X135245714Y-73181904D01*
X135245714Y-72991428D01*
X135198095Y-72896190D01*
X135150476Y-72848571D01*
X135055238Y-72800952D01*
X137702380Y-95416666D02*
X137226190Y-95750000D01*
X137702380Y-95988095D02*
X136702380Y-95988095D01*
X136702380Y-95607142D01*
X136750000Y-95511904D01*
X136797619Y-95464285D01*
X136892857Y-95416666D01*
X137035714Y-95416666D01*
X137130952Y-95464285D01*
X137178571Y-95511904D01*
X137226190Y-95607142D01*
X137226190Y-95988095D01*
X137702380Y-94940476D02*
X137702380Y-94750000D01*
X137654761Y-94654761D01*
X137607142Y-94607142D01*
X137464285Y-94511904D01*
X137273809Y-94464285D01*
X136892857Y-94464285D01*
X136797619Y-94511904D01*
X136750000Y-94559523D01*
X136702380Y-94654761D01*
X136702380Y-94845238D01*
X136750000Y-94940476D01*
X136797619Y-94988095D01*
X136892857Y-95035714D01*
X137130952Y-95035714D01*
X137226190Y-94988095D01*
X137273809Y-94940476D01*
X137321428Y-94845238D01*
X137321428Y-94654761D01*
X137273809Y-94559523D01*
X137226190Y-94511904D01*
X137130952Y-94464285D01*
X151897142Y-51532380D02*
X151563809Y-51056190D01*
X151325714Y-51532380D02*
X151325714Y-50532380D01*
X151706666Y-50532380D01*
X151801904Y-50580000D01*
X151849523Y-50627619D01*
X151897142Y-50722857D01*
X151897142Y-50865714D01*
X151849523Y-50960952D01*
X151801904Y-51008571D01*
X151706666Y-51056190D01*
X151325714Y-51056190D01*
X152849523Y-51532380D02*
X152278095Y-51532380D01*
X152563809Y-51532380D02*
X152563809Y-50532380D01*
X152468571Y-50675238D01*
X152373333Y-50770476D01*
X152278095Y-50818095D01*
X153468571Y-50532380D02*
X153563809Y-50532380D01*
X153659047Y-50580000D01*
X153706666Y-50627619D01*
X153754285Y-50722857D01*
X153801904Y-50913333D01*
X153801904Y-51151428D01*
X153754285Y-51341904D01*
X153706666Y-51437142D01*
X153659047Y-51484761D01*
X153563809Y-51532380D01*
X153468571Y-51532380D01*
X153373333Y-51484761D01*
X153325714Y-51437142D01*
X153278095Y-51341904D01*
X153230476Y-51151428D01*
X153230476Y-50913333D01*
X153278095Y-50722857D01*
X153325714Y-50627619D01*
X153373333Y-50580000D01*
X153468571Y-50532380D01*
X162622380Y-95432857D02*
X162146190Y-95766190D01*
X162622380Y-96004285D02*
X161622380Y-96004285D01*
X161622380Y-95623333D01*
X161670000Y-95528095D01*
X161717619Y-95480476D01*
X161812857Y-95432857D01*
X161955714Y-95432857D01*
X162050952Y-95480476D01*
X162098571Y-95528095D01*
X162146190Y-95623333D01*
X162146190Y-96004285D01*
X162622380Y-94480476D02*
X162622380Y-95051904D01*
X162622380Y-94766190D02*
X161622380Y-94766190D01*
X161765238Y-94861428D01*
X161860476Y-94956666D01*
X161908095Y-95051904D01*
X162622380Y-93528095D02*
X162622380Y-94099523D01*
X162622380Y-93813809D02*
X161622380Y-93813809D01*
X161765238Y-93909047D01*
X161860476Y-94004285D01*
X161908095Y-94099523D01*
X179032380Y-144102857D02*
X178556190Y-144436190D01*
X179032380Y-144674285D02*
X178032380Y-144674285D01*
X178032380Y-144293333D01*
X178080000Y-144198095D01*
X178127619Y-144150476D01*
X178222857Y-144102857D01*
X178365714Y-144102857D01*
X178460952Y-144150476D01*
X178508571Y-144198095D01*
X178556190Y-144293333D01*
X178556190Y-144674285D01*
X179032380Y-143150476D02*
X179032380Y-143721904D01*
X179032380Y-143436190D02*
X178032380Y-143436190D01*
X178175238Y-143531428D01*
X178270476Y-143626666D01*
X178318095Y-143721904D01*
X178032380Y-142817142D02*
X178032380Y-142198095D01*
X178413333Y-142531428D01*
X178413333Y-142388571D01*
X178460952Y-142293333D01*
X178508571Y-142245714D01*
X178603809Y-142198095D01*
X178841904Y-142198095D01*
X178937142Y-142245714D01*
X178984761Y-142293333D01*
X179032380Y-142388571D01*
X179032380Y-142674285D01*
X178984761Y-142769523D01*
X178937142Y-142817142D01*
X121702380Y-105392857D02*
X121226190Y-105726190D01*
X121702380Y-105964285D02*
X120702380Y-105964285D01*
X120702380Y-105583333D01*
X120750000Y-105488095D01*
X120797619Y-105440476D01*
X120892857Y-105392857D01*
X121035714Y-105392857D01*
X121130952Y-105440476D01*
X121178571Y-105488095D01*
X121226190Y-105583333D01*
X121226190Y-105964285D01*
X121702380Y-104440476D02*
X121702380Y-105011904D01*
X121702380Y-104726190D02*
X120702380Y-104726190D01*
X120845238Y-104821428D01*
X120940476Y-104916666D01*
X120988095Y-105011904D01*
X121035714Y-103583333D02*
X121702380Y-103583333D01*
X120654761Y-103821428D02*
X121369047Y-104059523D01*
X121369047Y-103440476D01*
X171607142Y-51702380D02*
X171273809Y-51226190D01*
X171035714Y-51702380D02*
X171035714Y-50702380D01*
X171416666Y-50702380D01*
X171511904Y-50750000D01*
X171559523Y-50797619D01*
X171607142Y-50892857D01*
X171607142Y-51035714D01*
X171559523Y-51130952D01*
X171511904Y-51178571D01*
X171416666Y-51226190D01*
X171035714Y-51226190D01*
X172559523Y-51702380D02*
X171988095Y-51702380D01*
X172273809Y-51702380D02*
X172273809Y-50702380D01*
X172178571Y-50845238D01*
X172083333Y-50940476D01*
X171988095Y-50988095D01*
X173464285Y-50702380D02*
X172988095Y-50702380D01*
X172940476Y-51178571D01*
X172988095Y-51130952D01*
X173083333Y-51083333D01*
X173321428Y-51083333D01*
X173416666Y-51130952D01*
X173464285Y-51178571D01*
X173511904Y-51273809D01*
X173511904Y-51511904D01*
X173464285Y-51607142D01*
X173416666Y-51654761D01*
X173321428Y-51702380D01*
X173083333Y-51702380D01*
X172988095Y-51654761D01*
X172940476Y-51607142D01*
X141952380Y-119142857D02*
X141476190Y-119476190D01*
X141952380Y-119714285D02*
X140952380Y-119714285D01*
X140952380Y-119333333D01*
X141000000Y-119238095D01*
X141047619Y-119190476D01*
X141142857Y-119142857D01*
X141285714Y-119142857D01*
X141380952Y-119190476D01*
X141428571Y-119238095D01*
X141476190Y-119333333D01*
X141476190Y-119714285D01*
X141952380Y-118190476D02*
X141952380Y-118761904D01*
X141952380Y-118476190D02*
X140952380Y-118476190D01*
X141095238Y-118571428D01*
X141190476Y-118666666D01*
X141238095Y-118761904D01*
X140952380Y-117333333D02*
X140952380Y-117523809D01*
X141000000Y-117619047D01*
X141047619Y-117666666D01*
X141190476Y-117761904D01*
X141380952Y-117809523D01*
X141761904Y-117809523D01*
X141857142Y-117761904D01*
X141904761Y-117714285D01*
X141952380Y-117619047D01*
X141952380Y-117428571D01*
X141904761Y-117333333D01*
X141857142Y-117285714D01*
X141761904Y-117238095D01*
X141523809Y-117238095D01*
X141428571Y-117285714D01*
X141380952Y-117333333D01*
X141333333Y-117428571D01*
X141333333Y-117619047D01*
X141380952Y-117714285D01*
X141428571Y-117761904D01*
X141523809Y-117809523D01*
X180452380Y-58392857D02*
X179976190Y-58726190D01*
X180452380Y-58964285D02*
X179452380Y-58964285D01*
X179452380Y-58583333D01*
X179500000Y-58488095D01*
X179547619Y-58440476D01*
X179642857Y-58392857D01*
X179785714Y-58392857D01*
X179880952Y-58440476D01*
X179928571Y-58488095D01*
X179976190Y-58583333D01*
X179976190Y-58964285D01*
X180452380Y-57440476D02*
X180452380Y-58011904D01*
X180452380Y-57726190D02*
X179452380Y-57726190D01*
X179595238Y-57821428D01*
X179690476Y-57916666D01*
X179738095Y-58011904D01*
X179452380Y-57107142D02*
X179452380Y-56440476D01*
X180452380Y-56869047D01*
X184817142Y-75372380D02*
X184483809Y-74896190D01*
X184245714Y-75372380D02*
X184245714Y-74372380D01*
X184626666Y-74372380D01*
X184721904Y-74420000D01*
X184769523Y-74467619D01*
X184817142Y-74562857D01*
X184817142Y-74705714D01*
X184769523Y-74800952D01*
X184721904Y-74848571D01*
X184626666Y-74896190D01*
X184245714Y-74896190D01*
X185769523Y-75372380D02*
X185198095Y-75372380D01*
X185483809Y-75372380D02*
X185483809Y-74372380D01*
X185388571Y-74515238D01*
X185293333Y-74610476D01*
X185198095Y-74658095D01*
X186340952Y-74800952D02*
X186245714Y-74753333D01*
X186198095Y-74705714D01*
X186150476Y-74610476D01*
X186150476Y-74562857D01*
X186198095Y-74467619D01*
X186245714Y-74420000D01*
X186340952Y-74372380D01*
X186531428Y-74372380D01*
X186626666Y-74420000D01*
X186674285Y-74467619D01*
X186721904Y-74562857D01*
X186721904Y-74610476D01*
X186674285Y-74705714D01*
X186626666Y-74753333D01*
X186531428Y-74800952D01*
X186340952Y-74800952D01*
X186245714Y-74848571D01*
X186198095Y-74896190D01*
X186150476Y-74991428D01*
X186150476Y-75181904D01*
X186198095Y-75277142D01*
X186245714Y-75324761D01*
X186340952Y-75372380D01*
X186531428Y-75372380D01*
X186626666Y-75324761D01*
X186674285Y-75277142D01*
X186721904Y-75181904D01*
X186721904Y-74991428D01*
X186674285Y-74896190D01*
X186626666Y-74848571D01*
X186531428Y-74800952D01*
X177107142Y-53952380D02*
X176773809Y-53476190D01*
X176535714Y-53952380D02*
X176535714Y-52952380D01*
X176916666Y-52952380D01*
X177011904Y-53000000D01*
X177059523Y-53047619D01*
X177107142Y-53142857D01*
X177107142Y-53285714D01*
X177059523Y-53380952D01*
X177011904Y-53428571D01*
X176916666Y-53476190D01*
X176535714Y-53476190D01*
X177488095Y-53047619D02*
X177535714Y-53000000D01*
X177630952Y-52952380D01*
X177869047Y-52952380D01*
X177964285Y-53000000D01*
X178011904Y-53047619D01*
X178059523Y-53142857D01*
X178059523Y-53238095D01*
X178011904Y-53380952D01*
X177440476Y-53952380D01*
X178059523Y-53952380D01*
X178678571Y-52952380D02*
X178773809Y-52952380D01*
X178869047Y-53000000D01*
X178916666Y-53047619D01*
X178964285Y-53142857D01*
X179011904Y-53333333D01*
X179011904Y-53571428D01*
X178964285Y-53761904D01*
X178916666Y-53857142D01*
X178869047Y-53904761D01*
X178773809Y-53952380D01*
X178678571Y-53952380D01*
X178583333Y-53904761D01*
X178535714Y-53857142D01*
X178488095Y-53761904D01*
X178440476Y-53571428D01*
X178440476Y-53333333D01*
X178488095Y-53142857D01*
X178535714Y-53047619D01*
X178583333Y-53000000D01*
X178678571Y-52952380D01*
X115702380Y-100238095D02*
X114702380Y-100238095D01*
X114702380Y-100000000D01*
X114750000Y-99857142D01*
X114845238Y-99761904D01*
X114940476Y-99714285D01*
X115130952Y-99666666D01*
X115273809Y-99666666D01*
X115464285Y-99714285D01*
X115559523Y-99761904D01*
X115654761Y-99857142D01*
X115702380Y-100000000D01*
X115702380Y-100238095D01*
X114797619Y-99285714D02*
X114750000Y-99238095D01*
X114702380Y-99142857D01*
X114702380Y-98904761D01*
X114750000Y-98809523D01*
X114797619Y-98761904D01*
X114892857Y-98714285D01*
X114988095Y-98714285D01*
X115130952Y-98761904D01*
X115702380Y-99333333D01*
X115702380Y-98714285D01*
X117852380Y-102061904D02*
X116852380Y-102061904D01*
X117852380Y-101490476D02*
X117280952Y-101919047D01*
X116852380Y-101490476D02*
X117423809Y-102061904D01*
M02*
