G04 #@! TF.GenerationSoftware,KiCad,Pcbnew,(5.1.4-0-10_14)*
G04 #@! TF.CreationDate,2020-01-10T14:19:03+01:00*
G04 #@! TF.ProjectId,Sync-Ope-proto,53796e63-2d4f-4706-952d-70726f746f2e,0.1*
G04 #@! TF.SameCoordinates,Original*
G04 #@! TF.FileFunction,Soldermask,Top*
G04 #@! TF.FilePolarity,Negative*
%FSLAX46Y46*%
G04 Gerber Fmt 4.6, Leading zero omitted, Abs format (unit mm)*
G04 Created by KiCad (PCBNEW (5.1.4-0-10_14)) date 2020-01-10 14:19:03*
%MOMM*%
%LPD*%
G04 APERTURE LIST*
%ADD10C,0.100000*%
G04 APERTURE END LIST*
D10*
G36*
X196875256Y-144891298D02*
G01*
X196981579Y-144912447D01*
X197282042Y-145036903D01*
X197552451Y-145217585D01*
X197782415Y-145447549D01*
X197963097Y-145717958D01*
X198049285Y-145926033D01*
X198087553Y-146018422D01*
X198151000Y-146337389D01*
X198151000Y-146662611D01*
X198119667Y-146820133D01*
X198087553Y-146981579D01*
X197963097Y-147282042D01*
X197782415Y-147552451D01*
X197552451Y-147782415D01*
X197282042Y-147963097D01*
X196981579Y-148087553D01*
X196875256Y-148108702D01*
X196662611Y-148151000D01*
X196337389Y-148151000D01*
X196124744Y-148108702D01*
X196018421Y-148087553D01*
X195717958Y-147963097D01*
X195447549Y-147782415D01*
X195217585Y-147552451D01*
X195036903Y-147282042D01*
X194912447Y-146981579D01*
X194880333Y-146820133D01*
X194849000Y-146662611D01*
X194849000Y-146337389D01*
X194912447Y-146018422D01*
X194950716Y-145926033D01*
X195036903Y-145717958D01*
X195217585Y-145447549D01*
X195447549Y-145217585D01*
X195717958Y-145036903D01*
X196018421Y-144912447D01*
X196124744Y-144891298D01*
X196337389Y-144849000D01*
X196662611Y-144849000D01*
X196875256Y-144891298D01*
X196875256Y-144891298D01*
G37*
G36*
X103875256Y-144891298D02*
G01*
X103981579Y-144912447D01*
X104282042Y-145036903D01*
X104552451Y-145217585D01*
X104782415Y-145447549D01*
X104963097Y-145717958D01*
X105049285Y-145926033D01*
X105087553Y-146018422D01*
X105151000Y-146337389D01*
X105151000Y-146662611D01*
X105119667Y-146820133D01*
X105087553Y-146981579D01*
X104963097Y-147282042D01*
X104782415Y-147552451D01*
X104552451Y-147782415D01*
X104282042Y-147963097D01*
X103981579Y-148087553D01*
X103875256Y-148108702D01*
X103662611Y-148151000D01*
X103337389Y-148151000D01*
X103124744Y-148108702D01*
X103018421Y-148087553D01*
X102717958Y-147963097D01*
X102447549Y-147782415D01*
X102217585Y-147552451D01*
X102036903Y-147282042D01*
X101912447Y-146981579D01*
X101880333Y-146820133D01*
X101849000Y-146662611D01*
X101849000Y-146337389D01*
X101912447Y-146018422D01*
X101950716Y-145926033D01*
X102036903Y-145717958D01*
X102217585Y-145447549D01*
X102447549Y-145217585D01*
X102717958Y-145036903D01*
X103018421Y-144912447D01*
X103124744Y-144891298D01*
X103337389Y-144849000D01*
X103662611Y-144849000D01*
X103875256Y-144891298D01*
X103875256Y-144891298D01*
G37*
G36*
X176573665Y-145332622D02*
G01*
X176647222Y-145339867D01*
X176788786Y-145382810D01*
X176919252Y-145452546D01*
X176949040Y-145476992D01*
X177033607Y-145546393D01*
X177103008Y-145630960D01*
X177127454Y-145660748D01*
X177197190Y-145791214D01*
X177240133Y-145932778D01*
X177254633Y-146080000D01*
X177240133Y-146227222D01*
X177197190Y-146368786D01*
X177127454Y-146499252D01*
X177103008Y-146529040D01*
X177033607Y-146613607D01*
X176970339Y-146665528D01*
X176919252Y-146707454D01*
X176788786Y-146777190D01*
X176647222Y-146820133D01*
X176573665Y-146827378D01*
X176536888Y-146831000D01*
X176463112Y-146831000D01*
X176426335Y-146827378D01*
X176352778Y-146820133D01*
X176211214Y-146777190D01*
X176080748Y-146707454D01*
X176029661Y-146665528D01*
X175966393Y-146613607D01*
X175896992Y-146529040D01*
X175872546Y-146499252D01*
X175802810Y-146368786D01*
X175759867Y-146227222D01*
X175745367Y-146080000D01*
X175759867Y-145932778D01*
X175802810Y-145791214D01*
X175872546Y-145660748D01*
X175896992Y-145630960D01*
X175966393Y-145546393D01*
X176050960Y-145476992D01*
X176080748Y-145452546D01*
X176211214Y-145382810D01*
X176352778Y-145339867D01*
X176426335Y-145332622D01*
X176463112Y-145329000D01*
X176536888Y-145329000D01*
X176573665Y-145332622D01*
X176573665Y-145332622D01*
G37*
G36*
X180719059Y-145277860D02*
G01*
X180842522Y-145329000D01*
X180855732Y-145334472D01*
X180978735Y-145416660D01*
X181083340Y-145521265D01*
X181165528Y-145644268D01*
X181165529Y-145644270D01*
X181196052Y-145717960D01*
X181222140Y-145780941D01*
X181251000Y-145926033D01*
X181251000Y-146073967D01*
X181222140Y-146219059D01*
X181165528Y-146355732D01*
X181083340Y-146478735D01*
X180978735Y-146583340D01*
X180855732Y-146665528D01*
X180855731Y-146665529D01*
X180855730Y-146665529D01*
X180719059Y-146722140D01*
X180573968Y-146751000D01*
X180426032Y-146751000D01*
X180280941Y-146722140D01*
X180144270Y-146665529D01*
X180144269Y-146665529D01*
X180144268Y-146665528D01*
X180021265Y-146583340D01*
X179916660Y-146478735D01*
X179834472Y-146355732D01*
X179777860Y-146219059D01*
X179749000Y-146073967D01*
X179749000Y-145926033D01*
X179777860Y-145780941D01*
X179803948Y-145717960D01*
X179834471Y-145644270D01*
X179834472Y-145644268D01*
X179916660Y-145521265D01*
X180021265Y-145416660D01*
X180144268Y-145334472D01*
X180157479Y-145329000D01*
X180280941Y-145277860D01*
X180426032Y-145249000D01*
X180573968Y-145249000D01*
X180719059Y-145277860D01*
X180719059Y-145277860D01*
G37*
G36*
X110503655Y-140562591D02*
G01*
X110575525Y-140576887D01*
X110778624Y-140661013D01*
X110961409Y-140783146D01*
X111116854Y-140938591D01*
X111238987Y-141121376D01*
X111323113Y-141324475D01*
X111323113Y-141324476D01*
X111360000Y-141509916D01*
X111366000Y-141540084D01*
X111366000Y-141759916D01*
X111323113Y-141975525D01*
X111238987Y-142178624D01*
X111116854Y-142361409D01*
X110961409Y-142516854D01*
X110778624Y-142638987D01*
X110575525Y-142723113D01*
X110503655Y-142737409D01*
X110359918Y-142766000D01*
X110140082Y-142766000D01*
X109996345Y-142737409D01*
X109924475Y-142723113D01*
X109721376Y-142638987D01*
X109538591Y-142516854D01*
X109383146Y-142361409D01*
X109261013Y-142178624D01*
X109176887Y-141975525D01*
X109134000Y-141759916D01*
X109134000Y-141540084D01*
X109140001Y-141509916D01*
X109176887Y-141324476D01*
X109176887Y-141324475D01*
X109261013Y-141121376D01*
X109383146Y-140938591D01*
X109538591Y-140783146D01*
X109721376Y-140661013D01*
X109924475Y-140576887D01*
X109996345Y-140562591D01*
X110140082Y-140534000D01*
X110359918Y-140534000D01*
X110503655Y-140562591D01*
X110503655Y-140562591D01*
G37*
G36*
X190753655Y-140312591D02*
G01*
X190825525Y-140326887D01*
X191028624Y-140411013D01*
X191211409Y-140533146D01*
X191366854Y-140688591D01*
X191488987Y-140871376D01*
X191572903Y-141073968D01*
X191573113Y-141074476D01*
X191616000Y-141290082D01*
X191616000Y-141509918D01*
X191608533Y-141547455D01*
X191573113Y-141725525D01*
X191488987Y-141928624D01*
X191366854Y-142111409D01*
X191211409Y-142266854D01*
X191028624Y-142388987D01*
X190825525Y-142473113D01*
X190753655Y-142487409D01*
X190609918Y-142516000D01*
X190390082Y-142516000D01*
X190246345Y-142487409D01*
X190174475Y-142473113D01*
X189971376Y-142388987D01*
X189788591Y-142266854D01*
X189633146Y-142111409D01*
X189511013Y-141928624D01*
X189426887Y-141725525D01*
X189391467Y-141547455D01*
X189384000Y-141509918D01*
X189384000Y-141290082D01*
X189426887Y-141074476D01*
X189427097Y-141073968D01*
X189511013Y-140871376D01*
X189633146Y-140688591D01*
X189788591Y-140533146D01*
X189971376Y-140411013D01*
X190174475Y-140326887D01*
X190246345Y-140312591D01*
X190390082Y-140284000D01*
X190609918Y-140284000D01*
X190753655Y-140312591D01*
X190753655Y-140312591D01*
G37*
G36*
X176719059Y-140277860D02*
G01*
X176837421Y-140326887D01*
X176855732Y-140334472D01*
X176978735Y-140416660D01*
X177083340Y-140521265D01*
X177165528Y-140644268D01*
X177165529Y-140644270D01*
X177222140Y-140780941D01*
X177240129Y-140871377D01*
X177251000Y-140926033D01*
X177251000Y-141073967D01*
X177222140Y-141219059D01*
X177165528Y-141355732D01*
X177083340Y-141478735D01*
X176978735Y-141583340D01*
X176855732Y-141665528D01*
X176855731Y-141665529D01*
X176855730Y-141665529D01*
X176719059Y-141722140D01*
X176573968Y-141751000D01*
X176426032Y-141751000D01*
X176280941Y-141722140D01*
X176144270Y-141665529D01*
X176144269Y-141665529D01*
X176144268Y-141665528D01*
X176021265Y-141583340D01*
X175916660Y-141478735D01*
X175834472Y-141355732D01*
X175777860Y-141219059D01*
X175749000Y-141073967D01*
X175749000Y-140926033D01*
X175759872Y-140871377D01*
X175777860Y-140780941D01*
X175834471Y-140644270D01*
X175834472Y-140644268D01*
X175916660Y-140521265D01*
X176021265Y-140416660D01*
X176144268Y-140334472D01*
X176162580Y-140326887D01*
X176280941Y-140277860D01*
X176426032Y-140249000D01*
X176573968Y-140249000D01*
X176719059Y-140277860D01*
X176719059Y-140277860D01*
G37*
G36*
X180573665Y-140172622D02*
G01*
X180647222Y-140179867D01*
X180788786Y-140222810D01*
X180919252Y-140292546D01*
X180949040Y-140316992D01*
X181033607Y-140386393D01*
X181103008Y-140470960D01*
X181127454Y-140500748D01*
X181197190Y-140631214D01*
X181240133Y-140772778D01*
X181254633Y-140920000D01*
X181240133Y-141067222D01*
X181197190Y-141208786D01*
X181127454Y-141339252D01*
X181113931Y-141355730D01*
X181033607Y-141453607D01*
X180964990Y-141509918D01*
X180919252Y-141547454D01*
X180788786Y-141617190D01*
X180647222Y-141660133D01*
X180592445Y-141665528D01*
X180536888Y-141671000D01*
X180463112Y-141671000D01*
X180407555Y-141665528D01*
X180352778Y-141660133D01*
X180211214Y-141617190D01*
X180080748Y-141547454D01*
X180035010Y-141509918D01*
X179966393Y-141453607D01*
X179886069Y-141355730D01*
X179872546Y-141339252D01*
X179802810Y-141208786D01*
X179759867Y-141067222D01*
X179745367Y-140920000D01*
X179759867Y-140772778D01*
X179802810Y-140631214D01*
X179872546Y-140500748D01*
X179896992Y-140470960D01*
X179966393Y-140386393D01*
X180050960Y-140316992D01*
X180080748Y-140292546D01*
X180211214Y-140222810D01*
X180352778Y-140179867D01*
X180426335Y-140172622D01*
X180463112Y-140169000D01*
X180536888Y-140169000D01*
X180573665Y-140172622D01*
X180573665Y-140172622D01*
G37*
G36*
X181351000Y-137851000D02*
G01*
X179649000Y-137851000D01*
X179649000Y-136149000D01*
X181351000Y-136149000D01*
X181351000Y-137851000D01*
X181351000Y-137851000D01*
G37*
G36*
X173046823Y-136161313D02*
G01*
X173207242Y-136209976D01*
X173339906Y-136280886D01*
X173355078Y-136288996D01*
X173484659Y-136395341D01*
X173591004Y-136524922D01*
X173591005Y-136524924D01*
X173670024Y-136672758D01*
X173718687Y-136833177D01*
X173735117Y-137000000D01*
X173718687Y-137166823D01*
X173670024Y-137327242D01*
X173599114Y-137459906D01*
X173591004Y-137475078D01*
X173484659Y-137604659D01*
X173355078Y-137711004D01*
X173355076Y-137711005D01*
X173207242Y-137790024D01*
X173046823Y-137838687D01*
X172921804Y-137851000D01*
X172838196Y-137851000D01*
X172713177Y-137838687D01*
X172552758Y-137790024D01*
X172404924Y-137711005D01*
X172404922Y-137711004D01*
X172275341Y-137604659D01*
X172168996Y-137475078D01*
X172160886Y-137459906D01*
X172089976Y-137327242D01*
X172041313Y-137166823D01*
X172024883Y-137000000D01*
X172041313Y-136833177D01*
X172089976Y-136672758D01*
X172168995Y-136524924D01*
X172168996Y-136524922D01*
X172275341Y-136395341D01*
X172404922Y-136288996D01*
X172420094Y-136280886D01*
X172552758Y-136209976D01*
X172713177Y-136161313D01*
X172838196Y-136149000D01*
X172921804Y-136149000D01*
X173046823Y-136161313D01*
X173046823Y-136161313D01*
G37*
G36*
X110503655Y-132262591D02*
G01*
X110575525Y-132276887D01*
X110778624Y-132361013D01*
X110961409Y-132483146D01*
X111116854Y-132638591D01*
X111238987Y-132821376D01*
X111323113Y-133024475D01*
X111323113Y-133024476D01*
X111360000Y-133209916D01*
X111366000Y-133240084D01*
X111366000Y-133459916D01*
X111323113Y-133675525D01*
X111238987Y-133878624D01*
X111116854Y-134061409D01*
X110961409Y-134216854D01*
X110778624Y-134338987D01*
X110575525Y-134423113D01*
X110503655Y-134437409D01*
X110359918Y-134466000D01*
X110140082Y-134466000D01*
X109996345Y-134437409D01*
X109924475Y-134423113D01*
X109721376Y-134338987D01*
X109538591Y-134216854D01*
X109383146Y-134061409D01*
X109261013Y-133878624D01*
X109176887Y-133675525D01*
X109134000Y-133459916D01*
X109134000Y-133240084D01*
X109140001Y-133209916D01*
X109176887Y-133024476D01*
X109176887Y-133024475D01*
X109261013Y-132821376D01*
X109383146Y-132638591D01*
X109538591Y-132483146D01*
X109721376Y-132361013D01*
X109924475Y-132276887D01*
X109996345Y-132262591D01*
X110140082Y-132234000D01*
X110359918Y-132234000D01*
X110503655Y-132262591D01*
X110503655Y-132262591D01*
G37*
G36*
X181351000Y-134351000D02*
G01*
X179649000Y-134351000D01*
X179649000Y-132649000D01*
X181351000Y-132649000D01*
X181351000Y-134351000D01*
X181351000Y-134351000D01*
G37*
G36*
X173046823Y-132661313D02*
G01*
X173207242Y-132709976D01*
X173327911Y-132774475D01*
X173355078Y-132788996D01*
X173484659Y-132895341D01*
X173591004Y-133024922D01*
X173591005Y-133024924D01*
X173670024Y-133172758D01*
X173718687Y-133333177D01*
X173735117Y-133500000D01*
X173718687Y-133666823D01*
X173670024Y-133827242D01*
X173599114Y-133959906D01*
X173591004Y-133975078D01*
X173484659Y-134104659D01*
X173355078Y-134211004D01*
X173355076Y-134211005D01*
X173207242Y-134290024D01*
X173046823Y-134338687D01*
X172921804Y-134351000D01*
X172838196Y-134351000D01*
X172713177Y-134338687D01*
X172552758Y-134290024D01*
X172404924Y-134211005D01*
X172404922Y-134211004D01*
X172275341Y-134104659D01*
X172168996Y-133975078D01*
X172160886Y-133959906D01*
X172089976Y-133827242D01*
X172041313Y-133666823D01*
X172024883Y-133500000D01*
X172041313Y-133333177D01*
X172089976Y-133172758D01*
X172168995Y-133024924D01*
X172168996Y-133024922D01*
X172275341Y-132895341D01*
X172404922Y-132788996D01*
X172432089Y-132774475D01*
X172552758Y-132709976D01*
X172713177Y-132661313D01*
X172838196Y-132649000D01*
X172921804Y-132649000D01*
X173046823Y-132661313D01*
X173046823Y-132661313D01*
G37*
G36*
X190745675Y-132011004D02*
G01*
X190825525Y-132026887D01*
X191028624Y-132111013D01*
X191211409Y-132233146D01*
X191366854Y-132388591D01*
X191488987Y-132571376D01*
X191573113Y-132774475D01*
X191573113Y-132774476D01*
X191616000Y-132990082D01*
X191616000Y-133209918D01*
X191591482Y-133333175D01*
X191573113Y-133425525D01*
X191488987Y-133628624D01*
X191366854Y-133811409D01*
X191211409Y-133966854D01*
X191028624Y-134088987D01*
X190825525Y-134173113D01*
X190753655Y-134187409D01*
X190609918Y-134216000D01*
X190390082Y-134216000D01*
X190246345Y-134187409D01*
X190174475Y-134173113D01*
X189971376Y-134088987D01*
X189788591Y-133966854D01*
X189633146Y-133811409D01*
X189511013Y-133628624D01*
X189426887Y-133425525D01*
X189408518Y-133333175D01*
X189384000Y-133209918D01*
X189384000Y-132990082D01*
X189426887Y-132774476D01*
X189426887Y-132774475D01*
X189511013Y-132571376D01*
X189633146Y-132388591D01*
X189788591Y-132233146D01*
X189971376Y-132111013D01*
X190174475Y-132026887D01*
X190254325Y-132011004D01*
X190390082Y-131984000D01*
X190609918Y-131984000D01*
X190745675Y-132011004D01*
X190745675Y-132011004D01*
G37*
G36*
X162566823Y-130461313D02*
G01*
X162727242Y-130509976D01*
X162859906Y-130580886D01*
X162875078Y-130588996D01*
X163004659Y-130695341D01*
X163111004Y-130824922D01*
X163111005Y-130824924D01*
X163190024Y-130972758D01*
X163238687Y-131133177D01*
X163255117Y-131300000D01*
X163238687Y-131466823D01*
X163190024Y-131627242D01*
X163141355Y-131718295D01*
X163111004Y-131775078D01*
X163004659Y-131904659D01*
X162875078Y-132011004D01*
X162875076Y-132011005D01*
X162727242Y-132090024D01*
X162566823Y-132138687D01*
X162441804Y-132151000D01*
X162358196Y-132151000D01*
X162233177Y-132138687D01*
X162072758Y-132090024D01*
X161924924Y-132011005D01*
X161924922Y-132011004D01*
X161795341Y-131904659D01*
X161688996Y-131775078D01*
X161658645Y-131718295D01*
X161609976Y-131627242D01*
X161561313Y-131466823D01*
X161544883Y-131300000D01*
X161561313Y-131133177D01*
X161609976Y-130972758D01*
X161688995Y-130824924D01*
X161688996Y-130824922D01*
X161795341Y-130695341D01*
X161924922Y-130588996D01*
X161940094Y-130580886D01*
X162072758Y-130509976D01*
X162233177Y-130461313D01*
X162358196Y-130449000D01*
X162441804Y-130449000D01*
X162566823Y-130461313D01*
X162566823Y-130461313D01*
G37*
G36*
X166566823Y-130261313D02*
G01*
X166727242Y-130309976D01*
X166816190Y-130357520D01*
X166875078Y-130388996D01*
X167004659Y-130495341D01*
X167111004Y-130624922D01*
X167111005Y-130624924D01*
X167190024Y-130772758D01*
X167238687Y-130933177D01*
X167255117Y-131100000D01*
X167238687Y-131266823D01*
X167190024Y-131427242D01*
X167168867Y-131466823D01*
X167111004Y-131575078D01*
X167004659Y-131704659D01*
X166875078Y-131811004D01*
X166875076Y-131811005D01*
X166727242Y-131890024D01*
X166566823Y-131938687D01*
X166441804Y-131951000D01*
X166358196Y-131951000D01*
X166233177Y-131938687D01*
X166072758Y-131890024D01*
X165924924Y-131811005D01*
X165924922Y-131811004D01*
X165795341Y-131704659D01*
X165688996Y-131575078D01*
X165631133Y-131466823D01*
X165609976Y-131427242D01*
X165561313Y-131266823D01*
X165544883Y-131100000D01*
X165561313Y-130933177D01*
X165609976Y-130772758D01*
X165688995Y-130624924D01*
X165688996Y-130624922D01*
X165795341Y-130495341D01*
X165924922Y-130388996D01*
X165983810Y-130357520D01*
X166072758Y-130309976D01*
X166233177Y-130261313D01*
X166358196Y-130249000D01*
X166441804Y-130249000D01*
X166566823Y-130261313D01*
X166566823Y-130261313D01*
G37*
G36*
X157648228Y-130081703D02*
G01*
X157803100Y-130145853D01*
X157942481Y-130238985D01*
X158061015Y-130357519D01*
X158154147Y-130496900D01*
X158218297Y-130651772D01*
X158251000Y-130816184D01*
X158251000Y-130983816D01*
X158218297Y-131148228D01*
X158154147Y-131303100D01*
X158061015Y-131442481D01*
X157942481Y-131561015D01*
X157803100Y-131654147D01*
X157648228Y-131718297D01*
X157483816Y-131751000D01*
X157316184Y-131751000D01*
X157151772Y-131718297D01*
X156996900Y-131654147D01*
X156857519Y-131561015D01*
X156738985Y-131442481D01*
X156645853Y-131303100D01*
X156581703Y-131148228D01*
X156549000Y-130983816D01*
X156549000Y-130816184D01*
X156581703Y-130651772D01*
X156645853Y-130496900D01*
X156738985Y-130357519D01*
X156857519Y-130238985D01*
X156996900Y-130145853D01*
X157151772Y-130081703D01*
X157316184Y-130049000D01*
X157483816Y-130049000D01*
X157648228Y-130081703D01*
X157648228Y-130081703D01*
G37*
G36*
X111266000Y-131216000D02*
G01*
X109234000Y-131216000D01*
X109234000Y-129284000D01*
X111266000Y-129284000D01*
X111266000Y-131216000D01*
X111266000Y-131216000D01*
G37*
G36*
X191516000Y-130966000D02*
G01*
X189484000Y-130966000D01*
X189484000Y-129034000D01*
X191516000Y-129034000D01*
X191516000Y-130966000D01*
X191516000Y-130966000D01*
G37*
G36*
X131786823Y-127941313D02*
G01*
X131947242Y-127989976D01*
X132005783Y-128021267D01*
X132095078Y-128068996D01*
X132224659Y-128175341D01*
X132331004Y-128304922D01*
X132331005Y-128304924D01*
X132410024Y-128452758D01*
X132458687Y-128613177D01*
X132475117Y-128780000D01*
X132458687Y-128946823D01*
X132410024Y-129107242D01*
X132378869Y-129165528D01*
X132331004Y-129255078D01*
X132224659Y-129384659D01*
X132095078Y-129491004D01*
X132095076Y-129491005D01*
X131947242Y-129570024D01*
X131786823Y-129618687D01*
X131661804Y-129631000D01*
X131578196Y-129631000D01*
X131453177Y-129618687D01*
X131292758Y-129570024D01*
X131144924Y-129491005D01*
X131144922Y-129491004D01*
X131015341Y-129384659D01*
X130908996Y-129255078D01*
X130861131Y-129165528D01*
X130829976Y-129107242D01*
X130781313Y-128946823D01*
X130764883Y-128780000D01*
X130781313Y-128613177D01*
X130829976Y-128452758D01*
X130908995Y-128304924D01*
X130908996Y-128304922D01*
X131015341Y-128175341D01*
X131144922Y-128068996D01*
X131234217Y-128021267D01*
X131292758Y-127989976D01*
X131453177Y-127941313D01*
X131578196Y-127929000D01*
X131661804Y-127929000D01*
X131786823Y-127941313D01*
X131786823Y-127941313D01*
G37*
G36*
X124166823Y-127941313D02*
G01*
X124327242Y-127989976D01*
X124385783Y-128021267D01*
X124475078Y-128068996D01*
X124604659Y-128175341D01*
X124711004Y-128304922D01*
X124711005Y-128304924D01*
X124790024Y-128452758D01*
X124838687Y-128613177D01*
X124855117Y-128780000D01*
X124838687Y-128946823D01*
X124790024Y-129107242D01*
X124758869Y-129165528D01*
X124711004Y-129255078D01*
X124604659Y-129384659D01*
X124475078Y-129491004D01*
X124475076Y-129491005D01*
X124327242Y-129570024D01*
X124166823Y-129618687D01*
X124041804Y-129631000D01*
X123958196Y-129631000D01*
X123833177Y-129618687D01*
X123672758Y-129570024D01*
X123524924Y-129491005D01*
X123524922Y-129491004D01*
X123395341Y-129384659D01*
X123288996Y-129255078D01*
X123241131Y-129165528D01*
X123209976Y-129107242D01*
X123161313Y-128946823D01*
X123144883Y-128780000D01*
X123161313Y-128613177D01*
X123209976Y-128452758D01*
X123288995Y-128304924D01*
X123288996Y-128304922D01*
X123395341Y-128175341D01*
X123524922Y-128068996D01*
X123614217Y-128021267D01*
X123672758Y-127989976D01*
X123833177Y-127941313D01*
X123958196Y-127929000D01*
X124041804Y-127929000D01*
X124166823Y-127941313D01*
X124166823Y-127941313D01*
G37*
G36*
X146719059Y-127777860D02*
G01*
X146779294Y-127802810D01*
X146855732Y-127834472D01*
X146978735Y-127916660D01*
X147083340Y-128021265D01*
X147165528Y-128144268D01*
X147222140Y-128280941D01*
X147251000Y-128426033D01*
X147251000Y-128573967D01*
X147222140Y-128719059D01*
X147165528Y-128855732D01*
X147083340Y-128978735D01*
X146978735Y-129083340D01*
X146855732Y-129165528D01*
X146855731Y-129165529D01*
X146855730Y-129165529D01*
X146719059Y-129222140D01*
X146573968Y-129251000D01*
X146426032Y-129251000D01*
X146280941Y-129222140D01*
X146144270Y-129165529D01*
X146144269Y-129165529D01*
X146144268Y-129165528D01*
X146021265Y-129083340D01*
X145916660Y-128978735D01*
X145834472Y-128855732D01*
X145777860Y-128719059D01*
X145749000Y-128573967D01*
X145749000Y-128426033D01*
X145777860Y-128280941D01*
X145834472Y-128144268D01*
X145916660Y-128021265D01*
X146021265Y-127916660D01*
X146144268Y-127834472D01*
X146220707Y-127802810D01*
X146280941Y-127777860D01*
X146426032Y-127749000D01*
X146573968Y-127749000D01*
X146719059Y-127777860D01*
X146719059Y-127777860D01*
G37*
G36*
X158251000Y-129251000D02*
G01*
X156549000Y-129251000D01*
X156549000Y-127549000D01*
X158251000Y-127549000D01*
X158251000Y-129251000D01*
X158251000Y-129251000D01*
G37*
G36*
X141493665Y-127752622D02*
G01*
X141567222Y-127759867D01*
X141708786Y-127802810D01*
X141839252Y-127872546D01*
X141869040Y-127896992D01*
X141953607Y-127966393D01*
X142023008Y-128050960D01*
X142047454Y-128080748D01*
X142117190Y-128211214D01*
X142160133Y-128352778D01*
X142174633Y-128500000D01*
X142160133Y-128647222D01*
X142117190Y-128788786D01*
X142047454Y-128919252D01*
X142024827Y-128946823D01*
X141953607Y-129033607D01*
X141893004Y-129083341D01*
X141839252Y-129127454D01*
X141708786Y-129197190D01*
X141567222Y-129240133D01*
X141493665Y-129247378D01*
X141456888Y-129251000D01*
X141383112Y-129251000D01*
X141346335Y-129247378D01*
X141272778Y-129240133D01*
X141131214Y-129197190D01*
X141000748Y-129127454D01*
X140946996Y-129083341D01*
X140886393Y-129033607D01*
X140815173Y-128946823D01*
X140792546Y-128919252D01*
X140722810Y-128788786D01*
X140679867Y-128647222D01*
X140665367Y-128500000D01*
X140679867Y-128352778D01*
X140722810Y-128211214D01*
X140792546Y-128080748D01*
X140816992Y-128050960D01*
X140886393Y-127966393D01*
X140970960Y-127896992D01*
X141000748Y-127872546D01*
X141131214Y-127802810D01*
X141272778Y-127759867D01*
X141346335Y-127752622D01*
X141383112Y-127749000D01*
X141456888Y-127749000D01*
X141493665Y-127752622D01*
X141493665Y-127752622D01*
G37*
G36*
X124166823Y-125401313D02*
G01*
X124327242Y-125449976D01*
X124450764Y-125516000D01*
X124475078Y-125528996D01*
X124604659Y-125635341D01*
X124711004Y-125764922D01*
X124711005Y-125764924D01*
X124790024Y-125912758D01*
X124838687Y-126073177D01*
X124855117Y-126240000D01*
X124838687Y-126406823D01*
X124790024Y-126567242D01*
X124719114Y-126699906D01*
X124711004Y-126715078D01*
X124604659Y-126844659D01*
X124475078Y-126951004D01*
X124475076Y-126951005D01*
X124327242Y-127030024D01*
X124166823Y-127078687D01*
X124041804Y-127091000D01*
X123958196Y-127091000D01*
X123833177Y-127078687D01*
X123672758Y-127030024D01*
X123524924Y-126951005D01*
X123524922Y-126951004D01*
X123395341Y-126844659D01*
X123288996Y-126715078D01*
X123280886Y-126699906D01*
X123209976Y-126567242D01*
X123161313Y-126406823D01*
X123144883Y-126240000D01*
X123161313Y-126073177D01*
X123209976Y-125912758D01*
X123288995Y-125764924D01*
X123288996Y-125764922D01*
X123395341Y-125635341D01*
X123524922Y-125528996D01*
X123549236Y-125516000D01*
X123672758Y-125449976D01*
X123833177Y-125401313D01*
X123958196Y-125389000D01*
X124041804Y-125389000D01*
X124166823Y-125401313D01*
X124166823Y-125401313D01*
G37*
G36*
X131786823Y-125401313D02*
G01*
X131947242Y-125449976D01*
X132070764Y-125516000D01*
X132095078Y-125528996D01*
X132224659Y-125635341D01*
X132331004Y-125764922D01*
X132331005Y-125764924D01*
X132410024Y-125912758D01*
X132458687Y-126073177D01*
X132475117Y-126240000D01*
X132458687Y-126406823D01*
X132410024Y-126567242D01*
X132339114Y-126699906D01*
X132331004Y-126715078D01*
X132224659Y-126844659D01*
X132095078Y-126951004D01*
X132095076Y-126951005D01*
X131947242Y-127030024D01*
X131786823Y-127078687D01*
X131661804Y-127091000D01*
X131578196Y-127091000D01*
X131453177Y-127078687D01*
X131292758Y-127030024D01*
X131144924Y-126951005D01*
X131144922Y-126951004D01*
X131015341Y-126844659D01*
X130908996Y-126715078D01*
X130900886Y-126699906D01*
X130829976Y-126567242D01*
X130781313Y-126406823D01*
X130764883Y-126240000D01*
X130781313Y-126073177D01*
X130829976Y-125912758D01*
X130908995Y-125764924D01*
X130908996Y-125764922D01*
X131015341Y-125635341D01*
X131144922Y-125528996D01*
X131169236Y-125516000D01*
X131292758Y-125449976D01*
X131453177Y-125401313D01*
X131578196Y-125389000D01*
X131661804Y-125389000D01*
X131786823Y-125401313D01*
X131786823Y-125401313D01*
G37*
G36*
X188545936Y-123881340D02*
G01*
X188644220Y-123891020D01*
X188833381Y-123948401D01*
X189007712Y-124041583D01*
X189160515Y-124166985D01*
X189285917Y-124319788D01*
X189379099Y-124494119D01*
X189436480Y-124683280D01*
X189455855Y-124880000D01*
X189436480Y-125076720D01*
X189379099Y-125265881D01*
X189285917Y-125440212D01*
X189160515Y-125593015D01*
X189007712Y-125718417D01*
X188833381Y-125811599D01*
X188644220Y-125868980D01*
X188545936Y-125878660D01*
X188496795Y-125883500D01*
X188303205Y-125883500D01*
X188254064Y-125878660D01*
X188155780Y-125868980D01*
X187966619Y-125811599D01*
X187792288Y-125718417D01*
X187639485Y-125593015D01*
X187514083Y-125440212D01*
X187420901Y-125265881D01*
X187363520Y-125076720D01*
X187344145Y-124880000D01*
X187363520Y-124683280D01*
X187420901Y-124494119D01*
X187514083Y-124319788D01*
X187639485Y-124166985D01*
X187792288Y-124041583D01*
X187966619Y-123948401D01*
X188155780Y-123891020D01*
X188254064Y-123881340D01*
X188303205Y-123876500D01*
X188496795Y-123876500D01*
X188545936Y-123881340D01*
X188545936Y-123881340D01*
G37*
G36*
X196650443Y-123885519D02*
G01*
X196716627Y-123892037D01*
X196886466Y-123943557D01*
X196886468Y-123943558D01*
X196895530Y-123948402D01*
X197042991Y-124027222D01*
X197068588Y-124048229D01*
X197180186Y-124139814D01*
X197263448Y-124241271D01*
X197292778Y-124277009D01*
X197376443Y-124433534D01*
X197427963Y-124603373D01*
X197445359Y-124780000D01*
X197427963Y-124956627D01*
X197376443Y-125126466D01*
X197292778Y-125282991D01*
X197263448Y-125318729D01*
X197180186Y-125420186D01*
X197115693Y-125473113D01*
X197042991Y-125532778D01*
X196886466Y-125616443D01*
X196716627Y-125667963D01*
X196650442Y-125674482D01*
X196584260Y-125681000D01*
X196495740Y-125681000D01*
X196429558Y-125674482D01*
X196363373Y-125667963D01*
X196193534Y-125616443D01*
X196037009Y-125532778D01*
X195964307Y-125473113D01*
X195899814Y-125420186D01*
X195816552Y-125318729D01*
X195787222Y-125282991D01*
X195703557Y-125126466D01*
X195652037Y-124956627D01*
X195634641Y-124780000D01*
X195652037Y-124603373D01*
X195703557Y-124433534D01*
X195787222Y-124277009D01*
X195816552Y-124241271D01*
X195899814Y-124139814D01*
X196011412Y-124048229D01*
X196037009Y-124027222D01*
X196184470Y-123948402D01*
X196193532Y-123943558D01*
X196193534Y-123943557D01*
X196363373Y-123892037D01*
X196429557Y-123885519D01*
X196495740Y-123879000D01*
X196584260Y-123879000D01*
X196650443Y-123885519D01*
X196650443Y-123885519D01*
G37*
G36*
X194110443Y-123885519D02*
G01*
X194176627Y-123892037D01*
X194346466Y-123943557D01*
X194346468Y-123943558D01*
X194355530Y-123948402D01*
X194502991Y-124027222D01*
X194528588Y-124048229D01*
X194640186Y-124139814D01*
X194723448Y-124241271D01*
X194752778Y-124277009D01*
X194836443Y-124433534D01*
X194887963Y-124603373D01*
X194905359Y-124780000D01*
X194887963Y-124956627D01*
X194836443Y-125126466D01*
X194752778Y-125282991D01*
X194723448Y-125318729D01*
X194640186Y-125420186D01*
X194575693Y-125473113D01*
X194502991Y-125532778D01*
X194346466Y-125616443D01*
X194176627Y-125667963D01*
X194110442Y-125674482D01*
X194044260Y-125681000D01*
X193955740Y-125681000D01*
X193889558Y-125674482D01*
X193823373Y-125667963D01*
X193653534Y-125616443D01*
X193497009Y-125532778D01*
X193424307Y-125473113D01*
X193359814Y-125420186D01*
X193276552Y-125318729D01*
X193247222Y-125282991D01*
X193163557Y-125126466D01*
X193112037Y-124956627D01*
X193094641Y-124780000D01*
X193112037Y-124603373D01*
X193163557Y-124433534D01*
X193247222Y-124277009D01*
X193276552Y-124241271D01*
X193359814Y-124139814D01*
X193471412Y-124048229D01*
X193497009Y-124027222D01*
X193644470Y-123948402D01*
X193653532Y-123943558D01*
X193653534Y-123943557D01*
X193823373Y-123892037D01*
X193889557Y-123885519D01*
X193955740Y-123879000D01*
X194044260Y-123879000D01*
X194110443Y-123885519D01*
X194110443Y-123885519D01*
G37*
G36*
X150853655Y-123312591D02*
G01*
X150925525Y-123326887D01*
X151128624Y-123411013D01*
X151311409Y-123533146D01*
X151466854Y-123688591D01*
X151588987Y-123871376D01*
X151673113Y-124074475D01*
X151673113Y-124074476D01*
X151716000Y-124290082D01*
X151716000Y-124509918D01*
X151697410Y-124603375D01*
X151673113Y-124725525D01*
X151588987Y-124928624D01*
X151466854Y-125111409D01*
X151311409Y-125266854D01*
X151128624Y-125388987D01*
X150925525Y-125473113D01*
X150853655Y-125487409D01*
X150709918Y-125516000D01*
X150490082Y-125516000D01*
X150346345Y-125487409D01*
X150274475Y-125473113D01*
X150071376Y-125388987D01*
X149888591Y-125266854D01*
X149733146Y-125111409D01*
X149611013Y-124928624D01*
X149526887Y-124725525D01*
X149502590Y-124603375D01*
X149484000Y-124509918D01*
X149484000Y-124290082D01*
X149526887Y-124074476D01*
X149526887Y-124074475D01*
X149611013Y-123871376D01*
X149733146Y-123688591D01*
X149888591Y-123533146D01*
X150071376Y-123411013D01*
X150274475Y-123326887D01*
X150346345Y-123312591D01*
X150490082Y-123284000D01*
X150709918Y-123284000D01*
X150853655Y-123312591D01*
X150853655Y-123312591D01*
G37*
G36*
X162648228Y-122981703D02*
G01*
X162803100Y-123045853D01*
X162942481Y-123138985D01*
X163061015Y-123257519D01*
X163154147Y-123396900D01*
X163218297Y-123551772D01*
X163251000Y-123716184D01*
X163251000Y-123883816D01*
X163218297Y-124048228D01*
X163154147Y-124203100D01*
X163061015Y-124342481D01*
X162942481Y-124461015D01*
X162803100Y-124554147D01*
X162648228Y-124618297D01*
X162483816Y-124651000D01*
X162316184Y-124651000D01*
X162151772Y-124618297D01*
X161996900Y-124554147D01*
X161857519Y-124461015D01*
X161738985Y-124342481D01*
X161645853Y-124203100D01*
X161581703Y-124048228D01*
X161549000Y-123883816D01*
X161549000Y-123716184D01*
X161581703Y-123551772D01*
X161645853Y-123396900D01*
X161738985Y-123257519D01*
X161857519Y-123138985D01*
X161996900Y-123045853D01*
X162151772Y-122981703D01*
X162316184Y-122949000D01*
X162483816Y-122949000D01*
X162648228Y-122981703D01*
X162648228Y-122981703D01*
G37*
G36*
X124166823Y-122861313D02*
G01*
X124327242Y-122909976D01*
X124459906Y-122980886D01*
X124475078Y-122988996D01*
X124604659Y-123095341D01*
X124711004Y-123224922D01*
X124711005Y-123224924D01*
X124790024Y-123372758D01*
X124838687Y-123533177D01*
X124855117Y-123700000D01*
X124838687Y-123866823D01*
X124790024Y-124027242D01*
X124743148Y-124114941D01*
X124711004Y-124175078D01*
X124604659Y-124304659D01*
X124475078Y-124411004D01*
X124475076Y-124411005D01*
X124327242Y-124490024D01*
X124166823Y-124538687D01*
X124041804Y-124551000D01*
X123958196Y-124551000D01*
X123833177Y-124538687D01*
X123672758Y-124490024D01*
X123524924Y-124411005D01*
X123524922Y-124411004D01*
X123395341Y-124304659D01*
X123288996Y-124175078D01*
X123256852Y-124114941D01*
X123209976Y-124027242D01*
X123161313Y-123866823D01*
X123144883Y-123700000D01*
X123161313Y-123533177D01*
X123209976Y-123372758D01*
X123288995Y-123224924D01*
X123288996Y-123224922D01*
X123395341Y-123095341D01*
X123524922Y-122988996D01*
X123540094Y-122980886D01*
X123672758Y-122909976D01*
X123833177Y-122861313D01*
X123958196Y-122849000D01*
X124041804Y-122849000D01*
X124166823Y-122861313D01*
X124166823Y-122861313D01*
G37*
G36*
X131786823Y-122861313D02*
G01*
X131947242Y-122909976D01*
X132079906Y-122980886D01*
X132095078Y-122988996D01*
X132224659Y-123095341D01*
X132331004Y-123224922D01*
X132331005Y-123224924D01*
X132410024Y-123372758D01*
X132458687Y-123533177D01*
X132475117Y-123700000D01*
X132458687Y-123866823D01*
X132410024Y-124027242D01*
X132363148Y-124114941D01*
X132331004Y-124175078D01*
X132224659Y-124304659D01*
X132095078Y-124411004D01*
X132095076Y-124411005D01*
X131947242Y-124490024D01*
X131786823Y-124538687D01*
X131661804Y-124551000D01*
X131578196Y-124551000D01*
X131453177Y-124538687D01*
X131292758Y-124490024D01*
X131144924Y-124411005D01*
X131144922Y-124411004D01*
X131015341Y-124304659D01*
X130908996Y-124175078D01*
X130876852Y-124114941D01*
X130829976Y-124027242D01*
X130781313Y-123866823D01*
X130764883Y-123700000D01*
X130781313Y-123533177D01*
X130829976Y-123372758D01*
X130908995Y-123224924D01*
X130908996Y-123224922D01*
X131015341Y-123095341D01*
X131144922Y-122988996D01*
X131160094Y-122980886D01*
X131292758Y-122909976D01*
X131453177Y-122861313D01*
X131578196Y-122849000D01*
X131661804Y-122849000D01*
X131786823Y-122861313D01*
X131786823Y-122861313D01*
G37*
G36*
X166648228Y-122781703D02*
G01*
X166803100Y-122845853D01*
X166942481Y-122938985D01*
X167061015Y-123057519D01*
X167154147Y-123196900D01*
X167218297Y-123351772D01*
X167251000Y-123516184D01*
X167251000Y-123683816D01*
X167218297Y-123848228D01*
X167154147Y-124003100D01*
X167061015Y-124142481D01*
X166942481Y-124261015D01*
X166803100Y-124354147D01*
X166648228Y-124418297D01*
X166483816Y-124451000D01*
X166316184Y-124451000D01*
X166151772Y-124418297D01*
X165996900Y-124354147D01*
X165857519Y-124261015D01*
X165738985Y-124142481D01*
X165645853Y-124003100D01*
X165581703Y-123848228D01*
X165549000Y-123683816D01*
X165549000Y-123516184D01*
X165581703Y-123351772D01*
X165645853Y-123196900D01*
X165738985Y-123057519D01*
X165857519Y-122938985D01*
X165996900Y-122845853D01*
X166151772Y-122781703D01*
X166316184Y-122749000D01*
X166483816Y-122749000D01*
X166648228Y-122781703D01*
X166648228Y-122781703D01*
G37*
G36*
X171903538Y-120546393D02*
G01*
X172093058Y-120565059D01*
X172432548Y-120668042D01*
X172432550Y-120668043D01*
X172745422Y-120835277D01*
X173019661Y-121060339D01*
X173244723Y-121334578D01*
X173326313Y-121487222D01*
X173411958Y-121647452D01*
X173514941Y-121986942D01*
X173549714Y-122340000D01*
X173514941Y-122693058D01*
X173411958Y-123032548D01*
X173411957Y-123032550D01*
X173244723Y-123345422D01*
X173019661Y-123619661D01*
X172745422Y-123844723D01*
X172449126Y-124003097D01*
X172432548Y-124011958D01*
X172093058Y-124114941D01*
X171916669Y-124132314D01*
X171828476Y-124141000D01*
X171651524Y-124141000D01*
X171563331Y-124132314D01*
X171386942Y-124114941D01*
X171047452Y-124011958D01*
X171030874Y-124003097D01*
X170734578Y-123844723D01*
X170460339Y-123619661D01*
X170235277Y-123345422D01*
X170068043Y-123032550D01*
X170068042Y-123032548D01*
X169965059Y-122693058D01*
X169930286Y-122340000D01*
X169965059Y-121986942D01*
X170068042Y-121647452D01*
X170153687Y-121487222D01*
X170235277Y-121334578D01*
X170460339Y-121060339D01*
X170734578Y-120835277D01*
X171047450Y-120668043D01*
X171047452Y-120668042D01*
X171386942Y-120565059D01*
X171576462Y-120546393D01*
X171651524Y-120539000D01*
X171828476Y-120539000D01*
X171903538Y-120546393D01*
X171903538Y-120546393D01*
G37*
G36*
X188545936Y-121341340D02*
G01*
X188644220Y-121351020D01*
X188833381Y-121408401D01*
X189007712Y-121501583D01*
X189160515Y-121626985D01*
X189285917Y-121779788D01*
X189379099Y-121954119D01*
X189436480Y-122143280D01*
X189455855Y-122340000D01*
X189436480Y-122536720D01*
X189379099Y-122725881D01*
X189285917Y-122900212D01*
X189160515Y-123053015D01*
X189007712Y-123178417D01*
X188833381Y-123271599D01*
X188644220Y-123328980D01*
X188545936Y-123338660D01*
X188496795Y-123343500D01*
X188303205Y-123343500D01*
X188254064Y-123338660D01*
X188155780Y-123328980D01*
X187966619Y-123271599D01*
X187792288Y-123178417D01*
X187639485Y-123053015D01*
X187514083Y-122900212D01*
X187420901Y-122725881D01*
X187363520Y-122536720D01*
X187344145Y-122340000D01*
X187363520Y-122143280D01*
X187420901Y-121954119D01*
X187514083Y-121779788D01*
X187639485Y-121626985D01*
X187792288Y-121501583D01*
X187966619Y-121408401D01*
X188155780Y-121351020D01*
X188254064Y-121341340D01*
X188303205Y-121336500D01*
X188496795Y-121336500D01*
X188545936Y-121341340D01*
X188545936Y-121341340D01*
G37*
G36*
X194110442Y-121345518D02*
G01*
X194176627Y-121352037D01*
X194346466Y-121403557D01*
X194346468Y-121403558D01*
X194355530Y-121408402D01*
X194502991Y-121487222D01*
X194538729Y-121516552D01*
X194640186Y-121599814D01*
X194723448Y-121701271D01*
X194752778Y-121737009D01*
X194836443Y-121893534D01*
X194887963Y-122063373D01*
X194905359Y-122240000D01*
X194887963Y-122416627D01*
X194836443Y-122586466D01*
X194752778Y-122742991D01*
X194723448Y-122778729D01*
X194640186Y-122880186D01*
X194538729Y-122963448D01*
X194502991Y-122992778D01*
X194346466Y-123076443D01*
X194176627Y-123127963D01*
X194110442Y-123134482D01*
X194044260Y-123141000D01*
X193955740Y-123141000D01*
X193889558Y-123134482D01*
X193823373Y-123127963D01*
X193653534Y-123076443D01*
X193497009Y-122992778D01*
X193461271Y-122963448D01*
X193359814Y-122880186D01*
X193276552Y-122778729D01*
X193247222Y-122742991D01*
X193163557Y-122586466D01*
X193112037Y-122416627D01*
X193094641Y-122240000D01*
X193112037Y-122063373D01*
X193163557Y-121893534D01*
X193247222Y-121737009D01*
X193276552Y-121701271D01*
X193359814Y-121599814D01*
X193461271Y-121516552D01*
X193497009Y-121487222D01*
X193644470Y-121408402D01*
X193653532Y-121403558D01*
X193653534Y-121403557D01*
X193823373Y-121352037D01*
X193889558Y-121345518D01*
X193955740Y-121339000D01*
X194044260Y-121339000D01*
X194110442Y-121345518D01*
X194110442Y-121345518D01*
G37*
G36*
X196650442Y-121345518D02*
G01*
X196716627Y-121352037D01*
X196886466Y-121403557D01*
X196886468Y-121403558D01*
X196895530Y-121408402D01*
X197042991Y-121487222D01*
X197078729Y-121516552D01*
X197180186Y-121599814D01*
X197263448Y-121701271D01*
X197292778Y-121737009D01*
X197376443Y-121893534D01*
X197427963Y-122063373D01*
X197445359Y-122240000D01*
X197427963Y-122416627D01*
X197376443Y-122586466D01*
X197292778Y-122742991D01*
X197263448Y-122778729D01*
X197180186Y-122880186D01*
X197078729Y-122963448D01*
X197042991Y-122992778D01*
X196886466Y-123076443D01*
X196716627Y-123127963D01*
X196650442Y-123134482D01*
X196584260Y-123141000D01*
X196495740Y-123141000D01*
X196429558Y-123134482D01*
X196363373Y-123127963D01*
X196193534Y-123076443D01*
X196037009Y-122992778D01*
X196001271Y-122963448D01*
X195899814Y-122880186D01*
X195816552Y-122778729D01*
X195787222Y-122742991D01*
X195703557Y-122586466D01*
X195652037Y-122416627D01*
X195634641Y-122240000D01*
X195652037Y-122063373D01*
X195703557Y-121893534D01*
X195787222Y-121737009D01*
X195816552Y-121701271D01*
X195899814Y-121599814D01*
X196001271Y-121516552D01*
X196037009Y-121487222D01*
X196184470Y-121408402D01*
X196193532Y-121403558D01*
X196193534Y-121403557D01*
X196363373Y-121352037D01*
X196429558Y-121345518D01*
X196495740Y-121339000D01*
X196584260Y-121339000D01*
X196650442Y-121345518D01*
X196650442Y-121345518D01*
G37*
G36*
X124166823Y-120321313D02*
G01*
X124327242Y-120369976D01*
X124459906Y-120440886D01*
X124475078Y-120448996D01*
X124604659Y-120555341D01*
X124711004Y-120684922D01*
X124711005Y-120684924D01*
X124790024Y-120832758D01*
X124790025Y-120832761D01*
X124799083Y-120862620D01*
X124838687Y-120993177D01*
X124855117Y-121160000D01*
X124838687Y-121326823D01*
X124790024Y-121487242D01*
X124729853Y-121599814D01*
X124711004Y-121635078D01*
X124604659Y-121764659D01*
X124475078Y-121871004D01*
X124475076Y-121871005D01*
X124327242Y-121950024D01*
X124166823Y-121998687D01*
X124041804Y-122011000D01*
X123958196Y-122011000D01*
X123833177Y-121998687D01*
X123672758Y-121950024D01*
X123524924Y-121871005D01*
X123524922Y-121871004D01*
X123395341Y-121764659D01*
X123288996Y-121635078D01*
X123270147Y-121599814D01*
X123209976Y-121487242D01*
X123161313Y-121326823D01*
X123144883Y-121160000D01*
X123161313Y-120993177D01*
X123200917Y-120862620D01*
X123209975Y-120832761D01*
X123209976Y-120832758D01*
X123288995Y-120684924D01*
X123288996Y-120684922D01*
X123395341Y-120555341D01*
X123524922Y-120448996D01*
X123540094Y-120440886D01*
X123672758Y-120369976D01*
X123833177Y-120321313D01*
X123958196Y-120309000D01*
X124041804Y-120309000D01*
X124166823Y-120321313D01*
X124166823Y-120321313D01*
G37*
G36*
X131786823Y-120321313D02*
G01*
X131947242Y-120369976D01*
X132079906Y-120440886D01*
X132095078Y-120448996D01*
X132224659Y-120555341D01*
X132331004Y-120684922D01*
X132331005Y-120684924D01*
X132410024Y-120832758D01*
X132410025Y-120832761D01*
X132419083Y-120862620D01*
X132458687Y-120993177D01*
X132475117Y-121160000D01*
X132458687Y-121326823D01*
X132410024Y-121487242D01*
X132349853Y-121599814D01*
X132331004Y-121635078D01*
X132224659Y-121764659D01*
X132095078Y-121871004D01*
X132095076Y-121871005D01*
X131947242Y-121950024D01*
X131786823Y-121998687D01*
X131661804Y-122011000D01*
X131578196Y-122011000D01*
X131453177Y-121998687D01*
X131292758Y-121950024D01*
X131144924Y-121871005D01*
X131144922Y-121871004D01*
X131015341Y-121764659D01*
X130908996Y-121635078D01*
X130890147Y-121599814D01*
X130829976Y-121487242D01*
X130781313Y-121326823D01*
X130764883Y-121160000D01*
X130781313Y-120993177D01*
X130820917Y-120862620D01*
X130829975Y-120832761D01*
X130829976Y-120832758D01*
X130908995Y-120684924D01*
X130908996Y-120684922D01*
X131015341Y-120555341D01*
X131144922Y-120448996D01*
X131160094Y-120440886D01*
X131292758Y-120369976D01*
X131453177Y-120321313D01*
X131578196Y-120309000D01*
X131661804Y-120309000D01*
X131786823Y-120321313D01*
X131786823Y-120321313D01*
G37*
G36*
X143673665Y-120332622D02*
G01*
X143747222Y-120339867D01*
X143888786Y-120382810D01*
X144019252Y-120452546D01*
X144049040Y-120476992D01*
X144133607Y-120546393D01*
X144203008Y-120630960D01*
X144227454Y-120660748D01*
X144297190Y-120791214D01*
X144340133Y-120932778D01*
X144354633Y-121080000D01*
X144340133Y-121227222D01*
X144297190Y-121368786D01*
X144227454Y-121499252D01*
X144203008Y-121529040D01*
X144133607Y-121613607D01*
X144049040Y-121683008D01*
X144019252Y-121707454D01*
X143888786Y-121777190D01*
X143747222Y-121820133D01*
X143673665Y-121827378D01*
X143636888Y-121831000D01*
X143563112Y-121831000D01*
X143526335Y-121827378D01*
X143452778Y-121820133D01*
X143311214Y-121777190D01*
X143180748Y-121707454D01*
X143150960Y-121683008D01*
X143066393Y-121613607D01*
X142996992Y-121529040D01*
X142972546Y-121499252D01*
X142902810Y-121368786D01*
X142859867Y-121227222D01*
X142845367Y-121080000D01*
X142859867Y-120932778D01*
X142902810Y-120791214D01*
X142972546Y-120660748D01*
X142996992Y-120630960D01*
X143066393Y-120546393D01*
X143150960Y-120476992D01*
X143180748Y-120452546D01*
X143311214Y-120382810D01*
X143452778Y-120339867D01*
X143526335Y-120332622D01*
X143563112Y-120329000D01*
X143636888Y-120329000D01*
X143673665Y-120332622D01*
X143673665Y-120332622D01*
G37*
G36*
X189451000Y-120803500D02*
G01*
X187349000Y-120803500D01*
X187349000Y-118796500D01*
X189451000Y-118796500D01*
X189451000Y-120803500D01*
X189451000Y-120803500D01*
G37*
G36*
X194110442Y-118805518D02*
G01*
X194176627Y-118812037D01*
X194346466Y-118863557D01*
X194502991Y-118947222D01*
X194503015Y-118947242D01*
X194640186Y-119059814D01*
X194723448Y-119161271D01*
X194752778Y-119197009D01*
X194836443Y-119353534D01*
X194887963Y-119523373D01*
X194905359Y-119700000D01*
X194887963Y-119876627D01*
X194836443Y-120046466D01*
X194752778Y-120202991D01*
X194723448Y-120238729D01*
X194640186Y-120340186D01*
X194538729Y-120423448D01*
X194502991Y-120452778D01*
X194346466Y-120536443D01*
X194176627Y-120587963D01*
X194110443Y-120594481D01*
X194044260Y-120601000D01*
X193955740Y-120601000D01*
X193889557Y-120594481D01*
X193823373Y-120587963D01*
X193653534Y-120536443D01*
X193497009Y-120452778D01*
X193461271Y-120423448D01*
X193359814Y-120340186D01*
X193276552Y-120238729D01*
X193247222Y-120202991D01*
X193163557Y-120046466D01*
X193112037Y-119876627D01*
X193094641Y-119700000D01*
X193112037Y-119523373D01*
X193163557Y-119353534D01*
X193247222Y-119197009D01*
X193276552Y-119161271D01*
X193359814Y-119059814D01*
X193496985Y-118947242D01*
X193497009Y-118947222D01*
X193653534Y-118863557D01*
X193823373Y-118812037D01*
X193889558Y-118805518D01*
X193955740Y-118799000D01*
X194044260Y-118799000D01*
X194110442Y-118805518D01*
X194110442Y-118805518D01*
G37*
G36*
X196650442Y-118805518D02*
G01*
X196716627Y-118812037D01*
X196886466Y-118863557D01*
X197042991Y-118947222D01*
X197043015Y-118947242D01*
X197180186Y-119059814D01*
X197263448Y-119161271D01*
X197292778Y-119197009D01*
X197376443Y-119353534D01*
X197427963Y-119523373D01*
X197445359Y-119700000D01*
X197427963Y-119876627D01*
X197376443Y-120046466D01*
X197292778Y-120202991D01*
X197263448Y-120238729D01*
X197180186Y-120340186D01*
X197078729Y-120423448D01*
X197042991Y-120452778D01*
X196886466Y-120536443D01*
X196716627Y-120587963D01*
X196650443Y-120594481D01*
X196584260Y-120601000D01*
X196495740Y-120601000D01*
X196429557Y-120594481D01*
X196363373Y-120587963D01*
X196193534Y-120536443D01*
X196037009Y-120452778D01*
X196001271Y-120423448D01*
X195899814Y-120340186D01*
X195816552Y-120238729D01*
X195787222Y-120202991D01*
X195703557Y-120046466D01*
X195652037Y-119876627D01*
X195634641Y-119700000D01*
X195652037Y-119523373D01*
X195703557Y-119353534D01*
X195787222Y-119197009D01*
X195816552Y-119161271D01*
X195899814Y-119059814D01*
X196036985Y-118947242D01*
X196037009Y-118947222D01*
X196193534Y-118863557D01*
X196363373Y-118812037D01*
X196429558Y-118805518D01*
X196495740Y-118799000D01*
X196584260Y-118799000D01*
X196650442Y-118805518D01*
X196650442Y-118805518D01*
G37*
G36*
X124166823Y-117781313D02*
G01*
X124327242Y-117829976D01*
X124459906Y-117900886D01*
X124475078Y-117908996D01*
X124604659Y-118015341D01*
X124711004Y-118144922D01*
X124711005Y-118144924D01*
X124790024Y-118292758D01*
X124838687Y-118453177D01*
X124855117Y-118620000D01*
X124838687Y-118786823D01*
X124790024Y-118947242D01*
X124729853Y-119059814D01*
X124711004Y-119095078D01*
X124604659Y-119224659D01*
X124475078Y-119331004D01*
X124475076Y-119331005D01*
X124327242Y-119410024D01*
X124166823Y-119458687D01*
X124041804Y-119471000D01*
X123958196Y-119471000D01*
X123833177Y-119458687D01*
X123672758Y-119410024D01*
X123524924Y-119331005D01*
X123524922Y-119331004D01*
X123395341Y-119224659D01*
X123288996Y-119095078D01*
X123270147Y-119059814D01*
X123209976Y-118947242D01*
X123161313Y-118786823D01*
X123144883Y-118620000D01*
X123161313Y-118453177D01*
X123209976Y-118292758D01*
X123288995Y-118144924D01*
X123288996Y-118144922D01*
X123395341Y-118015341D01*
X123524922Y-117908996D01*
X123540094Y-117900886D01*
X123672758Y-117829976D01*
X123833177Y-117781313D01*
X123958196Y-117769000D01*
X124041804Y-117769000D01*
X124166823Y-117781313D01*
X124166823Y-117781313D01*
G37*
G36*
X131786823Y-117781313D02*
G01*
X131947242Y-117829976D01*
X132079906Y-117900886D01*
X132095078Y-117908996D01*
X132224659Y-118015341D01*
X132331004Y-118144922D01*
X132331005Y-118144924D01*
X132410024Y-118292758D01*
X132458687Y-118453177D01*
X132475117Y-118620000D01*
X132458687Y-118786823D01*
X132410024Y-118947242D01*
X132349853Y-119059814D01*
X132331004Y-119095078D01*
X132224659Y-119224659D01*
X132095078Y-119331004D01*
X132095076Y-119331005D01*
X131947242Y-119410024D01*
X131786823Y-119458687D01*
X131661804Y-119471000D01*
X131578196Y-119471000D01*
X131453177Y-119458687D01*
X131292758Y-119410024D01*
X131144924Y-119331005D01*
X131144922Y-119331004D01*
X131015341Y-119224659D01*
X130908996Y-119095078D01*
X130890147Y-119059814D01*
X130829976Y-118947242D01*
X130781313Y-118786823D01*
X130764883Y-118620000D01*
X130781313Y-118453177D01*
X130829976Y-118292758D01*
X130908995Y-118144924D01*
X130908996Y-118144922D01*
X131015341Y-118015341D01*
X131144922Y-117908996D01*
X131160094Y-117900886D01*
X131292758Y-117829976D01*
X131453177Y-117781313D01*
X131578196Y-117769000D01*
X131661804Y-117769000D01*
X131786823Y-117781313D01*
X131786823Y-117781313D01*
G37*
G36*
X196650443Y-116265519D02*
G01*
X196716627Y-116272037D01*
X196886466Y-116323557D01*
X197042991Y-116407222D01*
X197043015Y-116407242D01*
X197180186Y-116519814D01*
X197232320Y-116583341D01*
X197292778Y-116657009D01*
X197376443Y-116813534D01*
X197427963Y-116983373D01*
X197445359Y-117160000D01*
X197427963Y-117336627D01*
X197376443Y-117506466D01*
X197292778Y-117662991D01*
X197263448Y-117698729D01*
X197180186Y-117800186D01*
X197078729Y-117883448D01*
X197042991Y-117912778D01*
X196886466Y-117996443D01*
X196716627Y-118047963D01*
X196650443Y-118054481D01*
X196584260Y-118061000D01*
X196495740Y-118061000D01*
X196429557Y-118054481D01*
X196363373Y-118047963D01*
X196193534Y-117996443D01*
X196037009Y-117912778D01*
X196001271Y-117883448D01*
X195899814Y-117800186D01*
X195816552Y-117698729D01*
X195787222Y-117662991D01*
X195703557Y-117506466D01*
X195652037Y-117336627D01*
X195634641Y-117160000D01*
X195652037Y-116983373D01*
X195703557Y-116813534D01*
X195787222Y-116657009D01*
X195847680Y-116583341D01*
X195899814Y-116519814D01*
X196036985Y-116407242D01*
X196037009Y-116407222D01*
X196193534Y-116323557D01*
X196363373Y-116272037D01*
X196429557Y-116265519D01*
X196495740Y-116259000D01*
X196584260Y-116259000D01*
X196650443Y-116265519D01*
X196650443Y-116265519D01*
G37*
G36*
X194110443Y-116265519D02*
G01*
X194176627Y-116272037D01*
X194346466Y-116323557D01*
X194502991Y-116407222D01*
X194503015Y-116407242D01*
X194640186Y-116519814D01*
X194692320Y-116583341D01*
X194752778Y-116657009D01*
X194836443Y-116813534D01*
X194887963Y-116983373D01*
X194905359Y-117160000D01*
X194887963Y-117336627D01*
X194836443Y-117506466D01*
X194752778Y-117662991D01*
X194723448Y-117698729D01*
X194640186Y-117800186D01*
X194538729Y-117883448D01*
X194502991Y-117912778D01*
X194346466Y-117996443D01*
X194176627Y-118047963D01*
X194110443Y-118054481D01*
X194044260Y-118061000D01*
X193955740Y-118061000D01*
X193889557Y-118054481D01*
X193823373Y-118047963D01*
X193653534Y-117996443D01*
X193497009Y-117912778D01*
X193461271Y-117883448D01*
X193359814Y-117800186D01*
X193276552Y-117698729D01*
X193247222Y-117662991D01*
X193163557Y-117506466D01*
X193112037Y-117336627D01*
X193094641Y-117160000D01*
X193112037Y-116983373D01*
X193163557Y-116813534D01*
X193247222Y-116657009D01*
X193307680Y-116583341D01*
X193359814Y-116519814D01*
X193496985Y-116407242D01*
X193497009Y-116407222D01*
X193653534Y-116323557D01*
X193823373Y-116272037D01*
X193889557Y-116265519D01*
X193955740Y-116259000D01*
X194044260Y-116259000D01*
X194110443Y-116265519D01*
X194110443Y-116265519D01*
G37*
G36*
X150853655Y-115012591D02*
G01*
X150925525Y-115026887D01*
X151128624Y-115111013D01*
X151311409Y-115233146D01*
X151466854Y-115388591D01*
X151588987Y-115571376D01*
X151673113Y-115774475D01*
X151673113Y-115774476D01*
X151716000Y-115990082D01*
X151716000Y-116209918D01*
X151693396Y-116323557D01*
X151673113Y-116425525D01*
X151588987Y-116628624D01*
X151466854Y-116811409D01*
X151311409Y-116966854D01*
X151128624Y-117088987D01*
X150925525Y-117173113D01*
X150853655Y-117187409D01*
X150709918Y-117216000D01*
X150490082Y-117216000D01*
X150346345Y-117187409D01*
X150274475Y-117173113D01*
X150071376Y-117088987D01*
X149888591Y-116966854D01*
X149733146Y-116811409D01*
X149611013Y-116628624D01*
X149526887Y-116425525D01*
X149506604Y-116323557D01*
X149484000Y-116209918D01*
X149484000Y-115990082D01*
X149526887Y-115774476D01*
X149526887Y-115774475D01*
X149611013Y-115571376D01*
X149733146Y-115388591D01*
X149888591Y-115233146D01*
X150071376Y-115111013D01*
X150274475Y-115026887D01*
X150346345Y-115012591D01*
X150490082Y-114984000D01*
X150709918Y-114984000D01*
X150853655Y-115012591D01*
X150853655Y-115012591D01*
G37*
G36*
X124166823Y-115241313D02*
G01*
X124327242Y-115289976D01*
X124410486Y-115334471D01*
X124475078Y-115368996D01*
X124604659Y-115475341D01*
X124711004Y-115604922D01*
X124711005Y-115604924D01*
X124790024Y-115752758D01*
X124838687Y-115913177D01*
X124855117Y-116080000D01*
X124838687Y-116246823D01*
X124790024Y-116407242D01*
X124751811Y-116478733D01*
X124711004Y-116555078D01*
X124604659Y-116684659D01*
X124475078Y-116791004D01*
X124475076Y-116791005D01*
X124327242Y-116870024D01*
X124166823Y-116918687D01*
X124041804Y-116931000D01*
X123958196Y-116931000D01*
X123833177Y-116918687D01*
X123672758Y-116870024D01*
X123524924Y-116791005D01*
X123524922Y-116791004D01*
X123395341Y-116684659D01*
X123288996Y-116555078D01*
X123248189Y-116478733D01*
X123209976Y-116407242D01*
X123161313Y-116246823D01*
X123144883Y-116080000D01*
X123161313Y-115913177D01*
X123209976Y-115752758D01*
X123288995Y-115604924D01*
X123288996Y-115604922D01*
X123395341Y-115475341D01*
X123524922Y-115368996D01*
X123589514Y-115334471D01*
X123672758Y-115289976D01*
X123833177Y-115241313D01*
X123958196Y-115229000D01*
X124041804Y-115229000D01*
X124166823Y-115241313D01*
X124166823Y-115241313D01*
G37*
G36*
X131786823Y-115241313D02*
G01*
X131947242Y-115289976D01*
X132030486Y-115334471D01*
X132095078Y-115368996D01*
X132224659Y-115475341D01*
X132331004Y-115604922D01*
X132331005Y-115604924D01*
X132410024Y-115752758D01*
X132458687Y-115913177D01*
X132475117Y-116080000D01*
X132458687Y-116246823D01*
X132410024Y-116407242D01*
X132371811Y-116478733D01*
X132331004Y-116555078D01*
X132224659Y-116684659D01*
X132095078Y-116791004D01*
X132095076Y-116791005D01*
X131947242Y-116870024D01*
X131786823Y-116918687D01*
X131661804Y-116931000D01*
X131578196Y-116931000D01*
X131453177Y-116918687D01*
X131292758Y-116870024D01*
X131144924Y-116791005D01*
X131144922Y-116791004D01*
X131015341Y-116684659D01*
X130908996Y-116555078D01*
X130868189Y-116478733D01*
X130829976Y-116407242D01*
X130781313Y-116246823D01*
X130764883Y-116080000D01*
X130781313Y-115913177D01*
X130829976Y-115752758D01*
X130908995Y-115604924D01*
X130908996Y-115604922D01*
X131015341Y-115475341D01*
X131144922Y-115368996D01*
X131209514Y-115334471D01*
X131292758Y-115289976D01*
X131453177Y-115241313D01*
X131578196Y-115229000D01*
X131661804Y-115229000D01*
X131786823Y-115241313D01*
X131786823Y-115241313D01*
G37*
G36*
X143819059Y-115277860D02*
G01*
X143955732Y-115334472D01*
X144078735Y-115416660D01*
X144183340Y-115521265D01*
X144239239Y-115604924D01*
X144265529Y-115644270D01*
X144322140Y-115780941D01*
X144348443Y-115913175D01*
X144351000Y-115926033D01*
X144351000Y-116073967D01*
X144322140Y-116219059D01*
X144265528Y-116355732D01*
X144183340Y-116478735D01*
X144078735Y-116583340D01*
X143955732Y-116665528D01*
X143955731Y-116665529D01*
X143955730Y-116665529D01*
X143819059Y-116722140D01*
X143673968Y-116751000D01*
X143526032Y-116751000D01*
X143380941Y-116722140D01*
X143244270Y-116665529D01*
X143244269Y-116665529D01*
X143244268Y-116665528D01*
X143121265Y-116583340D01*
X143016660Y-116478735D01*
X142934472Y-116355732D01*
X142877860Y-116219059D01*
X142849000Y-116073967D01*
X142849000Y-115926033D01*
X142851558Y-115913175D01*
X142877860Y-115780941D01*
X142934471Y-115644270D01*
X142960761Y-115604924D01*
X143016660Y-115521265D01*
X143121265Y-115416660D01*
X143244268Y-115334472D01*
X143380941Y-115277860D01*
X143526032Y-115249000D01*
X143673968Y-115249000D01*
X143819059Y-115277860D01*
X143819059Y-115277860D01*
G37*
G36*
X194110443Y-113725519D02*
G01*
X194176627Y-113732037D01*
X194346466Y-113783557D01*
X194502991Y-113867222D01*
X194503015Y-113867242D01*
X194640186Y-113979814D01*
X194723448Y-114081271D01*
X194752778Y-114117009D01*
X194836443Y-114273534D01*
X194887963Y-114443373D01*
X194905359Y-114620000D01*
X194887963Y-114796627D01*
X194836443Y-114966466D01*
X194752778Y-115122991D01*
X194723448Y-115158729D01*
X194640186Y-115260186D01*
X194549668Y-115334471D01*
X194502991Y-115372778D01*
X194346466Y-115456443D01*
X194176627Y-115507963D01*
X194110442Y-115514482D01*
X194044260Y-115521000D01*
X193955740Y-115521000D01*
X193889558Y-115514482D01*
X193823373Y-115507963D01*
X193653534Y-115456443D01*
X193497009Y-115372778D01*
X193450332Y-115334471D01*
X193359814Y-115260186D01*
X193276552Y-115158729D01*
X193247222Y-115122991D01*
X193163557Y-114966466D01*
X193112037Y-114796627D01*
X193094641Y-114620000D01*
X193112037Y-114443373D01*
X193163557Y-114273534D01*
X193247222Y-114117009D01*
X193276552Y-114081271D01*
X193359814Y-113979814D01*
X193496985Y-113867242D01*
X193497009Y-113867222D01*
X193653534Y-113783557D01*
X193823373Y-113732037D01*
X193889557Y-113725519D01*
X193955740Y-113719000D01*
X194044260Y-113719000D01*
X194110443Y-113725519D01*
X194110443Y-113725519D01*
G37*
G36*
X196650443Y-113725519D02*
G01*
X196716627Y-113732037D01*
X196886466Y-113783557D01*
X197042991Y-113867222D01*
X197043015Y-113867242D01*
X197180186Y-113979814D01*
X197263448Y-114081271D01*
X197292778Y-114117009D01*
X197376443Y-114273534D01*
X197427963Y-114443373D01*
X197445359Y-114620000D01*
X197427963Y-114796627D01*
X197376443Y-114966466D01*
X197292778Y-115122991D01*
X197263448Y-115158729D01*
X197180186Y-115260186D01*
X197089668Y-115334471D01*
X197042991Y-115372778D01*
X196886466Y-115456443D01*
X196716627Y-115507963D01*
X196650442Y-115514482D01*
X196584260Y-115521000D01*
X196495740Y-115521000D01*
X196429558Y-115514482D01*
X196363373Y-115507963D01*
X196193534Y-115456443D01*
X196037009Y-115372778D01*
X195990332Y-115334471D01*
X195899814Y-115260186D01*
X195816552Y-115158729D01*
X195787222Y-115122991D01*
X195703557Y-114966466D01*
X195652037Y-114796627D01*
X195634641Y-114620000D01*
X195652037Y-114443373D01*
X195703557Y-114273534D01*
X195787222Y-114117009D01*
X195816552Y-114081271D01*
X195899814Y-113979814D01*
X196036985Y-113867242D01*
X196037009Y-113867222D01*
X196193534Y-113783557D01*
X196363373Y-113732037D01*
X196429557Y-113725519D01*
X196495740Y-113719000D01*
X196584260Y-113719000D01*
X196650443Y-113725519D01*
X196650443Y-113725519D01*
G37*
G36*
X188745936Y-112481340D02*
G01*
X188844220Y-112491020D01*
X189033381Y-112548401D01*
X189207712Y-112641583D01*
X189360515Y-112766985D01*
X189485917Y-112919788D01*
X189579099Y-113094119D01*
X189636480Y-113283280D01*
X189655855Y-113480000D01*
X189636480Y-113676720D01*
X189579099Y-113865881D01*
X189485917Y-114040212D01*
X189360515Y-114193015D01*
X189207712Y-114318417D01*
X189033381Y-114411599D01*
X188844220Y-114468980D01*
X188745936Y-114478660D01*
X188696795Y-114483500D01*
X188503205Y-114483500D01*
X188454064Y-114478660D01*
X188355780Y-114468980D01*
X188166619Y-114411599D01*
X187992288Y-114318417D01*
X187839485Y-114193015D01*
X187714083Y-114040212D01*
X187620901Y-113865881D01*
X187563520Y-113676720D01*
X187544145Y-113480000D01*
X187563520Y-113283280D01*
X187620901Y-113094119D01*
X187714083Y-112919788D01*
X187839485Y-112766985D01*
X187992288Y-112641583D01*
X188166619Y-112548401D01*
X188355780Y-112491020D01*
X188454064Y-112481340D01*
X188503205Y-112476500D01*
X188696795Y-112476500D01*
X188745936Y-112481340D01*
X188745936Y-112481340D01*
G37*
G36*
X131786823Y-112701313D02*
G01*
X131947242Y-112749976D01*
X132079906Y-112820886D01*
X132095078Y-112828996D01*
X132224659Y-112935341D01*
X132331004Y-113064922D01*
X132331005Y-113064924D01*
X132410024Y-113212758D01*
X132458687Y-113373177D01*
X132475117Y-113540000D01*
X132458687Y-113706823D01*
X132410024Y-113867242D01*
X132357237Y-113966000D01*
X132331004Y-114015078D01*
X132224659Y-114144659D01*
X132095078Y-114251004D01*
X132095076Y-114251005D01*
X131947242Y-114330024D01*
X131786823Y-114378687D01*
X131661804Y-114391000D01*
X131578196Y-114391000D01*
X131453177Y-114378687D01*
X131292758Y-114330024D01*
X131144924Y-114251005D01*
X131144922Y-114251004D01*
X131015341Y-114144659D01*
X130908996Y-114015078D01*
X130882763Y-113966000D01*
X130829976Y-113867242D01*
X130781313Y-113706823D01*
X130764883Y-113540000D01*
X130781313Y-113373177D01*
X130829976Y-113212758D01*
X130908995Y-113064924D01*
X130908996Y-113064922D01*
X131015341Y-112935341D01*
X131144922Y-112828996D01*
X131160094Y-112820886D01*
X131292758Y-112749976D01*
X131453177Y-112701313D01*
X131578196Y-112689000D01*
X131661804Y-112689000D01*
X131786823Y-112701313D01*
X131786823Y-112701313D01*
G37*
G36*
X124166823Y-112701313D02*
G01*
X124327242Y-112749976D01*
X124459906Y-112820886D01*
X124475078Y-112828996D01*
X124604659Y-112935341D01*
X124711004Y-113064922D01*
X124711005Y-113064924D01*
X124790024Y-113212758D01*
X124838687Y-113373177D01*
X124855117Y-113540000D01*
X124838687Y-113706823D01*
X124790024Y-113867242D01*
X124737237Y-113966000D01*
X124711004Y-114015078D01*
X124604659Y-114144659D01*
X124475078Y-114251004D01*
X124475076Y-114251005D01*
X124327242Y-114330024D01*
X124166823Y-114378687D01*
X124041804Y-114391000D01*
X123958196Y-114391000D01*
X123833177Y-114378687D01*
X123672758Y-114330024D01*
X123524924Y-114251005D01*
X123524922Y-114251004D01*
X123395341Y-114144659D01*
X123288996Y-114015078D01*
X123262763Y-113966000D01*
X123209976Y-113867242D01*
X123161313Y-113706823D01*
X123144883Y-113540000D01*
X123161313Y-113373177D01*
X123209976Y-113212758D01*
X123288995Y-113064924D01*
X123288996Y-113064922D01*
X123395341Y-112935341D01*
X123524922Y-112828996D01*
X123540094Y-112820886D01*
X123672758Y-112749976D01*
X123833177Y-112701313D01*
X123958196Y-112689000D01*
X124041804Y-112689000D01*
X124166823Y-112701313D01*
X124166823Y-112701313D01*
G37*
G36*
X151616000Y-113966000D02*
G01*
X149584000Y-113966000D01*
X149584000Y-112034000D01*
X151616000Y-112034000D01*
X151616000Y-113966000D01*
X151616000Y-113966000D01*
G37*
G36*
X194110443Y-111185519D02*
G01*
X194176627Y-111192037D01*
X194346466Y-111243557D01*
X194502991Y-111327222D01*
X194503015Y-111327242D01*
X194640186Y-111439814D01*
X194723448Y-111541271D01*
X194752778Y-111577009D01*
X194836443Y-111733534D01*
X194887963Y-111903373D01*
X194905359Y-112080000D01*
X194887963Y-112256627D01*
X194836443Y-112426466D01*
X194752778Y-112582991D01*
X194729006Y-112611957D01*
X194640186Y-112720186D01*
X194538729Y-112803448D01*
X194502991Y-112832778D01*
X194346466Y-112916443D01*
X194176627Y-112967963D01*
X194110443Y-112974481D01*
X194044260Y-112981000D01*
X193955740Y-112981000D01*
X193889557Y-112974481D01*
X193823373Y-112967963D01*
X193653534Y-112916443D01*
X193497009Y-112832778D01*
X193461271Y-112803448D01*
X193359814Y-112720186D01*
X193270994Y-112611957D01*
X193247222Y-112582991D01*
X193163557Y-112426466D01*
X193112037Y-112256627D01*
X193094641Y-112080000D01*
X193112037Y-111903373D01*
X193163557Y-111733534D01*
X193247222Y-111577009D01*
X193276552Y-111541271D01*
X193359814Y-111439814D01*
X193496985Y-111327242D01*
X193497009Y-111327222D01*
X193653534Y-111243557D01*
X193823373Y-111192037D01*
X193889557Y-111185519D01*
X193955740Y-111179000D01*
X194044260Y-111179000D01*
X194110443Y-111185519D01*
X194110443Y-111185519D01*
G37*
G36*
X196650443Y-111185519D02*
G01*
X196716627Y-111192037D01*
X196886466Y-111243557D01*
X197042991Y-111327222D01*
X197043015Y-111327242D01*
X197180186Y-111439814D01*
X197263448Y-111541271D01*
X197292778Y-111577009D01*
X197376443Y-111733534D01*
X197427963Y-111903373D01*
X197445359Y-112080000D01*
X197427963Y-112256627D01*
X197376443Y-112426466D01*
X197292778Y-112582991D01*
X197269006Y-112611957D01*
X197180186Y-112720186D01*
X197078729Y-112803448D01*
X197042991Y-112832778D01*
X196886466Y-112916443D01*
X196716627Y-112967963D01*
X196650443Y-112974481D01*
X196584260Y-112981000D01*
X196495740Y-112981000D01*
X196429557Y-112974481D01*
X196363373Y-112967963D01*
X196193534Y-112916443D01*
X196037009Y-112832778D01*
X196001271Y-112803448D01*
X195899814Y-112720186D01*
X195810994Y-112611957D01*
X195787222Y-112582991D01*
X195703557Y-112426466D01*
X195652037Y-112256627D01*
X195634641Y-112080000D01*
X195652037Y-111903373D01*
X195703557Y-111733534D01*
X195787222Y-111577009D01*
X195816552Y-111541271D01*
X195899814Y-111439814D01*
X196036985Y-111327242D01*
X196037009Y-111327222D01*
X196193534Y-111243557D01*
X196363373Y-111192037D01*
X196429557Y-111185519D01*
X196495740Y-111179000D01*
X196584260Y-111179000D01*
X196650443Y-111185519D01*
X196650443Y-111185519D01*
G37*
G36*
X172116669Y-109147686D02*
G01*
X172293058Y-109165059D01*
X172632548Y-109268042D01*
X172632550Y-109268043D01*
X172945422Y-109435277D01*
X173219661Y-109660339D01*
X173444723Y-109934578D01*
X173591926Y-110209975D01*
X173611958Y-110247452D01*
X173714941Y-110586942D01*
X173749714Y-110940000D01*
X173714941Y-111293058D01*
X173628805Y-111577011D01*
X173611957Y-111632550D01*
X173444723Y-111945422D01*
X173219661Y-112219661D01*
X172945422Y-112444723D01*
X172686745Y-112582989D01*
X172632548Y-112611958D01*
X172293058Y-112714941D01*
X172116669Y-112732314D01*
X172028476Y-112741000D01*
X171851524Y-112741000D01*
X171763331Y-112732314D01*
X171586942Y-112714941D01*
X171247452Y-112611958D01*
X171193255Y-112582989D01*
X170934578Y-112444723D01*
X170660339Y-112219661D01*
X170435277Y-111945422D01*
X170268043Y-111632550D01*
X170251195Y-111577011D01*
X170165059Y-111293058D01*
X170130286Y-110940000D01*
X170165059Y-110586942D01*
X170268042Y-110247452D01*
X170288074Y-110209975D01*
X170435277Y-109934578D01*
X170660339Y-109660339D01*
X170934578Y-109435277D01*
X171247450Y-109268043D01*
X171247452Y-109268042D01*
X171586942Y-109165059D01*
X171763331Y-109147686D01*
X171851524Y-109139000D01*
X172028476Y-109139000D01*
X172116669Y-109147686D01*
X172116669Y-109147686D01*
G37*
G36*
X188745936Y-109941340D02*
G01*
X188844220Y-109951020D01*
X189033381Y-110008401D01*
X189207712Y-110101583D01*
X189360515Y-110226985D01*
X189485917Y-110379788D01*
X189579099Y-110554119D01*
X189636480Y-110743280D01*
X189655855Y-110940000D01*
X189636480Y-111136720D01*
X189579099Y-111325881D01*
X189485917Y-111500212D01*
X189360515Y-111653015D01*
X189207712Y-111778417D01*
X189033381Y-111871599D01*
X188844220Y-111928980D01*
X188745936Y-111938660D01*
X188696795Y-111943500D01*
X188503205Y-111943500D01*
X188454064Y-111938660D01*
X188355780Y-111928980D01*
X188166619Y-111871599D01*
X187992288Y-111778417D01*
X187839485Y-111653015D01*
X187714083Y-111500212D01*
X187620901Y-111325881D01*
X187563520Y-111136720D01*
X187544145Y-110940000D01*
X187563520Y-110743280D01*
X187620901Y-110554119D01*
X187714083Y-110379788D01*
X187839485Y-110226985D01*
X187992288Y-110101583D01*
X188166619Y-110008401D01*
X188355780Y-109951020D01*
X188454064Y-109941340D01*
X188503205Y-109936500D01*
X188696795Y-109936500D01*
X188745936Y-109941340D01*
X188745936Y-109941340D01*
G37*
G36*
X131786823Y-110161313D02*
G01*
X131947242Y-110209976D01*
X132061410Y-110271000D01*
X132095078Y-110288996D01*
X132224659Y-110395341D01*
X132331004Y-110524922D01*
X132331005Y-110524924D01*
X132410024Y-110672758D01*
X132458687Y-110833177D01*
X132475117Y-111000000D01*
X132458687Y-111166823D01*
X132410024Y-111327242D01*
X132349853Y-111439814D01*
X132331004Y-111475078D01*
X132224659Y-111604659D01*
X132095078Y-111711004D01*
X132095076Y-111711005D01*
X131947242Y-111790024D01*
X131786823Y-111838687D01*
X131661804Y-111851000D01*
X131578196Y-111851000D01*
X131453177Y-111838687D01*
X131292758Y-111790024D01*
X131144924Y-111711005D01*
X131144922Y-111711004D01*
X131015341Y-111604659D01*
X130908996Y-111475078D01*
X130890147Y-111439814D01*
X130829976Y-111327242D01*
X130781313Y-111166823D01*
X130764883Y-111000000D01*
X130781313Y-110833177D01*
X130829976Y-110672758D01*
X130908995Y-110524924D01*
X130908996Y-110524922D01*
X131015341Y-110395341D01*
X131144922Y-110288996D01*
X131178590Y-110271000D01*
X131292758Y-110209976D01*
X131453177Y-110161313D01*
X131578196Y-110149000D01*
X131661804Y-110149000D01*
X131786823Y-110161313D01*
X131786823Y-110161313D01*
G37*
G36*
X124851000Y-111851000D02*
G01*
X123149000Y-111851000D01*
X123149000Y-110149000D01*
X124851000Y-110149000D01*
X124851000Y-111851000D01*
X124851000Y-111851000D01*
G37*
G36*
X194110442Y-108645518D02*
G01*
X194176627Y-108652037D01*
X194346466Y-108703557D01*
X194502991Y-108787222D01*
X194537254Y-108815341D01*
X194640186Y-108899814D01*
X194713124Y-108988691D01*
X194752778Y-109037009D01*
X194836443Y-109193534D01*
X194887963Y-109363373D01*
X194905359Y-109540000D01*
X194887963Y-109716627D01*
X194836443Y-109886466D01*
X194752778Y-110042991D01*
X194723448Y-110078729D01*
X194640186Y-110180186D01*
X194558223Y-110247450D01*
X194502991Y-110292778D01*
X194346466Y-110376443D01*
X194176627Y-110427963D01*
X194110443Y-110434481D01*
X194044260Y-110441000D01*
X193955740Y-110441000D01*
X193889557Y-110434481D01*
X193823373Y-110427963D01*
X193653534Y-110376443D01*
X193497009Y-110292778D01*
X193441777Y-110247450D01*
X193359814Y-110180186D01*
X193276552Y-110078729D01*
X193247222Y-110042991D01*
X193163557Y-109886466D01*
X193112037Y-109716627D01*
X193094641Y-109540000D01*
X193112037Y-109363373D01*
X193163557Y-109193534D01*
X193247222Y-109037009D01*
X193286876Y-108988691D01*
X193359814Y-108899814D01*
X193462746Y-108815341D01*
X193497009Y-108787222D01*
X193653534Y-108703557D01*
X193823373Y-108652037D01*
X193889558Y-108645518D01*
X193955740Y-108639000D01*
X194044260Y-108639000D01*
X194110442Y-108645518D01*
X194110442Y-108645518D01*
G37*
G36*
X196650442Y-108645518D02*
G01*
X196716627Y-108652037D01*
X196886466Y-108703557D01*
X197042991Y-108787222D01*
X197077254Y-108815341D01*
X197180186Y-108899814D01*
X197253124Y-108988691D01*
X197292778Y-109037009D01*
X197376443Y-109193534D01*
X197427963Y-109363373D01*
X197445359Y-109540000D01*
X197427963Y-109716627D01*
X197376443Y-109886466D01*
X197292778Y-110042991D01*
X197263448Y-110078729D01*
X197180186Y-110180186D01*
X197098223Y-110247450D01*
X197042991Y-110292778D01*
X196886466Y-110376443D01*
X196716627Y-110427963D01*
X196650443Y-110434481D01*
X196584260Y-110441000D01*
X196495740Y-110441000D01*
X196429557Y-110434481D01*
X196363373Y-110427963D01*
X196193534Y-110376443D01*
X196037009Y-110292778D01*
X195981777Y-110247450D01*
X195899814Y-110180186D01*
X195816552Y-110078729D01*
X195787222Y-110042991D01*
X195703557Y-109886466D01*
X195652037Y-109716627D01*
X195634641Y-109540000D01*
X195652037Y-109363373D01*
X195703557Y-109193534D01*
X195787222Y-109037009D01*
X195826876Y-108988691D01*
X195899814Y-108899814D01*
X196002746Y-108815341D01*
X196037009Y-108787222D01*
X196193534Y-108703557D01*
X196363373Y-108652037D01*
X196429558Y-108645518D01*
X196495740Y-108639000D01*
X196584260Y-108639000D01*
X196650442Y-108645518D01*
X196650442Y-108645518D01*
G37*
G36*
X111366823Y-108581313D02*
G01*
X111527242Y-108629976D01*
X111659119Y-108700466D01*
X111675078Y-108708996D01*
X111804659Y-108815341D01*
X111911004Y-108944922D01*
X111911005Y-108944924D01*
X111990024Y-109092758D01*
X111990025Y-109092761D01*
X111999083Y-109122620D01*
X112038687Y-109253177D01*
X112055117Y-109420000D01*
X112038687Y-109586823D01*
X111990024Y-109747242D01*
X111978508Y-109768786D01*
X111911004Y-109895078D01*
X111804659Y-110024659D01*
X111675078Y-110131004D01*
X111675076Y-110131005D01*
X111527242Y-110210024D01*
X111366823Y-110258687D01*
X111241804Y-110271000D01*
X111158196Y-110271000D01*
X111033177Y-110258687D01*
X110872758Y-110210024D01*
X110724924Y-110131005D01*
X110724922Y-110131004D01*
X110595341Y-110024659D01*
X110488996Y-109895078D01*
X110421492Y-109768786D01*
X110409976Y-109747242D01*
X110361313Y-109586823D01*
X110344883Y-109420000D01*
X110361313Y-109253177D01*
X110400917Y-109122620D01*
X110409975Y-109092761D01*
X110409976Y-109092758D01*
X110488995Y-108944924D01*
X110488996Y-108944922D01*
X110595341Y-108815341D01*
X110724922Y-108708996D01*
X110740881Y-108700466D01*
X110872758Y-108629976D01*
X111033177Y-108581313D01*
X111158196Y-108569000D01*
X111241804Y-108569000D01*
X111366823Y-108581313D01*
X111366823Y-108581313D01*
G37*
G36*
X115766823Y-108581313D02*
G01*
X115927242Y-108629976D01*
X116059119Y-108700466D01*
X116075078Y-108708996D01*
X116204659Y-108815341D01*
X116311004Y-108944922D01*
X116311005Y-108944924D01*
X116390024Y-109092758D01*
X116390025Y-109092761D01*
X116399083Y-109122620D01*
X116438687Y-109253177D01*
X116455117Y-109420000D01*
X116438687Y-109586823D01*
X116390024Y-109747242D01*
X116378508Y-109768786D01*
X116311004Y-109895078D01*
X116204659Y-110024659D01*
X116075078Y-110131004D01*
X116075076Y-110131005D01*
X115927242Y-110210024D01*
X115766823Y-110258687D01*
X115641804Y-110271000D01*
X115558196Y-110271000D01*
X115433177Y-110258687D01*
X115272758Y-110210024D01*
X115124924Y-110131005D01*
X115124922Y-110131004D01*
X114995341Y-110024659D01*
X114888996Y-109895078D01*
X114821492Y-109768786D01*
X114809976Y-109747242D01*
X114761313Y-109586823D01*
X114744883Y-109420000D01*
X114761313Y-109253177D01*
X114800917Y-109122620D01*
X114809975Y-109092761D01*
X114809976Y-109092758D01*
X114888995Y-108944924D01*
X114888996Y-108944922D01*
X114995341Y-108815341D01*
X115124922Y-108708996D01*
X115140881Y-108700466D01*
X115272758Y-108629976D01*
X115433177Y-108581313D01*
X115558196Y-108569000D01*
X115641804Y-108569000D01*
X115766823Y-108581313D01*
X115766823Y-108581313D01*
G37*
G36*
X118673665Y-108732622D02*
G01*
X118747222Y-108739867D01*
X118888786Y-108782810D01*
X119019252Y-108852546D01*
X119023737Y-108856227D01*
X119133607Y-108946393D01*
X119203008Y-109030960D01*
X119227454Y-109060748D01*
X119297190Y-109191214D01*
X119340133Y-109332778D01*
X119354633Y-109480000D01*
X119340133Y-109627222D01*
X119297190Y-109768786D01*
X119227454Y-109899252D01*
X119203008Y-109929040D01*
X119133607Y-110013607D01*
X119049040Y-110083008D01*
X119019252Y-110107454D01*
X118888786Y-110177190D01*
X118747222Y-110220133D01*
X118677652Y-110226985D01*
X118636888Y-110231000D01*
X118563112Y-110231000D01*
X118522348Y-110226985D01*
X118452778Y-110220133D01*
X118311214Y-110177190D01*
X118180748Y-110107454D01*
X118150960Y-110083008D01*
X118066393Y-110013607D01*
X117996992Y-109929040D01*
X117972546Y-109899252D01*
X117902810Y-109768786D01*
X117859867Y-109627222D01*
X117845367Y-109480000D01*
X117859867Y-109332778D01*
X117902810Y-109191214D01*
X117972546Y-109060748D01*
X117996992Y-109030960D01*
X118066393Y-108946393D01*
X118176263Y-108856227D01*
X118180748Y-108852546D01*
X118311214Y-108782810D01*
X118452778Y-108739867D01*
X118526335Y-108732622D01*
X118563112Y-108729000D01*
X118636888Y-108729000D01*
X118673665Y-108732622D01*
X118673665Y-108732622D01*
G37*
G36*
X189651000Y-109403500D02*
G01*
X187549000Y-109403500D01*
X187549000Y-107396500D01*
X189651000Y-107396500D01*
X189651000Y-109403500D01*
X189651000Y-109403500D01*
G37*
G36*
X153277395Y-107335546D02*
G01*
X153450466Y-107407234D01*
X153450467Y-107407235D01*
X153606227Y-107511310D01*
X153738690Y-107643773D01*
X153738691Y-107643775D01*
X153842766Y-107799534D01*
X153914454Y-107972605D01*
X153951000Y-108156333D01*
X153951000Y-108343667D01*
X153914454Y-108527395D01*
X153842766Y-108700466D01*
X153840700Y-108703558D01*
X153738690Y-108856227D01*
X153606227Y-108988690D01*
X153533912Y-109037009D01*
X153450466Y-109092766D01*
X153277395Y-109164454D01*
X153093667Y-109201000D01*
X152906333Y-109201000D01*
X152722605Y-109164454D01*
X152549534Y-109092766D01*
X152466088Y-109037009D01*
X152393773Y-108988690D01*
X152261310Y-108856227D01*
X152159300Y-108703558D01*
X152157234Y-108700466D01*
X152085546Y-108527395D01*
X152049000Y-108343667D01*
X152049000Y-108156333D01*
X152085546Y-107972605D01*
X152157234Y-107799534D01*
X152261309Y-107643775D01*
X152261310Y-107643773D01*
X152393773Y-107511310D01*
X152549533Y-107407235D01*
X152549534Y-107407234D01*
X152722605Y-107335546D01*
X152906333Y-107299000D01*
X153093667Y-107299000D01*
X153277395Y-107335546D01*
X153277395Y-107335546D01*
G37*
G36*
X150777395Y-107335546D02*
G01*
X150950466Y-107407234D01*
X150950467Y-107407235D01*
X151106227Y-107511310D01*
X151238690Y-107643773D01*
X151238691Y-107643775D01*
X151342766Y-107799534D01*
X151414454Y-107972605D01*
X151451000Y-108156333D01*
X151451000Y-108343667D01*
X151414454Y-108527395D01*
X151342766Y-108700466D01*
X151340700Y-108703558D01*
X151238690Y-108856227D01*
X151106227Y-108988690D01*
X151033912Y-109037009D01*
X150950466Y-109092766D01*
X150777395Y-109164454D01*
X150593667Y-109201000D01*
X150406333Y-109201000D01*
X150222605Y-109164454D01*
X150049534Y-109092766D01*
X149966088Y-109037009D01*
X149893773Y-108988690D01*
X149761310Y-108856227D01*
X149659300Y-108703558D01*
X149657234Y-108700466D01*
X149585546Y-108527395D01*
X149549000Y-108343667D01*
X149549000Y-108156333D01*
X149585546Y-107972605D01*
X149657234Y-107799534D01*
X149761309Y-107643775D01*
X149761310Y-107643773D01*
X149893773Y-107511310D01*
X150049533Y-107407235D01*
X150049534Y-107407234D01*
X150222605Y-107335546D01*
X150406333Y-107299000D01*
X150593667Y-107299000D01*
X150777395Y-107335546D01*
X150777395Y-107335546D01*
G37*
G36*
X148277395Y-107335546D02*
G01*
X148450466Y-107407234D01*
X148450467Y-107407235D01*
X148606227Y-107511310D01*
X148738690Y-107643773D01*
X148738691Y-107643775D01*
X148842766Y-107799534D01*
X148914454Y-107972605D01*
X148951000Y-108156333D01*
X148951000Y-108343667D01*
X148914454Y-108527395D01*
X148842766Y-108700466D01*
X148840700Y-108703558D01*
X148738690Y-108856227D01*
X148606227Y-108988690D01*
X148533912Y-109037009D01*
X148450466Y-109092766D01*
X148277395Y-109164454D01*
X148093667Y-109201000D01*
X147906333Y-109201000D01*
X147722605Y-109164454D01*
X147549534Y-109092766D01*
X147466088Y-109037009D01*
X147393773Y-108988690D01*
X147261310Y-108856227D01*
X147159300Y-108703558D01*
X147157234Y-108700466D01*
X147085546Y-108527395D01*
X147049000Y-108343667D01*
X147049000Y-108156333D01*
X147085546Y-107972605D01*
X147157234Y-107799534D01*
X147261309Y-107643775D01*
X147261310Y-107643773D01*
X147393773Y-107511310D01*
X147549533Y-107407235D01*
X147549534Y-107407234D01*
X147722605Y-107335546D01*
X147906333Y-107299000D01*
X148093667Y-107299000D01*
X148277395Y-107335546D01*
X148277395Y-107335546D01*
G37*
G36*
X196650442Y-106105518D02*
G01*
X196716627Y-106112037D01*
X196886466Y-106163557D01*
X197042991Y-106247222D01*
X197078729Y-106276552D01*
X197180186Y-106359814D01*
X197263448Y-106461271D01*
X197292778Y-106497009D01*
X197376443Y-106653534D01*
X197427963Y-106823373D01*
X197445359Y-107000000D01*
X197427963Y-107176627D01*
X197376443Y-107346466D01*
X197292778Y-107502991D01*
X197263448Y-107538729D01*
X197180186Y-107640186D01*
X197078729Y-107723448D01*
X197042991Y-107752778D01*
X196886466Y-107836443D01*
X196716627Y-107887963D01*
X196650442Y-107894482D01*
X196584260Y-107901000D01*
X196495740Y-107901000D01*
X196429558Y-107894482D01*
X196363373Y-107887963D01*
X196193534Y-107836443D01*
X196037009Y-107752778D01*
X196001271Y-107723448D01*
X195899814Y-107640186D01*
X195816552Y-107538729D01*
X195787222Y-107502991D01*
X195703557Y-107346466D01*
X195652037Y-107176627D01*
X195634641Y-107000000D01*
X195652037Y-106823373D01*
X195703557Y-106653534D01*
X195787222Y-106497009D01*
X195816552Y-106461271D01*
X195899814Y-106359814D01*
X196001271Y-106276552D01*
X196037009Y-106247222D01*
X196193534Y-106163557D01*
X196363373Y-106112037D01*
X196429558Y-106105518D01*
X196495740Y-106099000D01*
X196584260Y-106099000D01*
X196650442Y-106105518D01*
X196650442Y-106105518D01*
G37*
G36*
X194901000Y-107901000D02*
G01*
X193099000Y-107901000D01*
X193099000Y-106099000D01*
X194901000Y-106099000D01*
X194901000Y-107901000D01*
X194901000Y-107901000D01*
G37*
G36*
X118819059Y-103677860D02*
G01*
X118955732Y-103734472D01*
X119078735Y-103816660D01*
X119183340Y-103921265D01*
X119183341Y-103921267D01*
X119265529Y-104044270D01*
X119322140Y-104180941D01*
X119336702Y-104254148D01*
X119351000Y-104326033D01*
X119351000Y-104473967D01*
X119322140Y-104619059D01*
X119265528Y-104755732D01*
X119183340Y-104878735D01*
X119078735Y-104983340D01*
X118955732Y-105065528D01*
X118955731Y-105065529D01*
X118955730Y-105065529D01*
X118819059Y-105122140D01*
X118673968Y-105151000D01*
X118526032Y-105151000D01*
X118380941Y-105122140D01*
X118244270Y-105065529D01*
X118244269Y-105065529D01*
X118244268Y-105065528D01*
X118121265Y-104983340D01*
X118016660Y-104878735D01*
X117934472Y-104755732D01*
X117877860Y-104619059D01*
X117849000Y-104473967D01*
X117849000Y-104326033D01*
X117863299Y-104254148D01*
X117877860Y-104180941D01*
X117934471Y-104044270D01*
X118016659Y-103921267D01*
X118016660Y-103921265D01*
X118121265Y-103816660D01*
X118244268Y-103734472D01*
X118380941Y-103677860D01*
X118526032Y-103649000D01*
X118673968Y-103649000D01*
X118819059Y-103677860D01*
X118819059Y-103677860D01*
G37*
G36*
X179366823Y-103261313D02*
G01*
X179527242Y-103309976D01*
X179659906Y-103380886D01*
X179675078Y-103388996D01*
X179804659Y-103495341D01*
X179911004Y-103624922D01*
X179911005Y-103624924D01*
X179990024Y-103772758D01*
X180038687Y-103933177D01*
X180055117Y-104100000D01*
X180038687Y-104266823D01*
X179990024Y-104427242D01*
X179965049Y-104473967D01*
X179911004Y-104575078D01*
X179804659Y-104704659D01*
X179675078Y-104811004D01*
X179675076Y-104811005D01*
X179527242Y-104890024D01*
X179366823Y-104938687D01*
X179241804Y-104951000D01*
X179158196Y-104951000D01*
X179033177Y-104938687D01*
X178872758Y-104890024D01*
X178724924Y-104811005D01*
X178724922Y-104811004D01*
X178595341Y-104704659D01*
X178488996Y-104575078D01*
X178434951Y-104473967D01*
X178409976Y-104427242D01*
X178361313Y-104266823D01*
X178344883Y-104100000D01*
X178361313Y-103933177D01*
X178409976Y-103772758D01*
X178488995Y-103624924D01*
X178488996Y-103624922D01*
X178595341Y-103495341D01*
X178724922Y-103388996D01*
X178740094Y-103380886D01*
X178872758Y-103309976D01*
X179033177Y-103261313D01*
X179158196Y-103249000D01*
X179241804Y-103249000D01*
X179366823Y-103261313D01*
X179366823Y-103261313D01*
G37*
G36*
X183566823Y-103261313D02*
G01*
X183727242Y-103309976D01*
X183859906Y-103380886D01*
X183875078Y-103388996D01*
X184004659Y-103495341D01*
X184111004Y-103624922D01*
X184111005Y-103624924D01*
X184190024Y-103772758D01*
X184238687Y-103933177D01*
X184255117Y-104100000D01*
X184238687Y-104266823D01*
X184190024Y-104427242D01*
X184165049Y-104473967D01*
X184111004Y-104575078D01*
X184004659Y-104704659D01*
X183875078Y-104811004D01*
X183875076Y-104811005D01*
X183727242Y-104890024D01*
X183566823Y-104938687D01*
X183441804Y-104951000D01*
X183358196Y-104951000D01*
X183233177Y-104938687D01*
X183072758Y-104890024D01*
X182924924Y-104811005D01*
X182924922Y-104811004D01*
X182795341Y-104704659D01*
X182688996Y-104575078D01*
X182634951Y-104473967D01*
X182609976Y-104427242D01*
X182561313Y-104266823D01*
X182544883Y-104100000D01*
X182561313Y-103933177D01*
X182609976Y-103772758D01*
X182688995Y-103624924D01*
X182688996Y-103624922D01*
X182795341Y-103495341D01*
X182924922Y-103388996D01*
X182940094Y-103380886D01*
X183072758Y-103309976D01*
X183233177Y-103261313D01*
X183358196Y-103249000D01*
X183441804Y-103249000D01*
X183566823Y-103261313D01*
X183566823Y-103261313D01*
G37*
G36*
X171248228Y-102681703D02*
G01*
X171403100Y-102745853D01*
X171542481Y-102838985D01*
X171661015Y-102957519D01*
X171754147Y-103096900D01*
X171818297Y-103251772D01*
X171851000Y-103416184D01*
X171851000Y-103583816D01*
X171818297Y-103748228D01*
X171754147Y-103903100D01*
X171661015Y-104042481D01*
X171542481Y-104161015D01*
X171403100Y-104254147D01*
X171248228Y-104318297D01*
X171083816Y-104351000D01*
X170916184Y-104351000D01*
X170751772Y-104318297D01*
X170596900Y-104254147D01*
X170457519Y-104161015D01*
X170338985Y-104042481D01*
X170245853Y-103903100D01*
X170181703Y-103748228D01*
X170149000Y-103583816D01*
X170149000Y-103416184D01*
X170181703Y-103251772D01*
X170245853Y-103096900D01*
X170338985Y-102957519D01*
X170457519Y-102838985D01*
X170596900Y-102745853D01*
X170751772Y-102681703D01*
X170916184Y-102649000D01*
X171083816Y-102649000D01*
X171248228Y-102681703D01*
X171248228Y-102681703D01*
G37*
G36*
X155498254Y-99277818D02*
G01*
X155871511Y-99432426D01*
X155871513Y-99432427D01*
X156207436Y-99656884D01*
X156493116Y-99942564D01*
X156702967Y-100256627D01*
X156717574Y-100278489D01*
X156872182Y-100651746D01*
X156951000Y-101047993D01*
X156951000Y-101452007D01*
X156872182Y-101848254D01*
X156717574Y-102221511D01*
X156717573Y-102221513D01*
X156493116Y-102557436D01*
X156207436Y-102843116D01*
X155871513Y-103067573D01*
X155871512Y-103067574D01*
X155871511Y-103067574D01*
X155498254Y-103222182D01*
X155102007Y-103301000D01*
X154697993Y-103301000D01*
X154301746Y-103222182D01*
X153928489Y-103067574D01*
X153928488Y-103067574D01*
X153928487Y-103067573D01*
X153592564Y-102843116D01*
X153306884Y-102557436D01*
X153082427Y-102221513D01*
X153082426Y-102221511D01*
X152927818Y-101848254D01*
X152849000Y-101452007D01*
X152849000Y-101047993D01*
X152927818Y-100651746D01*
X153082426Y-100278489D01*
X153097034Y-100256627D01*
X153306884Y-99942564D01*
X153592564Y-99656884D01*
X153928487Y-99432427D01*
X153928489Y-99432426D01*
X154301746Y-99277818D01*
X154697993Y-99199000D01*
X155102007Y-99199000D01*
X155498254Y-99277818D01*
X155498254Y-99277818D01*
G37*
G36*
X146698254Y-99277818D02*
G01*
X147071511Y-99432426D01*
X147071513Y-99432427D01*
X147407436Y-99656884D01*
X147693116Y-99942564D01*
X147902967Y-100256627D01*
X147917574Y-100278489D01*
X148072182Y-100651746D01*
X148151000Y-101047993D01*
X148151000Y-101452007D01*
X148072182Y-101848254D01*
X147917574Y-102221511D01*
X147917573Y-102221513D01*
X147693116Y-102557436D01*
X147407436Y-102843116D01*
X147071513Y-103067573D01*
X147071512Y-103067574D01*
X147071511Y-103067574D01*
X146698254Y-103222182D01*
X146302007Y-103301000D01*
X145897993Y-103301000D01*
X145501746Y-103222182D01*
X145128489Y-103067574D01*
X145128488Y-103067574D01*
X145128487Y-103067573D01*
X144792564Y-102843116D01*
X144506884Y-102557436D01*
X144282427Y-102221513D01*
X144282426Y-102221511D01*
X144127818Y-101848254D01*
X144049000Y-101452007D01*
X144049000Y-101047993D01*
X144127818Y-100651746D01*
X144282426Y-100278489D01*
X144297034Y-100256627D01*
X144506884Y-99942564D01*
X144792564Y-99656884D01*
X145128487Y-99432427D01*
X145128489Y-99432426D01*
X145501746Y-99277818D01*
X145897993Y-99199000D01*
X146302007Y-99199000D01*
X146698254Y-99277818D01*
X146698254Y-99277818D01*
G37*
G36*
X116451000Y-102651000D02*
G01*
X114749000Y-102651000D01*
X114749000Y-100949000D01*
X116451000Y-100949000D01*
X116451000Y-102651000D01*
X116451000Y-102651000D01*
G37*
G36*
X112051000Y-102651000D02*
G01*
X110349000Y-102651000D01*
X110349000Y-100949000D01*
X112051000Y-100949000D01*
X112051000Y-102651000D01*
X112051000Y-102651000D01*
G37*
G36*
X171851000Y-101851000D02*
G01*
X170149000Y-101851000D01*
X170149000Y-100149000D01*
X171851000Y-100149000D01*
X171851000Y-101851000D01*
X171851000Y-101851000D01*
G37*
G36*
X196610442Y-99185518D02*
G01*
X196676627Y-99192037D01*
X196846466Y-99243557D01*
X196846468Y-99243558D01*
X196910563Y-99277818D01*
X197002991Y-99327222D01*
X197017324Y-99338985D01*
X197140186Y-99439814D01*
X197223448Y-99541271D01*
X197252778Y-99577009D01*
X197336443Y-99733534D01*
X197387963Y-99903373D01*
X197405359Y-100080000D01*
X197387963Y-100256627D01*
X197336443Y-100426466D01*
X197252778Y-100582991D01*
X197223448Y-100618729D01*
X197140186Y-100720186D01*
X197038729Y-100803448D01*
X197002991Y-100832778D01*
X196846466Y-100916443D01*
X196676627Y-100967963D01*
X196610442Y-100974482D01*
X196544260Y-100981000D01*
X196455740Y-100981000D01*
X196389558Y-100974482D01*
X196323373Y-100967963D01*
X196153534Y-100916443D01*
X195997009Y-100832778D01*
X195961271Y-100803448D01*
X195859814Y-100720186D01*
X195776552Y-100618729D01*
X195747222Y-100582991D01*
X195663557Y-100426466D01*
X195612037Y-100256627D01*
X195594641Y-100080000D01*
X195612037Y-99903373D01*
X195663557Y-99733534D01*
X195747222Y-99577009D01*
X195776552Y-99541271D01*
X195859814Y-99439814D01*
X195982676Y-99338985D01*
X195997009Y-99327222D01*
X196089437Y-99277818D01*
X196153532Y-99243558D01*
X196153534Y-99243557D01*
X196323373Y-99192037D01*
X196389558Y-99185518D01*
X196455740Y-99179000D01*
X196544260Y-99179000D01*
X196610442Y-99185518D01*
X196610442Y-99185518D01*
G37*
G36*
X131248228Y-99181703D02*
G01*
X131403100Y-99245853D01*
X131542481Y-99338985D01*
X131661015Y-99457519D01*
X131754147Y-99596900D01*
X131818297Y-99751772D01*
X131851000Y-99916184D01*
X131851000Y-100083816D01*
X131818297Y-100248228D01*
X131754147Y-100403100D01*
X131661015Y-100542481D01*
X131542481Y-100661015D01*
X131403100Y-100754147D01*
X131248228Y-100818297D01*
X131083816Y-100851000D01*
X130916184Y-100851000D01*
X130751772Y-100818297D01*
X130596900Y-100754147D01*
X130457519Y-100661015D01*
X130338985Y-100542481D01*
X130245853Y-100403100D01*
X130181703Y-100248228D01*
X130149000Y-100083816D01*
X130149000Y-99916184D01*
X130181703Y-99751772D01*
X130245853Y-99596900D01*
X130338985Y-99457519D01*
X130457519Y-99338985D01*
X130596900Y-99245853D01*
X130751772Y-99181703D01*
X130916184Y-99149000D01*
X131083816Y-99149000D01*
X131248228Y-99181703D01*
X131248228Y-99181703D01*
G37*
G36*
X135134372Y-97261015D02*
G01*
X135219059Y-97277860D01*
X135355732Y-97334472D01*
X135478735Y-97416660D01*
X135583340Y-97521265D01*
X135665528Y-97644268D01*
X135665529Y-97644270D01*
X135722140Y-97780941D01*
X135751000Y-97926032D01*
X135751000Y-98073968D01*
X135722140Y-98219059D01*
X135691605Y-98292778D01*
X135665528Y-98355732D01*
X135583340Y-98478735D01*
X135478735Y-98583340D01*
X135355732Y-98665528D01*
X135355731Y-98665529D01*
X135355730Y-98665529D01*
X135219059Y-98722140D01*
X135073968Y-98751000D01*
X134926032Y-98751000D01*
X134780941Y-98722140D01*
X134644270Y-98665529D01*
X134644269Y-98665529D01*
X134644268Y-98665528D01*
X134521265Y-98583340D01*
X134416660Y-98478735D01*
X134334472Y-98355732D01*
X134308396Y-98292778D01*
X134277860Y-98219059D01*
X134249000Y-98073968D01*
X134249000Y-97926032D01*
X134277860Y-97780941D01*
X134334471Y-97644270D01*
X134334472Y-97644268D01*
X134416660Y-97521265D01*
X134521265Y-97416660D01*
X134644268Y-97334472D01*
X134780941Y-97277860D01*
X134865628Y-97261015D01*
X134926032Y-97249000D01*
X135073968Y-97249000D01*
X135134372Y-97261015D01*
X135134372Y-97261015D01*
G37*
G36*
X196610442Y-96645518D02*
G01*
X196676627Y-96652037D01*
X196846466Y-96703557D01*
X197002991Y-96787222D01*
X197038729Y-96816552D01*
X197140186Y-96899814D01*
X197223448Y-97001271D01*
X197252778Y-97037009D01*
X197336443Y-97193534D01*
X197387963Y-97363373D01*
X197405359Y-97540000D01*
X197387963Y-97716627D01*
X197336443Y-97886466D01*
X197252778Y-98042991D01*
X197230503Y-98070133D01*
X197140186Y-98180186D01*
X197038729Y-98263448D01*
X197002991Y-98292778D01*
X196846466Y-98376443D01*
X196676627Y-98427963D01*
X196610442Y-98434482D01*
X196544260Y-98441000D01*
X196455740Y-98441000D01*
X196389557Y-98434481D01*
X196323373Y-98427963D01*
X196153534Y-98376443D01*
X195997009Y-98292778D01*
X195961271Y-98263448D01*
X195859814Y-98180186D01*
X195769497Y-98070133D01*
X195747222Y-98042991D01*
X195663557Y-97886466D01*
X195612037Y-97716627D01*
X195594641Y-97540000D01*
X195612037Y-97363373D01*
X195663557Y-97193534D01*
X195747222Y-97037009D01*
X195776552Y-97001271D01*
X195859814Y-96899814D01*
X195961271Y-96816552D01*
X195997009Y-96787222D01*
X196153534Y-96703557D01*
X196323373Y-96652037D01*
X196389558Y-96645518D01*
X196455740Y-96639000D01*
X196544260Y-96639000D01*
X196610442Y-96645518D01*
X196610442Y-96645518D01*
G37*
G36*
X160323665Y-96582622D02*
G01*
X160397222Y-96589867D01*
X160538786Y-96632810D01*
X160669252Y-96702546D01*
X160699040Y-96726992D01*
X160783607Y-96796393D01*
X160853008Y-96880960D01*
X160877454Y-96910748D01*
X160947190Y-97041214D01*
X160990133Y-97182778D01*
X161004633Y-97330000D01*
X160990133Y-97477222D01*
X160976772Y-97521267D01*
X160947189Y-97618788D01*
X160933568Y-97644270D01*
X160877454Y-97749252D01*
X160853008Y-97779040D01*
X160783607Y-97863607D01*
X160707540Y-97926032D01*
X160669252Y-97957454D01*
X160538786Y-98027190D01*
X160397222Y-98070133D01*
X160323665Y-98077378D01*
X160286888Y-98081000D01*
X160213112Y-98081000D01*
X160176335Y-98077378D01*
X160102778Y-98070133D01*
X159961214Y-98027190D01*
X159830748Y-97957454D01*
X159792460Y-97926032D01*
X159716393Y-97863607D01*
X159646992Y-97779040D01*
X159622546Y-97749252D01*
X159566432Y-97644270D01*
X159552811Y-97618788D01*
X159523228Y-97521267D01*
X159509867Y-97477222D01*
X159495367Y-97330000D01*
X159509867Y-97182778D01*
X159552810Y-97041214D01*
X159622546Y-96910748D01*
X159646992Y-96880960D01*
X159716393Y-96796393D01*
X159800960Y-96726992D01*
X159830748Y-96702546D01*
X159961214Y-96632810D01*
X160102778Y-96589867D01*
X160176335Y-96582622D01*
X160213112Y-96579000D01*
X160286888Y-96579000D01*
X160323665Y-96582622D01*
X160323665Y-96582622D01*
G37*
G36*
X183648228Y-95781703D02*
G01*
X183803100Y-95845853D01*
X183942481Y-95938985D01*
X184061015Y-96057519D01*
X184154147Y-96196900D01*
X184218297Y-96351772D01*
X184251000Y-96516184D01*
X184251000Y-96683816D01*
X184218297Y-96848228D01*
X184154147Y-97003100D01*
X184061015Y-97142481D01*
X183942481Y-97261015D01*
X183803100Y-97354147D01*
X183648228Y-97418297D01*
X183483816Y-97451000D01*
X183316184Y-97451000D01*
X183151772Y-97418297D01*
X182996900Y-97354147D01*
X182857519Y-97261015D01*
X182738985Y-97142481D01*
X182645853Y-97003100D01*
X182581703Y-96848228D01*
X182549000Y-96683816D01*
X182549000Y-96516184D01*
X182581703Y-96351772D01*
X182645853Y-96196900D01*
X182738985Y-96057519D01*
X182857519Y-95938985D01*
X182996900Y-95845853D01*
X183151772Y-95781703D01*
X183316184Y-95749000D01*
X183483816Y-95749000D01*
X183648228Y-95781703D01*
X183648228Y-95781703D01*
G37*
G36*
X179448228Y-95781703D02*
G01*
X179603100Y-95845853D01*
X179742481Y-95938985D01*
X179861015Y-96057519D01*
X179954147Y-96196900D01*
X180018297Y-96351772D01*
X180051000Y-96516184D01*
X180051000Y-96683816D01*
X180018297Y-96848228D01*
X179954147Y-97003100D01*
X179861015Y-97142481D01*
X179742481Y-97261015D01*
X179603100Y-97354147D01*
X179448228Y-97418297D01*
X179283816Y-97451000D01*
X179116184Y-97451000D01*
X178951772Y-97418297D01*
X178796900Y-97354147D01*
X178657519Y-97261015D01*
X178538985Y-97142481D01*
X178445853Y-97003100D01*
X178381703Y-96848228D01*
X178349000Y-96683816D01*
X178349000Y-96516184D01*
X178381703Y-96351772D01*
X178445853Y-96196900D01*
X178538985Y-96057519D01*
X178657519Y-95938985D01*
X178796900Y-95845853D01*
X178951772Y-95781703D01*
X179116184Y-95749000D01*
X179283816Y-95749000D01*
X179448228Y-95781703D01*
X179448228Y-95781703D01*
G37*
G36*
X197401000Y-95901000D02*
G01*
X195599000Y-95901000D01*
X195599000Y-94099000D01*
X197401000Y-94099000D01*
X197401000Y-95901000D01*
X197401000Y-95901000D01*
G37*
G36*
X124786823Y-93781313D02*
G01*
X124947242Y-93829976D01*
X125079906Y-93900886D01*
X125095078Y-93908996D01*
X125224659Y-94015341D01*
X125331004Y-94144922D01*
X125331005Y-94144924D01*
X125410024Y-94292758D01*
X125458687Y-94453177D01*
X125475117Y-94620000D01*
X125458687Y-94786823D01*
X125410024Y-94947242D01*
X125339114Y-95079906D01*
X125331004Y-95095078D01*
X125224659Y-95224659D01*
X125095078Y-95331004D01*
X125095076Y-95331005D01*
X124947242Y-95410024D01*
X124786823Y-95458687D01*
X124661804Y-95471000D01*
X124578196Y-95471000D01*
X124453177Y-95458687D01*
X124292758Y-95410024D01*
X124144924Y-95331005D01*
X124144922Y-95331004D01*
X124015341Y-95224659D01*
X123908996Y-95095078D01*
X123900886Y-95079906D01*
X123829976Y-94947242D01*
X123781313Y-94786823D01*
X123764883Y-94620000D01*
X123781313Y-94453177D01*
X123829976Y-94292758D01*
X123908995Y-94144924D01*
X123908996Y-94144922D01*
X124015341Y-94015341D01*
X124144922Y-93908996D01*
X124160094Y-93900886D01*
X124292758Y-93829976D01*
X124453177Y-93781313D01*
X124578196Y-93769000D01*
X124661804Y-93769000D01*
X124786823Y-93781313D01*
X124786823Y-93781313D01*
G37*
G36*
X117166823Y-93781313D02*
G01*
X117327242Y-93829976D01*
X117459906Y-93900886D01*
X117475078Y-93908996D01*
X117604659Y-94015341D01*
X117711004Y-94144922D01*
X117711005Y-94144924D01*
X117790024Y-94292758D01*
X117838687Y-94453177D01*
X117855117Y-94620000D01*
X117838687Y-94786823D01*
X117790024Y-94947242D01*
X117719114Y-95079906D01*
X117711004Y-95095078D01*
X117604659Y-95224659D01*
X117475078Y-95331004D01*
X117475076Y-95331005D01*
X117327242Y-95410024D01*
X117166823Y-95458687D01*
X117041804Y-95471000D01*
X116958196Y-95471000D01*
X116833177Y-95458687D01*
X116672758Y-95410024D01*
X116524924Y-95331005D01*
X116524922Y-95331004D01*
X116395341Y-95224659D01*
X116288996Y-95095078D01*
X116280886Y-95079906D01*
X116209976Y-94947242D01*
X116161313Y-94786823D01*
X116144883Y-94620000D01*
X116161313Y-94453177D01*
X116209976Y-94292758D01*
X116288995Y-94144924D01*
X116288996Y-94144922D01*
X116395341Y-94015341D01*
X116524922Y-93908996D01*
X116540094Y-93900886D01*
X116672758Y-93829976D01*
X116833177Y-93781313D01*
X116958196Y-93769000D01*
X117041804Y-93769000D01*
X117166823Y-93781313D01*
X117166823Y-93781313D01*
G37*
G36*
X135073665Y-92172622D02*
G01*
X135147222Y-92179867D01*
X135288786Y-92222810D01*
X135419252Y-92292546D01*
X135449040Y-92316992D01*
X135533607Y-92386393D01*
X135603008Y-92470960D01*
X135627454Y-92500748D01*
X135627455Y-92500750D01*
X135683570Y-92605732D01*
X135697190Y-92631214D01*
X135740133Y-92772778D01*
X135754633Y-92920000D01*
X135740133Y-93067222D01*
X135697190Y-93208786D01*
X135697189Y-93208788D01*
X135696004Y-93211005D01*
X135627454Y-93339252D01*
X135603008Y-93369040D01*
X135533607Y-93453607D01*
X135449040Y-93523008D01*
X135419252Y-93547454D01*
X135288786Y-93617190D01*
X135147222Y-93660133D01*
X135073665Y-93667378D01*
X135036888Y-93671000D01*
X134963112Y-93671000D01*
X134926335Y-93667378D01*
X134852778Y-93660133D01*
X134711214Y-93617190D01*
X134580748Y-93547454D01*
X134550960Y-93523008D01*
X134466393Y-93453607D01*
X134396992Y-93369040D01*
X134372546Y-93339252D01*
X134303996Y-93211005D01*
X134302811Y-93208788D01*
X134302810Y-93208786D01*
X134259867Y-93067222D01*
X134245367Y-92920000D01*
X134259867Y-92772778D01*
X134302810Y-92631214D01*
X134316431Y-92605732D01*
X134372545Y-92500750D01*
X134372546Y-92500748D01*
X134396992Y-92470960D01*
X134466393Y-92386393D01*
X134550960Y-92316992D01*
X134580748Y-92292546D01*
X134711214Y-92222810D01*
X134852778Y-92179867D01*
X134926335Y-92172622D01*
X134963112Y-92169000D01*
X135036888Y-92169000D01*
X135073665Y-92172622D01*
X135073665Y-92172622D01*
G37*
G36*
X131166823Y-91661313D02*
G01*
X131327242Y-91709976D01*
X131441909Y-91771267D01*
X131475078Y-91788996D01*
X131604659Y-91895341D01*
X131711004Y-92024922D01*
X131711005Y-92024924D01*
X131790024Y-92172758D01*
X131790025Y-92172761D01*
X131792181Y-92179867D01*
X131838687Y-92333177D01*
X131855117Y-92500000D01*
X131838687Y-92666823D01*
X131790024Y-92827242D01*
X131740444Y-92920000D01*
X131711004Y-92975078D01*
X131604659Y-93104659D01*
X131475078Y-93211004D01*
X131475076Y-93211005D01*
X131327242Y-93290024D01*
X131166823Y-93338687D01*
X131041804Y-93351000D01*
X130958196Y-93351000D01*
X130833177Y-93338687D01*
X130672758Y-93290024D01*
X130524924Y-93211005D01*
X130524922Y-93211004D01*
X130395341Y-93104659D01*
X130288996Y-92975078D01*
X130259556Y-92920000D01*
X130209976Y-92827242D01*
X130161313Y-92666823D01*
X130144883Y-92500000D01*
X130161313Y-92333177D01*
X130207819Y-92179867D01*
X130209975Y-92172761D01*
X130209976Y-92172758D01*
X130288995Y-92024924D01*
X130288996Y-92024922D01*
X130395341Y-91895341D01*
X130524922Y-91788996D01*
X130558091Y-91771267D01*
X130672758Y-91709976D01*
X130833177Y-91661313D01*
X130958196Y-91649000D01*
X131041804Y-91649000D01*
X131166823Y-91661313D01*
X131166823Y-91661313D01*
G37*
G36*
X160469059Y-91527860D02*
G01*
X160605732Y-91584472D01*
X160728735Y-91666660D01*
X160833340Y-91771265D01*
X160845187Y-91788996D01*
X160915529Y-91894270D01*
X160972140Y-92030941D01*
X161001000Y-92176032D01*
X161001000Y-92323968D01*
X160972140Y-92469059D01*
X160936511Y-92555076D01*
X160915528Y-92605732D01*
X160833340Y-92728735D01*
X160728735Y-92833340D01*
X160605732Y-92915528D01*
X160605731Y-92915529D01*
X160605730Y-92915529D01*
X160469059Y-92972140D01*
X160323968Y-93001000D01*
X160176032Y-93001000D01*
X160030941Y-92972140D01*
X159894270Y-92915529D01*
X159894269Y-92915529D01*
X159894268Y-92915528D01*
X159771265Y-92833340D01*
X159666660Y-92728735D01*
X159584472Y-92605732D01*
X159563490Y-92555076D01*
X159527860Y-92469059D01*
X159499000Y-92323968D01*
X159499000Y-92176032D01*
X159527860Y-92030941D01*
X159584471Y-91894270D01*
X159654813Y-91788996D01*
X159666660Y-91771265D01*
X159771265Y-91666660D01*
X159894268Y-91584472D01*
X160030941Y-91527860D01*
X160176032Y-91499000D01*
X160323968Y-91499000D01*
X160469059Y-91527860D01*
X160469059Y-91527860D01*
G37*
G36*
X117166823Y-91241313D02*
G01*
X117327242Y-91289976D01*
X117459906Y-91360886D01*
X117475078Y-91368996D01*
X117604659Y-91475341D01*
X117711004Y-91604922D01*
X117711005Y-91604924D01*
X117790024Y-91752758D01*
X117838687Y-91913177D01*
X117855117Y-92080000D01*
X117838687Y-92246823D01*
X117790024Y-92407242D01*
X117777325Y-92431000D01*
X117711004Y-92555078D01*
X117604659Y-92684659D01*
X117475078Y-92791004D01*
X117475076Y-92791005D01*
X117327242Y-92870024D01*
X117166823Y-92918687D01*
X117041804Y-92931000D01*
X116958196Y-92931000D01*
X116833177Y-92918687D01*
X116672758Y-92870024D01*
X116524924Y-92791005D01*
X116524922Y-92791004D01*
X116395341Y-92684659D01*
X116288996Y-92555078D01*
X116222675Y-92431000D01*
X116209976Y-92407242D01*
X116161313Y-92246823D01*
X116144883Y-92080000D01*
X116161313Y-91913177D01*
X116209976Y-91752758D01*
X116288995Y-91604924D01*
X116288996Y-91604922D01*
X116395341Y-91475341D01*
X116524922Y-91368996D01*
X116540094Y-91360886D01*
X116672758Y-91289976D01*
X116833177Y-91241313D01*
X116958196Y-91229000D01*
X117041804Y-91229000D01*
X117166823Y-91241313D01*
X117166823Y-91241313D01*
G37*
G36*
X124786823Y-91241313D02*
G01*
X124947242Y-91289976D01*
X125079906Y-91360886D01*
X125095078Y-91368996D01*
X125224659Y-91475341D01*
X125331004Y-91604922D01*
X125331005Y-91604924D01*
X125410024Y-91752758D01*
X125458687Y-91913177D01*
X125475117Y-92080000D01*
X125458687Y-92246823D01*
X125410024Y-92407242D01*
X125397325Y-92431000D01*
X125331004Y-92555078D01*
X125224659Y-92684659D01*
X125095078Y-92791004D01*
X125095076Y-92791005D01*
X124947242Y-92870024D01*
X124786823Y-92918687D01*
X124661804Y-92931000D01*
X124578196Y-92931000D01*
X124453177Y-92918687D01*
X124292758Y-92870024D01*
X124144924Y-92791005D01*
X124144922Y-92791004D01*
X124015341Y-92684659D01*
X123908996Y-92555078D01*
X123842675Y-92431000D01*
X123829976Y-92407242D01*
X123781313Y-92246823D01*
X123764883Y-92080000D01*
X123781313Y-91913177D01*
X123829976Y-91752758D01*
X123908995Y-91604924D01*
X123908996Y-91604922D01*
X124015341Y-91475341D01*
X124144922Y-91368996D01*
X124160094Y-91360886D01*
X124292758Y-91289976D01*
X124453177Y-91241313D01*
X124578196Y-91229000D01*
X124661804Y-91229000D01*
X124786823Y-91241313D01*
X124786823Y-91241313D01*
G37*
G36*
X155873665Y-90932622D02*
G01*
X155947222Y-90939867D01*
X156088786Y-90982810D01*
X156219252Y-91052546D01*
X156249040Y-91076992D01*
X156333607Y-91146393D01*
X156401399Y-91229000D01*
X156427454Y-91260748D01*
X156497190Y-91391214D01*
X156540133Y-91532778D01*
X156554633Y-91680000D01*
X156540133Y-91827222D01*
X156497190Y-91968786D01*
X156427454Y-92099252D01*
X156403008Y-92129040D01*
X156333607Y-92213607D01*
X156249040Y-92283008D01*
X156219252Y-92307454D01*
X156088786Y-92377190D01*
X155947222Y-92420133D01*
X155873665Y-92427378D01*
X155836888Y-92431000D01*
X155763112Y-92431000D01*
X155726335Y-92427378D01*
X155652778Y-92420133D01*
X155511214Y-92377190D01*
X155380748Y-92307454D01*
X155350960Y-92283008D01*
X155266393Y-92213607D01*
X155196992Y-92129040D01*
X155172546Y-92099252D01*
X155102810Y-91968786D01*
X155059867Y-91827222D01*
X155045367Y-91680000D01*
X155059867Y-91532778D01*
X155102810Y-91391214D01*
X155172546Y-91260748D01*
X155198601Y-91229000D01*
X155266393Y-91146393D01*
X155350960Y-91076992D01*
X155380748Y-91052546D01*
X155511214Y-90982810D01*
X155652778Y-90939867D01*
X155726335Y-90932622D01*
X155763112Y-90929000D01*
X155836888Y-90929000D01*
X155873665Y-90932622D01*
X155873665Y-90932622D01*
G37*
G36*
X124786823Y-88701313D02*
G01*
X124947242Y-88749976D01*
X125079906Y-88820886D01*
X125095078Y-88828996D01*
X125224659Y-88935341D01*
X125331004Y-89064922D01*
X125331005Y-89064924D01*
X125410024Y-89212758D01*
X125458687Y-89373177D01*
X125475117Y-89540000D01*
X125458687Y-89706823D01*
X125410024Y-89867242D01*
X125365254Y-89951000D01*
X125331004Y-90015078D01*
X125224659Y-90144659D01*
X125095078Y-90251004D01*
X125095076Y-90251005D01*
X124947242Y-90330024D01*
X124786823Y-90378687D01*
X124661804Y-90391000D01*
X124578196Y-90391000D01*
X124453177Y-90378687D01*
X124292758Y-90330024D01*
X124144924Y-90251005D01*
X124144922Y-90251004D01*
X124015341Y-90144659D01*
X123908996Y-90015078D01*
X123874746Y-89951000D01*
X123829976Y-89867242D01*
X123781313Y-89706823D01*
X123764883Y-89540000D01*
X123781313Y-89373177D01*
X123829976Y-89212758D01*
X123908995Y-89064924D01*
X123908996Y-89064922D01*
X124015341Y-88935341D01*
X124144922Y-88828996D01*
X124160094Y-88820886D01*
X124292758Y-88749976D01*
X124453177Y-88701313D01*
X124578196Y-88689000D01*
X124661804Y-88689000D01*
X124786823Y-88701313D01*
X124786823Y-88701313D01*
G37*
G36*
X117166823Y-88701313D02*
G01*
X117327242Y-88749976D01*
X117459906Y-88820886D01*
X117475078Y-88828996D01*
X117604659Y-88935341D01*
X117711004Y-89064922D01*
X117711005Y-89064924D01*
X117790024Y-89212758D01*
X117838687Y-89373177D01*
X117855117Y-89540000D01*
X117838687Y-89706823D01*
X117790024Y-89867242D01*
X117745254Y-89951000D01*
X117711004Y-90015078D01*
X117604659Y-90144659D01*
X117475078Y-90251004D01*
X117475076Y-90251005D01*
X117327242Y-90330024D01*
X117166823Y-90378687D01*
X117041804Y-90391000D01*
X116958196Y-90391000D01*
X116833177Y-90378687D01*
X116672758Y-90330024D01*
X116524924Y-90251005D01*
X116524922Y-90251004D01*
X116395341Y-90144659D01*
X116288996Y-90015078D01*
X116254746Y-89951000D01*
X116209976Y-89867242D01*
X116161313Y-89706823D01*
X116144883Y-89540000D01*
X116161313Y-89373177D01*
X116209976Y-89212758D01*
X116288995Y-89064924D01*
X116288996Y-89064922D01*
X116395341Y-88935341D01*
X116524922Y-88828996D01*
X116540094Y-88820886D01*
X116672758Y-88749976D01*
X116833177Y-88701313D01*
X116958196Y-88689000D01*
X117041804Y-88689000D01*
X117166823Y-88701313D01*
X117166823Y-88701313D01*
G37*
G36*
X152751000Y-89951000D02*
G01*
X150849000Y-89951000D01*
X150849000Y-88049000D01*
X152751000Y-88049000D01*
X152751000Y-89951000D01*
X152751000Y-89951000D01*
G37*
G36*
X149537395Y-88085546D02*
G01*
X149710466Y-88157234D01*
X149710467Y-88157235D01*
X149866227Y-88261310D01*
X149998690Y-88393773D01*
X149998691Y-88393775D01*
X150102766Y-88549534D01*
X150174454Y-88722605D01*
X150211000Y-88906333D01*
X150211000Y-89093667D01*
X150174454Y-89277395D01*
X150102766Y-89450466D01*
X150102765Y-89450467D01*
X149998690Y-89606227D01*
X149866227Y-89738690D01*
X149787818Y-89791081D01*
X149710466Y-89842766D01*
X149537395Y-89914454D01*
X149353667Y-89951000D01*
X149166333Y-89951000D01*
X148982605Y-89914454D01*
X148809534Y-89842766D01*
X148732182Y-89791081D01*
X148653773Y-89738690D01*
X148521310Y-89606227D01*
X148417235Y-89450467D01*
X148417234Y-89450466D01*
X148345546Y-89277395D01*
X148309000Y-89093667D01*
X148309000Y-88906333D01*
X148345546Y-88722605D01*
X148417234Y-88549534D01*
X148521309Y-88393775D01*
X148521310Y-88393773D01*
X148653773Y-88261310D01*
X148809533Y-88157235D01*
X148809534Y-88157234D01*
X148982605Y-88085546D01*
X149166333Y-88049000D01*
X149353667Y-88049000D01*
X149537395Y-88085546D01*
X149537395Y-88085546D01*
G37*
G36*
X124786823Y-86161313D02*
G01*
X124947242Y-86209976D01*
X125011401Y-86244270D01*
X125095078Y-86288996D01*
X125224659Y-86395341D01*
X125331004Y-86524922D01*
X125331005Y-86524924D01*
X125410024Y-86672758D01*
X125458687Y-86833177D01*
X125475117Y-87000000D01*
X125458687Y-87166823D01*
X125410024Y-87327242D01*
X125397325Y-87351000D01*
X125331004Y-87475078D01*
X125224659Y-87604659D01*
X125095078Y-87711004D01*
X125095076Y-87711005D01*
X124947242Y-87790024D01*
X124786823Y-87838687D01*
X124661804Y-87851000D01*
X124578196Y-87851000D01*
X124453177Y-87838687D01*
X124292758Y-87790024D01*
X124144924Y-87711005D01*
X124144922Y-87711004D01*
X124015341Y-87604659D01*
X123908996Y-87475078D01*
X123842675Y-87351000D01*
X123829976Y-87327242D01*
X123781313Y-87166823D01*
X123764883Y-87000000D01*
X123781313Y-86833177D01*
X123829976Y-86672758D01*
X123908995Y-86524924D01*
X123908996Y-86524922D01*
X124015341Y-86395341D01*
X124144922Y-86288996D01*
X124228599Y-86244270D01*
X124292758Y-86209976D01*
X124453177Y-86161313D01*
X124578196Y-86149000D01*
X124661804Y-86149000D01*
X124786823Y-86161313D01*
X124786823Y-86161313D01*
G37*
G36*
X117851000Y-87851000D02*
G01*
X116149000Y-87851000D01*
X116149000Y-86149000D01*
X117851000Y-86149000D01*
X117851000Y-87851000D01*
X117851000Y-87851000D01*
G37*
G36*
X156019059Y-85877860D02*
G01*
X156155732Y-85934472D01*
X156278735Y-86016660D01*
X156383340Y-86121265D01*
X156465528Y-86244268D01*
X156465529Y-86244270D01*
X156522140Y-86380941D01*
X156550780Y-86524924D01*
X156551000Y-86526033D01*
X156551000Y-86673967D01*
X156522140Y-86819059D01*
X156465528Y-86955732D01*
X156383340Y-87078735D01*
X156278735Y-87183340D01*
X156155732Y-87265528D01*
X156155731Y-87265529D01*
X156155730Y-87265529D01*
X156019059Y-87322140D01*
X155873968Y-87351000D01*
X155726032Y-87351000D01*
X155580941Y-87322140D01*
X155444270Y-87265529D01*
X155444269Y-87265529D01*
X155444268Y-87265528D01*
X155321265Y-87183340D01*
X155216660Y-87078735D01*
X155134472Y-86955732D01*
X155077860Y-86819059D01*
X155049000Y-86673967D01*
X155049000Y-86526033D01*
X155049221Y-86524924D01*
X155077860Y-86380941D01*
X155134471Y-86244270D01*
X155134472Y-86244268D01*
X155216660Y-86121265D01*
X155321265Y-86016660D01*
X155444268Y-85934472D01*
X155580941Y-85877860D01*
X155726032Y-85849000D01*
X155873968Y-85849000D01*
X156019059Y-85877860D01*
X156019059Y-85877860D01*
G37*
G36*
X172786823Y-78401313D02*
G01*
X172947242Y-78449976D01*
X173079906Y-78520886D01*
X173095078Y-78528996D01*
X173224659Y-78635341D01*
X173331004Y-78764922D01*
X173331005Y-78764924D01*
X173410024Y-78912758D01*
X173458687Y-79073177D01*
X173475117Y-79240000D01*
X173458687Y-79406823D01*
X173410024Y-79567242D01*
X173339114Y-79699906D01*
X173331004Y-79715078D01*
X173224659Y-79844659D01*
X173095078Y-79951004D01*
X173095076Y-79951005D01*
X172947242Y-80030024D01*
X172786823Y-80078687D01*
X172661804Y-80091000D01*
X172578196Y-80091000D01*
X172453177Y-80078687D01*
X172292758Y-80030024D01*
X172144924Y-79951005D01*
X172144922Y-79951004D01*
X172015341Y-79844659D01*
X171908996Y-79715078D01*
X171900886Y-79699906D01*
X171829976Y-79567242D01*
X171781313Y-79406823D01*
X171764883Y-79240000D01*
X171781313Y-79073177D01*
X171829976Y-78912758D01*
X171908995Y-78764924D01*
X171908996Y-78764922D01*
X172015341Y-78635341D01*
X172144922Y-78528996D01*
X172160094Y-78520886D01*
X172292758Y-78449976D01*
X172453177Y-78401313D01*
X172578196Y-78389000D01*
X172661804Y-78389000D01*
X172786823Y-78401313D01*
X172786823Y-78401313D01*
G37*
G36*
X165166823Y-78401313D02*
G01*
X165327242Y-78449976D01*
X165459906Y-78520886D01*
X165475078Y-78528996D01*
X165604659Y-78635341D01*
X165711004Y-78764922D01*
X165711005Y-78764924D01*
X165790024Y-78912758D01*
X165838687Y-79073177D01*
X165855117Y-79240000D01*
X165838687Y-79406823D01*
X165790024Y-79567242D01*
X165719114Y-79699906D01*
X165711004Y-79715078D01*
X165604659Y-79844659D01*
X165475078Y-79951004D01*
X165475076Y-79951005D01*
X165327242Y-80030024D01*
X165166823Y-80078687D01*
X165041804Y-80091000D01*
X164958196Y-80091000D01*
X164833177Y-80078687D01*
X164672758Y-80030024D01*
X164524924Y-79951005D01*
X164524922Y-79951004D01*
X164395341Y-79844659D01*
X164288996Y-79715078D01*
X164280886Y-79699906D01*
X164209976Y-79567242D01*
X164161313Y-79406823D01*
X164144883Y-79240000D01*
X164161313Y-79073177D01*
X164209976Y-78912758D01*
X164288995Y-78764924D01*
X164288996Y-78764922D01*
X164395341Y-78635341D01*
X164524922Y-78528996D01*
X164540094Y-78520886D01*
X164672758Y-78449976D01*
X164833177Y-78401313D01*
X164958196Y-78389000D01*
X165041804Y-78389000D01*
X165166823Y-78401313D01*
X165166823Y-78401313D01*
G37*
G36*
X172786823Y-75861313D02*
G01*
X172947242Y-75909976D01*
X173079906Y-75980886D01*
X173095078Y-75988996D01*
X173224659Y-76095341D01*
X173331004Y-76224922D01*
X173331005Y-76224924D01*
X173410024Y-76372758D01*
X173458687Y-76533177D01*
X173475117Y-76700000D01*
X173458687Y-76866823D01*
X173410024Y-77027242D01*
X173339114Y-77159906D01*
X173331004Y-77175078D01*
X173224659Y-77304659D01*
X173095078Y-77411004D01*
X173095076Y-77411005D01*
X172947242Y-77490024D01*
X172786823Y-77538687D01*
X172661804Y-77551000D01*
X172578196Y-77551000D01*
X172453177Y-77538687D01*
X172292758Y-77490024D01*
X172144924Y-77411005D01*
X172144922Y-77411004D01*
X172015341Y-77304659D01*
X171908996Y-77175078D01*
X171900886Y-77159906D01*
X171829976Y-77027242D01*
X171781313Y-76866823D01*
X171764883Y-76700000D01*
X171781313Y-76533177D01*
X171829976Y-76372758D01*
X171908995Y-76224924D01*
X171908996Y-76224922D01*
X172015341Y-76095341D01*
X172144922Y-75988996D01*
X172160094Y-75980886D01*
X172292758Y-75909976D01*
X172453177Y-75861313D01*
X172578196Y-75849000D01*
X172661804Y-75849000D01*
X172786823Y-75861313D01*
X172786823Y-75861313D01*
G37*
G36*
X165166823Y-75861313D02*
G01*
X165327242Y-75909976D01*
X165459906Y-75980886D01*
X165475078Y-75988996D01*
X165604659Y-76095341D01*
X165711004Y-76224922D01*
X165711005Y-76224924D01*
X165790024Y-76372758D01*
X165838687Y-76533177D01*
X165855117Y-76700000D01*
X165838687Y-76866823D01*
X165790024Y-77027242D01*
X165719114Y-77159906D01*
X165711004Y-77175078D01*
X165604659Y-77304659D01*
X165475078Y-77411004D01*
X165475076Y-77411005D01*
X165327242Y-77490024D01*
X165166823Y-77538687D01*
X165041804Y-77551000D01*
X164958196Y-77551000D01*
X164833177Y-77538687D01*
X164672758Y-77490024D01*
X164524924Y-77411005D01*
X164524922Y-77411004D01*
X164395341Y-77304659D01*
X164288996Y-77175078D01*
X164280886Y-77159906D01*
X164209976Y-77027242D01*
X164161313Y-76866823D01*
X164144883Y-76700000D01*
X164161313Y-76533177D01*
X164209976Y-76372758D01*
X164288995Y-76224924D01*
X164288996Y-76224922D01*
X164395341Y-76095341D01*
X164524922Y-75988996D01*
X164540094Y-75980886D01*
X164672758Y-75909976D01*
X164833177Y-75861313D01*
X164958196Y-75849000D01*
X165041804Y-75849000D01*
X165166823Y-75861313D01*
X165166823Y-75861313D01*
G37*
G36*
X172786823Y-73321313D02*
G01*
X172947242Y-73369976D01*
X173079906Y-73440886D01*
X173095078Y-73448996D01*
X173224659Y-73555341D01*
X173331004Y-73684922D01*
X173331005Y-73684924D01*
X173410024Y-73832758D01*
X173458687Y-73993177D01*
X173475117Y-74160000D01*
X173458687Y-74326823D01*
X173410024Y-74487242D01*
X173339114Y-74619906D01*
X173331004Y-74635078D01*
X173224659Y-74764659D01*
X173095078Y-74871004D01*
X173095076Y-74871005D01*
X172947242Y-74950024D01*
X172786823Y-74998687D01*
X172661804Y-75011000D01*
X172578196Y-75011000D01*
X172453177Y-74998687D01*
X172292758Y-74950024D01*
X172144924Y-74871005D01*
X172144922Y-74871004D01*
X172015341Y-74764659D01*
X171908996Y-74635078D01*
X171900886Y-74619906D01*
X171829976Y-74487242D01*
X171781313Y-74326823D01*
X171764883Y-74160000D01*
X171781313Y-73993177D01*
X171829976Y-73832758D01*
X171908995Y-73684924D01*
X171908996Y-73684922D01*
X172015341Y-73555341D01*
X172144922Y-73448996D01*
X172160094Y-73440886D01*
X172292758Y-73369976D01*
X172453177Y-73321313D01*
X172578196Y-73309000D01*
X172661804Y-73309000D01*
X172786823Y-73321313D01*
X172786823Y-73321313D01*
G37*
G36*
X165166823Y-73321313D02*
G01*
X165327242Y-73369976D01*
X165459906Y-73440886D01*
X165475078Y-73448996D01*
X165604659Y-73555341D01*
X165711004Y-73684922D01*
X165711005Y-73684924D01*
X165790024Y-73832758D01*
X165838687Y-73993177D01*
X165855117Y-74160000D01*
X165838687Y-74326823D01*
X165790024Y-74487242D01*
X165719114Y-74619906D01*
X165711004Y-74635078D01*
X165604659Y-74764659D01*
X165475078Y-74871004D01*
X165475076Y-74871005D01*
X165327242Y-74950024D01*
X165166823Y-74998687D01*
X165041804Y-75011000D01*
X164958196Y-75011000D01*
X164833177Y-74998687D01*
X164672758Y-74950024D01*
X164524924Y-74871005D01*
X164524922Y-74871004D01*
X164395341Y-74764659D01*
X164288996Y-74635078D01*
X164280886Y-74619906D01*
X164209976Y-74487242D01*
X164161313Y-74326823D01*
X164144883Y-74160000D01*
X164161313Y-73993177D01*
X164209976Y-73832758D01*
X164288995Y-73684924D01*
X164288996Y-73684922D01*
X164395341Y-73555341D01*
X164524922Y-73448996D01*
X164540094Y-73440886D01*
X164672758Y-73369976D01*
X164833177Y-73321313D01*
X164958196Y-73309000D01*
X165041804Y-73309000D01*
X165166823Y-73321313D01*
X165166823Y-73321313D01*
G37*
G36*
X153748228Y-72681703D02*
G01*
X153903100Y-72745853D01*
X154042481Y-72838985D01*
X154161015Y-72957519D01*
X154254147Y-73096900D01*
X154318297Y-73251772D01*
X154351000Y-73416184D01*
X154351000Y-73583816D01*
X154318297Y-73748228D01*
X154254147Y-73903100D01*
X154161015Y-74042481D01*
X154042481Y-74161015D01*
X153903100Y-74254147D01*
X153748228Y-74318297D01*
X153583816Y-74351000D01*
X153416184Y-74351000D01*
X153251772Y-74318297D01*
X153096900Y-74254147D01*
X152957519Y-74161015D01*
X152838985Y-74042481D01*
X152745853Y-73903100D01*
X152681703Y-73748228D01*
X152649000Y-73583816D01*
X152649000Y-73416184D01*
X152681703Y-73251772D01*
X152745853Y-73096900D01*
X152838985Y-72957519D01*
X152957519Y-72838985D01*
X153096900Y-72745853D01*
X153251772Y-72681703D01*
X153416184Y-72649000D01*
X153583816Y-72649000D01*
X153748228Y-72681703D01*
X153748228Y-72681703D01*
G37*
G36*
X147248228Y-72681703D02*
G01*
X147403100Y-72745853D01*
X147542481Y-72838985D01*
X147661015Y-72957519D01*
X147754147Y-73096900D01*
X147818297Y-73251772D01*
X147851000Y-73416184D01*
X147851000Y-73583816D01*
X147818297Y-73748228D01*
X147754147Y-73903100D01*
X147661015Y-74042481D01*
X147542481Y-74161015D01*
X147403100Y-74254147D01*
X147248228Y-74318297D01*
X147083816Y-74351000D01*
X146916184Y-74351000D01*
X146751772Y-74318297D01*
X146596900Y-74254147D01*
X146457519Y-74161015D01*
X146338985Y-74042481D01*
X146245853Y-73903100D01*
X146181703Y-73748228D01*
X146149000Y-73583816D01*
X146149000Y-73416184D01*
X146181703Y-73251772D01*
X146245853Y-73096900D01*
X146338985Y-72957519D01*
X146457519Y-72838985D01*
X146596900Y-72745853D01*
X146751772Y-72681703D01*
X146916184Y-72649000D01*
X147083816Y-72649000D01*
X147248228Y-72681703D01*
X147248228Y-72681703D01*
G37*
G36*
X182993665Y-72252622D02*
G01*
X183067222Y-72259867D01*
X183208786Y-72302810D01*
X183339252Y-72372546D01*
X183369040Y-72396992D01*
X183453607Y-72466393D01*
X183523008Y-72550960D01*
X183547454Y-72580748D01*
X183617190Y-72711214D01*
X183660133Y-72852778D01*
X183674633Y-73000000D01*
X183660133Y-73147222D01*
X183617190Y-73288786D01*
X183547454Y-73419252D01*
X183523045Y-73448995D01*
X183453607Y-73533607D01*
X183369040Y-73603008D01*
X183339252Y-73627454D01*
X183208786Y-73697190D01*
X183067222Y-73740133D01*
X182993665Y-73747378D01*
X182956888Y-73751000D01*
X182883112Y-73751000D01*
X182846335Y-73747378D01*
X182772778Y-73740133D01*
X182631214Y-73697190D01*
X182500748Y-73627454D01*
X182470960Y-73603008D01*
X182386393Y-73533607D01*
X182316955Y-73448995D01*
X182292546Y-73419252D01*
X182222810Y-73288786D01*
X182179867Y-73147222D01*
X182165367Y-73000000D01*
X182179867Y-72852778D01*
X182222810Y-72711214D01*
X182292546Y-72580748D01*
X182316992Y-72550960D01*
X182386393Y-72466393D01*
X182470960Y-72396992D01*
X182500748Y-72372546D01*
X182631214Y-72302810D01*
X182772778Y-72259867D01*
X182846335Y-72252622D01*
X182883112Y-72249000D01*
X182956888Y-72249000D01*
X182993665Y-72252622D01*
X182993665Y-72252622D01*
G37*
G36*
X188219059Y-72277860D02*
G01*
X188279294Y-72302810D01*
X188355732Y-72334472D01*
X188478735Y-72416660D01*
X188583340Y-72521265D01*
X188665528Y-72644268D01*
X188665529Y-72644270D01*
X188722140Y-72780941D01*
X188751000Y-72926032D01*
X188751000Y-73073968D01*
X188722140Y-73219059D01*
X188679785Y-73321314D01*
X188665528Y-73355732D01*
X188583340Y-73478735D01*
X188478735Y-73583340D01*
X188355732Y-73665528D01*
X188355731Y-73665529D01*
X188355730Y-73665529D01*
X188219059Y-73722140D01*
X188073968Y-73751000D01*
X187926032Y-73751000D01*
X187780941Y-73722140D01*
X187644270Y-73665529D01*
X187644269Y-73665529D01*
X187644268Y-73665528D01*
X187521265Y-73583340D01*
X187416660Y-73478735D01*
X187334472Y-73355732D01*
X187320216Y-73321314D01*
X187277860Y-73219059D01*
X187249000Y-73073968D01*
X187249000Y-72926032D01*
X187277860Y-72780941D01*
X187334471Y-72644270D01*
X187334472Y-72644268D01*
X187416660Y-72521265D01*
X187521265Y-72416660D01*
X187644268Y-72334472D01*
X187720707Y-72302810D01*
X187780941Y-72277860D01*
X187926032Y-72249000D01*
X188073968Y-72249000D01*
X188219059Y-72277860D01*
X188219059Y-72277860D01*
G37*
G36*
X165166823Y-70781313D02*
G01*
X165327242Y-70829976D01*
X165459906Y-70900886D01*
X165475078Y-70908996D01*
X165604659Y-71015341D01*
X165711004Y-71144922D01*
X165711005Y-71144924D01*
X165790024Y-71292758D01*
X165838687Y-71453177D01*
X165855117Y-71620000D01*
X165838687Y-71786823D01*
X165790024Y-71947242D01*
X165719114Y-72079906D01*
X165711004Y-72095078D01*
X165604659Y-72224659D01*
X165475078Y-72331004D01*
X165475076Y-72331005D01*
X165327242Y-72410024D01*
X165166823Y-72458687D01*
X165041804Y-72471000D01*
X164958196Y-72471000D01*
X164833177Y-72458687D01*
X164672758Y-72410024D01*
X164524924Y-72331005D01*
X164524922Y-72331004D01*
X164395341Y-72224659D01*
X164288996Y-72095078D01*
X164280886Y-72079906D01*
X164209976Y-71947242D01*
X164161313Y-71786823D01*
X164144883Y-71620000D01*
X164161313Y-71453177D01*
X164209976Y-71292758D01*
X164288995Y-71144924D01*
X164288996Y-71144922D01*
X164395341Y-71015341D01*
X164524922Y-70908996D01*
X164540094Y-70900886D01*
X164672758Y-70829976D01*
X164833177Y-70781313D01*
X164958196Y-70769000D01*
X165041804Y-70769000D01*
X165166823Y-70781313D01*
X165166823Y-70781313D01*
G37*
G36*
X172786823Y-70781313D02*
G01*
X172947242Y-70829976D01*
X173079906Y-70900886D01*
X173095078Y-70908996D01*
X173224659Y-71015341D01*
X173331004Y-71144922D01*
X173331005Y-71144924D01*
X173410024Y-71292758D01*
X173458687Y-71453177D01*
X173475117Y-71620000D01*
X173458687Y-71786823D01*
X173410024Y-71947242D01*
X173339114Y-72079906D01*
X173331004Y-72095078D01*
X173224659Y-72224659D01*
X173095078Y-72331004D01*
X173095076Y-72331005D01*
X172947242Y-72410024D01*
X172786823Y-72458687D01*
X172661804Y-72471000D01*
X172578196Y-72471000D01*
X172453177Y-72458687D01*
X172292758Y-72410024D01*
X172144924Y-72331005D01*
X172144922Y-72331004D01*
X172015341Y-72224659D01*
X171908996Y-72095078D01*
X171900886Y-72079906D01*
X171829976Y-71947242D01*
X171781313Y-71786823D01*
X171764883Y-71620000D01*
X171781313Y-71453177D01*
X171829976Y-71292758D01*
X171908995Y-71144924D01*
X171908996Y-71144922D01*
X172015341Y-71015341D01*
X172144922Y-70908996D01*
X172160094Y-70900886D01*
X172292758Y-70829976D01*
X172453177Y-70781313D01*
X172578196Y-70769000D01*
X172661804Y-70769000D01*
X172786823Y-70781313D01*
X172786823Y-70781313D01*
G37*
G36*
X154351000Y-71851000D02*
G01*
X152649000Y-71851000D01*
X152649000Y-70149000D01*
X154351000Y-70149000D01*
X154351000Y-71851000D01*
X154351000Y-71851000D01*
G37*
G36*
X147851000Y-71851000D02*
G01*
X146149000Y-71851000D01*
X146149000Y-70149000D01*
X147851000Y-70149000D01*
X147851000Y-71851000D01*
X147851000Y-71851000D01*
G37*
G36*
X137219059Y-70277860D02*
G01*
X137279294Y-70302810D01*
X137355732Y-70334472D01*
X137478735Y-70416660D01*
X137583340Y-70521265D01*
X137665528Y-70644268D01*
X137665529Y-70644270D01*
X137722140Y-70780941D01*
X137751000Y-70926032D01*
X137751000Y-71073968D01*
X137736886Y-71144924D01*
X137722140Y-71219059D01*
X137665528Y-71355732D01*
X137583340Y-71478735D01*
X137478735Y-71583340D01*
X137355732Y-71665528D01*
X137355731Y-71665529D01*
X137355730Y-71665529D01*
X137219059Y-71722140D01*
X137073968Y-71751000D01*
X136926032Y-71751000D01*
X136780941Y-71722140D01*
X136644270Y-71665529D01*
X136644269Y-71665529D01*
X136644268Y-71665528D01*
X136521265Y-71583340D01*
X136416660Y-71478735D01*
X136334472Y-71355732D01*
X136277860Y-71219059D01*
X136263114Y-71144924D01*
X136249000Y-71073968D01*
X136249000Y-70926032D01*
X136277860Y-70780941D01*
X136334471Y-70644270D01*
X136334472Y-70644268D01*
X136416660Y-70521265D01*
X136521265Y-70416660D01*
X136644268Y-70334472D01*
X136720707Y-70302810D01*
X136780941Y-70277860D01*
X136926032Y-70249000D01*
X137073968Y-70249000D01*
X137219059Y-70277860D01*
X137219059Y-70277860D01*
G37*
G36*
X131993665Y-70252622D02*
G01*
X132067222Y-70259867D01*
X132208786Y-70302810D01*
X132339252Y-70372546D01*
X132369040Y-70396992D01*
X132453607Y-70466393D01*
X132523008Y-70550960D01*
X132547454Y-70580748D01*
X132617190Y-70711214D01*
X132660133Y-70852778D01*
X132674633Y-71000000D01*
X132660133Y-71147222D01*
X132617190Y-71288786D01*
X132547454Y-71419252D01*
X132523008Y-71449040D01*
X132453607Y-71533607D01*
X132393004Y-71583341D01*
X132339252Y-71627454D01*
X132208786Y-71697190D01*
X132067222Y-71740133D01*
X131993665Y-71747378D01*
X131956888Y-71751000D01*
X131883112Y-71751000D01*
X131846335Y-71747378D01*
X131772778Y-71740133D01*
X131631214Y-71697190D01*
X131500748Y-71627454D01*
X131446996Y-71583341D01*
X131386393Y-71533607D01*
X131316992Y-71449040D01*
X131292546Y-71419252D01*
X131222810Y-71288786D01*
X131179867Y-71147222D01*
X131165367Y-71000000D01*
X131179867Y-70852778D01*
X131222810Y-70711214D01*
X131292546Y-70580748D01*
X131316992Y-70550960D01*
X131386393Y-70466393D01*
X131470960Y-70396992D01*
X131500748Y-70372546D01*
X131631214Y-70302810D01*
X131772778Y-70259867D01*
X131846335Y-70252622D01*
X131883112Y-70249000D01*
X131956888Y-70249000D01*
X131993665Y-70252622D01*
X131993665Y-70252622D01*
G37*
G36*
X172786823Y-68241313D02*
G01*
X172917380Y-68280917D01*
X172944012Y-68288996D01*
X172947242Y-68289976D01*
X173038931Y-68338985D01*
X173095078Y-68368996D01*
X173224659Y-68475341D01*
X173331004Y-68604922D01*
X173331005Y-68604924D01*
X173410024Y-68752758D01*
X173458687Y-68913177D01*
X173475117Y-69080000D01*
X173458687Y-69246823D01*
X173458260Y-69248229D01*
X173411281Y-69403100D01*
X173410024Y-69407242D01*
X173373766Y-69475076D01*
X173331004Y-69555078D01*
X173224659Y-69684659D01*
X173095078Y-69791004D01*
X173095076Y-69791005D01*
X172947242Y-69870024D01*
X172786823Y-69918687D01*
X172661804Y-69931000D01*
X172578196Y-69931000D01*
X172453177Y-69918687D01*
X172292758Y-69870024D01*
X172144924Y-69791005D01*
X172144922Y-69791004D01*
X172015341Y-69684659D01*
X171908996Y-69555078D01*
X171866234Y-69475076D01*
X171829976Y-69407242D01*
X171828720Y-69403100D01*
X171781740Y-69248229D01*
X171781313Y-69246823D01*
X171764883Y-69080000D01*
X171781313Y-68913177D01*
X171829976Y-68752758D01*
X171908995Y-68604924D01*
X171908996Y-68604922D01*
X172015341Y-68475341D01*
X172144922Y-68368996D01*
X172201069Y-68338985D01*
X172292758Y-68289976D01*
X172295989Y-68288996D01*
X172322620Y-68280917D01*
X172453177Y-68241313D01*
X172578196Y-68229000D01*
X172661804Y-68229000D01*
X172786823Y-68241313D01*
X172786823Y-68241313D01*
G37*
G36*
X165166823Y-68241313D02*
G01*
X165297380Y-68280917D01*
X165324012Y-68288996D01*
X165327242Y-68289976D01*
X165418931Y-68338985D01*
X165475078Y-68368996D01*
X165604659Y-68475341D01*
X165711004Y-68604922D01*
X165711005Y-68604924D01*
X165790024Y-68752758D01*
X165838687Y-68913177D01*
X165855117Y-69080000D01*
X165838687Y-69246823D01*
X165838260Y-69248229D01*
X165791281Y-69403100D01*
X165790024Y-69407242D01*
X165753766Y-69475076D01*
X165711004Y-69555078D01*
X165604659Y-69684659D01*
X165475078Y-69791004D01*
X165475076Y-69791005D01*
X165327242Y-69870024D01*
X165166823Y-69918687D01*
X165041804Y-69931000D01*
X164958196Y-69931000D01*
X164833177Y-69918687D01*
X164672758Y-69870024D01*
X164524924Y-69791005D01*
X164524922Y-69791004D01*
X164395341Y-69684659D01*
X164288996Y-69555078D01*
X164246234Y-69475076D01*
X164209976Y-69407242D01*
X164208720Y-69403100D01*
X164161740Y-69248229D01*
X164161313Y-69246823D01*
X164144883Y-69080000D01*
X164161313Y-68913177D01*
X164209976Y-68752758D01*
X164288995Y-68604924D01*
X164288996Y-68604922D01*
X164395341Y-68475341D01*
X164524922Y-68368996D01*
X164581069Y-68338985D01*
X164672758Y-68289976D01*
X164675989Y-68288996D01*
X164702620Y-68280917D01*
X164833177Y-68241313D01*
X164958196Y-68229000D01*
X165041804Y-68229000D01*
X165166823Y-68241313D01*
X165166823Y-68241313D01*
G37*
G36*
X115248228Y-68181703D02*
G01*
X115403100Y-68245853D01*
X115542481Y-68338985D01*
X115661015Y-68457519D01*
X115754147Y-68596900D01*
X115818297Y-68751772D01*
X115851000Y-68916184D01*
X115851000Y-69083816D01*
X115818297Y-69248228D01*
X115754147Y-69403100D01*
X115661015Y-69542481D01*
X115542481Y-69661015D01*
X115403100Y-69754147D01*
X115248228Y-69818297D01*
X115083816Y-69851000D01*
X114916184Y-69851000D01*
X114751772Y-69818297D01*
X114596900Y-69754147D01*
X114457519Y-69661015D01*
X114338985Y-69542481D01*
X114245853Y-69403100D01*
X114181703Y-69248228D01*
X114149000Y-69083816D01*
X114149000Y-68916184D01*
X114181703Y-68751772D01*
X114245853Y-68596900D01*
X114338985Y-68457519D01*
X114457519Y-68338985D01*
X114596900Y-68245853D01*
X114751772Y-68181703D01*
X114916184Y-68149000D01*
X115083816Y-68149000D01*
X115248228Y-68181703D01*
X115248228Y-68181703D01*
G37*
G36*
X122666823Y-68161313D02*
G01*
X122827242Y-68209976D01*
X122862833Y-68229000D01*
X122975078Y-68288996D01*
X123104659Y-68395341D01*
X123211004Y-68524922D01*
X123211005Y-68524924D01*
X123290024Y-68672758D01*
X123338687Y-68833177D01*
X123355117Y-69000000D01*
X123338687Y-69166823D01*
X123290024Y-69327242D01*
X123247263Y-69407242D01*
X123211004Y-69475078D01*
X123104659Y-69604659D01*
X122975078Y-69711004D01*
X122975076Y-69711005D01*
X122827242Y-69790024D01*
X122827239Y-69790025D01*
X122824008Y-69791005D01*
X122666823Y-69838687D01*
X122541804Y-69851000D01*
X122458196Y-69851000D01*
X122333177Y-69838687D01*
X122175992Y-69791005D01*
X122172761Y-69790025D01*
X122172758Y-69790024D01*
X122024924Y-69711005D01*
X122024922Y-69711004D01*
X121895341Y-69604659D01*
X121788996Y-69475078D01*
X121752737Y-69407242D01*
X121709976Y-69327242D01*
X121661313Y-69166823D01*
X121644883Y-69000000D01*
X121661313Y-68833177D01*
X121709976Y-68672758D01*
X121788995Y-68524924D01*
X121788996Y-68524922D01*
X121895341Y-68395341D01*
X122024922Y-68288996D01*
X122137167Y-68229000D01*
X122172758Y-68209976D01*
X122333177Y-68161313D01*
X122458196Y-68149000D01*
X122541804Y-68149000D01*
X122666823Y-68161313D01*
X122666823Y-68161313D01*
G37*
G36*
X190666823Y-68161313D02*
G01*
X190827242Y-68209976D01*
X190862833Y-68229000D01*
X190975078Y-68288996D01*
X191104659Y-68395341D01*
X191211004Y-68524922D01*
X191211005Y-68524924D01*
X191290024Y-68672758D01*
X191338687Y-68833177D01*
X191355117Y-69000000D01*
X191338687Y-69166823D01*
X191290024Y-69327242D01*
X191247263Y-69407242D01*
X191211004Y-69475078D01*
X191104659Y-69604659D01*
X190975078Y-69711004D01*
X190975076Y-69711005D01*
X190827242Y-69790024D01*
X190827239Y-69790025D01*
X190824008Y-69791005D01*
X190666823Y-69838687D01*
X190541804Y-69851000D01*
X190458196Y-69851000D01*
X190333177Y-69838687D01*
X190175992Y-69791005D01*
X190172761Y-69790025D01*
X190172758Y-69790024D01*
X190024924Y-69711005D01*
X190024922Y-69711004D01*
X189895341Y-69604659D01*
X189788996Y-69475078D01*
X189752737Y-69407242D01*
X189709976Y-69327242D01*
X189661313Y-69166823D01*
X189644883Y-69000000D01*
X189661313Y-68833177D01*
X189709976Y-68672758D01*
X189788995Y-68524924D01*
X189788996Y-68524922D01*
X189895341Y-68395341D01*
X190024922Y-68288996D01*
X190137167Y-68229000D01*
X190172758Y-68209976D01*
X190333177Y-68161313D01*
X190458196Y-68149000D01*
X190541804Y-68149000D01*
X190666823Y-68161313D01*
X190666823Y-68161313D01*
G37*
G36*
X183248228Y-68181703D02*
G01*
X183403100Y-68245853D01*
X183542481Y-68338985D01*
X183661015Y-68457519D01*
X183754147Y-68596900D01*
X183818297Y-68751772D01*
X183851000Y-68916184D01*
X183851000Y-69083816D01*
X183818297Y-69248228D01*
X183754147Y-69403100D01*
X183661015Y-69542481D01*
X183542481Y-69661015D01*
X183403100Y-69754147D01*
X183248228Y-69818297D01*
X183083816Y-69851000D01*
X182916184Y-69851000D01*
X182751772Y-69818297D01*
X182596900Y-69754147D01*
X182457519Y-69661015D01*
X182338985Y-69542481D01*
X182245853Y-69403100D01*
X182181703Y-69248228D01*
X182149000Y-69083816D01*
X182149000Y-68916184D01*
X182181703Y-68751772D01*
X182245853Y-68596900D01*
X182338985Y-68457519D01*
X182457519Y-68338985D01*
X182596900Y-68245853D01*
X182751772Y-68181703D01*
X182916184Y-68149000D01*
X183083816Y-68149000D01*
X183248228Y-68181703D01*
X183248228Y-68181703D01*
G37*
G36*
X103073665Y-67332622D02*
G01*
X103147222Y-67339867D01*
X103288786Y-67382810D01*
X103419252Y-67452546D01*
X103449040Y-67476992D01*
X103533607Y-67546393D01*
X103600130Y-67627454D01*
X103627454Y-67660748D01*
X103697190Y-67791214D01*
X103740133Y-67932778D01*
X103754633Y-68080000D01*
X103740133Y-68227222D01*
X103697190Y-68368786D01*
X103627454Y-68499252D01*
X103603008Y-68529040D01*
X103533607Y-68613607D01*
X103449040Y-68683008D01*
X103419252Y-68707454D01*
X103288786Y-68777190D01*
X103147222Y-68820133D01*
X103073665Y-68827378D01*
X103036888Y-68831000D01*
X102963112Y-68831000D01*
X102926335Y-68827378D01*
X102852778Y-68820133D01*
X102711214Y-68777190D01*
X102580748Y-68707454D01*
X102550960Y-68683008D01*
X102466393Y-68613607D01*
X102396992Y-68529040D01*
X102372546Y-68499252D01*
X102302810Y-68368786D01*
X102259867Y-68227222D01*
X102245367Y-68080000D01*
X102259867Y-67932778D01*
X102302810Y-67791214D01*
X102372546Y-67660748D01*
X102399870Y-67627454D01*
X102466393Y-67546393D01*
X102550960Y-67476992D01*
X102580748Y-67452546D01*
X102711214Y-67382810D01*
X102852778Y-67339867D01*
X102926335Y-67332622D01*
X102963112Y-67329000D01*
X103036888Y-67329000D01*
X103073665Y-67332622D01*
X103073665Y-67332622D01*
G37*
G36*
X132219059Y-66277860D02*
G01*
X132279294Y-66302810D01*
X132355732Y-66334472D01*
X132478735Y-66416660D01*
X132583340Y-66521265D01*
X132665528Y-66644268D01*
X132665529Y-66644270D01*
X132722140Y-66780941D01*
X132751000Y-66926032D01*
X132751000Y-67073968D01*
X132722140Y-67219059D01*
X132708908Y-67251005D01*
X132665528Y-67355732D01*
X132583340Y-67478735D01*
X132478735Y-67583340D01*
X132355732Y-67665528D01*
X132355731Y-67665529D01*
X132355730Y-67665529D01*
X132219059Y-67722140D01*
X132073968Y-67751000D01*
X131926032Y-67751000D01*
X131780941Y-67722140D01*
X131644270Y-67665529D01*
X131644269Y-67665529D01*
X131644268Y-67665528D01*
X131521265Y-67583340D01*
X131416660Y-67478735D01*
X131334472Y-67355732D01*
X131291093Y-67251005D01*
X131277860Y-67219059D01*
X131249000Y-67073968D01*
X131249000Y-66926032D01*
X131277860Y-66780941D01*
X131334471Y-66644270D01*
X131334472Y-66644268D01*
X131416660Y-66521265D01*
X131521265Y-66416660D01*
X131644268Y-66334472D01*
X131720707Y-66302810D01*
X131780941Y-66277860D01*
X131926032Y-66249000D01*
X132073968Y-66249000D01*
X132219059Y-66277860D01*
X132219059Y-66277860D01*
G37*
G36*
X137153665Y-66252622D02*
G01*
X137227222Y-66259867D01*
X137368786Y-66302810D01*
X137499252Y-66372546D01*
X137529040Y-66396992D01*
X137613607Y-66466393D01*
X137674013Y-66540000D01*
X137707454Y-66580748D01*
X137777190Y-66711214D01*
X137820133Y-66852778D01*
X137834633Y-67000000D01*
X137820133Y-67147222D01*
X137777190Y-67288786D01*
X137707454Y-67419252D01*
X137683008Y-67449040D01*
X137613607Y-67533607D01*
X137553004Y-67583341D01*
X137499252Y-67627454D01*
X137368786Y-67697190D01*
X137227222Y-67740133D01*
X137153665Y-67747378D01*
X137116888Y-67751000D01*
X137043112Y-67751000D01*
X137006335Y-67747378D01*
X136932778Y-67740133D01*
X136791214Y-67697190D01*
X136660748Y-67627454D01*
X136606996Y-67583341D01*
X136546393Y-67533607D01*
X136476992Y-67449040D01*
X136452546Y-67419252D01*
X136382810Y-67288786D01*
X136339867Y-67147222D01*
X136325367Y-67000000D01*
X136339867Y-66852778D01*
X136382810Y-66711214D01*
X136452546Y-66580748D01*
X136485987Y-66540000D01*
X136546393Y-66466393D01*
X136630960Y-66396992D01*
X136660748Y-66372546D01*
X136791214Y-66302810D01*
X136932778Y-66259867D01*
X137006335Y-66252622D01*
X137043112Y-66249000D01*
X137116888Y-66249000D01*
X137153665Y-66252622D01*
X137153665Y-66252622D01*
G37*
G36*
X165166823Y-65701313D02*
G01*
X165327242Y-65749976D01*
X165400241Y-65788995D01*
X165475078Y-65828996D01*
X165604659Y-65935341D01*
X165711004Y-66064922D01*
X165711005Y-66064924D01*
X165790024Y-66212758D01*
X165838687Y-66373177D01*
X165855117Y-66540000D01*
X165838687Y-66706823D01*
X165790024Y-66867242D01*
X165732385Y-66975076D01*
X165711004Y-67015078D01*
X165604659Y-67144659D01*
X165475078Y-67251004D01*
X165475076Y-67251005D01*
X165327242Y-67330024D01*
X165166823Y-67378687D01*
X165041804Y-67391000D01*
X164958196Y-67391000D01*
X164833177Y-67378687D01*
X164672758Y-67330024D01*
X164524924Y-67251005D01*
X164524922Y-67251004D01*
X164395341Y-67144659D01*
X164288996Y-67015078D01*
X164267615Y-66975076D01*
X164209976Y-66867242D01*
X164161313Y-66706823D01*
X164144883Y-66540000D01*
X164161313Y-66373177D01*
X164209976Y-66212758D01*
X164288995Y-66064924D01*
X164288996Y-66064922D01*
X164395341Y-65935341D01*
X164524922Y-65828996D01*
X164599759Y-65788995D01*
X164672758Y-65749976D01*
X164833177Y-65701313D01*
X164958196Y-65689000D01*
X165041804Y-65689000D01*
X165166823Y-65701313D01*
X165166823Y-65701313D01*
G37*
G36*
X172786823Y-65701313D02*
G01*
X172947242Y-65749976D01*
X173020241Y-65788995D01*
X173095078Y-65828996D01*
X173224659Y-65935341D01*
X173331004Y-66064922D01*
X173331005Y-66064924D01*
X173410024Y-66212758D01*
X173458687Y-66373177D01*
X173475117Y-66540000D01*
X173458687Y-66706823D01*
X173410024Y-66867242D01*
X173352385Y-66975076D01*
X173331004Y-67015078D01*
X173224659Y-67144659D01*
X173095078Y-67251004D01*
X173095076Y-67251005D01*
X172947242Y-67330024D01*
X172786823Y-67378687D01*
X172661804Y-67391000D01*
X172578196Y-67391000D01*
X172453177Y-67378687D01*
X172292758Y-67330024D01*
X172144924Y-67251005D01*
X172144922Y-67251004D01*
X172015341Y-67144659D01*
X171908996Y-67015078D01*
X171887615Y-66975076D01*
X171829976Y-66867242D01*
X171781313Y-66706823D01*
X171764883Y-66540000D01*
X171781313Y-66373177D01*
X171829976Y-66212758D01*
X171908995Y-66064924D01*
X171908996Y-66064922D01*
X172015341Y-65935341D01*
X172144922Y-65828996D01*
X172219759Y-65788995D01*
X172292758Y-65749976D01*
X172453177Y-65701313D01*
X172578196Y-65689000D01*
X172661804Y-65689000D01*
X172786823Y-65701313D01*
X172786823Y-65701313D01*
G37*
G36*
X141046823Y-65661313D02*
G01*
X141207242Y-65709976D01*
X141283992Y-65751000D01*
X141355078Y-65788996D01*
X141484659Y-65895341D01*
X141591004Y-66024922D01*
X141591005Y-66024924D01*
X141670024Y-66172758D01*
X141718687Y-66333177D01*
X141735117Y-66500000D01*
X141718687Y-66666823D01*
X141670024Y-66827242D01*
X141617219Y-66926033D01*
X141591004Y-66975078D01*
X141484659Y-67104659D01*
X141355078Y-67211004D01*
X141355076Y-67211005D01*
X141207242Y-67290024D01*
X141046823Y-67338687D01*
X140921804Y-67351000D01*
X140838196Y-67351000D01*
X140713177Y-67338687D01*
X140552758Y-67290024D01*
X140404924Y-67211005D01*
X140404922Y-67211004D01*
X140275341Y-67104659D01*
X140168996Y-66975078D01*
X140142781Y-66926033D01*
X140089976Y-66827242D01*
X140041313Y-66666823D01*
X140024883Y-66500000D01*
X140041313Y-66333177D01*
X140089976Y-66172758D01*
X140168995Y-66024924D01*
X140168996Y-66024922D01*
X140275341Y-65895341D01*
X140404922Y-65788996D01*
X140476008Y-65751000D01*
X140552758Y-65709976D01*
X140713177Y-65661313D01*
X140838196Y-65649000D01*
X140921804Y-65649000D01*
X141046823Y-65661313D01*
X141046823Y-65661313D01*
G37*
G36*
X149351000Y-67351000D02*
G01*
X147649000Y-67351000D01*
X147649000Y-65649000D01*
X149351000Y-65649000D01*
X149351000Y-67351000D01*
X149351000Y-67351000D01*
G37*
G36*
X159851000Y-67351000D02*
G01*
X158149000Y-67351000D01*
X158149000Y-65649000D01*
X159851000Y-65649000D01*
X159851000Y-67351000D01*
X159851000Y-67351000D01*
G37*
G36*
X151546823Y-65661313D02*
G01*
X151707242Y-65709976D01*
X151783992Y-65751000D01*
X151855078Y-65788996D01*
X151984659Y-65895341D01*
X152091004Y-66024922D01*
X152091005Y-66024924D01*
X152170024Y-66172758D01*
X152218687Y-66333177D01*
X152235117Y-66500000D01*
X152218687Y-66666823D01*
X152170024Y-66827242D01*
X152117219Y-66926033D01*
X152091004Y-66975078D01*
X151984659Y-67104659D01*
X151855078Y-67211004D01*
X151855076Y-67211005D01*
X151707242Y-67290024D01*
X151546823Y-67338687D01*
X151421804Y-67351000D01*
X151338196Y-67351000D01*
X151213177Y-67338687D01*
X151052758Y-67290024D01*
X150904924Y-67211005D01*
X150904922Y-67211004D01*
X150775341Y-67104659D01*
X150668996Y-66975078D01*
X150642781Y-66926033D01*
X150589976Y-66827242D01*
X150541313Y-66666823D01*
X150524883Y-66500000D01*
X150541313Y-66333177D01*
X150589976Y-66172758D01*
X150668995Y-66024924D01*
X150668996Y-66024922D01*
X150775341Y-65895341D01*
X150904922Y-65788996D01*
X150976008Y-65751000D01*
X151052758Y-65709976D01*
X151213177Y-65661313D01*
X151338196Y-65649000D01*
X151421804Y-65649000D01*
X151546823Y-65661313D01*
X151546823Y-65661313D01*
G37*
G36*
X184469059Y-64277860D02*
G01*
X184588278Y-64327242D01*
X184605732Y-64334472D01*
X184728735Y-64416660D01*
X184833340Y-64521265D01*
X184889062Y-64604659D01*
X184915529Y-64644270D01*
X184943257Y-64711212D01*
X184972140Y-64780941D01*
X185001000Y-64926033D01*
X185001000Y-65073967D01*
X184972140Y-65219059D01*
X184915528Y-65355732D01*
X184833340Y-65478735D01*
X184728735Y-65583340D01*
X184605732Y-65665528D01*
X184605731Y-65665529D01*
X184605730Y-65665529D01*
X184469059Y-65722140D01*
X184323968Y-65751000D01*
X184176032Y-65751000D01*
X184030941Y-65722140D01*
X183894270Y-65665529D01*
X183894269Y-65665529D01*
X183894268Y-65665528D01*
X183771265Y-65583340D01*
X183666660Y-65478735D01*
X183584472Y-65355732D01*
X183527860Y-65219059D01*
X183499000Y-65073967D01*
X183499000Y-64926033D01*
X183527860Y-64780941D01*
X183556743Y-64711212D01*
X183584471Y-64644270D01*
X183610938Y-64604659D01*
X183666660Y-64521265D01*
X183771265Y-64416660D01*
X183894268Y-64334472D01*
X183911723Y-64327242D01*
X184030941Y-64277860D01*
X184176032Y-64249000D01*
X184323968Y-64249000D01*
X184469059Y-64277860D01*
X184469059Y-64277860D01*
G37*
G36*
X179243665Y-64252622D02*
G01*
X179317222Y-64259867D01*
X179458786Y-64302810D01*
X179589252Y-64372546D01*
X179619040Y-64396992D01*
X179703607Y-64466393D01*
X179773008Y-64550960D01*
X179797454Y-64580748D01*
X179867190Y-64711214D01*
X179910133Y-64852778D01*
X179924633Y-65000000D01*
X179910133Y-65147222D01*
X179867190Y-65288786D01*
X179797454Y-65419252D01*
X179773008Y-65449040D01*
X179703607Y-65533607D01*
X179643004Y-65583341D01*
X179589252Y-65627454D01*
X179458786Y-65697190D01*
X179317222Y-65740133D01*
X179243665Y-65747378D01*
X179206888Y-65751000D01*
X179133112Y-65751000D01*
X179096335Y-65747378D01*
X179022778Y-65740133D01*
X178881214Y-65697190D01*
X178750748Y-65627454D01*
X178696996Y-65583341D01*
X178636393Y-65533607D01*
X178566992Y-65449040D01*
X178542546Y-65419252D01*
X178472810Y-65288786D01*
X178429867Y-65147222D01*
X178415367Y-65000000D01*
X178429867Y-64852778D01*
X178472810Y-64711214D01*
X178542546Y-64580748D01*
X178566992Y-64550960D01*
X178636393Y-64466393D01*
X178720960Y-64396992D01*
X178750748Y-64372546D01*
X178881214Y-64302810D01*
X179022778Y-64259867D01*
X179096335Y-64252622D01*
X179133112Y-64249000D01*
X179206888Y-64249000D01*
X179243665Y-64252622D01*
X179243665Y-64252622D01*
G37*
G36*
X165851000Y-64851000D02*
G01*
X164149000Y-64851000D01*
X164149000Y-63149000D01*
X165851000Y-63149000D01*
X165851000Y-64851000D01*
X165851000Y-64851000D01*
G37*
G36*
X172786823Y-63161313D02*
G01*
X172947242Y-63209976D01*
X173079906Y-63280886D01*
X173095078Y-63288996D01*
X173224659Y-63395341D01*
X173331004Y-63524922D01*
X173331005Y-63524924D01*
X173410024Y-63672758D01*
X173458687Y-63833177D01*
X173475117Y-64000000D01*
X173458687Y-64166823D01*
X173410024Y-64327242D01*
X173362229Y-64416660D01*
X173331004Y-64475078D01*
X173224659Y-64604659D01*
X173095078Y-64711004D01*
X173095076Y-64711005D01*
X172947242Y-64790024D01*
X172786823Y-64838687D01*
X172661804Y-64851000D01*
X172578196Y-64851000D01*
X172453177Y-64838687D01*
X172292758Y-64790024D01*
X172144924Y-64711005D01*
X172144922Y-64711004D01*
X172015341Y-64604659D01*
X171908996Y-64475078D01*
X171877771Y-64416660D01*
X171829976Y-64327242D01*
X171781313Y-64166823D01*
X171764883Y-64000000D01*
X171781313Y-63833177D01*
X171829976Y-63672758D01*
X171908995Y-63524924D01*
X171908996Y-63524922D01*
X172015341Y-63395341D01*
X172144922Y-63288996D01*
X172160094Y-63280886D01*
X172292758Y-63209976D01*
X172453177Y-63161313D01*
X172578196Y-63149000D01*
X172661804Y-63149000D01*
X172786823Y-63161313D01*
X172786823Y-63161313D01*
G37*
G36*
X103219059Y-62277860D02*
G01*
X103355732Y-62334472D01*
X103478735Y-62416660D01*
X103583340Y-62521265D01*
X103583341Y-62521267D01*
X103665529Y-62644270D01*
X103722140Y-62780941D01*
X103751000Y-62926032D01*
X103751000Y-63073968D01*
X103722140Y-63219059D01*
X103693172Y-63288995D01*
X103665528Y-63355732D01*
X103583340Y-63478735D01*
X103478735Y-63583340D01*
X103355732Y-63665528D01*
X103355731Y-63665529D01*
X103355730Y-63665529D01*
X103219059Y-63722140D01*
X103073968Y-63751000D01*
X102926032Y-63751000D01*
X102780941Y-63722140D01*
X102644270Y-63665529D01*
X102644269Y-63665529D01*
X102644268Y-63665528D01*
X102521265Y-63583340D01*
X102416660Y-63478735D01*
X102334472Y-63355732D01*
X102306829Y-63288995D01*
X102277860Y-63219059D01*
X102249000Y-63073968D01*
X102249000Y-62926032D01*
X102277860Y-62780941D01*
X102334471Y-62644270D01*
X102416659Y-62521267D01*
X102416660Y-62521265D01*
X102521265Y-62416660D01*
X102644268Y-62334472D01*
X102780941Y-62277860D01*
X102926032Y-62249000D01*
X103073968Y-62249000D01*
X103219059Y-62277860D01*
X103219059Y-62277860D01*
G37*
G36*
X131166823Y-60781313D02*
G01*
X131294794Y-60820133D01*
X131318220Y-60827239D01*
X131327242Y-60829976D01*
X131459906Y-60900886D01*
X131475078Y-60908996D01*
X131604659Y-61015341D01*
X131711004Y-61144922D01*
X131711005Y-61144924D01*
X131790024Y-61292758D01*
X131838687Y-61453177D01*
X131855117Y-61620000D01*
X131838687Y-61786823D01*
X131790024Y-61947242D01*
X131766423Y-61991396D01*
X131711004Y-62095078D01*
X131604659Y-62224659D01*
X131475078Y-62331004D01*
X131475076Y-62331005D01*
X131327242Y-62410024D01*
X131166823Y-62458687D01*
X131041804Y-62471000D01*
X130958196Y-62471000D01*
X130833177Y-62458687D01*
X130672758Y-62410024D01*
X130524924Y-62331005D01*
X130524922Y-62331004D01*
X130395341Y-62224659D01*
X130288996Y-62095078D01*
X130233577Y-61991396D01*
X130209976Y-61947242D01*
X130161313Y-61786823D01*
X130144883Y-61620000D01*
X130161313Y-61453177D01*
X130209976Y-61292758D01*
X130288995Y-61144924D01*
X130288996Y-61144922D01*
X130395341Y-61015341D01*
X130524922Y-60908996D01*
X130540094Y-60900886D01*
X130672758Y-60829976D01*
X130681781Y-60827239D01*
X130705206Y-60820133D01*
X130833177Y-60781313D01*
X130958196Y-60769000D01*
X131041804Y-60769000D01*
X131166823Y-60781313D01*
X131166823Y-60781313D01*
G37*
G36*
X138786823Y-60781313D02*
G01*
X138914794Y-60820133D01*
X138938220Y-60827239D01*
X138947242Y-60829976D01*
X139079906Y-60900886D01*
X139095078Y-60908996D01*
X139224659Y-61015341D01*
X139331004Y-61144922D01*
X139331005Y-61144924D01*
X139410024Y-61292758D01*
X139458687Y-61453177D01*
X139475117Y-61620000D01*
X139458687Y-61786823D01*
X139410024Y-61947242D01*
X139386423Y-61991396D01*
X139331004Y-62095078D01*
X139224659Y-62224659D01*
X139095078Y-62331004D01*
X139095076Y-62331005D01*
X138947242Y-62410024D01*
X138786823Y-62458687D01*
X138661804Y-62471000D01*
X138578196Y-62471000D01*
X138453177Y-62458687D01*
X138292758Y-62410024D01*
X138144924Y-62331005D01*
X138144922Y-62331004D01*
X138015341Y-62224659D01*
X137908996Y-62095078D01*
X137853577Y-61991396D01*
X137829976Y-61947242D01*
X137781313Y-61786823D01*
X137764883Y-61620000D01*
X137781313Y-61453177D01*
X137829976Y-61292758D01*
X137908995Y-61144924D01*
X137908996Y-61144922D01*
X138015341Y-61015341D01*
X138144922Y-60908996D01*
X138160094Y-60900886D01*
X138292758Y-60829976D01*
X138301781Y-60827239D01*
X138325206Y-60820133D01*
X138453177Y-60781313D01*
X138578196Y-60769000D01*
X138661804Y-60769000D01*
X138786823Y-60781313D01*
X138786823Y-60781313D01*
G37*
G36*
X185652585Y-58978802D02*
G01*
X185802410Y-59008604D01*
X186084674Y-59125521D01*
X186338705Y-59295259D01*
X186554741Y-59511295D01*
X186724479Y-59765326D01*
X186832007Y-60024924D01*
X186841396Y-60047591D01*
X186901000Y-60347239D01*
X186901000Y-60652761D01*
X186876250Y-60777189D01*
X186841396Y-60952410D01*
X186724479Y-61234674D01*
X186554741Y-61488705D01*
X186338705Y-61704741D01*
X186084674Y-61874479D01*
X185802410Y-61991396D01*
X185652585Y-62021198D01*
X185502761Y-62051000D01*
X185197239Y-62051000D01*
X185047415Y-62021198D01*
X184897590Y-61991396D01*
X184615326Y-61874479D01*
X184361295Y-61704741D01*
X184145259Y-61488705D01*
X183975521Y-61234674D01*
X183858604Y-60952410D01*
X183823750Y-60777189D01*
X183799000Y-60652761D01*
X183799000Y-60347239D01*
X183858604Y-60047591D01*
X183867993Y-60024924D01*
X183975521Y-59765326D01*
X184145259Y-59511295D01*
X184361295Y-59295259D01*
X184615326Y-59125521D01*
X184897590Y-59008604D01*
X185047415Y-58978802D01*
X185197239Y-58949000D01*
X185502761Y-58949000D01*
X185652585Y-58978802D01*
X185652585Y-58978802D01*
G37*
G36*
X195952585Y-58978802D02*
G01*
X196102410Y-59008604D01*
X196384674Y-59125521D01*
X196638705Y-59295259D01*
X196854741Y-59511295D01*
X197024479Y-59765326D01*
X197132007Y-60024924D01*
X197141396Y-60047591D01*
X197201000Y-60347239D01*
X197201000Y-60652761D01*
X197176250Y-60777189D01*
X197141396Y-60952410D01*
X197024479Y-61234674D01*
X196854741Y-61488705D01*
X196638705Y-61704741D01*
X196384674Y-61874479D01*
X196102410Y-61991396D01*
X195952585Y-62021198D01*
X195802761Y-62051000D01*
X195497239Y-62051000D01*
X195347415Y-62021198D01*
X195197590Y-61991396D01*
X194915326Y-61874479D01*
X194661295Y-61704741D01*
X194445259Y-61488705D01*
X194275521Y-61234674D01*
X194158604Y-60952410D01*
X194123750Y-60777189D01*
X194099000Y-60652761D01*
X194099000Y-60347239D01*
X194158604Y-60047591D01*
X194167993Y-60024924D01*
X194275521Y-59765326D01*
X194445259Y-59511295D01*
X194661295Y-59295259D01*
X194915326Y-59125521D01*
X195197590Y-59008604D01*
X195347415Y-58978802D01*
X195497239Y-58949000D01*
X195802761Y-58949000D01*
X195952585Y-58978802D01*
X195952585Y-58978802D01*
G37*
G36*
X105402585Y-58728802D02*
G01*
X105552410Y-58758604D01*
X105834674Y-58875521D01*
X106088705Y-59045259D01*
X106304741Y-59261295D01*
X106474479Y-59515326D01*
X106591396Y-59797590D01*
X106602374Y-59852780D01*
X106636616Y-60024924D01*
X106651000Y-60097240D01*
X106651000Y-60402760D01*
X106591396Y-60702410D01*
X106474479Y-60984674D01*
X106304741Y-61238705D01*
X106088705Y-61454741D01*
X105834674Y-61624479D01*
X105552410Y-61741396D01*
X105402585Y-61771198D01*
X105252761Y-61801000D01*
X104947239Y-61801000D01*
X104797415Y-61771198D01*
X104647590Y-61741396D01*
X104365326Y-61624479D01*
X104111295Y-61454741D01*
X103895259Y-61238705D01*
X103725521Y-60984674D01*
X103608604Y-60702410D01*
X103549000Y-60402760D01*
X103549000Y-60097240D01*
X103563385Y-60024924D01*
X103597626Y-59852780D01*
X103608604Y-59797590D01*
X103725521Y-59515326D01*
X103895259Y-59261295D01*
X104111295Y-59045259D01*
X104365326Y-58875521D01*
X104647590Y-58758604D01*
X104797415Y-58728802D01*
X104947239Y-58699000D01*
X105252761Y-58699000D01*
X105402585Y-58728802D01*
X105402585Y-58728802D01*
G37*
G36*
X151301000Y-61801000D02*
G01*
X147699000Y-61801000D01*
X147699000Y-58199000D01*
X151301000Y-58199000D01*
X151301000Y-61801000D01*
X151301000Y-61801000D01*
G37*
G36*
X115702585Y-58728802D02*
G01*
X115852410Y-58758604D01*
X116134674Y-58875521D01*
X116388705Y-59045259D01*
X116604741Y-59261295D01*
X116774479Y-59515326D01*
X116891396Y-59797590D01*
X116902374Y-59852780D01*
X116936616Y-60024924D01*
X116951000Y-60097240D01*
X116951000Y-60402760D01*
X116891396Y-60702410D01*
X116774479Y-60984674D01*
X116604741Y-61238705D01*
X116388705Y-61454741D01*
X116134674Y-61624479D01*
X115852410Y-61741396D01*
X115702585Y-61771198D01*
X115552761Y-61801000D01*
X115247239Y-61801000D01*
X115097415Y-61771198D01*
X114947590Y-61741396D01*
X114665326Y-61624479D01*
X114411295Y-61454741D01*
X114195259Y-61238705D01*
X114025521Y-60984674D01*
X113908604Y-60702410D01*
X113849000Y-60402760D01*
X113849000Y-60097240D01*
X113863385Y-60024924D01*
X113897626Y-59852780D01*
X113908604Y-59797590D01*
X114025521Y-59515326D01*
X114195259Y-59261295D01*
X114411295Y-59045259D01*
X114665326Y-58875521D01*
X114947590Y-58758604D01*
X115097415Y-58728802D01*
X115247239Y-58699000D01*
X115552761Y-58699000D01*
X115702585Y-58728802D01*
X115702585Y-58728802D01*
G37*
G36*
X119166823Y-59661313D02*
G01*
X119327242Y-59709976D01*
X119430794Y-59765326D01*
X119475078Y-59788996D01*
X119604659Y-59895341D01*
X119711004Y-60024922D01*
X119711005Y-60024924D01*
X119790024Y-60172758D01*
X119838687Y-60333177D01*
X119855117Y-60500000D01*
X119838687Y-60666823D01*
X119790024Y-60827242D01*
X119723121Y-60952409D01*
X119711004Y-60975078D01*
X119604659Y-61104659D01*
X119475078Y-61211004D01*
X119475076Y-61211005D01*
X119327242Y-61290024D01*
X119327239Y-61290025D01*
X119297380Y-61299083D01*
X119166823Y-61338687D01*
X119041804Y-61351000D01*
X118958196Y-61351000D01*
X118833177Y-61338687D01*
X118702620Y-61299083D01*
X118672761Y-61290025D01*
X118672758Y-61290024D01*
X118524924Y-61211005D01*
X118524922Y-61211004D01*
X118395341Y-61104659D01*
X118288996Y-60975078D01*
X118276879Y-60952409D01*
X118209976Y-60827242D01*
X118161313Y-60666823D01*
X118144883Y-60500000D01*
X118161313Y-60333177D01*
X118209976Y-60172758D01*
X118288995Y-60024924D01*
X118288996Y-60024922D01*
X118395341Y-59895341D01*
X118524922Y-59788996D01*
X118569206Y-59765326D01*
X118672758Y-59709976D01*
X118833177Y-59661313D01*
X118958196Y-59649000D01*
X119041804Y-59649000D01*
X119166823Y-59661313D01*
X119166823Y-59661313D01*
G37*
G36*
X182073665Y-59332622D02*
G01*
X182147222Y-59339867D01*
X182288786Y-59382810D01*
X182419252Y-59452546D01*
X182449040Y-59476992D01*
X182533607Y-59546393D01*
X182603008Y-59630960D01*
X182627454Y-59660748D01*
X182640235Y-59684659D01*
X182696005Y-59788996D01*
X182697190Y-59791214D01*
X182740133Y-59932778D01*
X182754633Y-60080000D01*
X182740133Y-60227222D01*
X182697190Y-60368786D01*
X182627454Y-60499252D01*
X182626840Y-60500000D01*
X182533607Y-60613607D01*
X182470339Y-60665528D01*
X182419252Y-60707454D01*
X182288786Y-60777190D01*
X182147222Y-60820133D01*
X182075073Y-60827239D01*
X182036888Y-60831000D01*
X181963112Y-60831000D01*
X181924927Y-60827239D01*
X181852778Y-60820133D01*
X181711214Y-60777190D01*
X181580748Y-60707454D01*
X181529661Y-60665528D01*
X181466393Y-60613607D01*
X181373160Y-60500000D01*
X181372546Y-60499252D01*
X181302810Y-60368786D01*
X181259867Y-60227222D01*
X181245367Y-60080000D01*
X181259867Y-59932778D01*
X181302810Y-59791214D01*
X181303996Y-59788996D01*
X181359765Y-59684659D01*
X181372546Y-59660748D01*
X181396992Y-59630960D01*
X181466393Y-59546393D01*
X181550960Y-59476992D01*
X181580748Y-59452546D01*
X181711214Y-59382810D01*
X181852778Y-59339867D01*
X181926335Y-59332622D01*
X181963112Y-59329000D01*
X182036888Y-59329000D01*
X182073665Y-59332622D01*
X182073665Y-59332622D01*
G37*
G36*
X123219059Y-59277860D02*
G01*
X123342522Y-59329000D01*
X123355732Y-59334472D01*
X123478735Y-59416660D01*
X123583340Y-59521265D01*
X123665528Y-59644268D01*
X123665529Y-59644270D01*
X123722140Y-59780941D01*
X123751000Y-59926032D01*
X123751000Y-60073968D01*
X123722140Y-60219059D01*
X123674872Y-60333175D01*
X123665528Y-60355732D01*
X123583340Y-60478735D01*
X123478735Y-60583340D01*
X123355732Y-60665528D01*
X123355731Y-60665529D01*
X123355730Y-60665529D01*
X123219059Y-60722140D01*
X123073968Y-60751000D01*
X122926032Y-60751000D01*
X122780941Y-60722140D01*
X122644270Y-60665529D01*
X122644269Y-60665529D01*
X122644268Y-60665528D01*
X122521265Y-60583340D01*
X122416660Y-60478735D01*
X122334472Y-60355732D01*
X122325129Y-60333175D01*
X122277860Y-60219059D01*
X122249000Y-60073968D01*
X122249000Y-59926032D01*
X122277860Y-59780941D01*
X122334471Y-59644270D01*
X122334472Y-59644268D01*
X122416660Y-59521265D01*
X122521265Y-59416660D01*
X122644268Y-59334472D01*
X122657479Y-59329000D01*
X122780941Y-59277860D01*
X122926032Y-59249000D01*
X123073968Y-59249000D01*
X123219059Y-59277860D01*
X123219059Y-59277860D01*
G37*
G36*
X128153665Y-59252622D02*
G01*
X128227222Y-59259867D01*
X128368786Y-59302810D01*
X128499252Y-59372546D01*
X128529040Y-59396992D01*
X128613607Y-59466393D01*
X128679260Y-59546393D01*
X128707454Y-59580748D01*
X128777190Y-59711214D01*
X128820133Y-59852778D01*
X128834633Y-60000000D01*
X128820133Y-60147222D01*
X128777190Y-60288786D01*
X128707454Y-60419252D01*
X128683008Y-60449040D01*
X128613607Y-60533607D01*
X128553004Y-60583341D01*
X128499252Y-60627454D01*
X128368786Y-60697190D01*
X128227222Y-60740133D01*
X128153665Y-60747378D01*
X128116888Y-60751000D01*
X128043112Y-60751000D01*
X128006335Y-60747378D01*
X127932778Y-60740133D01*
X127791214Y-60697190D01*
X127660748Y-60627454D01*
X127606996Y-60583341D01*
X127546393Y-60533607D01*
X127476992Y-60449040D01*
X127452546Y-60419252D01*
X127382810Y-60288786D01*
X127339867Y-60147222D01*
X127325367Y-60000000D01*
X127339867Y-59852778D01*
X127382810Y-59711214D01*
X127452546Y-59580748D01*
X127480740Y-59546393D01*
X127546393Y-59466393D01*
X127630960Y-59396992D01*
X127660748Y-59372546D01*
X127791214Y-59302810D01*
X127932778Y-59259867D01*
X128006335Y-59252622D01*
X128043112Y-59249000D01*
X128116888Y-59249000D01*
X128153665Y-59252622D01*
X128153665Y-59252622D01*
G37*
G36*
X190758690Y-57599479D02*
G01*
X190886780Y-57624957D01*
X191128097Y-57724914D01*
X191345276Y-57870029D01*
X191529971Y-58054724D01*
X191675086Y-58271903D01*
X191775043Y-58513220D01*
X191826000Y-58769400D01*
X191826000Y-59030600D01*
X191775043Y-59286780D01*
X191675086Y-59528097D01*
X191639904Y-59580750D01*
X191529972Y-59745275D01*
X191345275Y-59929972D01*
X191276389Y-59976000D01*
X191128097Y-60075086D01*
X190886780Y-60175043D01*
X190758690Y-60200522D01*
X190630601Y-60226000D01*
X190369399Y-60226000D01*
X190241310Y-60200522D01*
X190113220Y-60175043D01*
X189871903Y-60075086D01*
X189723611Y-59976000D01*
X189654725Y-59929972D01*
X189470028Y-59745275D01*
X189360096Y-59580750D01*
X189324914Y-59528097D01*
X189224957Y-59286780D01*
X189174000Y-59030600D01*
X189174000Y-58769400D01*
X189224957Y-58513220D01*
X189324914Y-58271903D01*
X189470029Y-58054724D01*
X189654724Y-57870029D01*
X189871903Y-57724914D01*
X190113220Y-57624957D01*
X190241310Y-57599479D01*
X190369399Y-57574000D01*
X190630601Y-57574000D01*
X190758690Y-57599479D01*
X190758690Y-57599479D01*
G37*
G36*
X110508690Y-57349478D02*
G01*
X110636780Y-57374957D01*
X110878097Y-57474914D01*
X111095276Y-57620029D01*
X111279971Y-57804724D01*
X111425086Y-58021903D01*
X111525043Y-58263220D01*
X111529069Y-58283460D01*
X111557866Y-58428231D01*
X111576000Y-58519400D01*
X111576000Y-58780600D01*
X111525043Y-59036780D01*
X111488285Y-59125521D01*
X111437139Y-59249000D01*
X111425086Y-59278097D01*
X111387418Y-59334471D01*
X111299270Y-59466394D01*
X111279971Y-59495276D01*
X111095276Y-59679971D01*
X110878097Y-59825086D01*
X110636780Y-59925043D01*
X110508690Y-59950522D01*
X110380601Y-59976000D01*
X110119399Y-59976000D01*
X109991310Y-59950522D01*
X109863220Y-59925043D01*
X109621903Y-59825086D01*
X109404724Y-59679971D01*
X109220029Y-59495276D01*
X109200731Y-59466394D01*
X109112582Y-59334471D01*
X109074914Y-59278097D01*
X109062862Y-59249000D01*
X109011715Y-59125521D01*
X108974957Y-59036780D01*
X108924000Y-58780600D01*
X108924000Y-58519400D01*
X108942135Y-58428231D01*
X108970931Y-58283460D01*
X108974957Y-58263220D01*
X109074914Y-58021903D01*
X109220029Y-57804724D01*
X109404724Y-57620029D01*
X109621903Y-57474914D01*
X109863220Y-57374957D01*
X109991310Y-57349478D01*
X110119399Y-57324000D01*
X110380601Y-57324000D01*
X110508690Y-57349478D01*
X110508690Y-57349478D01*
G37*
G36*
X131166823Y-58241313D02*
G01*
X131327242Y-58289976D01*
X131459906Y-58360886D01*
X131475078Y-58368996D01*
X131604659Y-58475341D01*
X131711004Y-58604922D01*
X131711005Y-58604924D01*
X131790024Y-58752758D01*
X131838687Y-58913177D01*
X131855117Y-59080000D01*
X131838687Y-59246823D01*
X131790024Y-59407242D01*
X131742969Y-59495275D01*
X131711004Y-59555078D01*
X131604659Y-59684659D01*
X131475078Y-59791004D01*
X131475076Y-59791005D01*
X131327242Y-59870024D01*
X131166823Y-59918687D01*
X131041804Y-59931000D01*
X130958196Y-59931000D01*
X130833177Y-59918687D01*
X130672758Y-59870024D01*
X130524924Y-59791005D01*
X130524922Y-59791004D01*
X130395341Y-59684659D01*
X130288996Y-59555078D01*
X130257031Y-59495275D01*
X130209976Y-59407242D01*
X130161313Y-59246823D01*
X130144883Y-59080000D01*
X130161313Y-58913177D01*
X130209976Y-58752758D01*
X130288995Y-58604924D01*
X130288996Y-58604922D01*
X130395341Y-58475341D01*
X130524922Y-58368996D01*
X130540094Y-58360886D01*
X130672758Y-58289976D01*
X130833177Y-58241313D01*
X130958196Y-58229000D01*
X131041804Y-58229000D01*
X131166823Y-58241313D01*
X131166823Y-58241313D01*
G37*
G36*
X138786823Y-58241313D02*
G01*
X138947242Y-58289976D01*
X139079906Y-58360886D01*
X139095078Y-58368996D01*
X139224659Y-58475341D01*
X139331004Y-58604922D01*
X139331005Y-58604924D01*
X139410024Y-58752758D01*
X139458687Y-58913177D01*
X139475117Y-59080000D01*
X139458687Y-59246823D01*
X139410024Y-59407242D01*
X139362969Y-59495275D01*
X139331004Y-59555078D01*
X139224659Y-59684659D01*
X139095078Y-59791004D01*
X139095076Y-59791005D01*
X138947242Y-59870024D01*
X138786823Y-59918687D01*
X138661804Y-59931000D01*
X138578196Y-59931000D01*
X138453177Y-59918687D01*
X138292758Y-59870024D01*
X138144924Y-59791005D01*
X138144922Y-59791004D01*
X138015341Y-59684659D01*
X137908996Y-59555078D01*
X137877031Y-59495275D01*
X137829976Y-59407242D01*
X137781313Y-59246823D01*
X137764883Y-59080000D01*
X137781313Y-58913177D01*
X137829976Y-58752758D01*
X137908995Y-58604924D01*
X137908996Y-58604922D01*
X138015341Y-58475341D01*
X138144922Y-58368996D01*
X138160094Y-58360886D01*
X138292758Y-58289976D01*
X138453177Y-58241313D01*
X138578196Y-58229000D01*
X138661804Y-58229000D01*
X138786823Y-58241313D01*
X138786823Y-58241313D01*
G37*
G36*
X145926366Y-55215695D02*
G01*
X146083460Y-55263349D01*
X146228231Y-55340731D01*
X146355128Y-55444872D01*
X146459269Y-55571769D01*
X146536651Y-55716540D01*
X146584305Y-55873634D01*
X146601000Y-56043140D01*
X146601000Y-57956860D01*
X146584305Y-58126366D01*
X146536651Y-58283460D01*
X146459269Y-58428231D01*
X146355128Y-58555128D01*
X146228231Y-58659269D01*
X146083460Y-58736651D01*
X145926366Y-58784305D01*
X145756860Y-58801000D01*
X143843140Y-58801000D01*
X143673634Y-58784305D01*
X143516540Y-58736651D01*
X143371769Y-58659269D01*
X143244872Y-58555128D01*
X143140731Y-58428231D01*
X143063349Y-58283460D01*
X143015695Y-58126366D01*
X142999000Y-57956860D01*
X142999000Y-56043140D01*
X143015695Y-55873634D01*
X143063349Y-55716540D01*
X143140731Y-55571769D01*
X143244872Y-55444872D01*
X143371769Y-55340731D01*
X143516540Y-55263349D01*
X143673634Y-55215695D01*
X143843140Y-55199000D01*
X145756860Y-55199000D01*
X145926366Y-55215695D01*
X145926366Y-55215695D01*
G37*
G36*
X138786823Y-55701313D02*
G01*
X138947242Y-55749976D01*
X139079906Y-55820886D01*
X139095078Y-55828996D01*
X139224659Y-55935341D01*
X139331004Y-56064922D01*
X139331005Y-56064924D01*
X139410024Y-56212758D01*
X139458687Y-56373177D01*
X139475117Y-56540000D01*
X139458687Y-56706823D01*
X139410024Y-56867242D01*
X139339114Y-56999906D01*
X139331004Y-57015078D01*
X139224659Y-57144659D01*
X139095078Y-57251004D01*
X139095076Y-57251005D01*
X138947242Y-57330024D01*
X138786823Y-57378687D01*
X138661804Y-57391000D01*
X138578196Y-57391000D01*
X138453177Y-57378687D01*
X138292758Y-57330024D01*
X138144924Y-57251005D01*
X138144922Y-57251004D01*
X138015341Y-57144659D01*
X137908996Y-57015078D01*
X137900886Y-56999906D01*
X137829976Y-56867242D01*
X137781313Y-56706823D01*
X137764883Y-56540000D01*
X137781313Y-56373177D01*
X137829976Y-56212758D01*
X137908995Y-56064924D01*
X137908996Y-56064922D01*
X138015341Y-55935341D01*
X138144922Y-55828996D01*
X138160094Y-55820886D01*
X138292758Y-55749976D01*
X138453177Y-55701313D01*
X138578196Y-55689000D01*
X138661804Y-55689000D01*
X138786823Y-55701313D01*
X138786823Y-55701313D01*
G37*
G36*
X131166823Y-55701313D02*
G01*
X131327242Y-55749976D01*
X131459906Y-55820886D01*
X131475078Y-55828996D01*
X131604659Y-55935341D01*
X131711004Y-56064922D01*
X131711005Y-56064924D01*
X131790024Y-56212758D01*
X131838687Y-56373177D01*
X131855117Y-56540000D01*
X131838687Y-56706823D01*
X131790024Y-56867242D01*
X131719114Y-56999906D01*
X131711004Y-57015078D01*
X131604659Y-57144659D01*
X131475078Y-57251004D01*
X131475076Y-57251005D01*
X131327242Y-57330024D01*
X131166823Y-57378687D01*
X131041804Y-57391000D01*
X130958196Y-57391000D01*
X130833177Y-57378687D01*
X130672758Y-57330024D01*
X130524924Y-57251005D01*
X130524922Y-57251004D01*
X130395341Y-57144659D01*
X130288996Y-57015078D01*
X130280886Y-56999906D01*
X130209976Y-56867242D01*
X130161313Y-56706823D01*
X130144883Y-56540000D01*
X130161313Y-56373177D01*
X130209976Y-56212758D01*
X130288995Y-56064924D01*
X130288996Y-56064922D01*
X130395341Y-55935341D01*
X130524922Y-55828996D01*
X130540094Y-55820886D01*
X130672758Y-55749976D01*
X130833177Y-55701313D01*
X130958196Y-55689000D01*
X131041804Y-55689000D01*
X131166823Y-55701313D01*
X131166823Y-55701313D01*
G37*
G36*
X166748228Y-55181703D02*
G01*
X166903100Y-55245853D01*
X167042481Y-55338985D01*
X167161015Y-55457519D01*
X167254147Y-55596900D01*
X167318297Y-55751772D01*
X167351000Y-55916184D01*
X167351000Y-56083816D01*
X167318297Y-56248228D01*
X167254147Y-56403100D01*
X167161015Y-56542481D01*
X167042481Y-56661015D01*
X166903100Y-56754147D01*
X166748228Y-56818297D01*
X166583816Y-56851000D01*
X166416184Y-56851000D01*
X166251772Y-56818297D01*
X166096900Y-56754147D01*
X165957519Y-56661015D01*
X165838985Y-56542481D01*
X165745853Y-56403100D01*
X165681703Y-56248228D01*
X165649000Y-56083816D01*
X165649000Y-55916184D01*
X165681703Y-55751772D01*
X165745853Y-55596900D01*
X165838985Y-55457519D01*
X165957519Y-55338985D01*
X166096900Y-55245853D01*
X166251772Y-55181703D01*
X166416184Y-55149000D01*
X166583816Y-55149000D01*
X166748228Y-55181703D01*
X166748228Y-55181703D01*
G37*
G36*
X159166823Y-55161313D02*
G01*
X159327242Y-55209976D01*
X159434948Y-55267546D01*
X159475078Y-55288996D01*
X159604659Y-55395341D01*
X159711004Y-55524922D01*
X159711005Y-55524924D01*
X159790024Y-55672758D01*
X159838687Y-55833177D01*
X159855117Y-56000000D01*
X159838687Y-56166823D01*
X159790024Y-56327242D01*
X159749477Y-56403100D01*
X159711004Y-56475078D01*
X159604659Y-56604659D01*
X159475078Y-56711004D01*
X159475076Y-56711005D01*
X159327242Y-56790024D01*
X159166823Y-56838687D01*
X159041804Y-56851000D01*
X158958196Y-56851000D01*
X158833177Y-56838687D01*
X158672758Y-56790024D01*
X158524924Y-56711005D01*
X158524922Y-56711004D01*
X158395341Y-56604659D01*
X158288996Y-56475078D01*
X158250523Y-56403100D01*
X158209976Y-56327242D01*
X158161313Y-56166823D01*
X158144883Y-56000000D01*
X158161313Y-55833177D01*
X158209976Y-55672758D01*
X158288995Y-55524924D01*
X158288996Y-55524922D01*
X158395341Y-55395341D01*
X158524922Y-55288996D01*
X158565052Y-55267546D01*
X158672758Y-55209976D01*
X158833177Y-55161313D01*
X158958196Y-55149000D01*
X159041804Y-55149000D01*
X159166823Y-55161313D01*
X159166823Y-55161313D01*
G37*
G36*
X179153665Y-54252622D02*
G01*
X179227222Y-54259867D01*
X179368786Y-54302810D01*
X179499252Y-54372546D01*
X179529040Y-54396992D01*
X179613607Y-54466393D01*
X179683008Y-54550960D01*
X179707454Y-54580748D01*
X179777190Y-54711214D01*
X179820133Y-54852778D01*
X179834633Y-55000000D01*
X179820133Y-55147222D01*
X179777190Y-55288786D01*
X179707454Y-55419252D01*
X179686428Y-55444872D01*
X179613607Y-55533607D01*
X179533669Y-55599209D01*
X179499252Y-55627454D01*
X179368786Y-55697190D01*
X179227222Y-55740133D01*
X179153665Y-55747378D01*
X179116888Y-55751000D01*
X179043112Y-55751000D01*
X179006335Y-55747378D01*
X178932778Y-55740133D01*
X178791214Y-55697190D01*
X178660748Y-55627454D01*
X178626331Y-55599209D01*
X178546393Y-55533607D01*
X178473572Y-55444872D01*
X178452546Y-55419252D01*
X178382810Y-55288786D01*
X178339867Y-55147222D01*
X178325367Y-55000000D01*
X178339867Y-54852778D01*
X178382810Y-54711214D01*
X178452546Y-54580748D01*
X178476992Y-54550960D01*
X178546393Y-54466393D01*
X178630960Y-54396992D01*
X178660748Y-54372546D01*
X178791214Y-54302810D01*
X178932778Y-54259867D01*
X179006335Y-54252622D01*
X179043112Y-54249000D01*
X179116888Y-54249000D01*
X179153665Y-54252622D01*
X179153665Y-54252622D01*
G37*
G36*
X182219059Y-54277860D02*
G01*
X182338278Y-54327242D01*
X182355732Y-54334472D01*
X182478735Y-54416660D01*
X182583340Y-54521265D01*
X182624817Y-54583340D01*
X182665529Y-54644270D01*
X182722140Y-54780941D01*
X182751000Y-54926032D01*
X182751000Y-55073968D01*
X182722140Y-55219059D01*
X182678730Y-55323861D01*
X182665528Y-55355732D01*
X182583340Y-55478735D01*
X182478735Y-55583340D01*
X182355732Y-55665528D01*
X182355731Y-55665529D01*
X182355730Y-55665529D01*
X182219059Y-55722140D01*
X182073968Y-55751000D01*
X181926032Y-55751000D01*
X181780941Y-55722140D01*
X181644270Y-55665529D01*
X181644269Y-55665529D01*
X181644268Y-55665528D01*
X181521265Y-55583340D01*
X181416660Y-55478735D01*
X181334472Y-55355732D01*
X181321271Y-55323861D01*
X181277860Y-55219059D01*
X181249000Y-55073968D01*
X181249000Y-54926032D01*
X181277860Y-54780941D01*
X181334471Y-54644270D01*
X181375183Y-54583340D01*
X181416660Y-54521265D01*
X181521265Y-54416660D01*
X181644268Y-54334472D01*
X181661723Y-54327242D01*
X181780941Y-54277860D01*
X181926032Y-54249000D01*
X182073968Y-54249000D01*
X182219059Y-54277860D01*
X182219059Y-54277860D01*
G37*
G36*
X174219059Y-54277860D02*
G01*
X174338278Y-54327242D01*
X174355732Y-54334472D01*
X174478735Y-54416660D01*
X174583340Y-54521265D01*
X174624817Y-54583340D01*
X174665529Y-54644270D01*
X174722140Y-54780941D01*
X174751000Y-54926032D01*
X174751000Y-55073968D01*
X174722140Y-55219059D01*
X174678730Y-55323861D01*
X174665528Y-55355732D01*
X174583340Y-55478735D01*
X174478735Y-55583340D01*
X174355732Y-55665528D01*
X174355731Y-55665529D01*
X174355730Y-55665529D01*
X174219059Y-55722140D01*
X174073968Y-55751000D01*
X173926032Y-55751000D01*
X173780941Y-55722140D01*
X173644270Y-55665529D01*
X173644269Y-55665529D01*
X173644268Y-55665528D01*
X173521265Y-55583340D01*
X173416660Y-55478735D01*
X173334472Y-55355732D01*
X173321271Y-55323861D01*
X173277860Y-55219059D01*
X173249000Y-55073968D01*
X173249000Y-54926032D01*
X173277860Y-54780941D01*
X173334471Y-54644270D01*
X173375183Y-54583340D01*
X173416660Y-54521265D01*
X173521265Y-54416660D01*
X173644268Y-54334472D01*
X173661723Y-54327242D01*
X173780941Y-54277860D01*
X173926032Y-54249000D01*
X174073968Y-54249000D01*
X174219059Y-54277860D01*
X174219059Y-54277860D01*
G37*
G36*
X150726979Y-52463293D02*
G01*
X150860625Y-52503834D01*
X150983784Y-52569664D01*
X151091740Y-52658260D01*
X151180336Y-52766216D01*
X151246166Y-52889375D01*
X151286707Y-53023021D01*
X151301000Y-53168140D01*
X151301000Y-54831860D01*
X151286707Y-54976979D01*
X151246166Y-55110625D01*
X151180336Y-55233784D01*
X151091740Y-55341740D01*
X150983784Y-55430336D01*
X150860625Y-55496166D01*
X150726979Y-55536707D01*
X150581860Y-55551000D01*
X148418140Y-55551000D01*
X148273021Y-55536707D01*
X148139375Y-55496166D01*
X148016216Y-55430336D01*
X147908260Y-55341740D01*
X147819664Y-55233784D01*
X147753834Y-55110625D01*
X147713293Y-54976979D01*
X147699000Y-54831860D01*
X147699000Y-53168140D01*
X147713293Y-53023021D01*
X147753834Y-52889375D01*
X147819664Y-52766216D01*
X147908260Y-52658260D01*
X148016216Y-52569664D01*
X148139375Y-52503834D01*
X148273021Y-52463293D01*
X148418140Y-52449000D01*
X150581860Y-52449000D01*
X150726979Y-52463293D01*
X150726979Y-52463293D01*
G37*
G36*
X103875256Y-51891298D02*
G01*
X103981579Y-51912447D01*
X104282042Y-52036903D01*
X104552451Y-52217585D01*
X104782415Y-52447549D01*
X104963097Y-52717958D01*
X104963098Y-52717960D01*
X104977103Y-52751771D01*
X105079923Y-53000000D01*
X105087553Y-53018422D01*
X105151000Y-53337389D01*
X105151000Y-53662611D01*
X105120032Y-53818295D01*
X105087553Y-53981579D01*
X104999550Y-54194037D01*
X104976784Y-54249000D01*
X104963097Y-54282042D01*
X104782415Y-54552451D01*
X104552451Y-54782415D01*
X104282042Y-54963097D01*
X103981579Y-55087553D01*
X103875256Y-55108702D01*
X103662611Y-55151000D01*
X103337389Y-55151000D01*
X103124744Y-55108702D01*
X103018421Y-55087553D01*
X102717958Y-54963097D01*
X102447549Y-54782415D01*
X102217585Y-54552451D01*
X102036903Y-54282042D01*
X102023217Y-54249000D01*
X102000450Y-54194037D01*
X101912447Y-53981579D01*
X101879968Y-53818295D01*
X101849000Y-53662611D01*
X101849000Y-53337389D01*
X101912447Y-53018422D01*
X101920078Y-53000000D01*
X102022897Y-52751771D01*
X102036902Y-52717960D01*
X102036903Y-52717958D01*
X102217585Y-52447549D01*
X102447549Y-52217585D01*
X102717958Y-52036903D01*
X103018421Y-51912447D01*
X103124744Y-51891298D01*
X103337389Y-51849000D01*
X103662611Y-51849000D01*
X103875256Y-51891298D01*
X103875256Y-51891298D01*
G37*
G36*
X196875256Y-51891298D02*
G01*
X196981579Y-51912447D01*
X197282042Y-52036903D01*
X197552451Y-52217585D01*
X197782415Y-52447549D01*
X197963097Y-52717958D01*
X197963098Y-52717960D01*
X197977103Y-52751771D01*
X198079923Y-53000000D01*
X198087553Y-53018422D01*
X198151000Y-53337389D01*
X198151000Y-53662611D01*
X198120032Y-53818295D01*
X198087553Y-53981579D01*
X197999550Y-54194037D01*
X197976784Y-54249000D01*
X197963097Y-54282042D01*
X197782415Y-54552451D01*
X197552451Y-54782415D01*
X197282042Y-54963097D01*
X196981579Y-55087553D01*
X196875256Y-55108702D01*
X196662611Y-55151000D01*
X196337389Y-55151000D01*
X196124744Y-55108702D01*
X196018421Y-55087553D01*
X195717958Y-54963097D01*
X195447549Y-54782415D01*
X195217585Y-54552451D01*
X195036903Y-54282042D01*
X195023217Y-54249000D01*
X195000450Y-54194037D01*
X194912447Y-53981579D01*
X194879968Y-53818295D01*
X194849000Y-53662611D01*
X194849000Y-53337389D01*
X194912447Y-53018422D01*
X194920078Y-53000000D01*
X195022897Y-52751771D01*
X195036902Y-52717960D01*
X195036903Y-52717958D01*
X195217585Y-52447549D01*
X195447549Y-52217585D01*
X195717958Y-52036903D01*
X196018421Y-51912447D01*
X196124744Y-51891298D01*
X196337389Y-51849000D01*
X196662611Y-51849000D01*
X196875256Y-51891298D01*
X196875256Y-51891298D01*
G37*
G36*
X138786823Y-53161313D02*
G01*
X138947242Y-53209976D01*
X139040581Y-53259867D01*
X139095078Y-53288996D01*
X139224659Y-53395341D01*
X139331004Y-53524922D01*
X139331005Y-53524924D01*
X139410024Y-53672758D01*
X139458687Y-53833177D01*
X139475117Y-54000000D01*
X139458687Y-54166823D01*
X139410024Y-54327242D01*
X139339114Y-54459906D01*
X139331004Y-54475078D01*
X139224659Y-54604659D01*
X139095078Y-54711004D01*
X139095076Y-54711005D01*
X138947242Y-54790024D01*
X138786823Y-54838687D01*
X138661804Y-54851000D01*
X138578196Y-54851000D01*
X138453177Y-54838687D01*
X138292758Y-54790024D01*
X138144924Y-54711005D01*
X138144922Y-54711004D01*
X138015341Y-54604659D01*
X137908996Y-54475078D01*
X137900886Y-54459906D01*
X137829976Y-54327242D01*
X137781313Y-54166823D01*
X137764883Y-54000000D01*
X137781313Y-53833177D01*
X137829976Y-53672758D01*
X137908995Y-53524924D01*
X137908996Y-53524922D01*
X138015341Y-53395341D01*
X138144922Y-53288996D01*
X138199419Y-53259867D01*
X138292758Y-53209976D01*
X138453177Y-53161313D01*
X138578196Y-53149000D01*
X138661804Y-53149000D01*
X138786823Y-53161313D01*
X138786823Y-53161313D01*
G37*
G36*
X131851000Y-54851000D02*
G01*
X130149000Y-54851000D01*
X130149000Y-53149000D01*
X131851000Y-53149000D01*
X131851000Y-54851000D01*
X131851000Y-54851000D01*
G37*
G36*
X123219059Y-53277860D02*
G01*
X123279294Y-53302810D01*
X123355732Y-53334472D01*
X123478735Y-53416660D01*
X123583340Y-53521265D01*
X123624817Y-53583340D01*
X123665529Y-53644270D01*
X123722140Y-53780941D01*
X123751000Y-53926032D01*
X123751000Y-54073968D01*
X123722140Y-54219059D01*
X123696052Y-54282042D01*
X123665528Y-54355732D01*
X123583340Y-54478735D01*
X123478735Y-54583340D01*
X123355732Y-54665528D01*
X123355731Y-54665529D01*
X123355730Y-54665529D01*
X123219059Y-54722140D01*
X123073968Y-54751000D01*
X122926032Y-54751000D01*
X122780941Y-54722140D01*
X122644270Y-54665529D01*
X122644269Y-54665529D01*
X122644268Y-54665528D01*
X122521265Y-54583340D01*
X122416660Y-54478735D01*
X122334472Y-54355732D01*
X122303949Y-54282042D01*
X122277860Y-54219059D01*
X122249000Y-54073968D01*
X122249000Y-53926032D01*
X122277860Y-53780941D01*
X122334471Y-53644270D01*
X122375183Y-53583340D01*
X122416660Y-53521265D01*
X122521265Y-53416660D01*
X122644268Y-53334472D01*
X122720707Y-53302810D01*
X122780941Y-53277860D01*
X122926032Y-53249000D01*
X123073968Y-53249000D01*
X123219059Y-53277860D01*
X123219059Y-53277860D01*
G37*
G36*
X128153665Y-53252622D02*
G01*
X128227222Y-53259867D01*
X128368786Y-53302810D01*
X128499252Y-53372546D01*
X128527028Y-53395341D01*
X128613607Y-53466393D01*
X128676048Y-53542480D01*
X128707454Y-53580748D01*
X128777190Y-53711214D01*
X128820133Y-53852778D01*
X128834633Y-54000000D01*
X128820133Y-54147222D01*
X128777190Y-54288786D01*
X128707454Y-54419252D01*
X128683008Y-54449040D01*
X128613607Y-54533607D01*
X128553004Y-54583341D01*
X128499252Y-54627454D01*
X128368786Y-54697190D01*
X128227222Y-54740133D01*
X128153665Y-54747378D01*
X128116888Y-54751000D01*
X128043112Y-54751000D01*
X128006335Y-54747378D01*
X127932778Y-54740133D01*
X127791214Y-54697190D01*
X127660748Y-54627454D01*
X127606996Y-54583341D01*
X127546393Y-54533607D01*
X127476992Y-54449040D01*
X127452546Y-54419252D01*
X127382810Y-54288786D01*
X127339867Y-54147222D01*
X127325367Y-54000000D01*
X127339867Y-53852778D01*
X127382810Y-53711214D01*
X127452546Y-53580748D01*
X127483952Y-53542480D01*
X127546393Y-53466393D01*
X127632972Y-53395341D01*
X127660748Y-53372546D01*
X127791214Y-53302810D01*
X127932778Y-53259867D01*
X128006335Y-53252622D01*
X128043112Y-53249000D01*
X128116888Y-53249000D01*
X128153665Y-53252622D01*
X128153665Y-53252622D01*
G37*
G36*
X119248228Y-52181703D02*
G01*
X119403100Y-52245853D01*
X119542481Y-52338985D01*
X119661015Y-52457519D01*
X119754147Y-52596900D01*
X119818297Y-52751772D01*
X119851000Y-52916184D01*
X119851000Y-53083816D01*
X119818297Y-53248228D01*
X119754147Y-53403100D01*
X119661015Y-53542481D01*
X119542481Y-53661015D01*
X119403100Y-53754147D01*
X119248228Y-53818297D01*
X119083816Y-53851000D01*
X118916184Y-53851000D01*
X118751772Y-53818297D01*
X118596900Y-53754147D01*
X118457519Y-53661015D01*
X118338985Y-53542481D01*
X118245853Y-53403100D01*
X118181703Y-53248228D01*
X118149000Y-53083816D01*
X118149000Y-52916184D01*
X118181703Y-52751772D01*
X118245853Y-52596900D01*
X118338985Y-52457519D01*
X118457519Y-52338985D01*
X118596900Y-52245853D01*
X118751772Y-52181703D01*
X118916184Y-52149000D01*
X119083816Y-52149000D01*
X119248228Y-52181703D01*
X119248228Y-52181703D01*
G37*
G36*
X169653665Y-52252622D02*
G01*
X169727222Y-52259867D01*
X169868786Y-52302810D01*
X169999252Y-52372546D01*
X170029040Y-52396992D01*
X170113607Y-52466393D01*
X170183008Y-52550960D01*
X170207454Y-52580748D01*
X170277190Y-52711214D01*
X170320133Y-52852778D01*
X170334633Y-53000000D01*
X170320133Y-53147222D01*
X170277190Y-53288786D01*
X170207454Y-53419252D01*
X170183008Y-53449040D01*
X170113607Y-53533607D01*
X170053004Y-53583341D01*
X169999252Y-53627454D01*
X169868786Y-53697190D01*
X169727222Y-53740133D01*
X169653665Y-53747378D01*
X169616888Y-53751000D01*
X169543112Y-53751000D01*
X169506335Y-53747378D01*
X169432778Y-53740133D01*
X169291214Y-53697190D01*
X169160748Y-53627454D01*
X169106996Y-53583341D01*
X169046393Y-53533607D01*
X168976992Y-53449040D01*
X168952546Y-53419252D01*
X168882810Y-53288786D01*
X168839867Y-53147222D01*
X168825367Y-53000000D01*
X168839867Y-52852778D01*
X168882810Y-52711214D01*
X168952546Y-52580748D01*
X168976992Y-52550960D01*
X169046393Y-52466393D01*
X169130960Y-52396992D01*
X169160748Y-52372546D01*
X169291214Y-52302810D01*
X169432778Y-52259867D01*
X169506335Y-52252622D01*
X169543112Y-52249000D01*
X169616888Y-52249000D01*
X169653665Y-52252622D01*
X169653665Y-52252622D01*
G37*
G36*
X161719059Y-52277860D02*
G01*
X161779294Y-52302810D01*
X161855732Y-52334472D01*
X161978735Y-52416660D01*
X162083340Y-52521265D01*
X162154293Y-52627454D01*
X162165529Y-52644270D01*
X162222140Y-52780941D01*
X162251000Y-52926032D01*
X162251000Y-53073968D01*
X162222140Y-53219059D01*
X162193172Y-53288995D01*
X162165528Y-53355732D01*
X162083340Y-53478735D01*
X161978735Y-53583340D01*
X161855732Y-53665528D01*
X161855731Y-53665529D01*
X161855730Y-53665529D01*
X161719059Y-53722140D01*
X161573968Y-53751000D01*
X161426032Y-53751000D01*
X161280941Y-53722140D01*
X161144270Y-53665529D01*
X161144269Y-53665529D01*
X161144268Y-53665528D01*
X161021265Y-53583340D01*
X160916660Y-53478735D01*
X160834472Y-53355732D01*
X160806829Y-53288995D01*
X160777860Y-53219059D01*
X160749000Y-53073968D01*
X160749000Y-52926032D01*
X160777860Y-52780941D01*
X160834471Y-52644270D01*
X160845707Y-52627454D01*
X160916660Y-52521265D01*
X161021265Y-52416660D01*
X161144268Y-52334472D01*
X161220707Y-52302810D01*
X161280941Y-52277860D01*
X161426032Y-52249000D01*
X161573968Y-52249000D01*
X161719059Y-52277860D01*
X161719059Y-52277860D01*
G37*
G36*
X164719059Y-52277860D02*
G01*
X164779294Y-52302810D01*
X164855732Y-52334472D01*
X164978735Y-52416660D01*
X165083340Y-52521265D01*
X165154293Y-52627454D01*
X165165529Y-52644270D01*
X165222140Y-52780941D01*
X165251000Y-52926032D01*
X165251000Y-53073968D01*
X165222140Y-53219059D01*
X165193172Y-53288995D01*
X165165528Y-53355732D01*
X165083340Y-53478735D01*
X164978735Y-53583340D01*
X164855732Y-53665528D01*
X164855731Y-53665529D01*
X164855730Y-53665529D01*
X164719059Y-53722140D01*
X164573968Y-53751000D01*
X164426032Y-53751000D01*
X164280941Y-53722140D01*
X164144270Y-53665529D01*
X164144269Y-53665529D01*
X164144268Y-53665528D01*
X164021265Y-53583340D01*
X163916660Y-53478735D01*
X163834472Y-53355732D01*
X163806829Y-53288995D01*
X163777860Y-53219059D01*
X163749000Y-53073968D01*
X163749000Y-52926032D01*
X163777860Y-52780941D01*
X163834471Y-52644270D01*
X163845707Y-52627454D01*
X163916660Y-52521265D01*
X164021265Y-52416660D01*
X164144268Y-52334472D01*
X164220707Y-52302810D01*
X164280941Y-52277860D01*
X164426032Y-52249000D01*
X164573968Y-52249000D01*
X164719059Y-52277860D01*
X164719059Y-52277860D01*
G37*
G36*
X156493665Y-52252622D02*
G01*
X156567222Y-52259867D01*
X156708786Y-52302810D01*
X156839252Y-52372546D01*
X156869040Y-52396992D01*
X156953607Y-52466393D01*
X157023008Y-52550960D01*
X157047454Y-52580748D01*
X157117190Y-52711214D01*
X157160133Y-52852778D01*
X157174633Y-53000000D01*
X157160133Y-53147222D01*
X157117190Y-53288786D01*
X157047454Y-53419252D01*
X157023008Y-53449040D01*
X156953607Y-53533607D01*
X156893004Y-53583341D01*
X156839252Y-53627454D01*
X156708786Y-53697190D01*
X156567222Y-53740133D01*
X156493665Y-53747378D01*
X156456888Y-53751000D01*
X156383112Y-53751000D01*
X156346335Y-53747378D01*
X156272778Y-53740133D01*
X156131214Y-53697190D01*
X156000748Y-53627454D01*
X155946996Y-53583341D01*
X155886393Y-53533607D01*
X155816992Y-53449040D01*
X155792546Y-53419252D01*
X155722810Y-53288786D01*
X155679867Y-53147222D01*
X155665367Y-53000000D01*
X155679867Y-52852778D01*
X155722810Y-52711214D01*
X155792546Y-52580748D01*
X155816992Y-52550960D01*
X155886393Y-52466393D01*
X155970960Y-52396992D01*
X156000748Y-52372546D01*
X156131214Y-52302810D01*
X156272778Y-52259867D01*
X156346335Y-52252622D01*
X156383112Y-52249000D01*
X156456888Y-52249000D01*
X156493665Y-52252622D01*
X156493665Y-52252622D01*
G37*
G36*
X179653665Y-51252622D02*
G01*
X179727222Y-51259867D01*
X179868786Y-51302810D01*
X179999252Y-51372546D01*
X180029040Y-51396992D01*
X180113607Y-51466393D01*
X180183008Y-51550960D01*
X180207454Y-51580748D01*
X180277190Y-51711214D01*
X180320133Y-51852778D01*
X180334633Y-52000000D01*
X180320133Y-52147222D01*
X180277190Y-52288786D01*
X180207454Y-52419252D01*
X180184231Y-52447549D01*
X180113607Y-52533607D01*
X180029040Y-52603008D01*
X179999252Y-52627454D01*
X179868786Y-52697190D01*
X179727222Y-52740133D01*
X179653665Y-52747378D01*
X179616888Y-52751000D01*
X179543112Y-52751000D01*
X179506335Y-52747378D01*
X179432778Y-52740133D01*
X179291214Y-52697190D01*
X179160748Y-52627454D01*
X179130960Y-52603008D01*
X179046393Y-52533607D01*
X178975769Y-52447549D01*
X178952546Y-52419252D01*
X178882810Y-52288786D01*
X178839867Y-52147222D01*
X178825367Y-52000000D01*
X178839867Y-51852778D01*
X178882810Y-51711214D01*
X178952546Y-51580748D01*
X178976992Y-51550960D01*
X179046393Y-51466393D01*
X179130960Y-51396992D01*
X179160748Y-51372546D01*
X179291214Y-51302810D01*
X179432778Y-51259867D01*
X179506335Y-51252622D01*
X179543112Y-51249000D01*
X179616888Y-51249000D01*
X179653665Y-51252622D01*
X179653665Y-51252622D01*
G37*
G36*
X174719059Y-51277860D02*
G01*
X174779294Y-51302810D01*
X174855732Y-51334472D01*
X174978735Y-51416660D01*
X175083340Y-51521265D01*
X175165528Y-51644268D01*
X175165529Y-51644270D01*
X175222140Y-51780941D01*
X175235678Y-51849000D01*
X175251000Y-51926033D01*
X175251000Y-52073967D01*
X175222140Y-52219059D01*
X175165528Y-52355732D01*
X175083340Y-52478735D01*
X174978735Y-52583340D01*
X174855732Y-52665528D01*
X174855731Y-52665529D01*
X174855730Y-52665529D01*
X174719059Y-52722140D01*
X174573968Y-52751000D01*
X174426032Y-52751000D01*
X174280941Y-52722140D01*
X174144270Y-52665529D01*
X174144269Y-52665529D01*
X174144268Y-52665528D01*
X174021265Y-52583340D01*
X173916660Y-52478735D01*
X173834472Y-52355732D01*
X173777860Y-52219059D01*
X173749000Y-52073967D01*
X173749000Y-51926033D01*
X173764323Y-51849000D01*
X173777860Y-51780941D01*
X173834471Y-51644270D01*
X173834472Y-51644268D01*
X173916660Y-51521265D01*
X174021265Y-51416660D01*
X174144268Y-51334472D01*
X174220707Y-51302810D01*
X174280941Y-51277860D01*
X174426032Y-51249000D01*
X174573968Y-51249000D01*
X174719059Y-51277860D01*
X174719059Y-51277860D01*
G37*
M02*
