M48
; DRILL file {KiCad (5.1.4-0-10_14)} date 2020 August 12, Wednesday 15:57:56
; FORMAT={-:-/ absolute / metric / decimal}
; #@! TF.CreationDate,2020-08-12T15:57:56+02:00
; #@! TF.GenerationSoftware,Kicad,Pcbnew,(5.1.4-0-10_14)
; #@! TF.FileFunction,Plated,1,2,PTH
FMAT,2
METRIC
T1C0.400
T2C0.700
T3C0.800
T4C0.900
T5C1.000
T6C1.100
T7C1.220
T8C1.420
T9C1.430
T10C1.700
T11C2.000
%
G90
G05
T1
X162.8Y-113.2
X180.05Y-102.8
T2
X125.18Y-87.0
X132.8Y-87.0
X125.2Y-90.4
X132.82Y-90.4
X185.58Y-70.3
X193.2Y-70.3
X185.58Y-77.9
X193.2Y-77.9
X163.75Y-85.13
X163.75Y-92.75
X185.58Y-74.2
X193.2Y-74.2
X166.55Y-110.9
X166.55Y-118.52
X185.8Y-95.95
X193.42Y-95.95
X197.7Y-123.58
X197.7Y-131.2
X180.93Y-105.6
X188.55Y-105.6
X138.2Y-124.08
X138.2Y-131.7
X159.45Y-85.1
X159.45Y-92.72
X102.3Y-76.3
X109.92Y-76.3
X170.5Y-122.5
X178.12Y-122.5
X155.15Y-85.1
X155.15Y-92.72
X193.45Y-98.73
X193.45Y-106.35
X102.38Y-96.35
X110.0Y-96.35
X102.48Y-100.45
X110.1Y-100.45
X102.23Y-80.15
X109.85Y-80.15
X102.2Y-72.45
X109.82Y-72.45
T3
X131.8Y-60.2
X131.8Y-65.2
X142.3Y-124.25
X142.3Y-129.25
X126.6Y-118.8
X134.22Y-121.34
X134.22Y-126.42
X146.38Y-115.1
X154.0Y-115.1
X151.64Y-69.0
X161.8Y-69.0
X126.6Y-121.34
X119.4Y-116.15
X119.4Y-121.15
X126.6Y-123.88
X126.6Y-126.42
X134.22Y-118.8
X134.22Y-123.88
X131.7Y-52.1
X131.7Y-57.1
X113.8Y-82.45
X113.8Y-84.99
X113.8Y-87.53
X170.3Y-60.45
X170.3Y-65.45
X113.8Y-90.07
X121.42Y-82.45
X121.42Y-84.99
X121.42Y-90.07
X120.0Y-96.4
X132.4Y-70.4
X132.4Y-72.9
X146.38Y-111.35
X154.0Y-111.35
X121.42Y-87.53
X115.0Y-96.4
X138.25Y-53.5
X138.25Y-56.0
X169.8Y-110.78
X172.34Y-110.78
X174.88Y-110.78
X177.42Y-110.78
X179.96Y-118.4
X182.5Y-118.4
X185.04Y-118.4
X187.58Y-118.4
X161.75Y-53.5
X161.75Y-56.0
X172.34Y-118.4
X174.88Y-118.4
X177.42Y-118.4
X179.96Y-110.78
X182.5Y-110.78
X185.04Y-110.78
X113.25Y-72.6
X118.25Y-72.6
X170.25Y-57.75
X169.8Y-118.4
X187.58Y-110.78
X170.25Y-52.75
X197.7Y-110.65
X197.7Y-118.27
X193.5Y-110.65
X177.6Y-84.18
X180.14Y-84.18
X185.22Y-84.18
X185.22Y-91.8
X187.76Y-91.8
X190.3Y-91.8
X192.84Y-91.8
X177.0Y-74.2
X182.0Y-74.2
X167.4Y-70.0
X177.6Y-91.8
X180.14Y-91.8
X182.68Y-91.8
X187.76Y-84.18
X190.3Y-84.18
X192.84Y-84.18
X167.4Y-72.5
X138.04Y-69.0
X148.2Y-69.0
X193.5Y-118.27
X182.68Y-84.18
T4
X148.66Y-90.4
X151.2Y-90.4
T5
X147.5Y-107.75
X150.0Y-107.75
X152.5Y-107.75
X121.52Y-52.65
X124.06Y-52.65
X126.6Y-52.65
X141.25Y-75.81
X141.25Y-78.35
X143.79Y-75.81
X143.79Y-78.35
X146.33Y-75.81
X146.33Y-78.35
X148.87Y-75.81
X148.87Y-78.35
X151.41Y-75.81
X151.41Y-78.35
X153.95Y-75.81
X153.95Y-78.35
X156.49Y-75.81
X156.49Y-78.35
X159.03Y-75.81
X159.03Y-78.35
T6
X136.6Y-65.0
X139.14Y-65.0
X141.68Y-65.0
X158.6Y-65.2
X161.14Y-65.2
X163.68Y-65.2
T7
X150.15Y-120.05
X130.0Y-131.0
X169.4Y-131.0
T8
X150.15Y-123.15
X169.4Y-134.1
X130.0Y-134.1
T9
X150.15Y-131.45
X130.0Y-142.4
X169.4Y-142.4
T10
X187.8Y-138.2
X112.25Y-58.65
X112.25Y-137.7
X187.75Y-58.65
T11
X182.65Y-139.8
X192.95Y-139.8
X117.4Y-60.25
X107.1Y-139.3
X117.4Y-139.3
X107.1Y-60.25
X182.6Y-60.25
X192.9Y-60.25
T5
G00X151.0Y-60.25
M15
G01X149.0Y-60.25
M16
G05
G00X145.3Y-56.25
M15
G01X145.3Y-58.25
M16
G05
G00X151.0Y-54.25
M15
G01X149.0Y-54.25
M16
G05
T0
M30
