G04 #@! TF.GenerationSoftware,KiCad,Pcbnew,(5.1.4-0-10_14)*
G04 #@! TF.CreationDate,2020-06-13T19:10:01+02:00*
G04 #@! TF.ProjectId,Sync-Ope-proto,53796e63-2d4f-4706-952d-70726f746f2e,0.2*
G04 #@! TF.SameCoordinates,Original*
G04 #@! TF.FileFunction,Legend,Top*
G04 #@! TF.FilePolarity,Positive*
%FSLAX46Y46*%
G04 Gerber Fmt 4.6, Leading zero omitted, Abs format (unit mm)*
G04 Created by KiCad (PCBNEW (5.1.4-0-10_14)) date 2020-06-13 19:10:01*
%MOMM*%
%LPD*%
G04 APERTURE LIST*
%ADD10C,0.120000*%
%ADD11C,0.150000*%
%ADD12C,0.400000*%
%ADD13C,0.127000*%
%ADD14C,0.200000*%
G04 APERTURE END LIST*
D10*
X147550000Y-92500000D02*
X151450000Y-90450000D01*
X147550000Y-88200000D02*
X147550000Y-92500000D01*
X151550000Y-90350000D02*
X147550000Y-88200000D01*
X151550000Y-87600000D02*
X151550000Y-93250000D01*
X152700000Y-74550000D02*
X152700000Y-79550000D01*
X150200000Y-74500000D02*
X150200000Y-79600000D01*
X142650000Y-74500000D02*
X142650000Y-79600000D01*
D11*
X176321428Y-147678571D02*
X176821428Y-149178571D01*
X177321428Y-147678571D01*
X177821428Y-149178571D02*
X177821428Y-147678571D01*
X178535714Y-149178571D02*
X178535714Y-147678571D01*
X178892857Y-147678571D01*
X179107142Y-147750000D01*
X179250000Y-147892857D01*
X179321428Y-148035714D01*
X179392857Y-148321428D01*
X179392857Y-148535714D01*
X179321428Y-148821428D01*
X179250000Y-148964285D01*
X179107142Y-149107142D01*
X178892857Y-149178571D01*
X178535714Y-149178571D01*
X180035714Y-148392857D02*
X180535714Y-148392857D01*
X180750000Y-149178571D02*
X180035714Y-149178571D01*
X180035714Y-147678571D01*
X180750000Y-147678571D01*
X181678571Y-147678571D02*
X181964285Y-147678571D01*
X182107142Y-147750000D01*
X182250000Y-147892857D01*
X182321428Y-148178571D01*
X182321428Y-148678571D01*
X182250000Y-148964285D01*
X182107142Y-149107142D01*
X181964285Y-149178571D01*
X181678571Y-149178571D01*
X181535714Y-149107142D01*
X181392857Y-148964285D01*
X181321428Y-148678571D01*
X181321428Y-148178571D01*
X181392857Y-147892857D01*
X181535714Y-147750000D01*
X181678571Y-147678571D01*
X182607142Y-149321428D02*
X183750000Y-149321428D01*
X184964285Y-149178571D02*
X184464285Y-148464285D01*
X184107142Y-149178571D02*
X184107142Y-147678571D01*
X184678571Y-147678571D01*
X184821428Y-147750000D01*
X184892857Y-147821428D01*
X184964285Y-147964285D01*
X184964285Y-148178571D01*
X184892857Y-148321428D01*
X184821428Y-148392857D01*
X184678571Y-148464285D01*
X184107142Y-148464285D01*
X185607142Y-148392857D02*
X186107142Y-148392857D01*
X186321428Y-149178571D02*
X185607142Y-149178571D01*
X185607142Y-147678571D01*
X186321428Y-147678571D01*
X187821428Y-149035714D02*
X187750000Y-149107142D01*
X187535714Y-149178571D01*
X187392857Y-149178571D01*
X187178571Y-149107142D01*
X187035714Y-148964285D01*
X186964285Y-148821428D01*
X186892857Y-148535714D01*
X186892857Y-148321428D01*
X186964285Y-148035714D01*
X187035714Y-147892857D01*
X187178571Y-147750000D01*
X187392857Y-147678571D01*
X187535714Y-147678571D01*
X187750000Y-147750000D01*
X187821428Y-147821428D01*
X188464285Y-148392857D02*
X188964285Y-148392857D01*
X189178571Y-149178571D02*
X188464285Y-149178571D01*
X188464285Y-147678571D01*
X189178571Y-147678571D01*
X189821428Y-149178571D02*
X189821428Y-147678571D01*
X190321428Y-147678571D02*
X190821428Y-149178571D01*
X191321428Y-147678571D01*
X191821428Y-148392857D02*
X192321428Y-148392857D01*
X192535714Y-149178571D02*
X191821428Y-149178571D01*
X191821428Y-147678571D01*
X192535714Y-147678571D01*
X181714285Y-50928571D02*
X182214285Y-52428571D01*
X182714285Y-50928571D01*
X183214285Y-52428571D02*
X183214285Y-50928571D01*
X183928571Y-52428571D02*
X183928571Y-50928571D01*
X184285714Y-50928571D01*
X184500000Y-51000000D01*
X184642857Y-51142857D01*
X184714285Y-51285714D01*
X184785714Y-51571428D01*
X184785714Y-51785714D01*
X184714285Y-52071428D01*
X184642857Y-52214285D01*
X184500000Y-52357142D01*
X184285714Y-52428571D01*
X183928571Y-52428571D01*
X185428571Y-51642857D02*
X185928571Y-51642857D01*
X186142857Y-52428571D02*
X185428571Y-52428571D01*
X185428571Y-50928571D01*
X186142857Y-50928571D01*
X187071428Y-50928571D02*
X187357142Y-50928571D01*
X187500000Y-51000000D01*
X187642857Y-51142857D01*
X187714285Y-51428571D01*
X187714285Y-51928571D01*
X187642857Y-52214285D01*
X187500000Y-52357142D01*
X187357142Y-52428571D01*
X187071428Y-52428571D01*
X186928571Y-52357142D01*
X186785714Y-52214285D01*
X186714285Y-51928571D01*
X186714285Y-51428571D01*
X186785714Y-51142857D01*
X186928571Y-51000000D01*
X187071428Y-50928571D01*
X188000000Y-52571428D02*
X189142857Y-52571428D01*
X189785714Y-50928571D02*
X190071428Y-50928571D01*
X190214285Y-51000000D01*
X190357142Y-51142857D01*
X190428571Y-51428571D01*
X190428571Y-51928571D01*
X190357142Y-52214285D01*
X190214285Y-52357142D01*
X190071428Y-52428571D01*
X189785714Y-52428571D01*
X189642857Y-52357142D01*
X189500000Y-52214285D01*
X189428571Y-51928571D01*
X189428571Y-51428571D01*
X189500000Y-51142857D01*
X189642857Y-51000000D01*
X189785714Y-50928571D01*
X191071428Y-50928571D02*
X191071428Y-52142857D01*
X191142857Y-52285714D01*
X191214285Y-52357142D01*
X191357142Y-52428571D01*
X191642857Y-52428571D01*
X191785714Y-52357142D01*
X191857142Y-52285714D01*
X191928571Y-52142857D01*
X191928571Y-50928571D01*
X192428571Y-50928571D02*
X193285714Y-50928571D01*
X192857142Y-52428571D02*
X192857142Y-50928571D01*
X107214285Y-51428571D02*
X107714285Y-52928571D01*
X108214285Y-51428571D01*
X108714285Y-52928571D02*
X108714285Y-51428571D01*
X109428571Y-52928571D02*
X109428571Y-51428571D01*
X109785714Y-51428571D01*
X110000000Y-51500000D01*
X110142857Y-51642857D01*
X110214285Y-51785714D01*
X110285714Y-52071428D01*
X110285714Y-52285714D01*
X110214285Y-52571428D01*
X110142857Y-52714285D01*
X110000000Y-52857142D01*
X109785714Y-52928571D01*
X109428571Y-52928571D01*
X110928571Y-52142857D02*
X111428571Y-52142857D01*
X111642857Y-52928571D02*
X110928571Y-52928571D01*
X110928571Y-51428571D01*
X111642857Y-51428571D01*
X112571428Y-51428571D02*
X112857142Y-51428571D01*
X113000000Y-51500000D01*
X113142857Y-51642857D01*
X113214285Y-51928571D01*
X113214285Y-52428571D01*
X113142857Y-52714285D01*
X113000000Y-52857142D01*
X112857142Y-52928571D01*
X112571428Y-52928571D01*
X112428571Y-52857142D01*
X112285714Y-52714285D01*
X112214285Y-52428571D01*
X112214285Y-51928571D01*
X112285714Y-51642857D01*
X112428571Y-51500000D01*
X112571428Y-51428571D01*
X113500000Y-53071428D02*
X114642857Y-53071428D01*
X115000000Y-52928571D02*
X115000000Y-51428571D01*
X115714285Y-52928571D02*
X115714285Y-51428571D01*
X116571428Y-52928571D01*
X116571428Y-51428571D01*
X107928571Y-147178571D02*
X108428571Y-148678571D01*
X108928571Y-147178571D01*
X109428571Y-148678571D02*
X109428571Y-147178571D01*
X110142857Y-148678571D02*
X110142857Y-147178571D01*
X110500000Y-147178571D01*
X110714285Y-147250000D01*
X110857142Y-147392857D01*
X110928571Y-147535714D01*
X111000000Y-147821428D01*
X111000000Y-148035714D01*
X110928571Y-148321428D01*
X110857142Y-148464285D01*
X110714285Y-148607142D01*
X110500000Y-148678571D01*
X110142857Y-148678571D01*
X111642857Y-147892857D02*
X112142857Y-147892857D01*
X112357142Y-148678571D02*
X111642857Y-148678571D01*
X111642857Y-147178571D01*
X112357142Y-147178571D01*
X113285714Y-147178571D02*
X113571428Y-147178571D01*
X113714285Y-147250000D01*
X113857142Y-147392857D01*
X113928571Y-147678571D01*
X113928571Y-148178571D01*
X113857142Y-148464285D01*
X113714285Y-148607142D01*
X113571428Y-148678571D01*
X113285714Y-148678571D01*
X113142857Y-148607142D01*
X113000000Y-148464285D01*
X112928571Y-148178571D01*
X112928571Y-147678571D01*
X113000000Y-147392857D01*
X113142857Y-147250000D01*
X113285714Y-147178571D01*
X114214285Y-148821428D02*
X115357142Y-148821428D01*
X115642857Y-148607142D02*
X115857142Y-148678571D01*
X116214285Y-148678571D01*
X116357142Y-148607142D01*
X116428571Y-148535714D01*
X116500000Y-148392857D01*
X116500000Y-148250000D01*
X116428571Y-148107142D01*
X116357142Y-148035714D01*
X116214285Y-147964285D01*
X115928571Y-147892857D01*
X115785714Y-147821428D01*
X115714285Y-147750000D01*
X115642857Y-147607142D01*
X115642857Y-147464285D01*
X115714285Y-147321428D01*
X115785714Y-147250000D01*
X115928571Y-147178571D01*
X116285714Y-147178571D01*
X116500000Y-147250000D01*
X117142857Y-147892857D02*
X117642857Y-147892857D01*
X117857142Y-148678571D02*
X117142857Y-148678571D01*
X117142857Y-147178571D01*
X117857142Y-147178571D01*
X118500000Y-148678571D02*
X118500000Y-147178571D01*
X119357142Y-148678571D01*
X119357142Y-147178571D01*
X120071428Y-148678571D02*
X120071428Y-147178571D01*
X120428571Y-147178571D01*
X120642857Y-147250000D01*
X120785714Y-147392857D01*
X120857142Y-147535714D01*
X120928571Y-147821428D01*
X120928571Y-148035714D01*
X120857142Y-148321428D01*
X120785714Y-148464285D01*
X120642857Y-148607142D01*
X120428571Y-148678571D01*
X120071428Y-148678571D01*
X138214285Y-143734523D02*
X138500000Y-143829761D01*
X138976190Y-143829761D01*
X139166666Y-143734523D01*
X139261904Y-143639285D01*
X139357142Y-143448809D01*
X139357142Y-143258333D01*
X139261904Y-143067857D01*
X139166666Y-142972619D01*
X138976190Y-142877380D01*
X138595238Y-142782142D01*
X138404761Y-142686904D01*
X138309523Y-142591666D01*
X138214285Y-142401190D01*
X138214285Y-142210714D01*
X138309523Y-142020238D01*
X138404761Y-141925000D01*
X138595238Y-141829761D01*
X139071428Y-141829761D01*
X139357142Y-141925000D01*
X140023809Y-142496428D02*
X140500000Y-143829761D01*
X140976190Y-142496428D02*
X140500000Y-143829761D01*
X140309523Y-144305952D01*
X140214285Y-144401190D01*
X140023809Y-144496428D01*
X141738095Y-142496428D02*
X141738095Y-143829761D01*
X141738095Y-142686904D02*
X141833333Y-142591666D01*
X142023809Y-142496428D01*
X142309523Y-142496428D01*
X142500000Y-142591666D01*
X142595238Y-142782142D01*
X142595238Y-143829761D01*
X144404761Y-143734523D02*
X144214285Y-143829761D01*
X143833333Y-143829761D01*
X143642857Y-143734523D01*
X143547619Y-143639285D01*
X143452380Y-143448809D01*
X143452380Y-142877380D01*
X143547619Y-142686904D01*
X143642857Y-142591666D01*
X143833333Y-142496428D01*
X144214285Y-142496428D01*
X144404761Y-142591666D01*
X145261904Y-143067857D02*
X146785714Y-143067857D01*
X148119047Y-141829761D02*
X148500000Y-141829761D01*
X148690476Y-141925000D01*
X148880952Y-142115476D01*
X148976190Y-142496428D01*
X148976190Y-143163095D01*
X148880952Y-143544047D01*
X148690476Y-143734523D01*
X148500000Y-143829761D01*
X148119047Y-143829761D01*
X147928571Y-143734523D01*
X147738095Y-143544047D01*
X147642857Y-143163095D01*
X147642857Y-142496428D01*
X147738095Y-142115476D01*
X147928571Y-141925000D01*
X148119047Y-141829761D01*
X149833333Y-142496428D02*
X149833333Y-144496428D01*
X149833333Y-142591666D02*
X150023809Y-142496428D01*
X150404761Y-142496428D01*
X150595238Y-142591666D01*
X150690476Y-142686904D01*
X150785714Y-142877380D01*
X150785714Y-143448809D01*
X150690476Y-143639285D01*
X150595238Y-143734523D01*
X150404761Y-143829761D01*
X150023809Y-143829761D01*
X149833333Y-143734523D01*
X152404761Y-143734523D02*
X152214285Y-143829761D01*
X151833333Y-143829761D01*
X151642857Y-143734523D01*
X151547619Y-143544047D01*
X151547619Y-142782142D01*
X151642857Y-142591666D01*
X151833333Y-142496428D01*
X152214285Y-142496428D01*
X152404761Y-142591666D01*
X152500000Y-142782142D01*
X152500000Y-142972619D01*
X151547619Y-143163095D01*
X155261904Y-141829761D02*
X155452380Y-141829761D01*
X155642857Y-141925000D01*
X155738095Y-142020238D01*
X155833333Y-142210714D01*
X155928571Y-142591666D01*
X155928571Y-143067857D01*
X155833333Y-143448809D01*
X155738095Y-143639285D01*
X155642857Y-143734523D01*
X155452380Y-143829761D01*
X155261904Y-143829761D01*
X155071428Y-143734523D01*
X154976190Y-143639285D01*
X154880952Y-143448809D01*
X154785714Y-143067857D01*
X154785714Y-142591666D01*
X154880952Y-142210714D01*
X154976190Y-142020238D01*
X155071428Y-141925000D01*
X155261904Y-141829761D01*
X156785714Y-143639285D02*
X156880952Y-143734523D01*
X156785714Y-143829761D01*
X156690476Y-143734523D01*
X156785714Y-143639285D01*
X156785714Y-143829761D01*
X157642857Y-142020238D02*
X157738095Y-141925000D01*
X157928571Y-141829761D01*
X158404761Y-141829761D01*
X158595238Y-141925000D01*
X158690476Y-142020238D01*
X158785714Y-142210714D01*
X158785714Y-142401190D01*
X158690476Y-142686904D01*
X157547619Y-143829761D01*
X158785714Y-143829761D01*
X129738095Y-145075000D02*
X129547619Y-144979761D01*
X129261904Y-144979761D01*
X128976190Y-145075000D01*
X128785714Y-145265476D01*
X128690476Y-145455952D01*
X128595238Y-145836904D01*
X128595238Y-146122619D01*
X128690476Y-146503571D01*
X128785714Y-146694047D01*
X128976190Y-146884523D01*
X129261904Y-146979761D01*
X129452380Y-146979761D01*
X129738095Y-146884523D01*
X129833333Y-146789285D01*
X129833333Y-146122619D01*
X129452380Y-146122619D01*
X131547619Y-146979761D02*
X131547619Y-145932142D01*
X131452380Y-145741666D01*
X131261904Y-145646428D01*
X130880952Y-145646428D01*
X130690476Y-145741666D01*
X131547619Y-146884523D02*
X131357142Y-146979761D01*
X130880952Y-146979761D01*
X130690476Y-146884523D01*
X130595238Y-146694047D01*
X130595238Y-146503571D01*
X130690476Y-146313095D01*
X130880952Y-146217857D01*
X131357142Y-146217857D01*
X131547619Y-146122619D01*
X133261904Y-146884523D02*
X133071428Y-146979761D01*
X132690476Y-146979761D01*
X132500000Y-146884523D01*
X132404761Y-146694047D01*
X132404761Y-145932142D01*
X132500000Y-145741666D01*
X132690476Y-145646428D01*
X133071428Y-145646428D01*
X133261904Y-145741666D01*
X133357142Y-145932142D01*
X133357142Y-146122619D01*
X132404761Y-146313095D01*
X132500000Y-144979761D02*
X132595238Y-145075000D01*
X132500000Y-145170238D01*
X132404761Y-145075000D01*
X132500000Y-144979761D01*
X132500000Y-145170238D01*
X133261904Y-144979761D02*
X133357142Y-145075000D01*
X133261904Y-145170238D01*
X133166666Y-145075000D01*
X133261904Y-144979761D01*
X133261904Y-145170238D01*
X134500000Y-146979761D02*
X134309523Y-146884523D01*
X134214285Y-146694047D01*
X134214285Y-144979761D01*
X137357142Y-144979761D02*
X137357142Y-146408333D01*
X137261904Y-146694047D01*
X137071428Y-146884523D01*
X136785714Y-146979761D01*
X136595238Y-146979761D01*
X139166666Y-146979761D02*
X139166666Y-145932142D01*
X139071428Y-145741666D01*
X138880952Y-145646428D01*
X138500000Y-145646428D01*
X138309523Y-145741666D01*
X139166666Y-146884523D02*
X138976190Y-146979761D01*
X138500000Y-146979761D01*
X138309523Y-146884523D01*
X138214285Y-146694047D01*
X138214285Y-146503571D01*
X138309523Y-146313095D01*
X138500000Y-146217857D01*
X138976190Y-146217857D01*
X139166666Y-146122619D01*
X139833333Y-145646428D02*
X140595238Y-145646428D01*
X140119047Y-144979761D02*
X140119047Y-146694047D01*
X140214285Y-146884523D01*
X140404761Y-146979761D01*
X140595238Y-146979761D01*
X141547619Y-146979761D02*
X141357142Y-146884523D01*
X141261904Y-146789285D01*
X141166666Y-146598809D01*
X141166666Y-146027380D01*
X141261904Y-145836904D01*
X141357142Y-145741666D01*
X141547619Y-145646428D01*
X141833333Y-145646428D01*
X142023809Y-145741666D01*
X142119047Y-145836904D01*
X142214285Y-146027380D01*
X142214285Y-146598809D01*
X142119047Y-146789285D01*
X142023809Y-146884523D01*
X141833333Y-146979761D01*
X141547619Y-146979761D01*
X143071428Y-145646428D02*
X143071428Y-146979761D01*
X143071428Y-145836904D02*
X143166666Y-145741666D01*
X143357142Y-145646428D01*
X143642857Y-145646428D01*
X143833333Y-145741666D01*
X143928571Y-145932142D01*
X143928571Y-146979761D01*
X148023809Y-146979761D02*
X147928571Y-146979761D01*
X147738095Y-146884523D01*
X147452380Y-146598809D01*
X146976190Y-146027380D01*
X146785714Y-145741666D01*
X146690476Y-145455952D01*
X146690476Y-145265476D01*
X146785714Y-145075000D01*
X146976190Y-144979761D01*
X147071428Y-144979761D01*
X147261904Y-145075000D01*
X147357142Y-145265476D01*
X147357142Y-145360714D01*
X147261904Y-145551190D01*
X147166666Y-145646428D01*
X146595238Y-146027380D01*
X146500000Y-146122619D01*
X146404761Y-146313095D01*
X146404761Y-146598809D01*
X146500000Y-146789285D01*
X146595238Y-146884523D01*
X146785714Y-146979761D01*
X147071428Y-146979761D01*
X147261904Y-146884523D01*
X147357142Y-146789285D01*
X147642857Y-146408333D01*
X147738095Y-146122619D01*
X147738095Y-145932142D01*
X151261904Y-146884523D02*
X151071428Y-146979761D01*
X150690476Y-146979761D01*
X150500000Y-146884523D01*
X150404761Y-146789285D01*
X150309523Y-146598809D01*
X150309523Y-146027380D01*
X150404761Y-145836904D01*
X150500000Y-145741666D01*
X150690476Y-145646428D01*
X151071428Y-145646428D01*
X151261904Y-145741666D01*
X151928571Y-145646428D02*
X152404761Y-146979761D01*
X152880952Y-145646428D02*
X152404761Y-146979761D01*
X152214285Y-147455952D01*
X152119047Y-147551190D01*
X151928571Y-147646428D01*
X153642857Y-146979761D02*
X153642857Y-144979761D01*
X153642857Y-145741666D02*
X153833333Y-145646428D01*
X154214285Y-145646428D01*
X154404761Y-145741666D01*
X154500000Y-145836904D01*
X154595238Y-146027380D01*
X154595238Y-146598809D01*
X154500000Y-146789285D01*
X154404761Y-146884523D01*
X154214285Y-146979761D01*
X153833333Y-146979761D01*
X153642857Y-146884523D01*
X156214285Y-146884523D02*
X156023809Y-146979761D01*
X155642857Y-146979761D01*
X155452380Y-146884523D01*
X155357142Y-146694047D01*
X155357142Y-145932142D01*
X155452380Y-145741666D01*
X155642857Y-145646428D01*
X156023809Y-145646428D01*
X156214285Y-145741666D01*
X156309523Y-145932142D01*
X156309523Y-146122619D01*
X155357142Y-146313095D01*
X157166666Y-146979761D02*
X157166666Y-145646428D01*
X157166666Y-146027380D02*
X157261904Y-145836904D01*
X157357142Y-145741666D01*
X157547619Y-145646428D01*
X157738095Y-145646428D01*
X158404761Y-146979761D02*
X158404761Y-144979761D01*
X158404761Y-145741666D02*
X158595238Y-145646428D01*
X158976190Y-145646428D01*
X159166666Y-145741666D01*
X159261904Y-145836904D01*
X159357142Y-146027380D01*
X159357142Y-146598809D01*
X159261904Y-146789285D01*
X159166666Y-146884523D01*
X158976190Y-146979761D01*
X158595238Y-146979761D01*
X158404761Y-146884523D01*
X160500000Y-146979761D02*
X160309523Y-146884523D01*
X160214285Y-146789285D01*
X160119047Y-146598809D01*
X160119047Y-146027380D01*
X160214285Y-145836904D01*
X160309523Y-145741666D01*
X160500000Y-145646428D01*
X160785714Y-145646428D01*
X160976190Y-145741666D01*
X161071428Y-145836904D01*
X161166666Y-146027380D01*
X161166666Y-146598809D01*
X161071428Y-146789285D01*
X160976190Y-146884523D01*
X160785714Y-146979761D01*
X160500000Y-146979761D01*
X161833333Y-145646428D02*
X162309523Y-146979761D01*
X162785714Y-145646428D02*
X162309523Y-146979761D01*
X162119047Y-147455952D01*
X162023809Y-147551190D01*
X161833333Y-147646428D01*
X164404761Y-144979761D02*
X164023809Y-144979761D01*
X163833333Y-145075000D01*
X163738095Y-145170238D01*
X163547619Y-145455952D01*
X163452380Y-145836904D01*
X163452380Y-146598809D01*
X163547619Y-146789285D01*
X163642857Y-146884523D01*
X163833333Y-146979761D01*
X164214285Y-146979761D01*
X164404761Y-146884523D01*
X164500000Y-146789285D01*
X164595238Y-146598809D01*
X164595238Y-146122619D01*
X164500000Y-145932142D01*
X164404761Y-145836904D01*
X164214285Y-145741666D01*
X163833333Y-145741666D01*
X163642857Y-145836904D01*
X163547619Y-145932142D01*
X163452380Y-146122619D01*
X166309523Y-144979761D02*
X165928571Y-144979761D01*
X165738095Y-145075000D01*
X165642857Y-145170238D01*
X165452380Y-145455952D01*
X165357142Y-145836904D01*
X165357142Y-146598809D01*
X165452380Y-146789285D01*
X165547619Y-146884523D01*
X165738095Y-146979761D01*
X166119047Y-146979761D01*
X166309523Y-146884523D01*
X166404761Y-146789285D01*
X166500000Y-146598809D01*
X166500000Y-146122619D01*
X166404761Y-145932142D01*
X166309523Y-145836904D01*
X166119047Y-145741666D01*
X165738095Y-145741666D01*
X165547619Y-145836904D01*
X165452380Y-145932142D01*
X165357142Y-146122619D01*
X168214285Y-144979761D02*
X167833333Y-144979761D01*
X167642857Y-145075000D01*
X167547619Y-145170238D01*
X167357142Y-145455952D01*
X167261904Y-145836904D01*
X167261904Y-146598809D01*
X167357142Y-146789285D01*
X167452380Y-146884523D01*
X167642857Y-146979761D01*
X168023809Y-146979761D01*
X168214285Y-146884523D01*
X168309523Y-146789285D01*
X168404761Y-146598809D01*
X168404761Y-146122619D01*
X168309523Y-145932142D01*
X168214285Y-145836904D01*
X168023809Y-145741666D01*
X167642857Y-145741666D01*
X167452380Y-145836904D01*
X167357142Y-145932142D01*
X167261904Y-146122619D01*
D10*
X118020000Y-73670000D02*
X113480000Y-73670000D01*
X118020000Y-71530000D02*
X113480000Y-71530000D01*
X118020000Y-73670000D02*
X118020000Y-73655000D01*
X118020000Y-71545000D02*
X118020000Y-71530000D01*
X113480000Y-73670000D02*
X113480000Y-73655000D01*
X113480000Y-71545000D02*
X113480000Y-71530000D01*
X115230000Y-95345000D02*
X115230000Y-95330000D01*
X115230000Y-97470000D02*
X115230000Y-97455000D01*
X119770000Y-95345000D02*
X119770000Y-95330000D01*
X119770000Y-97470000D02*
X119770000Y-97455000D01*
X119770000Y-95330000D02*
X115230000Y-95330000D01*
X119770000Y-97470000D02*
X115230000Y-97470000D01*
X118330000Y-120920000D02*
X118330000Y-116380000D01*
X120470000Y-120920000D02*
X120470000Y-116380000D01*
X118330000Y-120920000D02*
X118345000Y-120920000D01*
X120455000Y-120920000D02*
X120470000Y-120920000D01*
X118330000Y-116380000D02*
X118345000Y-116380000D01*
X120455000Y-116380000D02*
X120470000Y-116380000D01*
X143355000Y-124480000D02*
X143370000Y-124480000D01*
X141230000Y-124480000D02*
X141245000Y-124480000D01*
X143355000Y-129020000D02*
X143370000Y-129020000D01*
X141230000Y-129020000D02*
X141245000Y-129020000D01*
X143370000Y-129020000D02*
X143370000Y-124480000D01*
X141230000Y-129020000D02*
X141230000Y-124480000D01*
X181770000Y-75270000D02*
X177230000Y-75270000D01*
X181770000Y-73130000D02*
X177230000Y-73130000D01*
X181770000Y-75270000D02*
X181770000Y-75255000D01*
X181770000Y-73145000D02*
X181770000Y-73130000D01*
X177230000Y-75270000D02*
X177230000Y-75255000D01*
X177230000Y-73145000D02*
X177230000Y-73130000D01*
X169195000Y-57520000D02*
X169180000Y-57520000D01*
X171320000Y-57520000D02*
X171305000Y-57520000D01*
X169195000Y-52980000D02*
X169180000Y-52980000D01*
X171320000Y-52980000D02*
X171305000Y-52980000D01*
X169180000Y-52980000D02*
X169180000Y-57520000D01*
X171320000Y-52980000D02*
X171320000Y-57520000D01*
X171370000Y-60680000D02*
X171370000Y-65220000D01*
X169230000Y-60680000D02*
X169230000Y-65220000D01*
X171370000Y-60680000D02*
X171355000Y-60680000D01*
X169245000Y-60680000D02*
X169230000Y-60680000D01*
X171370000Y-65220000D02*
X171355000Y-65220000D01*
X169245000Y-65220000D02*
X169230000Y-65220000D01*
X130645000Y-56870000D02*
X130630000Y-56870000D01*
X132770000Y-56870000D02*
X132755000Y-56870000D01*
X130645000Y-52330000D02*
X130630000Y-52330000D01*
X132770000Y-52330000D02*
X132755000Y-52330000D01*
X130630000Y-52330000D02*
X130630000Y-56870000D01*
X132770000Y-52330000D02*
X132770000Y-56870000D01*
X130730000Y-64970000D02*
X130730000Y-60430000D01*
X132870000Y-64970000D02*
X132870000Y-60430000D01*
X130730000Y-64970000D02*
X130745000Y-64970000D01*
X132855000Y-64970000D02*
X132870000Y-64970000D01*
X130730000Y-60430000D02*
X130745000Y-60430000D01*
X132855000Y-60430000D02*
X132870000Y-60430000D01*
X171270000Y-71250000D02*
G75*
G03X171270000Y-71250000I-3870000J0D01*
G01*
X171230000Y-71250000D02*
X163570000Y-71250000D01*
X171230000Y-71290000D02*
X163570000Y-71290000D01*
X171230000Y-71330000D02*
X163570000Y-71330000D01*
X171229000Y-71370000D02*
X163571000Y-71370000D01*
X171227000Y-71410000D02*
X163573000Y-71410000D01*
X171225000Y-71450000D02*
X163575000Y-71450000D01*
X171223000Y-71490000D02*
X168440000Y-71490000D01*
X166360000Y-71490000D02*
X163577000Y-71490000D01*
X171220000Y-71530000D02*
X168440000Y-71530000D01*
X166360000Y-71530000D02*
X163580000Y-71530000D01*
X171217000Y-71570000D02*
X168440000Y-71570000D01*
X166360000Y-71570000D02*
X163583000Y-71570000D01*
X171214000Y-71610000D02*
X168440000Y-71610000D01*
X166360000Y-71610000D02*
X163586000Y-71610000D01*
X171210000Y-71650000D02*
X168440000Y-71650000D01*
X166360000Y-71650000D02*
X163590000Y-71650000D01*
X171205000Y-71690000D02*
X168440000Y-71690000D01*
X166360000Y-71690000D02*
X163595000Y-71690000D01*
X171201000Y-71730000D02*
X168440000Y-71730000D01*
X166360000Y-71730000D02*
X163599000Y-71730000D01*
X171195000Y-71770000D02*
X168440000Y-71770000D01*
X166360000Y-71770000D02*
X163605000Y-71770000D01*
X171190000Y-71810000D02*
X168440000Y-71810000D01*
X166360000Y-71810000D02*
X163610000Y-71810000D01*
X171184000Y-71850000D02*
X168440000Y-71850000D01*
X166360000Y-71850000D02*
X163616000Y-71850000D01*
X171177000Y-71890000D02*
X168440000Y-71890000D01*
X166360000Y-71890000D02*
X163623000Y-71890000D01*
X171170000Y-71930000D02*
X168440000Y-71930000D01*
X166360000Y-71930000D02*
X163630000Y-71930000D01*
X171163000Y-71971000D02*
X168440000Y-71971000D01*
X166360000Y-71971000D02*
X163637000Y-71971000D01*
X171155000Y-72011000D02*
X168440000Y-72011000D01*
X166360000Y-72011000D02*
X163645000Y-72011000D01*
X171147000Y-72051000D02*
X168440000Y-72051000D01*
X166360000Y-72051000D02*
X163653000Y-72051000D01*
X171138000Y-72091000D02*
X168440000Y-72091000D01*
X166360000Y-72091000D02*
X163662000Y-72091000D01*
X171129000Y-72131000D02*
X168440000Y-72131000D01*
X166360000Y-72131000D02*
X163671000Y-72131000D01*
X171120000Y-72171000D02*
X168440000Y-72171000D01*
X166360000Y-72171000D02*
X163680000Y-72171000D01*
X171110000Y-72211000D02*
X168440000Y-72211000D01*
X166360000Y-72211000D02*
X163690000Y-72211000D01*
X171099000Y-72251000D02*
X168440000Y-72251000D01*
X166360000Y-72251000D02*
X163701000Y-72251000D01*
X171088000Y-72291000D02*
X168440000Y-72291000D01*
X166360000Y-72291000D02*
X163712000Y-72291000D01*
X171077000Y-72331000D02*
X168440000Y-72331000D01*
X166360000Y-72331000D02*
X163723000Y-72331000D01*
X171065000Y-72371000D02*
X168440000Y-72371000D01*
X166360000Y-72371000D02*
X163735000Y-72371000D01*
X171053000Y-72411000D02*
X168440000Y-72411000D01*
X166360000Y-72411000D02*
X163747000Y-72411000D01*
X171040000Y-72451000D02*
X168440000Y-72451000D01*
X166360000Y-72451000D02*
X163760000Y-72451000D01*
X171026000Y-72491000D02*
X168440000Y-72491000D01*
X166360000Y-72491000D02*
X163774000Y-72491000D01*
X171013000Y-72531000D02*
X168440000Y-72531000D01*
X166360000Y-72531000D02*
X163787000Y-72531000D01*
X170998000Y-72571000D02*
X168440000Y-72571000D01*
X166360000Y-72571000D02*
X163802000Y-72571000D01*
X170984000Y-72611000D02*
X168440000Y-72611000D01*
X166360000Y-72611000D02*
X163816000Y-72611000D01*
X170968000Y-72651000D02*
X168440000Y-72651000D01*
X166360000Y-72651000D02*
X163832000Y-72651000D01*
X170953000Y-72691000D02*
X168440000Y-72691000D01*
X166360000Y-72691000D02*
X163847000Y-72691000D01*
X170936000Y-72731000D02*
X168440000Y-72731000D01*
X166360000Y-72731000D02*
X163864000Y-72731000D01*
X170920000Y-72771000D02*
X168440000Y-72771000D01*
X166360000Y-72771000D02*
X163880000Y-72771000D01*
X170902000Y-72811000D02*
X168440000Y-72811000D01*
X166360000Y-72811000D02*
X163898000Y-72811000D01*
X170884000Y-72851000D02*
X168440000Y-72851000D01*
X166360000Y-72851000D02*
X163916000Y-72851000D01*
X170866000Y-72891000D02*
X168440000Y-72891000D01*
X166360000Y-72891000D02*
X163934000Y-72891000D01*
X170847000Y-72931000D02*
X168440000Y-72931000D01*
X166360000Y-72931000D02*
X163953000Y-72931000D01*
X170827000Y-72971000D02*
X168440000Y-72971000D01*
X166360000Y-72971000D02*
X163973000Y-72971000D01*
X170807000Y-73011000D02*
X168440000Y-73011000D01*
X166360000Y-73011000D02*
X163993000Y-73011000D01*
X170786000Y-73051000D02*
X168440000Y-73051000D01*
X166360000Y-73051000D02*
X164014000Y-73051000D01*
X170765000Y-73091000D02*
X168440000Y-73091000D01*
X166360000Y-73091000D02*
X164035000Y-73091000D01*
X170743000Y-73131000D02*
X168440000Y-73131000D01*
X166360000Y-73131000D02*
X164057000Y-73131000D01*
X170721000Y-73171000D02*
X168440000Y-73171000D01*
X166360000Y-73171000D02*
X164079000Y-73171000D01*
X170697000Y-73211000D02*
X168440000Y-73211000D01*
X166360000Y-73211000D02*
X164103000Y-73211000D01*
X170674000Y-73251000D02*
X168440000Y-73251000D01*
X166360000Y-73251000D02*
X164126000Y-73251000D01*
X170649000Y-73291000D02*
X168440000Y-73291000D01*
X166360000Y-73291000D02*
X164151000Y-73291000D01*
X170624000Y-73331000D02*
X168440000Y-73331000D01*
X166360000Y-73331000D02*
X164176000Y-73331000D01*
X170598000Y-73371000D02*
X168440000Y-73371000D01*
X166360000Y-73371000D02*
X164202000Y-73371000D01*
X170572000Y-73411000D02*
X168440000Y-73411000D01*
X166360000Y-73411000D02*
X164228000Y-73411000D01*
X170544000Y-73451000D02*
X168440000Y-73451000D01*
X166360000Y-73451000D02*
X164256000Y-73451000D01*
X170516000Y-73491000D02*
X168440000Y-73491000D01*
X166360000Y-73491000D02*
X164284000Y-73491000D01*
X170488000Y-73531000D02*
X168440000Y-73531000D01*
X166360000Y-73531000D02*
X164312000Y-73531000D01*
X170458000Y-73571000D02*
X164342000Y-73571000D01*
X170428000Y-73611000D02*
X164372000Y-73611000D01*
X170396000Y-73651000D02*
X164404000Y-73651000D01*
X170364000Y-73691000D02*
X164436000Y-73691000D01*
X170331000Y-73731000D02*
X164469000Y-73731000D01*
X170298000Y-73771000D02*
X164502000Y-73771000D01*
X170263000Y-73811000D02*
X164537000Y-73811000D01*
X170227000Y-73851000D02*
X164573000Y-73851000D01*
X170190000Y-73891000D02*
X164610000Y-73891000D01*
X170152000Y-73931000D02*
X164648000Y-73931000D01*
X170113000Y-73971000D02*
X164687000Y-73971000D01*
X170073000Y-74011000D02*
X164727000Y-74011000D01*
X170032000Y-74051000D02*
X164768000Y-74051000D01*
X169989000Y-74091000D02*
X164811000Y-74091000D01*
X169946000Y-74131000D02*
X164854000Y-74131000D01*
X169900000Y-74171000D02*
X164900000Y-74171000D01*
X169854000Y-74211000D02*
X164946000Y-74211000D01*
X169805000Y-74251000D02*
X164995000Y-74251000D01*
X169755000Y-74291000D02*
X165045000Y-74291000D01*
X169704000Y-74331000D02*
X165096000Y-74331000D01*
X169650000Y-74371000D02*
X165150000Y-74371000D01*
X169595000Y-74411000D02*
X165205000Y-74411000D01*
X169537000Y-74451000D02*
X165263000Y-74451000D01*
X169477000Y-74491000D02*
X165323000Y-74491000D01*
X169414000Y-74531000D02*
X165386000Y-74531000D01*
X169349000Y-74571000D02*
X165451000Y-74571000D01*
X169281000Y-74611000D02*
X165519000Y-74611000D01*
X169209000Y-74651000D02*
X165591000Y-74651000D01*
X169133000Y-74691000D02*
X165667000Y-74691000D01*
X169054000Y-74731000D02*
X165746000Y-74731000D01*
X168969000Y-74771000D02*
X165831000Y-74771000D01*
X168878000Y-74811000D02*
X165922000Y-74811000D01*
X168781000Y-74851000D02*
X166019000Y-74851000D01*
X168675000Y-74891000D02*
X166125000Y-74891000D01*
X168558000Y-74931000D02*
X166242000Y-74931000D01*
X168428000Y-74971000D02*
X166372000Y-74971000D01*
X168277000Y-75011000D02*
X166523000Y-75011000D01*
X168093000Y-75051000D02*
X166707000Y-75051000D01*
X167841000Y-75091000D02*
X166959000Y-75091000D01*
X169575000Y-67107789D02*
X169575000Y-67857789D01*
X169950000Y-67482789D02*
X169200000Y-67482789D01*
X134950000Y-67882789D02*
X134200000Y-67882789D01*
X134575000Y-67507789D02*
X134575000Y-68257789D01*
X132841000Y-75491000D02*
X131959000Y-75491000D01*
X133093000Y-75451000D02*
X131707000Y-75451000D01*
X133277000Y-75411000D02*
X131523000Y-75411000D01*
X133428000Y-75371000D02*
X131372000Y-75371000D01*
X133558000Y-75331000D02*
X131242000Y-75331000D01*
X133675000Y-75291000D02*
X131125000Y-75291000D01*
X133781000Y-75251000D02*
X131019000Y-75251000D01*
X133878000Y-75211000D02*
X130922000Y-75211000D01*
X133969000Y-75171000D02*
X130831000Y-75171000D01*
X134054000Y-75131000D02*
X130746000Y-75131000D01*
X134133000Y-75091000D02*
X130667000Y-75091000D01*
X134209000Y-75051000D02*
X130591000Y-75051000D01*
X134281000Y-75011000D02*
X130519000Y-75011000D01*
X134349000Y-74971000D02*
X130451000Y-74971000D01*
X134414000Y-74931000D02*
X130386000Y-74931000D01*
X134477000Y-74891000D02*
X130323000Y-74891000D01*
X134537000Y-74851000D02*
X130263000Y-74851000D01*
X134595000Y-74811000D02*
X130205000Y-74811000D01*
X134650000Y-74771000D02*
X130150000Y-74771000D01*
X134704000Y-74731000D02*
X130096000Y-74731000D01*
X134755000Y-74691000D02*
X130045000Y-74691000D01*
X134805000Y-74651000D02*
X129995000Y-74651000D01*
X134854000Y-74611000D02*
X129946000Y-74611000D01*
X134900000Y-74571000D02*
X129900000Y-74571000D01*
X134946000Y-74531000D02*
X129854000Y-74531000D01*
X134989000Y-74491000D02*
X129811000Y-74491000D01*
X135032000Y-74451000D02*
X129768000Y-74451000D01*
X135073000Y-74411000D02*
X129727000Y-74411000D01*
X135113000Y-74371000D02*
X129687000Y-74371000D01*
X135152000Y-74331000D02*
X129648000Y-74331000D01*
X135190000Y-74291000D02*
X129610000Y-74291000D01*
X135227000Y-74251000D02*
X129573000Y-74251000D01*
X135263000Y-74211000D02*
X129537000Y-74211000D01*
X135298000Y-74171000D02*
X129502000Y-74171000D01*
X135331000Y-74131000D02*
X129469000Y-74131000D01*
X135364000Y-74091000D02*
X129436000Y-74091000D01*
X135396000Y-74051000D02*
X129404000Y-74051000D01*
X135428000Y-74011000D02*
X129372000Y-74011000D01*
X135458000Y-73971000D02*
X129342000Y-73971000D01*
X131360000Y-73931000D02*
X129312000Y-73931000D01*
X135488000Y-73931000D02*
X133440000Y-73931000D01*
X131360000Y-73891000D02*
X129284000Y-73891000D01*
X135516000Y-73891000D02*
X133440000Y-73891000D01*
X131360000Y-73851000D02*
X129256000Y-73851000D01*
X135544000Y-73851000D02*
X133440000Y-73851000D01*
X131360000Y-73811000D02*
X129228000Y-73811000D01*
X135572000Y-73811000D02*
X133440000Y-73811000D01*
X131360000Y-73771000D02*
X129202000Y-73771000D01*
X135598000Y-73771000D02*
X133440000Y-73771000D01*
X131360000Y-73731000D02*
X129176000Y-73731000D01*
X135624000Y-73731000D02*
X133440000Y-73731000D01*
X131360000Y-73691000D02*
X129151000Y-73691000D01*
X135649000Y-73691000D02*
X133440000Y-73691000D01*
X131360000Y-73651000D02*
X129126000Y-73651000D01*
X135674000Y-73651000D02*
X133440000Y-73651000D01*
X131360000Y-73611000D02*
X129103000Y-73611000D01*
X135697000Y-73611000D02*
X133440000Y-73611000D01*
X131360000Y-73571000D02*
X129079000Y-73571000D01*
X135721000Y-73571000D02*
X133440000Y-73571000D01*
X131360000Y-73531000D02*
X129057000Y-73531000D01*
X135743000Y-73531000D02*
X133440000Y-73531000D01*
X131360000Y-73491000D02*
X129035000Y-73491000D01*
X135765000Y-73491000D02*
X133440000Y-73491000D01*
X131360000Y-73451000D02*
X129014000Y-73451000D01*
X135786000Y-73451000D02*
X133440000Y-73451000D01*
X131360000Y-73411000D02*
X128993000Y-73411000D01*
X135807000Y-73411000D02*
X133440000Y-73411000D01*
X131360000Y-73371000D02*
X128973000Y-73371000D01*
X135827000Y-73371000D02*
X133440000Y-73371000D01*
X131360000Y-73331000D02*
X128953000Y-73331000D01*
X135847000Y-73331000D02*
X133440000Y-73331000D01*
X131360000Y-73291000D02*
X128934000Y-73291000D01*
X135866000Y-73291000D02*
X133440000Y-73291000D01*
X131360000Y-73251000D02*
X128916000Y-73251000D01*
X135884000Y-73251000D02*
X133440000Y-73251000D01*
X131360000Y-73211000D02*
X128898000Y-73211000D01*
X135902000Y-73211000D02*
X133440000Y-73211000D01*
X131360000Y-73171000D02*
X128880000Y-73171000D01*
X135920000Y-73171000D02*
X133440000Y-73171000D01*
X131360000Y-73131000D02*
X128864000Y-73131000D01*
X135936000Y-73131000D02*
X133440000Y-73131000D01*
X131360000Y-73091000D02*
X128847000Y-73091000D01*
X135953000Y-73091000D02*
X133440000Y-73091000D01*
X131360000Y-73051000D02*
X128832000Y-73051000D01*
X135968000Y-73051000D02*
X133440000Y-73051000D01*
X131360000Y-73011000D02*
X128816000Y-73011000D01*
X135984000Y-73011000D02*
X133440000Y-73011000D01*
X131360000Y-72971000D02*
X128802000Y-72971000D01*
X135998000Y-72971000D02*
X133440000Y-72971000D01*
X131360000Y-72931000D02*
X128787000Y-72931000D01*
X136013000Y-72931000D02*
X133440000Y-72931000D01*
X131360000Y-72891000D02*
X128774000Y-72891000D01*
X136026000Y-72891000D02*
X133440000Y-72891000D01*
X131360000Y-72851000D02*
X128760000Y-72851000D01*
X136040000Y-72851000D02*
X133440000Y-72851000D01*
X131360000Y-72811000D02*
X128747000Y-72811000D01*
X136053000Y-72811000D02*
X133440000Y-72811000D01*
X131360000Y-72771000D02*
X128735000Y-72771000D01*
X136065000Y-72771000D02*
X133440000Y-72771000D01*
X131360000Y-72731000D02*
X128723000Y-72731000D01*
X136077000Y-72731000D02*
X133440000Y-72731000D01*
X131360000Y-72691000D02*
X128712000Y-72691000D01*
X136088000Y-72691000D02*
X133440000Y-72691000D01*
X131360000Y-72651000D02*
X128701000Y-72651000D01*
X136099000Y-72651000D02*
X133440000Y-72651000D01*
X131360000Y-72611000D02*
X128690000Y-72611000D01*
X136110000Y-72611000D02*
X133440000Y-72611000D01*
X131360000Y-72571000D02*
X128680000Y-72571000D01*
X136120000Y-72571000D02*
X133440000Y-72571000D01*
X131360000Y-72531000D02*
X128671000Y-72531000D01*
X136129000Y-72531000D02*
X133440000Y-72531000D01*
X131360000Y-72491000D02*
X128662000Y-72491000D01*
X136138000Y-72491000D02*
X133440000Y-72491000D01*
X131360000Y-72451000D02*
X128653000Y-72451000D01*
X136147000Y-72451000D02*
X133440000Y-72451000D01*
X131360000Y-72411000D02*
X128645000Y-72411000D01*
X136155000Y-72411000D02*
X133440000Y-72411000D01*
X131360000Y-72371000D02*
X128637000Y-72371000D01*
X136163000Y-72371000D02*
X133440000Y-72371000D01*
X131360000Y-72330000D02*
X128630000Y-72330000D01*
X136170000Y-72330000D02*
X133440000Y-72330000D01*
X131360000Y-72290000D02*
X128623000Y-72290000D01*
X136177000Y-72290000D02*
X133440000Y-72290000D01*
X131360000Y-72250000D02*
X128616000Y-72250000D01*
X136184000Y-72250000D02*
X133440000Y-72250000D01*
X131360000Y-72210000D02*
X128610000Y-72210000D01*
X136190000Y-72210000D02*
X133440000Y-72210000D01*
X131360000Y-72170000D02*
X128605000Y-72170000D01*
X136195000Y-72170000D02*
X133440000Y-72170000D01*
X131360000Y-72130000D02*
X128599000Y-72130000D01*
X136201000Y-72130000D02*
X133440000Y-72130000D01*
X131360000Y-72090000D02*
X128595000Y-72090000D01*
X136205000Y-72090000D02*
X133440000Y-72090000D01*
X131360000Y-72050000D02*
X128590000Y-72050000D01*
X136210000Y-72050000D02*
X133440000Y-72050000D01*
X131360000Y-72010000D02*
X128586000Y-72010000D01*
X136214000Y-72010000D02*
X133440000Y-72010000D01*
X131360000Y-71970000D02*
X128583000Y-71970000D01*
X136217000Y-71970000D02*
X133440000Y-71970000D01*
X131360000Y-71930000D02*
X128580000Y-71930000D01*
X136220000Y-71930000D02*
X133440000Y-71930000D01*
X131360000Y-71890000D02*
X128577000Y-71890000D01*
X136223000Y-71890000D02*
X133440000Y-71890000D01*
X136225000Y-71850000D02*
X128575000Y-71850000D01*
X136227000Y-71810000D02*
X128573000Y-71810000D01*
X136229000Y-71770000D02*
X128571000Y-71770000D01*
X136230000Y-71730000D02*
X128570000Y-71730000D01*
X136230000Y-71690000D02*
X128570000Y-71690000D01*
X136230000Y-71650000D02*
X128570000Y-71650000D01*
X136270000Y-71650000D02*
G75*
G03X136270000Y-71650000I-3870000J0D01*
G01*
X165620000Y-54750000D02*
G75*
G03X165620000Y-54750000I-3870000J0D01*
G01*
X165580000Y-54750000D02*
X157920000Y-54750000D01*
X165580000Y-54790000D02*
X157920000Y-54790000D01*
X165580000Y-54830000D02*
X157920000Y-54830000D01*
X165579000Y-54870000D02*
X157921000Y-54870000D01*
X165577000Y-54910000D02*
X157923000Y-54910000D01*
X165575000Y-54950000D02*
X157925000Y-54950000D01*
X165573000Y-54990000D02*
X162790000Y-54990000D01*
X160710000Y-54990000D02*
X157927000Y-54990000D01*
X165570000Y-55030000D02*
X162790000Y-55030000D01*
X160710000Y-55030000D02*
X157930000Y-55030000D01*
X165567000Y-55070000D02*
X162790000Y-55070000D01*
X160710000Y-55070000D02*
X157933000Y-55070000D01*
X165564000Y-55110000D02*
X162790000Y-55110000D01*
X160710000Y-55110000D02*
X157936000Y-55110000D01*
X165560000Y-55150000D02*
X162790000Y-55150000D01*
X160710000Y-55150000D02*
X157940000Y-55150000D01*
X165555000Y-55190000D02*
X162790000Y-55190000D01*
X160710000Y-55190000D02*
X157945000Y-55190000D01*
X165551000Y-55230000D02*
X162790000Y-55230000D01*
X160710000Y-55230000D02*
X157949000Y-55230000D01*
X165545000Y-55270000D02*
X162790000Y-55270000D01*
X160710000Y-55270000D02*
X157955000Y-55270000D01*
X165540000Y-55310000D02*
X162790000Y-55310000D01*
X160710000Y-55310000D02*
X157960000Y-55310000D01*
X165534000Y-55350000D02*
X162790000Y-55350000D01*
X160710000Y-55350000D02*
X157966000Y-55350000D01*
X165527000Y-55390000D02*
X162790000Y-55390000D01*
X160710000Y-55390000D02*
X157973000Y-55390000D01*
X165520000Y-55430000D02*
X162790000Y-55430000D01*
X160710000Y-55430000D02*
X157980000Y-55430000D01*
X165513000Y-55471000D02*
X162790000Y-55471000D01*
X160710000Y-55471000D02*
X157987000Y-55471000D01*
X165505000Y-55511000D02*
X162790000Y-55511000D01*
X160710000Y-55511000D02*
X157995000Y-55511000D01*
X165497000Y-55551000D02*
X162790000Y-55551000D01*
X160710000Y-55551000D02*
X158003000Y-55551000D01*
X165488000Y-55591000D02*
X162790000Y-55591000D01*
X160710000Y-55591000D02*
X158012000Y-55591000D01*
X165479000Y-55631000D02*
X162790000Y-55631000D01*
X160710000Y-55631000D02*
X158021000Y-55631000D01*
X165470000Y-55671000D02*
X162790000Y-55671000D01*
X160710000Y-55671000D02*
X158030000Y-55671000D01*
X165460000Y-55711000D02*
X162790000Y-55711000D01*
X160710000Y-55711000D02*
X158040000Y-55711000D01*
X165449000Y-55751000D02*
X162790000Y-55751000D01*
X160710000Y-55751000D02*
X158051000Y-55751000D01*
X165438000Y-55791000D02*
X162790000Y-55791000D01*
X160710000Y-55791000D02*
X158062000Y-55791000D01*
X165427000Y-55831000D02*
X162790000Y-55831000D01*
X160710000Y-55831000D02*
X158073000Y-55831000D01*
X165415000Y-55871000D02*
X162790000Y-55871000D01*
X160710000Y-55871000D02*
X158085000Y-55871000D01*
X165403000Y-55911000D02*
X162790000Y-55911000D01*
X160710000Y-55911000D02*
X158097000Y-55911000D01*
X165390000Y-55951000D02*
X162790000Y-55951000D01*
X160710000Y-55951000D02*
X158110000Y-55951000D01*
X165376000Y-55991000D02*
X162790000Y-55991000D01*
X160710000Y-55991000D02*
X158124000Y-55991000D01*
X165363000Y-56031000D02*
X162790000Y-56031000D01*
X160710000Y-56031000D02*
X158137000Y-56031000D01*
X165348000Y-56071000D02*
X162790000Y-56071000D01*
X160710000Y-56071000D02*
X158152000Y-56071000D01*
X165334000Y-56111000D02*
X162790000Y-56111000D01*
X160710000Y-56111000D02*
X158166000Y-56111000D01*
X165318000Y-56151000D02*
X162790000Y-56151000D01*
X160710000Y-56151000D02*
X158182000Y-56151000D01*
X165303000Y-56191000D02*
X162790000Y-56191000D01*
X160710000Y-56191000D02*
X158197000Y-56191000D01*
X165286000Y-56231000D02*
X162790000Y-56231000D01*
X160710000Y-56231000D02*
X158214000Y-56231000D01*
X165270000Y-56271000D02*
X162790000Y-56271000D01*
X160710000Y-56271000D02*
X158230000Y-56271000D01*
X165252000Y-56311000D02*
X162790000Y-56311000D01*
X160710000Y-56311000D02*
X158248000Y-56311000D01*
X165234000Y-56351000D02*
X162790000Y-56351000D01*
X160710000Y-56351000D02*
X158266000Y-56351000D01*
X165216000Y-56391000D02*
X162790000Y-56391000D01*
X160710000Y-56391000D02*
X158284000Y-56391000D01*
X165197000Y-56431000D02*
X162790000Y-56431000D01*
X160710000Y-56431000D02*
X158303000Y-56431000D01*
X165177000Y-56471000D02*
X162790000Y-56471000D01*
X160710000Y-56471000D02*
X158323000Y-56471000D01*
X165157000Y-56511000D02*
X162790000Y-56511000D01*
X160710000Y-56511000D02*
X158343000Y-56511000D01*
X165136000Y-56551000D02*
X162790000Y-56551000D01*
X160710000Y-56551000D02*
X158364000Y-56551000D01*
X165115000Y-56591000D02*
X162790000Y-56591000D01*
X160710000Y-56591000D02*
X158385000Y-56591000D01*
X165093000Y-56631000D02*
X162790000Y-56631000D01*
X160710000Y-56631000D02*
X158407000Y-56631000D01*
X165071000Y-56671000D02*
X162790000Y-56671000D01*
X160710000Y-56671000D02*
X158429000Y-56671000D01*
X165047000Y-56711000D02*
X162790000Y-56711000D01*
X160710000Y-56711000D02*
X158453000Y-56711000D01*
X165024000Y-56751000D02*
X162790000Y-56751000D01*
X160710000Y-56751000D02*
X158476000Y-56751000D01*
X164999000Y-56791000D02*
X162790000Y-56791000D01*
X160710000Y-56791000D02*
X158501000Y-56791000D01*
X164974000Y-56831000D02*
X162790000Y-56831000D01*
X160710000Y-56831000D02*
X158526000Y-56831000D01*
X164948000Y-56871000D02*
X162790000Y-56871000D01*
X160710000Y-56871000D02*
X158552000Y-56871000D01*
X164922000Y-56911000D02*
X162790000Y-56911000D01*
X160710000Y-56911000D02*
X158578000Y-56911000D01*
X164894000Y-56951000D02*
X162790000Y-56951000D01*
X160710000Y-56951000D02*
X158606000Y-56951000D01*
X164866000Y-56991000D02*
X162790000Y-56991000D01*
X160710000Y-56991000D02*
X158634000Y-56991000D01*
X164838000Y-57031000D02*
X162790000Y-57031000D01*
X160710000Y-57031000D02*
X158662000Y-57031000D01*
X164808000Y-57071000D02*
X158692000Y-57071000D01*
X164778000Y-57111000D02*
X158722000Y-57111000D01*
X164746000Y-57151000D02*
X158754000Y-57151000D01*
X164714000Y-57191000D02*
X158786000Y-57191000D01*
X164681000Y-57231000D02*
X158819000Y-57231000D01*
X164648000Y-57271000D02*
X158852000Y-57271000D01*
X164613000Y-57311000D02*
X158887000Y-57311000D01*
X164577000Y-57351000D02*
X158923000Y-57351000D01*
X164540000Y-57391000D02*
X158960000Y-57391000D01*
X164502000Y-57431000D02*
X158998000Y-57431000D01*
X164463000Y-57471000D02*
X159037000Y-57471000D01*
X164423000Y-57511000D02*
X159077000Y-57511000D01*
X164382000Y-57551000D02*
X159118000Y-57551000D01*
X164339000Y-57591000D02*
X159161000Y-57591000D01*
X164296000Y-57631000D02*
X159204000Y-57631000D01*
X164250000Y-57671000D02*
X159250000Y-57671000D01*
X164204000Y-57711000D02*
X159296000Y-57711000D01*
X164155000Y-57751000D02*
X159345000Y-57751000D01*
X164105000Y-57791000D02*
X159395000Y-57791000D01*
X164054000Y-57831000D02*
X159446000Y-57831000D01*
X164000000Y-57871000D02*
X159500000Y-57871000D01*
X163945000Y-57911000D02*
X159555000Y-57911000D01*
X163887000Y-57951000D02*
X159613000Y-57951000D01*
X163827000Y-57991000D02*
X159673000Y-57991000D01*
X163764000Y-58031000D02*
X159736000Y-58031000D01*
X163699000Y-58071000D02*
X159801000Y-58071000D01*
X163631000Y-58111000D02*
X159869000Y-58111000D01*
X163559000Y-58151000D02*
X159941000Y-58151000D01*
X163483000Y-58191000D02*
X160017000Y-58191000D01*
X163404000Y-58231000D02*
X160096000Y-58231000D01*
X163319000Y-58271000D02*
X160181000Y-58271000D01*
X163228000Y-58311000D02*
X160272000Y-58311000D01*
X163131000Y-58351000D02*
X160369000Y-58351000D01*
X163025000Y-58391000D02*
X160475000Y-58391000D01*
X162908000Y-58431000D02*
X160592000Y-58431000D01*
X162778000Y-58471000D02*
X160722000Y-58471000D01*
X162627000Y-58511000D02*
X160873000Y-58511000D01*
X162443000Y-58551000D02*
X161057000Y-58551000D01*
X162191000Y-58591000D02*
X161309000Y-58591000D01*
X163925000Y-50607789D02*
X163925000Y-51357789D01*
X164300000Y-50982789D02*
X163550000Y-50982789D01*
X140800000Y-50982789D02*
X140050000Y-50982789D01*
X140425000Y-50607789D02*
X140425000Y-51357789D01*
X138691000Y-58591000D02*
X137809000Y-58591000D01*
X138943000Y-58551000D02*
X137557000Y-58551000D01*
X139127000Y-58511000D02*
X137373000Y-58511000D01*
X139278000Y-58471000D02*
X137222000Y-58471000D01*
X139408000Y-58431000D02*
X137092000Y-58431000D01*
X139525000Y-58391000D02*
X136975000Y-58391000D01*
X139631000Y-58351000D02*
X136869000Y-58351000D01*
X139728000Y-58311000D02*
X136772000Y-58311000D01*
X139819000Y-58271000D02*
X136681000Y-58271000D01*
X139904000Y-58231000D02*
X136596000Y-58231000D01*
X139983000Y-58191000D02*
X136517000Y-58191000D01*
X140059000Y-58151000D02*
X136441000Y-58151000D01*
X140131000Y-58111000D02*
X136369000Y-58111000D01*
X140199000Y-58071000D02*
X136301000Y-58071000D01*
X140264000Y-58031000D02*
X136236000Y-58031000D01*
X140327000Y-57991000D02*
X136173000Y-57991000D01*
X140387000Y-57951000D02*
X136113000Y-57951000D01*
X140445000Y-57911000D02*
X136055000Y-57911000D01*
X140500000Y-57871000D02*
X136000000Y-57871000D01*
X140554000Y-57831000D02*
X135946000Y-57831000D01*
X140605000Y-57791000D02*
X135895000Y-57791000D01*
X140655000Y-57751000D02*
X135845000Y-57751000D01*
X140704000Y-57711000D02*
X135796000Y-57711000D01*
X140750000Y-57671000D02*
X135750000Y-57671000D01*
X140796000Y-57631000D02*
X135704000Y-57631000D01*
X140839000Y-57591000D02*
X135661000Y-57591000D01*
X140882000Y-57551000D02*
X135618000Y-57551000D01*
X140923000Y-57511000D02*
X135577000Y-57511000D01*
X140963000Y-57471000D02*
X135537000Y-57471000D01*
X141002000Y-57431000D02*
X135498000Y-57431000D01*
X141040000Y-57391000D02*
X135460000Y-57391000D01*
X141077000Y-57351000D02*
X135423000Y-57351000D01*
X141113000Y-57311000D02*
X135387000Y-57311000D01*
X141148000Y-57271000D02*
X135352000Y-57271000D01*
X141181000Y-57231000D02*
X135319000Y-57231000D01*
X141214000Y-57191000D02*
X135286000Y-57191000D01*
X141246000Y-57151000D02*
X135254000Y-57151000D01*
X141278000Y-57111000D02*
X135222000Y-57111000D01*
X141308000Y-57071000D02*
X135192000Y-57071000D01*
X137210000Y-57031000D02*
X135162000Y-57031000D01*
X141338000Y-57031000D02*
X139290000Y-57031000D01*
X137210000Y-56991000D02*
X135134000Y-56991000D01*
X141366000Y-56991000D02*
X139290000Y-56991000D01*
X137210000Y-56951000D02*
X135106000Y-56951000D01*
X141394000Y-56951000D02*
X139290000Y-56951000D01*
X137210000Y-56911000D02*
X135078000Y-56911000D01*
X141422000Y-56911000D02*
X139290000Y-56911000D01*
X137210000Y-56871000D02*
X135052000Y-56871000D01*
X141448000Y-56871000D02*
X139290000Y-56871000D01*
X137210000Y-56831000D02*
X135026000Y-56831000D01*
X141474000Y-56831000D02*
X139290000Y-56831000D01*
X137210000Y-56791000D02*
X135001000Y-56791000D01*
X141499000Y-56791000D02*
X139290000Y-56791000D01*
X137210000Y-56751000D02*
X134976000Y-56751000D01*
X141524000Y-56751000D02*
X139290000Y-56751000D01*
X137210000Y-56711000D02*
X134953000Y-56711000D01*
X141547000Y-56711000D02*
X139290000Y-56711000D01*
X137210000Y-56671000D02*
X134929000Y-56671000D01*
X141571000Y-56671000D02*
X139290000Y-56671000D01*
X137210000Y-56631000D02*
X134907000Y-56631000D01*
X141593000Y-56631000D02*
X139290000Y-56631000D01*
X137210000Y-56591000D02*
X134885000Y-56591000D01*
X141615000Y-56591000D02*
X139290000Y-56591000D01*
X137210000Y-56551000D02*
X134864000Y-56551000D01*
X141636000Y-56551000D02*
X139290000Y-56551000D01*
X137210000Y-56511000D02*
X134843000Y-56511000D01*
X141657000Y-56511000D02*
X139290000Y-56511000D01*
X137210000Y-56471000D02*
X134823000Y-56471000D01*
X141677000Y-56471000D02*
X139290000Y-56471000D01*
X137210000Y-56431000D02*
X134803000Y-56431000D01*
X141697000Y-56431000D02*
X139290000Y-56431000D01*
X137210000Y-56391000D02*
X134784000Y-56391000D01*
X141716000Y-56391000D02*
X139290000Y-56391000D01*
X137210000Y-56351000D02*
X134766000Y-56351000D01*
X141734000Y-56351000D02*
X139290000Y-56351000D01*
X137210000Y-56311000D02*
X134748000Y-56311000D01*
X141752000Y-56311000D02*
X139290000Y-56311000D01*
X137210000Y-56271000D02*
X134730000Y-56271000D01*
X141770000Y-56271000D02*
X139290000Y-56271000D01*
X137210000Y-56231000D02*
X134714000Y-56231000D01*
X141786000Y-56231000D02*
X139290000Y-56231000D01*
X137210000Y-56191000D02*
X134697000Y-56191000D01*
X141803000Y-56191000D02*
X139290000Y-56191000D01*
X137210000Y-56151000D02*
X134682000Y-56151000D01*
X141818000Y-56151000D02*
X139290000Y-56151000D01*
X137210000Y-56111000D02*
X134666000Y-56111000D01*
X141834000Y-56111000D02*
X139290000Y-56111000D01*
X137210000Y-56071000D02*
X134652000Y-56071000D01*
X141848000Y-56071000D02*
X139290000Y-56071000D01*
X137210000Y-56031000D02*
X134637000Y-56031000D01*
X141863000Y-56031000D02*
X139290000Y-56031000D01*
X137210000Y-55991000D02*
X134624000Y-55991000D01*
X141876000Y-55991000D02*
X139290000Y-55991000D01*
X137210000Y-55951000D02*
X134610000Y-55951000D01*
X141890000Y-55951000D02*
X139290000Y-55951000D01*
X137210000Y-55911000D02*
X134597000Y-55911000D01*
X141903000Y-55911000D02*
X139290000Y-55911000D01*
X137210000Y-55871000D02*
X134585000Y-55871000D01*
X141915000Y-55871000D02*
X139290000Y-55871000D01*
X137210000Y-55831000D02*
X134573000Y-55831000D01*
X141927000Y-55831000D02*
X139290000Y-55831000D01*
X137210000Y-55791000D02*
X134562000Y-55791000D01*
X141938000Y-55791000D02*
X139290000Y-55791000D01*
X137210000Y-55751000D02*
X134551000Y-55751000D01*
X141949000Y-55751000D02*
X139290000Y-55751000D01*
X137210000Y-55711000D02*
X134540000Y-55711000D01*
X141960000Y-55711000D02*
X139290000Y-55711000D01*
X137210000Y-55671000D02*
X134530000Y-55671000D01*
X141970000Y-55671000D02*
X139290000Y-55671000D01*
X137210000Y-55631000D02*
X134521000Y-55631000D01*
X141979000Y-55631000D02*
X139290000Y-55631000D01*
X137210000Y-55591000D02*
X134512000Y-55591000D01*
X141988000Y-55591000D02*
X139290000Y-55591000D01*
X137210000Y-55551000D02*
X134503000Y-55551000D01*
X141997000Y-55551000D02*
X139290000Y-55551000D01*
X137210000Y-55511000D02*
X134495000Y-55511000D01*
X142005000Y-55511000D02*
X139290000Y-55511000D01*
X137210000Y-55471000D02*
X134487000Y-55471000D01*
X142013000Y-55471000D02*
X139290000Y-55471000D01*
X137210000Y-55430000D02*
X134480000Y-55430000D01*
X142020000Y-55430000D02*
X139290000Y-55430000D01*
X137210000Y-55390000D02*
X134473000Y-55390000D01*
X142027000Y-55390000D02*
X139290000Y-55390000D01*
X137210000Y-55350000D02*
X134466000Y-55350000D01*
X142034000Y-55350000D02*
X139290000Y-55350000D01*
X137210000Y-55310000D02*
X134460000Y-55310000D01*
X142040000Y-55310000D02*
X139290000Y-55310000D01*
X137210000Y-55270000D02*
X134455000Y-55270000D01*
X142045000Y-55270000D02*
X139290000Y-55270000D01*
X137210000Y-55230000D02*
X134449000Y-55230000D01*
X142051000Y-55230000D02*
X139290000Y-55230000D01*
X137210000Y-55190000D02*
X134445000Y-55190000D01*
X142055000Y-55190000D02*
X139290000Y-55190000D01*
X137210000Y-55150000D02*
X134440000Y-55150000D01*
X142060000Y-55150000D02*
X139290000Y-55150000D01*
X137210000Y-55110000D02*
X134436000Y-55110000D01*
X142064000Y-55110000D02*
X139290000Y-55110000D01*
X137210000Y-55070000D02*
X134433000Y-55070000D01*
X142067000Y-55070000D02*
X139290000Y-55070000D01*
X137210000Y-55030000D02*
X134430000Y-55030000D01*
X142070000Y-55030000D02*
X139290000Y-55030000D01*
X137210000Y-54990000D02*
X134427000Y-54990000D01*
X142073000Y-54990000D02*
X139290000Y-54990000D01*
X142075000Y-54950000D02*
X134425000Y-54950000D01*
X142077000Y-54910000D02*
X134423000Y-54910000D01*
X142079000Y-54870000D02*
X134421000Y-54870000D01*
X142080000Y-54830000D02*
X134420000Y-54830000D01*
X142080000Y-54790000D02*
X134420000Y-54790000D01*
X142080000Y-54750000D02*
X134420000Y-54750000D01*
X142120000Y-54750000D02*
G75*
G03X142120000Y-54750000I-3870000J0D01*
G01*
X148257665Y-91478608D02*
G75*
G03X151490000Y-91635516I1672335J1078608D01*
G01*
X148257665Y-89321392D02*
G75*
G02X151490000Y-89164484I1672335J-1078608D01*
G01*
X148888870Y-91479837D02*
G75*
G03X150970961Y-91480000I1041130J1079837D01*
G01*
X148888870Y-89320163D02*
G75*
G02X150970961Y-89320000I1041130J-1079837D01*
G01*
X151490000Y-91636000D02*
X151490000Y-91480000D01*
X151490000Y-89320000D02*
X151490000Y-89164000D01*
X151710000Y-112470000D02*
X151710000Y-110230000D01*
X151470000Y-112470000D02*
X151470000Y-110230000D01*
X151590000Y-112470000D02*
X151590000Y-110230000D01*
X147420000Y-111350000D02*
X148070000Y-111350000D01*
X152960000Y-111350000D02*
X152310000Y-111350000D01*
X148070000Y-112470000D02*
X152310000Y-112470000D01*
X148070000Y-110230000D02*
X148070000Y-112470000D01*
X152310000Y-110230000D02*
X148070000Y-110230000D01*
X152310000Y-112470000D02*
X152310000Y-110230000D01*
X152310000Y-116220000D02*
X152310000Y-113980000D01*
X152310000Y-113980000D02*
X148070000Y-113980000D01*
X148070000Y-113980000D02*
X148070000Y-116220000D01*
X148070000Y-116220000D02*
X152310000Y-116220000D01*
X152960000Y-115100000D02*
X152310000Y-115100000D01*
X147420000Y-115100000D02*
X148070000Y-115100000D01*
X151590000Y-116220000D02*
X151590000Y-113980000D01*
X151470000Y-116220000D02*
X151470000Y-113980000D01*
X151710000Y-116220000D02*
X151710000Y-113980000D01*
X158840000Y-70120000D02*
X158840000Y-67880000D01*
X158840000Y-67880000D02*
X154600000Y-67880000D01*
X154600000Y-67880000D02*
X154600000Y-70120000D01*
X154600000Y-70120000D02*
X158840000Y-70120000D01*
X160760000Y-69000000D02*
X158840000Y-69000000D01*
X152680000Y-69000000D02*
X154600000Y-69000000D01*
X158120000Y-70120000D02*
X158120000Y-67880000D01*
X158000000Y-70120000D02*
X158000000Y-67880000D01*
X158240000Y-70120000D02*
X158240000Y-67880000D01*
X144640000Y-70120000D02*
X144640000Y-67880000D01*
X144400000Y-70120000D02*
X144400000Y-67880000D01*
X144520000Y-70120000D02*
X144520000Y-67880000D01*
X139080000Y-69000000D02*
X141000000Y-69000000D01*
X147160000Y-69000000D02*
X145240000Y-69000000D01*
X141000000Y-70120000D02*
X145240000Y-70120000D01*
X141000000Y-67880000D02*
X141000000Y-70120000D01*
X145240000Y-67880000D02*
X141000000Y-67880000D01*
X145240000Y-70120000D02*
X145240000Y-67880000D01*
X198820000Y-112340000D02*
X196580000Y-112340000D01*
X196580000Y-112340000D02*
X196580000Y-116580000D01*
X196580000Y-116580000D02*
X198820000Y-116580000D01*
X198820000Y-116580000D02*
X198820000Y-112340000D01*
X197700000Y-111690000D02*
X197700000Y-112340000D01*
X197700000Y-117230000D02*
X197700000Y-116580000D01*
X198820000Y-113060000D02*
X196580000Y-113060000D01*
X198820000Y-113180000D02*
X196580000Y-113180000D01*
X198820000Y-112940000D02*
X196580000Y-112940000D01*
X194620000Y-112940000D02*
X192380000Y-112940000D01*
X194620000Y-113180000D02*
X192380000Y-113180000D01*
X194620000Y-113060000D02*
X192380000Y-113060000D01*
X193500000Y-117230000D02*
X193500000Y-116580000D01*
X193500000Y-111690000D02*
X193500000Y-112340000D01*
X194620000Y-116580000D02*
X194620000Y-112340000D01*
X192380000Y-116580000D02*
X194620000Y-116580000D01*
X192380000Y-112340000D02*
X192380000Y-116580000D01*
X194620000Y-112340000D02*
X192380000Y-112340000D01*
D12*
X105050000Y-60250000D02*
G75*
G03X105050000Y-60250000I-200000J0D01*
G01*
D13*
X117600000Y-57115000D02*
X116134000Y-57115000D01*
X108366000Y-57115000D02*
X106900000Y-57115000D01*
X108366000Y-63385000D02*
X106900000Y-63385000D01*
X117600000Y-63385000D02*
X116134000Y-63385000D01*
X108367924Y-57112628D02*
G75*
G02X116134000Y-57115000I3882076J-3151223D01*
G01*
X116132076Y-63387372D02*
G75*
G02X108366000Y-63385000I-3882076J3151223D01*
G01*
X106900000Y-62015000D02*
X106900000Y-63385000D01*
X106900000Y-57115000D02*
X106900000Y-58485000D01*
X117600000Y-57115000D02*
X117600000Y-58485000D01*
X117600000Y-62015000D02*
X117600000Y-63385000D01*
D10*
X160360000Y-79680000D02*
X160360000Y-74480000D01*
X142520000Y-79680000D02*
X160360000Y-79680000D01*
X139920000Y-74480000D02*
X160360000Y-74480000D01*
X142520000Y-79680000D02*
X142520000Y-77080000D01*
X142520000Y-77080000D02*
X139920000Y-77080000D01*
X139920000Y-77080000D02*
X139920000Y-74480000D01*
X141250000Y-79680000D02*
X139920000Y-79680000D01*
X139920000Y-79680000D02*
X139920000Y-78350000D01*
X107750000Y-133230000D02*
X107750000Y-143730000D01*
X116750000Y-133230000D02*
X116750000Y-143730000D01*
X116750000Y-143730000D02*
X112750000Y-143730000D01*
X111750000Y-143730000D02*
X107750000Y-143730000D01*
X116750000Y-133230000D02*
X112600000Y-133230000D01*
X111900000Y-133230000D02*
X107750000Y-133230000D01*
X114050000Y-137730000D02*
G75*
G03X114050000Y-137730000I-1800000J0D01*
G01*
X111190000Y-130250000D02*
X111190000Y-131050000D01*
X111190000Y-130250000D02*
X112050000Y-130250000D01*
X183250000Y-133730000D02*
X183250000Y-144230000D01*
X192250000Y-133730000D02*
X192250000Y-144230000D01*
X192250000Y-144230000D02*
X188250000Y-144230000D01*
X187250000Y-144230000D02*
X183250000Y-144230000D01*
X192250000Y-133730000D02*
X188100000Y-133730000D01*
X187400000Y-133730000D02*
X183250000Y-133730000D01*
X189550000Y-138230000D02*
G75*
G03X189550000Y-138230000I-1800000J0D01*
G01*
X186690000Y-130750000D02*
X186690000Y-131550000D01*
X186690000Y-130750000D02*
X187550000Y-130750000D01*
X149090000Y-119050000D02*
X149950000Y-119050000D01*
X149090000Y-119050000D02*
X149090000Y-119850000D01*
X151950000Y-126530000D02*
G75*
G03X151950000Y-126530000I-1800000J0D01*
G01*
X149800000Y-122030000D02*
X145650000Y-122030000D01*
X154650000Y-122030000D02*
X150500000Y-122030000D01*
X149650000Y-132530000D02*
X145650000Y-132530000D01*
X154650000Y-132530000D02*
X150650000Y-132530000D01*
X154650000Y-122030000D02*
X154650000Y-132530000D01*
X145650000Y-122030000D02*
X145650000Y-132530000D01*
D13*
X193100000Y-62015000D02*
X193100000Y-63385000D01*
X193100000Y-57115000D02*
X193100000Y-58485000D01*
X182400000Y-57115000D02*
X182400000Y-58485000D01*
X182400000Y-62015000D02*
X182400000Y-63385000D01*
X191632076Y-63387372D02*
G75*
G02X183866000Y-63385000I-3882076J3151223D01*
G01*
X183867924Y-57112628D02*
G75*
G02X191634000Y-57115000I3882076J-3151223D01*
G01*
X193100000Y-63385000D02*
X191634000Y-63385000D01*
X183866000Y-63385000D02*
X182400000Y-63385000D01*
X183866000Y-57115000D02*
X182400000Y-57115000D01*
X193100000Y-57115000D02*
X191634000Y-57115000D01*
D12*
X180550000Y-60250000D02*
G75*
G03X180550000Y-60250000I-200000J0D01*
G01*
D10*
X153750000Y-61350000D02*
X154800000Y-61350000D01*
X154800000Y-60300000D02*
X154800000Y-61350000D01*
X145400000Y-55250000D02*
X145400000Y-46450000D01*
X145400000Y-46450000D02*
X154600000Y-46450000D01*
X148100000Y-61150000D02*
X145400000Y-61150000D01*
X145400000Y-61150000D02*
X145400000Y-59250000D01*
X154600000Y-46450000D02*
X154600000Y-61150000D01*
X154600000Y-61150000D02*
X152000000Y-61150000D01*
X120190000Y-51320000D02*
X120190000Y-53980000D01*
X125330000Y-51320000D02*
X120190000Y-51320000D01*
X125330000Y-53980000D02*
X120190000Y-53980000D01*
X125330000Y-51320000D02*
X125330000Y-53980000D01*
X126600000Y-51320000D02*
X127930000Y-51320000D01*
X127930000Y-51320000D02*
X127930000Y-52650000D01*
D13*
X193150000Y-141565000D02*
X193150000Y-142935000D01*
X193150000Y-136665000D02*
X193150000Y-138035000D01*
X182450000Y-136665000D02*
X182450000Y-138035000D01*
X182450000Y-141565000D02*
X182450000Y-142935000D01*
X191682076Y-142937372D02*
G75*
G02X183916000Y-142935000I-3882076J3151223D01*
G01*
X183917924Y-136662628D02*
G75*
G02X191684000Y-136665000I3882076J-3151223D01*
G01*
X193150000Y-142935000D02*
X191684000Y-142935000D01*
X183916000Y-142935000D02*
X182450000Y-142935000D01*
X183916000Y-136665000D02*
X182450000Y-136665000D01*
X193150000Y-136665000D02*
X191684000Y-136665000D01*
D12*
X180600000Y-139800000D02*
G75*
G03X180600000Y-139800000I-200000J0D01*
G01*
X105050000Y-139300000D02*
G75*
G03X105050000Y-139300000I-200000J0D01*
G01*
D13*
X117600000Y-136165000D02*
X116134000Y-136165000D01*
X108366000Y-136165000D02*
X106900000Y-136165000D01*
X108366000Y-142435000D02*
X106900000Y-142435000D01*
X117600000Y-142435000D02*
X116134000Y-142435000D01*
X108367924Y-136162628D02*
G75*
G02X116134000Y-136165000I3882076J-3151223D01*
G01*
X116132076Y-142437372D02*
G75*
G02X108366000Y-142435000I-3882076J3151223D01*
G01*
X106900000Y-141065000D02*
X106900000Y-142435000D01*
X106900000Y-136165000D02*
X106900000Y-137535000D01*
X117600000Y-136165000D02*
X117600000Y-137535000D01*
X117600000Y-141065000D02*
X117600000Y-142435000D01*
D10*
X108880000Y-72450000D02*
X107930000Y-72450000D01*
X103140000Y-72450000D02*
X104090000Y-72450000D01*
X107930000Y-71530000D02*
X104090000Y-71530000D01*
X107930000Y-73370000D02*
X107930000Y-71530000D01*
X104090000Y-73370000D02*
X107930000Y-73370000D01*
X104090000Y-71530000D02*
X104090000Y-73370000D01*
X104190000Y-75380000D02*
X104190000Y-77220000D01*
X104190000Y-77220000D02*
X108030000Y-77220000D01*
X108030000Y-77220000D02*
X108030000Y-75380000D01*
X108030000Y-75380000D02*
X104190000Y-75380000D01*
X103240000Y-76300000D02*
X104190000Y-76300000D01*
X108980000Y-76300000D02*
X108030000Y-76300000D01*
X174080000Y-127660000D02*
X175920000Y-127660000D01*
X175920000Y-127660000D02*
X175920000Y-123820000D01*
X175920000Y-123820000D02*
X174080000Y-123820000D01*
X174080000Y-123820000D02*
X174080000Y-127660000D01*
X175000000Y-128610000D02*
X175000000Y-127660000D01*
X175000000Y-122870000D02*
X175000000Y-123820000D01*
X107960000Y-81070000D02*
X107960000Y-79230000D01*
X107960000Y-79230000D02*
X104120000Y-79230000D01*
X104120000Y-79230000D02*
X104120000Y-81070000D01*
X104120000Y-81070000D02*
X107960000Y-81070000D01*
X108910000Y-80150000D02*
X107960000Y-80150000D01*
X103170000Y-80150000D02*
X104120000Y-80150000D01*
X155150000Y-91780000D02*
X155150000Y-90830000D01*
X155150000Y-86040000D02*
X155150000Y-86990000D01*
X156070000Y-90830000D02*
X156070000Y-86990000D01*
X154230000Y-90830000D02*
X156070000Y-90830000D01*
X154230000Y-86990000D02*
X154230000Y-90830000D01*
X156070000Y-86990000D02*
X154230000Y-86990000D01*
X126120000Y-87000000D02*
X127070000Y-87000000D01*
X131860000Y-87000000D02*
X130910000Y-87000000D01*
X127070000Y-87920000D02*
X130910000Y-87920000D01*
X127070000Y-86080000D02*
X127070000Y-87920000D01*
X130910000Y-86080000D02*
X127070000Y-86080000D01*
X130910000Y-87920000D02*
X130910000Y-86080000D01*
X103320000Y-96350000D02*
X104270000Y-96350000D01*
X109060000Y-96350000D02*
X108110000Y-96350000D01*
X104270000Y-97270000D02*
X108110000Y-97270000D01*
X104270000Y-95430000D02*
X104270000Y-97270000D01*
X108110000Y-95430000D02*
X104270000Y-95430000D01*
X108110000Y-97270000D02*
X108110000Y-95430000D01*
X127090000Y-89480000D02*
X127090000Y-91320000D01*
X127090000Y-91320000D02*
X130930000Y-91320000D01*
X130930000Y-91320000D02*
X130930000Y-89480000D01*
X130930000Y-89480000D02*
X127090000Y-89480000D01*
X126140000Y-90400000D02*
X127090000Y-90400000D01*
X131880000Y-90400000D02*
X130930000Y-90400000D01*
X138200000Y-125020000D02*
X138200000Y-125970000D01*
X138200000Y-130760000D02*
X138200000Y-129810000D01*
X137280000Y-125970000D02*
X137280000Y-129810000D01*
X139120000Y-125970000D02*
X137280000Y-125970000D01*
X139120000Y-129810000D02*
X139120000Y-125970000D01*
X137280000Y-129810000D02*
X139120000Y-129810000D01*
X108210000Y-101370000D02*
X108210000Y-99530000D01*
X108210000Y-99530000D02*
X104370000Y-99530000D01*
X104370000Y-99530000D02*
X104370000Y-101370000D01*
X104370000Y-101370000D02*
X108210000Y-101370000D01*
X109160000Y-100450000D02*
X108210000Y-100450000D01*
X103420000Y-100450000D02*
X104370000Y-100450000D01*
X160370000Y-86990000D02*
X158530000Y-86990000D01*
X158530000Y-86990000D02*
X158530000Y-90830000D01*
X158530000Y-90830000D02*
X160370000Y-90830000D01*
X160370000Y-90830000D02*
X160370000Y-86990000D01*
X159450000Y-86040000D02*
X159450000Y-86990000D01*
X159450000Y-91780000D02*
X159450000Y-90830000D01*
X193450000Y-99670000D02*
X193450000Y-100620000D01*
X193450000Y-105410000D02*
X193450000Y-104460000D01*
X192530000Y-100620000D02*
X192530000Y-104460000D01*
X194370000Y-100620000D02*
X192530000Y-100620000D01*
X194370000Y-104460000D02*
X194370000Y-100620000D01*
X192530000Y-104460000D02*
X194370000Y-104460000D01*
X197700000Y-124520000D02*
X197700000Y-125470000D01*
X197700000Y-130260000D02*
X197700000Y-129310000D01*
X196780000Y-125470000D02*
X196780000Y-129310000D01*
X198620000Y-125470000D02*
X196780000Y-125470000D01*
X198620000Y-129310000D02*
X198620000Y-125470000D01*
X196780000Y-129310000D02*
X198620000Y-129310000D01*
X181870000Y-105600000D02*
X182820000Y-105600000D01*
X187610000Y-105600000D02*
X186660000Y-105600000D01*
X182820000Y-106520000D02*
X186660000Y-106520000D01*
X182820000Y-104680000D02*
X182820000Y-106520000D01*
X186660000Y-104680000D02*
X182820000Y-104680000D01*
X186660000Y-106520000D02*
X186660000Y-104680000D01*
X187690000Y-95030000D02*
X187690000Y-96870000D01*
X187690000Y-96870000D02*
X191530000Y-96870000D01*
X191530000Y-96870000D02*
X191530000Y-95030000D01*
X191530000Y-95030000D02*
X187690000Y-95030000D01*
X186740000Y-95950000D02*
X187690000Y-95950000D01*
X192480000Y-95950000D02*
X191530000Y-95950000D01*
X167470000Y-112790000D02*
X165630000Y-112790000D01*
X165630000Y-112790000D02*
X165630000Y-116630000D01*
X165630000Y-116630000D02*
X167470000Y-116630000D01*
X167470000Y-116630000D02*
X167470000Y-112790000D01*
X166550000Y-111840000D02*
X166550000Y-112790000D01*
X166550000Y-117580000D02*
X166550000Y-116630000D01*
X186520000Y-74200000D02*
X187470000Y-74200000D01*
X192260000Y-74200000D02*
X191310000Y-74200000D01*
X187470000Y-75120000D02*
X191310000Y-75120000D01*
X187470000Y-73280000D02*
X187470000Y-75120000D01*
X191310000Y-73280000D02*
X187470000Y-73280000D01*
X191310000Y-75120000D02*
X191310000Y-73280000D01*
X162830000Y-90860000D02*
X164670000Y-90860000D01*
X164670000Y-90860000D02*
X164670000Y-87020000D01*
X164670000Y-87020000D02*
X162830000Y-87020000D01*
X162830000Y-87020000D02*
X162830000Y-90860000D01*
X163750000Y-91810000D02*
X163750000Y-90860000D01*
X163750000Y-86070000D02*
X163750000Y-87020000D01*
X186520000Y-77900000D02*
X187470000Y-77900000D01*
X192260000Y-77900000D02*
X191310000Y-77900000D01*
X187470000Y-78820000D02*
X191310000Y-78820000D01*
X187470000Y-76980000D02*
X187470000Y-78820000D01*
X191310000Y-76980000D02*
X187470000Y-76980000D01*
X191310000Y-78820000D02*
X191310000Y-76980000D01*
X191310000Y-71220000D02*
X191310000Y-69380000D01*
X191310000Y-69380000D02*
X187470000Y-69380000D01*
X187470000Y-69380000D02*
X187470000Y-71220000D01*
X187470000Y-71220000D02*
X191310000Y-71220000D01*
X192260000Y-70300000D02*
X191310000Y-70300000D01*
X186520000Y-70300000D02*
X187470000Y-70300000D01*
X144979000Y-106870000D02*
X144979000Y-102933000D01*
X144979000Y-98566000D02*
X144979000Y-94630000D01*
X155020000Y-106870000D02*
X155020000Y-102933000D01*
X155020000Y-98566000D02*
X155020000Y-94630000D01*
X144979000Y-106870000D02*
X146629000Y-106870000D01*
X148371000Y-106870000D02*
X149130000Y-106870000D01*
X150871000Y-106870000D02*
X151630000Y-106870000D01*
X153370000Y-106870000D02*
X155020000Y-106870000D01*
X144979000Y-94630000D02*
X155020000Y-94630000D01*
X118610000Y-81120000D02*
G75*
G02X116610000Y-81120000I-1000000J0D01*
G01*
X116610000Y-81120000D02*
X115360000Y-81120000D01*
X115360000Y-81120000D02*
X115360000Y-91400000D01*
X115360000Y-91400000D02*
X119860000Y-91400000D01*
X119860000Y-91400000D02*
X119860000Y-81120000D01*
X119860000Y-81120000D02*
X118610000Y-81120000D01*
X132660000Y-117470000D02*
X131410000Y-117470000D01*
X132660000Y-127750000D02*
X132660000Y-117470000D01*
X128160000Y-127750000D02*
X132660000Y-127750000D01*
X128160000Y-117470000D02*
X128160000Y-127750000D01*
X129410000Y-117470000D02*
X128160000Y-117470000D01*
X131410000Y-117470000D02*
G75*
G02X129410000Y-117470000I-1000000J0D01*
G01*
X176270000Y-86990000D02*
G75*
G02X176270000Y-88990000I0J-1000000D01*
G01*
X176270000Y-88990000D02*
X176270000Y-90240000D01*
X176270000Y-90240000D02*
X194170000Y-90240000D01*
X194170000Y-90240000D02*
X194170000Y-85740000D01*
X194170000Y-85740000D02*
X176270000Y-85740000D01*
X176270000Y-85740000D02*
X176270000Y-86990000D01*
X176210000Y-93240000D02*
X194230000Y-93240000D01*
X194230000Y-93240000D02*
X194230000Y-82740000D01*
X194230000Y-82740000D02*
X176210000Y-82740000D01*
X176210000Y-82740000D02*
X176210000Y-93240000D01*
X162991000Y-61930000D02*
X162991000Y-63440000D01*
X159290000Y-61930000D02*
X159290000Y-63440000D01*
X156020000Y-63440000D02*
X166260000Y-63440000D01*
X166260000Y-61930000D02*
X166260000Y-66571000D01*
X156020000Y-61930000D02*
X156020000Y-66571000D01*
X156020000Y-66571000D02*
X166260000Y-66571000D01*
X156020000Y-61930000D02*
X166260000Y-61930000D01*
X134020000Y-61730000D02*
X144260000Y-61730000D01*
X134020000Y-66371000D02*
X144260000Y-66371000D01*
X134020000Y-61730000D02*
X134020000Y-66371000D01*
X144260000Y-61730000D02*
X144260000Y-66371000D01*
X134020000Y-63240000D02*
X144260000Y-63240000D01*
X137290000Y-61730000D02*
X137290000Y-63240000D01*
X140991000Y-61730000D02*
X140991000Y-63240000D01*
X168470000Y-113590000D02*
G75*
G02X168470000Y-115590000I0J-1000000D01*
G01*
X168470000Y-115590000D02*
X168470000Y-116840000D01*
X168470000Y-116840000D02*
X188910000Y-116840000D01*
X188910000Y-116840000D02*
X188910000Y-112340000D01*
X188910000Y-112340000D02*
X168470000Y-112340000D01*
X168470000Y-112340000D02*
X168470000Y-113590000D01*
D11*
X96166666Y-143202380D02*
X95833333Y-142726190D01*
X95595238Y-143202380D02*
X95595238Y-142202380D01*
X95976190Y-142202380D01*
X96071428Y-142250000D01*
X96119047Y-142297619D01*
X96166666Y-142392857D01*
X96166666Y-142535714D01*
X96119047Y-142630952D01*
X96071428Y-142678571D01*
X95976190Y-142726190D01*
X95595238Y-142726190D01*
X96595238Y-142678571D02*
X96928571Y-142678571D01*
X97071428Y-143202380D02*
X96595238Y-143202380D01*
X96595238Y-142202380D01*
X97071428Y-142202380D01*
X97833333Y-142678571D02*
X97500000Y-142678571D01*
X97500000Y-143202380D02*
X97500000Y-142202380D01*
X97976190Y-142202380D01*
X98500000Y-142202380D02*
X98500000Y-142440476D01*
X98261904Y-142345238D02*
X98500000Y-142440476D01*
X98738095Y-142345238D01*
X98357142Y-142630952D02*
X98500000Y-142440476D01*
X98642857Y-142630952D01*
X99261904Y-142202380D02*
X99261904Y-142440476D01*
X99023809Y-142345238D02*
X99261904Y-142440476D01*
X99500000Y-142345238D01*
X99119047Y-142630952D02*
X99261904Y-142440476D01*
X99404761Y-142630952D01*
X201666666Y-142952380D02*
X201333333Y-142476190D01*
X201095238Y-142952380D02*
X201095238Y-141952380D01*
X201476190Y-141952380D01*
X201571428Y-142000000D01*
X201619047Y-142047619D01*
X201666666Y-142142857D01*
X201666666Y-142285714D01*
X201619047Y-142380952D01*
X201571428Y-142428571D01*
X201476190Y-142476190D01*
X201095238Y-142476190D01*
X202095238Y-142428571D02*
X202428571Y-142428571D01*
X202571428Y-142952380D02*
X202095238Y-142952380D01*
X202095238Y-141952380D01*
X202571428Y-141952380D01*
X203333333Y-142428571D02*
X203000000Y-142428571D01*
X203000000Y-142952380D02*
X203000000Y-141952380D01*
X203476190Y-141952380D01*
X204000000Y-141952380D02*
X204000000Y-142190476D01*
X203761904Y-142095238D02*
X204000000Y-142190476D01*
X204238095Y-142095238D01*
X203857142Y-142380952D02*
X204000000Y-142190476D01*
X204142857Y-142380952D01*
X204761904Y-141952380D02*
X204761904Y-142190476D01*
X204523809Y-142095238D02*
X204761904Y-142190476D01*
X205000000Y-142095238D01*
X204619047Y-142380952D02*
X204761904Y-142190476D01*
X204904761Y-142380952D01*
X195166666Y-49752380D02*
X194833333Y-49276190D01*
X194595238Y-49752380D02*
X194595238Y-48752380D01*
X194976190Y-48752380D01*
X195071428Y-48800000D01*
X195119047Y-48847619D01*
X195166666Y-48942857D01*
X195166666Y-49085714D01*
X195119047Y-49180952D01*
X195071428Y-49228571D01*
X194976190Y-49276190D01*
X194595238Y-49276190D01*
X195595238Y-49228571D02*
X195928571Y-49228571D01*
X196071428Y-49752380D02*
X195595238Y-49752380D01*
X195595238Y-48752380D01*
X196071428Y-48752380D01*
X196833333Y-49228571D02*
X196500000Y-49228571D01*
X196500000Y-49752380D02*
X196500000Y-48752380D01*
X196976190Y-48752380D01*
X197500000Y-48752380D02*
X197500000Y-48990476D01*
X197261904Y-48895238D02*
X197500000Y-48990476D01*
X197738095Y-48895238D01*
X197357142Y-49180952D02*
X197500000Y-48990476D01*
X197642857Y-49180952D01*
X198261904Y-48752380D02*
X198261904Y-48990476D01*
X198023809Y-48895238D02*
X198261904Y-48990476D01*
X198500000Y-48895238D01*
X198119047Y-49180952D02*
X198261904Y-48990476D01*
X198404761Y-49180952D01*
X102166666Y-49752380D02*
X101833333Y-49276190D01*
X101595238Y-49752380D02*
X101595238Y-48752380D01*
X101976190Y-48752380D01*
X102071428Y-48800000D01*
X102119047Y-48847619D01*
X102166666Y-48942857D01*
X102166666Y-49085714D01*
X102119047Y-49180952D01*
X102071428Y-49228571D01*
X101976190Y-49276190D01*
X101595238Y-49276190D01*
X102595238Y-49228571D02*
X102928571Y-49228571D01*
X103071428Y-49752380D02*
X102595238Y-49752380D01*
X102595238Y-48752380D01*
X103071428Y-48752380D01*
X103833333Y-49228571D02*
X103500000Y-49228571D01*
X103500000Y-49752380D02*
X103500000Y-48752380D01*
X103976190Y-48752380D01*
X104500000Y-48752380D02*
X104500000Y-48990476D01*
X104261904Y-48895238D02*
X104500000Y-48990476D01*
X104738095Y-48895238D01*
X104357142Y-49180952D02*
X104500000Y-48990476D01*
X104642857Y-49180952D01*
X105261904Y-48752380D02*
X105261904Y-48990476D01*
X105023809Y-48895238D02*
X105261904Y-48990476D01*
X105500000Y-48895238D01*
X105119047Y-49180952D02*
X105261904Y-48990476D01*
X105404761Y-49180952D01*
X115583333Y-72907142D02*
X115535714Y-72954761D01*
X115392857Y-73002380D01*
X115297619Y-73002380D01*
X115154761Y-72954761D01*
X115059523Y-72859523D01*
X115011904Y-72764285D01*
X114964285Y-72573809D01*
X114964285Y-72430952D01*
X115011904Y-72240476D01*
X115059523Y-72145238D01*
X115154761Y-72050000D01*
X115297619Y-72002380D01*
X115392857Y-72002380D01*
X115535714Y-72050000D01*
X115583333Y-72097619D01*
X116535714Y-73002380D02*
X115964285Y-73002380D01*
X116250000Y-73002380D02*
X116250000Y-72002380D01*
X116154761Y-72145238D01*
X116059523Y-72240476D01*
X115964285Y-72288095D01*
X117383333Y-96857142D02*
X117335714Y-96904761D01*
X117192857Y-96952380D01*
X117097619Y-96952380D01*
X116954761Y-96904761D01*
X116859523Y-96809523D01*
X116811904Y-96714285D01*
X116764285Y-96523809D01*
X116764285Y-96380952D01*
X116811904Y-96190476D01*
X116859523Y-96095238D01*
X116954761Y-96000000D01*
X117097619Y-95952380D01*
X117192857Y-95952380D01*
X117335714Y-96000000D01*
X117383333Y-96047619D01*
X117764285Y-96047619D02*
X117811904Y-96000000D01*
X117907142Y-95952380D01*
X118145238Y-95952380D01*
X118240476Y-96000000D01*
X118288095Y-96047619D01*
X118335714Y-96142857D01*
X118335714Y-96238095D01*
X118288095Y-96380952D01*
X117716666Y-96952380D01*
X118335714Y-96952380D01*
X119757142Y-118816666D02*
X119804761Y-118864285D01*
X119852380Y-119007142D01*
X119852380Y-119102380D01*
X119804761Y-119245238D01*
X119709523Y-119340476D01*
X119614285Y-119388095D01*
X119423809Y-119435714D01*
X119280952Y-119435714D01*
X119090476Y-119388095D01*
X118995238Y-119340476D01*
X118900000Y-119245238D01*
X118852380Y-119102380D01*
X118852380Y-119007142D01*
X118900000Y-118864285D01*
X118947619Y-118816666D01*
X118852380Y-118483333D02*
X118852380Y-117864285D01*
X119233333Y-118197619D01*
X119233333Y-118054761D01*
X119280952Y-117959523D01*
X119328571Y-117911904D01*
X119423809Y-117864285D01*
X119661904Y-117864285D01*
X119757142Y-117911904D01*
X119804761Y-117959523D01*
X119852380Y-118054761D01*
X119852380Y-118340476D01*
X119804761Y-118435714D01*
X119757142Y-118483333D01*
X142557142Y-126866666D02*
X142604761Y-126914285D01*
X142652380Y-127057142D01*
X142652380Y-127152380D01*
X142604761Y-127295238D01*
X142509523Y-127390476D01*
X142414285Y-127438095D01*
X142223809Y-127485714D01*
X142080952Y-127485714D01*
X141890476Y-127438095D01*
X141795238Y-127390476D01*
X141700000Y-127295238D01*
X141652380Y-127152380D01*
X141652380Y-127057142D01*
X141700000Y-126914285D01*
X141747619Y-126866666D01*
X141985714Y-126009523D02*
X142652380Y-126009523D01*
X141604761Y-126247619D02*
X142319047Y-126485714D01*
X142319047Y-125866666D01*
X179383333Y-74557142D02*
X179335714Y-74604761D01*
X179192857Y-74652380D01*
X179097619Y-74652380D01*
X178954761Y-74604761D01*
X178859523Y-74509523D01*
X178811904Y-74414285D01*
X178764285Y-74223809D01*
X178764285Y-74080952D01*
X178811904Y-73890476D01*
X178859523Y-73795238D01*
X178954761Y-73700000D01*
X179097619Y-73652380D01*
X179192857Y-73652380D01*
X179335714Y-73700000D01*
X179383333Y-73747619D01*
X180288095Y-73652380D02*
X179811904Y-73652380D01*
X179764285Y-74128571D01*
X179811904Y-74080952D01*
X179907142Y-74033333D01*
X180145238Y-74033333D01*
X180240476Y-74080952D01*
X180288095Y-74128571D01*
X180335714Y-74223809D01*
X180335714Y-74461904D01*
X180288095Y-74557142D01*
X180240476Y-74604761D01*
X180145238Y-74652380D01*
X179907142Y-74652380D01*
X179811904Y-74604761D01*
X179764285Y-74557142D01*
X170657142Y-55466666D02*
X170704761Y-55514285D01*
X170752380Y-55657142D01*
X170752380Y-55752380D01*
X170704761Y-55895238D01*
X170609523Y-55990476D01*
X170514285Y-56038095D01*
X170323809Y-56085714D01*
X170180952Y-56085714D01*
X169990476Y-56038095D01*
X169895238Y-55990476D01*
X169800000Y-55895238D01*
X169752380Y-55752380D01*
X169752380Y-55657142D01*
X169800000Y-55514285D01*
X169847619Y-55466666D01*
X169752380Y-54609523D02*
X169752380Y-54800000D01*
X169800000Y-54895238D01*
X169847619Y-54942857D01*
X169990476Y-55038095D01*
X170180952Y-55085714D01*
X170561904Y-55085714D01*
X170657142Y-55038095D01*
X170704761Y-54990476D01*
X170752380Y-54895238D01*
X170752380Y-54704761D01*
X170704761Y-54609523D01*
X170657142Y-54561904D01*
X170561904Y-54514285D01*
X170323809Y-54514285D01*
X170228571Y-54561904D01*
X170180952Y-54609523D01*
X170133333Y-54704761D01*
X170133333Y-54895238D01*
X170180952Y-54990476D01*
X170228571Y-55038095D01*
X170323809Y-55085714D01*
X170707142Y-63166666D02*
X170754761Y-63214285D01*
X170802380Y-63357142D01*
X170802380Y-63452380D01*
X170754761Y-63595238D01*
X170659523Y-63690476D01*
X170564285Y-63738095D01*
X170373809Y-63785714D01*
X170230952Y-63785714D01*
X170040476Y-63738095D01*
X169945238Y-63690476D01*
X169850000Y-63595238D01*
X169802380Y-63452380D01*
X169802380Y-63357142D01*
X169850000Y-63214285D01*
X169897619Y-63166666D01*
X169802380Y-62833333D02*
X169802380Y-62166666D01*
X170802380Y-62595238D01*
X132057142Y-54816666D02*
X132104761Y-54864285D01*
X132152380Y-55007142D01*
X132152380Y-55102380D01*
X132104761Y-55245238D01*
X132009523Y-55340476D01*
X131914285Y-55388095D01*
X131723809Y-55435714D01*
X131580952Y-55435714D01*
X131390476Y-55388095D01*
X131295238Y-55340476D01*
X131200000Y-55245238D01*
X131152380Y-55102380D01*
X131152380Y-55007142D01*
X131200000Y-54864285D01*
X131247619Y-54816666D01*
X131580952Y-54245238D02*
X131533333Y-54340476D01*
X131485714Y-54388095D01*
X131390476Y-54435714D01*
X131342857Y-54435714D01*
X131247619Y-54388095D01*
X131200000Y-54340476D01*
X131152380Y-54245238D01*
X131152380Y-54054761D01*
X131200000Y-53959523D01*
X131247619Y-53911904D01*
X131342857Y-53864285D01*
X131390476Y-53864285D01*
X131485714Y-53911904D01*
X131533333Y-53959523D01*
X131580952Y-54054761D01*
X131580952Y-54245238D01*
X131628571Y-54340476D01*
X131676190Y-54388095D01*
X131771428Y-54435714D01*
X131961904Y-54435714D01*
X132057142Y-54388095D01*
X132104761Y-54340476D01*
X132152380Y-54245238D01*
X132152380Y-54054761D01*
X132104761Y-53959523D01*
X132057142Y-53911904D01*
X131961904Y-53864285D01*
X131771428Y-53864285D01*
X131676190Y-53911904D01*
X131628571Y-53959523D01*
X131580952Y-54054761D01*
X132157142Y-62816666D02*
X132204761Y-62864285D01*
X132252380Y-63007142D01*
X132252380Y-63102380D01*
X132204761Y-63245238D01*
X132109523Y-63340476D01*
X132014285Y-63388095D01*
X131823809Y-63435714D01*
X131680952Y-63435714D01*
X131490476Y-63388095D01*
X131395238Y-63340476D01*
X131300000Y-63245238D01*
X131252380Y-63102380D01*
X131252380Y-63007142D01*
X131300000Y-62864285D01*
X131347619Y-62816666D01*
X132252380Y-62340476D02*
X132252380Y-62150000D01*
X132204761Y-62054761D01*
X132157142Y-62007142D01*
X132014285Y-61911904D01*
X131823809Y-61864285D01*
X131442857Y-61864285D01*
X131347619Y-61911904D01*
X131300000Y-61959523D01*
X131252380Y-62054761D01*
X131252380Y-62245238D01*
X131300000Y-62340476D01*
X131347619Y-62388095D01*
X131442857Y-62435714D01*
X131680952Y-62435714D01*
X131776190Y-62388095D01*
X131823809Y-62340476D01*
X131871428Y-62245238D01*
X131871428Y-62054761D01*
X131823809Y-61959523D01*
X131776190Y-61911904D01*
X131680952Y-61864285D01*
X172707142Y-70242857D02*
X172754761Y-70290476D01*
X172802380Y-70433333D01*
X172802380Y-70528571D01*
X172754761Y-70671428D01*
X172659523Y-70766666D01*
X172564285Y-70814285D01*
X172373809Y-70861904D01*
X172230952Y-70861904D01*
X172040476Y-70814285D01*
X171945238Y-70766666D01*
X171850000Y-70671428D01*
X171802380Y-70528571D01*
X171802380Y-70433333D01*
X171850000Y-70290476D01*
X171897619Y-70242857D01*
X172802380Y-69290476D02*
X172802380Y-69861904D01*
X172802380Y-69576190D02*
X171802380Y-69576190D01*
X171945238Y-69671428D01*
X172040476Y-69766666D01*
X172088095Y-69861904D01*
X171802380Y-68671428D02*
X171802380Y-68576190D01*
X171850000Y-68480952D01*
X171897619Y-68433333D01*
X171992857Y-68385714D01*
X172183333Y-68338095D01*
X172421428Y-68338095D01*
X172611904Y-68385714D01*
X172707142Y-68433333D01*
X172754761Y-68480952D01*
X172802380Y-68576190D01*
X172802380Y-68671428D01*
X172754761Y-68766666D01*
X172707142Y-68814285D01*
X172611904Y-68861904D01*
X172421428Y-68909523D01*
X172183333Y-68909523D01*
X171992857Y-68861904D01*
X171897619Y-68814285D01*
X171850000Y-68766666D01*
X171802380Y-68671428D01*
X137757142Y-72292857D02*
X137804761Y-72340476D01*
X137852380Y-72483333D01*
X137852380Y-72578571D01*
X137804761Y-72721428D01*
X137709523Y-72816666D01*
X137614285Y-72864285D01*
X137423809Y-72911904D01*
X137280952Y-72911904D01*
X137090476Y-72864285D01*
X136995238Y-72816666D01*
X136900000Y-72721428D01*
X136852380Y-72578571D01*
X136852380Y-72483333D01*
X136900000Y-72340476D01*
X136947619Y-72292857D01*
X137852380Y-71340476D02*
X137852380Y-71911904D01*
X137852380Y-71626190D02*
X136852380Y-71626190D01*
X136995238Y-71721428D01*
X137090476Y-71816666D01*
X137138095Y-71911904D01*
X137852380Y-70388095D02*
X137852380Y-70959523D01*
X137852380Y-70673809D02*
X136852380Y-70673809D01*
X136995238Y-70769047D01*
X137090476Y-70864285D01*
X137138095Y-70959523D01*
X167107142Y-53242857D02*
X167154761Y-53290476D01*
X167202380Y-53433333D01*
X167202380Y-53528571D01*
X167154761Y-53671428D01*
X167059523Y-53766666D01*
X166964285Y-53814285D01*
X166773809Y-53861904D01*
X166630952Y-53861904D01*
X166440476Y-53814285D01*
X166345238Y-53766666D01*
X166250000Y-53671428D01*
X166202380Y-53528571D01*
X166202380Y-53433333D01*
X166250000Y-53290476D01*
X166297619Y-53242857D01*
X167202380Y-52290476D02*
X167202380Y-52861904D01*
X167202380Y-52576190D02*
X166202380Y-52576190D01*
X166345238Y-52671428D01*
X166440476Y-52766666D01*
X166488095Y-52861904D01*
X166297619Y-51909523D02*
X166250000Y-51861904D01*
X166202380Y-51766666D01*
X166202380Y-51528571D01*
X166250000Y-51433333D01*
X166297619Y-51385714D01*
X166392857Y-51338095D01*
X166488095Y-51338095D01*
X166630952Y-51385714D01*
X167202380Y-51957142D01*
X167202380Y-51338095D01*
X143557142Y-53492857D02*
X143604761Y-53540476D01*
X143652380Y-53683333D01*
X143652380Y-53778571D01*
X143604761Y-53921428D01*
X143509523Y-54016666D01*
X143414285Y-54064285D01*
X143223809Y-54111904D01*
X143080952Y-54111904D01*
X142890476Y-54064285D01*
X142795238Y-54016666D01*
X142700000Y-53921428D01*
X142652380Y-53778571D01*
X142652380Y-53683333D01*
X142700000Y-53540476D01*
X142747619Y-53492857D01*
X143652380Y-52540476D02*
X143652380Y-53111904D01*
X143652380Y-52826190D02*
X142652380Y-52826190D01*
X142795238Y-52921428D01*
X142890476Y-53016666D01*
X142938095Y-53111904D01*
X142652380Y-52207142D02*
X142652380Y-51588095D01*
X143033333Y-51921428D01*
X143033333Y-51778571D01*
X143080952Y-51683333D01*
X143128571Y-51635714D01*
X143223809Y-51588095D01*
X143461904Y-51588095D01*
X143557142Y-51635714D01*
X143604761Y-51683333D01*
X143652380Y-51778571D01*
X143652380Y-52064285D01*
X143604761Y-52159523D01*
X143557142Y-52207142D01*
X149191904Y-93812380D02*
X149191904Y-92812380D01*
X149430000Y-92812380D01*
X149572857Y-92860000D01*
X149668095Y-92955238D01*
X149715714Y-93050476D01*
X149763333Y-93240952D01*
X149763333Y-93383809D01*
X149715714Y-93574285D01*
X149668095Y-93669523D01*
X149572857Y-93764761D01*
X149430000Y-93812380D01*
X149191904Y-93812380D01*
X150715714Y-93812380D02*
X150144285Y-93812380D01*
X150430000Y-93812380D02*
X150430000Y-92812380D01*
X150334761Y-92955238D01*
X150239523Y-93050476D01*
X150144285Y-93098095D01*
X149161904Y-111752380D02*
X149161904Y-110752380D01*
X149400000Y-110752380D01*
X149542857Y-110800000D01*
X149638095Y-110895238D01*
X149685714Y-110990476D01*
X149733333Y-111180952D01*
X149733333Y-111323809D01*
X149685714Y-111514285D01*
X149638095Y-111609523D01*
X149542857Y-111704761D01*
X149400000Y-111752380D01*
X149161904Y-111752380D01*
X150114285Y-110847619D02*
X150161904Y-110800000D01*
X150257142Y-110752380D01*
X150495238Y-110752380D01*
X150590476Y-110800000D01*
X150638095Y-110847619D01*
X150685714Y-110942857D01*
X150685714Y-111038095D01*
X150638095Y-111180952D01*
X150066666Y-111752380D01*
X150685714Y-111752380D01*
X153738095Y-113602380D02*
X153738095Y-112602380D01*
X154309523Y-113602380D02*
X153880952Y-113030952D01*
X154309523Y-112602380D02*
X153738095Y-113173809D01*
X149211904Y-115502380D02*
X149211904Y-114502380D01*
X149450000Y-114502380D01*
X149592857Y-114550000D01*
X149688095Y-114645238D01*
X149735714Y-114740476D01*
X149783333Y-114930952D01*
X149783333Y-115073809D01*
X149735714Y-115264285D01*
X149688095Y-115359523D01*
X149592857Y-115454761D01*
X149450000Y-115502380D01*
X149211904Y-115502380D01*
X150116666Y-114502380D02*
X150735714Y-114502380D01*
X150402380Y-114883333D01*
X150545238Y-114883333D01*
X150640476Y-114930952D01*
X150688095Y-114978571D01*
X150735714Y-115073809D01*
X150735714Y-115311904D01*
X150688095Y-115407142D01*
X150640476Y-115454761D01*
X150545238Y-115502380D01*
X150259523Y-115502380D01*
X150164285Y-115454761D01*
X150116666Y-115407142D01*
X153738095Y-117352380D02*
X153738095Y-116352380D01*
X154309523Y-117352380D02*
X153880952Y-116780952D01*
X154309523Y-116352380D02*
X153738095Y-116923809D01*
X155811904Y-69452380D02*
X155811904Y-68452380D01*
X156050000Y-68452380D01*
X156192857Y-68500000D01*
X156288095Y-68595238D01*
X156335714Y-68690476D01*
X156383333Y-68880952D01*
X156383333Y-69023809D01*
X156335714Y-69214285D01*
X156288095Y-69309523D01*
X156192857Y-69404761D01*
X156050000Y-69452380D01*
X155811904Y-69452380D01*
X157240476Y-68785714D02*
X157240476Y-69452380D01*
X157002380Y-68404761D02*
X156764285Y-69119047D01*
X157383333Y-69119047D01*
X161538095Y-71252380D02*
X161538095Y-70252380D01*
X162109523Y-71252380D02*
X161680952Y-70680952D01*
X162109523Y-70252380D02*
X161538095Y-70823809D01*
X142111904Y-69502380D02*
X142111904Y-68502380D01*
X142350000Y-68502380D01*
X142492857Y-68550000D01*
X142588095Y-68645238D01*
X142635714Y-68740476D01*
X142683333Y-68930952D01*
X142683333Y-69073809D01*
X142635714Y-69264285D01*
X142588095Y-69359523D01*
X142492857Y-69454761D01*
X142350000Y-69502380D01*
X142111904Y-69502380D01*
X143588095Y-68502380D02*
X143111904Y-68502380D01*
X143064285Y-68978571D01*
X143111904Y-68930952D01*
X143207142Y-68883333D01*
X143445238Y-68883333D01*
X143540476Y-68930952D01*
X143588095Y-68978571D01*
X143635714Y-69073809D01*
X143635714Y-69311904D01*
X143588095Y-69407142D01*
X143540476Y-69454761D01*
X143445238Y-69502380D01*
X143207142Y-69502380D01*
X143111904Y-69454761D01*
X143064285Y-69407142D01*
X147938095Y-71252380D02*
X147938095Y-70252380D01*
X148509523Y-71252380D02*
X148080952Y-70680952D01*
X148509523Y-70252380D02*
X147938095Y-70823809D01*
X198102380Y-115438095D02*
X197102380Y-115438095D01*
X197102380Y-115200000D01*
X197150000Y-115057142D01*
X197245238Y-114961904D01*
X197340476Y-114914285D01*
X197530952Y-114866666D01*
X197673809Y-114866666D01*
X197864285Y-114914285D01*
X197959523Y-114961904D01*
X198054761Y-115057142D01*
X198102380Y-115200000D01*
X198102380Y-115438095D01*
X197102380Y-114009523D02*
X197102380Y-114200000D01*
X197150000Y-114295238D01*
X197197619Y-114342857D01*
X197340476Y-114438095D01*
X197530952Y-114485714D01*
X197911904Y-114485714D01*
X198007142Y-114438095D01*
X198054761Y-114390476D01*
X198102380Y-114295238D01*
X198102380Y-114104761D01*
X198054761Y-114009523D01*
X198007142Y-113961904D01*
X197911904Y-113914285D01*
X197673809Y-113914285D01*
X197578571Y-113961904D01*
X197530952Y-114009523D01*
X197483333Y-114104761D01*
X197483333Y-114295238D01*
X197530952Y-114390476D01*
X197578571Y-114438095D01*
X197673809Y-114485714D01*
X199952380Y-110911904D02*
X198952380Y-110911904D01*
X199952380Y-110340476D02*
X199380952Y-110769047D01*
X198952380Y-110340476D02*
X199523809Y-110911904D01*
X194002380Y-115438095D02*
X193002380Y-115438095D01*
X193002380Y-115200000D01*
X193050000Y-115057142D01*
X193145238Y-114961904D01*
X193240476Y-114914285D01*
X193430952Y-114866666D01*
X193573809Y-114866666D01*
X193764285Y-114914285D01*
X193859523Y-114961904D01*
X193954761Y-115057142D01*
X194002380Y-115200000D01*
X194002380Y-115438095D01*
X193002380Y-114533333D02*
X193002380Y-113866666D01*
X194002380Y-114295238D01*
X195752380Y-110911904D02*
X194752380Y-110911904D01*
X195752380Y-110340476D02*
X195180952Y-110769047D01*
X194752380Y-110340476D02*
X195323809Y-110911904D01*
D14*
X107416190Y-55151597D02*
X107416190Y-55866905D01*
X107368502Y-56009966D01*
X107273128Y-56105340D01*
X107130067Y-56153027D01*
X107034692Y-56153027D01*
X108417620Y-56153027D02*
X107845374Y-56153027D01*
X108131497Y-56153027D02*
X108131497Y-55151597D01*
X108036122Y-55294659D01*
X107940748Y-55390033D01*
X107845374Y-55437720D01*
D11*
X138372380Y-77413333D02*
X139086666Y-77413333D01*
X139229523Y-77460952D01*
X139324761Y-77556190D01*
X139372380Y-77699047D01*
X139372380Y-77794285D01*
X138467619Y-76984761D02*
X138420000Y-76937142D01*
X138372380Y-76841904D01*
X138372380Y-76603809D01*
X138420000Y-76508571D01*
X138467619Y-76460952D01*
X138562857Y-76413333D01*
X138658095Y-76413333D01*
X138800952Y-76460952D01*
X139372380Y-77032380D01*
X139372380Y-76413333D01*
X107886666Y-131782380D02*
X107886666Y-132496666D01*
X107839047Y-132639523D01*
X107743809Y-132734761D01*
X107600952Y-132782380D01*
X107505714Y-132782380D01*
X108267619Y-131782380D02*
X108886666Y-131782380D01*
X108553333Y-132163333D01*
X108696190Y-132163333D01*
X108791428Y-132210952D01*
X108839047Y-132258571D01*
X108886666Y-132353809D01*
X108886666Y-132591904D01*
X108839047Y-132687142D01*
X108791428Y-132734761D01*
X108696190Y-132782380D01*
X108410476Y-132782380D01*
X108315238Y-132734761D01*
X108267619Y-132687142D01*
X183386666Y-132282380D02*
X183386666Y-132996666D01*
X183339047Y-133139523D01*
X183243809Y-133234761D01*
X183100952Y-133282380D01*
X183005714Y-133282380D01*
X184291428Y-132615714D02*
X184291428Y-133282380D01*
X184053333Y-132234761D02*
X183815238Y-132949047D01*
X184434285Y-132949047D01*
X145786666Y-120582380D02*
X145786666Y-121296666D01*
X145739047Y-121439523D01*
X145643809Y-121534761D01*
X145500952Y-121582380D01*
X145405714Y-121582380D01*
X146739047Y-120582380D02*
X146262857Y-120582380D01*
X146215238Y-121058571D01*
X146262857Y-121010952D01*
X146358095Y-120963333D01*
X146596190Y-120963333D01*
X146691428Y-121010952D01*
X146739047Y-121058571D01*
X146786666Y-121153809D01*
X146786666Y-121391904D01*
X146739047Y-121487142D01*
X146691428Y-121534761D01*
X146596190Y-121582380D01*
X146358095Y-121582380D01*
X146262857Y-121534761D01*
X146215238Y-121487142D01*
D14*
X184572150Y-53457717D02*
X184572150Y-54173025D01*
X184524462Y-54316086D01*
X184429088Y-54411460D01*
X184286027Y-54459147D01*
X184190652Y-54459147D01*
X185478205Y-53457717D02*
X185287457Y-53457717D01*
X185192082Y-53505405D01*
X185144395Y-53553092D01*
X185049021Y-53696153D01*
X185001334Y-53886902D01*
X185001334Y-54268399D01*
X185049021Y-54363773D01*
X185096708Y-54411460D01*
X185192082Y-54459147D01*
X185382831Y-54459147D01*
X185478205Y-54411460D01*
X185525892Y-54363773D01*
X185573580Y-54268399D01*
X185573580Y-54029963D01*
X185525892Y-53934589D01*
X185478205Y-53886902D01*
X185382831Y-53839215D01*
X185192082Y-53839215D01*
X185096708Y-53886902D01*
X185049021Y-53934589D01*
X185001334Y-54029963D01*
D11*
X152452380Y-57583333D02*
X153166666Y-57583333D01*
X153309523Y-57630952D01*
X153404761Y-57726190D01*
X153452380Y-57869047D01*
X153452380Y-57964285D01*
X152452380Y-57202380D02*
X152452380Y-56535714D01*
X153452380Y-56964285D01*
X128382380Y-52983333D02*
X129096666Y-52983333D01*
X129239523Y-53030952D01*
X129334761Y-53126190D01*
X129382380Y-53269047D01*
X129382380Y-53364285D01*
X128810952Y-52364285D02*
X128763333Y-52459523D01*
X128715714Y-52507142D01*
X128620476Y-52554761D01*
X128572857Y-52554761D01*
X128477619Y-52507142D01*
X128430000Y-52459523D01*
X128382380Y-52364285D01*
X128382380Y-52173809D01*
X128430000Y-52078571D01*
X128477619Y-52030952D01*
X128572857Y-51983333D01*
X128620476Y-51983333D01*
X128715714Y-52030952D01*
X128763333Y-52078571D01*
X128810952Y-52173809D01*
X128810952Y-52364285D01*
X128858571Y-52459523D01*
X128906190Y-52507142D01*
X129001428Y-52554761D01*
X129191904Y-52554761D01*
X129287142Y-52507142D01*
X129334761Y-52459523D01*
X129382380Y-52364285D01*
X129382380Y-52173809D01*
X129334761Y-52078571D01*
X129287142Y-52030952D01*
X129191904Y-51983333D01*
X129001428Y-51983333D01*
X128906190Y-52030952D01*
X128858571Y-52078571D01*
X128810952Y-52173809D01*
D14*
X194116190Y-136551597D02*
X194116190Y-137266905D01*
X194068502Y-137409966D01*
X193973128Y-137505340D01*
X193830067Y-137553027D01*
X193734692Y-137553027D01*
X194640748Y-137553027D02*
X194831497Y-137553027D01*
X194926871Y-137505340D01*
X194974558Y-137457653D01*
X195069932Y-137314592D01*
X195117620Y-137123843D01*
X195117620Y-136742346D01*
X195069932Y-136646972D01*
X195022245Y-136599285D01*
X194926871Y-136551597D01*
X194736122Y-136551597D01*
X194640748Y-136599285D01*
X194593061Y-136646972D01*
X194545374Y-136742346D01*
X194545374Y-136980782D01*
X194593061Y-137076156D01*
X194640748Y-137123843D01*
X194736122Y-137171530D01*
X194926871Y-137171530D01*
X195022245Y-137123843D01*
X195069932Y-137076156D01*
X195117620Y-136980782D01*
X118139318Y-134501597D02*
X118139318Y-135216905D01*
X118091631Y-135359966D01*
X117996257Y-135455340D01*
X117853195Y-135503027D01*
X117757821Y-135503027D01*
X119140748Y-135503027D02*
X118568502Y-135503027D01*
X118854625Y-135503027D02*
X118854625Y-134501597D01*
X118759251Y-134644659D01*
X118663877Y-134740033D01*
X118568502Y-134787720D01*
X119760681Y-134501597D02*
X119856055Y-134501597D01*
X119951430Y-134549285D01*
X119999117Y-134596972D01*
X120046804Y-134692346D01*
X120094491Y-134883095D01*
X120094491Y-135121530D01*
X120046804Y-135312279D01*
X119999117Y-135407653D01*
X119951430Y-135455340D01*
X119856055Y-135503027D01*
X119760681Y-135503027D01*
X119665307Y-135455340D01*
X119617620Y-135407653D01*
X119569932Y-135312279D01*
X119522245Y-135121530D01*
X119522245Y-134883095D01*
X119569932Y-134692346D01*
X119617620Y-134596972D01*
X119665307Y-134549285D01*
X119760681Y-134501597D01*
D11*
X105843333Y-72902380D02*
X105510000Y-72426190D01*
X105271904Y-72902380D02*
X105271904Y-71902380D01*
X105652857Y-71902380D01*
X105748095Y-71950000D01*
X105795714Y-71997619D01*
X105843333Y-72092857D01*
X105843333Y-72235714D01*
X105795714Y-72330952D01*
X105748095Y-72378571D01*
X105652857Y-72426190D01*
X105271904Y-72426190D01*
X106795714Y-72902380D02*
X106224285Y-72902380D01*
X106510000Y-72902380D02*
X106510000Y-71902380D01*
X106414761Y-72045238D01*
X106319523Y-72140476D01*
X106224285Y-72188095D01*
X105983333Y-76752380D02*
X105650000Y-76276190D01*
X105411904Y-76752380D02*
X105411904Y-75752380D01*
X105792857Y-75752380D01*
X105888095Y-75800000D01*
X105935714Y-75847619D01*
X105983333Y-75942857D01*
X105983333Y-76085714D01*
X105935714Y-76180952D01*
X105888095Y-76228571D01*
X105792857Y-76276190D01*
X105411904Y-76276190D01*
X106364285Y-75847619D02*
X106411904Y-75800000D01*
X106507142Y-75752380D01*
X106745238Y-75752380D01*
X106840476Y-75800000D01*
X106888095Y-75847619D01*
X106935714Y-75942857D01*
X106935714Y-76038095D01*
X106888095Y-76180952D01*
X106316666Y-76752380D01*
X106935714Y-76752380D01*
X175502380Y-125866666D02*
X175026190Y-126200000D01*
X175502380Y-126438095D02*
X174502380Y-126438095D01*
X174502380Y-126057142D01*
X174550000Y-125961904D01*
X174597619Y-125914285D01*
X174692857Y-125866666D01*
X174835714Y-125866666D01*
X174930952Y-125914285D01*
X174978571Y-125961904D01*
X175026190Y-126057142D01*
X175026190Y-126438095D01*
X174502380Y-125533333D02*
X174502380Y-124914285D01*
X174883333Y-125247619D01*
X174883333Y-125104761D01*
X174930952Y-125009523D01*
X174978571Y-124961904D01*
X175073809Y-124914285D01*
X175311904Y-124914285D01*
X175407142Y-124961904D01*
X175454761Y-125009523D01*
X175502380Y-125104761D01*
X175502380Y-125390476D01*
X175454761Y-125485714D01*
X175407142Y-125533333D01*
X105933333Y-80602380D02*
X105600000Y-80126190D01*
X105361904Y-80602380D02*
X105361904Y-79602380D01*
X105742857Y-79602380D01*
X105838095Y-79650000D01*
X105885714Y-79697619D01*
X105933333Y-79792857D01*
X105933333Y-79935714D01*
X105885714Y-80030952D01*
X105838095Y-80078571D01*
X105742857Y-80126190D01*
X105361904Y-80126190D01*
X106790476Y-79935714D02*
X106790476Y-80602380D01*
X106552380Y-79554761D02*
X106314285Y-80269047D01*
X106933333Y-80269047D01*
X155602380Y-89116666D02*
X155126190Y-89450000D01*
X155602380Y-89688095D02*
X154602380Y-89688095D01*
X154602380Y-89307142D01*
X154650000Y-89211904D01*
X154697619Y-89164285D01*
X154792857Y-89116666D01*
X154935714Y-89116666D01*
X155030952Y-89164285D01*
X155078571Y-89211904D01*
X155126190Y-89307142D01*
X155126190Y-89688095D01*
X154602380Y-88211904D02*
X154602380Y-88688095D01*
X155078571Y-88735714D01*
X155030952Y-88688095D01*
X154983333Y-88592857D01*
X154983333Y-88354761D01*
X155030952Y-88259523D01*
X155078571Y-88211904D01*
X155173809Y-88164285D01*
X155411904Y-88164285D01*
X155507142Y-88211904D01*
X155554761Y-88259523D01*
X155602380Y-88354761D01*
X155602380Y-88592857D01*
X155554761Y-88688095D01*
X155507142Y-88735714D01*
X128783333Y-87452380D02*
X128450000Y-86976190D01*
X128211904Y-87452380D02*
X128211904Y-86452380D01*
X128592857Y-86452380D01*
X128688095Y-86500000D01*
X128735714Y-86547619D01*
X128783333Y-86642857D01*
X128783333Y-86785714D01*
X128735714Y-86880952D01*
X128688095Y-86928571D01*
X128592857Y-86976190D01*
X128211904Y-86976190D01*
X129640476Y-86452380D02*
X129450000Y-86452380D01*
X129354761Y-86500000D01*
X129307142Y-86547619D01*
X129211904Y-86690476D01*
X129164285Y-86880952D01*
X129164285Y-87261904D01*
X129211904Y-87357142D01*
X129259523Y-87404761D01*
X129354761Y-87452380D01*
X129545238Y-87452380D01*
X129640476Y-87404761D01*
X129688095Y-87357142D01*
X129735714Y-87261904D01*
X129735714Y-87023809D01*
X129688095Y-86928571D01*
X129640476Y-86880952D01*
X129545238Y-86833333D01*
X129354761Y-86833333D01*
X129259523Y-86880952D01*
X129211904Y-86928571D01*
X129164285Y-87023809D01*
X106083333Y-96852380D02*
X105750000Y-96376190D01*
X105511904Y-96852380D02*
X105511904Y-95852380D01*
X105892857Y-95852380D01*
X105988095Y-95900000D01*
X106035714Y-95947619D01*
X106083333Y-96042857D01*
X106083333Y-96185714D01*
X106035714Y-96280952D01*
X105988095Y-96328571D01*
X105892857Y-96376190D01*
X105511904Y-96376190D01*
X106416666Y-95852380D02*
X107083333Y-95852380D01*
X106654761Y-96852380D01*
X128933333Y-90852380D02*
X128600000Y-90376190D01*
X128361904Y-90852380D02*
X128361904Y-89852380D01*
X128742857Y-89852380D01*
X128838095Y-89900000D01*
X128885714Y-89947619D01*
X128933333Y-90042857D01*
X128933333Y-90185714D01*
X128885714Y-90280952D01*
X128838095Y-90328571D01*
X128742857Y-90376190D01*
X128361904Y-90376190D01*
X129504761Y-90280952D02*
X129409523Y-90233333D01*
X129361904Y-90185714D01*
X129314285Y-90090476D01*
X129314285Y-90042857D01*
X129361904Y-89947619D01*
X129409523Y-89900000D01*
X129504761Y-89852380D01*
X129695238Y-89852380D01*
X129790476Y-89900000D01*
X129838095Y-89947619D01*
X129885714Y-90042857D01*
X129885714Y-90090476D01*
X129838095Y-90185714D01*
X129790476Y-90233333D01*
X129695238Y-90280952D01*
X129504761Y-90280952D01*
X129409523Y-90328571D01*
X129361904Y-90376190D01*
X129314285Y-90471428D01*
X129314285Y-90661904D01*
X129361904Y-90757142D01*
X129409523Y-90804761D01*
X129504761Y-90852380D01*
X129695238Y-90852380D01*
X129790476Y-90804761D01*
X129838095Y-90757142D01*
X129885714Y-90661904D01*
X129885714Y-90471428D01*
X129838095Y-90376190D01*
X129790476Y-90328571D01*
X129695238Y-90280952D01*
X138652380Y-128066666D02*
X138176190Y-128400000D01*
X138652380Y-128638095D02*
X137652380Y-128638095D01*
X137652380Y-128257142D01*
X137700000Y-128161904D01*
X137747619Y-128114285D01*
X137842857Y-128066666D01*
X137985714Y-128066666D01*
X138080952Y-128114285D01*
X138128571Y-128161904D01*
X138176190Y-128257142D01*
X138176190Y-128638095D01*
X138652380Y-127590476D02*
X138652380Y-127400000D01*
X138604761Y-127304761D01*
X138557142Y-127257142D01*
X138414285Y-127161904D01*
X138223809Y-127114285D01*
X137842857Y-127114285D01*
X137747619Y-127161904D01*
X137700000Y-127209523D01*
X137652380Y-127304761D01*
X137652380Y-127495238D01*
X137700000Y-127590476D01*
X137747619Y-127638095D01*
X137842857Y-127685714D01*
X138080952Y-127685714D01*
X138176190Y-127638095D01*
X138223809Y-127590476D01*
X138271428Y-127495238D01*
X138271428Y-127304761D01*
X138223809Y-127209523D01*
X138176190Y-127161904D01*
X138080952Y-127114285D01*
X105707142Y-100902380D02*
X105373809Y-100426190D01*
X105135714Y-100902380D02*
X105135714Y-99902380D01*
X105516666Y-99902380D01*
X105611904Y-99950000D01*
X105659523Y-99997619D01*
X105707142Y-100092857D01*
X105707142Y-100235714D01*
X105659523Y-100330952D01*
X105611904Y-100378571D01*
X105516666Y-100426190D01*
X105135714Y-100426190D01*
X106659523Y-100902380D02*
X106088095Y-100902380D01*
X106373809Y-100902380D02*
X106373809Y-99902380D01*
X106278571Y-100045238D01*
X106183333Y-100140476D01*
X106088095Y-100188095D01*
X107278571Y-99902380D02*
X107373809Y-99902380D01*
X107469047Y-99950000D01*
X107516666Y-99997619D01*
X107564285Y-100092857D01*
X107611904Y-100283333D01*
X107611904Y-100521428D01*
X107564285Y-100711904D01*
X107516666Y-100807142D01*
X107469047Y-100854761D01*
X107373809Y-100902380D01*
X107278571Y-100902380D01*
X107183333Y-100854761D01*
X107135714Y-100807142D01*
X107088095Y-100711904D01*
X107040476Y-100521428D01*
X107040476Y-100283333D01*
X107088095Y-100092857D01*
X107135714Y-99997619D01*
X107183333Y-99950000D01*
X107278571Y-99902380D01*
X159902380Y-89442857D02*
X159426190Y-89776190D01*
X159902380Y-90014285D02*
X158902380Y-90014285D01*
X158902380Y-89633333D01*
X158950000Y-89538095D01*
X158997619Y-89490476D01*
X159092857Y-89442857D01*
X159235714Y-89442857D01*
X159330952Y-89490476D01*
X159378571Y-89538095D01*
X159426190Y-89633333D01*
X159426190Y-90014285D01*
X159902380Y-88490476D02*
X159902380Y-89061904D01*
X159902380Y-88776190D02*
X158902380Y-88776190D01*
X159045238Y-88871428D01*
X159140476Y-88966666D01*
X159188095Y-89061904D01*
X159902380Y-87538095D02*
X159902380Y-88109523D01*
X159902380Y-87823809D02*
X158902380Y-87823809D01*
X159045238Y-87919047D01*
X159140476Y-88014285D01*
X159188095Y-88109523D01*
X193902380Y-103142857D02*
X193426190Y-103476190D01*
X193902380Y-103714285D02*
X192902380Y-103714285D01*
X192902380Y-103333333D01*
X192950000Y-103238095D01*
X192997619Y-103190476D01*
X193092857Y-103142857D01*
X193235714Y-103142857D01*
X193330952Y-103190476D01*
X193378571Y-103238095D01*
X193426190Y-103333333D01*
X193426190Y-103714285D01*
X193902380Y-102190476D02*
X193902380Y-102761904D01*
X193902380Y-102476190D02*
X192902380Y-102476190D01*
X193045238Y-102571428D01*
X193140476Y-102666666D01*
X193188095Y-102761904D01*
X192997619Y-101809523D02*
X192950000Y-101761904D01*
X192902380Y-101666666D01*
X192902380Y-101428571D01*
X192950000Y-101333333D01*
X192997619Y-101285714D01*
X193092857Y-101238095D01*
X193188095Y-101238095D01*
X193330952Y-101285714D01*
X193902380Y-101857142D01*
X193902380Y-101238095D01*
X198202380Y-127942857D02*
X197726190Y-128276190D01*
X198202380Y-128514285D02*
X197202380Y-128514285D01*
X197202380Y-128133333D01*
X197250000Y-128038095D01*
X197297619Y-127990476D01*
X197392857Y-127942857D01*
X197535714Y-127942857D01*
X197630952Y-127990476D01*
X197678571Y-128038095D01*
X197726190Y-128133333D01*
X197726190Y-128514285D01*
X198202380Y-126990476D02*
X198202380Y-127561904D01*
X198202380Y-127276190D02*
X197202380Y-127276190D01*
X197345238Y-127371428D01*
X197440476Y-127466666D01*
X197488095Y-127561904D01*
X197202380Y-126657142D02*
X197202380Y-126038095D01*
X197583333Y-126371428D01*
X197583333Y-126228571D01*
X197630952Y-126133333D01*
X197678571Y-126085714D01*
X197773809Y-126038095D01*
X198011904Y-126038095D01*
X198107142Y-126085714D01*
X198154761Y-126133333D01*
X198202380Y-126228571D01*
X198202380Y-126514285D01*
X198154761Y-126609523D01*
X198107142Y-126657142D01*
X184057142Y-106102380D02*
X183723809Y-105626190D01*
X183485714Y-106102380D02*
X183485714Y-105102380D01*
X183866666Y-105102380D01*
X183961904Y-105150000D01*
X184009523Y-105197619D01*
X184057142Y-105292857D01*
X184057142Y-105435714D01*
X184009523Y-105530952D01*
X183961904Y-105578571D01*
X183866666Y-105626190D01*
X183485714Y-105626190D01*
X185009523Y-106102380D02*
X184438095Y-106102380D01*
X184723809Y-106102380D02*
X184723809Y-105102380D01*
X184628571Y-105245238D01*
X184533333Y-105340476D01*
X184438095Y-105388095D01*
X185866666Y-105435714D02*
X185866666Y-106102380D01*
X185628571Y-105054761D02*
X185390476Y-105769047D01*
X186009523Y-105769047D01*
X188907142Y-96402380D02*
X188573809Y-95926190D01*
X188335714Y-96402380D02*
X188335714Y-95402380D01*
X188716666Y-95402380D01*
X188811904Y-95450000D01*
X188859523Y-95497619D01*
X188907142Y-95592857D01*
X188907142Y-95735714D01*
X188859523Y-95830952D01*
X188811904Y-95878571D01*
X188716666Y-95926190D01*
X188335714Y-95926190D01*
X189859523Y-96402380D02*
X189288095Y-96402380D01*
X189573809Y-96402380D02*
X189573809Y-95402380D01*
X189478571Y-95545238D01*
X189383333Y-95640476D01*
X189288095Y-95688095D01*
X190764285Y-95402380D02*
X190288095Y-95402380D01*
X190240476Y-95878571D01*
X190288095Y-95830952D01*
X190383333Y-95783333D01*
X190621428Y-95783333D01*
X190716666Y-95830952D01*
X190764285Y-95878571D01*
X190811904Y-95973809D01*
X190811904Y-96211904D01*
X190764285Y-96307142D01*
X190716666Y-96354761D01*
X190621428Y-96402380D01*
X190383333Y-96402380D01*
X190288095Y-96354761D01*
X190240476Y-96307142D01*
X167002380Y-115442857D02*
X166526190Y-115776190D01*
X167002380Y-116014285D02*
X166002380Y-116014285D01*
X166002380Y-115633333D01*
X166050000Y-115538095D01*
X166097619Y-115490476D01*
X166192857Y-115442857D01*
X166335714Y-115442857D01*
X166430952Y-115490476D01*
X166478571Y-115538095D01*
X166526190Y-115633333D01*
X166526190Y-116014285D01*
X167002380Y-114490476D02*
X167002380Y-115061904D01*
X167002380Y-114776190D02*
X166002380Y-114776190D01*
X166145238Y-114871428D01*
X166240476Y-114966666D01*
X166288095Y-115061904D01*
X166002380Y-113633333D02*
X166002380Y-113823809D01*
X166050000Y-113919047D01*
X166097619Y-113966666D01*
X166240476Y-114061904D01*
X166430952Y-114109523D01*
X166811904Y-114109523D01*
X166907142Y-114061904D01*
X166954761Y-114014285D01*
X167002380Y-113919047D01*
X167002380Y-113728571D01*
X166954761Y-113633333D01*
X166907142Y-113585714D01*
X166811904Y-113538095D01*
X166573809Y-113538095D01*
X166478571Y-113585714D01*
X166430952Y-113633333D01*
X166383333Y-113728571D01*
X166383333Y-113919047D01*
X166430952Y-114014285D01*
X166478571Y-114061904D01*
X166573809Y-114109523D01*
X188857142Y-74552380D02*
X188523809Y-74076190D01*
X188285714Y-74552380D02*
X188285714Y-73552380D01*
X188666666Y-73552380D01*
X188761904Y-73600000D01*
X188809523Y-73647619D01*
X188857142Y-73742857D01*
X188857142Y-73885714D01*
X188809523Y-73980952D01*
X188761904Y-74028571D01*
X188666666Y-74076190D01*
X188285714Y-74076190D01*
X189809523Y-74552380D02*
X189238095Y-74552380D01*
X189523809Y-74552380D02*
X189523809Y-73552380D01*
X189428571Y-73695238D01*
X189333333Y-73790476D01*
X189238095Y-73838095D01*
X190142857Y-73552380D02*
X190809523Y-73552380D01*
X190380952Y-74552380D01*
X164252380Y-89642857D02*
X163776190Y-89976190D01*
X164252380Y-90214285D02*
X163252380Y-90214285D01*
X163252380Y-89833333D01*
X163300000Y-89738095D01*
X163347619Y-89690476D01*
X163442857Y-89642857D01*
X163585714Y-89642857D01*
X163680952Y-89690476D01*
X163728571Y-89738095D01*
X163776190Y-89833333D01*
X163776190Y-90214285D01*
X164252380Y-88690476D02*
X164252380Y-89261904D01*
X164252380Y-88976190D02*
X163252380Y-88976190D01*
X163395238Y-89071428D01*
X163490476Y-89166666D01*
X163538095Y-89261904D01*
X163680952Y-88119047D02*
X163633333Y-88214285D01*
X163585714Y-88261904D01*
X163490476Y-88309523D01*
X163442857Y-88309523D01*
X163347619Y-88261904D01*
X163300000Y-88214285D01*
X163252380Y-88119047D01*
X163252380Y-87928571D01*
X163300000Y-87833333D01*
X163347619Y-87785714D01*
X163442857Y-87738095D01*
X163490476Y-87738095D01*
X163585714Y-87785714D01*
X163633333Y-87833333D01*
X163680952Y-87928571D01*
X163680952Y-88119047D01*
X163728571Y-88214285D01*
X163776190Y-88261904D01*
X163871428Y-88309523D01*
X164061904Y-88309523D01*
X164157142Y-88261904D01*
X164204761Y-88214285D01*
X164252380Y-88119047D01*
X164252380Y-87928571D01*
X164204761Y-87833333D01*
X164157142Y-87785714D01*
X164061904Y-87738095D01*
X163871428Y-87738095D01*
X163776190Y-87785714D01*
X163728571Y-87833333D01*
X163680952Y-87928571D01*
X188757142Y-78402380D02*
X188423809Y-77926190D01*
X188185714Y-78402380D02*
X188185714Y-77402380D01*
X188566666Y-77402380D01*
X188661904Y-77450000D01*
X188709523Y-77497619D01*
X188757142Y-77592857D01*
X188757142Y-77735714D01*
X188709523Y-77830952D01*
X188661904Y-77878571D01*
X188566666Y-77926190D01*
X188185714Y-77926190D01*
X189709523Y-78402380D02*
X189138095Y-78402380D01*
X189423809Y-78402380D02*
X189423809Y-77402380D01*
X189328571Y-77545238D01*
X189233333Y-77640476D01*
X189138095Y-77688095D01*
X190185714Y-78402380D02*
X190376190Y-78402380D01*
X190471428Y-78354761D01*
X190519047Y-78307142D01*
X190614285Y-78164285D01*
X190661904Y-77973809D01*
X190661904Y-77592857D01*
X190614285Y-77497619D01*
X190566666Y-77450000D01*
X190471428Y-77402380D01*
X190280952Y-77402380D01*
X190185714Y-77450000D01*
X190138095Y-77497619D01*
X190090476Y-77592857D01*
X190090476Y-77830952D01*
X190138095Y-77926190D01*
X190185714Y-77973809D01*
X190280952Y-78021428D01*
X190471428Y-78021428D01*
X190566666Y-77973809D01*
X190614285Y-77926190D01*
X190661904Y-77830952D01*
X188707142Y-70752380D02*
X188373809Y-70276190D01*
X188135714Y-70752380D02*
X188135714Y-69752380D01*
X188516666Y-69752380D01*
X188611904Y-69800000D01*
X188659523Y-69847619D01*
X188707142Y-69942857D01*
X188707142Y-70085714D01*
X188659523Y-70180952D01*
X188611904Y-70228571D01*
X188516666Y-70276190D01*
X188135714Y-70276190D01*
X189088095Y-69847619D02*
X189135714Y-69800000D01*
X189230952Y-69752380D01*
X189469047Y-69752380D01*
X189564285Y-69800000D01*
X189611904Y-69847619D01*
X189659523Y-69942857D01*
X189659523Y-70038095D01*
X189611904Y-70180952D01*
X189040476Y-70752380D01*
X189659523Y-70752380D01*
X190278571Y-69752380D02*
X190373809Y-69752380D01*
X190469047Y-69800000D01*
X190516666Y-69847619D01*
X190564285Y-69942857D01*
X190611904Y-70133333D01*
X190611904Y-70371428D01*
X190564285Y-70561904D01*
X190516666Y-70657142D01*
X190469047Y-70704761D01*
X190373809Y-70752380D01*
X190278571Y-70752380D01*
X190183333Y-70704761D01*
X190135714Y-70657142D01*
X190088095Y-70561904D01*
X190040476Y-70371428D01*
X190040476Y-70133333D01*
X190088095Y-69942857D01*
X190135714Y-69847619D01*
X190183333Y-69800000D01*
X190278571Y-69752380D01*
X149354761Y-106152380D02*
X149021428Y-105676190D01*
X148783333Y-106152380D02*
X148783333Y-105152380D01*
X149164285Y-105152380D01*
X149259523Y-105200000D01*
X149307142Y-105247619D01*
X149354761Y-105342857D01*
X149354761Y-105485714D01*
X149307142Y-105580952D01*
X149259523Y-105628571D01*
X149164285Y-105676190D01*
X148783333Y-105676190D01*
X149640476Y-105152380D02*
X149973809Y-106152380D01*
X150307142Y-105152380D01*
X151164285Y-106152380D02*
X150592857Y-106152380D01*
X150878571Y-106152380D02*
X150878571Y-105152380D01*
X150783333Y-105295238D01*
X150688095Y-105390476D01*
X150592857Y-105438095D01*
X116838095Y-85752380D02*
X116838095Y-86561904D01*
X116885714Y-86657142D01*
X116933333Y-86704761D01*
X117028571Y-86752380D01*
X117219047Y-86752380D01*
X117314285Y-86704761D01*
X117361904Y-86657142D01*
X117409523Y-86561904D01*
X117409523Y-85752380D01*
X118409523Y-86752380D02*
X117838095Y-86752380D01*
X118123809Y-86752380D02*
X118123809Y-85752380D01*
X118028571Y-85895238D01*
X117933333Y-85990476D01*
X117838095Y-86038095D01*
X129648095Y-122052380D02*
X129648095Y-122861904D01*
X129695714Y-122957142D01*
X129743333Y-123004761D01*
X129838571Y-123052380D01*
X130029047Y-123052380D01*
X130124285Y-123004761D01*
X130171904Y-122957142D01*
X130219523Y-122861904D01*
X130219523Y-122052380D01*
X130648095Y-122147619D02*
X130695714Y-122100000D01*
X130790952Y-122052380D01*
X131029047Y-122052380D01*
X131124285Y-122100000D01*
X131171904Y-122147619D01*
X131219523Y-122242857D01*
X131219523Y-122338095D01*
X131171904Y-122480952D01*
X130600476Y-123052380D01*
X131219523Y-123052380D01*
X184652380Y-88711904D02*
X185461904Y-88711904D01*
X185557142Y-88664285D01*
X185604761Y-88616666D01*
X185652380Y-88521428D01*
X185652380Y-88330952D01*
X185604761Y-88235714D01*
X185557142Y-88188095D01*
X185461904Y-88140476D01*
X184652380Y-88140476D01*
X184652380Y-87188095D02*
X184652380Y-87664285D01*
X185128571Y-87711904D01*
X185080952Y-87664285D01*
X185033333Y-87569047D01*
X185033333Y-87330952D01*
X185080952Y-87235714D01*
X185128571Y-87188095D01*
X185223809Y-87140476D01*
X185461904Y-87140476D01*
X185557142Y-87188095D01*
X185604761Y-87235714D01*
X185652380Y-87330952D01*
X185652380Y-87569047D01*
X185604761Y-87664285D01*
X185557142Y-87711904D01*
X160378095Y-60382380D02*
X160378095Y-61191904D01*
X160425714Y-61287142D01*
X160473333Y-61334761D01*
X160568571Y-61382380D01*
X160759047Y-61382380D01*
X160854285Y-61334761D01*
X160901904Y-61287142D01*
X160949523Y-61191904D01*
X160949523Y-60382380D01*
X161330476Y-60382380D02*
X161949523Y-60382380D01*
X161616190Y-60763333D01*
X161759047Y-60763333D01*
X161854285Y-60810952D01*
X161901904Y-60858571D01*
X161949523Y-60953809D01*
X161949523Y-61191904D01*
X161901904Y-61287142D01*
X161854285Y-61334761D01*
X161759047Y-61382380D01*
X161473333Y-61382380D01*
X161378095Y-61334761D01*
X161330476Y-61287142D01*
X138378095Y-60182380D02*
X138378095Y-60991904D01*
X138425714Y-61087142D01*
X138473333Y-61134761D01*
X138568571Y-61182380D01*
X138759047Y-61182380D01*
X138854285Y-61134761D01*
X138901904Y-61087142D01*
X138949523Y-60991904D01*
X138949523Y-60182380D01*
X139854285Y-60515714D02*
X139854285Y-61182380D01*
X139616190Y-60134761D02*
X139378095Y-60849047D01*
X139997142Y-60849047D01*
X178102380Y-115311904D02*
X178911904Y-115311904D01*
X179007142Y-115264285D01*
X179054761Y-115216666D01*
X179102380Y-115121428D01*
X179102380Y-114930952D01*
X179054761Y-114835714D01*
X179007142Y-114788095D01*
X178911904Y-114740476D01*
X178102380Y-114740476D01*
X178102380Y-113835714D02*
X178102380Y-114026190D01*
X178150000Y-114121428D01*
X178197619Y-114169047D01*
X178340476Y-114264285D01*
X178530952Y-114311904D01*
X178911904Y-114311904D01*
X179007142Y-114264285D01*
X179054761Y-114216666D01*
X179102380Y-114121428D01*
X179102380Y-113930952D01*
X179054761Y-113835714D01*
X179007142Y-113788095D01*
X178911904Y-113740476D01*
X178673809Y-113740476D01*
X178578571Y-113788095D01*
X178530952Y-113835714D01*
X178483333Y-113930952D01*
X178483333Y-114121428D01*
X178530952Y-114216666D01*
X178578571Y-114264285D01*
X178673809Y-114311904D01*
M02*
