<?xml version="1.0" standalone="no"?>
 <!DOCTYPE svg PUBLIC "-//W3C//DTD SVG 1.1//EN" 
 "http://www.w3.org/Graphics/SVG/1.1/DTD/svg11.dtd"> 
<svg
  xmlns:svg="http://www.w3.org/2000/svg"
  xmlns="http://www.w3.org/2000/svg"
  xmlns:xlink="http://www.w3.org/1999/xlink"
  version="1.1"
  width="10.012680cm" height="10.002520cm" viewBox="0 0 100126800 100025200">
<title>SVG Picture created as default_panel-F_Silkscreen.svg date 2023/06/03 10:06:14 </title>
  <desc>Picture generated by PCBNEW </desc>
<g style="fill:#000000; fill-opacity:1.000000;stroke:#000000; stroke-opacity:1.000000;
stroke-linecap:round; stroke-linejoin:round;"
 transform="translate(0 0) scale(1 1)">
</g>
<g style="fill:#000000; fill-opacity:0.0; 
stroke:#000000; stroke-width:0.000000; stroke-opacity:1; 
stroke-linecap:round; stroke-linejoin:round;">
</g>
<g style="fill:#000000; fill-opacity:0.0; 
stroke:#000000; stroke-width:500000.000000; stroke-opacity:1; 
stroke-linecap:round; stroke-linejoin:round;">
<path d="M11225000 84675000
L10175000 78425000
" />
<path d="M49875000 58425000
L49875000 54575000
" />
<path d="M90050000 78350000
L89000000 84600000
" />
</g>
<g style="fill:#000000; fill-opacity:0.0; 
stroke:#000000; stroke-width:250000.000000; stroke-opacity:1; 
stroke-linecap:round; stroke-linejoin:round;">
<text x="12575000.000000" y="3125000.000000"
textLength="10507143.000000" font-size="2000000.000000" lengthAdjust="spacingAndGlyphs"
text-anchor="middle" opacity="0">VIDEO_IN</text>
<g class="stroked-text"><desc>VIDEO_IN</desc>
<path d="M7789285 1553571
L8289285 3053571
L8789285 1553571
" />
<path d="M9289285 3053571
L9289285 1553571
" />
<path d="M10003571 3053571
L10003571 1553571
L10360714 1553571
L10575000 1625000
L10717857 1767857
L10789285 1910714
L10860714 2196428
L10860714 2410714
L10789285 2696428
L10717857 2839285
L10575000 2982142
L10360714 3053571
L10003571 3053571
" />
<path d="M11503571 2267857
L12003571 2267857
" />
<path d="M12217857 3053571
L11503571 3053571
L11503571 1553571
L12217857 1553571
" />
<path d="M13146428 1553571
L13432142 1553571
L13575000 1625000
L13717857 1767857
L13789285 2053571
L13789285 2553571
L13717857 2839285
L13575000 2982142
L13432142 3053571
L13146428 3053571
L13003571 2982142
L12860714 2839285
L12789285 2553571
L12789285 2053571
L12860714 1767857
L13003571 1625000
L13146428 1553571
" />
<path d="M14075000 3196428
L15217857 3196428
" />
<path d="M15575000 3053571
L15575000 1553571
" />
<path d="M16289285 3053571
L16289285 1553571
L17146428 3053571
L17146428 1553571
" />
</g><text x="86775000.000000" y="3875000.000000"
textLength="12182143.000000" font-size="2000000.000000" lengthAdjust="spacingAndGlyphs"
text-anchor="middle" opacity="0">VIDEO_OUT</text>
<g class="stroked-text"><desc>VIDEO_OUT</desc>
<path d="M80989285 2303571
L81489285 3803571
L81989285 2303571
" />
<path d="M82489285 3803571
L82489285 2303571
" />
<path d="M83203571 3803571
L83203571 2303571
L83560714 2303571
L83775000 2375000
L83917857 2517857
L83989285 2660714
L84060714 2946428
L84060714 3160714
L83989285 3446428
L83917857 3589285
L83775000 3732142
L83560714 3803571
L83203571 3803571
" />
<path d="M84703571 3017857
L85203571 3017857
" />
<path d="M85417857 3803571
L84703571 3803571
L84703571 2303571
L85417857 2303571
" />
<path d="M86346428 2303571
L86632142 2303571
L86775000 2375000
L86917857 2517857
L86989285 2803571
L86989285 3303571
L86917857 3589285
L86775000 3732142
L86632142 3803571
L86346428 3803571
L86203571 3732142
L86060714 3589285
L85989285 3303571
L85989285 2803571
L86060714 2517857
L86203571 2375000
L86346428 2303571
" />
<path d="M87275000 3946428
L88417857 3946428
" />
<path d="M89060714 2303571
L89346428 2303571
L89489285 2375000
L89632142 2517857
L89703571 2803571
L89703571 3303571
L89632142 3589285
L89489285 3732142
L89346428 3803571
L89060714 3803571
L88917857 3732142
L88775000 3589285
L88703571 3303571
L88703571 2803571
L88775000 2517857
L88917857 2375000
L89060714 2303571
" />
<path d="M90346428 2303571
L90346428 3517857
L90417857 3660714
L90489285 3732142
L90632142 3803571
L90917857 3803571
L91060714 3732142
L91132142 3660714
L91203571 3517857
L91203571 2303571
" />
<path d="M91703571 2303571
L92560714 2303571
" />
<path d="M92132142 3803571
L92132142 2303571
" />
</g><text x="84325000.000000" y="98125000.000000"
textLength="16539286.000000" font-size="2000000.000000" lengthAdjust="spacingAndGlyphs"
text-anchor="middle" opacity="0">VIDEO_RETURN</text>
<g class="stroked-text"><desc>VIDEO_RETURN</desc>
<path d="M76360714 96553571
L76860714 98053571
L77360714 96553571
" />
<path d="M77860714 98053571
L77860714 96553571
" />
<path d="M78575000 98053571
L78575000 96553571
L78932142 96553571
L79146428 96625000
L79289285 96767857
L79360714 96910714
L79432142 97196428
L79432142 97410714
L79360714 97696428
L79289285 97839285
L79146428 97982142
L78932142 98053571
L78575000 98053571
" />
<path d="M80075000 97267857
L80575000 97267857
" />
<path d="M80789285 98053571
L80075000 98053571
L80075000 96553571
L80789285 96553571
" />
<path d="M81717857 96553571
L82003571 96553571
L82146428 96625000
L82289285 96767857
L82360714 97053571
L82360714 97553571
L82289285 97839285
L82146428 97982142
L82003571 98053571
L81717857 98053571
L81575000 97982142
L81432142 97839285
L81360714 97553571
L81360714 97053571
L81432142 96767857
L81575000 96625000
L81717857 96553571
" />
<path d="M82646428 98196428
L83789285 98196428
" />
<path d="M85003571 98053571
L84503571 97339285
" />
<path d="M84146428 98053571
L84146428 96553571
L84717857 96553571
L84860714 96625000
L84932142 96696428
L85003571 96839285
L85003571 97053571
L84932142 97196428
L84860714 97267857
L84717857 97339285
L84146428 97339285
" />
<path d="M85646428 97267857
L86146428 97267857
" />
<path d="M86360714 98053571
L85646428 98053571
L85646428 96553571
L86360714 96553571
" />
<path d="M86789285 96553571
L87646428 96553571
" />
<path d="M87217857 98053571
L87217857 96553571
" />
<path d="M88146428 96553571
L88146428 97767857
L88217857 97910714
L88289285 97982142
L88432142 98053571
L88717857 98053571
L88860714 97982142
L88932142 97910714
L89003571 97767857
L89003571 96553571
" />
<path d="M90575000 98053571
L90075000 97339285
" />
<path d="M89717857 98053571
L89717857 96553571
L90289285 96553571
L90432142 96625000
L90503571 96696428
L90575000 96839285
L90575000 97053571
L90503571 97196428
L90432142 97267857
L90289285 97339285
L89717857 97339285
" />
<path d="M91217857 98053571
L91217857 96553571
L92075000 98053571
L92075000 96553571
" />
</g><text x="50125000.000000" y="70375000.000000"
textLength="9967857.000000" font-size="2000000.000000" lengthAdjust="spacingAndGlyphs"
text-anchor="middle" opacity="0">DRY_WET</text>
<g class="stroked-text"><desc>DRY_WET</desc>
<path d="M45660714 70303571
L45660714 68803571
L46017857 68803571
L46232142 68875000
L46375000 69017857
L46446428 69160714
L46517857 69446428
L46517857 69660714
L46446428 69946428
L46375000 70089285
L46232142 70232142
L46017857 70303571
L45660714 70303571
" />
<path d="M48017857 70303571
L47517857 69589285
" />
<path d="M47160714 70303571
L47160714 68803571
L47732142 68803571
L47875000 68875000
L47946428 68946428
L48017857 69089285
L48017857 69303571
L47946428 69446428
L47875000 69517857
L47732142 69589285
L47160714 69589285
" />
<path d="M48946428 69589285
L48946428 70303571
" />
<path d="M48446428 68803571
L48946428 69589285
L49446428 68803571
" />
<path d="M49589285 70446428
L50732142 70446428
" />
<path d="M50946428 68803571
L51303571 70303571
L51589285 69232142
L51875000 70303571
L52232142 68803571
" />
<path d="M52803571 69517857
L53303571 69517857
" />
<path d="M53517857 70303571
L52803571 70303571
L52803571 68803571
L53517857 68803571
" />
<path d="M53946428 68803571
L54803571 68803571
" />
<path d="M54375000 70303571
L54375000 68803571
" />
</g></g>
<g style="fill:#000000; fill-opacity:0.0; 
stroke:#000000; stroke-width:150000.000000; stroke-opacity:1; 
stroke-linecap:round; stroke-linejoin:round;">
<text x="50475000.000000" y="46375000.000000"
textLength="6848810.000000" font-size="1333333.000000" lengthAdjust="spacingAndGlyphs"
text-anchor="middle" opacity="0">CV 0-1v</text>
<g class="stroked-text"><desc>CV 0-1v</desc>
<path d="M48022619 46232142
L47975000 46279761
L47832142 46327380
L47736904 46327380
L47594047 46279761
L47498809 46184523
L47451190 46089285
L47403571 45898809
L47403571 45755952
L47451190 45565476
L47498809 45470238
L47594047 45375000
L47736904 45327380
L47832142 45327380
L47975000 45375000
L48022619 45422619
" />
<path d="M48308333 45327380
L48641666 46327380
L48975000 45327380
" />
<path d="M50260714 45327380
L50355952 45327380
L50451190 45375000
L50498809 45422619
L50546428 45517857
L50594047 45708333
L50594047 45946428
L50546428 46136904
L50498809 46232142
L50451190 46279761
L50355952 46327380
L50260714 46327380
L50165476 46279761
L50117857 46232142
L50070238 46136904
L50022619 45946428
L50022619 45708333
L50070238 45517857
L50117857 45422619
L50165476 45375000
L50260714 45327380
" />
<path d="M51022619 45946428
L51784523 45946428
" />
<path d="M52784523 46327380
L52213095 46327380
" />
<path d="M52498809 46327380
L52498809 45327380
L52403571 45470238
L52308333 45565476
L52213095 45613095
" />
<path d="M53117857 45660714
L53355952 46327380
L53594047 45660714
" />
</g></g>
<g style="fill:#000000; fill-opacity:0.0; 
stroke:#000000; stroke-width:100000.000000; stroke-opacity:1; 
stroke-linecap:round; stroke-linejoin:round;">
<text x="58375000.000000" y="93175000.000000"
textLength="661667.000000" font-size="933333.000000" lengthAdjust="spacingAndGlyphs"
text-anchor="middle" opacity="0">]</text>
<g class="stroked-text"><desc>]</desc>
<path d="M58241666 93375000
L58408333 93375000
L58408333 92375000
L58241666 92375000
" />
</g><g transform="rotate(90.000000 35825000.000000 78525000.000000)">
<text x="35825000.000000" y="78875000.000000"
textLength="596667.000000" font-size="933333.000000" lengthAdjust="spacingAndGlyphs"
text-anchor="middle" opacity="0">[</text>
</g>
<g class="stroked-text"><desc>[</desc>
<path d="M35275000 78658333
L35275000 78491666
L36275000 78491666
L36275000 78658333
" />
</g></g>
<g style="fill:#000000; fill-opacity:0.0; 
stroke:#000000; stroke-width:400000.000000; stroke-opacity:1; 
stroke-linecap:round; stroke-linejoin:round;">
<text x="50325000.000000" y="12175000.000000"
textLength="22844286.000000" font-size="4000000.000000" lengthAdjust="spacingAndGlyphs"
text-anchor="middle" opacity="0">SYNC_OPE</text>
<g class="stroked-text"><desc>SYNC_OPE</desc>
<path d="M39539285 11889285
L39967857 12032142
L40682142 12032142
L40967857 11889285
L41110714 11746428
L41253571 11460714
L41253571 11175000
L41110714 10889285
L40967857 10746428
L40682142 10603571
L40110714 10460714
L39825000 10317857
L39682142 10175000
L39539285 9889285
L39539285 9603571
L39682142 9317857
L39825000 9175000
L40110714 9032142
L40825000 9032142
L41253571 9175000
" />
<path d="M43110714 10603571
L43110714 12032142
" />
<path d="M42110714 9032142
L43110714 10603571
L44110714 9032142
" />
<path d="M45110714 12032142
L45110714 9032142
L46825000 12032142
L46825000 9032142
" />
<path d="M49967857 11746428
L49825000 11889285
L49396428 12032142
L49110714 12032142
L48682142 11889285
L48396428 11603571
L48253571 11317857
L48110714 10746428
L48110714 10317857
L48253571 9746428
L48396428 9460714
L48682142 9175000
L49110714 9032142
L49396428 9032142
L49825000 9175000
L49967857 9317857
" />
<path d="M50539285 12317857
L52825000 12317857
" />
<path d="M54110714 9032142
L54682142 9032142
L54967857 9175000
L55253571 9460714
L55396428 10032142
L55396428 11032142
L55253571 11603571
L54967857 11889285
L54682142 12032142
L54110714 12032142
L53825000 11889285
L53539285 11603571
L53396428 11032142
L53396428 10032142
L53539285 9460714
L53825000 9175000
L54110714 9032142
" />
<path d="M56682142 12032142
L56682142 9032142
L57825000 9032142
L58110714 9175000
L58253571 9317857
L58396428 9603571
L58396428 10032142
L58253571 10317857
L58110714 10460714
L57825000 10603571
L56682142 10603571
" />
<path d="M59682142 10460714
L60682142 10460714
" />
<path d="M61110714 12032142
L59682142 12032142
L59682142 9032142
L61110714 9032142
" />
</g></g>
<g style="fill:#000000; fill-opacity:0.0; 
stroke:#000000; stroke-width:250000.000000; stroke-opacity:1; 
stroke-linecap:round; stroke-linejoin:round;">
<text x="14625000.000000" y="98325000.000000"
textLength="13948571.000000" font-size="2000000.000000" lengthAdjust="spacingAndGlyphs"
text-anchor="middle" opacity="0">VIDEO_SEND</text>
<g class="stroked-text"><desc>VIDEO_SEND</desc>
<path d="M8053571 96753571
L8553571 98253571
L9053571 96753571
" />
<path d="M9553571 98253571
L9553571 96753571
" />
<path d="M10267857 98253571
L10267857 96753571
L10625000 96753571
L10839285 96825000
L10982142 96967857
L11053571 97110714
L11125000 97396428
L11125000 97610714
L11053571 97896428
L10982142 98039285
L10839285 98182142
L10625000 98253571
L10267857 98253571
" />
<path d="M11767857 97467857
L12267857 97467857
" />
<path d="M12482142 98253571
L11767857 98253571
L11767857 96753571
L12482142 96753571
" />
<path d="M13410714 96753571
L13696428 96753571
L13839285 96825000
L13982142 96967857
L14053571 97253571
L14053571 97753571
L13982142 98039285
L13839285 98182142
L13696428 98253571
L13410714 98253571
L13267857 98182142
L13125000 98039285
L13053571 97753571
L13053571 97253571
L13125000 96967857
L13267857 96825000
L13410714 96753571
" />
<path d="M14339285 98396428
L15482142 98396428
" />
<path d="M15767857 98182142
L15982142 98253571
L16339285 98253571
L16482142 98182142
L16553571 98110714
L16625000 97967857
L16625000 97825000
L16553571 97682142
L16482142 97610714
L16339285 97539285
L16053571 97467857
L15910714 97396428
L15839285 97325000
L15767857 97182142
L15767857 97039285
L15839285 96896428
L15910714 96825000
L16053571 96753571
L16410714 96753571
L16625000 96825000
" />
<path d="M17267857 97467857
L17767857 97467857
" />
<path d="M17982142 98253571
L17267857 98253571
L17267857 96753571
L17982142 96753571
" />
<path d="M18625000 98253571
L18625000 96753571
L19482142 98253571
L19482142 96753571
" />
<path d="M20196428 98253571
L20196428 96753571
L20553571 96753571
L20767857 96825000
L20910714 96967857
L20982142 97110714
L21053571 97396428
L21053571 97610714
L20982142 97896428
L20910714 98039285
L20767857 98182142
L20553571 98253571
L20196428 98253571
" />
</g></g>
<g style="fill:#000000; fill-opacity:0.0; 
stroke:#000000; stroke-width:100000.000000; stroke-opacity:1; 
stroke-linecap:round; stroke-linejoin:round;">
<g transform="rotate(90.000000 35875000.000000 92575000.000000)">
<text x="35875000.000000" y="92925000.000000"
textLength="791667.000000" font-size="933333.000000" lengthAdjust="spacingAndGlyphs"
text-anchor="middle" opacity="0">]</text>
</g>
<g class="stroked-text"><desc>]</desc>
<path d="M35325000 92441666
L35325000 92608333
L36325000 92608333
L36325000 92441666
" />
</g></g>
<g style="fill:#000000; fill-opacity:0.0; 
stroke:#000000; stroke-width:300000.000000; stroke-opacity:1; 
stroke-linecap:round; stroke-linejoin:round;">
<text x="50075000.000000" y="15917500.000000"
textLength="15630000.000000" font-size="2000000.000000" lengthAdjust="spacingAndGlyphs"
text-anchor="middle" opacity="0">effect / send</text>
<g class="stroked-text"><desc>effect / send</desc>
<path d="M43253571 15774642
L43110714 15846071
L42825000 15846071
L42682142 15774642
L42610714 15631785
L42610714 15060357
L42682142 14917500
L42825000 14846071
L43110714 14846071
L43253571 14917500
L43325000 15060357
L43325000 15203214
L42610714 15346071
" />
<path d="M43753571 14846071
L44325000 14846071
" />
<path d="M43967857 15846071
L43967857 14560357
L44039285 14417500
L44182142 14346071
L44325000 14346071
" />
<path d="M44610714 14846071
L45182142 14846071
" />
<path d="M44825000 15846071
L44825000 14560357
L44896428 14417500
L45039285 14346071
L45182142 14346071
" />
<path d="M46253571 15774642
L46110714 15846071
L45825000 15846071
L45682142 15774642
L45610714 15631785
L45610714 15060357
L45682142 14917500
L45825000 14846071
L46110714 14846071
L46253571 14917500
L46325000 15060357
L46325000 15203214
L45610714 15346071
" />
<path d="M47610714 15774642
L47467857 15846071
L47182142 15846071
L47039285 15774642
L46967857 15703214
L46896428 15560357
L46896428 15131785
L46967857 14988928
L47039285 14917500
L47182142 14846071
L47467857 14846071
L47610714 14917500
" />
<path d="M48039285 14846071
L48610714 14846071
" />
<path d="M48253571 14346071
L48253571 15631785
L48325000 15774642
L48467857 15846071
L48610714 15846071
" />
<path d="M51325000 14274642
L50039285 16203214
" />
<path d="M52896428 15774642
L53039285 15846071
L53325000 15846071
L53467857 15774642
L53539285 15631785
L53539285 15560357
L53467857 15417500
L53325000 15346071
L53110714 15346071
L52967857 15274642
L52896428 15131785
L52896428 15060357
L52967857 14917500
L53110714 14846071
L53325000 14846071
L53467857 14917500
" />
<path d="M54753571 15774642
L54610714 15846071
L54325000 15846071
L54182142 15774642
L54110714 15631785
L54110714 15060357
L54182142 14917500
L54325000 14846071
L54610714 14846071
L54753571 14917500
L54825000 15060357
L54825000 15203214
L54110714 15346071
" />
<path d="M55467857 14846071
L55467857 15846071
" />
<path d="M55467857 14988928
L55539285 14917500
L55682142 14846071
L55896428 14846071
L56039285 14917500
L56110714 15060357
L56110714 15846071
" />
<path d="M57467857 15846071
L57467857 14346071
" />
<path d="M57467857 15774642
L57325000 15846071
L57039285 15846071
L56896428 15774642
L56825000 15703214
L56753571 15560357
L56753571 15131785
L56825000 14988928
L56896428 14917500
L57039285 14846071
L57325000 14846071
L57467857 14917500
" />
</g><text x="50075000.000000" y="18332500.000000"
textLength="17390000.000000" font-size="2000000.000000" lengthAdjust="spacingAndGlyphs"
text-anchor="middle" opacity="0">&amp; sync restore</text>
<g class="stroked-text"><desc>&amp; sync restore</desc>
<path d="M43146428 18261071
L43075000 18261071
L42932142 18189642
L42717857 17975357
L42360714 17546785
L42217857 17332500
L42146428 17118214
L42146428 16975357
L42217857 16832500
L42360714 16761071
L42432142 16761071
L42575000 16832500
L42646428 16975357
L42646428 17046785
L42575000 17189642
L42503571 17261071
L42075000 17546785
L42003571 17618214
L41932142 17761071
L41932142 17975357
L42003571 18118214
L42075000 18189642
L42217857 18261071
L42432142 18261071
L42575000 18189642
L42646428 18118214
L42860714 17832500
L42932142 17618214
L42932142 17475357
" />
<path d="M44860714 18189642
L45003571 18261071
L45289285 18261071
L45432142 18189642
L45503571 18046785
L45503571 17975357
L45432142 17832500
L45289285 17761071
L45075000 17761071
L44932142 17689642
L44860714 17546785
L44860714 17475357
L44932142 17332500
L45075000 17261071
L45289285 17261071
L45432142 17332500
" />
<path d="M46003571 17261071
L46360714 18261071
" />
<path d="M46717857 17261071
L46360714 18261071
L46217857 18618214
L46146428 18689642
L46003571 18761071
" />
<path d="M47289285 17261071
L47289285 18261071
" />
<path d="M47289285 17403928
L47360714 17332500
L47503571 17261071
L47717857 17261071
L47860714 17332500
L47932142 17475357
L47932142 18261071
" />
<path d="M49289285 18189642
L49146428 18261071
L48860714 18261071
L48717857 18189642
L48646428 18118214
L48575000 17975357
L48575000 17546785
L48646428 17403928
L48717857 17332500
L48860714 17261071
L49146428 17261071
L49289285 17332500
" />
<path d="M51075000 18261071
L51075000 17261071
" />
<path d="M51075000 17546785
L51146428 17403928
L51217857 17332500
L51360714 17261071
L51503571 17261071
" />
<path d="M52575000 18189642
L52432142 18261071
L52146428 18261071
L52003571 18189642
L51932142 18046785
L51932142 17475357
L52003571 17332500
L52146428 17261071
L52432142 17261071
L52575000 17332500
L52646428 17475357
L52646428 17618214
L51932142 17761071
" />
<path d="M53217857 18189642
L53360714 18261071
L53646428 18261071
L53789285 18189642
L53860714 18046785
L53860714 17975357
L53789285 17832500
L53646428 17761071
L53432142 17761071
L53289285 17689642
L53217857 17546785
L53217857 17475357
L53289285 17332500
L53432142 17261071
L53646428 17261071
L53789285 17332500
" />
<path d="M54289285 17261071
L54860714 17261071
" />
<path d="M54503571 16761071
L54503571 18046785
L54575000 18189642
L54717857 18261071
L54860714 18261071
" />
<path d="M55575000 18261071
L55432142 18189642
L55360714 18118214
L55289285 17975357
L55289285 17546785
L55360714 17403928
L55432142 17332500
L55575000 17261071
L55789285 17261071
L55932142 17332500
L56003571 17403928
L56075000 17546785
L56075000 17975357
L56003571 18118214
L55932142 18189642
L55789285 18261071
L55575000 18261071
" />
<path d="M56717857 18261071
L56717857 17261071
" />
<path d="M56717857 17546785
L56789285 17403928
L56860714 17332500
L57003571 17261071
L57146428 17261071
" />
<path d="M58217857 18189642
L58075000 18261071
L57789285 18261071
L57646428 18189642
L57575000 18046785
L57575000 17475357
L57646428 17332500
L57789285 17261071
L58075000 17261071
L58217857 17332500
L58289285 17475357
L58289285 17618214
L57575000 17761071
" />
</g></g>
<g style="fill:#000000; fill-opacity:0.0; 
stroke:#000000; stroke-width:100000.000000; stroke-opacity:1; 
stroke-linecap:round; stroke-linejoin:round;">
<text x="58375000.000000" y="79025000.000000"
textLength="856667.000000" font-size="933333.000000" lengthAdjust="spacingAndGlyphs"
text-anchor="middle" opacity="0">[</text>
<g class="stroked-text"><desc>[</desc>
<path d="M58508333 79225000
L58341666 79225000
L58341666 78225000
L58508333 78225000
" />
</g></g>
<g style="fill:#000000; fill-opacity:0.0; 
stroke:#000000; stroke-width:250000.000000; stroke-opacity:1; 
stroke-linecap:round; stroke-linejoin:round;">
<text x="49625000.000000" y="2325000.000000"
textLength="8415714.000000" font-size="2000000.000000" lengthAdjust="spacingAndGlyphs"
text-anchor="middle" opacity="0">12V DC</text>
<g class="stroked-text"><desc>12V DC</desc>
<path d="M46625000 2253571
L45767857 2253571
" />
<path d="M46196428 2253571
L46196428 753571
L46053571 967857
L45910714 1110714
L45767857 1182142
" />
<path d="M47196428 896428
L47267857 825000
L47410714 753571
L47767857 753571
L47910714 825000
L47982142 896428
L48053571 1039285
L48053571 1182142
L47982142 1396428
L47125000 2253571
L48053571 2253571
" />
<path d="M48482142 753571
L48982142 2253571
L49482142 753571
" />
<path d="M51125000 2253571
L51125000 753571
L51482142 753571
L51696428 825000
L51839285 967857
L51910714 1110714
L51982142 1396428
L51982142 1610714
L51910714 1896428
L51839285 2039285
L51696428 2182142
L51482142 2253571
L51125000 2253571
" />
<path d="M53482142 2110714
L53410714 2182142
L53196428 2253571
L53053571 2253571
L52839285 2182142
L52696428 2039285
L52625000 1896428
L52553571 1610714
L52553571 1396428
L52625000 1110714
L52696428 967857
L52839285 825000
L53053571 753571
L53196428 753571
L53410714 825000
L53482142 896428
" />
</g><g >
</g>
<g >
</g>
<g >
</g>
<g >
</g>
<g >
</g>
<g >
</g>
<g >
</g>
</g> 
</svg>
