<?xml version="1.0" standalone="no"?>
 <!DOCTYPE svg PUBLIC "-//W3C//DTD SVG 1.1//EN" 
 "http://www.w3.org/Graphics/SVG/1.1/DTD/svg11.dtd"> 
<svg
  xmlns:svg="http://www.w3.org/2000/svg"
  xmlns="http://www.w3.org/2000/svg"
  xmlns:xlink="http://www.w3.org/1999/xlink"
  version="1.1"
  width="10.002520cm" height="10.002520cm" viewBox="0 0 100025200 100025200">
<title>SVG Picture created as default_panel-F_Silkscreen.svg date 2023/07/12 16:33:31 </title>
  <desc>Picture generated by PCBNEW </desc>
<g style="fill:#000000; fill-opacity:1.000000;stroke:#000000; stroke-opacity:1.000000;
stroke-linecap:round; stroke-linejoin:round;"
 transform="translate(0 0) scale(1 1)">
</g>
<g style="fill:#000000; fill-opacity:0.0; 
stroke:#000000; stroke-width:0.000000; stroke-opacity:1; 
stroke-linecap:round; stroke-linejoin:round;">
</g>
<g style="fill:#000000; fill-opacity:0.0; 
stroke:#000000; stroke-width:500000.000000; stroke-opacity:1; 
stroke-linecap:round; stroke-linejoin:round;">
<path d="M10985000 83625000
L10125000 78425000
" />
<path d="M49825000 58425000
L49825000 54575000
" />
<path d="M90000000 78350000
L89255000 83025000
" />
</g>
<g style="fill:#000000; fill-opacity:0.0; 
stroke:#000000; stroke-width:250000.000000; stroke-opacity:1; 
stroke-linecap:round; stroke-linejoin:round;">
<text x="12525000.000000" y="2645000.000000"
textLength="10507143.000000" font-size="2000000.000000" lengthAdjust="spacingAndGlyphs"
text-anchor="middle" opacity="0">VIDEO_IN</text>
<g class="stroked-text"><desc>VIDEO_IN</desc>
<path d="M7739285 1073571
L8239285 2573571
L8739285 1073571
" />
<path d="M9239285 2573571
L9239285 1073571
" />
<path d="M9953571 2573571
L9953571 1073571
L10310714 1073571
L10525000 1145000
L10667857 1287857
L10739285 1430714
L10810714 1716428
L10810714 1930714
L10739285 2216428
L10667857 2359285
L10525000 2502142
L10310714 2573571
L9953571 2573571
" />
<path d="M11453571 1787857
L11953571 1787857
" />
<path d="M12167857 2573571
L11453571 2573571
L11453571 1073571
L12167857 1073571
" />
<path d="M13096428 1073571
L13382142 1073571
L13525000 1145000
L13667857 1287857
L13739285 1573571
L13739285 2073571
L13667857 2359285
L13525000 2502142
L13382142 2573571
L13096428 2573571
L12953571 2502142
L12810714 2359285
L12739285 2073571
L12739285 1573571
L12810714 1287857
L12953571 1145000
L13096428 1073571
" />
<path d="M14025000 2716428
L15167857 2716428
" />
<path d="M15525000 2573571
L15525000 1073571
" />
<path d="M16239285 2573571
L16239285 1073571
L17096428 2573571
L17096428 1073571
" />
</g><text x="86715000.000000" y="3055000.000000"
textLength="12182143.000000" font-size="2000000.000000" lengthAdjust="spacingAndGlyphs"
text-anchor="middle" opacity="0">VIDEO_OUT</text>
<g class="stroked-text"><desc>VIDEO_OUT</desc>
<path d="M80929285 1483571
L81429285 2983571
L81929285 1483571
" />
<path d="M82429285 2983571
L82429285 1483571
" />
<path d="M83143571 2983571
L83143571 1483571
L83500714 1483571
L83715000 1555000
L83857857 1697857
L83929285 1840714
L84000714 2126428
L84000714 2340714
L83929285 2626428
L83857857 2769285
L83715000 2912142
L83500714 2983571
L83143571 2983571
" />
<path d="M84643571 2197857
L85143571 2197857
" />
<path d="M85357857 2983571
L84643571 2983571
L84643571 1483571
L85357857 1483571
" />
<path d="M86286428 1483571
L86572142 1483571
L86715000 1555000
L86857857 1697857
L86929285 1983571
L86929285 2483571
L86857857 2769285
L86715000 2912142
L86572142 2983571
L86286428 2983571
L86143571 2912142
L86000714 2769285
L85929285 2483571
L85929285 1983571
L86000714 1697857
L86143571 1555000
L86286428 1483571
" />
<path d="M87215000 3126428
L88357857 3126428
" />
<path d="M89000714 1483571
L89286428 1483571
L89429285 1555000
L89572142 1697857
L89643571 1983571
L89643571 2483571
L89572142 2769285
L89429285 2912142
L89286428 2983571
L89000714 2983571
L88857857 2912142
L88715000 2769285
L88643571 2483571
L88643571 1983571
L88715000 1697857
L88857857 1555000
L89000714 1483571
" />
<path d="M90286428 1483571
L90286428 2697857
L90357857 2840714
L90429285 2912142
L90572142 2983571
L90857857 2983571
L91000714 2912142
L91072142 2840714
L91143571 2697857
L91143571 1483571
" />
<path d="M91643571 1483571
L92500714 1483571
" />
<path d="M92072142 2983571
L92072142 1483571
" />
</g><text x="84645000.000000" y="98925000.000000"
textLength="16539286.000000" font-size="2000000.000000" lengthAdjust="spacingAndGlyphs"
text-anchor="middle" opacity="0">VIDEO_RETURN</text>
<g class="stroked-text"><desc>VIDEO_RETURN</desc>
<path d="M76680714 97353571
L77180714 98853571
L77680714 97353571
" />
<path d="M78180714 98853571
L78180714 97353571
" />
<path d="M78895000 98853571
L78895000 97353571
L79252142 97353571
L79466428 97425000
L79609285 97567857
L79680714 97710714
L79752142 97996428
L79752142 98210714
L79680714 98496428
L79609285 98639285
L79466428 98782142
L79252142 98853571
L78895000 98853571
" />
<path d="M80395000 98067857
L80895000 98067857
" />
<path d="M81109285 98853571
L80395000 98853571
L80395000 97353571
L81109285 97353571
" />
<path d="M82037857 97353571
L82323571 97353571
L82466428 97425000
L82609285 97567857
L82680714 97853571
L82680714 98353571
L82609285 98639285
L82466428 98782142
L82323571 98853571
L82037857 98853571
L81895000 98782142
L81752142 98639285
L81680714 98353571
L81680714 97853571
L81752142 97567857
L81895000 97425000
L82037857 97353571
" />
<path d="M82966428 98996428
L84109285 98996428
" />
<path d="M85323571 98853571
L84823571 98139285
" />
<path d="M84466428 98853571
L84466428 97353571
L85037857 97353571
L85180714 97425000
L85252142 97496428
L85323571 97639285
L85323571 97853571
L85252142 97996428
L85180714 98067857
L85037857 98139285
L84466428 98139285
" />
<path d="M85966428 98067857
L86466428 98067857
" />
<path d="M86680714 98853571
L85966428 98853571
L85966428 97353571
L86680714 97353571
" />
<path d="M87109285 97353571
L87966428 97353571
" />
<path d="M87537857 98853571
L87537857 97353571
" />
<path d="M88466428 97353571
L88466428 98567857
L88537857 98710714
L88609285 98782142
L88752142 98853571
L89037857 98853571
L89180714 98782142
L89252142 98710714
L89323571 98567857
L89323571 97353571
" />
<path d="M90895000 98853571
L90395000 98139285
" />
<path d="M90037857 98853571
L90037857 97353571
L90609285 97353571
L90752142 97425000
L90823571 97496428
L90895000 97639285
L90895000 97853571
L90823571 97996428
L90752142 98067857
L90609285 98139285
L90037857 98139285
" />
<path d="M91537857 98853571
L91537857 97353571
L92395000 98853571
L92395000 97353571
" />
</g><text x="50075000.000000" y="70375000.000000"
textLength="9967857.000000" font-size="2000000.000000" lengthAdjust="spacingAndGlyphs"
text-anchor="middle" opacity="0">DRY_WET</text>
<g class="stroked-text"><desc>DRY_WET</desc>
<path d="M45610714 70303571
L45610714 68803571
L45967857 68803571
L46182142 68875000
L46325000 69017857
L46396428 69160714
L46467857 69446428
L46467857 69660714
L46396428 69946428
L46325000 70089285
L46182142 70232142
L45967857 70303571
L45610714 70303571
" />
<path d="M47967857 70303571
L47467857 69589285
" />
<path d="M47110714 70303571
L47110714 68803571
L47682142 68803571
L47825000 68875000
L47896428 68946428
L47967857 69089285
L47967857 69303571
L47896428 69446428
L47825000 69517857
L47682142 69589285
L47110714 69589285
" />
<path d="M48896428 69589285
L48896428 70303571
" />
<path d="M48396428 68803571
L48896428 69589285
L49396428 68803571
" />
<path d="M49539285 70446428
L50682142 70446428
" />
<path d="M50896428 68803571
L51253571 70303571
L51539285 69232142
L51825000 70303571
L52182142 68803571
" />
<path d="M52753571 69517857
L53253571 69517857
" />
<path d="M53467857 70303571
L52753571 70303571
L52753571 68803571
L53467857 68803571
" />
<path d="M53896428 68803571
L54753571 68803571
" />
<path d="M54325000 70303571
L54325000 68803571
" />
</g></g>
<g style="fill:#000000; fill-opacity:0.0; 
stroke:#000000; stroke-width:150000.000000; stroke-opacity:1; 
stroke-linecap:round; stroke-linejoin:round;">
<text x="50425000.000000" y="46375000.000000"
textLength="6848810.000000" font-size="1333333.000000" lengthAdjust="spacingAndGlyphs"
text-anchor="middle" opacity="0">CV 0-1v</text>
<g class="stroked-text"><desc>CV 0-1v</desc>
<path d="M47972619 46232142
L47925000 46279761
L47782142 46327380
L47686904 46327380
L47544047 46279761
L47448809 46184523
L47401190 46089285
L47353571 45898809
L47353571 45755952
L47401190 45565476
L47448809 45470238
L47544047 45375000
L47686904 45327380
L47782142 45327380
L47925000 45375000
L47972619 45422619
" />
<path d="M48258333 45327380
L48591666 46327380
L48925000 45327380
" />
<path d="M50210714 45327380
L50305952 45327380
L50401190 45375000
L50448809 45422619
L50496428 45517857
L50544047 45708333
L50544047 45946428
L50496428 46136904
L50448809 46232142
L50401190 46279761
L50305952 46327380
L50210714 46327380
L50115476 46279761
L50067857 46232142
L50020238 46136904
L49972619 45946428
L49972619 45708333
L50020238 45517857
L50067857 45422619
L50115476 45375000
L50210714 45327380
" />
<path d="M50972619 45946428
L51734523 45946428
" />
<path d="M52734523 46327380
L52163095 46327380
" />
<path d="M52448809 46327380
L52448809 45327380
L52353571 45470238
L52258333 45565476
L52163095 45613095
" />
<path d="M53067857 45660714
L53305952 46327380
L53544047 45660714
" />
</g></g>
<g style="fill:#000000; fill-opacity:0.0; 
stroke:#000000; stroke-width:100000.000000; stroke-opacity:1; 
stroke-linecap:round; stroke-linejoin:round;">
<text x="49985000.000000" y="99405000.000000"
textLength="13328333.000000" font-size="933333.000000" lengthAdjust="spacingAndGlyphs"
text-anchor="middle" opacity="0">...BLANKING CALIBRATION</text>
<g class="stroked-text"><desc>...BLANKING CALIBRATION</desc>
<path d="M43585000 99305000
L43618333 99338333
L43585000 99371666
L43551666 99338333
L43585000 99305000
L43585000 99371666
" />
<path d="M43918333 99305000
L43951666 99338333
L43918333 99371666
L43885000 99338333
L43918333 99305000
L43918333 99371666
" />
<path d="M44251666 99305000
L44285000 99338333
L44251666 99371666
L44218333 99338333
L44251666 99305000
L44251666 99371666
" />
<path d="M44818333 99005000
L44918333 99038333
L44951666 99071666
L44985000 99138333
L44985000 99238333
L44951666 99305000
L44918333 99338333
L44851666 99371666
L44585000 99371666
L44585000 98671666
L44818333 98671666
L44885000 98705000
L44918333 98738333
L44951666 98805000
L44951666 98871666
L44918333 98938333
L44885000 98971666
L44818333 99005000
L44585000 99005000
" />
<path d="M45618333 99371666
L45285000 99371666
L45285000 98671666
" />
<path d="M45818333 99171666
L46151666 99171666
" />
<path d="M45751666 99371666
L45985000 98671666
L46218333 99371666
" />
<path d="M46451666 99371666
L46451666 98671666
L46851666 99371666
L46851666 98671666
" />
<path d="M47185000 99371666
L47185000 98671666
" />
<path d="M47585000 99371666
L47285000 98971666
" />
<path d="M47585000 98671666
L47185000 99071666
" />
<path d="M47885000 99371666
L47885000 98671666
" />
<path d="M48218333 99371666
L48218333 98671666
L48618333 99371666
L48618333 98671666
" />
<path d="M49318333 98705000
L49251666 98671666
L49151666 98671666
L49051666 98705000
L48985000 98771666
L48951666 98838333
L48918333 98971666
L48918333 99071666
L48951666 99205000
L48985000 99271666
L49051666 99338333
L49151666 99371666
L49218333 99371666
L49318333 99338333
L49351666 99305000
L49351666 99071666
L49218333 99071666
" />
<path d="M50585000 99305000
L50551666 99338333
L50451666 99371666
L50385000 99371666
L50285000 99338333
L50218333 99271666
L50185000 99205000
L50151666 99071666
L50151666 98971666
L50185000 98838333
L50218333 98771666
L50285000 98705000
L50385000 98671666
L50451666 98671666
L50551666 98705000
L50585000 98738333
" />
<path d="M50851666 99171666
L51185000 99171666
" />
<path d="M50785000 99371666
L51018333 98671666
L51251666 99371666
" />
<path d="M51818333 99371666
L51485000 99371666
L51485000 98671666
" />
<path d="M52051666 99371666
L52051666 98671666
" />
<path d="M52618333 99005000
L52718333 99038333
L52751666 99071666
L52785000 99138333
L52785000 99238333
L52751666 99305000
L52718333 99338333
L52651666 99371666
L52385000 99371666
L52385000 98671666
L52618333 98671666
L52685000 98705000
L52718333 98738333
L52751666 98805000
L52751666 98871666
L52718333 98938333
L52685000 98971666
L52618333 99005000
L52385000 99005000
" />
<path d="M53485000 99371666
L53251666 99038333
" />
<path d="M53085000 99371666
L53085000 98671666
L53351666 98671666
L53418333 98705000
L53451666 98738333
L53485000 98805000
L53485000 98905000
L53451666 98971666
L53418333 99005000
L53351666 99038333
L53085000 99038333
" />
<path d="M53751666 99171666
L54085000 99171666
" />
<path d="M53685000 99371666
L53918333 98671666
L54151666 99371666
" />
<path d="M54285000 98671666
L54685000 98671666
" />
<path d="M54485000 99371666
L54485000 98671666
" />
<path d="M54918333 99371666
L54918333 98671666
" />
<path d="M55385000 98671666
L55518333 98671666
L55585000 98705000
L55651666 98771666
L55685000 98905000
L55685000 99138333
L55651666 99271666
L55585000 99338333
L55518333 99371666
L55385000 99371666
L55318333 99338333
L55251666 99271666
L55218333 99138333
L55218333 98905000
L55251666 98771666
L55318333 98705000
L55385000 98671666
" />
<path d="M55985000 99371666
L55985000 98671666
L56385000 99371666
L56385000 98671666
" />
</g></g>
<g style="fill:#000000; fill-opacity:0.0; 
stroke:#000000; stroke-width:200000.000000; stroke-opacity:1; 
stroke-linecap:round; stroke-linejoin:round;">
<text x="60815000.000000" y="96885000.000000"
textLength="2130000.000000" font-size="4000000.000000" lengthAdjust="spacingAndGlyphs"
text-anchor="middle" opacity="0">]</text>
<g class="stroked-text"><desc>]</desc>
<path d="M60243571 97742142
L60957857 97742142
L60957857 93456428
L60243571 93456428
" />
</g><g transform="rotate(90.000000 35895000.000000 78995000.000000)">
<text x="35895000.000000" y="80495000.000000"
textLength="2260000.000000" font-size="4000000.000000" lengthAdjust="spacingAndGlyphs"
text-anchor="middle" opacity="0">[</text>
</g>
<g class="stroked-text"><desc>[</desc>
<path d="M33537857 79566428
L33537857 78852142
L37823571 78852142
L37823571 79566428
" />
</g></g>
<g style="fill:#000000; fill-opacity:0.0; 
stroke:#000000; stroke-width:400000.000000; stroke-opacity:1; 
stroke-linecap:round; stroke-linejoin:round;">
<text x="50275000.000000" y="12175000.000000"
textLength="22974286.000000" font-size="4000000.000000" lengthAdjust="spacingAndGlyphs"
text-anchor="middle" opacity="0">SYNC_OPE</text>
<g class="stroked-text"><desc>SYNC_OPE</desc>
<path d="M39489285 11889285
L39917857 12032142
L40632142 12032142
L40917857 11889285
L41060714 11746428
L41203571 11460714
L41203571 11175000
L41060714 10889285
L40917857 10746428
L40632142 10603571
L40060714 10460714
L39775000 10317857
L39632142 10175000
L39489285 9889285
L39489285 9603571
L39632142 9317857
L39775000 9175000
L40060714 9032142
L40775000 9032142
L41203571 9175000
" />
<path d="M43060714 10603571
L43060714 12032142
" />
<path d="M42060714 9032142
L43060714 10603571
L44060714 9032142
" />
<path d="M45060714 12032142
L45060714 9032142
L46775000 12032142
L46775000 9032142
" />
<path d="M49917857 11746428
L49775000 11889285
L49346428 12032142
L49060714 12032142
L48632142 11889285
L48346428 11603571
L48203571 11317857
L48060714 10746428
L48060714 10317857
L48203571 9746428
L48346428 9460714
L48632142 9175000
L49060714 9032142
L49346428 9032142
L49775000 9175000
L49917857 9317857
" />
<path d="M50489285 12317857
L52775000 12317857
" />
<path d="M54060714 9032142
L54632142 9032142
L54917857 9175000
L55203571 9460714
L55346428 10032142
L55346428 11032142
L55203571 11603571
L54917857 11889285
L54632142 12032142
L54060714 12032142
L53775000 11889285
L53489285 11603571
L53346428 11032142
L53346428 10032142
L53489285 9460714
L53775000 9175000
L54060714 9032142
" />
<path d="M56632142 12032142
L56632142 9032142
L57775000 9032142
L58060714 9175000
L58203571 9317857
L58346428 9603571
L58346428 10032142
L58203571 10317857
L58060714 10460714
L57775000 10603571
L56632142 10603571
" />
<path d="M59632142 10460714
L60632142 10460714
" />
<path d="M61060714 12032142
L59632142 12032142
L59632142 9032142
L61060714 9032142
" />
</g></g>
<g style="fill:#000000; fill-opacity:0.0; 
stroke:#000000; stroke-width:250000.000000; stroke-opacity:1; 
stroke-linecap:round; stroke-linejoin:round;">
<text x="14385000.000000" y="99295000.000000"
textLength="13948571.000000" font-size="2000000.000000" lengthAdjust="spacingAndGlyphs"
text-anchor="middle" opacity="0">VIDEO_SEND</text>
<g class="stroked-text"><desc>VIDEO_SEND</desc>
<path d="M7813571 97723571
L8313571 99223571
L8813571 97723571
" />
<path d="M9313571 99223571
L9313571 97723571
" />
<path d="M10027857 99223571
L10027857 97723571
L10385000 97723571
L10599285 97795000
L10742142 97937857
L10813571 98080714
L10885000 98366428
L10885000 98580714
L10813571 98866428
L10742142 99009285
L10599285 99152142
L10385000 99223571
L10027857 99223571
" />
<path d="M11527857 98437857
L12027857 98437857
" />
<path d="M12242142 99223571
L11527857 99223571
L11527857 97723571
L12242142 97723571
" />
<path d="M13170714 97723571
L13456428 97723571
L13599285 97795000
L13742142 97937857
L13813571 98223571
L13813571 98723571
L13742142 99009285
L13599285 99152142
L13456428 99223571
L13170714 99223571
L13027857 99152142
L12885000 99009285
L12813571 98723571
L12813571 98223571
L12885000 97937857
L13027857 97795000
L13170714 97723571
" />
<path d="M14099285 99366428
L15242142 99366428
" />
<path d="M15527857 99152142
L15742142 99223571
L16099285 99223571
L16242142 99152142
L16313571 99080714
L16385000 98937857
L16385000 98795000
L16313571 98652142
L16242142 98580714
L16099285 98509285
L15813571 98437857
L15670714 98366428
L15599285 98295000
L15527857 98152142
L15527857 98009285
L15599285 97866428
L15670714 97795000
L15813571 97723571
L16170714 97723571
L16385000 97795000
" />
<path d="M17027857 98437857
L17527857 98437857
" />
<path d="M17742142 99223571
L17027857 99223571
L17027857 97723571
L17742142 97723571
" />
<path d="M18385000 99223571
L18385000 97723571
L19242142 99223571
L19242142 97723571
" />
<path d="M19956428 99223571
L19956428 97723571
L20313571 97723571
L20527857 97795000
L20670714 97937857
L20742142 98080714
L20813571 98366428
L20813571 98580714
L20742142 98866428
L20670714 99009285
L20527857 99152142
L20313571 99223571
L19956428 99223571
" />
</g></g>
<g style="fill:#000000; fill-opacity:0.0; 
stroke:#000000; stroke-width:200000.000000; stroke-opacity:1; 
stroke-linecap:round; stroke-linejoin:round;">
<g transform="rotate(90.000000 35995000.000000 98335000.000000)">
<text x="35995000.000000" y="99835000.000000"
textLength="2325000.000000" font-size="4000000.000000" lengthAdjust="spacingAndGlyphs"
text-anchor="middle" opacity="0">]</text>
</g>
<g class="stroked-text"><desc>]</desc>
<path d="M33637857 97763571
L33637857 98477857
L37923571 98477857
L37923571 97763571
" />
</g></g>
<g style="fill:#000000; fill-opacity:0.0; 
stroke:#000000; stroke-width:300000.000000; stroke-opacity:1; 
stroke-linecap:round; stroke-linejoin:round;">
<text x="50025000.000000" y="15917500.000000"
textLength="15760000.000000" font-size="2000000.000000" lengthAdjust="spacingAndGlyphs"
text-anchor="middle" opacity="0">effect / send</text>
<g class="stroked-text"><desc>effect / send</desc>
<path d="M43203571 15774642
L43060714 15846071
L42775000 15846071
L42632142 15774642
L42560714 15631785
L42560714 15060357
L42632142 14917500
L42775000 14846071
L43060714 14846071
L43203571 14917500
L43275000 15060357
L43275000 15203214
L42560714 15346071
" />
<path d="M43703571 14846071
L44275000 14846071
" />
<path d="M43917857 15846071
L43917857 14560357
L43989285 14417500
L44132142 14346071
L44275000 14346071
" />
<path d="M44560714 14846071
L45132142 14846071
" />
<path d="M44775000 15846071
L44775000 14560357
L44846428 14417500
L44989285 14346071
L45132142 14346071
" />
<path d="M46203571 15774642
L46060714 15846071
L45775000 15846071
L45632142 15774642
L45560714 15631785
L45560714 15060357
L45632142 14917500
L45775000 14846071
L46060714 14846071
L46203571 14917500
L46275000 15060357
L46275000 15203214
L45560714 15346071
" />
<path d="M47560714 15774642
L47417857 15846071
L47132142 15846071
L46989285 15774642
L46917857 15703214
L46846428 15560357
L46846428 15131785
L46917857 14988928
L46989285 14917500
L47132142 14846071
L47417857 14846071
L47560714 14917500
" />
<path d="M47989285 14846071
L48560714 14846071
" />
<path d="M48203571 14346071
L48203571 15631785
L48275000 15774642
L48417857 15846071
L48560714 15846071
" />
<path d="M51275000 14274642
L49989285 16203214
" />
<path d="M52846428 15774642
L52989285 15846071
L53275000 15846071
L53417857 15774642
L53489285 15631785
L53489285 15560357
L53417857 15417500
L53275000 15346071
L53060714 15346071
L52917857 15274642
L52846428 15131785
L52846428 15060357
L52917857 14917500
L53060714 14846071
L53275000 14846071
L53417857 14917500
" />
<path d="M54703571 15774642
L54560714 15846071
L54275000 15846071
L54132142 15774642
L54060714 15631785
L54060714 15060357
L54132142 14917500
L54275000 14846071
L54560714 14846071
L54703571 14917500
L54775000 15060357
L54775000 15203214
L54060714 15346071
" />
<path d="M55417857 14846071
L55417857 15846071
" />
<path d="M55417857 14988928
L55489285 14917500
L55632142 14846071
L55846428 14846071
L55989285 14917500
L56060714 15060357
L56060714 15846071
" />
<path d="M57417857 15846071
L57417857 14346071
" />
<path d="M57417857 15774642
L57275000 15846071
L56989285 15846071
L56846428 15774642
L56775000 15703214
L56703571 15560357
L56703571 15131785
L56775000 14988928
L56846428 14917500
L56989285 14846071
L57275000 14846071
L57417857 14917500
" />
</g><text x="50025000.000000" y="18332500.000000"
textLength="17390000.000000" font-size="2000000.000000" lengthAdjust="spacingAndGlyphs"
text-anchor="middle" opacity="0">&amp; sync restore</text>
<g class="stroked-text"><desc>&amp; sync restore</desc>
<path d="M43096428 18261071
L43025000 18261071
L42882142 18189642
L42667857 17975357
L42310714 17546785
L42167857 17332500
L42096428 17118214
L42096428 16975357
L42167857 16832500
L42310714 16761071
L42382142 16761071
L42525000 16832500
L42596428 16975357
L42596428 17046785
L42525000 17189642
L42453571 17261071
L42025000 17546785
L41953571 17618214
L41882142 17761071
L41882142 17975357
L41953571 18118214
L42025000 18189642
L42167857 18261071
L42382142 18261071
L42525000 18189642
L42596428 18118214
L42810714 17832500
L42882142 17618214
L42882142 17475357
" />
<path d="M44810714 18189642
L44953571 18261071
L45239285 18261071
L45382142 18189642
L45453571 18046785
L45453571 17975357
L45382142 17832500
L45239285 17761071
L45025000 17761071
L44882142 17689642
L44810714 17546785
L44810714 17475357
L44882142 17332500
L45025000 17261071
L45239285 17261071
L45382142 17332500
" />
<path d="M45953571 17261071
L46310714 18261071
" />
<path d="M46667857 17261071
L46310714 18261071
L46167857 18618214
L46096428 18689642
L45953571 18761071
" />
<path d="M47239285 17261071
L47239285 18261071
" />
<path d="M47239285 17403928
L47310714 17332500
L47453571 17261071
L47667857 17261071
L47810714 17332500
L47882142 17475357
L47882142 18261071
" />
<path d="M49239285 18189642
L49096428 18261071
L48810714 18261071
L48667857 18189642
L48596428 18118214
L48525000 17975357
L48525000 17546785
L48596428 17403928
L48667857 17332500
L48810714 17261071
L49096428 17261071
L49239285 17332500
" />
<path d="M51025000 18261071
L51025000 17261071
" />
<path d="M51025000 17546785
L51096428 17403928
L51167857 17332500
L51310714 17261071
L51453571 17261071
" />
<path d="M52525000 18189642
L52382142 18261071
L52096428 18261071
L51953571 18189642
L51882142 18046785
L51882142 17475357
L51953571 17332500
L52096428 17261071
L52382142 17261071
L52525000 17332500
L52596428 17475357
L52596428 17618214
L51882142 17761071
" />
<path d="M53167857 18189642
L53310714 18261071
L53596428 18261071
L53739285 18189642
L53810714 18046785
L53810714 17975357
L53739285 17832500
L53596428 17761071
L53382142 17761071
L53239285 17689642
L53167857 17546785
L53167857 17475357
L53239285 17332500
L53382142 17261071
L53596428 17261071
L53739285 17332500
" />
<path d="M54239285 17261071
L54810714 17261071
" />
<path d="M54453571 16761071
L54453571 18046785
L54525000 18189642
L54667857 18261071
L54810714 18261071
" />
<path d="M55525000 18261071
L55382142 18189642
L55310714 18118214
L55239285 17975357
L55239285 17546785
L55310714 17403928
L55382142 17332500
L55525000 17261071
L55739285 17261071
L55882142 17332500
L55953571 17403928
L56025000 17546785
L56025000 17975357
L55953571 18118214
L55882142 18189642
L55739285 18261071
L55525000 18261071
" />
<path d="M56667857 18261071
L56667857 17261071
" />
<path d="M56667857 17546785
L56739285 17403928
L56810714 17332500
L56953571 17261071
L57096428 17261071
" />
<path d="M58167857 18189642
L58025000 18261071
L57739285 18261071
L57596428 18189642
L57525000 18046785
L57525000 17475357
L57596428 17332500
L57739285 17261071
L58025000 17261071
L58167857 17332500
L58239285 17475357
L58239285 17618214
L57525000 17761071
" />
</g></g>
<g style="fill:#000000; fill-opacity:0.0; 
stroke:#000000; stroke-width:200000.000000; stroke-opacity:1; 
stroke-linecap:round; stroke-linejoin:round;">
<text x="55685000.000000" y="83055000.000000"
textLength="2390000.000000" font-size="4000000.000000" lengthAdjust="spacingAndGlyphs"
text-anchor="middle" opacity="0">[</text>
<g class="stroked-text"><desc>[</desc>
<path d="M56256428 83912142
L55542142 83912142
L55542142 79626428
L56256428 79626428
" />
</g></g>
<g style="fill:#000000; fill-opacity:0.0; 
stroke:#000000; stroke-width:250000.000000; stroke-opacity:1; 
stroke-linecap:round; stroke-linejoin:round;">
<text x="49575000.000000" y="2325000.000000"
textLength="8545714.000000" font-size="2000000.000000" lengthAdjust="spacingAndGlyphs"
text-anchor="middle" opacity="0">12V DC</text>
<g class="stroked-text"><desc>12V DC</desc>
<path d="M46575000 2253571
L45717857 2253571
" />
<path d="M46146428 2253571
L46146428 753571
L46003571 967857
L45860714 1110714
L45717857 1182142
" />
<path d="M47146428 896428
L47217857 825000
L47360714 753571
L47717857 753571
L47860714 825000
L47932142 896428
L48003571 1039285
L48003571 1182142
L47932142 1396428
L47075000 2253571
L48003571 2253571
" />
<path d="M48432142 753571
L48932142 2253571
L49432142 753571
" />
<path d="M51075000 2253571
L51075000 753571
L51432142 753571
L51646428 825000
L51789285 967857
L51860714 1110714
L51932142 1396428
L51932142 1610714
L51860714 1896428
L51789285 2039285
L51646428 2182142
L51432142 2253571
L51075000 2253571
" />
<path d="M53432142 2110714
L53360714 2182142
L53146428 2253571
L53003571 2253571
L52789285 2182142
L52646428 2039285
L52575000 1896428
L52503571 1610714
L52503571 1396428
L52575000 1110714
L52646428 967857
L52789285 825000
L53003571 753571
L53146428 753571
L53360714 825000
L53432142 896428
" />
</g><g >
</g>
<g >
</g>
<g >
</g>
</g> 
</svg>
