  0
SECTION
  2
HEADER
  9
$ACADVER
  1
AC1014
  9
$HANDSEED
  5
FFFF
  9
$INSUNITS
 70
     5
  9
$MEASUREMENT
 70
     1
  0
ENDSEC
  0
SECTION
  2
TABLES
  0
TABLE
  2
VPORT
  5
8
330
0
100
AcDbSymbolTable
 70
     4
  0
VPORT
  5
2E
330
8
100
AcDbSymbolTableRecord
100
AcDbViewportTableRecord
  2
*ACTIVE
 70
     0
 10
0.0
 20
0.0
 11
1.0
 21
1.0
 12
210.0
 22
148.5
 13
0.0
 23
0.0
 14
10.0
 24
10.0
 15
10.0
 25
10.0
 16
0.0
 26
0.0
 36
1.0
 17
0.0
 27
0.0
 37
0.0
 40
341.0
 41
1.24
 42
50.0
 43
0.0
 44
0.0
 50
0.0
 51
0.0
 71
     0
 72
   100
 73
     1
 74
     3
 75
     0
 76
     0
 77
     0
 78
     0
  0
ENDTAB
  0
TABLE
  2
LTYPE
  5
5
330
0
100
AcDbSymbolTable
 70
     1
  0
LTYPE
  5
14
330
5
100
AcDbSymbolTableRecord
100
AcDbLinetypeTableRecord
  2
BYBLOCK
 70
     0
  3

 72
    65
 73
     0
 40
0.0
  0
LTYPE
  5
15
330
5
100
AcDbSymbolTableRecord
100
AcDbLinetypeTableRecord
  2
BYLAYER
 70
     0
  3

 72
    65
 73
     0
 40
0.0
  0
LTYPE
  5
16
330
5
100
AcDbSymbolTableRecord
100
AcDbLinetypeTableRecord
  2
CONTINUOUS
 70
     0
  3
Solid line
 72
    65
 73
     0
 40
0.0
  0
ENDTAB
  0
TABLE
  2
LAYER
  5
2
100
AcDbSymbolTable
 70
1
  0
LAYER
  5
50
100
AcDbSymbolTableRecord
100
AcDbLayerTableRecord
  2
0
 70
0
  6
CONTINUOUS
  0
ENDTAB
  0
TABLE
  2
STYLE
  5
3
330
0
100
AcDbSymbolTable
 70
     1
  0
STYLE
  5
11
330
3
100
AcDbSymbolTableRecord
100
AcDbTextStyleTableRecord
  2
STANDARD
 70
     0
 40
0.0
 41
1.0
 50
0.0
 71
     0
 42
2.5
  3
txt
  4

  0
ENDTAB
  0
TABLE
  2
VIEW
  5
6
330
0
100
AcDbSymbolTable
 70
     0
  0
ENDTAB
  0
TABLE
  2
UCS
  5
7
330
0
100
AcDbSymbolTable
 70
     0
  0
ENDTAB
  0
TABLE
  2
APPID
  5
9
330
0
100
AcDbSymbolTable
 70
     2
  0
APPID
  5
12
330
9
100
AcDbSymbolTableRecord
100
AcDbRegAppTableRecord
  2
ACAD
 70
     0
  0
ENDTAB
  0
TABLE
  2
DIMSTYLE
  5
A
330
0
100
AcDbSymbolTable
 70
     1
  0
DIMSTYLE
105
27
330
A
100
AcDbSymbolTableRecord
100
AcDbDimStyleTableRecord
  2
ISO-25
 70
     0
  3

  4

  5

  6

  7

 40
1.0
 41
2.5
 42
0.625
 43
3.75
 44
1.25
 45
0.0
 46
0.0
 47
0.0
 48
0.0
140
2.5
141
2.5
142
0.0
143
0.03937007874016
144
1.0
145
0.0
146
1.0
147
0.625
 71
     0
 72
     0
 73
     0
 74
     0
 75
     0
 76
     0
 77
     1
 78
     8
170
     0
171
     3
172
     1
173
     0
174
     0
175
     0
176
     0
177
     0
178
     0
270
     2
271
     2
272
     2
273
     2
274
     3
340
11
275
     0
280
     0
281
     0
282
     0
283
     0
284
     8
285
     0
286
     0
287
     3
288
     0
  0
ENDTAB
  0
TABLE
  2
BLOCK_RECORD
  5
1
330
0
100
AcDbSymbolTable
 70
     1
  0
BLOCK_RECORD
  5
1F
330
1
100
AcDbSymbolTableRecord
100
AcDbBlockTableRecord
  2
*MODEL_SPACE
  0
BLOCK_RECORD
  5
1B
330
1
100
AcDbSymbolTableRecord
100
AcDbBlockTableRecord
  2
*PAPER_SPACE
  0
ENDTAB
  0
ENDSEC
  0
SECTION
  2
BLOCKS
  0
BLOCK
  5
20
330
1F
100
AcDbEntity
  8
0
100
AcDbBlockBegin
  2
*MODEL_SPACE
 70
     0
 10
0.0
 20
0.0
 30
0.0
  3
*MODEL_SPACE
  1

  0
ENDBLK
  5
21
330
1F
100
AcDbEntity
  8
0
100
AcDbBlockEnd
  0
BLOCK
  5
1C
330
1B
100
AcDbEntity
 67
     1
  8
0
100
AcDbBlockBegin
  2
*PAPER_SPACE
  1

  0
ENDBLK
  5
1D
330
1B
100
AcDbEntity
 67
     1
  8
0
100
AcDbBlockEnd
  0
ENDSEC
  0
SECTION
  2
ENTITIES
  0
SPLINE
  5
100
100
AcDbEntity
  8
0
 62
7
100
AcDbSpline
 70
8
 71
3
 72
8
 73
4
 74
0
 40
0
 40
0
 40
0
 40
0
 40
1
 40
1
 40
1
 40
1
 10
3.572500
 20
0.635020
 30
0.0
 10
3.491608
 20
0.635020
 30
0.0
 10
3.418680
 20
0.586292
 30
0.0
 10
3.387724
 20
0.511557
 30
0.0
  0
SPLINE
  5
101
100
AcDbEntity
  8
0
 62
7
100
AcDbSpline
 70
8
 71
3
 72
8
 73
4
 74
0
 40
0
 40
0
 40
0
 40
0
 40
1
 40
1
 40
1
 40
1
 10
3.387724
 20
0.511557
 30
0.0
 10
3.356768
 20
0.436822
 30
0.0
 10
3.373879
 20
0.350798
 30
0.0
 10
3.431079
 20
0.293599
 30
0.0
  0
SPLINE
  5
102
100
AcDbEntity
  8
0
 62
7
100
AcDbSpline
 70
8
 71
3
 72
8
 73
4
 74
0
 40
0
 40
0
 40
0
 40
0
 40
1
 40
1
 40
1
 40
1
 10
3.431079
 20
0.293599
 30
0.0
 10
3.488278
 20
0.236399
 30
0.0
 10
3.574302
 20
0.219288
 30
0.0
 10
3.649037
 20
0.250244
 30
0.0
  0
SPLINE
  5
103
100
AcDbEntity
  8
0
 62
7
100
AcDbSpline
 70
8
 71
3
 72
8
 73
4
 74
0
 40
0
 40
0
 40
0
 40
0
 40
1
 40
1
 40
1
 40
1
 10
3.649037
 20
0.250244
 30
0.0
 10
3.723772
 20
0.281200
 30
0.0
 10
3.772500
 20
0.354128
 30
0.0
 10
3.772500
 20
0.435020
 30
0.0
  0
SPLINE
  5
104
100
AcDbEntity
  8
0
 62
7
100
AcDbSpline
 70
8
 71
3
 72
8
 73
4
 74
0
 40
0
 40
0
 40
0
 40
0
 40
1
 40
1
 40
1
 40
1
 10
3.772500
 20
0.435020
 30
0.0
 10
3.772500
 20
0.488063
 30
0.0
 10
3.751429
 20
0.538934
 30
0.0
 10
3.713921
 20
0.576441
 30
0.0
  0
SPLINE
  5
105
100
AcDbEntity
  8
0
 62
7
100
AcDbSpline
 70
8
 71
3
 72
8
 73
4
 74
0
 40
0
 40
0
 40
0
 40
0
 40
1
 40
1
 40
1
 40
1
 10
3.713921
 20
0.576441
 30
0.0
 10
3.676414
 20
0.613949
 30
0.0
 10
3.625543
 20
0.635020
 30
0.0
 10
3.572500
 20
0.635020
 30
0.0
  0
LWPOLYLINE
  5
106
100
AcDbEntity
  8
0
 62
7
100
AcDbPolyline
 90
2
 70
0
 10
0.002500
 20
0.000020
 30
0.0
 10
0.002500
 20
10.000020
 30
0.0
  0
LWPOLYLINE
  5
107
100
AcDbEntity
  8
0
 62
7
100
AcDbPolyline
 90
1
 70
1
 10
3.572500
 20
0.635020
 30
0.0
  0
SPLINE
  5
108
100
AcDbEntity
  8
0
 62
7
100
AcDbSpline
 70
8
 71
3
 72
8
 73
4
 74
0
 40
0
 40
0
 40
0
 40
0
 40
1
 40
1
 40
1
 40
1
 10
5.822500
 20
0.640020
 30
0.0
 10
5.741608
 20
0.640020
 30
0.0
 10
5.668680
 20
0.591292
 30
0.0
 10
5.637724
 20
0.516557
 30
0.0
  0
SPLINE
  5
109
100
AcDbEntity
  8
0
 62
7
100
AcDbSpline
 70
8
 71
3
 72
8
 73
4
 74
0
 40
0
 40
0
 40
0
 40
0
 40
1
 40
1
 40
1
 40
1
 10
5.637724
 20
0.516557
 30
0.0
 10
5.606768
 20
0.441822
 30
0.0
 10
5.623879
 20
0.355798
 30
0.0
 10
5.681079
 20
0.298599
 30
0.0
  0
SPLINE
  5
10a
100
AcDbEntity
  8
0
 62
7
100
AcDbSpline
 70
8
 71
3
 72
8
 73
4
 74
0
 40
0
 40
0
 40
0
 40
0
 40
1
 40
1
 40
1
 40
1
 10
5.681079
 20
0.298599
 30
0.0
 10
5.738278
 20
0.241399
 30
0.0
 10
5.824302
 20
0.224288
 30
0.0
 10
5.899037
 20
0.255244
 30
0.0
  0
SPLINE
  5
10b
100
AcDbEntity
  8
0
 62
7
100
AcDbSpline
 70
8
 71
3
 72
8
 73
4
 74
0
 40
0
 40
0
 40
0
 40
0
 40
1
 40
1
 40
1
 40
1
 10
5.899037
 20
0.255244
 30
0.0
 10
5.973772
 20
0.286200
 30
0.0
 10
6.022500
 20
0.359128
 30
0.0
 10
6.022500
 20
0.440020
 30
0.0
  0
SPLINE
  5
10c
100
AcDbEntity
  8
0
 62
7
100
AcDbSpline
 70
8
 71
3
 72
8
 73
4
 74
0
 40
0
 40
0
 40
0
 40
0
 40
1
 40
1
 40
1
 40
1
 10
6.022500
 20
0.440020
 30
0.0
 10
6.022500
 20
0.493063
 30
0.0
 10
6.001429
 20
0.543934
 30
0.0
 10
5.963921
 20
0.581441
 30
0.0
  0
SPLINE
  5
10d
100
AcDbEntity
  8
0
 62
7
100
AcDbSpline
 70
8
 71
3
 72
8
 73
4
 74
0
 40
0
 40
0
 40
0
 40
0
 40
1
 40
1
 40
1
 40
1
 10
5.963921
 20
0.581441
 30
0.0
 10
5.926414
 20
0.618949
 30
0.0
 10
5.875543
 20
0.640020
 30
0.0
 10
5.822500
 20
0.640020
 30
0.0
  0
LWPOLYLINE
  5
10e
100
AcDbEntity
  8
0
 62
7
100
AcDbPolyline
 90
2
 70
0
 10
10.002500
 20
10.000020
 30
0.0
 10
10.002500
 20
0.000020
 30
0.0
  0
SPLINE
  5
10f
100
AcDbEntity
  8
0
 62
7
100
AcDbSpline
 70
8
 71
3
 72
8
 73
4
 74
0
 40
0
 40
0
 40
0
 40
0
 40
1
 40
1
 40
1
 40
1
 10
3.572500
 20
2.035020
 30
0.0
 10
3.491608
 20
2.035020
 30
0.0
 10
3.418680
 20
1.986292
 30
0.0
 10
3.387724
 20
1.911557
 30
0.0
  0
SPLINE
  5
110
100
AcDbEntity
  8
0
 62
7
100
AcDbSpline
 70
8
 71
3
 72
8
 73
4
 74
0
 40
0
 40
0
 40
0
 40
0
 40
1
 40
1
 40
1
 40
1
 10
3.387724
 20
1.911557
 30
0.0
 10
3.356768
 20
1.836822
 30
0.0
 10
3.373879
 20
1.750798
 30
0.0
 10
3.431079
 20
1.693599
 30
0.0
  0
SPLINE
  5
111
100
AcDbEntity
  8
0
 62
7
100
AcDbSpline
 70
8
 71
3
 72
8
 73
4
 74
0
 40
0
 40
0
 40
0
 40
0
 40
1
 40
1
 40
1
 40
1
 10
3.431079
 20
1.693599
 30
0.0
 10
3.488278
 20
1.636399
 30
0.0
 10
3.574302
 20
1.619288
 30
0.0
 10
3.649037
 20
1.650244
 30
0.0
  0
SPLINE
  5
112
100
AcDbEntity
  8
0
 62
7
100
AcDbSpline
 70
8
 71
3
 72
8
 73
4
 74
0
 40
0
 40
0
 40
0
 40
0
 40
1
 40
1
 40
1
 40
1
 10
3.649037
 20
1.650244
 30
0.0
 10
3.723772
 20
1.681200
 30
0.0
 10
3.772500
 20
1.754128
 30
0.0
 10
3.772500
 20
1.835020
 30
0.0
  0
SPLINE
  5
113
100
AcDbEntity
  8
0
 62
7
100
AcDbSpline
 70
8
 71
3
 72
8
 73
4
 74
0
 40
0
 40
0
 40
0
 40
0
 40
1
 40
1
 40
1
 40
1
 10
3.772500
 20
1.835020
 30
0.0
 10
3.772500
 20
1.888063
 30
0.0
 10
3.751429
 20
1.938934
 30
0.0
 10
3.713921
 20
1.976441
 30
0.0
  0
SPLINE
  5
114
100
AcDbEntity
  8
0
 62
7
100
AcDbSpline
 70
8
 71
3
 72
8
 73
4
 74
0
 40
0
 40
0
 40
0
 40
0
 40
1
 40
1
 40
1
 40
1
 10
3.713921
 20
1.976441
 30
0.0
 10
3.676414
 20
2.013949
 30
0.0
 10
3.625543
 20
2.035020
 30
0.0
 10
3.572500
 20
2.035020
 30
0.0
  0
LWPOLYLINE
  5
115
100
AcDbEntity
  8
0
 62
7
100
AcDbPolyline
 90
1
 70
1
 10
5.822500
 20
0.640020
 30
0.0
  0
SPLINE
  5
116
100
AcDbEntity
  8
0
 62
7
100
AcDbSpline
 70
8
 71
3
 72
8
 73
4
 74
0
 40
0
 40
0
 40
0
 40
0
 40
1
 40
1
 40
1
 40
1
 10
0.352500
 20
9.830020
 30
0.0
 10
0.279697
 20
9.830020
 30
0.0
 10
0.214062
 20
9.786164
 30
0.0
 10
0.186202
 20
9.718903
 30
0.0
  0
SPLINE
  5
117
100
AcDbEntity
  8
0
 62
7
100
AcDbSpline
 70
8
 71
3
 72
8
 73
4
 74
0
 40
0
 40
0
 40
0
 40
0
 40
1
 40
1
 40
1
 40
1
 10
0.186202
 20
9.718903
 30
0.0
 10
0.158341
 20
9.651642
 30
0.0
 10
0.173741
 20
9.574220
 30
0.0
 10
0.225221
 20
9.522741
 30
0.0
  0
SPLINE
  5
118
100
AcDbEntity
  8
0
 62
7
100
AcDbSpline
 70
8
 71
3
 72
8
 73
4
 74
0
 40
0
 40
0
 40
0
 40
0
 40
1
 40
1
 40
1
 40
1
 10
0.225221
 20
9.522741
 30
0.0
 10
0.276700
 20
9.471261
 30
0.0
 10
0.354122
 20
9.455861
 30
0.0
 10
0.421383
 20
9.483722
 30
0.0
  0
SPLINE
  5
119
100
AcDbEntity
  8
0
 62
7
100
AcDbSpline
 70
8
 71
3
 72
8
 73
4
 74
0
 40
0
 40
0
 40
0
 40
0
 40
1
 40
1
 40
1
 40
1
 10
0.421383
 20
9.483722
 30
0.0
 10
0.488644
 20
9.511582
 30
0.0
 10
0.532500
 20
9.577217
 30
0.0
 10
0.532500
 20
9.650020
 30
0.0
  0
SPLINE
  5
11a
100
AcDbEntity
  8
0
 62
7
100
AcDbSpline
 70
8
 71
3
 72
8
 73
4
 74
0
 40
0
 40
0
 40
0
 40
0
 40
1
 40
1
 40
1
 40
1
 10
0.532500
 20
9.650020
 30
0.0
 10
0.532500
 20
9.749431
 30
0.0
 10
0.451911
 20
9.830020
 30
0.0
 10
0.352500
 20
9.830020
 30
0.0
  0
LWPOLYLINE
  5
11b
100
AcDbEntity
  8
0
 62
7
100
AcDbPolyline
 90
1
 70
1
 10
3.572500
 20
2.035020
 30
0.0
  0
SPLINE
  5
11c
100
AcDbEntity
  8
0
 62
7
100
AcDbSpline
 70
8
 71
3
 72
8
 73
4
 74
0
 40
0
 40
0
 40
0
 40
0
 40
1
 40
1
 40
1
 40
1
 10
1.317500
 20
9.645020
 30
0.0
 10
1.054600
 20
9.645020
 30
0.0
 10
0.817586
 20
9.486653
 30
0.0
 10
0.716978
 20
9.243764
 30
0.0
  0
SPLINE
  5
11d
100
AcDbEntity
  8
0
 62
7
100
AcDbSpline
 70
8
 71
3
 72
8
 73
4
 74
0
 40
0
 40
0
 40
0
 40
0
 40
1
 40
1
 40
1
 40
1
 10
0.716978
 20
9.243764
 30
0.0
 10
0.616371
 20
9.000876
 30
0.0
 10
0.671982
 20
8.721299
 30
0.0
 10
0.857881
 20
8.535401
 30
0.0
  0
SPLINE
  5
11e
100
AcDbEntity
  8
0
 62
7
100
AcDbSpline
 70
8
 71
3
 72
8
 73
4
 74
0
 40
0
 40
0
 40
0
 40
0
 40
1
 40
1
 40
1
 40
1
 10
0.857881
 20
8.535401
 30
0.0
 10
1.043779
 20
8.349502
 30
0.0
 10
1.323356
 20
8.293891
 30
0.0
 10
1.566244
 20
8.394498
 30
0.0
  0
SPLINE
  5
11f
100
AcDbEntity
  8
0
 62
7
100
AcDbSpline
 70
8
 71
3
 72
8
 73
4
 74
0
 40
0
 40
0
 40
0
 40
0
 40
1
 40
1
 40
1
 40
1
 10
1.566244
 20
8.394498
 30
0.0
 10
1.809133
 20
8.495106
 30
0.0
 10
1.967500
 20
8.732120
 30
0.0
 10
1.967500
 20
8.995020
 30
0.0
  0
SPLINE
  5
120
100
AcDbEntity
  8
0
 62
7
100
AcDbSpline
 70
8
 71
3
 72
8
 73
4
 74
0
 40
0
 40
0
 40
0
 40
0
 40
1
 40
1
 40
1
 40
1
 10
1.967500
 20
8.995020
 30
0.0
 10
1.967500
 20
9.167411
 30
0.0
 10
1.899018
 20
9.332741
 30
0.0
 10
1.777119
 20
9.454639
 30
0.0
  0
SPLINE
  5
121
100
AcDbEntity
  8
0
 62
7
100
AcDbSpline
 70
8
 71
3
 72
8
 73
4
 74
0
 40
0
 40
0
 40
0
 40
0
 40
1
 40
1
 40
1
 40
1
 10
1.777119
 20
9.454639
 30
0.0
 10
1.655221
 20
9.576538
 30
0.0
 10
1.489891
 20
9.645020
 30
0.0
 10
1.317500
 20
9.645020
 30
0.0
  0
LWPOLYLINE
  5
122
100
AcDbEntity
  8
0
 62
7
100
AcDbPolyline
 90
1
 70
1
 10
0.352500
 20
9.830020
 30
0.0
  0
SPLINE
  5
123
100
AcDbEntity
  8
0
 62
7
100
AcDbSpline
 70
8
 71
3
 72
8
 73
4
 74
0
 40
0
 40
0
 40
0
 40
0
 40
1
 40
1
 40
1
 40
1
 10
9.652500
 20
0.530020
 30
0.0
 10
9.579697
 20
0.530020
 30
0.0
 10
9.514062
 20
0.486164
 30
0.0
 10
9.486202
 20
0.418903
 30
0.0
  0
SPLINE
  5
124
100
AcDbEntity
  8
0
 62
7
100
AcDbSpline
 70
8
 71
3
 72
8
 73
4
 74
0
 40
0
 40
0
 40
0
 40
0
 40
1
 40
1
 40
1
 40
1
 10
9.486202
 20
0.418903
 30
0.0
 10
9.458341
 20
0.351642
 30
0.0
 10
9.473741
 20
0.274220
 30
0.0
 10
9.525221
 20
0.222741
 30
0.0
  0
SPLINE
  5
125
100
AcDbEntity
  8
0
 62
7
100
AcDbSpline
 70
8
 71
3
 72
8
 73
4
 74
0
 40
0
 40
0
 40
0
 40
0
 40
1
 40
1
 40
1
 40
1
 10
9.525221
 20
0.222741
 30
0.0
 10
9.576700
 20
0.171261
 30
0.0
 10
9.654122
 20
0.155861
 30
0.0
 10
9.721383
 20
0.183722
 30
0.0
  0
SPLINE
  5
126
100
AcDbEntity
  8
0
 62
7
100
AcDbSpline
 70
8
 71
3
 72
8
 73
4
 74
0
 40
0
 40
0
 40
0
 40
0
 40
1
 40
1
 40
1
 40
1
 10
9.721383
 20
0.183722
 30
0.0
 10
9.788644
 20
0.211582
 30
0.0
 10
9.832500
 20
0.277217
 30
0.0
 10
9.832500
 20
0.350020
 30
0.0
  0
SPLINE
  5
127
100
AcDbEntity
  8
0
 62
7
100
AcDbSpline
 70
8
 71
3
 72
8
 73
4
 74
0
 40
0
 40
0
 40
0
 40
0
 40
1
 40
1
 40
1
 40
1
 10
9.832500
 20
0.350020
 30
0.0
 10
9.832500
 20
0.449431
 30
0.0
 10
9.751911
 20
0.530020
 30
0.0
 10
9.652500
 20
0.530020
 30
0.0
  0
LWPOLYLINE
  5
128
100
AcDbEntity
  8
0
 62
7
100
AcDbPolyline
 90
1
 70
1
 10
1.317500
 20
9.645020
 30
0.0
  0
SPLINE
  5
129
100
AcDbEntity
  8
0
 62
7
100
AcDbSpline
 70
8
 71
3
 72
8
 73
4
 74
0
 40
0
 40
0
 40
0
 40
0
 40
1
 40
1
 40
1
 40
1
 10
5.822500
 20
2.035020
 30
0.0
 10
5.741608
 20
2.035020
 30
0.0
 10
5.668680
 20
1.986292
 30
0.0
 10
5.637724
 20
1.911557
 30
0.0
  0
SPLINE
  5
12a
100
AcDbEntity
  8
0
 62
7
100
AcDbSpline
 70
8
 71
3
 72
8
 73
4
 74
0
 40
0
 40
0
 40
0
 40
0
 40
1
 40
1
 40
1
 40
1
 10
5.637724
 20
1.911557
 30
0.0
 10
5.606768
 20
1.836822
 30
0.0
 10
5.623879
 20
1.750798
 30
0.0
 10
5.681079
 20
1.693599
 30
0.0
  0
SPLINE
  5
12b
100
AcDbEntity
  8
0
 62
7
100
AcDbSpline
 70
8
 71
3
 72
8
 73
4
 74
0
 40
0
 40
0
 40
0
 40
0
 40
1
 40
1
 40
1
 40
1
 10
5.681079
 20
1.693599
 30
0.0
 10
5.738278
 20
1.636399
 30
0.0
 10
5.824302
 20
1.619288
 30
0.0
 10
5.899037
 20
1.650244
 30
0.0
  0
SPLINE
  5
12c
100
AcDbEntity
  8
0
 62
7
100
AcDbSpline
 70
8
 71
3
 72
8
 73
4
 74
0
 40
0
 40
0
 40
0
 40
0
 40
1
 40
1
 40
1
 40
1
 10
5.899037
 20
1.650244
 30
0.0
 10
5.973772
 20
1.681200
 30
0.0
 10
6.022500
 20
1.754128
 30
0.0
 10
6.022500
 20
1.835020
 30
0.0
  0
SPLINE
  5
12d
100
AcDbEntity
  8
0
 62
7
100
AcDbSpline
 70
8
 71
3
 72
8
 73
4
 74
0
 40
0
 40
0
 40
0
 40
0
 40
1
 40
1
 40
1
 40
1
 10
6.022500
 20
1.835020
 30
0.0
 10
6.022500
 20
1.888063
 30
0.0
 10
6.001429
 20
1.938934
 30
0.0
 10
5.963921
 20
1.976441
 30
0.0
  0
SPLINE
  5
12e
100
AcDbEntity
  8
0
 62
7
100
AcDbSpline
 70
8
 71
3
 72
8
 73
4
 74
0
 40
0
 40
0
 40
0
 40
0
 40
1
 40
1
 40
1
 40
1
 10
5.963921
 20
1.976441
 30
0.0
 10
5.926414
 20
2.013949
 30
0.0
 10
5.875543
 20
2.035020
 30
0.0
 10
5.822500
 20
2.035020
 30
0.0
  0
LWPOLYLINE
  5
12f
100
AcDbEntity
  8
0
 62
7
100
AcDbPolyline
 90
1
 70
1
 10
9.652500
 20
0.530020
 30
0.0
  0
SPLINE
  5
130
100
AcDbEntity
  8
0
 62
7
100
AcDbSpline
 70
8
 71
3
 72
8
 73
4
 74
0
 40
0
 40
0
 40
0
 40
0
 40
1
 40
1
 40
1
 40
1
 10
8.752500
 20
9.595020
 30
0.0
 10
8.489600
 20
9.595020
 30
0.0
 10
8.252586
 20
9.436653
 30
0.0
 10
8.151978
 20
9.193764
 30
0.0
  0
SPLINE
  5
131
100
AcDbEntity
  8
0
 62
7
100
AcDbSpline
 70
8
 71
3
 72
8
 73
4
 74
0
 40
0
 40
0
 40
0
 40
0
 40
1
 40
1
 40
1
 40
1
 10
8.151978
 20
9.193764
 30
0.0
 10
8.051371
 20
8.950876
 30
0.0
 10
8.106982
 20
8.671299
 30
0.0
 10
8.292881
 20
8.485401
 30
0.0
  0
SPLINE
  5
132
100
AcDbEntity
  8
0
 62
7
100
AcDbSpline
 70
8
 71
3
 72
8
 73
4
 74
0
 40
0
 40
0
 40
0
 40
0
 40
1
 40
1
 40
1
 40
1
 10
8.292881
 20
8.485401
 30
0.0
 10
8.478779
 20
8.299502
 30
0.0
 10
8.758356
 20
8.243891
 30
0.0
 10
9.001244
 20
8.344498
 30
0.0
  0
SPLINE
  5
133
100
AcDbEntity
  8
0
 62
7
100
AcDbSpline
 70
8
 71
3
 72
8
 73
4
 74
0
 40
0
 40
0
 40
0
 40
0
 40
1
 40
1
 40
1
 40
1
 10
9.001244
 20
8.344498
 30
0.0
 10
9.244133
 20
8.445106
 30
0.0
 10
9.402500
 20
8.682120
 30
0.0
 10
9.402500
 20
8.945020
 30
0.0
  0
SPLINE
  5
134
100
AcDbEntity
  8
0
 62
7
100
AcDbSpline
 70
8
 71
3
 72
8
 73
4
 74
0
 40
0
 40
0
 40
0
 40
0
 40
1
 40
1
 40
1
 40
1
 10
9.402500
 20
8.945020
 30
0.0
 10
9.402500
 20
9.117411
 30
0.0
 10
9.334018
 20
9.282741
 30
0.0
 10
9.212119
 20
9.404639
 30
0.0
  0
SPLINE
  5
135
100
AcDbEntity
  8
0
 62
7
100
AcDbSpline
 70
8
 71
3
 72
8
 73
4
 74
0
 40
0
 40
0
 40
0
 40
0
 40
1
 40
1
 40
1
 40
1
 10
9.212119
 20
9.404639
 30
0.0
 10
9.090221
 20
9.526538
 30
0.0
 10
8.924891
 20
9.595020
 30
0.0
 10
8.752500
 20
9.595020
 30
0.0
  0
LWPOLYLINE
  5
136
100
AcDbEntity
  8
0
 62
7
100
AcDbPolyline
 90
1
 70
1
 10
5.822500
 20
2.035020
 30
0.0
  0
SPLINE
  5
137
100
AcDbEntity
  8
0
 62
7
100
AcDbSpline
 70
8
 71
3
 72
8
 73
4
 74
0
 40
0
 40
0
 40
0
 40
0
 40
1
 40
1
 40
1
 40
1
 10
0.352500
 20
0.530020
 30
0.0
 10
0.279697
 20
0.530020
 30
0.0
 10
0.214062
 20
0.486164
 30
0.0
 10
0.186202
 20
0.418903
 30
0.0
  0
SPLINE
  5
138
100
AcDbEntity
  8
0
 62
7
100
AcDbSpline
 70
8
 71
3
 72
8
 73
4
 74
0
 40
0
 40
0
 40
0
 40
0
 40
1
 40
1
 40
1
 40
1
 10
0.186202
 20
0.418903
 30
0.0
 10
0.158341
 20
0.351642
 30
0.0
 10
0.173741
 20
0.274220
 30
0.0
 10
0.225221
 20
0.222741
 30
0.0
  0
SPLINE
  5
139
100
AcDbEntity
  8
0
 62
7
100
AcDbSpline
 70
8
 71
3
 72
8
 73
4
 74
0
 40
0
 40
0
 40
0
 40
0
 40
1
 40
1
 40
1
 40
1
 10
0.225221
 20
0.222741
 30
0.0
 10
0.276700
 20
0.171261
 30
0.0
 10
0.354122
 20
0.155861
 30
0.0
 10
0.421383
 20
0.183722
 30
0.0
  0
SPLINE
  5
13a
100
AcDbEntity
  8
0
 62
7
100
AcDbSpline
 70
8
 71
3
 72
8
 73
4
 74
0
 40
0
 40
0
 40
0
 40
0
 40
1
 40
1
 40
1
 40
1
 10
0.421383
 20
0.183722
 30
0.0
 10
0.488644
 20
0.211582
 30
0.0
 10
0.532500
 20
0.277217
 30
0.0
 10
0.532500
 20
0.350020
 30
0.0
  0
SPLINE
  5
13b
100
AcDbEntity
  8
0
 62
7
100
AcDbSpline
 70
8
 71
3
 72
8
 73
4
 74
0
 40
0
 40
0
 40
0
 40
0
 40
1
 40
1
 40
1
 40
1
 10
0.532500
 20
0.350020
 30
0.0
 10
0.532500
 20
0.449431
 30
0.0
 10
0.451911
 20
0.530020
 30
0.0
 10
0.352500
 20
0.530020
 30
0.0
  0
LWPOLYLINE
  5
13c
100
AcDbEntity
  8
0
 62
7
100
AcDbPolyline
 90
1
 70
1
 10
8.752500
 20
9.595020
 30
0.0
  0
LWPOLYLINE
  5
13d
100
AcDbEntity
  8
0
 62
7
100
AcDbPolyline
 90
1
 70
1
 10
0.352500
 20
0.530020
 30
0.0
  0
SPLINE
  5
13e
100
AcDbEntity
  8
0
 62
7
100
AcDbSpline
 70
8
 71
3
 72
8
 73
4
 74
0
 40
0
 40
0
 40
0
 40
0
 40
1
 40
1
 40
1
 40
1
 10
5.027500
 20
6.220020
 30
0.0
 10
4.958741
 20
6.220020
 30
0.0
 10
4.896753
 20
6.178601
 30
0.0
 10
4.870440
 20
6.115076
 30
0.0
  0
SPLINE
  5
13f
100
AcDbEntity
  8
0
 62
7
100
AcDbSpline
 70
8
 71
3
 72
8
 73
4
 74
0
 40
0
 40
0
 40
0
 40
0
 40
1
 40
1
 40
1
 40
1
 10
4.870440
 20
6.115076
 30
0.0
 10
4.844128
 20
6.051552
 30
0.0
 10
4.858672
 20
5.978432
 30
0.0
 10
4.907292
 20
5.929812
 30
0.0
  0
SPLINE
  5
140
100
AcDbEntity
  8
0
 62
7
100
AcDbSpline
 70
8
 71
3
 72
8
 73
4
 74
0
 40
0
 40
0
 40
0
 40
0
 40
1
 40
1
 40
1
 40
1
 10
4.907292
 20
5.929812
 30
0.0
 10
4.955912
 20
5.881192
 30
0.0
 10
5.029032
 20
5.866648
 30
0.0
 10
5.092556
 20
5.892960
 30
0.0
  0
SPLINE
  5
141
100
AcDbEntity
  8
0
 62
7
100
AcDbSpline
 70
8
 71
3
 72
8
 73
4
 74
0
 40
0
 40
0
 40
0
 40
0
 40
1
 40
1
 40
1
 40
1
 10
5.092556
 20
5.892960
 30
0.0
 10
5.156081
 20
5.919273
 30
0.0
 10
5.197500
 20
5.981261
 30
0.0
 10
5.197500
 20
6.050020
 30
0.0
  0
SPLINE
  5
142
100
AcDbEntity
  8
0
 62
7
100
AcDbSpline
 70
8
 71
3
 72
8
 73
4
 74
0
 40
0
 40
0
 40
0
 40
0
 40
1
 40
1
 40
1
 40
1
 10
5.197500
 20
6.050020
 30
0.0
 10
5.197500
 20
6.095107
 30
0.0
 10
5.179589
 20
6.138347
 30
0.0
 10
5.147708
 20
6.170228
 30
0.0
  0
SPLINE
  5
143
100
AcDbEntity
  8
0
 62
7
100
AcDbSpline
 70
8
 71
3
 72
8
 73
4
 74
0
 40
0
 40
0
 40
0
 40
0
 40
1
 40
1
 40
1
 40
1
 10
5.147708
 20
6.170228
 30
0.0
 10
5.115827
 20
6.202109
 30
0.0
 10
5.072587
 20
6.220020
 30
0.0
 10
5.027500
 20
6.220020
 30
0.0
  0
LWPOLYLINE
  5
144
100
AcDbEntity
  8
0
 62
7
100
AcDbPolyline
 90
2
 70
0
 10
0.002500
 20
10.000020
 30
0.0
 10
10.002500
 20
10.000020
 30
0.0
  0
SPLINE
  5
145
100
AcDbEntity
  8
0
 62
7
100
AcDbSpline
 70
8
 71
3
 72
8
 73
4
 74
0
 40
0
 40
0
 40
0
 40
0
 40
1
 40
1
 40
1
 40
1
 10
0.952500
 20
2.960020
 30
0.0
 10
0.810938
 20
2.960020
 30
0.0
 10
0.683316
 20
2.874745
 30
0.0
 10
0.629142
 20
2.743959
 30
0.0
  0
SPLINE
  5
146
100
AcDbEntity
  8
0
 62
7
100
AcDbSpline
 70
8
 71
3
 72
8
 73
4
 74
0
 40
0
 40
0
 40
0
 40
0
 40
1
 40
1
 40
1
 40
1
 10
0.629142
 20
2.743959
 30
0.0
 10
0.574969
 20
2.613173
 30
0.0
 10
0.604913
 20
2.462632
 30
0.0
 10
0.705013
 20
2.362533
 30
0.0
  0
SPLINE
  5
147
100
AcDbEntity
  8
0
 62
7
100
AcDbSpline
 70
8
 71
3
 72
8
 73
4
 74
0
 40
0
 40
0
 40
0
 40
0
 40
1
 40
1
 40
1
 40
1
 10
0.705013
 20
2.362533
 30
0.0
 10
0.805112
 20
2.262433
 30
0.0
 10
0.955653
 20
2.232489
 30
0.0
 10
1.086439
 20
2.286662
 30
0.0
  0
SPLINE
  5
148
100
AcDbEntity
  8
0
 62
7
100
AcDbSpline
 70
8
 71
3
 72
8
 73
4
 74
0
 40
0
 40
0
 40
0
 40
0
 40
1
 40
1
 40
1
 40
1
 10
1.086439
 20
2.286662
 30
0.0
 10
1.217225
 20
2.340836
 30
0.0
 10
1.302500
 20
2.468458
 30
0.0
 10
1.302500
 20
2.610020
 30
0.0
  0
SPLINE
  5
149
100
AcDbEntity
  8
0
 62
7
100
AcDbSpline
 70
8
 71
3
 72
8
 73
4
 74
0
 40
0
 40
0
 40
0
 40
0
 40
1
 40
1
 40
1
 40
1
 10
1.302500
 20
2.610020
 30
0.0
 10
1.302500
 20
2.803320
 30
0.0
 10
1.145800
 20
2.960020
 30
0.0
 10
0.952500
 20
2.960020
 30
0.0
  0
LWPOLYLINE
  5
14a
100
AcDbEntity
  8
0
 62
7
100
AcDbPolyline
 90
1
 70
1
 10
5.027500
 20
6.220020
 30
0.0
  0
SPLINE
  5
14b
100
AcDbEntity
  8
0
 62
7
100
AcDbSpline
 70
8
 71
3
 72
8
 73
4
 74
0
 40
0
 40
0
 40
0
 40
0
 40
1
 40
1
 40
1
 40
1
 10
1.207500
 20
1.590020
 30
0.0
 10
0.944600
 20
1.590020
 30
0.0
 10
0.707586
 20
1.431653
 30
0.0
 10
0.606978
 20
1.188764
 30
0.0
  0
SPLINE
  5
14c
100
AcDbEntity
  8
0
 62
7
100
AcDbSpline
 70
8
 71
3
 72
8
 73
4
 74
0
 40
0
 40
0
 40
0
 40
0
 40
1
 40
1
 40
1
 40
1
 10
0.606978
 20
1.188764
 30
0.0
 10
0.506371
 20
0.945876
 30
0.0
 10
0.561982
 20
0.666299
 30
0.0
 10
0.747881
 20
0.480401
 30
0.0
  0
SPLINE
  5
14d
100
AcDbEntity
  8
0
 62
7
100
AcDbSpline
 70
8
 71
3
 72
8
 73
4
 74
0
 40
0
 40
0
 40
0
 40
0
 40
1
 40
1
 40
1
 40
1
 10
0.747881
 20
0.480401
 30
0.0
 10
0.933779
 20
0.294502
 30
0.0
 10
1.213356
 20
0.238891
 30
0.0
 10
1.456244
 20
0.339498
 30
0.0
  0
SPLINE
  5
14e
100
AcDbEntity
  8
0
 62
7
100
AcDbSpline
 70
8
 71
3
 72
8
 73
4
 74
0
 40
0
 40
0
 40
0
 40
0
 40
1
 40
1
 40
1
 40
1
 10
1.456244
 20
0.339498
 30
0.0
 10
1.699133
 20
0.440106
 30
0.0
 10
1.857500
 20
0.677120
 30
0.0
 10
1.857500
 20
0.940020
 30
0.0
  0
SPLINE
  5
14f
100
AcDbEntity
  8
0
 62
7
100
AcDbSpline
 70
8
 71
3
 72
8
 73
4
 74
0
 40
0
 40
0
 40
0
 40
0
 40
1
 40
1
 40
1
 40
1
 10
1.857500
 20
0.940020
 30
0.0
 10
1.857500
 20
1.112411
 30
0.0
 10
1.789018
 20
1.277741
 30
0.0
 10
1.667119
 20
1.399639
 30
0.0
  0
SPLINE
  5
150
100
AcDbEntity
  8
0
 62
7
100
AcDbSpline
 70
8
 71
3
 72
8
 73
4
 74
0
 40
0
 40
0
 40
0
 40
0
 40
1
 40
1
 40
1
 40
1
 10
1.667119
 20
1.399639
 30
0.0
 10
1.545221
 20
1.521538
 30
0.0
 10
1.379891
 20
1.590020
 30
0.0
 10
1.207500
 20
1.590020
 30
0.0
  0
LWPOLYLINE
  5
151
100
AcDbEntity
  8
0
 62
7
100
AcDbPolyline
 90
1
 70
1
 10
0.952500
 20
2.960020
 30
0.0
  0
SPLINE
  5
152
100
AcDbEntity
  8
0
 62
7
100
AcDbSpline
 70
8
 71
3
 72
8
 73
4
 74
0
 40
0
 40
0
 40
0
 40
0
 40
1
 40
1
 40
1
 40
1
 10
9.052500
 20
2.910020
 30
0.0
 10
8.910938
 20
2.910020
 30
0.0
 10
8.783316
 20
2.824745
 30
0.0
 10
8.729142
 20
2.693959
 30
0.0
  0
SPLINE
  5
153
100
AcDbEntity
  8
0
 62
7
100
AcDbSpline
 70
8
 71
3
 72
8
 73
4
 74
0
 40
0
 40
0
 40
0
 40
0
 40
1
 40
1
 40
1
 40
1
 10
8.729142
 20
2.693959
 30
0.0
 10
8.674969
 20
2.563173
 30
0.0
 10
8.704913
 20
2.412632
 30
0.0
 10
8.805013
 20
2.312533
 30
0.0
  0
SPLINE
  5
154
100
AcDbEntity
  8
0
 62
7
100
AcDbSpline
 70
8
 71
3
 72
8
 73
4
 74
0
 40
0
 40
0
 40
0
 40
0
 40
1
 40
1
 40
1
 40
1
 10
8.805013
 20
2.312533
 30
0.0
 10
8.905112
 20
2.212433
 30
0.0
 10
9.055653
 20
2.182489
 30
0.0
 10
9.186439
 20
2.236662
 30
0.0
  0
SPLINE
  5
155
100
AcDbEntity
  8
0
 62
7
100
AcDbSpline
 70
8
 71
3
 72
8
 73
4
 74
0
 40
0
 40
0
 40
0
 40
0
 40
1
 40
1
 40
1
 40
1
 10
9.186439
 20
2.236662
 30
0.0
 10
9.317225
 20
2.290836
 30
0.0
 10
9.402500
 20
2.418458
 30
0.0
 10
9.402500
 20
2.560020
 30
0.0
  0
SPLINE
  5
156
100
AcDbEntity
  8
0
 62
7
100
AcDbSpline
 70
8
 71
3
 72
8
 73
4
 74
0
 40
0
 40
0
 40
0
 40
0
 40
1
 40
1
 40
1
 40
1
 10
9.402500
 20
2.560020
 30
0.0
 10
9.402500
 20
2.652846
 30
0.0
 10
9.365625
 20
2.741870
 30
0.0
 10
9.299987
 20
2.807507
 30
0.0
  0
SPLINE
  5
157
100
AcDbEntity
  8
0
 62
7
100
AcDbSpline
 70
8
 71
3
 72
8
 73
4
 74
0
 40
0
 40
0
 40
0
 40
0
 40
1
 40
1
 40
1
 40
1
 10
9.299987
 20
2.807507
 30
0.0
 10
9.234350
 20
2.873145
 30
0.0
 10
9.145326
 20
2.910020
 30
0.0
 10
9.052500
 20
2.910020
 30
0.0
  0
LWPOLYLINE
  5
158
100
AcDbEntity
  8
0
 62
7
100
AcDbPolyline
 90
1
 70
1
 10
1.207500
 20
1.590020
 30
0.0
  0
SPLINE
  5
159
100
AcDbEntity
  8
0
 62
7
100
AcDbSpline
 70
8
 71
3
 72
8
 73
4
 74
0
 40
0
 40
0
 40
0
 40
0
 40
1
 40
1
 40
1
 40
1
 10
5.002500
 20
5.310020
 30
0.0
 10
4.860938
 20
5.310020
 30
0.0
 10
4.733316
 20
5.224745
 30
0.0
 10
4.679142
 20
5.093959
 30
0.0
  0
SPLINE
  5
15a
100
AcDbEntity
  8
0
 62
7
100
AcDbSpline
 70
8
 71
3
 72
8
 73
4
 74
0
 40
0
 40
0
 40
0
 40
0
 40
1
 40
1
 40
1
 40
1
 10
4.679142
 20
5.093959
 30
0.0
 10
4.624969
 20
4.963173
 30
0.0
 10
4.654913
 20
4.812632
 30
0.0
 10
4.755013
 20
4.712533
 30
0.0
  0
SPLINE
  5
15b
100
AcDbEntity
  8
0
 62
7
100
AcDbSpline
 70
8
 71
3
 72
8
 73
4
 74
0
 40
0
 40
0
 40
0
 40
0
 40
1
 40
1
 40
1
 40
1
 10
4.755013
 20
4.712533
 30
0.0
 10
4.855112
 20
4.612433
 30
0.0
 10
5.005653
 20
4.582489
 30
0.0
 10
5.136439
 20
4.636662
 30
0.0
  0
SPLINE
  5
15c
100
AcDbEntity
  8
0
 62
7
100
AcDbSpline
 70
8
 71
3
 72
8
 73
4
 74
0
 40
0
 40
0
 40
0
 40
0
 40
1
 40
1
 40
1
 40
1
 10
5.136439
 20
4.636662
 30
0.0
 10
5.267225
 20
4.690836
 30
0.0
 10
5.352500
 20
4.818458
 30
0.0
 10
5.352500
 20
4.960020
 30
0.0
  0
SPLINE
  5
15d
100
AcDbEntity
  8
0
 62
7
100
AcDbSpline
 70
8
 71
3
 72
8
 73
4
 74
0
 40
0
 40
0
 40
0
 40
0
 40
1
 40
1
 40
1
 40
1
 10
5.352500
 20
4.960020
 30
0.0
 10
5.352500
 20
5.153320
 30
0.0
 10
5.195800
 20
5.310020
 30
0.0
 10
5.002500
 20
5.310020
 30
0.0
  0
LWPOLYLINE
  5
15e
100
AcDbEntity
  8
0
 62
7
100
AcDbPolyline
 90
1
 70
1
 10
9.052500
 20
2.910020
 30
0.0
  0
SPLINE
  5
15f
100
AcDbEntity
  8
0
 62
7
100
AcDbSpline
 70
8
 71
3
 72
8
 73
4
 74
0
 40
0
 40
0
 40
0
 40
0
 40
1
 40
1
 40
1
 40
1
 10
5.002500
 20
4.100020
 30
0.0
 10
4.840715
 20
4.100020
 30
0.0
 10
4.694861
 20
4.002563
 30
0.0
 10
4.632948
 20
3.853093
 30
0.0
  0
SPLINE
  5
160
100
AcDbEntity
  8
0
 62
7
100
AcDbSpline
 70
8
 71
3
 72
8
 73
4
 74
0
 40
0
 40
0
 40
0
 40
0
 40
1
 40
1
 40
1
 40
1
 10
4.632948
 20
3.853093
 30
0.0
 10
4.571036
 20
3.703624
 30
0.0
 10
4.605258
 20
3.531576
 30
0.0
 10
4.719657
 20
3.417177
 30
0.0
  0
SPLINE
  5
161
100
AcDbEntity
  8
0
 62
7
100
AcDbSpline
 70
8
 71
3
 72
8
 73
4
 74
0
 40
0
 40
0
 40
0
 40
0
 40
1
 40
1
 40
1
 40
1
 10
4.719657
 20
3.417177
 30
0.0
 10
4.834056
 20
3.302778
 30
0.0
 10
5.006104
 20
3.268556
 30
0.0
 10
5.155573
 20
3.330468
 30
0.0
  0
SPLINE
  5
162
100
AcDbEntity
  8
0
 62
7
100
AcDbSpline
 70
8
 71
3
 72
8
 73
4
 74
0
 40
0
 40
0
 40
0
 40
0
 40
1
 40
1
 40
1
 40
1
 10
5.155573
 20
3.330468
 30
0.0
 10
5.305043
 20
3.392381
 30
0.0
 10
5.402500
 20
3.538235
 30
0.0
 10
5.402500
 20
3.700020
 30
0.0
  0
SPLINE
  5
163
100
AcDbEntity
  8
0
 62
7
100
AcDbSpline
 70
8
 71
3
 72
8
 73
4
 74
0
 40
0
 40
0
 40
0
 40
0
 40
1
 40
1
 40
1
 40
1
 10
5.402500
 20
3.700020
 30
0.0
 10
5.402500
 20
3.806107
 30
0.0
 10
5.360357
 20
3.907848
 30
0.0
 10
5.285343
 20
3.982863
 30
0.0
  0
SPLINE
  5
164
100
AcDbEntity
  8
0
 62
7
100
AcDbSpline
 70
8
 71
3
 72
8
 73
4
 74
0
 40
0
 40
0
 40
0
 40
0
 40
1
 40
1
 40
1
 40
1
 10
5.285343
 20
3.982863
 30
0.0
 10
5.210328
 20
4.057877
 30
0.0
 10
5.108587
 20
4.100020
 30
0.0
 10
5.002500
 20
4.100020
 30
0.0
  0
LWPOLYLINE
  5
165
100
AcDbEntity
  8
0
 62
7
100
AcDbPolyline
 90
1
 70
1
 10
5.002500
 20
5.310020
 30
0.0
  0
SPLINE
  5
166
100
AcDbEntity
  8
0
 62
7
100
AcDbSpline
 70
8
 71
3
 72
8
 73
4
 74
0
 40
0
 40
0
 40
0
 40
0
 40
1
 40
1
 40
1
 40
1
 10
8.857500
 20
1.650020
 30
0.0
 10
8.594600
 20
1.650020
 30
0.0
 10
8.357586
 20
1.491653
 30
0.0
 10
8.256978
 20
1.248764
 30
0.0
  0
SPLINE
  5
167
100
AcDbEntity
  8
0
 62
7
100
AcDbSpline
 70
8
 71
3
 72
8
 73
4
 74
0
 40
0
 40
0
 40
0
 40
0
 40
1
 40
1
 40
1
 40
1
 10
8.256978
 20
1.248764
 30
0.0
 10
8.156371
 20
1.005876
 30
0.0
 10
8.211982
 20
0.726299
 30
0.0
 10
8.397881
 20
0.540401
 30
0.0
  0
SPLINE
  5
168
100
AcDbEntity
  8
0
 62
7
100
AcDbSpline
 70
8
 71
3
 72
8
 73
4
 74
0
 40
0
 40
0
 40
0
 40
0
 40
1
 40
1
 40
1
 40
1
 10
8.397881
 20
0.540401
 30
0.0
 10
8.583779
 20
0.354502
 30
0.0
 10
8.863356
 20
0.298891
 30
0.0
 10
9.106244
 20
0.399498
 30
0.0
  0
SPLINE
  5
169
100
AcDbEntity
  8
0
 62
7
100
AcDbSpline
 70
8
 71
3
 72
8
 73
4
 74
0
 40
0
 40
0
 40
0
 40
0
 40
1
 40
1
 40
1
 40
1
 10
9.106244
 20
0.399498
 30
0.0
 10
9.349133
 20
0.500106
 30
0.0
 10
9.507500
 20
0.737120
 30
0.0
 10
9.507500
 20
1.000020
 30
0.0
  0
SPLINE
  5
16a
100
AcDbEntity
  8
0
 62
7
100
AcDbSpline
 70
8
 71
3
 72
8
 73
4
 74
0
 40
0
 40
0
 40
0
 40
0
 40
1
 40
1
 40
1
 40
1
 10
9.507500
 20
1.000020
 30
0.0
 10
9.507500
 20
1.172411
 30
0.0
 10
9.439018
 20
1.337741
 30
0.0
 10
9.317119
 20
1.459639
 30
0.0
  0
SPLINE
  5
16b
100
AcDbEntity
  8
0
 62
7
100
AcDbSpline
 70
8
 71
3
 72
8
 73
4
 74
0
 40
0
 40
0
 40
0
 40
0
 40
1
 40
1
 40
1
 40
1
 10
9.317119
 20
1.459639
 30
0.0
 10
9.195221
 20
1.581538
 30
0.0
 10
9.029891
 20
1.650020
 30
0.0
 10
8.857500
 20
1.650020
 30
0.0
  0
LWPOLYLINE
  5
16c
100
AcDbEntity
  8
0
 62
7
100
AcDbPolyline
 90
1
 70
1
 10
5.002500
 20
4.100020
 30
0.0
  0
SPLINE
  5
16d
100
AcDbEntity
  8
0
 62
7
100
AcDbSpline
 70
8
 71
3
 72
8
 73
4
 74
0
 40
0
 40
0
 40
0
 40
0
 40
1
 40
1
 40
1
 40
1
 10
0.427500
 20
8.452520
 30
0.0
 10
0.426489
 20
8.452520
 30
0.0
 10
0.425577
 20
8.451911
 30
0.0
 10
0.425190
 20
8.450977
 30
0.0
  0
SPLINE
  5
16e
100
AcDbEntity
  8
0
 62
7
100
AcDbSpline
 70
8
 71
3
 72
8
 73
4
 74
0
 40
0
 40
0
 40
0
 40
0
 40
1
 40
1
 40
1
 40
1
 10
0.425190
 20
8.450977
 30
0.0
 10
0.424803
 20
8.450043
 30
0.0
 10
0.425017
 20
8.448967
 30
0.0
 10
0.425732
 20
8.448252
 30
0.0
  0
SPLINE
  5
16f
100
AcDbEntity
  8
0
 62
7
100
AcDbSpline
 70
8
 71
3
 72
8
 73
4
 74
0
 40
0
 40
0
 40
0
 40
0
 40
1
 40
1
 40
1
 40
1
 10
0.425732
 20
8.448252
 30
0.0
 10
0.426447
 20
8.447537
 30
0.0
 10
0.427523
 20
8.447323
 30
0.0
 10
0.428457
 20
8.447710
 30
0.0
  0
SPLINE
  5
170
100
AcDbEntity
  8
0
 62
7
100
AcDbSpline
 70
8
 71
3
 72
8
 73
4
 74
0
 40
0
 40
0
 40
0
 40
0
 40
1
 40
1
 40
1
 40
1
 10
0.428457
 20
8.447710
 30
0.0
 10
0.429391
 20
8.448097
 30
0.0
 10
0.430000
 20
8.449009
 30
0.0
 10
0.430000
 20
8.450020
 30
0.0
  0
SPLINE
  5
171
100
AcDbEntity
  8
0
 62
7
100
AcDbSpline
 70
8
 71
3
 72
8
 73
4
 74
0
 40
0
 40
0
 40
0
 40
0
 40
1
 40
1
 40
1
 40
1
 10
0.430000
 20
8.450020
 30
0.0
 10
0.430000
 20
8.450683
 30
0.0
 10
0.429737
 20
8.451319
 30
0.0
 10
0.429268
 20
8.451788
 30
0.0
  0
SPLINE
  5
172
100
AcDbEntity
  8
0
 62
7
100
AcDbSpline
 70
8
 71
3
 72
8
 73
4
 74
0
 40
0
 40
0
 40
0
 40
0
 40
1
 40
1
 40
1
 40
1
 10
0.429268
 20
8.451788
 30
0.0
 10
0.428799
 20
8.452257
 30
0.0
 10
0.428163
 20
8.452520
 30
0.0
 10
0.427500
 20
8.452520
 30
0.0
  0
LWPOLYLINE
  5
173
100
AcDbEntity
  8
0
 62
7
100
AcDbPolyline
 90
1
 70
1
 10
8.857500
 20
1.650020
 30
0.0
  0
SPLINE
  5
174
100
AcDbEntity
  8
0
 62
7
100
AcDbSpline
 70
8
 71
3
 72
8
 73
4
 74
0
 40
0
 40
0
 40
0
 40
0
 40
1
 40
1
 40
1
 40
1
 10
9.652500
 20
9.830020
 30
0.0
 10
9.579697
 20
9.830020
 30
0.0
 10
9.514062
 20
9.786164
 30
0.0
 10
9.486202
 20
9.718903
 30
0.0
  0
SPLINE
  5
175
100
AcDbEntity
  8
0
 62
7
100
AcDbSpline
 70
8
 71
3
 72
8
 73
4
 74
0
 40
0
 40
0
 40
0
 40
0
 40
1
 40
1
 40
1
 40
1
 10
9.486202
 20
9.718903
 30
0.0
 10
9.458341
 20
9.651642
 30
0.0
 10
9.473741
 20
9.574220
 30
0.0
 10
9.525221
 20
9.522741
 30
0.0
  0
SPLINE
  5
176
100
AcDbEntity
  8
0
 62
7
100
AcDbSpline
 70
8
 71
3
 72
8
 73
4
 74
0
 40
0
 40
0
 40
0
 40
0
 40
1
 40
1
 40
1
 40
1
 10
9.525221
 20
9.522741
 30
0.0
 10
9.576700
 20
9.471261
 30
0.0
 10
9.654122
 20
9.455861
 30
0.0
 10
9.721383
 20
9.483722
 30
0.0
  0
SPLINE
  5
177
100
AcDbEntity
  8
0
 62
7
100
AcDbSpline
 70
8
 71
3
 72
8
 73
4
 74
0
 40
0
 40
0
 40
0
 40
0
 40
1
 40
1
 40
1
 40
1
 10
9.721383
 20
9.483722
 30
0.0
 10
9.788644
 20
9.511582
 30
0.0
 10
9.832500
 20
9.577217
 30
0.0
 10
9.832500
 20
9.650020
 30
0.0
  0
SPLINE
  5
178
100
AcDbEntity
  8
0
 62
7
100
AcDbSpline
 70
8
 71
3
 72
8
 73
4
 74
0
 40
0
 40
0
 40
0
 40
0
 40
1
 40
1
 40
1
 40
1
 10
9.832500
 20
9.650020
 30
0.0
 10
9.832500
 20
9.749431
 30
0.0
 10
9.751911
 20
9.830020
 30
0.0
 10
9.652500
 20
9.830020
 30
0.0
  0
LWPOLYLINE
  5
179
100
AcDbEntity
  8
0
 62
7
100
AcDbPolyline
 90
1
 70
1
 10
0.427500
 20
8.452520
 30
0.0
  0
LWPOLYLINE
  5
17a
100
AcDbEntity
  8
0
 62
7
100
AcDbPolyline
 90
1
 70
1
 10
9.652500
 20
9.830020
 30
0.0
  0
LWPOLYLINE
  5
17b
100
AcDbEntity
  8
0
 62
7
100
AcDbPolyline
 90
2
 70
0
 10
10.002500
 20
0.000020
 30
0.0
 10
0.002500
 20
0.000020
 30
0.0
  0
ENDSEC
  0
SECTION
  2
OBJECTS
  0
DICTIONARY
  5
C
330
0
100
AcDbDictionary
  3
ACAD_GROUP
350
D
  3
ACAD_MLINESTYLE
350
17
  0
DICTIONARY
  5
D
330
C
100
AcDbDictionary
  0
DICTIONARY
  5
1A
330
C
100
AcDbDictionary
  0
DICTIONARY
  5
17
330
C
100
AcDbDictionary
  3
STANDARD
350
18
  0
DICTIONARY
  5
19
330
C
100
AcDbDictionary
  0
ENDSEC
  0
EOF
