  0
SECTION
  2
HEADER
  9
$ACADVER
  1
AC1014
  9
$HANDSEED
  5
FFFF
  9
$INSUNITS
 70
     5
  9
$MEASUREMENT
 70
     1
  0
ENDSEC
  0
SECTION
  2
TABLES
  0
TABLE
  2
VPORT
  5
8
330
0
100
AcDbSymbolTable
 70
     4
  0
VPORT
  5
2E
330
8
100
AcDbSymbolTableRecord
100
AcDbViewportTableRecord
  2
*ACTIVE
 70
     0
 10
0.0
 20
0.0
 11
1.0
 21
1.0
 12
210.0
 22
148.5
 13
0.0
 23
0.0
 14
10.0
 24
10.0
 15
10.0
 25
10.0
 16
0.0
 26
0.0
 36
1.0
 17
0.0
 27
0.0
 37
0.0
 40
341.0
 41
1.24
 42
50.0
 43
0.0
 44
0.0
 50
0.0
 51
0.0
 71
     0
 72
   100
 73
     1
 74
     3
 75
     0
 76
     0
 77
     0
 78
     0
  0
ENDTAB
  0
TABLE
  2
LTYPE
  5
5
330
0
100
AcDbSymbolTable
 70
     1
  0
LTYPE
  5
14
330
5
100
AcDbSymbolTableRecord
100
AcDbLinetypeTableRecord
  2
BYBLOCK
 70
     0
  3

 72
    65
 73
     0
 40
0.0
  0
LTYPE
  5
15
330
5
100
AcDbSymbolTableRecord
100
AcDbLinetypeTableRecord
  2
BYLAYER
 70
     0
  3

 72
    65
 73
     0
 40
0.0
  0
LTYPE
  5
16
330
5
100
AcDbSymbolTableRecord
100
AcDbLinetypeTableRecord
  2
CONTINUOUS
 70
     0
  3
Solid line
 72
    65
 73
     0
 40
0.0
  0
ENDTAB
  0
TABLE
  2
LAYER
  5
2
100
AcDbSymbolTable
 70
1
  0
LAYER
  5
50
100
AcDbSymbolTableRecord
100
AcDbLayerTableRecord
  2
0
 70
0
  6
CONTINUOUS
  0
ENDTAB
  0
TABLE
  2
STYLE
  5
3
330
0
100
AcDbSymbolTable
 70
     1
  0
STYLE
  5
11
330
3
100
AcDbSymbolTableRecord
100
AcDbTextStyleTableRecord
  2
STANDARD
 70
     0
 40
0.0
 41
1.0
 50
0.0
 71
     0
 42
2.5
  3
txt
  4

  0
ENDTAB
  0
TABLE
  2
VIEW
  5
6
330
0
100
AcDbSymbolTable
 70
     0
  0
ENDTAB
  0
TABLE
  2
UCS
  5
7
330
0
100
AcDbSymbolTable
 70
     0
  0
ENDTAB
  0
TABLE
  2
APPID
  5
9
330
0
100
AcDbSymbolTable
 70
     2
  0
APPID
  5
12
330
9
100
AcDbSymbolTableRecord
100
AcDbRegAppTableRecord
  2
ACAD
 70
     0
  0
ENDTAB
  0
TABLE
  2
DIMSTYLE
  5
A
330
0
100
AcDbSymbolTable
 70
     1
  0
DIMSTYLE
105
27
330
A
100
AcDbSymbolTableRecord
100
AcDbDimStyleTableRecord
  2
ISO-25
 70
     0
  3

  4

  5

  6

  7

 40
1.0
 41
2.5
 42
0.625
 43
3.75
 44
1.25
 45
0.0
 46
0.0
 47
0.0
 48
0.0
140
2.5
141
2.5
142
0.0
143
0.03937007874016
144
1.0
145
0.0
146
1.0
147
0.625
 71
     0
 72
     0
 73
     0
 74
     0
 75
     0
 76
     0
 77
     1
 78
     8
170
     0
171
     3
172
     1
173
     0
174
     0
175
     0
176
     0
177
     0
178
     0
270
     2
271
     2
272
     2
273
     2
274
     3
340
11
275
     0
280
     0
281
     0
282
     0
283
     0
284
     8
285
     0
286
     0
287
     3
288
     0
  0
ENDTAB
  0
TABLE
  2
BLOCK_RECORD
  5
1
330
0
100
AcDbSymbolTable
 70
     1
  0
BLOCK_RECORD
  5
1F
330
1
100
AcDbSymbolTableRecord
100
AcDbBlockTableRecord
  2
*MODEL_SPACE
  0
BLOCK_RECORD
  5
1B
330
1
100
AcDbSymbolTableRecord
100
AcDbBlockTableRecord
  2
*PAPER_SPACE
  0
ENDTAB
  0
ENDSEC
  0
SECTION
  2
BLOCKS
  0
BLOCK
  5
20
330
1F
100
AcDbEntity
  8
0
100
AcDbBlockBegin
  2
*MODEL_SPACE
 70
     0
 10
0.0
 20
0.0
 30
0.0
  3
*MODEL_SPACE
  1

  0
ENDBLK
  5
21
330
1F
100
AcDbEntity
  8
0
100
AcDbBlockEnd
  0
BLOCK
  5
1C
330
1B
100
AcDbEntity
 67
     1
  8
0
100
AcDbBlockBegin
  2
*PAPER_SPACE
  1

  0
ENDBLK
  5
1D
330
1B
100
AcDbEntity
 67
     1
  8
0
100
AcDbBlockEnd
  0
ENDSEC
  0
SECTION
  2
ENTITIES
  0
LWPOLYLINE
  5
100
100
AcDbEntity
  8
0
 62
7
100
AcDbPolyline
 90
2
 70
0
 10
1.098500
 20
1.640020
 30
0.0
 10
1.012500
 20
2.160020
 30
0.0
  0
LWPOLYLINE
  5
101
100
AcDbEntity
  8
0
 62
7
100
AcDbPolyline
 90
2
 70
0
 10
4.982500
 20
4.160020
 30
0.0
 10
4.982500
 20
4.545020
 30
0.0
  0
LWPOLYLINE
  5
102
100
AcDbEntity
  8
0
 62
7
100
AcDbPolyline
 90
2
 70
0
 10
9.000000
 20
2.167520
 30
0.0
 10
8.925500
 20
1.700020
 30
0.0
  0
LWPOLYLINE
  5
103
100
AcDbEntity
  8
0
 62
7
100
AcDbPolyline
 90
3
 70
0
 10
0.773929
 20
9.895163
 30
0.0
 10
0.823929
 20
9.745163
 30
0.0
 10
0.873929
 20
9.895163
 30
0.0
  0
LWPOLYLINE
  5
104
100
AcDbEntity
  8
0
 62
7
100
AcDbPolyline
 90
2
 70
0
 10
0.923929
 20
9.745163
 30
0.0
 10
0.923929
 20
9.895163
 30
0.0
  0
LWPOLYLINE
  5
105
100
AcDbEntity
  8
0
 62
7
100
AcDbPolyline
 90
12
 70
1
 10
0.995357
 20
9.745163
 30
0.0
 10
0.995357
 20
9.895163
 30
0.0
 10
1.031071
 20
9.895163
 30
0.0
 10
1.052500
 20
9.888020
 30
0.0
 10
1.066786
 20
9.873734
 30
0.0
 10
1.073929
 20
9.859449
 30
0.0
 10
1.081071
 20
9.830877
 30
0.0
 10
1.081071
 20
9.809449
 30
0.0
 10
1.073929
 20
9.780877
 30
0.0
 10
1.066786
 20
9.766592
 30
0.0
 10
1.052500
 20
9.752306
 30
0.0
 10
1.031071
 20
9.745163
 30
0.0
  0
LWPOLYLINE
  5
106
100
AcDbEntity
  8
0
 62
7
100
AcDbPolyline
 90
2
 70
0
 10
1.145357
 20
9.823734
 30
0.0
 10
1.195357
 20
9.823734
 30
0.0
  0
LWPOLYLINE
  5
107
100
AcDbEntity
  8
0
 62
7
100
AcDbPolyline
 90
4
 70
0
 10
1.216786
 20
9.745163
 30
0.0
 10
1.145357
 20
9.745163
 30
0.0
 10
1.145357
 20
9.895163
 30
0.0
 10
1.216786
 20
9.895163
 30
0.0
  0
LWPOLYLINE
  5
108
100
AcDbEntity
  8
0
 62
7
100
AcDbPolyline
 90
16
 70
1
 10
1.309643
 20
9.895163
 30
0.0
 10
1.338214
 20
9.895163
 30
0.0
 10
1.352500
 20
9.888020
 30
0.0
 10
1.366786
 20
9.873734
 30
0.0
 10
1.373929
 20
9.845163
 30
0.0
 10
1.373929
 20
9.795163
 30
0.0
 10
1.366786
 20
9.766592
 30
0.0
 10
1.352500
 20
9.752306
 30
0.0
 10
1.338214
 20
9.745163
 30
0.0
 10
1.309643
 20
9.745163
 30
0.0
 10
1.295357
 20
9.752306
 30
0.0
 10
1.281071
 20
9.766592
 30
0.0
 10
1.273929
 20
9.795163
 30
0.0
 10
1.273929
 20
9.845163
 30
0.0
 10
1.281071
 20
9.873734
 30
0.0
 10
1.295357
 20
9.888020
 30
0.0
  0
LWPOLYLINE
  5
109
100
AcDbEntity
  8
0
 62
7
100
AcDbPolyline
 90
2
 70
0
 10
1.402500
 20
9.730877
 30
0.0
 10
1.516786
 20
9.730877
 30
0.0
  0
LWPOLYLINE
  5
10a
100
AcDbEntity
  8
0
 62
7
100
AcDbPolyline
 90
2
 70
0
 10
1.552500
 20
9.745163
 30
0.0
 10
1.552500
 20
9.895163
 30
0.0
  0
LWPOLYLINE
  5
10b
100
AcDbEntity
  8
0
 62
7
100
AcDbPolyline
 90
4
 70
0
 10
1.623929
 20
9.745163
 30
0.0
 10
1.623929
 20
9.895163
 30
0.0
 10
1.709643
 20
9.745163
 30
0.0
 10
1.709643
 20
9.895163
 30
0.0
  0
LWPOLYLINE
  5
10c
100
AcDbEntity
  8
0
 62
7
100
AcDbPolyline
 90
3
 70
0
 10
8.092929
 20
9.854163
 30
0.0
 10
8.142929
 20
9.704163
 30
0.0
 10
8.192929
 20
9.854163
 30
0.0
  0
LWPOLYLINE
  5
10d
100
AcDbEntity
  8
0
 62
7
100
AcDbPolyline
 90
2
 70
0
 10
8.242929
 20
9.704163
 30
0.0
 10
8.242929
 20
9.854163
 30
0.0
  0
LWPOLYLINE
  5
10e
100
AcDbEntity
  8
0
 62
7
100
AcDbPolyline
 90
12
 70
1
 10
8.314357
 20
9.704163
 30
0.0
 10
8.314357
 20
9.854163
 30
0.0
 10
8.350071
 20
9.854163
 30
0.0
 10
8.371500
 20
9.847020
 30
0.0
 10
8.385786
 20
9.832734
 30
0.0
 10
8.392929
 20
9.818449
 30
0.0
 10
8.400071
 20
9.789877
 30
0.0
 10
8.400071
 20
9.768449
 30
0.0
 10
8.392929
 20
9.739877
 30
0.0
 10
8.385786
 20
9.725592
 30
0.0
 10
8.371500
 20
9.711306
 30
0.0
 10
8.350071
 20
9.704163
 30
0.0
  0
LWPOLYLINE
  5
10f
100
AcDbEntity
  8
0
 62
7
100
AcDbPolyline
 90
2
 70
0
 10
8.464357
 20
9.782734
 30
0.0
 10
8.514357
 20
9.782734
 30
0.0
  0
LWPOLYLINE
  5
110
100
AcDbEntity
  8
0
 62
7
100
AcDbPolyline
 90
4
 70
0
 10
8.535786
 20
9.704163
 30
0.0
 10
8.464357
 20
9.704163
 30
0.0
 10
8.464357
 20
9.854163
 30
0.0
 10
8.535786
 20
9.854163
 30
0.0
  0
LWPOLYLINE
  5
111
100
AcDbEntity
  8
0
 62
7
100
AcDbPolyline
 90
16
 70
1
 10
8.628643
 20
9.854163
 30
0.0
 10
8.657214
 20
9.854163
 30
0.0
 10
8.671500
 20
9.847020
 30
0.0
 10
8.685786
 20
9.832734
 30
0.0
 10
8.692929
 20
9.804163
 30
0.0
 10
8.692929
 20
9.754163
 30
0.0
 10
8.685786
 20
9.725592
 30
0.0
 10
8.671500
 20
9.711306
 30
0.0
 10
8.657214
 20
9.704163
 30
0.0
 10
8.628643
 20
9.704163
 30
0.0
 10
8.614357
 20
9.711306
 30
0.0
 10
8.600071
 20
9.725592
 30
0.0
 10
8.592929
 20
9.754163
 30
0.0
 10
8.592929
 20
9.804163
 30
0.0
 10
8.600071
 20
9.832734
 30
0.0
 10
8.614357
 20
9.847020
 30
0.0
  0
LWPOLYLINE
  5
112
100
AcDbEntity
  8
0
 62
7
100
AcDbPolyline
 90
2
 70
0
 10
8.721500
 20
9.689877
 30
0.0
 10
8.835786
 20
9.689877
 30
0.0
  0
LWPOLYLINE
  5
113
100
AcDbEntity
  8
0
 62
7
100
AcDbPolyline
 90
16
 70
1
 10
8.900071
 20
9.854163
 30
0.0
 10
8.928643
 20
9.854163
 30
0.0
 10
8.942929
 20
9.847020
 30
0.0
 10
8.957214
 20
9.832734
 30
0.0
 10
8.964357
 20
9.804163
 30
0.0
 10
8.964357
 20
9.754163
 30
0.0
 10
8.957214
 20
9.725592
 30
0.0
 10
8.942929
 20
9.711306
 30
0.0
 10
8.928643
 20
9.704163
 30
0.0
 10
8.900071
 20
9.704163
 30
0.0
 10
8.885786
 20
9.711306
 30
0.0
 10
8.871500
 20
9.725592
 30
0.0
 10
8.864357
 20
9.754163
 30
0.0
 10
8.864357
 20
9.804163
 30
0.0
 10
8.871500
 20
9.832734
 30
0.0
 10
8.885786
 20
9.847020
 30
0.0
  0
LWPOLYLINE
  5
114
100
AcDbEntity
  8
0
 62
7
100
AcDbPolyline
 90
10
 70
0
 10
9.028643
 20
9.854163
 30
0.0
 10
9.028643
 20
9.732734
 30
0.0
 10
9.035786
 20
9.718449
 30
0.0
 10
9.042929
 20
9.711306
 30
0.0
 10
9.057214
 20
9.704163
 30
0.0
 10
9.085786
 20
9.704163
 30
0.0
 10
9.100071
 20
9.711306
 30
0.0
 10
9.107214
 20
9.718449
 30
0.0
 10
9.114357
 20
9.732734
 30
0.0
 10
9.114357
 20
9.854163
 30
0.0
  0
LWPOLYLINE
  5
115
100
AcDbEntity
  8
0
 62
7
100
AcDbPolyline
 90
2
 70
0
 10
9.164357
 20
9.854163
 30
0.0
 10
9.250071
 20
9.854163
 30
0.0
  0
LWPOLYLINE
  5
116
100
AcDbEntity
  8
0
 62
7
100
AcDbPolyline
 90
2
 70
0
 10
9.207214
 20
9.704163
 30
0.0
 10
9.207214
 20
9.854163
 30
0.0
  0
LWPOLYLINE
  5
117
100
AcDbEntity
  8
0
 62
7
100
AcDbPolyline
 90
3
 70
0
 10
7.668071
 20
0.267163
 30
0.0
 10
7.718071
 20
0.117163
 30
0.0
 10
7.768071
 20
0.267163
 30
0.0
  0
LWPOLYLINE
  5
118
100
AcDbEntity
  8
0
 62
7
100
AcDbPolyline
 90
2
 70
0
 10
7.818071
 20
0.117163
 30
0.0
 10
7.818071
 20
0.267163
 30
0.0
  0
LWPOLYLINE
  5
119
100
AcDbEntity
  8
0
 62
7
100
AcDbPolyline
 90
12
 70
1
 10
7.889500
 20
0.117163
 30
0.0
 10
7.889500
 20
0.267163
 30
0.0
 10
7.925214
 20
0.267163
 30
0.0
 10
7.946643
 20
0.260020
 30
0.0
 10
7.960929
 20
0.245734
 30
0.0
 10
7.968071
 20
0.231449
 30
0.0
 10
7.975214
 20
0.202877
 30
0.0
 10
7.975214
 20
0.181449
 30
0.0
 10
7.968071
 20
0.152877
 30
0.0
 10
7.960929
 20
0.138592
 30
0.0
 10
7.946643
 20
0.124306
 30
0.0
 10
7.925214
 20
0.117163
 30
0.0
  0
LWPOLYLINE
  5
11a
100
AcDbEntity
  8
0
 62
7
100
AcDbPolyline
 90
2
 70
0
 10
8.039500
 20
0.195734
 30
0.0
 10
8.089500
 20
0.195734
 30
0.0
  0
LWPOLYLINE
  5
11b
100
AcDbEntity
  8
0
 62
7
100
AcDbPolyline
 90
4
 70
0
 10
8.110928
 20
0.117163
 30
0.0
 10
8.039500
 20
0.117163
 30
0.0
 10
8.039500
 20
0.267163
 30
0.0
 10
8.110928
 20
0.267163
 30
0.0
  0
LWPOLYLINE
  5
11c
100
AcDbEntity
  8
0
 62
7
100
AcDbPolyline
 90
16
 70
1
 10
8.203786
 20
0.267163
 30
0.0
 10
8.232357
 20
0.267163
 30
0.0
 10
8.246643
 20
0.260020
 30
0.0
 10
8.260929
 20
0.245734
 30
0.0
 10
8.268071
 20
0.217163
 30
0.0
 10
8.268071
 20
0.167163
 30
0.0
 10
8.260929
 20
0.138592
 30
0.0
 10
8.246643
 20
0.124306
 30
0.0
 10
8.232357
 20
0.117163
 30
0.0
 10
8.203786
 20
0.117163
 30
0.0
 10
8.189500
 20
0.124306
 30
0.0
 10
8.175214
 20
0.138592
 30
0.0
 10
8.168071
 20
0.167163
 30
0.0
 10
8.168071
 20
0.217163
 30
0.0
 10
8.175214
 20
0.245734
 30
0.0
 10
8.189500
 20
0.260020
 30
0.0
  0
LWPOLYLINE
  5
11d
100
AcDbEntity
  8
0
 62
7
100
AcDbPolyline
 90
2
 70
0
 10
8.296643
 20
0.102877
 30
0.0
 10
8.410929
 20
0.102877
 30
0.0
  0
LWPOLYLINE
  5
11e
100
AcDbEntity
  8
0
 62
7
100
AcDbPolyline
 90
2
 70
0
 10
8.532357
 20
0.117163
 30
0.0
 10
8.482357
 20
0.188591
 30
0.0
  0
LWPOLYLINE
  5
11f
100
AcDbEntity
  8
0
 62
7
100
AcDbPolyline
 90
11
 70
0
 10
8.446643
 20
0.117163
 30
0.0
 10
8.446643
 20
0.267163
 30
0.0
 10
8.503786
 20
0.267163
 30
0.0
 10
8.518071
 20
0.260020
 30
0.0
 10
8.525214
 20
0.252877
 30
0.0
 10
8.532357
 20
0.238592
 30
0.0
 10
8.532357
 20
0.217163
 30
0.0
 10
8.525214
 20
0.202877
 30
0.0
 10
8.518071
 20
0.195734
 30
0.0
 10
8.503786
 20
0.188591
 30
0.0
 10
8.446643
 20
0.188591
 30
0.0
  0
LWPOLYLINE
  5
120
100
AcDbEntity
  8
0
 62
7
100
AcDbPolyline
 90
2
 70
0
 10
8.596643
 20
0.195734
 30
0.0
 10
8.646643
 20
0.195734
 30
0.0
  0
LWPOLYLINE
  5
121
100
AcDbEntity
  8
0
 62
7
100
AcDbPolyline
 90
4
 70
0
 10
8.668071
 20
0.117163
 30
0.0
 10
8.596643
 20
0.117163
 30
0.0
 10
8.596643
 20
0.267163
 30
0.0
 10
8.668071
 20
0.267163
 30
0.0
  0
LWPOLYLINE
  5
122
100
AcDbEntity
  8
0
 62
7
100
AcDbPolyline
 90
2
 70
0
 10
8.710929
 20
0.267163
 30
0.0
 10
8.796643
 20
0.267163
 30
0.0
  0
LWPOLYLINE
  5
123
100
AcDbEntity
  8
0
 62
7
100
AcDbPolyline
 90
2
 70
0
 10
8.753786
 20
0.117163
 30
0.0
 10
8.753786
 20
0.267163
 30
0.0
  0
LWPOLYLINE
  5
124
100
AcDbEntity
  8
0
 62
7
100
AcDbPolyline
 90
10
 70
0
 10
8.846643
 20
0.267163
 30
0.0
 10
8.846643
 20
0.145734
 30
0.0
 10
8.853786
 20
0.131449
 30
0.0
 10
8.860928
 20
0.124306
 30
0.0
 10
8.875214
 20
0.117163
 30
0.0
 10
8.903786
 20
0.117163
 30
0.0
 10
8.918071
 20
0.124306
 30
0.0
 10
8.925214
 20
0.131449
 30
0.0
 10
8.932357
 20
0.145734
 30
0.0
 10
8.932357
 20
0.267163
 30
0.0
  0
LWPOLYLINE
  5
125
100
AcDbEntity
  8
0
 62
7
100
AcDbPolyline
 90
2
 70
0
 10
9.089500
 20
0.117163
 30
0.0
 10
9.039500
 20
0.188591
 30
0.0
  0
LWPOLYLINE
  5
126
100
AcDbEntity
  8
0
 62
7
100
AcDbPolyline
 90
11
 70
0
 10
9.003786
 20
0.117163
 30
0.0
 10
9.003786
 20
0.267163
 30
0.0
 10
9.060929
 20
0.267163
 30
0.0
 10
9.075214
 20
0.260020
 30
0.0
 10
9.082357
 20
0.252877
 30
0.0
 10
9.089500
 20
0.238592
 30
0.0
 10
9.089500
 20
0.217163
 30
0.0
 10
9.082357
 20
0.202877
 30
0.0
 10
9.075214
 20
0.195734
 30
0.0
 10
9.060929
 20
0.188591
 30
0.0
 10
9.003786
 20
0.188591
 30
0.0
  0
LWPOLYLINE
  5
127
100
AcDbEntity
  8
0
 62
7
100
AcDbPolyline
 90
4
 70
0
 10
9.153786
 20
0.117163
 30
0.0
 10
9.153786
 20
0.267163
 30
0.0
 10
9.239500
 20
0.117163
 30
0.0
 10
9.239500
 20
0.267163
 30
0.0
  0
LWPOLYLINE
  5
128
100
AcDbEntity
  8
0
 62
7
100
AcDbPolyline
 90
12
 70
1
 10
4.561071
 20
2.972163
 30
0.0
 10
4.561071
 20
3.122163
 30
0.0
 10
4.596786
 20
3.122163
 30
0.0
 10
4.618214
 20
3.115020
 30
0.0
 10
4.632500
 20
3.100734
 30
0.0
 10
4.639643
 20
3.086449
 30
0.0
 10
4.646786
 20
3.057877
 30
0.0
 10
4.646786
 20
3.036449
 30
0.0
 10
4.639643
 20
3.007877
 30
0.0
 10
4.632500
 20
2.993591
 30
0.0
 10
4.618214
 20
2.979306
 30
0.0
 10
4.596786
 20
2.972163
 30
0.0
  0
LWPOLYLINE
  5
129
100
AcDbEntity
  8
0
 62
7
100
AcDbPolyline
 90
2
 70
0
 10
4.796786
 20
2.972163
 30
0.0
 10
4.746786
 20
3.043591
 30
0.0
  0
LWPOLYLINE
  5
12a
100
AcDbEntity
  8
0
 62
7
100
AcDbPolyline
 90
11
 70
0
 10
4.711071
 20
2.972163
 30
0.0
 10
4.711071
 20
3.122163
 30
0.0
 10
4.768214
 20
3.122163
 30
0.0
 10
4.782500
 20
3.115020
 30
0.0
 10
4.789643
 20
3.107877
 30
0.0
 10
4.796786
 20
3.093591
 30
0.0
 10
4.796786
 20
3.072163
 30
0.0
 10
4.789643
 20
3.057877
 30
0.0
 10
4.782500
 20
3.050734
 30
0.0
 10
4.768214
 20
3.043591
 30
0.0
 10
4.711071
 20
3.043591
 30
0.0
  0
LWPOLYLINE
  5
12b
100
AcDbEntity
  8
0
 62
7
100
AcDbPolyline
 90
2
 70
0
 10
4.889643
 20
3.043591
 30
0.0
 10
4.889643
 20
2.972163
 30
0.0
  0
LWPOLYLINE
  5
12c
100
AcDbEntity
  8
0
 62
7
100
AcDbPolyline
 90
3
 70
0
 10
4.839643
 20
3.122163
 30
0.0
 10
4.889643
 20
3.043591
 30
0.0
 10
4.939643
 20
3.122163
 30
0.0
  0
LWPOLYLINE
  5
12d
100
AcDbEntity
  8
0
 62
7
100
AcDbPolyline
 90
2
 70
0
 10
4.953929
 20
2.957877
 30
0.0
 10
5.068214
 20
2.957877
 30
0.0
  0
LWPOLYLINE
  5
12e
100
AcDbEntity
  8
0
 62
7
100
AcDbPolyline
 90
5
 70
0
 10
5.089643
 20
3.122163
 30
0.0
 10
5.125357
 20
2.972163
 30
0.0
 10
5.153929
 20
3.079306
 30
0.0
 10
5.182500
 20
2.972163
 30
0.0
 10
5.218214
 20
3.122163
 30
0.0
  0
LWPOLYLINE
  5
12f
100
AcDbEntity
  8
0
 62
7
100
AcDbPolyline
 90
2
 70
0
 10
5.275357
 20
3.050734
 30
0.0
 10
5.325357
 20
3.050734
 30
0.0
  0
LWPOLYLINE
  5
130
100
AcDbEntity
  8
0
 62
7
100
AcDbPolyline
 90
4
 70
0
 10
5.346786
 20
2.972163
 30
0.0
 10
5.275357
 20
2.972163
 30
0.0
 10
5.275357
 20
3.122163
 30
0.0
 10
5.346786
 20
3.122163
 30
0.0
  0
LWPOLYLINE
  5
131
100
AcDbEntity
  8
0
 62
7
100
AcDbPolyline
 90
2
 70
0
 10
5.389643
 20
3.122163
 30
0.0
 10
5.475357
 20
3.122163
 30
0.0
  0
LWPOLYLINE
  5
132
100
AcDbEntity
  8
0
 62
7
100
AcDbPolyline
 90
2
 70
0
 10
5.432500
 20
2.972163
 30
0.0
 10
5.432500
 20
3.122163
 30
0.0
  0
LWPOLYLINE
  5
133
100
AcDbEntity
  8
0
 62
7
100
AcDbPolyline
 90
16
 70
0
 10
4.797262
 20
5.379306
 30
0.0
 10
4.792500
 20
5.374544
 30
0.0
 10
4.778214
 20
5.369782
 30
0.0
 10
4.768690
 20
5.369782
 30
0.0
 10
4.754405
 20
5.374544
 30
0.0
 10
4.744881
 20
5.384068
 30
0.0
 10
4.740119
 20
5.393592
 30
0.0
 10
4.735357
 20
5.412639
 30
0.0
 10
4.735357
 20
5.426925
 30
0.0
 10
4.740119
 20
5.445972
 30
0.0
 10
4.744881
 20
5.455496
 30
0.0
 10
4.754405
 20
5.465020
 30
0.0
 10
4.768690
 20
5.469782
 30
0.0
 10
4.778214
 20
5.469782
 30
0.0
 10
4.792500
 20
5.465020
 30
0.0
 10
4.797262
 20
5.460258
 30
0.0
  0
LWPOLYLINE
  5
134
100
AcDbEntity
  8
0
 62
7
100
AcDbPolyline
 90
3
 70
0
 10
4.825833
 20
5.469782
 30
0.0
 10
4.859167
 20
5.369782
 30
0.0
 10
4.892500
 20
5.469782
 30
0.0
  0
LWPOLYLINE
  5
135
100
AcDbEntity
  8
0
 62
7
100
AcDbPolyline
 90
20
 70
1
 10
5.021071
 20
5.469782
 30
0.0
 10
5.030595
 20
5.469782
 30
0.0
 10
5.040119
 20
5.465020
 30
0.0
 10
5.044881
 20
5.460258
 30
0.0
 10
5.049643
 20
5.450734
 30
0.0
 10
5.054405
 20
5.431687
 30
0.0
 10
5.054405
 20
5.407877
 30
0.0
 10
5.049643
 20
5.388830
 30
0.0
 10
5.044881
 20
5.379306
 30
0.0
 10
5.040119
 20
5.374544
 30
0.0
 10
5.030595
 20
5.369782
 30
0.0
 10
5.021071
 20
5.369782
 30
0.0
 10
5.011548
 20
5.374544
 30
0.0
 10
5.006786
 20
5.379306
 30
0.0
 10
5.002024
 20
5.388830
 30
0.0
 10
4.997262
 20
5.407877
 30
0.0
 10
4.997262
 20
5.431687
 30
0.0
 10
5.002024
 20
5.450734
 30
0.0
 10
5.006786
 20
5.460258
 30
0.0
 10
5.011548
 20
5.465020
 30
0.0
  0
LWPOLYLINE
  5
136
100
AcDbEntity
  8
0
 62
7
100
AcDbPolyline
 90
2
 70
0
 10
5.097262
 20
5.407877
 30
0.0
 10
5.173452
 20
5.407877
 30
0.0
  0
LWPOLYLINE
  5
137
100
AcDbEntity
  8
0
 62
7
100
AcDbPolyline
 90
2
 70
0
 10
5.273452
 20
5.369782
 30
0.0
 10
5.216310
 20
5.369782
 30
0.0
  0
LWPOLYLINE
  5
138
100
AcDbEntity
  8
0
 62
7
100
AcDbPolyline
 90
5
 70
0
 10
5.244881
 20
5.369782
 30
0.0
 10
5.244881
 20
5.469782
 30
0.0
 10
5.235357
 20
5.455496
 30
0.0
 10
5.225833
 20
5.445972
 30
0.0
 10
5.216310
 20
5.441211
 30
0.0
  0
LWPOLYLINE
  5
139
100
AcDbEntity
  8
0
 62
7
100
AcDbPolyline
 90
3
 70
0
 10
5.306786
 20
5.436449
 30
0.0
 10
5.330595
 20
5.369782
 30
0.0
 10
5.354405
 20
5.436449
 30
0.0
  0
LWPOLYLINE
  5
13a
100
AcDbEntity
  8
0
 62
7
100
AcDbPolyline
 90
6
 70
0
 10
4.358500
 20
0.072020
 30
0.0
 10
4.361833
 20
0.068687
 30
0.0
 10
4.358500
 20
0.065353
 30
0.0
 10
4.355167
 20
0.068687
 30
0.0
 10
4.358500
 20
0.072020
 30
0.0
 10
4.358500
 20
0.065353
 30
0.0
  0
LWPOLYLINE
  5
13b
100
AcDbEntity
  8
0
 62
7
100
AcDbPolyline
 90
6
 70
0
 10
4.391833
 20
0.072020
 30
0.0
 10
4.395167
 20
0.068687
 30
0.0
 10
4.391833
 20
0.065353
 30
0.0
 10
4.388500
 20
0.068687
 30
0.0
 10
4.391833
 20
0.072020
 30
0.0
 10
4.391833
 20
0.065353
 30
0.0
  0
LWPOLYLINE
  5
13c
100
AcDbEntity
  8
0
 62
7
100
AcDbPolyline
 90
6
 70
0
 10
4.425167
 20
0.072020
 30
0.0
 10
4.428500
 20
0.068687
 30
0.0
 10
4.425167
 20
0.065353
 30
0.0
 10
4.421833
 20
0.068687
 30
0.0
 10
4.425167
 20
0.072020
 30
0.0
 10
4.425167
 20
0.065353
 30
0.0
  0
LWPOLYLINE
  5
13d
100
AcDbEntity
  8
0
 62
7
100
AcDbPolyline
 90
19
 70
0
 10
4.481833
 20
0.102020
 30
0.0
 10
4.491833
 20
0.098687
 30
0.0
 10
4.495167
 20
0.095353
 30
0.0
 10
4.498500
 20
0.088687
 30
0.0
 10
4.498500
 20
0.078687
 30
0.0
 10
4.495167
 20
0.072020
 30
0.0
 10
4.491833
 20
0.068687
 30
0.0
 10
4.485167
 20
0.065353
 30
0.0
 10
4.458500
 20
0.065353
 30
0.0
 10
4.458500
 20
0.135353
 30
0.0
 10
4.481833
 20
0.135353
 30
0.0
 10
4.488500
 20
0.132020
 30
0.0
 10
4.491833
 20
0.128687
 30
0.0
 10
4.495167
 20
0.122020
 30
0.0
 10
4.495167
 20
0.115353
 30
0.0
 10
4.491833
 20
0.108687
 30
0.0
 10
4.488500
 20
0.105353
 30
0.0
 10
4.481833
 20
0.102020
 30
0.0
 10
4.458500
 20
0.102020
 30
0.0
  0
LWPOLYLINE
  5
13e
100
AcDbEntity
  8
0
 62
7
100
AcDbPolyline
 90
3
 70
0
 10
4.561833
 20
0.065353
 30
0.0
 10
4.528500
 20
0.065353
 30
0.0
 10
4.528500
 20
0.135353
 30
0.0
  0
LWPOLYLINE
  5
13f
100
AcDbEntity
  8
0
 62
7
100
AcDbPolyline
 90
2
 70
0
 10
4.581833
 20
0.085353
 30
0.0
 10
4.615167
 20
0.085353
 30
0.0
  0
LWPOLYLINE
  5
140
100
AcDbEntity
  8
0
 62
7
100
AcDbPolyline
 90
3
 70
0
 10
4.575167
 20
0.065353
 30
0.0
 10
4.598500
 20
0.135353
 30
0.0
 10
4.621833
 20
0.065353
 30
0.0
  0
LWPOLYLINE
  5
141
100
AcDbEntity
  8
0
 62
7
100
AcDbPolyline
 90
4
 70
0
 10
4.645167
 20
0.065353
 30
0.0
 10
4.645167
 20
0.135353
 30
0.0
 10
4.685167
 20
0.065353
 30
0.0
 10
4.685167
 20
0.135353
 30
0.0
  0
LWPOLYLINE
  5
142
100
AcDbEntity
  8
0
 62
7
100
AcDbPolyline
 90
2
 70
0
 10
4.718500
 20
0.065353
 30
0.0
 10
4.718500
 20
0.135353
 30
0.0
  0
LWPOLYLINE
  5
143
100
AcDbEntity
  8
0
 62
7
100
AcDbPolyline
 90
2
 70
0
 10
4.758500
 20
0.065353
 30
0.0
 10
4.728500
 20
0.105353
 30
0.0
  0
LWPOLYLINE
  5
144
100
AcDbEntity
  8
0
 62
7
100
AcDbPolyline
 90
2
 70
0
 10
4.758500
 20
0.135353
 30
0.0
 10
4.718500
 20
0.095353
 30
0.0
  0
LWPOLYLINE
  5
145
100
AcDbEntity
  8
0
 62
7
100
AcDbPolyline
 90
2
 70
0
 10
4.788500
 20
0.065353
 30
0.0
 10
4.788500
 20
0.135353
 30
0.0
  0
LWPOLYLINE
  5
146
100
AcDbEntity
  8
0
 62
7
100
AcDbPolyline
 90
4
 70
0
 10
4.821833
 20
0.065353
 30
0.0
 10
4.821833
 20
0.135353
 30
0.0
 10
4.861833
 20
0.065353
 30
0.0
 10
4.861833
 20
0.135353
 30
0.0
  0
LWPOLYLINE
  5
147
100
AcDbEntity
  8
0
 62
7
100
AcDbPolyline
 90
17
 70
0
 10
4.931833
 20
0.132020
 30
0.0
 10
4.925167
 20
0.135353
 30
0.0
 10
4.915167
 20
0.135353
 30
0.0
 10
4.905167
 20
0.132020
 30
0.0
 10
4.898500
 20
0.125353
 30
0.0
 10
4.895167
 20
0.118687
 30
0.0
 10
4.891833
 20
0.105353
 30
0.0
 10
4.891833
 20
0.095353
 30
0.0
 10
4.895167
 20
0.082020
 30
0.0
 10
4.898500
 20
0.075353
 30
0.0
 10
4.905167
 20
0.068687
 30
0.0
 10
4.915167
 20
0.065353
 30
0.0
 10
4.921833
 20
0.065353
 30
0.0
 10
4.931833
 20
0.068687
 30
0.0
 10
4.935167
 20
0.072020
 30
0.0
 10
4.935167
 20
0.095353
 30
0.0
 10
4.921833
 20
0.095353
 30
0.0
  0
LWPOLYLINE
  5
148
100
AcDbEntity
  8
0
 62
7
100
AcDbPolyline
 90
16
 70
0
 10
5.058500
 20
0.072020
 30
0.0
 10
5.055167
 20
0.068687
 30
0.0
 10
5.045167
 20
0.065353
 30
0.0
 10
5.038500
 20
0.065353
 30
0.0
 10
5.028500
 20
0.068687
 30
0.0
 10
5.021833
 20
0.075353
 30
0.0
 10
5.018500
 20
0.082020
 30
0.0
 10
5.015167
 20
0.095353
 30
0.0
 10
5.015167
 20
0.105353
 30
0.0
 10
5.018500
 20
0.118687
 30
0.0
 10
5.021833
 20
0.125353
 30
0.0
 10
5.028500
 20
0.132020
 30
0.0
 10
5.038500
 20
0.135353
 30
0.0
 10
5.045167
 20
0.135353
 30
0.0
 10
5.055167
 20
0.132020
 30
0.0
 10
5.058500
 20
0.128687
 30
0.0
  0
LWPOLYLINE
  5
149
100
AcDbEntity
  8
0
 62
7
100
AcDbPolyline
 90
2
 70
0
 10
5.085167
 20
0.085353
 30
0.0
 10
5.118500
 20
0.085353
 30
0.0
  0
LWPOLYLINE
  5
14a
100
AcDbEntity
  8
0
 62
7
100
AcDbPolyline
 90
3
 70
0
 10
5.078500
 20
0.065353
 30
0.0
 10
5.101833
 20
0.135353
 30
0.0
 10
5.125167
 20
0.065353
 30
0.0
  0
LWPOLYLINE
  5
14b
100
AcDbEntity
  8
0
 62
7
100
AcDbPolyline
 90
3
 70
0
 10
5.181833
 20
0.065353
 30
0.0
 10
5.148500
 20
0.065353
 30
0.0
 10
5.148500
 20
0.135353
 30
0.0
  0
LWPOLYLINE
  5
14c
100
AcDbEntity
  8
0
 62
7
100
AcDbPolyline
 90
2
 70
0
 10
5.205167
 20
0.065353
 30
0.0
 10
5.205167
 20
0.135353
 30
0.0
  0
LWPOLYLINE
  5
14d
100
AcDbEntity
  8
0
 62
7
100
AcDbPolyline
 90
19
 70
0
 10
5.261833
 20
0.102020
 30
0.0
 10
5.271833
 20
0.098687
 30
0.0
 10
5.275167
 20
0.095353
 30
0.0
 10
5.278500
 20
0.088687
 30
0.0
 10
5.278500
 20
0.078687
 30
0.0
 10
5.275167
 20
0.072020
 30
0.0
 10
5.271833
 20
0.068687
 30
0.0
 10
5.265167
 20
0.065353
 30
0.0
 10
5.238500
 20
0.065353
 30
0.0
 10
5.238500
 20
0.135353
 30
0.0
 10
5.261833
 20
0.135353
 30
0.0
 10
5.268500
 20
0.132020
 30
0.0
 10
5.271833
 20
0.128687
 30
0.0
 10
5.275167
 20
0.122020
 30
0.0
 10
5.275167
 20
0.115353
 30
0.0
 10
5.271833
 20
0.108687
 30
0.0
 10
5.268500
 20
0.105353
 30
0.0
 10
5.261833
 20
0.102020
 30
0.0
 10
5.238500
 20
0.102020
 30
0.0
  0
LWPOLYLINE
  5
14e
100
AcDbEntity
  8
0
 62
7
100
AcDbPolyline
 90
2
 70
0
 10
5.348500
 20
0.065353
 30
0.0
 10
5.325167
 20
0.098687
 30
0.0
  0
LWPOLYLINE
  5
14f
100
AcDbEntity
  8
0
 62
7
100
AcDbPolyline
 90
11
 70
0
 10
5.308500
 20
0.065353
 30
0.0
 10
5.308500
 20
0.135353
 30
0.0
 10
5.335167
 20
0.135353
 30
0.0
 10
5.341833
 20
0.132020
 30
0.0
 10
5.345167
 20
0.128687
 30
0.0
 10
5.348500
 20
0.122020
 30
0.0
 10
5.348500
 20
0.112020
 30
0.0
 10
5.345167
 20
0.105353
 30
0.0
 10
5.341833
 20
0.102020
 30
0.0
 10
5.335167
 20
0.098687
 30
0.0
 10
5.308500
 20
0.098687
 30
0.0
  0
LWPOLYLINE
  5
150
100
AcDbEntity
  8
0
 62
7
100
AcDbPolyline
 90
2
 70
0
 10
5.375167
 20
0.085353
 30
0.0
 10
5.408500
 20
0.085353
 30
0.0
  0
LWPOLYLINE
  5
151
100
AcDbEntity
  8
0
 62
7
100
AcDbPolyline
 90
3
 70
0
 10
5.368500
 20
0.065353
 30
0.0
 10
5.391833
 20
0.135353
 30
0.0
 10
5.415167
 20
0.065353
 30
0.0
  0
LWPOLYLINE
  5
152
100
AcDbEntity
  8
0
 62
7
100
AcDbPolyline
 90
2
 70
0
 10
5.428500
 20
0.135353
 30
0.0
 10
5.468500
 20
0.135353
 30
0.0
  0
LWPOLYLINE
  5
153
100
AcDbEntity
  8
0
 62
7
100
AcDbPolyline
 90
2
 70
0
 10
5.448500
 20
0.065353
 30
0.0
 10
5.448500
 20
0.135353
 30
0.0
  0
LWPOLYLINE
  5
154
100
AcDbEntity
  8
0
 62
7
100
AcDbPolyline
 90
2
 70
0
 10
5.491833
 20
0.065353
 30
0.0
 10
5.491833
 20
0.135353
 30
0.0
  0
LWPOLYLINE
  5
155
100
AcDbEntity
  8
0
 62
7
100
AcDbPolyline
 90
16
 70
1
 10
5.538500
 20
0.135353
 30
0.0
 10
5.551833
 20
0.135353
 30
0.0
 10
5.558500
 20
0.132020
 30
0.0
 10
5.565167
 20
0.125353
 30
0.0
 10
5.568500
 20
0.112020
 30
0.0
 10
5.568500
 20
0.088687
 30
0.0
 10
5.565167
 20
0.075353
 30
0.0
 10
5.558500
 20
0.068687
 30
0.0
 10
5.551833
 20
0.065353
 30
0.0
 10
5.538500
 20
0.065353
 30
0.0
 10
5.531833
 20
0.068687
 30
0.0
 10
5.525167
 20
0.075353
 30
0.0
 10
5.521833
 20
0.088687
 30
0.0
 10
5.521833
 20
0.112020
 30
0.0
 10
5.525167
 20
0.125353
 30
0.0
 10
5.531833
 20
0.132020
 30
0.0
  0
LWPOLYLINE
  5
156
100
AcDbEntity
  8
0
 62
7
100
AcDbPolyline
 90
4
 70
0
 10
5.598500
 20
0.065353
 30
0.0
 10
5.598500
 20
0.135353
 30
0.0
 10
5.638500
 20
0.065353
 30
0.0
 10
5.638500
 20
0.135353
 30
0.0
  0
LWPOLYLINE
  5
157
100
AcDbEntity
  8
0
 62
7
100
AcDbPolyline
 90
4
 70
0
 10
6.024357
 20
0.228306
 30
0.0
 10
6.095786
 20
0.228306
 30
0.0
 10
6.095786
 20
0.656877
 30
0.0
 10
6.024357
 20
0.656877
 30
0.0
  0
LWPOLYLINE
  5
158
100
AcDbEntity
  8
0
 62
7
100
AcDbPolyline
 90
4
 70
0
 10
3.353786
 20
2.045877
 30
0.0
 10
3.353786
 20
2.117306
 30
0.0
 10
3.782357
 20
2.117306
 30
0.0
 10
3.782357
 20
2.045877
 30
0.0
  0
LWPOLYLINE
  5
159
100
AcDbEntity
  8
0
 62
7
100
AcDbPolyline
 90
20
 70
0
 10
3.948929
 20
8.813592
 30
0.0
 10
3.991786
 20
8.799306
 30
0.0
 10
4.063214
 20
8.799306
 30
0.0
 10
4.091786
 20
8.813592
 30
0.0
 10
4.106071
 20
8.827877
 30
0.0
 10
4.120357
 20
8.856449
 30
0.0
 10
4.120357
 20
8.885020
 30
0.0
 10
4.106071
 20
8.913592
 30
0.0
 10
4.091786
 20
8.927877
 30
0.0
 10
4.063214
 20
8.942163
 30
0.0
 10
4.006071
 20
8.956449
 30
0.0
 10
3.977500
 20
8.970734
 30
0.0
 10
3.963214
 20
8.985020
 30
0.0
 10
3.948929
 20
9.013592
 30
0.0
 10
3.948929
 20
9.042163
 30
0.0
 10
3.963214
 20
9.070734
 30
0.0
 10
3.977500
 20
9.085020
 30
0.0
 10
4.006071
 20
9.099306
 30
0.0
 10
4.077500
 20
9.099306
 30
0.0
 10
4.120357
 20
9.085020
 30
0.0
  0
LWPOLYLINE
  5
15a
100
AcDbEntity
  8
0
 62
7
100
AcDbPolyline
 90
2
 70
0
 10
4.306071
 20
8.942163
 30
0.0
 10
4.306071
 20
8.799306
 30
0.0
  0
LWPOLYLINE
  5
15b
100
AcDbEntity
  8
0
 62
7
100
AcDbPolyline
 90
3
 70
0
 10
4.206071
 20
9.099306
 30
0.0
 10
4.306071
 20
8.942163
 30
0.0
 10
4.406071
 20
9.099306
 30
0.0
  0
LWPOLYLINE
  5
15c
100
AcDbEntity
  8
0
 62
7
100
AcDbPolyline
 90
4
 70
0
 10
4.506071
 20
8.799306
 30
0.0
 10
4.506071
 20
9.099306
 30
0.0
 10
4.677500
 20
8.799306
 30
0.0
 10
4.677500
 20
9.099306
 30
0.0
  0
LWPOLYLINE
  5
15d
100
AcDbEntity
  8
0
 62
7
100
AcDbPolyline
 90
16
 70
0
 10
4.991786
 20
8.827877
 30
0.0
 10
4.977500
 20
8.813592
 30
0.0
 10
4.934643
 20
8.799306
 30
0.0
 10
4.906071
 20
8.799306
 30
0.0
 10
4.863214
 20
8.813592
 30
0.0
 10
4.834643
 20
8.842163
 30
0.0
 10
4.820357
 20
8.870734
 30
0.0
 10
4.806071
 20
8.927877
 30
0.0
 10
4.806071
 20
8.970734
 30
0.0
 10
4.820357
 20
9.027877
 30
0.0
 10
4.834643
 20
9.056449
 30
0.0
 10
4.863214
 20
9.085020
 30
0.0
 10
4.906071
 20
9.099306
 30
0.0
 10
4.934643
 20
9.099306
 30
0.0
 10
4.977500
 20
9.085020
 30
0.0
 10
4.991786
 20
9.070734
 30
0.0
  0
LWPOLYLINE
  5
15e
100
AcDbEntity
  8
0
 62
7
100
AcDbPolyline
 90
2
 70
0
 10
5.048929
 20
8.770734
 30
0.0
 10
5.277500
 20
8.770734
 30
0.0
  0
LWPOLYLINE
  5
15f
100
AcDbEntity
  8
0
 62
7
100
AcDbPolyline
 90
16
 70
1
 10
5.406071
 20
9.099306
 30
0.0
 10
5.463214
 20
9.099306
 30
0.0
 10
5.491786
 20
9.085020
 30
0.0
 10
5.520357
 20
9.056449
 30
0.0
 10
5.534643
 20
8.999306
 30
0.0
 10
5.534643
 20
8.899306
 30
0.0
 10
5.520357
 20
8.842163
 30
0.0
 10
5.491786
 20
8.813592
 30
0.0
 10
5.463214
 20
8.799306
 30
0.0
 10
5.406071
 20
8.799306
 30
0.0
 10
5.377500
 20
8.813592
 30
0.0
 10
5.348929
 20
8.842163
 30
0.0
 10
5.334643
 20
8.899306
 30
0.0
 10
5.334643
 20
8.999306
 30
0.0
 10
5.348929
 20
9.056449
 30
0.0
 10
5.377500
 20
9.085020
 30
0.0
  0
LWPOLYLINE
  5
160
100
AcDbEntity
  8
0
 62
7
100
AcDbPolyline
 90
11
 70
0
 10
5.663214
 20
8.799306
 30
0.0
 10
5.663214
 20
9.099306
 30
0.0
 10
5.777500
 20
9.099306
 30
0.0
 10
5.806071
 20
9.085020
 30
0.0
 10
5.820357
 20
9.070734
 30
0.0
 10
5.834643
 20
9.042163
 30
0.0
 10
5.834643
 20
8.999306
 30
0.0
 10
5.820357
 20
8.970734
 30
0.0
 10
5.806071
 20
8.956449
 30
0.0
 10
5.777500
 20
8.942163
 30
0.0
 10
5.663214
 20
8.942163
 30
0.0
  0
LWPOLYLINE
  5
161
100
AcDbEntity
  8
0
 62
7
100
AcDbPolyline
 90
2
 70
0
 10
5.963214
 20
8.956449
 30
0.0
 10
6.063214
 20
8.956449
 30
0.0
  0
LWPOLYLINE
  5
162
100
AcDbEntity
  8
0
 62
7
100
AcDbPolyline
 90
4
 70
0
 10
6.106071
 20
8.799306
 30
0.0
 10
5.963214
 20
8.799306
 30
0.0
 10
5.963214
 20
9.099306
 30
0.0
 10
6.106071
 20
9.099306
 30
0.0
  0
LWPOLYLINE
  5
163
100
AcDbEntity
  8
0
 62
7
100
AcDbPolyline
 90
3
 70
0
 10
0.781357
 20
0.230163
 30
0.0
 10
0.831357
 20
0.080163
 30
0.0
 10
0.881357
 20
0.230163
 30
0.0
  0
LWPOLYLINE
  5
164
100
AcDbEntity
  8
0
 62
7
100
AcDbPolyline
 90
2
 70
0
 10
0.931357
 20
0.080163
 30
0.0
 10
0.931357
 20
0.230163
 30
0.0
  0
LWPOLYLINE
  5
165
100
AcDbEntity
  8
0
 62
7
100
AcDbPolyline
 90
12
 70
1
 10
1.002786
 20
0.080163
 30
0.0
 10
1.002786
 20
0.230163
 30
0.0
 10
1.038500
 20
0.230163
 30
0.0
 10
1.059929
 20
0.223020
 30
0.0
 10
1.074214
 20
0.208734
 30
0.0
 10
1.081357
 20
0.194449
 30
0.0
 10
1.088500
 20
0.165877
 30
0.0
 10
1.088500
 20
0.144449
 30
0.0
 10
1.081357
 20
0.115877
 30
0.0
 10
1.074214
 20
0.101591
 30
0.0
 10
1.059929
 20
0.087306
 30
0.0
 10
1.038500
 20
0.080163
 30
0.0
  0
LWPOLYLINE
  5
166
100
AcDbEntity
  8
0
 62
7
100
AcDbPolyline
 90
2
 70
0
 10
1.152786
 20
0.158734
 30
0.0
 10
1.202786
 20
0.158734
 30
0.0
  0
LWPOLYLINE
  5
167
100
AcDbEntity
  8
0
 62
7
100
AcDbPolyline
 90
4
 70
0
 10
1.224214
 20
0.080163
 30
0.0
 10
1.152786
 20
0.080163
 30
0.0
 10
1.152786
 20
0.230163
 30
0.0
 10
1.224214
 20
0.230163
 30
0.0
  0
LWPOLYLINE
  5
168
100
AcDbEntity
  8
0
 62
7
100
AcDbPolyline
 90
16
 70
1
 10
1.317071
 20
0.230163
 30
0.0
 10
1.345643
 20
0.230163
 30
0.0
 10
1.359929
 20
0.223020
 30
0.0
 10
1.374214
 20
0.208734
 30
0.0
 10
1.381357
 20
0.180163
 30
0.0
 10
1.381357
 20
0.130163
 30
0.0
 10
1.374214
 20
0.101591
 30
0.0
 10
1.359929
 20
0.087306
 30
0.0
 10
1.345643
 20
0.080163
 30
0.0
 10
1.317071
 20
0.080163
 30
0.0
 10
1.302786
 20
0.087306
 30
0.0
 10
1.288500
 20
0.101591
 30
0.0
 10
1.281357
 20
0.130163
 30
0.0
 10
1.281357
 20
0.180163
 30
0.0
 10
1.288500
 20
0.208734
 30
0.0
 10
1.302786
 20
0.223020
 30
0.0
  0
LWPOLYLINE
  5
169
100
AcDbEntity
  8
0
 62
7
100
AcDbPolyline
 90
2
 70
0
 10
1.409929
 20
0.065877
 30
0.0
 10
1.524214
 20
0.065877
 30
0.0
  0
LWPOLYLINE
  5
16a
100
AcDbEntity
  8
0
 62
7
100
AcDbPolyline
 90
20
 70
0
 10
1.552786
 20
0.087306
 30
0.0
 10
1.574214
 20
0.080163
 30
0.0
 10
1.609929
 20
0.080163
 30
0.0
 10
1.624214
 20
0.087306
 30
0.0
 10
1.631357
 20
0.094449
 30
0.0
 10
1.638500
 20
0.108734
 30
0.0
 10
1.638500
 20
0.123020
 30
0.0
 10
1.631357
 20
0.137306
 30
0.0
 10
1.624214
 20
0.144449
 30
0.0
 10
1.609929
 20
0.151592
 30
0.0
 10
1.581357
 20
0.158734
 30
0.0
 10
1.567071
 20
0.165877
 30
0.0
 10
1.559929
 20
0.173020
 30
0.0
 10
1.552786
 20
0.187306
 30
0.0
 10
1.552786
 20
0.201591
 30
0.0
 10
1.559929
 20
0.215877
 30
0.0
 10
1.567071
 20
0.223020
 30
0.0
 10
1.581357
 20
0.230163
 30
0.0
 10
1.617071
 20
0.230163
 30
0.0
 10
1.638500
 20
0.223020
 30
0.0
  0
LWPOLYLINE
  5
16b
100
AcDbEntity
  8
0
 62
7
100
AcDbPolyline
 90
2
 70
0
 10
1.702786
 20
0.158734
 30
0.0
 10
1.752786
 20
0.158734
 30
0.0
  0
LWPOLYLINE
  5
16c
100
AcDbEntity
  8
0
 62
7
100
AcDbPolyline
 90
4
 70
0
 10
1.774214
 20
0.080163
 30
0.0
 10
1.702786
 20
0.080163
 30
0.0
 10
1.702786
 20
0.230163
 30
0.0
 10
1.774214
 20
0.230163
 30
0.0
  0
LWPOLYLINE
  5
16d
100
AcDbEntity
  8
0
 62
7
100
AcDbPolyline
 90
4
 70
0
 10
1.838500
 20
0.080163
 30
0.0
 10
1.838500
 20
0.230163
 30
0.0
 10
1.924214
 20
0.080163
 30
0.0
 10
1.924214
 20
0.230163
 30
0.0
  0
LWPOLYLINE
  5
16e
100
AcDbEntity
  8
0
 62
7
100
AcDbPolyline
 90
12
 70
1
 10
1.995643
 20
0.080163
 30
0.0
 10
1.995643
 20
0.230163
 30
0.0
 10
2.031357
 20
0.230163
 30
0.0
 10
2.052786
 20
0.223020
 30
0.0
 10
2.067071
 20
0.208734
 30
0.0
 10
2.074214
 20
0.194449
 30
0.0
 10
2.081357
 20
0.165877
 30
0.0
 10
2.081357
 20
0.144449
 30
0.0
 10
2.074214
 20
0.115877
 30
0.0
 10
2.067071
 20
0.101591
 30
0.0
 10
2.052786
 20
0.087306
 30
0.0
 10
2.031357
 20
0.080163
 30
0.0
  0
LWPOLYLINE
  5
16f
100
AcDbEntity
  8
0
 62
7
100
AcDbPolyline
 90
4
 70
0
 10
3.363786
 20
0.226163
 30
0.0
 10
3.363786
 20
0.154734
 30
0.0
 10
3.792357
 20
0.154734
 30
0.0
 10
3.792357
 20
0.226163
 30
0.0
  0
LWPOLYLINE
  5
170
100
AcDbEntity
  8
0
 62
7
100
AcDbPolyline
 90
13
 70
0
 10
4.320357
 20
8.425056
 30
0.0
 10
4.306071
 20
8.417913
 30
0.0
 10
4.277500
 20
8.417913
 30
0.0
 10
4.263214
 20
8.425056
 30
0.0
 10
4.256071
 20
8.439342
 30
0.0
 10
4.256071
 20
8.496484
 30
0.0
 10
4.263214
 20
8.510770
 30
0.0
 10
4.277500
 20
8.517913
 30
0.0
 10
4.306071
 20
8.517913
 30
0.0
 10
4.320357
 20
8.510770
 30
0.0
 10
4.327500
 20
8.496484
 30
0.0
 10
4.327500
 20
8.482199
 30
0.0
 10
4.256071
 20
8.467913
 30
0.0
  0
LWPOLYLINE
  5
171
100
AcDbEntity
  8
0
 62
7
100
AcDbPolyline
 90
2
 70
0
 10
4.370357
 20
8.517913
 30
0.0
 10
4.427500
 20
8.517913
 30
0.0
  0
LWPOLYLINE
  5
172
100
AcDbEntity
  8
0
 62
7
100
AcDbPolyline
 90
5
 70
0
 10
4.391786
 20
8.417913
 30
0.0
 10
4.391786
 20
8.546484
 30
0.0
 10
4.398929
 20
8.560770
 30
0.0
 10
4.413214
 20
8.567913
 30
0.0
 10
4.427500
 20
8.567913
 30
0.0
  0
LWPOLYLINE
  5
173
100
AcDbEntity
  8
0
 62
7
100
AcDbPolyline
 90
2
 70
0
 10
4.456071
 20
8.517913
 30
0.0
 10
4.513214
 20
8.517913
 30
0.0
  0
LWPOLYLINE
  5
174
100
AcDbEntity
  8
0
 62
7
100
AcDbPolyline
 90
5
 70
0
 10
4.477500
 20
8.417913
 30
0.0
 10
4.477500
 20
8.546484
 30
0.0
 10
4.484643
 20
8.560770
 30
0.0
 10
4.498929
 20
8.567913
 30
0.0
 10
4.513214
 20
8.567913
 30
0.0
  0
LWPOLYLINE
  5
175
100
AcDbEntity
  8
0
 62
7
100
AcDbPolyline
 90
13
 70
0
 10
4.620357
 20
8.425056
 30
0.0
 10
4.606071
 20
8.417913
 30
0.0
 10
4.577500
 20
8.417913
 30
0.0
 10
4.563214
 20
8.425056
 30
0.0
 10
4.556071
 20
8.439342
 30
0.0
 10
4.556071
 20
8.496484
 30
0.0
 10
4.563214
 20
8.510770
 30
0.0
 10
4.577500
 20
8.517913
 30
0.0
 10
4.606071
 20
8.517913
 30
0.0
 10
4.620357
 20
8.510770
 30
0.0
 10
4.627500
 20
8.496484
 30
0.0
 10
4.627500
 20
8.482199
 30
0.0
 10
4.556071
 20
8.467913
 30
0.0
  0
LWPOLYLINE
  5
176
100
AcDbEntity
  8
0
 62
7
100
AcDbPolyline
 90
12
 70
0
 10
4.756071
 20
8.425056
 30
0.0
 10
4.741786
 20
8.417913
 30
0.0
 10
4.713214
 20
8.417913
 30
0.0
 10
4.698929
 20
8.425056
 30
0.0
 10
4.691786
 20
8.432199
 30
0.0
 10
4.684643
 20
8.446484
 30
0.0
 10
4.684643
 20
8.489342
 30
0.0
 10
4.691786
 20
8.503627
 30
0.0
 10
4.698929
 20
8.510770
 30
0.0
 10
4.713214
 20
8.517913
 30
0.0
 10
4.741786
 20
8.517913
 30
0.0
 10
4.756071
 20
8.510770
 30
0.0
  0
LWPOLYLINE
  5
177
100
AcDbEntity
  8
0
 62
7
100
AcDbPolyline
 90
2
 70
0
 10
4.798929
 20
8.517913
 30
0.0
 10
4.856071
 20
8.517913
 30
0.0
  0
LWPOLYLINE
  5
178
100
AcDbEntity
  8
0
 62
7
100
AcDbPolyline
 90
5
 70
0
 10
4.820357
 20
8.567913
 30
0.0
 10
4.820357
 20
8.439342
 30
0.0
 10
4.827500
 20
8.425056
 30
0.0
 10
4.841786
 20
8.417913
 30
0.0
 10
4.856071
 20
8.417913
 30
0.0
  0
LWPOLYLINE
  5
179
100
AcDbEntity
  8
0
 62
7
100
AcDbPolyline
 90
2
 70
0
 10
5.127500
 20
8.575056
 30
0.0
 10
4.998929
 20
8.382199
 30
0.0
  0
LWPOLYLINE
  5
17a
100
AcDbEntity
  8
0
 62
7
100
AcDbPolyline
 90
16
 70
0
 10
5.284643
 20
8.425056
 30
0.0
 10
5.298929
 20
8.417913
 30
0.0
 10
5.327500
 20
8.417913
 30
0.0
 10
5.341786
 20
8.425056
 30
0.0
 10
5.348929
 20
8.439342
 30
0.0
 10
5.348929
 20
8.446484
 30
0.0
 10
5.341786
 20
8.460770
 30
0.0
 10
5.327500
 20
8.467913
 30
0.0
 10
5.306071
 20
8.467913
 30
0.0
 10
5.291786
 20
8.475056
 30
0.0
 10
5.284643
 20
8.489342
 30
0.0
 10
5.284643
 20
8.496484
 30
0.0
 10
5.291786
 20
8.510770
 30
0.0
 10
5.306071
 20
8.517913
 30
0.0
 10
5.327500
 20
8.517913
 30
0.0
 10
5.341786
 20
8.510770
 30
0.0
  0
LWPOLYLINE
  5
17b
100
AcDbEntity
  8
0
 62
7
100
AcDbPolyline
 90
13
 70
0
 10
5.470357
 20
8.425056
 30
0.0
 10
5.456071
 20
8.417913
 30
0.0
 10
5.427500
 20
8.417913
 30
0.0
 10
5.413214
 20
8.425056
 30
0.0
 10
5.406071
 20
8.439342
 30
0.0
 10
5.406071
 20
8.496484
 30
0.0
 10
5.413214
 20
8.510770
 30
0.0
 10
5.427500
 20
8.517913
 30
0.0
 10
5.456071
 20
8.517913
 30
0.0
 10
5.470357
 20
8.510770
 30
0.0
 10
5.477500
 20
8.496484
 30
0.0
 10
5.477500
 20
8.482199
 30
0.0
 10
5.406071
 20
8.467913
 30
0.0
  0
LWPOLYLINE
  5
17c
100
AcDbEntity
  8
0
 62
7
100
AcDbPolyline
 90
2
 70
0
 10
5.541786
 20
8.517913
 30
0.0
 10
5.541786
 20
8.417913
 30
0.0
  0
LWPOLYLINE
  5
17d
100
AcDbEntity
  8
0
 62
7
100
AcDbPolyline
 90
7
 70
0
 10
5.541786
 20
8.503627
 30
0.0
 10
5.548929
 20
8.510770
 30
0.0
 10
5.563214
 20
8.517913
 30
0.0
 10
5.584643
 20
8.517913
 30
0.0
 10
5.598929
 20
8.510770
 30
0.0
 10
5.606071
 20
8.496484
 30
0.0
 10
5.606071
 20
8.417913
 30
0.0
  0
LWPOLYLINE
  5
17e
100
AcDbEntity
  8
0
 62
7
100
AcDbPolyline
 90
2
 70
0
 10
5.741786
 20
8.417913
 30
0.0
 10
5.741786
 20
8.567913
 30
0.0
  0
LWPOLYLINE
  5
17f
100
AcDbEntity
  8
0
 62
7
100
AcDbPolyline
 90
12
 70
0
 10
5.741786
 20
8.425056
 30
0.0
 10
5.727500
 20
8.417913
 30
0.0
 10
5.698929
 20
8.417913
 30
0.0
 10
5.684643
 20
8.425056
 30
0.0
 10
5.677500
 20
8.432199
 30
0.0
 10
5.670357
 20
8.446484
 30
0.0
 10
5.670357
 20
8.489342
 30
0.0
 10
5.677500
 20
8.503627
 30
0.0
 10
5.684643
 20
8.510770
 30
0.0
 10
5.698929
 20
8.517913
 30
0.0
 10
5.727500
 20
8.517913
 30
0.0
 10
5.741786
 20
8.510770
 30
0.0
  0
LWPOLYLINE
  5
180
100
AcDbEntity
  8
0
 62
7
100
AcDbPolyline
 90
29
 70
0
 10
4.309643
 20
8.176413
 30
0.0
 10
4.302500
 20
8.176413
 30
0.0
 10
4.288214
 20
8.183556
 30
0.0
 10
4.266786
 20
8.204984
 30
0.0
 10
4.231071
 20
8.247841
 30
0.0
 10
4.216786
 20
8.269270
 30
0.0
 10
4.209643
 20
8.290699
 30
0.0
 10
4.209643
 20
8.304984
 30
0.0
 10
4.216786
 20
8.319270
 30
0.0
 10
4.231071
 20
8.326413
 30
0.0
 10
4.238214
 20
8.326413
 30
0.0
 10
4.252500
 20
8.319270
 30
0.0
 10
4.259643
 20
8.304984
 30
0.0
 10
4.259643
 20
8.297842
 30
0.0
 10
4.252500
 20
8.283556
 30
0.0
 10
4.245357
 20
8.276413
 30
0.0
 10
4.202500
 20
8.247841
 30
0.0
 10
4.195357
 20
8.240699
 30
0.0
 10
4.188214
 20
8.226413
 30
0.0
 10
4.188214
 20
8.204984
 30
0.0
 10
4.195357
 20
8.190699
 30
0.0
 10
4.202500
 20
8.183556
 30
0.0
 10
4.216786
 20
8.176413
 30
0.0
 10
4.238214
 20
8.176413
 30
0.0
 10
4.252500
 20
8.183556
 30
0.0
 10
4.259643
 20
8.190699
 30
0.0
 10
4.281071
 20
8.219270
 30
0.0
 10
4.288214
 20
8.240699
 30
0.0
 10
4.288214
 20
8.254984
 30
0.0
  0
LWPOLYLINE
  5
181
100
AcDbEntity
  8
0
 62
7
100
AcDbPolyline
 90
16
 70
0
 10
4.481071
 20
8.183556
 30
0.0
 10
4.495357
 20
8.176413
 30
0.0
 10
4.523929
 20
8.176413
 30
0.0
 10
4.538214
 20
8.183556
 30
0.0
 10
4.545357
 20
8.197842
 30
0.0
 10
4.545357
 20
8.204984
 30
0.0
 10
4.538214
 20
8.219270
 30
0.0
 10
4.523929
 20
8.226413
 30
0.0
 10
4.502500
 20
8.226413
 30
0.0
 10
4.488214
 20
8.233556
 30
0.0
 10
4.481071
 20
8.247841
 30
0.0
 10
4.481071
 20
8.254984
 30
0.0
 10
4.488214
 20
8.269270
 30
0.0
 10
4.502500
 20
8.276413
 30
0.0
 10
4.523929
 20
8.276413
 30
0.0
 10
4.538214
 20
8.269270
 30
0.0
  0
LWPOLYLINE
  5
182
100
AcDbEntity
  8
0
 62
7
100
AcDbPolyline
 90
2
 70
0
 10
4.595357
 20
8.276413
 30
0.0
 10
4.631071
 20
8.176413
 30
0.0
  0
LWPOLYLINE
  5
183
100
AcDbEntity
  8
0
 62
7
100
AcDbPolyline
 90
5
 70
0
 10
4.666786
 20
8.276413
 30
0.0
 10
4.631071
 20
8.176413
 30
0.0
 10
4.616786
 20
8.140699
 30
0.0
 10
4.609643
 20
8.133556
 30
0.0
 10
4.595357
 20
8.126413
 30
0.0
  0
LWPOLYLINE
  5
184
100
AcDbEntity
  8
0
 62
7
100
AcDbPolyline
 90
2
 70
0
 10
4.723929
 20
8.276413
 30
0.0
 10
4.723929
 20
8.176413
 30
0.0
  0
LWPOLYLINE
  5
185
100
AcDbEntity
  8
0
 62
7
100
AcDbPolyline
 90
7
 70
0
 10
4.723929
 20
8.262127
 30
0.0
 10
4.731071
 20
8.269270
 30
0.0
 10
4.745357
 20
8.276413
 30
0.0
 10
4.766786
 20
8.276413
 30
0.0
 10
4.781071
 20
8.269270
 30
0.0
 10
4.788214
 20
8.254984
 30
0.0
 10
4.788214
 20
8.176413
 30
0.0
  0
LWPOLYLINE
  5
186
100
AcDbEntity
  8
0
 62
7
100
AcDbPolyline
 90
12
 70
0
 10
4.923929
 20
8.183556
 30
0.0
 10
4.909643
 20
8.176413
 30
0.0
 10
4.881071
 20
8.176413
 30
0.0
 10
4.866786
 20
8.183556
 30
0.0
 10
4.859643
 20
8.190699
 30
0.0
 10
4.852500
 20
8.204984
 30
0.0
 10
4.852500
 20
8.247841
 30
0.0
 10
4.859643
 20
8.262127
 30
0.0
 10
4.866786
 20
8.269270
 30
0.0
 10
4.881071
 20
8.276413
 30
0.0
 10
4.909643
 20
8.276413
 30
0.0
 10
4.923929
 20
8.269270
 30
0.0
  0
LWPOLYLINE
  5
187
100
AcDbEntity
  8
0
 62
7
100
AcDbPolyline
 90
2
 70
0
 10
5.102500
 20
8.176413
 30
0.0
 10
5.102500
 20
8.276413
 30
0.0
  0
LWPOLYLINE
  5
188
100
AcDbEntity
  8
0
 62
7
100
AcDbPolyline
 90
5
 70
0
 10
5.102500
 20
8.247841
 30
0.0
 10
5.109643
 20
8.262127
 30
0.0
 10
5.116786
 20
8.269270
 30
0.0
 10
5.131071
 20
8.276413
 30
0.0
 10
5.145357
 20
8.276413
 30
0.0
  0
LWPOLYLINE
  5
189
100
AcDbEntity
  8
0
 62
7
100
AcDbPolyline
 90
13
 70
0
 10
5.252500
 20
8.183556
 30
0.0
 10
5.238214
 20
8.176413
 30
0.0
 10
5.209643
 20
8.176413
 30
0.0
 10
5.195357
 20
8.183556
 30
0.0
 10
5.188214
 20
8.197842
 30
0.0
 10
5.188214
 20
8.254984
 30
0.0
 10
5.195357
 20
8.269270
 30
0.0
 10
5.209643
 20
8.276413
 30
0.0
 10
5.238214
 20
8.276413
 30
0.0
 10
5.252500
 20
8.269270
 30
0.0
 10
5.259643
 20
8.254984
 30
0.0
 10
5.259643
 20
8.240699
 30
0.0
 10
5.188214
 20
8.226413
 30
0.0
  0
LWPOLYLINE
  5
18a
100
AcDbEntity
  8
0
 62
7
100
AcDbPolyline
 90
16
 70
0
 10
5.316786
 20
8.183556
 30
0.0
 10
5.331071
 20
8.176413
 30
0.0
 10
5.359643
 20
8.176413
 30
0.0
 10
5.373929
 20
8.183556
 30
0.0
 10
5.381071
 20
8.197842
 30
0.0
 10
5.381071
 20
8.204984
 30
0.0
 10
5.373929
 20
8.219270
 30
0.0
 10
5.359643
 20
8.226413
 30
0.0
 10
5.338214
 20
8.226413
 30
0.0
 10
5.323929
 20
8.233556
 30
0.0
 10
5.316786
 20
8.247841
 30
0.0
 10
5.316786
 20
8.254984
 30
0.0
 10
5.323929
 20
8.269270
 30
0.0
 10
5.338214
 20
8.276413
 30
0.0
 10
5.359643
 20
8.276413
 30
0.0
 10
5.373929
 20
8.269270
 30
0.0
  0
LWPOLYLINE
  5
18b
100
AcDbEntity
  8
0
 62
7
100
AcDbPolyline
 90
2
 70
0
 10
5.423929
 20
8.276413
 30
0.0
 10
5.481071
 20
8.276413
 30
0.0
  0
LWPOLYLINE
  5
18c
100
AcDbEntity
  8
0
 62
7
100
AcDbPolyline
 90
5
 70
0
 10
5.445357
 20
8.326413
 30
0.0
 10
5.445357
 20
8.197842
 30
0.0
 10
5.452500
 20
8.183556
 30
0.0
 10
5.466786
 20
8.176413
 30
0.0
 10
5.481071
 20
8.176413
 30
0.0
  0
LWPOLYLINE
  5
18d
100
AcDbEntity
  8
0
 62
7
100
AcDbPolyline
 90
16
 70
1
 10
5.552500
 20
8.176413
 30
0.0
 10
5.538214
 20
8.183556
 30
0.0
 10
5.531071
 20
8.190699
 30
0.0
 10
5.523929
 20
8.204984
 30
0.0
 10
5.523929
 20
8.247841
 30
0.0
 10
5.531071
 20
8.262127
 30
0.0
 10
5.538214
 20
8.269270
 30
0.0
 10
5.552500
 20
8.276413
 30
0.0
 10
5.573929
 20
8.276413
 30
0.0
 10
5.588214
 20
8.269270
 30
0.0
 10
5.595357
 20
8.262127
 30
0.0
 10
5.602500
 20
8.247841
 30
0.0
 10
5.602500
 20
8.204984
 30
0.0
 10
5.595357
 20
8.190699
 30
0.0
 10
5.588214
 20
8.183556
 30
0.0
 10
5.573929
 20
8.176413
 30
0.0
  0
LWPOLYLINE
  5
18e
100
AcDbEntity
  8
0
 62
7
100
AcDbPolyline
 90
2
 70
0
 10
5.666786
 20
8.176413
 30
0.0
 10
5.666786
 20
8.276413
 30
0.0
  0
LWPOLYLINE
  5
18f
100
AcDbEntity
  8
0
 62
7
100
AcDbPolyline
 90
5
 70
0
 10
5.666786
 20
8.247841
 30
0.0
 10
5.673929
 20
8.262127
 30
0.0
 10
5.681071
 20
8.269270
 30
0.0
 10
5.695357
 20
8.276413
 30
0.0
 10
5.709643
 20
8.276413
 30
0.0
  0
LWPOLYLINE
  5
190
100
AcDbEntity
  8
0
 62
7
100
AcDbPolyline
 90
13
 70
0
 10
5.816786
 20
8.183556
 30
0.0
 10
5.802500
 20
8.176413
 30
0.0
 10
5.773929
 20
8.176413
 30
0.0
 10
5.759643
 20
8.183556
 30
0.0
 10
5.752500
 20
8.197842
 30
0.0
 10
5.752500
 20
8.254984
 30
0.0
 10
5.759643
 20
8.269270
 30
0.0
 10
5.773929
 20
8.276413
 30
0.0
 10
5.802500
 20
8.276413
 30
0.0
 10
5.816786
 20
8.269270
 30
0.0
 10
5.823929
 20
8.254984
 30
0.0
 10
5.823929
 20
8.240699
 30
0.0
 10
5.752500
 20
8.226413
 30
0.0
  0
LWPOLYLINE
  5
191
100
AcDbEntity
  8
0
 62
7
100
AcDbPolyline
 90
4
 70
0
 10
5.625643
 20
1.611306
 30
0.0
 10
5.554214
 20
1.611306
 30
0.0
 10
5.554214
 20
2.039877
 30
0.0
 10
5.625643
 20
2.039877
 30
0.0
  0
LWPOLYLINE
  5
192
100
AcDbEntity
  8
0
 62
7
100
AcDbPolyline
 90
2
 70
0
 10
4.657500
 20
9.777163
 30
0.0
 10
4.571786
 20
9.777163
 30
0.0
  0
LWPOLYLINE
  5
193
100
AcDbEntity
  8
0
 62
7
100
AcDbPolyline
 90
5
 70
0
 10
4.614643
 20
9.777163
 30
0.0
 10
4.614643
 20
9.927163
 30
0.0
 10
4.600357
 20
9.905734
 30
0.0
 10
4.586071
 20
9.891449
 30
0.0
 10
4.571786
 20
9.884306
 30
0.0
  0
LWPOLYLINE
  5
194
100
AcDbEntity
  8
0
 62
7
100
AcDbPolyline
 90
11
 70
0
 10
4.714643
 20
9.912877
 30
0.0
 10
4.721786
 20
9.920020
 30
0.0
 10
4.736071
 20
9.927163
 30
0.0
 10
4.771786
 20
9.927163
 30
0.0
 10
4.786071
 20
9.920020
 30
0.0
 10
4.793214
 20
9.912877
 30
0.0
 10
4.800357
 20
9.898592
 30
0.0
 10
4.800357
 20
9.884306
 30
0.0
 10
4.793214
 20
9.862877
 30
0.0
 10
4.707500
 20
9.777163
 30
0.0
 10
4.800357
 20
9.777163
 30
0.0
  0
LWPOLYLINE
  5
195
100
AcDbEntity
  8
0
 62
7
100
AcDbPolyline
 90
3
 70
0
 10
4.843214
 20
9.927163
 30
0.0
 10
4.893214
 20
9.777163
 30
0.0
 10
4.943214
 20
9.927163
 30
0.0
  0
LWPOLYLINE
  5
196
100
AcDbEntity
  8
0
 62
7
100
AcDbPolyline
 90
12
 70
1
 10
5.107500
 20
9.777163
 30
0.0
 10
5.107500
 20
9.927163
 30
0.0
 10
5.143214
 20
9.927163
 30
0.0
 10
5.164643
 20
9.920020
 30
0.0
 10
5.178929
 20
9.905734
 30
0.0
 10
5.186071
 20
9.891449
 30
0.0
 10
5.193214
 20
9.862877
 30
0.0
 10
5.193214
 20
9.841449
 30
0.0
 10
5.186071
 20
9.812877
 30
0.0
 10
5.178929
 20
9.798592
 30
0.0
 10
5.164643
 20
9.784306
 30
0.0
 10
5.143214
 20
9.777163
 30
0.0
  0
LWPOLYLINE
  5
197
100
AcDbEntity
  8
0
 62
7
100
AcDbPolyline
 90
16
 70
0
 10
5.343214
 20
9.791449
 30
0.0
 10
5.336071
 20
9.784306
 30
0.0
 10
5.314643
 20
9.777163
 30
0.0
 10
5.300357
 20
9.777163
 30
0.0
 10
5.278929
 20
9.784306
 30
0.0
 10
5.264643
 20
9.798592
 30
0.0
 10
5.257500
 20
9.812877
 30
0.0
 10
5.250357
 20
9.841449
 30
0.0
 10
5.250357
 20
9.862877
 30
0.0
 10
5.257500
 20
9.891449
 30
0.0
 10
5.264643
 20
9.905734
 30
0.0
 10
5.278929
 20
9.920020
 30
0.0
 10
5.300357
 20
9.927163
 30
0.0
 10
5.314643
 20
9.927163
 30
0.0
 10
5.336071
 20
9.920020
 30
0.0
 10
5.343214
 20
9.912877
 30
0.0
  0
ENDSEC
  0
SECTION
  2
OBJECTS
  0
DICTIONARY
  5
C
330
0
100
AcDbDictionary
  3
ACAD_GROUP
350
D
  3
ACAD_MLINESTYLE
350
17
  0
DICTIONARY
  5
D
330
C
100
AcDbDictionary
  0
DICTIONARY
  5
1A
330
C
100
AcDbDictionary
  0
DICTIONARY
  5
17
330
C
100
AcDbDictionary
  3
STANDARD
350
18
  0
DICTIONARY
  5
19
330
C
100
AcDbDictionary
  0
ENDSEC
  0
EOF
