<?xml version="1.0" standalone="no"?>
 <!DOCTYPE svg PUBLIC "-//W3C//DTD SVG 1.1//EN" 
 "http://www.w3.org/Graphics/SVG/1.1/DTD/svg11.dtd"> 
<svg
  xmlns:svg="http://www.w3.org/2000/svg"
  xmlns="http://www.w3.org/2000/svg"
  xmlns:xlink="http://www.w3.org/1999/xlink"
  version="1.1"
  width="10.002520cm" height="10.002520cm" viewBox="0 0 100025200 100025200">
<title>SVG Picture created as default_panel-Edge_Cuts.svg date 2023/07/12 16:33:31 </title>
  <desc>Picture generated by PCBNEW </desc>
<g style="fill:#000000; fill-opacity:1.000000;stroke:#000000; stroke-opacity:1.000000;
stroke-linecap:round; stroke-linejoin:round;"
 transform="translate(0 0) scale(1 1)">
</g>
<g style="fill:#000000; fill-opacity:0.0; 
stroke:#000000; stroke-width:0.000000; stroke-opacity:1; 
stroke-linecap:round; stroke-linejoin:round;">
</g>
<g style="fill:#000000; fill-opacity:0.0; 
stroke:#000000; stroke-width:50000.000000; stroke-opacity:1; 
stroke-linecap:round; stroke-linejoin:round;">
<path d="M25000 100025000
L25000 25000
" />
<circle cx="35725000.000000" cy="95675000.000000" r="2000000.000000" /> 
<path d="M100025000 25000
L100025000 100025000
" />
<circle cx="58225000.000000" cy="95625000.000000" r="2000000.000000" /> 
<circle cx="35725000.000000" cy="81675000.000000" r="2000000.000000" /> 
<circle cx="3525000.000000" cy="3525000.000000" r="1800000.000000" /> 
<circle cx="13175000.000000" cy="10075000.000000" r="6500000.000000" /> 
<circle cx="96525000.000000" cy="96525000.000000" r="1800000.000000" /> 
<circle cx="58225000.000000" cy="81675000.000000" r="2000000.000000" /> 
<circle cx="87525000.000000" cy="10575000.000000" r="6500000.000000" /> 
<circle cx="3525000.000000" cy="96525000.000000" r="1800000.000000" /> 
<path d="M25000 25000
L100025000 25000
" />
<circle cx="50275000.000000" cy="39525000.000000" r="1700000.000000" /> 
<circle cx="9525000.000000" cy="73925000.000000" r="3500000.000000" /> 
<circle cx="12075000.000000" cy="90625000.000000" r="6500000.000000" /> 
<circle cx="90525000.000000" cy="74425000.000000" r="3500000.000000" /> 
<circle cx="50025000.000000" cy="50425000.000000" r="3500000.000000" /> 
<circle cx="50025000.000000" cy="63025000.000000" r="4000000.000000" /> 
<circle cx="88575000.000000" cy="90025000.000000" r="6500000.000000" /> 
</g>
<g style="fill:#000000; fill-opacity:1.0; 
stroke:#000000; stroke-width:1.000000; stroke-opacity:1; 
stroke-linecap:round; stroke-linejoin:round;">
<circle cx="4275000.000000" cy="15525000.000000" r="25001.000000" /> 
</g>
<g style="fill:#000000; fill-opacity:0.0; 
stroke:#000000; stroke-width:50000.000000; stroke-opacity:1; 
stroke-linecap:round; stroke-linejoin:round;">
<circle cx="96525000.000000" cy="3525000.000000" r="1800000.000000" /> 
<path d="M100025000 100025000
L25000 100025000
" />
<g >
</g>
<g >
</g>
<g >
</g>
</g> 
</svg>
