<?xml version="1.0" standalone="no"?>
 <!DOCTYPE svg PUBLIC "-//W3C//DTD SVG 1.1//EN" 
 "http://www.w3.org/Graphics/SVG/1.1/DTD/svg11.dtd"> 
<svg
  xmlns:svg="http://www.w3.org/2000/svg"
  xmlns="http://www.w3.org/2000/svg"
  xmlns:xlink="http://www.w3.org/1999/xlink"
  version="1.1"
  width="10.167620cm" height="12.860020cm" viewBox="0 0 101676200 128600200">
<title>SVG Picture created as eurorack_panel-F_Silkscreen.svg date 2023/07/12 16:23:11 </title>
  <desc>Picture generated by PCBNEW </desc>
<g style="fill:#000000; fill-opacity:1.000000;stroke:#000000; stroke-opacity:1.000000;
stroke-linecap:round; stroke-linejoin:round;"
 transform="translate(0 0) scale(1 1)">
</g>
<g style="fill:#000000; fill-opacity:0.0; 
stroke:#000000; stroke-width:0.000000; stroke-opacity:1; 
stroke-linecap:round; stroke-linejoin:round;">
</g>
<g style="fill:#000000; fill-opacity:0.0; 
stroke:#000000; stroke-width:500000.000000; stroke-opacity:1; 
stroke-linecap:round; stroke-linejoin:round;">
<path d="M11975000 99000000
L10925000 92750000
" />
</g>
<g style="fill:#000000; fill-opacity:0.0; 
stroke:#000000; stroke-width:50000.000000; stroke-opacity:1; 
stroke-linecap:round; stroke-linejoin:round;">
<circle cx="94675000.000000" cy="125100000.000000" r="1600000.000000" /> 
</g>
<g style="fill:#000000; fill-opacity:0.0; 
stroke:#000000; stroke-width:500000.000000; stroke-opacity:1; 
stroke-linecap:round; stroke-linejoin:round;">
<path d="M50625000 72750000
L50625000 68900000
" />
</g>
<g style="fill:#000000; fill-opacity:0.0; 
stroke:#000000; stroke-width:50000.000000; stroke-opacity:1; 
stroke-linecap:round; stroke-linejoin:round;">
<circle cx="7025000.000000" cy="125050000.000000" r="1600000.000000" /> 
<circle cx="94675000.000000" cy="3550000.000000" r="1600000.000000" /> 
</g>
<g style="fill:#000000; fill-opacity:0.0; 
stroke:#000000; stroke-width:500000.000000; stroke-opacity:1; 
stroke-linecap:round; stroke-linejoin:round;">
<path d="M90800000 92675000
L89750000 98925000
" />
</g>
<g style="fill:#000000; fill-opacity:0.0; 
stroke:#000000; stroke-width:50000.000000; stroke-opacity:1; 
stroke-linecap:round; stroke-linejoin:round;">
<circle cx="7025000.000000" cy="3500000.000000" r="1600000.000000" /> 
</g>
<g style="fill:#000000; fill-opacity:0.0; 
stroke:#000000; stroke-width:300000.000000; stroke-opacity:1; 
stroke-linecap:round; stroke-linejoin:round;">
<text x="14375000.000000" y="17070000.000000"
textLength="13662857.000000" font-size="2666666.000000" lengthAdjust="spacingAndGlyphs"
text-anchor="middle" opacity="0">VIDEO_IN</text>
<g class="stroked-text"><desc>VIDEO_IN</desc>
<path d="M7994047 14974761
L8660714 16974761
L9327380 14974761
" />
<path d="M9994047 16974761
L9994047 14974761
" />
<path d="M10946428 16974761
L10946428 14974761
L11422619 14974761
L11708333 15070000
L11898809 15260476
L11994047 15450952
L12089285 15831904
L12089285 16117619
L11994047 16498571
L11898809 16689047
L11708333 16879523
L11422619 16974761
L10946428 16974761
" />
<path d="M12946428 15927142
L13613095 15927142
" />
<path d="M13898809 16974761
L12946428 16974761
L12946428 14974761
L13898809 14974761
" />
<path d="M15136904 14974761
L15517857 14974761
L15708333 15070000
L15898809 15260476
L15994047 15641428
L15994047 16308095
L15898809 16689047
L15708333 16879523
L15517857 16974761
L15136904 16974761
L14946428 16879523
L14755952 16689047
L14660714 16308095
L14660714 15641428
L14755952 15260476
L14946428 15070000
L15136904 14974761
" />
<path d="M16375000 17165238
L17898809 17165238
" />
<path d="M18375000 16974761
L18375000 14974761
" />
<path d="M19327380 16974761
L19327380 14974761
L20470238 16974761
L20470238 14974761
" />
</g><text x="86715000.000000" y="17320000.000000"
textLength="16199524.000000" font-size="2666666.000000" lengthAdjust="spacingAndGlyphs"
text-anchor="middle" opacity="0">VIDEO_OUT</text>
<g class="stroked-text"><desc>VIDEO_OUT</desc>
<path d="M79000714 15224761
L79667380 17224761
L80334047 15224761
" />
<path d="M81000714 17224761
L81000714 15224761
" />
<path d="M81953095 17224761
L81953095 15224761
L82429285 15224761
L82715000 15320000
L82905476 15510476
L83000714 15700952
L83095952 16081904
L83095952 16367619
L83000714 16748571
L82905476 16939047
L82715000 17129523
L82429285 17224761
L81953095 17224761
" />
<path d="M83953095 16177142
L84619761 16177142
" />
<path d="M84905476 17224761
L83953095 17224761
L83953095 15224761
L84905476 15224761
" />
<path d="M86143571 15224761
L86524523 15224761
L86715000 15320000
L86905476 15510476
L87000714 15891428
L87000714 16558095
L86905476 16939047
L86715000 17129523
L86524523 17224761
L86143571 17224761
L85953095 17129523
L85762619 16939047
L85667380 16558095
L85667380 15891428
L85762619 15510476
L85953095 15320000
L86143571 15224761
" />
<path d="M87381666 17415238
L88905476 17415238
" />
<path d="M89762619 15224761
L90143571 15224761
L90334047 15320000
L90524523 15510476
L90619761 15891428
L90619761 16558095
L90524523 16939047
L90334047 17129523
L90143571 17224761
L89762619 17224761
L89572142 17129523
L89381666 16939047
L89286428 16558095
L89286428 15891428
L89381666 15510476
L89572142 15320000
L89762619 15224761
" />
<path d="M91476904 15224761
L91476904 16843809
L91572142 17034285
L91667380 17129523
L91857857 17224761
L92238809 17224761
L92429285 17129523
L92524523 17034285
L92619761 16843809
L92619761 15224761
" />
<path d="M93286428 15224761
L94429285 15224761
" />
<path d="M93857857 17224761
L93857857 15224761
" />
</g><text x="84135000.000000" y="113950000.000000"
textLength="22009048.000000" font-size="2666666.000000" lengthAdjust="spacingAndGlyphs"
text-anchor="middle" opacity="0">VIDEO_RETURN</text>
<g class="stroked-text"><desc>VIDEO_RETURN</desc>
<path d="M73515952 111854761
L74182619 113854761
L74849285 111854761
" />
<path d="M75515952 113854761
L75515952 111854761
" />
<path d="M76468333 113854761
L76468333 111854761
L76944523 111854761
L77230238 111950000
L77420714 112140476
L77515952 112330952
L77611190 112711904
L77611190 112997619
L77515952 113378571
L77420714 113569047
L77230238 113759523
L76944523 113854761
L76468333 113854761
" />
<path d="M78468333 112807142
L79135000 112807142
" />
<path d="M79420714 113854761
L78468333 113854761
L78468333 111854761
L79420714 111854761
" />
<path d="M80658809 111854761
L81039761 111854761
L81230238 111950000
L81420714 112140476
L81515952 112521428
L81515952 113188095
L81420714 113569047
L81230238 113759523
L81039761 113854761
L80658809 113854761
L80468333 113759523
L80277857 113569047
L80182619 113188095
L80182619 112521428
L80277857 112140476
L80468333 111950000
L80658809 111854761
" />
<path d="M81896904 114045238
L83420714 114045238
" />
<path d="M85039761 113854761
L84373095 112902380
" />
<path d="M83896904 113854761
L83896904 111854761
L84658809 111854761
L84849285 111950000
L84944523 112045238
L85039761 112235714
L85039761 112521428
L84944523 112711904
L84849285 112807142
L84658809 112902380
L83896904 112902380
" />
<path d="M85896904 112807142
L86563571 112807142
" />
<path d="M86849285 113854761
L85896904 113854761
L85896904 111854761
L86849285 111854761
" />
<path d="M87420714 111854761
L88563571 111854761
" />
<path d="M87992142 113854761
L87992142 111854761
" />
<path d="M89230238 111854761
L89230238 113473809
L89325476 113664285
L89420714 113759523
L89611190 113854761
L89992142 113854761
L90182619 113759523
L90277857 113664285
L90373095 113473809
L90373095 111854761
" />
<path d="M92468333 113854761
L91801666 112902380
" />
<path d="M91325476 113854761
L91325476 111854761
L92087380 111854761
L92277857 111950000
L92373095 112045238
L92468333 112235714
L92468333 112521428
L92373095 112711904
L92277857 112807142
L92087380 112902380
L91325476 112902380
" />
<path d="M93325476 113854761
L93325476 111854761
L94468333 113854761
L94468333 111854761
" />
</g><text x="50875000.000000" y="84950000.000000"
textLength="13247143.000000" font-size="2666666.000000" lengthAdjust="spacingAndGlyphs"
text-anchor="middle" opacity="0">DRY_WET</text>
<g class="stroked-text"><desc>DRY_WET</desc>
<path d="M44922619 84854761
L44922619 82854761
L45398809 82854761
L45684523 82950000
L45875000 83140476
L45970238 83330952
L46065476 83711904
L46065476 83997619
L45970238 84378571
L45875000 84569047
L45684523 84759523
L45398809 84854761
L44922619 84854761
" />
<path d="M48065476 84854761
L47398809 83902380
" />
<path d="M46922619 84854761
L46922619 82854761
L47684523 82854761
L47875000 82950000
L47970238 83045238
L48065476 83235714
L48065476 83521428
L47970238 83711904
L47875000 83807142
L47684523 83902380
L46922619 83902380
" />
<path d="M49303571 83902380
L49303571 84854761
" />
<path d="M48636904 82854761
L49303571 83902380
L49970238 82854761
" />
<path d="M50160714 85045238
L51684523 85045238
" />
<path d="M51970238 82854761
L52446428 84854761
L52827380 83426190
L53208333 84854761
L53684523 82854761
" />
<path d="M54446428 83807142
L55113095 83807142
" />
<path d="M55398809 84854761
L54446428 84854761
L54446428 82854761
L55398809 82854761
" />
<path d="M55970238 82854761
L57113095 82854761
" />
<path d="M56541666 84854761
L56541666 82854761
" />
</g></g>
<g style="fill:#000000; fill-opacity:0.0; 
stroke:#000000; stroke-width:200000.000000; stroke-opacity:1; 
stroke-linecap:round; stroke-linejoin:round;">
<text x="51225000.000000" y="60950000.000000"
textLength="10175714.000000" font-size="2000000.000000" lengthAdjust="spacingAndGlyphs"
text-anchor="middle" opacity="0">CV 0-1v</text>
<g class="stroked-text"><desc>CV 0-1v</desc>
<path d="M47546428 60735714
L47475000 60807142
L47260714 60878571
L47117857 60878571
L46903571 60807142
L46760714 60664285
L46689285 60521428
L46617857 60235714
L46617857 60021428
L46689285 59735714
L46760714 59592857
L46903571 59450000
L47117857 59378571
L47260714 59378571
L47475000 59450000
L47546428 59521428
" />
<path d="M47975000 59378571
L48475000 60878571
L48975000 59378571
" />
<path d="M50903571 59378571
L51046428 59378571
L51189285 59450000
L51260714 59521428
L51332142 59664285
L51403571 59950000
L51403571 60307142
L51332142 60592857
L51260714 60735714
L51189285 60807142
L51046428 60878571
L50903571 60878571
L50760714 60807142
L50689285 60735714
L50617857 60592857
L50546428 60307142
L50546428 59950000
L50617857 59664285
L50689285 59521428
L50760714 59450000
L50903571 59378571
" />
<path d="M52046428 60307142
L53189285 60307142
" />
<path d="M54689285 60878571
L53832142 60878571
" />
<path d="M54260714 60878571
L54260714 59378571
L54117857 59592857
L53975000 59735714
L53832142 59807142
" />
<path d="M55189285 59878571
L55546428 60878571
L55903571 59878571
" />
</g></g>
<g style="fill:#000000; fill-opacity:0.0; 
stroke:#000000; stroke-width:100000.000000; stroke-opacity:1; 
stroke-linecap:round; stroke-linejoin:round;">
<text x="50785000.000000" y="113880000.000000"
textLength="19021905.000000" font-size="1333333.000000" lengthAdjust="spacingAndGlyphs"
text-anchor="middle" opacity="0">...BLANKING CALIBRATION</text>
<g class="stroked-text"><desc>...BLANKING CALIBRATION</desc>
<path d="M41642142 113737142
L41689761 113784761
L41642142 113832380
L41594523 113784761
L41642142 113737142
L41642142 113832380
" />
<path d="M42118333 113737142
L42165952 113784761
L42118333 113832380
L42070714 113784761
L42118333 113737142
L42118333 113832380
" />
<path d="M42594523 113737142
L42642142 113784761
L42594523 113832380
L42546904 113784761
L42594523 113737142
L42594523 113832380
" />
<path d="M43404047 113308571
L43546904 113356190
L43594523 113403809
L43642142 113499047
L43642142 113641904
L43594523 113737142
L43546904 113784761
L43451666 113832380
L43070714 113832380
L43070714 112832380
L43404047 112832380
L43499285 112880000
L43546904 112927619
L43594523 113022857
L43594523 113118095
L43546904 113213333
L43499285 113260952
L43404047 113308571
L43070714 113308571
" />
<path d="M44546904 113832380
L44070714 113832380
L44070714 112832380
" />
<path d="M44832619 113546666
L45308809 113546666
" />
<path d="M44737380 113832380
L45070714 112832380
L45404047 113832380
" />
<path d="M45737380 113832380
L45737380 112832380
L46308809 113832380
L46308809 112832380
" />
<path d="M46785000 113832380
L46785000 112832380
" />
<path d="M47356428 113832380
L46927857 113260952
" />
<path d="M47356428 112832380
L46785000 113403809
" />
<path d="M47785000 113832380
L47785000 112832380
" />
<path d="M48261190 113832380
L48261190 112832380
L48832619 113832380
L48832619 112832380
" />
<path d="M49832619 112880000
L49737380 112832380
L49594523 112832380
L49451666 112880000
L49356428 112975238
L49308809 113070476
L49261190 113260952
L49261190 113403809
L49308809 113594285
L49356428 113689523
L49451666 113784761
L49594523 113832380
L49689761 113832380
L49832619 113784761
L49880238 113737142
L49880238 113403809
L49689761 113403809
" />
<path d="M51642142 113737142
L51594523 113784761
L51451666 113832380
L51356428 113832380
L51213571 113784761
L51118333 113689523
L51070714 113594285
L51023095 113403809
L51023095 113260952
L51070714 113070476
L51118333 112975238
L51213571 112880000
L51356428 112832380
L51451666 112832380
L51594523 112880000
L51642142 112927619
" />
<path d="M52023095 113546666
L52499285 113546666
" />
<path d="M51927857 113832380
L52261190 112832380
L52594523 113832380
" />
<path d="M53404047 113832380
L52927857 113832380
L52927857 112832380
" />
<path d="M53737380 113832380
L53737380 112832380
" />
<path d="M54546904 113308571
L54689761 113356190
L54737380 113403809
L54785000 113499047
L54785000 113641904
L54737380 113737142
L54689761 113784761
L54594523 113832380
L54213571 113832380
L54213571 112832380
L54546904 112832380
L54642142 112880000
L54689761 112927619
L54737380 113022857
L54737380 113118095
L54689761 113213333
L54642142 113260952
L54546904 113308571
L54213571 113308571
" />
<path d="M55785000 113832380
L55451666 113356190
" />
<path d="M55213571 113832380
L55213571 112832380
L55594523 112832380
L55689761 112880000
L55737380 112927619
L55785000 113022857
L55785000 113165714
L55737380 113260952
L55689761 113308571
L55594523 113356190
L55213571 113356190
" />
<path d="M56165952 113546666
L56642142 113546666
" />
<path d="M56070714 113832380
L56404047 112832380
L56737380 113832380
" />
<path d="M56927857 112832380
L57499285 112832380
" />
<path d="M57213571 113832380
L57213571 112832380
" />
<path d="M57832619 113832380
L57832619 112832380
" />
<path d="M58499285 112832380
L58689761 112832380
L58785000 112880000
L58880238 112975238
L58927857 113165714
L58927857 113499047
L58880238 113689523
L58785000 113784761
L58689761 113832380
L58499285 113832380
L58404047 113784761
L58308809 113689523
L58261190 113499047
L58261190 113165714
L58308809 112975238
L58404047 112880000
L58499285 112832380
" />
<path d="M59356428 113832380
L59356428 112832380
L59927857 113832380
L59927857 112832380
" />
</g></g>
<g style="fill:#000000; fill-opacity:0.0; 
stroke:#000000; stroke-width:200000.000000; stroke-opacity:1; 
stroke-linecap:round; stroke-linejoin:round;">
<text x="61615000.000000" y="111210000.000000"
textLength="2130000.000000" font-size="4000000.000000" lengthAdjust="spacingAndGlyphs"
text-anchor="middle" opacity="0">]</text>
<g class="stroked-text"><desc>]</desc>
<path d="M61043571 112067142
L61757857 112067142
L61757857 107781428
L61043571 107781428
" />
</g></g>
<g style="fill:#000000; fill-opacity:0.0; 
stroke:#000000; stroke-width:300000.000000; stroke-opacity:1; 
stroke-linecap:round; stroke-linejoin:round;">
<text x="50075000.000000" y="126500000.000000"
textLength="19831429.000000" font-size="2000000.000000" lengthAdjust="spacingAndGlyphs"
text-anchor="middle" opacity="0">underscores.shop</text>
<g class="stroked-text"><desc>underscores.shop</desc>
<path d="M41289285 125428571
L41289285 126428571
" />
<path d="M40646428 125428571
L40646428 126214285
L40717857 126357142
L40860714 126428571
L41075000 126428571
L41217857 126357142
L41289285 126285714
" />
<path d="M42003571 125428571
L42003571 126428571
" />
<path d="M42003571 125571428
L42075000 125500000
L42217857 125428571
L42432142 125428571
L42575000 125500000
L42646428 125642857
L42646428 126428571
" />
<path d="M44003571 126428571
L44003571 124928571
" />
<path d="M44003571 126357142
L43860714 126428571
L43575000 126428571
L43432142 126357142
L43360714 126285714
L43289285 126142857
L43289285 125714285
L43360714 125571428
L43432142 125500000
L43575000 125428571
L43860714 125428571
L44003571 125500000
" />
<path d="M45289285 126357142
L45146428 126428571
L44860714 126428571
L44717857 126357142
L44646428 126214285
L44646428 125642857
L44717857 125500000
L44860714 125428571
L45146428 125428571
L45289285 125500000
L45360714 125642857
L45360714 125785714
L44646428 125928571
" />
<path d="M46003571 126428571
L46003571 125428571
" />
<path d="M46003571 125714285
L46075000 125571428
L46146428 125500000
L46289285 125428571
L46432142 125428571
" />
<path d="M46860714 126357142
L47003571 126428571
L47289285 126428571
L47432142 126357142
L47503571 126214285
L47503571 126142857
L47432142 126000000
L47289285 125928571
L47075000 125928571
L46932142 125857142
L46860714 125714285
L46860714 125642857
L46932142 125500000
L47075000 125428571
L47289285 125428571
L47432142 125500000
" />
<path d="M48789285 126357142
L48646428 126428571
L48360714 126428571
L48217857 126357142
L48146428 126285714
L48075000 126142857
L48075000 125714285
L48146428 125571428
L48217857 125500000
L48360714 125428571
L48646428 125428571
L48789285 125500000
" />
<path d="M49646428 126428571
L49503571 126357142
L49432142 126285714
L49360714 126142857
L49360714 125714285
L49432142 125571428
L49503571 125500000
L49646428 125428571
L49860714 125428571
L50003571 125500000
L50075000 125571428
L50146428 125714285
L50146428 126142857
L50075000 126285714
L50003571 126357142
L49860714 126428571
L49646428 126428571
" />
<path d="M50789285 126428571
L50789285 125428571
" />
<path d="M50789285 125714285
L50860714 125571428
L50932142 125500000
L51075000 125428571
L51217857 125428571
" />
<path d="M52289285 126357142
L52146428 126428571
L51860714 126428571
L51717857 126357142
L51646428 126214285
L51646428 125642857
L51717857 125500000
L51860714 125428571
L52146428 125428571
L52289285 125500000
L52360714 125642857
L52360714 125785714
L51646428 125928571
" />
<path d="M52932142 126357142
L53075000 126428571
L53360714 126428571
L53503571 126357142
L53575000 126214285
L53575000 126142857
L53503571 126000000
L53360714 125928571
L53146428 125928571
L53003571 125857142
L52932142 125714285
L52932142 125642857
L53003571 125500000
L53146428 125428571
L53360714 125428571
L53503571 125500000
" />
<path d="M54217857 126285714
L54289285 126357142
L54217857 126428571
L54146428 126357142
L54217857 126285714
L54217857 126428571
" />
<path d="M54860714 126357142
L55003571 126428571
L55289285 126428571
L55432142 126357142
L55503571 126214285
L55503571 126142857
L55432142 126000000
L55289285 125928571
L55075000 125928571
L54932142 125857142
L54860714 125714285
L54860714 125642857
L54932142 125500000
L55075000 125428571
L55289285 125428571
L55432142 125500000
" />
<path d="M56146428 126428571
L56146428 124928571
" />
<path d="M56789285 126428571
L56789285 125642857
L56717857 125500000
L56575000 125428571
L56360714 125428571
L56217857 125500000
L56146428 125571428
" />
<path d="M57717857 126428571
L57575000 126357142
L57503571 126285714
L57432142 126142857
L57432142 125714285
L57503571 125571428
L57575000 125500000
L57717857 125428571
L57932142 125428571
L58075000 125500000
L58146428 125571428
L58217857 125714285
L58217857 126142857
L58146428 126285714
L58075000 126357142
L57932142 126428571
L57717857 126428571
" />
<path d="M58860714 125428571
L58860714 126928571
" />
<path d="M58860714 125500000
L59003571 125428571
L59289285 125428571
L59432142 125500000
L59503571 125571428
L59575000 125714285
L59575000 126142857
L59503571 126285714
L59432142 126357142
L59289285 126428571
L59003571 126428571
L58860714 126357142
" />
</g></g>
<g style="fill:#000000; fill-opacity:0.0; 
stroke:#000000; stroke-width:200000.000000; stroke-opacity:1; 
stroke-linecap:round; stroke-linejoin:round;">
<g transform="rotate(90.000000 36695000.000000 93320000.000000)">
<text x="36695000.000000" y="94820000.000000"
textLength="2390000.000000" font-size="4000000.000000" lengthAdjust="spacingAndGlyphs"
text-anchor="middle" opacity="0">[</text>
</g>
<g class="stroked-text"><desc>[</desc>
<path d="M34337857 93891428
L34337857 93177142
L38623571 93177142
L38623571 93891428
" />
</g></g>
<g style="fill:#000000; fill-opacity:0.0; 
stroke:#000000; stroke-width:400000.000000; stroke-opacity:1; 
stroke-linecap:round; stroke-linejoin:round;">
<text x="51875000.000000" y="7675000.000000"
textLength="30545714.000000" font-size="5333333.000000" lengthAdjust="spacingAndGlyphs"
text-anchor="middle" opacity="0">SYNC_OPE</text>
<g class="stroked-text"><desc>SYNC_OPE</desc>
<path d="M37494047 7294047
L38065476 7484523
L39017857 7484523
L39398809 7294047
L39589285 7103571
L39779761 6722619
L39779761 6341666
L39589285 5960714
L39398809 5770238
L39017857 5579761
L38255952 5389285
L37875000 5198809
L37684523 5008333
L37494047 4627380
L37494047 4246428
L37684523 3865476
L37875000 3675000
L38255952 3484523
L39208333 3484523
L39779761 3675000
" />
<path d="M42255952 5579761
L42255952 7484523
" />
<path d="M40922619 3484523
L42255952 5579761
L43589285 3484523
" />
<path d="M44922619 7484523
L44922619 3484523
L47208333 7484523
L47208333 3484523
" />
<path d="M51398809 7103571
L51208333 7294047
L50636904 7484523
L50255952 7484523
L49684523 7294047
L49303571 6913095
L49113095 6532142
L48922619 5770238
L48922619 5198809
L49113095 4436904
L49303571 4055952
L49684523 3675000
L50255952 3484523
L50636904 3484523
L51208333 3675000
L51398809 3865476
" />
<path d="M52160714 7865476
L55208333 7865476
" />
<path d="M56922619 3484523
L57684523 3484523
L58065476 3675000
L58446428 4055952
L58636904 4817857
L58636904 6151190
L58446428 6913095
L58065476 7294047
L57684523 7484523
L56922619 7484523
L56541666 7294047
L56160714 6913095
L55970238 6151190
L55970238 4817857
L56160714 4055952
L56541666 3675000
L56922619 3484523
" />
<path d="M60351190 7484523
L60351190 3484523
L61875000 3484523
L62255952 3675000
L62446428 3865476
L62636904 4246428
L62636904 4817857
L62446428 5198809
L62255952 5389285
L61875000 5579761
L60351190 5579761
" />
<path d="M64351190 5389285
L65684523 5389285
" />
<path d="M66255952 7484523
L64351190 7484523
L64351190 3484523
L66255952 3484523
" />
</g></g>
<g style="fill:#000000; fill-opacity:0.0; 
stroke:#000000; stroke-width:300000.000000; stroke-opacity:1; 
stroke-linecap:round; stroke-linejoin:round;">
<text x="16035000.000000" y="114760000.000000"
textLength="18424762.000000" font-size="2666666.000000" lengthAdjust="spacingAndGlyphs"
text-anchor="middle" opacity="0">VIDEO_SEND</text>
<g class="stroked-text"><desc>VIDEO_SEND</desc>
<path d="M7273095 112664761
L7939761 114664761
L8606428 112664761
" />
<path d="M9273095 114664761
L9273095 112664761
" />
<path d="M10225476 114664761
L10225476 112664761
L10701666 112664761
L10987380 112760000
L11177857 112950476
L11273095 113140952
L11368333 113521904
L11368333 113807619
L11273095 114188571
L11177857 114379047
L10987380 114569523
L10701666 114664761
L10225476 114664761
" />
<path d="M12225476 113617142
L12892142 113617142
" />
<path d="M13177857 114664761
L12225476 114664761
L12225476 112664761
L13177857 112664761
" />
<path d="M14415952 112664761
L14796904 112664761
L14987380 112760000
L15177857 112950476
L15273095 113331428
L15273095 113998095
L15177857 114379047
L14987380 114569523
L14796904 114664761
L14415952 114664761
L14225476 114569523
L14035000 114379047
L13939761 113998095
L13939761 113331428
L14035000 112950476
L14225476 112760000
L14415952 112664761
" />
<path d="M15654047 114855238
L17177857 114855238
" />
<path d="M17558809 114569523
L17844523 114664761
L18320714 114664761
L18511190 114569523
L18606428 114474285
L18701666 114283809
L18701666 114093333
L18606428 113902857
L18511190 113807619
L18320714 113712380
L17939761 113617142
L17749285 113521904
L17654047 113426666
L17558809 113236190
L17558809 113045714
L17654047 112855238
L17749285 112760000
L17939761 112664761
L18415952 112664761
L18701666 112760000
" />
<path d="M19558809 113617142
L20225476 113617142
" />
<path d="M20511190 114664761
L19558809 114664761
L19558809 112664761
L20511190 112664761
" />
<path d="M21368333 114664761
L21368333 112664761
L22511190 114664761
L22511190 112664761
" />
<path d="M23463571 114664761
L23463571 112664761
L23939761 112664761
L24225476 112760000
L24415952 112950476
L24511190 113140952
L24606428 113521904
L24606428 113807619
L24511190 114188571
L24415952 114379047
L24225476 114569523
L23939761 114664761
L23463571 114664761
" />
</g></g>
<g style="fill:#000000; fill-opacity:0.0; 
stroke:#000000; stroke-width:200000.000000; stroke-opacity:1; 
stroke-linecap:round; stroke-linejoin:round;">
<g transform="rotate(90.000000 36795000.000000 112660000.000000)">
<text x="36795000.000000" y="114160000.000000"
textLength="2390000.000000" font-size="4000000.000000" lengthAdjust="spacingAndGlyphs"
text-anchor="middle" opacity="0">]</text>
</g>
<g class="stroked-text"><desc>]</desc>
<path d="M34437857 112088571
L34437857 112802857
L38723571 112802857
L38723571 112088571
" />
</g></g>
<g style="fill:#000000; fill-opacity:0.0; 
stroke:#000000; stroke-width:300000.000000; stroke-opacity:1; 
stroke-linecap:round; stroke-linejoin:round;">
<text x="51955000.000000" y="12762500.000000"
textLength="15760000.000000" font-size="2000000.000000" lengthAdjust="spacingAndGlyphs"
text-anchor="middle" opacity="0">effect / send</text>
<g class="stroked-text"><desc>effect / send</desc>
<path d="M45133571 12619642
L44990714 12691071
L44705000 12691071
L44562142 12619642
L44490714 12476785
L44490714 11905357
L44562142 11762500
L44705000 11691071
L44990714 11691071
L45133571 11762500
L45205000 11905357
L45205000 12048214
L44490714 12191071
" />
<path d="M45633571 11691071
L46205000 11691071
" />
<path d="M45847857 12691071
L45847857 11405357
L45919285 11262500
L46062142 11191071
L46205000 11191071
" />
<path d="M46490714 11691071
L47062142 11691071
" />
<path d="M46705000 12691071
L46705000 11405357
L46776428 11262500
L46919285 11191071
L47062142 11191071
" />
<path d="M48133571 12619642
L47990714 12691071
L47705000 12691071
L47562142 12619642
L47490714 12476785
L47490714 11905357
L47562142 11762500
L47705000 11691071
L47990714 11691071
L48133571 11762500
L48205000 11905357
L48205000 12048214
L47490714 12191071
" />
<path d="M49490714 12619642
L49347857 12691071
L49062142 12691071
L48919285 12619642
L48847857 12548214
L48776428 12405357
L48776428 11976785
L48847857 11833928
L48919285 11762500
L49062142 11691071
L49347857 11691071
L49490714 11762500
" />
<path d="M49919285 11691071
L50490714 11691071
" />
<path d="M50133571 11191071
L50133571 12476785
L50205000 12619642
L50347857 12691071
L50490714 12691071
" />
<path d="M53205000 11119642
L51919285 13048214
" />
<path d="M54776428 12619642
L54919285 12691071
L55205000 12691071
L55347857 12619642
L55419285 12476785
L55419285 12405357
L55347857 12262500
L55205000 12191071
L54990714 12191071
L54847857 12119642
L54776428 11976785
L54776428 11905357
L54847857 11762500
L54990714 11691071
L55205000 11691071
L55347857 11762500
" />
<path d="M56633571 12619642
L56490714 12691071
L56205000 12691071
L56062142 12619642
L55990714 12476785
L55990714 11905357
L56062142 11762500
L56205000 11691071
L56490714 11691071
L56633571 11762500
L56705000 11905357
L56705000 12048214
L55990714 12191071
" />
<path d="M57347857 11691071
L57347857 12691071
" />
<path d="M57347857 11833928
L57419285 11762500
L57562142 11691071
L57776428 11691071
L57919285 11762500
L57990714 11905357
L57990714 12691071
" />
<path d="M59347857 12691071
L59347857 11191071
" />
<path d="M59347857 12619642
L59205000 12691071
L58919285 12691071
L58776428 12619642
L58705000 12548214
L58633571 12405357
L58633571 11976785
L58705000 11833928
L58776428 11762500
L58919285 11691071
L59205000 11691071
L59347857 11762500
" />
</g><text x="51955000.000000" y="15177500.000000"
textLength="17390000.000000" font-size="2000000.000000" lengthAdjust="spacingAndGlyphs"
text-anchor="middle" opacity="0">&amp; sync restore</text>
<g class="stroked-text"><desc>&amp; sync restore</desc>
<path d="M45026428 15106071
L44955000 15106071
L44812142 15034642
L44597857 14820357
L44240714 14391785
L44097857 14177500
L44026428 13963214
L44026428 13820357
L44097857 13677500
L44240714 13606071
L44312142 13606071
L44455000 13677500
L44526428 13820357
L44526428 13891785
L44455000 14034642
L44383571 14106071
L43955000 14391785
L43883571 14463214
L43812142 14606071
L43812142 14820357
L43883571 14963214
L43955000 15034642
L44097857 15106071
L44312142 15106071
L44455000 15034642
L44526428 14963214
L44740714 14677500
L44812142 14463214
L44812142 14320357
" />
<path d="M46740714 15034642
L46883571 15106071
L47169285 15106071
L47312142 15034642
L47383571 14891785
L47383571 14820357
L47312142 14677500
L47169285 14606071
L46955000 14606071
L46812142 14534642
L46740714 14391785
L46740714 14320357
L46812142 14177500
L46955000 14106071
L47169285 14106071
L47312142 14177500
" />
<path d="M47883571 14106071
L48240714 15106071
" />
<path d="M48597857 14106071
L48240714 15106071
L48097857 15463214
L48026428 15534642
L47883571 15606071
" />
<path d="M49169285 14106071
L49169285 15106071
" />
<path d="M49169285 14248928
L49240714 14177500
L49383571 14106071
L49597857 14106071
L49740714 14177500
L49812142 14320357
L49812142 15106071
" />
<path d="M51169285 15034642
L51026428 15106071
L50740714 15106071
L50597857 15034642
L50526428 14963214
L50455000 14820357
L50455000 14391785
L50526428 14248928
L50597857 14177500
L50740714 14106071
L51026428 14106071
L51169285 14177500
" />
<path d="M52955000 15106071
L52955000 14106071
" />
<path d="M52955000 14391785
L53026428 14248928
L53097857 14177500
L53240714 14106071
L53383571 14106071
" />
<path d="M54455000 15034642
L54312142 15106071
L54026428 15106071
L53883571 15034642
L53812142 14891785
L53812142 14320357
L53883571 14177500
L54026428 14106071
L54312142 14106071
L54455000 14177500
L54526428 14320357
L54526428 14463214
L53812142 14606071
" />
<path d="M55097857 15034642
L55240714 15106071
L55526428 15106071
L55669285 15034642
L55740714 14891785
L55740714 14820357
L55669285 14677500
L55526428 14606071
L55312142 14606071
L55169285 14534642
L55097857 14391785
L55097857 14320357
L55169285 14177500
L55312142 14106071
L55526428 14106071
L55669285 14177500
" />
<path d="M56169285 14106071
L56740714 14106071
" />
<path d="M56383571 13606071
L56383571 14891785
L56455000 15034642
L56597857 15106071
L56740714 15106071
" />
<path d="M57455000 15106071
L57312142 15034642
L57240714 14963214
L57169285 14820357
L57169285 14391785
L57240714 14248928
L57312142 14177500
L57455000 14106071
L57669285 14106071
L57812142 14177500
L57883571 14248928
L57955000 14391785
L57955000 14820357
L57883571 14963214
L57812142 15034642
L57669285 15106071
L57455000 15106071
" />
<path d="M58597857 15106071
L58597857 14106071
" />
<path d="M58597857 14391785
L58669285 14248928
L58740714 14177500
L58883571 14106071
L59026428 14106071
" />
<path d="M60097857 15034642
L59955000 15106071
L59669285 15106071
L59526428 15034642
L59455000 14891785
L59455000 14320357
L59526428 14177500
L59669285 14106071
L59955000 14106071
L60097857 14177500
L60169285 14320357
L60169285 14463214
L59455000 14606071
" />
</g></g>
<g style="fill:#000000; fill-opacity:0.0; 
stroke:#000000; stroke-width:200000.000000; stroke-opacity:1; 
stroke-linecap:round; stroke-linejoin:round;">
<text x="56485000.000000" y="97380000.000000"
textLength="2390000.000000" font-size="4000000.000000" lengthAdjust="spacingAndGlyphs"
text-anchor="middle" opacity="0">[</text>
<g class="stroked-text"><desc>[</desc>
<path d="M57056428 98237142
L56342142 98237142
L56342142 93951428
L57056428 93951428
" />
</g></g>
<g style="fill:#000000; fill-opacity:0.0; 
stroke:#000000; stroke-width:500000.000000; stroke-opacity:1; 
stroke-linecap:round; stroke-linejoin:round;">
<text x="50575000.000000" y="123250000.000000"
textLength="20260000.000000" font-size="6666666.000000" lengthAdjust="spacingAndGlyphs"
text-anchor="middle" opacity="0">_^ 04</text>
<g class="stroked-text"><desc>_^ 04</desc>
<path d="M40575000 123488095
L44384523 123488095
" />
<path d="M44860714 118488095
L45813095 117773809
L46765476 118488095
" />
<path d="M53194047 118011904
L53670238 118011904
L54146428 118250000
L54384523 118488095
L54622619 118964285
L54860714 119916666
L54860714 121107142
L54622619 122059523
L54384523 122535714
L54146428 122773809
L53670238 123011904
L53194047 123011904
L52717857 122773809
L52479761 122535714
L52241666 122059523
L52003571 121107142
L52003571 119916666
L52241666 118964285
L52479761 118488095
L52717857 118250000
L53194047 118011904
" />
<path d="M59146428 119678571
L59146428 123011904
" />
<path d="M57955952 117773809
L56765476 121345238
L59860714 121345238
" />
</g><g >
</g>
<g >
</g>
<g >
</g>
</g> 
</svg>
