<?xml version="1.0" standalone="no"?>
 <!DOCTYPE svg PUBLIC "-//W3C//DTD SVG 1.1//EN" 
 "http://www.w3.org/Graphics/SVG/1.1/DTD/svg11.dtd"> 
<svg
  xmlns:svg="http://www.w3.org/2000/svg"
  xmlns="http://www.w3.org/2000/svg"
  xmlns:xlink="http://www.w3.org/1999/xlink"
  version="1.1"
  width="10.167620cm" height="12.860020cm" viewBox="0 0 101676200 128600200">
<title>SVG Picture created as eurorack_panel-Edge_Cuts.svg date 2023/07/12 16:23:11 </title>
  <desc>Picture generated by PCBNEW </desc>
<g style="fill:#000000; fill-opacity:1.000000;stroke:#000000; stroke-opacity:1.000000;
stroke-linecap:round; stroke-linejoin:round;"
 transform="translate(0 0) scale(1 1)">
</g>
<g style="fill:#000000; fill-opacity:0.0; 
stroke:#000000; stroke-width:0.000000; stroke-opacity:1; 
stroke-linecap:round; stroke-linejoin:round;">
</g>
<g style="fill:#000000; fill-opacity:0.0; 
stroke:#000000; stroke-width:50000.000000; stroke-opacity:1; 
stroke-linecap:round; stroke-linejoin:round;">
<circle cx="36525000.000000" cy="110000000.000000" r="2000000.000000" /> 
<path d="M8175000 1900000
L5875000 1900000
" />
<circle cx="59025000.000000" cy="109950000.000000" r="2000000.000000" /> 
<circle cx="36525000.000000" cy="96000000.000000" r="2000000.000000" /> 
<circle cx="13975000.000000" cy="24400000.000000" r="6500000.000000" /> 
<path d="M95825000 126700000
L93525000 126700000
" />
<path d="M95825000.000000 126700000.000000 A1600000.000000 1600000.000000 0.0 0 0 95825000.000000 123500000.000000" />
<path d="M101675000 128600000
L25000 128600000
" />
<path d="M95825000 5150000
L93525000 5150000
" />
<path d="M93525000.000000 1950000.000000 A1600000.000000 1600000.000000 0.0 0 0 93525000.000000 5150000.000000" />
<circle cx="59025000.000000" cy="96000000.000000" r="2000000.000000" /> 
<circle cx="88325000.000000" cy="24900000.000000" r="6500000.000000" /> 
<path d="M8175000 126650000
L5875000 126650000
" />
<path d="M25000 25000
L101675000 32234
" />
<circle cx="97325000.000000" cy="110850000.000000" r="1900000.000000" /> 
<path d="M93525000.000000 123500000.000000 A1600000.000000 1600000.000000 0.0 0 0 93525000.000000 126700000.000000" />
<path d="M5875000.000000 1900000.000000 A1600000.000000 1600000.000000 0.0 0 0 5875000.000000 5100000.000000" />
<path d="M8175000.000000 5100000.000000 A1600000.000000 1600000.000000 0.0 0 0 8175000.000000 1900000.000000" />
<path d="M101675000 128600000
L101675000 32234
" />
<circle cx="97325000.000000" cy="17850000.000000" r="1900000.000000" /> 
<path d="M95825000 1950000
L93525000 1950000
" />
<circle cx="51075000.000000" cy="53850000.000000" r="1700000.000000" /> 
<circle cx="4375000.000000" cy="17850000.000000" r="1900000.000000" /> 
<circle cx="10325000.000000" cy="88250000.000000" r="3500000.000000" /> 
<circle cx="12875000.000000" cy="104950000.000000" r="6500000.000000" /> 
<path d="M8175000 123450000
L5875000 123450000
" />
<path d="M5875000.000000 123450000.000000 A1600000.000000 1600000.000000 0.0 0 0 5875000.000000 126650000.000000" />
<circle cx="91325000.000000" cy="88750000.000000" r="3500000.000000" /> 
<circle cx="50825000.000000" cy="64750000.000000" r="3500000.000000" /> 
<path d="M25000 128600000
L25000 25000
" />
<circle cx="50825000.000000" cy="77350000.000000" r="4000000.000000" /> 
<path d="M8175000 5100000
L5875000 5100000
" />
<circle cx="89375000.000000" cy="104350000.000000" r="6500000.000000" /> 
<circle cx="4325000.000000" cy="110850000.000000" r="1900000.000000" /> 
</g>
<g style="fill:#000000; fill-opacity:1.0; 
stroke:#000000; stroke-width:1.000000; stroke-opacity:1; 
stroke-linecap:round; stroke-linejoin:round;">
<circle cx="5075000.000000" cy="29850000.000000" r="25001.000000" /> 
</g>
<g style="fill:#000000; fill-opacity:1.0; 
stroke:#000000; stroke-width:50000.000000; stroke-opacity:1; 
stroke-linecap:round; stroke-linejoin:round;">
</g>
<g style="fill:#000000; fill-opacity:0.0; 
stroke:#000000; stroke-width:50000.000000; stroke-opacity:1; 
stroke-linecap:round; stroke-linejoin:round;">
<path d="M95825000 123500000
L93525000 123500000
" />
<path d="M95825000.000000 5150000.000000 A1600000.000000 1600000.000000 0.0 0 0 95825000.000000 1950000.000000" />
<path d="M8175000.000000 126650000.000000 A1600000.000000 1600000.000000 0.0 0 0 8175000.000000 123450000.000000" />
<g >
</g>
<g >
</g>
<g >
</g>
</g> 
</svg>
