  0
SECTION
  2
HEADER
  9
$ACADVER
  1
AC1014
  9
$HANDSEED
  5
FFFF
  9
$INSUNITS
 70
     5
  9
$MEASUREMENT
 70
     1
  0
ENDSEC
  0
SECTION
  2
TABLES
  0
TABLE
  2
VPORT
  5
8
330
0
100
AcDbSymbolTable
 70
     4
  0
VPORT
  5
2E
330
8
100
AcDbSymbolTableRecord
100
AcDbViewportTableRecord
  2
*ACTIVE
 70
     0
 10
0.0
 20
0.0
 11
1.0
 21
1.0
 12
210.0
 22
148.5
 13
0.0
 23
0.0
 14
10.0
 24
10.0
 15
10.0
 25
10.0
 16
0.0
 26
0.0
 36
1.0
 17
0.0
 27
0.0
 37
0.0
 40
341.0
 41
1.24
 42
50.0
 43
0.0
 44
0.0
 50
0.0
 51
0.0
 71
     0
 72
   100
 73
     1
 74
     3
 75
     0
 76
     0
 77
     0
 78
     0
  0
ENDTAB
  0
TABLE
  2
LTYPE
  5
5
330
0
100
AcDbSymbolTable
 70
     1
  0
LTYPE
  5
14
330
5
100
AcDbSymbolTableRecord
100
AcDbLinetypeTableRecord
  2
BYBLOCK
 70
     0
  3

 72
    65
 73
     0
 40
0.0
  0
LTYPE
  5
15
330
5
100
AcDbSymbolTableRecord
100
AcDbLinetypeTableRecord
  2
BYLAYER
 70
     0
  3

 72
    65
 73
     0
 40
0.0
  0
LTYPE
  5
16
330
5
100
AcDbSymbolTableRecord
100
AcDbLinetypeTableRecord
  2
CONTINUOUS
 70
     0
  3
Solid line
 72
    65
 73
     0
 40
0.0
  0
ENDTAB
  0
TABLE
  2
LAYER
  5
2
100
AcDbSymbolTable
 70
1
  0
LAYER
  5
50
100
AcDbSymbolTableRecord
100
AcDbLayerTableRecord
  2
0
 70
0
  6
CONTINUOUS
  0
ENDTAB
  0
TABLE
  2
STYLE
  5
3
330
0
100
AcDbSymbolTable
 70
     1
  0
STYLE
  5
11
330
3
100
AcDbSymbolTableRecord
100
AcDbTextStyleTableRecord
  2
STANDARD
 70
     0
 40
0.0
 41
1.0
 50
0.0
 71
     0
 42
2.5
  3
txt
  4

  0
ENDTAB
  0
TABLE
  2
VIEW
  5
6
330
0
100
AcDbSymbolTable
 70
     0
  0
ENDTAB
  0
TABLE
  2
UCS
  5
7
330
0
100
AcDbSymbolTable
 70
     0
  0
ENDTAB
  0
TABLE
  2
APPID
  5
9
330
0
100
AcDbSymbolTable
 70
     2
  0
APPID
  5
12
330
9
100
AcDbSymbolTableRecord
100
AcDbRegAppTableRecord
  2
ACAD
 70
     0
  0
ENDTAB
  0
TABLE
  2
DIMSTYLE
  5
A
330
0
100
AcDbSymbolTable
 70
     1
  0
DIMSTYLE
105
27
330
A
100
AcDbSymbolTableRecord
100
AcDbDimStyleTableRecord
  2
ISO-25
 70
     0
  3

  4

  5

  6

  7

 40
1.0
 41
2.5
 42
0.625
 43
3.75
 44
1.25
 45
0.0
 46
0.0
 47
0.0
 48
0.0
140
2.5
141
2.5
142
0.0
143
0.03937007874016
144
1.0
145
0.0
146
1.0
147
0.625
 71
     0
 72
     0
 73
     0
 74
     0
 75
     0
 76
     0
 77
     1
 78
     8
170
     0
171
     3
172
     1
173
     0
174
     0
175
     0
176
     0
177
     0
178
     0
270
     2
271
     2
272
     2
273
     2
274
     3
340
11
275
     0
280
     0
281
     0
282
     0
283
     0
284
     8
285
     0
286
     0
287
     3
288
     0
  0
ENDTAB
  0
TABLE
  2
BLOCK_RECORD
  5
1
330
0
100
AcDbSymbolTable
 70
     1
  0
BLOCK_RECORD
  5
1F
330
1
100
AcDbSymbolTableRecord
100
AcDbBlockTableRecord
  2
*MODEL_SPACE
  0
BLOCK_RECORD
  5
1B
330
1
100
AcDbSymbolTableRecord
100
AcDbBlockTableRecord
  2
*PAPER_SPACE
  0
ENDTAB
  0
ENDSEC
  0
SECTION
  2
BLOCKS
  0
BLOCK
  5
20
330
1F
100
AcDbEntity
  8
0
100
AcDbBlockBegin
  2
*MODEL_SPACE
 70
     0
 10
0.0
 20
0.0
 30
0.0
  3
*MODEL_SPACE
  1

  0
ENDBLK
  5
21
330
1F
100
AcDbEntity
  8
0
100
AcDbBlockEnd
  0
BLOCK
  5
1C
330
1B
100
AcDbEntity
 67
     1
  8
0
100
AcDbBlockBegin
  2
*PAPER_SPACE
  1

  0
ENDBLK
  5
1D
330
1B
100
AcDbEntity
 67
     1
  8
0
100
AcDbBlockEnd
  0
ENDSEC
  0
SECTION
  2
ENTITIES
  0
SPLINE
  5
100
100
AcDbEntity
  8
0
 62
7
100
AcDbSpline
 70
8
 71
3
 72
8
 73
4
 74
0
 40
0
 40
0
 40
0
 40
0
 40
1
 40
1
 40
1
 40
1
 10
3.652500
 20
2.060020
 30
0.0
 10
3.571608
 20
2.060020
 30
0.0
 10
3.498680
 20
2.011292
 30
0.0
 10
3.467724
 20
1.936557
 30
0.0
  0
SPLINE
  5
101
100
AcDbEntity
  8
0
 62
7
100
AcDbSpline
 70
8
 71
3
 72
8
 73
4
 74
0
 40
0
 40
0
 40
0
 40
0
 40
1
 40
1
 40
1
 40
1
 10
3.467724
 20
1.936557
 30
0.0
 10
3.436768
 20
1.861822
 30
0.0
 10
3.453879
 20
1.775798
 30
0.0
 10
3.511079
 20
1.718599
 30
0.0
  0
SPLINE
  5
102
100
AcDbEntity
  8
0
 62
7
100
AcDbSpline
 70
8
 71
3
 72
8
 73
4
 74
0
 40
0
 40
0
 40
0
 40
0
 40
1
 40
1
 40
1
 40
1
 10
3.511079
 20
1.718599
 30
0.0
 10
3.568278
 20
1.661399
 30
0.0
 10
3.654302
 20
1.644288
 30
0.0
 10
3.729037
 20
1.675244
 30
0.0
  0
SPLINE
  5
103
100
AcDbEntity
  8
0
 62
7
100
AcDbSpline
 70
8
 71
3
 72
8
 73
4
 74
0
 40
0
 40
0
 40
0
 40
0
 40
1
 40
1
 40
1
 40
1
 10
3.729037
 20
1.675244
 30
0.0
 10
3.803772
 20
1.706200
 30
0.0
 10
3.852500
 20
1.779128
 30
0.0
 10
3.852500
 20
1.860020
 30
0.0
  0
SPLINE
  5
104
100
AcDbEntity
  8
0
 62
7
100
AcDbSpline
 70
8
 71
3
 72
8
 73
4
 74
0
 40
0
 40
0
 40
0
 40
0
 40
1
 40
1
 40
1
 40
1
 10
3.852500
 20
1.860020
 30
0.0
 10
3.852500
 20
1.913063
 30
0.0
 10
3.831429
 20
1.963934
 30
0.0
 10
3.793921
 20
2.001441
 30
0.0
  0
SPLINE
  5
105
100
AcDbEntity
  8
0
 62
7
100
AcDbSpline
 70
8
 71
3
 72
8
 73
4
 74
0
 40
0
 40
0
 40
0
 40
0
 40
1
 40
1
 40
1
 40
1
 10
3.793921
 20
2.001441
 30
0.0
 10
3.756414
 20
2.038949
 30
0.0
 10
3.705543
 20
2.060020
 30
0.0
 10
3.652500
 20
2.060020
 30
0.0
  0
LWPOLYLINE
  5
106
100
AcDbEntity
  8
0
 62
7
100
AcDbPolyline
 90
1
 70
1
 10
3.652500
 20
2.060020
 30
0.0
  0
SPLINE
  5
107
100
AcDbEntity
  8
0
 62
7
100
AcDbSpline
 70
8
 71
3
 72
8
 73
4
 74
0
 40
0
 40
0
 40
0
 40
0
 40
1
 40
1
 40
1
 40
1
 10
5.902500
 20
2.065020
 30
0.0
 10
5.821608
 20
2.065020
 30
0.0
 10
5.748680
 20
2.016292
 30
0.0
 10
5.717724
 20
1.941557
 30
0.0
  0
SPLINE
  5
108
100
AcDbEntity
  8
0
 62
7
100
AcDbSpline
 70
8
 71
3
 72
8
 73
4
 74
0
 40
0
 40
0
 40
0
 40
0
 40
1
 40
1
 40
1
 40
1
 10
5.717724
 20
1.941557
 30
0.0
 10
5.686768
 20
1.866822
 30
0.0
 10
5.703879
 20
1.780798
 30
0.0
 10
5.761079
 20
1.723599
 30
0.0
  0
SPLINE
  5
109
100
AcDbEntity
  8
0
 62
7
100
AcDbSpline
 70
8
 71
3
 72
8
 73
4
 74
0
 40
0
 40
0
 40
0
 40
0
 40
1
 40
1
 40
1
 40
1
 10
5.761079
 20
1.723599
 30
0.0
 10
5.818278
 20
1.666399
 30
0.0
 10
5.904302
 20
1.649288
 30
0.0
 10
5.979037
 20
1.680244
 30
0.0
  0
SPLINE
  5
10a
100
AcDbEntity
  8
0
 62
7
100
AcDbSpline
 70
8
 71
3
 72
8
 73
4
 74
0
 40
0
 40
0
 40
0
 40
0
 40
1
 40
1
 40
1
 40
1
 10
5.979037
 20
1.680244
 30
0.0
 10
6.053772
 20
1.711200
 30
0.0
 10
6.102500
 20
1.784128
 30
0.0
 10
6.102500
 20
1.865020
 30
0.0
  0
SPLINE
  5
10b
100
AcDbEntity
  8
0
 62
7
100
AcDbSpline
 70
8
 71
3
 72
8
 73
4
 74
0
 40
0
 40
0
 40
0
 40
0
 40
1
 40
1
 40
1
 40
1
 10
6.102500
 20
1.865020
 30
0.0
 10
6.102500
 20
1.918063
 30
0.0
 10
6.081429
 20
1.968934
 30
0.0
 10
6.043921
 20
2.006441
 30
0.0
  0
SPLINE
  5
10c
100
AcDbEntity
  8
0
 62
7
100
AcDbSpline
 70
8
 71
3
 72
8
 73
4
 74
0
 40
0
 40
0
 40
0
 40
0
 40
1
 40
1
 40
1
 40
1
 10
6.043921
 20
2.006441
 30
0.0
 10
6.006414
 20
2.043949
 30
0.0
 10
5.955543
 20
2.065020
 30
0.0
 10
5.902500
 20
2.065020
 30
0.0
  0
LWPOLYLINE
  5
10d
100
AcDbEntity
  8
0
 62
7
100
AcDbPolyline
 90
2
 70
0
 10
0.817500
 20
12.670020
 30
0.0
 10
0.587500
 20
12.670020
 30
0.0
  0
SPLINE
  5
10e
100
AcDbEntity
  8
0
 62
7
100
AcDbSpline
 70
8
 71
3
 72
8
 73
4
 74
0
 40
0
 40
0
 40
0
 40
0
 40
1
 40
1
 40
1
 40
1
 10
3.652500
 20
3.460020
 30
0.0
 10
3.571608
 20
3.460020
 30
0.0
 10
3.498680
 20
3.411292
 30
0.0
 10
3.467724
 20
3.336557
 30
0.0
  0
SPLINE
  5
10f
100
AcDbEntity
  8
0
 62
7
100
AcDbSpline
 70
8
 71
3
 72
8
 73
4
 74
0
 40
0
 40
0
 40
0
 40
0
 40
1
 40
1
 40
1
 40
1
 10
3.467724
 20
3.336557
 30
0.0
 10
3.436768
 20
3.261822
 30
0.0
 10
3.453879
 20
3.175798
 30
0.0
 10
3.511079
 20
3.118599
 30
0.0
  0
SPLINE
  5
110
100
AcDbEntity
  8
0
 62
7
100
AcDbSpline
 70
8
 71
3
 72
8
 73
4
 74
0
 40
0
 40
0
 40
0
 40
0
 40
1
 40
1
 40
1
 40
1
 10
3.511079
 20
3.118599
 30
0.0
 10
3.568278
 20
3.061399
 30
0.0
 10
3.654302
 20
3.044288
 30
0.0
 10
3.729037
 20
3.075244
 30
0.0
  0
SPLINE
  5
111
100
AcDbEntity
  8
0
 62
7
100
AcDbSpline
 70
8
 71
3
 72
8
 73
4
 74
0
 40
0
 40
0
 40
0
 40
0
 40
1
 40
1
 40
1
 40
1
 10
3.729037
 20
3.075244
 30
0.0
 10
3.803772
 20
3.106200
 30
0.0
 10
3.852500
 20
3.179128
 30
0.0
 10
3.852500
 20
3.260020
 30
0.0
  0
SPLINE
  5
112
100
AcDbEntity
  8
0
 62
7
100
AcDbSpline
 70
8
 71
3
 72
8
 73
4
 74
0
 40
0
 40
0
 40
0
 40
0
 40
1
 40
1
 40
1
 40
1
 10
3.852500
 20
3.260020
 30
0.0
 10
3.852500
 20
3.313063
 30
0.0
 10
3.831429
 20
3.363934
 30
0.0
 10
3.793921
 20
3.401441
 30
0.0
  0
SPLINE
  5
113
100
AcDbEntity
  8
0
 62
7
100
AcDbSpline
 70
8
 71
3
 72
8
 73
4
 74
0
 40
0
 40
0
 40
0
 40
0
 40
1
 40
1
 40
1
 40
1
 10
3.793921
 20
3.401441
 30
0.0
 10
3.756414
 20
3.438949
 30
0.0
 10
3.705543
 20
3.460020
 30
0.0
 10
3.652500
 20
3.460020
 30
0.0
  0
LWPOLYLINE
  5
114
100
AcDbEntity
  8
0
 62
7
100
AcDbPolyline
 90
1
 70
1
 10
5.902500
 20
2.065020
 30
0.0
  0
SPLINE
  5
115
100
AcDbEntity
  8
0
 62
7
100
AcDbSpline
 70
8
 71
3
 72
8
 73
4
 74
0
 40
0
 40
0
 40
0
 40
0
 40
1
 40
1
 40
1
 40
1
 10
1.397500
 20
11.070020
 30
0.0
 10
1.134600
 20
11.070020
 30
0.0
 10
0.897586
 20
10.911653
 30
0.0
 10
0.796978
 20
10.668764
 30
0.0
  0
SPLINE
  5
116
100
AcDbEntity
  8
0
 62
7
100
AcDbSpline
 70
8
 71
3
 72
8
 73
4
 74
0
 40
0
 40
0
 40
0
 40
0
 40
1
 40
1
 40
1
 40
1
 10
0.796978
 20
10.668764
 30
0.0
 10
0.696371
 20
10.425876
 30
0.0
 10
0.751982
 20
10.146299
 30
0.0
 10
0.937881
 20
9.960401
 30
0.0
  0
SPLINE
  5
117
100
AcDbEntity
  8
0
 62
7
100
AcDbSpline
 70
8
 71
3
 72
8
 73
4
 74
0
 40
0
 40
0
 40
0
 40
0
 40
1
 40
1
 40
1
 40
1
 10
0.937881
 20
9.960401
 30
0.0
 10
1.123779
 20
9.774502
 30
0.0
 10
1.403356
 20
9.718891
 30
0.0
 10
1.646244
 20
9.819498
 30
0.0
  0
SPLINE
  5
118
100
AcDbEntity
  8
0
 62
7
100
AcDbSpline
 70
8
 71
3
 72
8
 73
4
 74
0
 40
0
 40
0
 40
0
 40
0
 40
1
 40
1
 40
1
 40
1
 10
1.646244
 20
9.819498
 30
0.0
 10
1.889133
 20
9.920106
 30
0.0
 10
2.047500
 20
10.157120
 30
0.0
 10
2.047500
 20
10.420020
 30
0.0
  0
SPLINE
  5
119
100
AcDbEntity
  8
0
 62
7
100
AcDbSpline
 70
8
 71
3
 72
8
 73
4
 74
0
 40
0
 40
0
 40
0
 40
0
 40
1
 40
1
 40
1
 40
1
 10
2.047500
 20
10.420020
 30
0.0
 10
2.047500
 20
10.592411
 30
0.0
 10
1.979018
 20
10.757741
 30
0.0
 10
1.857119
 20
10.879639
 30
0.0
  0
SPLINE
  5
11a
100
AcDbEntity
  8
0
 62
7
100
AcDbSpline
 70
8
 71
3
 72
8
 73
4
 74
0
 40
0
 40
0
 40
0
 40
0
 40
1
 40
1
 40
1
 40
1
 10
1.857119
 20
10.879639
 30
0.0
 10
1.735221
 20
11.001538
 30
0.0
 10
1.569891
 20
11.070020
 30
0.0
 10
1.397500
 20
11.070020
 30
0.0
  0
LWPOLYLINE
  5
11b
100
AcDbEntity
  8
0
 62
7
100
AcDbPolyline
 90
1
 70
1
 10
3.652500
 20
3.460020
 30
0.0
  0
LWPOLYLINE
  5
11c
100
AcDbEntity
  8
0
 62
7
100
AcDbPolyline
 90
1
 70
1
 10
1.397500
 20
11.070020
 30
0.0
  0
SPLINE
  5
11d
100
AcDbEntity
  8
0
 62
7
100
AcDbSpline
 70
8
 71
3
 72
8
 73
4
 74
0
 40
0
 40
0
 40
0
 40
0
 40
1
 40
1
 40
1
 40
1
 10
9.582500
 20
0.190020
 30
0.0
 10
9.639662
 20
0.190020
 30
0.0
 10
9.692483
 20
0.220516
 30
0.0
 10
9.721064
 20
0.270020
 30
0.0
  0
SPLINE
  5
11e
100
AcDbEntity
  8
0
 62
7
100
AcDbSpline
 70
8
 71
3
 72
8
 73
4
 74
0
 40
0
 40
0
 40
0
 40
0
 40
1
 40
1
 40
1
 40
1
 10
9.721064
 20
0.270020
 30
0.0
 10
9.749645
 20
0.319524
 30
0.0
 10
9.749645
 20
0.380516
 30
0.0
 10
9.721064
 20
0.430020
 30
0.0
  0
SPLINE
  5
11f
100
AcDbEntity
  8
0
 62
7
100
AcDbSpline
 70
8
 71
3
 72
8
 73
4
 74
0
 40
0
 40
0
 40
0
 40
0
 40
1
 40
1
 40
1
 40
1
 10
9.721064
 20
0.430020
 30
0.0
 10
9.692483
 20
0.479524
 30
0.0
 10
9.639662
 20
0.510020
 30
0.0
 10
9.582500
 20
0.510020
 30
0.0
  0
LWPOLYLINE
  5
120
100
AcDbEntity
  8
0
 62
7
100
AcDbPolyline
 90
2
 70
0
 10
9.582500
 20
0.190020
 30
0.0
 10
9.352500
 20
0.190020
 30
0.0
  0
LWPOLYLINE
  5
121
100
AcDbEntity
  8
0
 62
7
100
AcDbPolyline
 90
2
 70
0
 10
10.167500
 20
0.000020
 30
0.0
 10
0.002500
 20
0.000020
 30
0.0
  0
SPLINE
  5
122
100
AcDbEntity
  8
0
 62
7
100
AcDbSpline
 70
8
 71
3
 72
8
 73
4
 74
0
 40
0
 40
0
 40
0
 40
0
 40
1
 40
1
 40
1
 40
1
 10
9.352500
 20
12.665020
 30
0.0
 10
9.295338
 20
12.665020
 30
0.0
 10
9.242517
 20
12.634524
 30
0.0
 10
9.213936
 20
12.585020
 30
0.0
  0
SPLINE
  5
123
100
AcDbEntity
  8
0
 62
7
100
AcDbSpline
 70
8
 71
3
 72
8
 73
4
 74
0
 40
0
 40
0
 40
0
 40
0
 40
1
 40
1
 40
1
 40
1
 10
9.213936
 20
12.585020
 30
0.0
 10
9.185355
 20
12.535516
 30
0.0
 10
9.185355
 20
12.474524
 30
0.0
 10
9.213936
 20
12.425020
 30
0.0
  0
SPLINE
  5
124
100
AcDbEntity
  8
0
 62
7
100
AcDbSpline
 70
8
 71
3
 72
8
 73
4
 74
0
 40
0
 40
0
 40
0
 40
0
 40
1
 40
1
 40
1
 40
1
 10
9.213936
 20
12.425020
 30
0.0
 10
9.242517
 20
12.375516
 30
0.0
 10
9.295338
 20
12.345020
 30
0.0
 10
9.352500
 20
12.345020
 30
0.0
  0
SPLINE
  5
125
100
AcDbEntity
  8
0
 62
7
100
AcDbSpline
 70
8
 71
3
 72
8
 73
4
 74
0
 40
0
 40
0
 40
0
 40
0
 40
1
 40
1
 40
1
 40
1
 10
5.902500
 20
3.460020
 30
0.0
 10
5.821608
 20
3.460020
 30
0.0
 10
5.748680
 20
3.411292
 30
0.0
 10
5.717724
 20
3.336557
 30
0.0
  0
SPLINE
  5
126
100
AcDbEntity
  8
0
 62
7
100
AcDbSpline
 70
8
 71
3
 72
8
 73
4
 74
0
 40
0
 40
0
 40
0
 40
0
 40
1
 40
1
 40
1
 40
1
 10
5.717724
 20
3.336557
 30
0.0
 10
5.686768
 20
3.261822
 30
0.0
 10
5.703879
 20
3.175798
 30
0.0
 10
5.761079
 20
3.118599
 30
0.0
  0
SPLINE
  5
127
100
AcDbEntity
  8
0
 62
7
100
AcDbSpline
 70
8
 71
3
 72
8
 73
4
 74
0
 40
0
 40
0
 40
0
 40
0
 40
1
 40
1
 40
1
 40
1
 10
5.761079
 20
3.118599
 30
0.0
 10
5.818278
 20
3.061399
 30
0.0
 10
5.904302
 20
3.044288
 30
0.0
 10
5.979037
 20
3.075244
 30
0.0
  0
SPLINE
  5
128
100
AcDbEntity
  8
0
 62
7
100
AcDbSpline
 70
8
 71
3
 72
8
 73
4
 74
0
 40
0
 40
0
 40
0
 40
0
 40
1
 40
1
 40
1
 40
1
 10
5.979037
 20
3.075244
 30
0.0
 10
6.053772
 20
3.106200
 30
0.0
 10
6.102500
 20
3.179128
 30
0.0
 10
6.102500
 20
3.260020
 30
0.0
  0
SPLINE
  5
129
100
AcDbEntity
  8
0
 62
7
100
AcDbSpline
 70
8
 71
3
 72
8
 73
4
 74
0
 40
0
 40
0
 40
0
 40
0
 40
1
 40
1
 40
1
 40
1
 10
6.102500
 20
3.260020
 30
0.0
 10
6.102500
 20
3.313063
 30
0.0
 10
6.081429
 20
3.363934
 30
0.0
 10
6.043921
 20
3.401441
 30
0.0
  0
SPLINE
  5
12a
100
AcDbEntity
  8
0
 62
7
100
AcDbSpline
 70
8
 71
3
 72
8
 73
4
 74
0
 40
0
 40
0
 40
0
 40
0
 40
1
 40
1
 40
1
 40
1
 10
6.043921
 20
3.401441
 30
0.0
 10
6.006414
 20
3.438949
 30
0.0
 10
5.955543
 20
3.460020
 30
0.0
 10
5.902500
 20
3.460020
 30
0.0
  0
LWPOLYLINE
  5
12b
100
AcDbEntity
  8
0
 62
7
100
AcDbPolyline
 90
2
 70
0
 10
9.582500
 20
12.345020
 30
0.0
 10
9.352500
 20
12.345020
 30
0.0
  0
SPLINE
  5
12c
100
AcDbEntity
  8
0
 62
7
100
AcDbSpline
 70
8
 71
3
 72
8
 73
4
 74
0
 40
0
 40
0
 40
0
 40
0
 40
1
 40
1
 40
1
 40
1
 10
8.832500
 20
11.020020
 30
0.0
 10
8.569600
 20
11.020020
 30
0.0
 10
8.332586
 20
10.861653
 30
0.0
 10
8.231978
 20
10.618764
 30
0.0
  0
SPLINE
  5
12d
100
AcDbEntity
  8
0
 62
7
100
AcDbSpline
 70
8
 71
3
 72
8
 73
4
 74
0
 40
0
 40
0
 40
0
 40
0
 40
1
 40
1
 40
1
 40
1
 10
8.231978
 20
10.618764
 30
0.0
 10
8.131371
 20
10.375876
 30
0.0
 10
8.186982
 20
10.096299
 30
0.0
 10
8.372881
 20
9.910401
 30
0.0
  0
SPLINE
  5
12e
100
AcDbEntity
  8
0
 62
7
100
AcDbSpline
 70
8
 71
3
 72
8
 73
4
 74
0
 40
0
 40
0
 40
0
 40
0
 40
1
 40
1
 40
1
 40
1
 10
8.372881
 20
9.910401
 30
0.0
 10
8.558779
 20
9.724502
 30
0.0
 10
8.838356
 20
9.668891
 30
0.0
 10
9.081244
 20
9.769498
 30
0.0
  0
SPLINE
  5
12f
100
AcDbEntity
  8
0
 62
7
100
AcDbSpline
 70
8
 71
3
 72
8
 73
4
 74
0
 40
0
 40
0
 40
0
 40
0
 40
1
 40
1
 40
1
 40
1
 10
9.081244
 20
9.769498
 30
0.0
 10
9.324133
 20
9.870106
 30
0.0
 10
9.482500
 20
10.107120
 30
0.0
 10
9.482500
 20
10.370020
 30
0.0
  0
SPLINE
  5
130
100
AcDbEntity
  8
0
 62
7
100
AcDbSpline
 70
8
 71
3
 72
8
 73
4
 74
0
 40
0
 40
0
 40
0
 40
0
 40
1
 40
1
 40
1
 40
1
 10
9.482500
 20
10.370020
 30
0.0
 10
9.482500
 20
10.542411
 30
0.0
 10
9.414018
 20
10.707741
 30
0.0
 10
9.292119
 20
10.829639
 30
0.0
  0
SPLINE
  5
131
100
AcDbEntity
  8
0
 62
7
100
AcDbSpline
 70
8
 71
3
 72
8
 73
4
 74
0
 40
0
 40
0
 40
0
 40
0
 40
1
 40
1
 40
1
 40
1
 10
9.292119
 20
10.829639
 30
0.0
 10
9.170221
 20
10.951538
 30
0.0
 10
9.004891
 20
11.020020
 30
0.0
 10
8.832500
 20
11.020020
 30
0.0
  0
LWPOLYLINE
  5
132
100
AcDbEntity
  8
0
 62
7
100
AcDbPolyline
 90
1
 70
1
 10
5.902500
 20
3.460020
 30
0.0
  0
LWPOLYLINE
  5
133
100
AcDbEntity
  8
0
 62
7
100
AcDbPolyline
 90
1
 70
1
 10
8.832500
 20
11.020020
 30
0.0
  0
LWPOLYLINE
  5
134
100
AcDbEntity
  8
0
 62
7
100
AcDbPolyline
 90
2
 70
0
 10
0.817500
 20
0.195020
 30
0.0
 10
0.587500
 20
0.195020
 30
0.0
  0
SPLINE
  5
135
100
AcDbEntity
  8
0
 62
7
100
AcDbSpline
 70
8
 71
3
 72
8
 73
4
 74
0
 40
0
 40
0
 40
0
 40
0
 40
1
 40
1
 40
1
 40
1
 10
9.732500
 20
1.965020
 30
0.0
 10
9.655652
 20
1.965020
 30
0.0
 10
9.586371
 20
1.918728
 30
0.0
 10
9.556963
 20
1.847730
 30
0.0
  0
SPLINE
  5
136
100
AcDbEntity
  8
0
 62
7
100
AcDbSpline
 70
8
 71
3
 72
8
 73
4
 74
0
 40
0
 40
0
 40
0
 40
0
 40
1
 40
1
 40
1
 40
1
 10
9.556963
 20
1.847730
 30
0.0
 10
9.527554
 20
1.776732
 30
0.0
 10
9.543810
 20
1.695009
 30
0.0
 10
9.598150
 20
1.640670
 30
0.0
  0
SPLINE
  5
137
100
AcDbEntity
  8
0
 62
7
100
AcDbSpline
 70
8
 71
3
 72
8
 73
4
 74
0
 40
0
 40
0
 40
0
 40
0
 40
1
 40
1
 40
1
 40
1
 10
9.598150
 20
1.640670
 30
0.0
 10
9.652489
 20
1.586330
 30
0.0
 10
9.734212
 20
1.570074
 30
0.0
 10
9.805210
 20
1.599483
 30
0.0
  0
SPLINE
  5
138
100
AcDbEntity
  8
0
 62
7
100
AcDbSpline
 70
8
 71
3
 72
8
 73
4
 74
0
 40
0
 40
0
 40
0
 40
0
 40
1
 40
1
 40
1
 40
1
 10
9.805210
 20
1.599483
 30
0.0
 10
9.876208
 20
1.628891
 30
0.0
 10
9.922500
 20
1.698172
 30
0.0
 10
9.922500
 20
1.775020
 30
0.0
  0
SPLINE
  5
139
100
AcDbEntity
  8
0
 62
7
100
AcDbSpline
 70
8
 71
3
 72
8
 73
4
 74
0
 40
0
 40
0
 40
0
 40
0
 40
1
 40
1
 40
1
 40
1
 10
9.922500
 20
1.775020
 30
0.0
 10
9.922500
 20
1.879954
 30
0.0
 10
9.837434
 20
1.965020
 30
0.0
 10
9.732500
 20
1.965020
 30
0.0
  0
LWPOLYLINE
  5
13a
100
AcDbEntity
  8
0
 62
7
100
AcDbPolyline
 90
2
 70
0
 10
0.002500
 20
12.857520
 30
0.0
 10
10.167500
 20
12.856797
 30
0.0
  0
SPLINE
  5
13b
100
AcDbEntity
  8
0
 62
7
100
AcDbSpline
 70
8
 71
3
 72
8
 73
4
 74
0
 40
0
 40
0
 40
0
 40
0
 40
1
 40
1
 40
1
 40
1
 10
9.352500
 20
0.510020
 30
0.0
 10
9.295338
 20
0.510020
 30
0.0
 10
9.242517
 20
0.479524
 30
0.0
 10
9.213936
 20
0.430020
 30
0.0
  0
SPLINE
  5
13c
100
AcDbEntity
  8
0
 62
7
100
AcDbSpline
 70
8
 71
3
 72
8
 73
4
 74
0
 40
0
 40
0
 40
0
 40
0
 40
1
 40
1
 40
1
 40
1
 10
9.213936
 20
0.430020
 30
0.0
 10
9.185355
 20
0.380516
 30
0.0
 10
9.185355
 20
0.319524
 30
0.0
 10
9.213936
 20
0.270020
 30
0.0
  0
SPLINE
  5
13d
100
AcDbEntity
  8
0
 62
7
100
AcDbSpline
 70
8
 71
3
 72
8
 73
4
 74
0
 40
0
 40
0
 40
0
 40
0
 40
1
 40
1
 40
1
 40
1
 10
9.213936
 20
0.270020
 30
0.0
 10
9.242517
 20
0.220516
 30
0.0
 10
9.295338
 20
0.190020
 30
0.0
 10
9.352500
 20
0.190020
 30
0.0
  0
SPLINE
  5
13e
100
AcDbEntity
  8
0
 62
7
100
AcDbSpline
 70
8
 71
3
 72
8
 73
4
 74
0
 40
0
 40
0
 40
0
 40
0
 40
1
 40
1
 40
1
 40
1
 10
0.587500
 20
12.670020
 30
0.0
 10
0.530338
 20
12.670020
 30
0.0
 10
0.477517
 20
12.639524
 30
0.0
 10
0.448936
 20
12.590020
 30
0.0
  0
SPLINE
  5
13f
100
AcDbEntity
  8
0
 62
7
100
AcDbSpline
 70
8
 71
3
 72
8
 73
4
 74
0
 40
0
 40
0
 40
0
 40
0
 40
1
 40
1
 40
1
 40
1
 10
0.448936
 20
12.590020
 30
0.0
 10
0.420355
 20
12.540516
 30
0.0
 10
0.420355
 20
12.479524
 30
0.0
 10
0.448936
 20
12.430020
 30
0.0
  0
SPLINE
  5
140
100
AcDbEntity
  8
0
 62
7
100
AcDbSpline
 70
8
 71
3
 72
8
 73
4
 74
0
 40
0
 40
0
 40
0
 40
0
 40
1
 40
1
 40
1
 40
1
 10
0.448936
 20
12.430020
 30
0.0
 10
0.477517
 20
12.380516
 30
0.0
 10
0.530338
 20
12.350020
 30
0.0
 10
0.587500
 20
12.350020
 30
0.0
  0
SPLINE
  5
141
100
AcDbEntity
  8
0
 62
7
100
AcDbSpline
 70
8
 71
3
 72
8
 73
4
 74
0
 40
0
 40
0
 40
0
 40
0
 40
1
 40
1
 40
1
 40
1
 10
0.817500
 20
12.350020
 30
0.0
 10
0.874662
 20
12.350020
 30
0.0
 10
0.927483
 20
12.380516
 30
0.0
 10
0.956064
 20
12.430020
 30
0.0
  0
SPLINE
  5
142
100
AcDbEntity
  8
0
 62
7
100
AcDbSpline
 70
8
 71
3
 72
8
 73
4
 74
0
 40
0
 40
0
 40
0
 40
0
 40
1
 40
1
 40
1
 40
1
 10
0.956064
 20
12.430020
 30
0.0
 10
0.984645
 20
12.479524
 30
0.0
 10
0.984645
 20
12.540516
 30
0.0
 10
0.956064
 20
12.590020
 30
0.0
  0
SPLINE
  5
143
100
AcDbEntity
  8
0
 62
7
100
AcDbSpline
 70
8
 71
3
 72
8
 73
4
 74
0
 40
0
 40
0
 40
0
 40
0
 40
1
 40
1
 40
1
 40
1
 10
0.956064
 20
12.590020
 30
0.0
 10
0.927483
 20
12.639524
 30
0.0
 10
0.874662
 20
12.670020
 30
0.0
 10
0.817500
 20
12.670020
 30
0.0
  0
LWPOLYLINE
  5
144
100
AcDbEntity
  8
0
 62
7
100
AcDbPolyline
 90
1
 70
1
 10
9.732500
 20
1.965020
 30
0.0
  0
SPLINE
  5
145
100
AcDbEntity
  8
0
 62
7
100
AcDbSpline
 70
8
 71
3
 72
8
 73
4
 74
0
 40
0
 40
0
 40
0
 40
0
 40
1
 40
1
 40
1
 40
1
 10
9.732500
 20
11.265020
 30
0.0
 10
9.655652
 20
11.265020
 30
0.0
 10
9.586371
 20
11.218728
 30
0.0
 10
9.556963
 20
11.147730
 30
0.0
  0
SPLINE
  5
146
100
AcDbEntity
  8
0
 62
7
100
AcDbSpline
 70
8
 71
3
 72
8
 73
4
 74
0
 40
0
 40
0
 40
0
 40
0
 40
1
 40
1
 40
1
 40
1
 10
9.556963
 20
11.147730
 30
0.0
 10
9.527554
 20
11.076732
 30
0.0
 10
9.543810
 20
10.995009
 30
0.0
 10
9.598150
 20
10.940670
 30
0.0
  0
SPLINE
  5
147
100
AcDbEntity
  8
0
 62
7
100
AcDbSpline
 70
8
 71
3
 72
8
 73
4
 74
0
 40
0
 40
0
 40
0
 40
0
 40
1
 40
1
 40
1
 40
1
 10
9.598150
 20
10.940670
 30
0.0
 10
9.652489
 20
10.886330
 30
0.0
 10
9.734212
 20
10.870074
 30
0.0
 10
9.805210
 20
10.899483
 30
0.0
  0
SPLINE
  5
148
100
AcDbEntity
  8
0
 62
7
100
AcDbSpline
 70
8
 71
3
 72
8
 73
4
 74
0
 40
0
 40
0
 40
0
 40
0
 40
1
 40
1
 40
1
 40
1
 10
9.805210
 20
10.899483
 30
0.0
 10
9.876208
 20
10.928891
 30
0.0
 10
9.922500
 20
10.998172
 30
0.0
 10
9.922500
 20
11.075020
 30
0.0
  0
SPLINE
  5
149
100
AcDbEntity
  8
0
 62
7
100
AcDbSpline
 70
8
 71
3
 72
8
 73
4
 74
0
 40
0
 40
0
 40
0
 40
0
 40
1
 40
1
 40
1
 40
1
 10
9.922500
 20
11.075020
 30
0.0
 10
9.922500
 20
11.179954
 30
0.0
 10
9.837434
 20
11.265020
 30
0.0
 10
9.732500
 20
11.265020
 30
0.0
  0
LWPOLYLINE
  5
14a
100
AcDbEntity
  8
0
 62
7
100
AcDbPolyline
 90
2
 70
0
 10
10.167500
 20
0.000020
 30
0.0
 10
10.167500
 20
12.856797
 30
0.0
  0
LWPOLYLINE
  5
14b
100
AcDbEntity
  8
0
 62
7
100
AcDbPolyline
 90
1
 70
1
 10
9.732500
 20
11.265020
 30
0.0
  0
SPLINE
  5
14c
100
AcDbEntity
  8
0
 62
7
100
AcDbSpline
 70
8
 71
3
 72
8
 73
4
 74
0
 40
0
 40
0
 40
0
 40
0
 40
1
 40
1
 40
1
 40
1
 10
5.107500
 20
7.645020
 30
0.0
 10
5.038741
 20
7.645020
 30
0.0
 10
4.976753
 20
7.603601
 30
0.0
 10
4.950440
 20
7.540076
 30
0.0
  0
SPLINE
  5
14d
100
AcDbEntity
  8
0
 62
7
100
AcDbSpline
 70
8
 71
3
 72
8
 73
4
 74
0
 40
0
 40
0
 40
0
 40
0
 40
1
 40
1
 40
1
 40
1
 10
4.950440
 20
7.540076
 30
0.0
 10
4.924128
 20
7.476552
 30
0.0
 10
4.938672
 20
7.403432
 30
0.0
 10
4.987292
 20
7.354812
 30
0.0
  0
SPLINE
  5
14e
100
AcDbEntity
  8
0
 62
7
100
AcDbSpline
 70
8
 71
3
 72
8
 73
4
 74
0
 40
0
 40
0
 40
0
 40
0
 40
1
 40
1
 40
1
 40
1
 10
4.987292
 20
7.354812
 30
0.0
 10
5.035912
 20
7.306192
 30
0.0
 10
5.109032
 20
7.291648
 30
0.0
 10
5.172556
 20
7.317960
 30
0.0
  0
SPLINE
  5
14f
100
AcDbEntity
  8
0
 62
7
100
AcDbSpline
 70
8
 71
3
 72
8
 73
4
 74
0
 40
0
 40
0
 40
0
 40
0
 40
1
 40
1
 40
1
 40
1
 10
5.172556
 20
7.317960
 30
0.0
 10
5.236081
 20
7.344273
 30
0.0
 10
5.277500
 20
7.406261
 30
0.0
 10
5.277500
 20
7.475020
 30
0.0
  0
SPLINE
  5
150
100
AcDbEntity
  8
0
 62
7
100
AcDbSpline
 70
8
 71
3
 72
8
 73
4
 74
0
 40
0
 40
0
 40
0
 40
0
 40
1
 40
1
 40
1
 40
1
 10
5.277500
 20
7.475020
 30
0.0
 10
5.277500
 20
7.520107
 30
0.0
 10
5.259589
 20
7.563347
 30
0.0
 10
5.227708
 20
7.595228
 30
0.0
  0
SPLINE
  5
151
100
AcDbEntity
  8
0
 62
7
100
AcDbSpline
 70
8
 71
3
 72
8
 73
4
 74
0
 40
0
 40
0
 40
0
 40
0
 40
1
 40
1
 40
1
 40
1
 10
5.227708
 20
7.595228
 30
0.0
 10
5.195827
 20
7.627109
 30
0.0
 10
5.152587
 20
7.645020
 30
0.0
 10
5.107500
 20
7.645020
 30
0.0
  0
LWPOLYLINE
  5
152
100
AcDbEntity
  8
0
 62
7
100
AcDbPolyline
 90
2
 70
0
 10
9.582500
 20
12.665020
 30
0.0
 10
9.352500
 20
12.665020
 30
0.0
  0
SPLINE
  5
153
100
AcDbEntity
  8
0
 62
7
100
AcDbSpline
 70
8
 71
3
 72
8
 73
4
 74
0
 40
0
 40
0
 40
0
 40
0
 40
1
 40
1
 40
1
 40
1
 10
0.437500
 20
11.265020
 30
0.0
 10
0.360652
 20
11.265020
 30
0.0
 10
0.291371
 20
11.218728
 30
0.0
 10
0.261963
 20
11.147730
 30
0.0
  0
SPLINE
  5
154
100
AcDbEntity
  8
0
 62
7
100
AcDbSpline
 70
8
 71
3
 72
8
 73
4
 74
0
 40
0
 40
0
 40
0
 40
0
 40
1
 40
1
 40
1
 40
1
 10
0.261963
 20
11.147730
 30
0.0
 10
0.232554
 20
11.076732
 30
0.0
 10
0.248810
 20
10.995009
 30
0.0
 10
0.303150
 20
10.940670
 30
0.0
  0
SPLINE
  5
155
100
AcDbEntity
  8
0
 62
7
100
AcDbSpline
 70
8
 71
3
 72
8
 73
4
 74
0
 40
0
 40
0
 40
0
 40
0
 40
1
 40
1
 40
1
 40
1
 10
0.303150
 20
10.940670
 30
0.0
 10
0.357489
 20
10.886330
 30
0.0
 10
0.439212
 20
10.870074
 30
0.0
 10
0.510210
 20
10.899483
 30
0.0
  0
SPLINE
  5
156
100
AcDbEntity
  8
0
 62
7
100
AcDbSpline
 70
8
 71
3
 72
8
 73
4
 74
0
 40
0
 40
0
 40
0
 40
0
 40
1
 40
1
 40
1
 40
1
 10
0.510210
 20
10.899483
 30
0.0
 10
0.581208
 20
10.928891
 30
0.0
 10
0.627500
 20
10.998172
 30
0.0
 10
0.627500
 20
11.075020
 30
0.0
  0
SPLINE
  5
157
100
AcDbEntity
  8
0
 62
7
100
AcDbSpline
 70
8
 71
3
 72
8
 73
4
 74
0
 40
0
 40
0
 40
0
 40
0
 40
1
 40
1
 40
1
 40
1
 10
0.627500
 20
11.075020
 30
0.0
 10
0.627500
 20
11.179954
 30
0.0
 10
0.542434
 20
11.265020
 30
0.0
 10
0.437500
 20
11.265020
 30
0.0
  0
LWPOLYLINE
  5
158
100
AcDbEntity
  8
0
 62
7
100
AcDbPolyline
 90
1
 70
1
 10
5.107500
 20
7.645020
 30
0.0
  0
SPLINE
  5
159
100
AcDbEntity
  8
0
 62
7
100
AcDbSpline
 70
8
 71
3
 72
8
 73
4
 74
0
 40
0
 40
0
 40
0
 40
0
 40
1
 40
1
 40
1
 40
1
 10
1.032500
 20
4.385020
 30
0.0
 10
0.890938
 20
4.385020
 30
0.0
 10
0.763316
 20
4.299745
 30
0.0
 10
0.709142
 20
4.168959
 30
0.0
  0
SPLINE
  5
15a
100
AcDbEntity
  8
0
 62
7
100
AcDbSpline
 70
8
 71
3
 72
8
 73
4
 74
0
 40
0
 40
0
 40
0
 40
0
 40
1
 40
1
 40
1
 40
1
 10
0.709142
 20
4.168959
 30
0.0
 10
0.654969
 20
4.038173
 30
0.0
 10
0.684913
 20
3.887632
 30
0.0
 10
0.785013
 20
3.787533
 30
0.0
  0
SPLINE
  5
15b
100
AcDbEntity
  8
0
 62
7
100
AcDbSpline
 70
8
 71
3
 72
8
 73
4
 74
0
 40
0
 40
0
 40
0
 40
0
 40
1
 40
1
 40
1
 40
1
 10
0.785013
 20
3.787533
 30
0.0
 10
0.885112
 20
3.687433
 30
0.0
 10
1.035653
 20
3.657489
 30
0.0
 10
1.166439
 20
3.711662
 30
0.0
  0
SPLINE
  5
15c
100
AcDbEntity
  8
0
 62
7
100
AcDbSpline
 70
8
 71
3
 72
8
 73
4
 74
0
 40
0
 40
0
 40
0
 40
0
 40
1
 40
1
 40
1
 40
1
 10
1.166439
 20
3.711662
 30
0.0
 10
1.297225
 20
3.765836
 30
0.0
 10
1.382500
 20
3.893458
 30
0.0
 10
1.382500
 20
4.035020
 30
0.0
  0
SPLINE
  5
15d
100
AcDbEntity
  8
0
 62
7
100
AcDbSpline
 70
8
 71
3
 72
8
 73
4
 74
0
 40
0
 40
0
 40
0
 40
0
 40
1
 40
1
 40
1
 40
1
 10
1.382500
 20
4.035020
 30
0.0
 10
1.382500
 20
4.228320
 30
0.0
 10
1.225800
 20
4.385020
 30
0.0
 10
1.032500
 20
4.385020
 30
0.0
  0
LWPOLYLINE
  5
15e
100
AcDbEntity
  8
0
 62
7
100
AcDbPolyline
 90
1
 70
1
 10
0.437500
 20
11.265020
 30
0.0
  0
SPLINE
  5
15f
100
AcDbEntity
  8
0
 62
7
100
AcDbSpline
 70
8
 71
3
 72
8
 73
4
 74
0
 40
0
 40
0
 40
0
 40
0
 40
1
 40
1
 40
1
 40
1
 10
1.287500
 20
3.015020
 30
0.0
 10
1.024600
 20
3.015020
 30
0.0
 10
0.787586
 20
2.856653
 30
0.0
 10
0.686978
 20
2.613764
 30
0.0
  0
SPLINE
  5
160
100
AcDbEntity
  8
0
 62
7
100
AcDbSpline
 70
8
 71
3
 72
8
 73
4
 74
0
 40
0
 40
0
 40
0
 40
0
 40
1
 40
1
 40
1
 40
1
 10
0.686978
 20
2.613764
 30
0.0
 10
0.586371
 20
2.370876
 30
0.0
 10
0.641982
 20
2.091299
 30
0.0
 10
0.827881
 20
1.905401
 30
0.0
  0
SPLINE
  5
161
100
AcDbEntity
  8
0
 62
7
100
AcDbSpline
 70
8
 71
3
 72
8
 73
4
 74
0
 40
0
 40
0
 40
0
 40
0
 40
1
 40
1
 40
1
 40
1
 10
0.827881
 20
1.905401
 30
0.0
 10
1.013779
 20
1.719502
 30
0.0
 10
1.293356
 20
1.663891
 30
0.0
 10
1.536244
 20
1.764498
 30
0.0
  0
SPLINE
  5
162
100
AcDbEntity
  8
0
 62
7
100
AcDbSpline
 70
8
 71
3
 72
8
 73
4
 74
0
 40
0
 40
0
 40
0
 40
0
 40
1
 40
1
 40
1
 40
1
 10
1.536244
 20
1.764498
 30
0.0
 10
1.779133
 20
1.865106
 30
0.0
 10
1.937500
 20
2.102120
 30
0.0
 10
1.937500
 20
2.365020
 30
0.0
  0
SPLINE
  5
163
100
AcDbEntity
  8
0
 62
7
100
AcDbSpline
 70
8
 71
3
 72
8
 73
4
 74
0
 40
0
 40
0
 40
0
 40
0
 40
1
 40
1
 40
1
 40
1
 10
1.937500
 20
2.365020
 30
0.0
 10
1.937500
 20
2.537411
 30
0.0
 10
1.869018
 20
2.702741
 30
0.0
 10
1.747119
 20
2.824639
 30
0.0
  0
SPLINE
  5
164
100
AcDbEntity
  8
0
 62
7
100
AcDbSpline
 70
8
 71
3
 72
8
 73
4
 74
0
 40
0
 40
0
 40
0
 40
0
 40
1
 40
1
 40
1
 40
1
 10
1.747119
 20
2.824639
 30
0.0
 10
1.625221
 20
2.946538
 30
0.0
 10
1.459891
 20
3.015020
 30
0.0
 10
1.287500
 20
3.015020
 30
0.0
  0
LWPOLYLINE
  5
165
100
AcDbEntity
  8
0
 62
7
100
AcDbPolyline
 90
1
 70
1
 10
1.032500
 20
4.385020
 30
0.0
  0
LWPOLYLINE
  5
166
100
AcDbEntity
  8
0
 62
7
100
AcDbPolyline
 90
1
 70
1
 10
1.287500
 20
3.015020
 30
0.0
  0
SPLINE
  5
167
100
AcDbEntity
  8
0
 62
7
100
AcDbSpline
 70
8
 71
3
 72
8
 73
4
 74
0
 40
0
 40
0
 40
0
 40
0
 40
1
 40
1
 40
1
 40
1
 10
0.587500
 20
0.515020
 30
0.0
 10
0.530338
 20
0.515020
 30
0.0
 10
0.477517
 20
0.484524
 30
0.0
 10
0.448936
 20
0.435020
 30
0.0
  0
SPLINE
  5
168
100
AcDbEntity
  8
0
 62
7
100
AcDbSpline
 70
8
 71
3
 72
8
 73
4
 74
0
 40
0
 40
0
 40
0
 40
0
 40
1
 40
1
 40
1
 40
1
 10
0.448936
 20
0.435020
 30
0.0
 10
0.420355
 20
0.385516
 30
0.0
 10
0.420355
 20
0.324524
 30
0.0
 10
0.448936
 20
0.275020
 30
0.0
  0
SPLINE
  5
169
100
AcDbEntity
  8
0
 62
7
100
AcDbSpline
 70
8
 71
3
 72
8
 73
4
 74
0
 40
0
 40
0
 40
0
 40
0
 40
1
 40
1
 40
1
 40
1
 10
0.448936
 20
0.275020
 30
0.0
 10
0.477517
 20
0.225516
 30
0.0
 10
0.530338
 20
0.195020
 30
0.0
 10
0.587500
 20
0.195020
 30
0.0
  0
SPLINE
  5
16a
100
AcDbEntity
  8
0
 62
7
100
AcDbSpline
 70
8
 71
3
 72
8
 73
4
 74
0
 40
0
 40
0
 40
0
 40
0
 40
1
 40
1
 40
1
 40
1
 10
9.132500
 20
4.335020
 30
0.0
 10
8.990938
 20
4.335020
 30
0.0
 10
8.863316
 20
4.249745
 30
0.0
 10
8.809142
 20
4.118959
 30
0.0
  0
SPLINE
  5
16b
100
AcDbEntity
  8
0
 62
7
100
AcDbSpline
 70
8
 71
3
 72
8
 73
4
 74
0
 40
0
 40
0
 40
0
 40
0
 40
1
 40
1
 40
1
 40
1
 10
8.809142
 20
4.118959
 30
0.0
 10
8.754969
 20
3.988173
 30
0.0
 10
8.784913
 20
3.837632
 30
0.0
 10
8.885013
 20
3.737533
 30
0.0
  0
SPLINE
  5
16c
100
AcDbEntity
  8
0
 62
7
100
AcDbSpline
 70
8
 71
3
 72
8
 73
4
 74
0
 40
0
 40
0
 40
0
 40
0
 40
1
 40
1
 40
1
 40
1
 10
8.885013
 20
3.737533
 30
0.0
 10
8.985112
 20
3.637433
 30
0.0
 10
9.135653
 20
3.607489
 30
0.0
 10
9.266439
 20
3.661662
 30
0.0
  0
SPLINE
  5
16d
100
AcDbEntity
  8
0
 62
7
100
AcDbSpline
 70
8
 71
3
 72
8
 73
4
 74
0
 40
0
 40
0
 40
0
 40
0
 40
1
 40
1
 40
1
 40
1
 10
9.266439
 20
3.661662
 30
0.0
 10
9.397225
 20
3.715836
 30
0.0
 10
9.482500
 20
3.843458
 30
0.0
 10
9.482500
 20
3.985020
 30
0.0
  0
SPLINE
  5
16e
100
AcDbEntity
  8
0
 62
7
100
AcDbSpline
 70
8
 71
3
 72
8
 73
4
 74
0
 40
0
 40
0
 40
0
 40
0
 40
1
 40
1
 40
1
 40
1
 10
9.482500
 20
3.985020
 30
0.0
 10
9.482500
 20
4.077846
 30
0.0
 10
9.445625
 20
4.166870
 30
0.0
 10
9.379987
 20
4.232507
 30
0.0
  0
SPLINE
  5
16f
100
AcDbEntity
  8
0
 62
7
100
AcDbSpline
 70
8
 71
3
 72
8
 73
4
 74
0
 40
0
 40
0
 40
0
 40
0
 40
1
 40
1
 40
1
 40
1
 10
9.379987
 20
4.232507
 30
0.0
 10
9.314350
 20
4.298145
 30
0.0
 10
9.225326
 20
4.335020
 30
0.0
 10
9.132500
 20
4.335020
 30
0.0
  0
LWPOLYLINE
  5
170
100
AcDbEntity
  8
0
 62
7
100
AcDbPolyline
 90
2
 70
0
 10
0.817500
 20
0.515020
 30
0.0
 10
0.587500
 20
0.515020
 30
0.0
  0
SPLINE
  5
171
100
AcDbEntity
  8
0
 62
7
100
AcDbSpline
 70
8
 71
3
 72
8
 73
4
 74
0
 40
0
 40
0
 40
0
 40
0
 40
1
 40
1
 40
1
 40
1
 10
5.082500
 20
6.735020
 30
0.0
 10
4.940938
 20
6.735020
 30
0.0
 10
4.813316
 20
6.649745
 30
0.0
 10
4.759142
 20
6.518959
 30
0.0
  0
SPLINE
  5
172
100
AcDbEntity
  8
0
 62
7
100
AcDbSpline
 70
8
 71
3
 72
8
 73
4
 74
0
 40
0
 40
0
 40
0
 40
0
 40
1
 40
1
 40
1
 40
1
 10
4.759142
 20
6.518959
 30
0.0
 10
4.704969
 20
6.388173
 30
0.0
 10
4.734913
 20
6.237632
 30
0.0
 10
4.835013
 20
6.137533
 30
0.0
  0
SPLINE
  5
173
100
AcDbEntity
  8
0
 62
7
100
AcDbSpline
 70
8
 71
3
 72
8
 73
4
 74
0
 40
0
 40
0
 40
0
 40
0
 40
1
 40
1
 40
1
 40
1
 10
4.835013
 20
6.137533
 30
0.0
 10
4.935112
 20
6.037433
 30
0.0
 10
5.085653
 20
6.007489
 30
0.0
 10
5.216439
 20
6.061662
 30
0.0
  0
SPLINE
  5
174
100
AcDbEntity
  8
0
 62
7
100
AcDbSpline
 70
8
 71
3
 72
8
 73
4
 74
0
 40
0
 40
0
 40
0
 40
0
 40
1
 40
1
 40
1
 40
1
 10
5.216439
 20
6.061662
 30
0.0
 10
5.347225
 20
6.115836
 30
0.0
 10
5.432500
 20
6.243458
 30
0.0
 10
5.432500
 20
6.385020
 30
0.0
  0
SPLINE
  5
175
100
AcDbEntity
  8
0
 62
7
100
AcDbSpline
 70
8
 71
3
 72
8
 73
4
 74
0
 40
0
 40
0
 40
0
 40
0
 40
1
 40
1
 40
1
 40
1
 10
5.432500
 20
6.385020
 30
0.0
 10
5.432500
 20
6.477846
 30
0.0
 10
5.395625
 20
6.566870
 30
0.0
 10
5.329987
 20
6.632507
 30
0.0
  0
SPLINE
  5
176
100
AcDbEntity
  8
0
 62
7
100
AcDbSpline
 70
8
 71
3
 72
8
 73
4
 74
0
 40
0
 40
0
 40
0
 40
0
 40
1
 40
1
 40
1
 40
1
 10
5.329987
 20
6.632507
 30
0.0
 10
5.264350
 20
6.698145
 30
0.0
 10
5.175326
 20
6.735020
 30
0.0
 10
5.082500
 20
6.735020
 30
0.0
  0
LWPOLYLINE
  5
177
100
AcDbEntity
  8
0
 62
7
100
AcDbPolyline
 90
1
 70
1
 10
9.132500
 20
4.335020
 30
0.0
  0
LWPOLYLINE
  5
178
100
AcDbEntity
  8
0
 62
7
100
AcDbPolyline
 90
1
 70
1
 10
5.082500
 20
6.735020
 30
0.0
  0
SPLINE
  5
179
100
AcDbEntity
  8
0
 62
7
100
AcDbSpline
 70
8
 71
3
 72
8
 73
4
 74
0
 40
0
 40
0
 40
0
 40
0
 40
1
 40
1
 40
1
 40
1
 10
5.082500
 20
5.525020
 30
0.0
 10
4.920715
 20
5.525020
 30
0.0
 10
4.774861
 20
5.427563
 30
0.0
 10
4.712948
 20
5.278093
 30
0.0
  0
SPLINE
  5
17a
100
AcDbEntity
  8
0
 62
7
100
AcDbSpline
 70
8
 71
3
 72
8
 73
4
 74
0
 40
0
 40
0
 40
0
 40
0
 40
1
 40
1
 40
1
 40
1
 10
4.712948
 20
5.278093
 30
0.0
 10
4.651036
 20
5.128624
 30
0.0
 10
4.685258
 20
4.956576
 30
0.0
 10
4.799657
 20
4.842177
 30
0.0
  0
SPLINE
  5
17b
100
AcDbEntity
  8
0
 62
7
100
AcDbSpline
 70
8
 71
3
 72
8
 73
4
 74
0
 40
0
 40
0
 40
0
 40
0
 40
1
 40
1
 40
1
 40
1
 10
4.799657
 20
4.842177
 30
0.0
 10
4.914056
 20
4.727778
 30
0.0
 10
5.086104
 20
4.693556
 30
0.0
 10
5.235573
 20
4.755468
 30
0.0
  0
SPLINE
  5
17c
100
AcDbEntity
  8
0
 62
7
100
AcDbSpline
 70
8
 71
3
 72
8
 73
4
 74
0
 40
0
 40
0
 40
0
 40
0
 40
1
 40
1
 40
1
 40
1
 10
5.235573
 20
4.755468
 30
0.0
 10
5.385043
 20
4.817381
 30
0.0
 10
5.482500
 20
4.963235
 30
0.0
 10
5.482500
 20
5.125020
 30
0.0
  0
SPLINE
  5
17d
100
AcDbEntity
  8
0
 62
7
100
AcDbSpline
 70
8
 71
3
 72
8
 73
4
 74
0
 40
0
 40
0
 40
0
 40
0
 40
1
 40
1
 40
1
 40
1
 10
5.482500
 20
5.125020
 30
0.0
 10
5.482500
 20
5.345934
 30
0.0
 10
5.303414
 20
5.525020
 30
0.0
 10
5.082500
 20
5.525020
 30
0.0
  0
LWPOLYLINE
  5
17e
100
AcDbEntity
  8
0
 62
7
100
AcDbPolyline
 90
2
 70
0
 10
0.002500
 20
0.000020
 30
0.0
 10
0.002500
 20
12.857520
 30
0.0
  0
LWPOLYLINE
  5
17f
100
AcDbEntity
  8
0
 62
7
100
AcDbPolyline
 90
1
 70
1
 10
5.082500
 20
5.525020
 30
0.0
  0
SPLINE
  5
180
100
AcDbEntity
  8
0
 62
7
100
AcDbSpline
 70
8
 71
3
 72
8
 73
4
 74
0
 40
0
 40
0
 40
0
 40
0
 40
1
 40
1
 40
1
 40
1
 10
8.937500
 20
3.075020
 30
0.0
 10
8.674600
 20
3.075020
 30
0.0
 10
8.437586
 20
2.916653
 30
0.0
 10
8.336978
 20
2.673764
 30
0.0
  0
SPLINE
  5
181
100
AcDbEntity
  8
0
 62
7
100
AcDbSpline
 70
8
 71
3
 72
8
 73
4
 74
0
 40
0
 40
0
 40
0
 40
0
 40
1
 40
1
 40
1
 40
1
 10
8.336978
 20
2.673764
 30
0.0
 10
8.236371
 20
2.430876
 30
0.0
 10
8.291982
 20
2.151299
 30
0.0
 10
8.477881
 20
1.965401
 30
0.0
  0
SPLINE
  5
182
100
AcDbEntity
  8
0
 62
7
100
AcDbSpline
 70
8
 71
3
 72
8
 73
4
 74
0
 40
0
 40
0
 40
0
 40
0
 40
1
 40
1
 40
1
 40
1
 10
8.477881
 20
1.965401
 30
0.0
 10
8.663779
 20
1.779502
 30
0.0
 10
8.943356
 20
1.723891
 30
0.0
 10
9.186244
 20
1.824498
 30
0.0
  0
SPLINE
  5
183
100
AcDbEntity
  8
0
 62
7
100
AcDbSpline
 70
8
 71
3
 72
8
 73
4
 74
0
 40
0
 40
0
 40
0
 40
0
 40
1
 40
1
 40
1
 40
1
 10
9.186244
 20
1.824498
 30
0.0
 10
9.429133
 20
1.925106
 30
0.0
 10
9.587500
 20
2.162120
 30
0.0
 10
9.587500
 20
2.425020
 30
0.0
  0
SPLINE
  5
184
100
AcDbEntity
  8
0
 62
7
100
AcDbSpline
 70
8
 71
3
 72
8
 73
4
 74
0
 40
0
 40
0
 40
0
 40
0
 40
1
 40
1
 40
1
 40
1
 10
9.587500
 20
2.425020
 30
0.0
 10
9.587500
 20
2.597411
 30
0.0
 10
9.519018
 20
2.762741
 30
0.0
 10
9.397119
 20
2.884639
 30
0.0
  0
SPLINE
  5
185
100
AcDbEntity
  8
0
 62
7
100
AcDbSpline
 70
8
 71
3
 72
8
 73
4
 74
0
 40
0
 40
0
 40
0
 40
0
 40
1
 40
1
 40
1
 40
1
 10
9.397119
 20
2.884639
 30
0.0
 10
9.275221
 20
3.006538
 30
0.0
 10
9.109891
 20
3.075020
 30
0.0
 10
8.937500
 20
3.075020
 30
0.0
  0
LWPOLYLINE
  5
186
100
AcDbEntity
  8
0
 62
7
100
AcDbPolyline
 90
2
 70
0
 10
0.817500
 20
12.350020
 30
0.0
 10
0.587500
 20
12.350020
 30
0.0
  0
SPLINE
  5
187
100
AcDbEntity
  8
0
 62
7
100
AcDbSpline
 70
8
 71
3
 72
8
 73
4
 74
0
 40
0
 40
0
 40
0
 40
0
 40
1
 40
1
 40
1
 40
1
 10
0.432500
 20
1.965020
 30
0.0
 10
0.355652
 20
1.965020
 30
0.0
 10
0.286371
 20
1.918728
 30
0.0
 10
0.256963
 20
1.847730
 30
0.0
  0
SPLINE
  5
188
100
AcDbEntity
  8
0
 62
7
100
AcDbSpline
 70
8
 71
3
 72
8
 73
4
 74
0
 40
0
 40
0
 40
0
 40
0
 40
1
 40
1
 40
1
 40
1
 10
0.256963
 20
1.847730
 30
0.0
 10
0.227554
 20
1.776732
 30
0.0
 10
0.243810
 20
1.695009
 30
0.0
 10
0.298150
 20
1.640670
 30
0.0
  0
SPLINE
  5
189
100
AcDbEntity
  8
0
 62
7
100
AcDbSpline
 70
8
 71
3
 72
8
 73
4
 74
0
 40
0
 40
0
 40
0
 40
0
 40
1
 40
1
 40
1
 40
1
 10
0.298150
 20
1.640670
 30
0.0
 10
0.352489
 20
1.586330
 30
0.0
 10
0.434212
 20
1.570074
 30
0.0
 10
0.505210
 20
1.599483
 30
0.0
  0
SPLINE
  5
18a
100
AcDbEntity
  8
0
 62
7
100
AcDbSpline
 70
8
 71
3
 72
8
 73
4
 74
0
 40
0
 40
0
 40
0
 40
0
 40
1
 40
1
 40
1
 40
1
 10
0.505210
 20
1.599483
 30
0.0
 10
0.576208
 20
1.628891
 30
0.0
 10
0.622500
 20
1.698172
 30
0.0
 10
0.622500
 20
1.775020
 30
0.0
  0
SPLINE
  5
18b
100
AcDbEntity
  8
0
 62
7
100
AcDbSpline
 70
8
 71
3
 72
8
 73
4
 74
0
 40
0
 40
0
 40
0
 40
0
 40
1
 40
1
 40
1
 40
1
 10
0.622500
 20
1.775020
 30
0.0
 10
0.622500
 20
1.825411
 30
0.0
 10
0.602482
 20
1.873738
 30
0.0
 10
0.566850
 20
1.909370
 30
0.0
  0
SPLINE
  5
18c
100
AcDbEntity
  8
0
 62
7
100
AcDbSpline
 70
8
 71
3
 72
8
 73
4
 74
0
 40
0
 40
0
 40
0
 40
0
 40
1
 40
1
 40
1
 40
1
 10
0.566850
 20
1.909370
 30
0.0
 10
0.531218
 20
1.945002
 30
0.0
 10
0.482891
 20
1.965020
 30
0.0
 10
0.432500
 20
1.965020
 30
0.0
  0
LWPOLYLINE
  5
18d
100
AcDbEntity
  8
0
 62
7
100
AcDbPolyline
 90
1
 70
1
 10
8.937500
 20
3.075020
 30
0.0
  0
SPLINE
  5
18e
100
AcDbEntity
  8
0
 62
7
100
AcDbSpline
 70
8
 71
3
 72
8
 73
4
 74
0
 40
0
 40
0
 40
0
 40
0
 40
1
 40
1
 40
1
 40
1
 10
0.507500
 20
9.877520
 30
0.0
 10
0.506489
 20
9.877520
 30
0.0
 10
0.505577
 20
9.876911
 30
0.0
 10
0.505190
 20
9.875977
 30
0.0
  0
SPLINE
  5
18f
100
AcDbEntity
  8
0
 62
7
100
AcDbSpline
 70
8
 71
3
 72
8
 73
4
 74
0
 40
0
 40
0
 40
0
 40
0
 40
1
 40
1
 40
1
 40
1
 10
0.505190
 20
9.875977
 30
0.0
 10
0.504803
 20
9.875043
 30
0.0
 10
0.505017
 20
9.873967
 30
0.0
 10
0.505732
 20
9.873252
 30
0.0
  0
SPLINE
  5
190
100
AcDbEntity
  8
0
 62
7
100
AcDbSpline
 70
8
 71
3
 72
8
 73
4
 74
0
 40
0
 40
0
 40
0
 40
0
 40
1
 40
1
 40
1
 40
1
 10
0.505732
 20
9.873252
 30
0.0
 10
0.506447
 20
9.872537
 30
0.0
 10
0.507523
 20
9.872323
 30
0.0
 10
0.508457
 20
9.872710
 30
0.0
  0
SPLINE
  5
191
100
AcDbEntity
  8
0
 62
7
100
AcDbSpline
 70
8
 71
3
 72
8
 73
4
 74
0
 40
0
 40
0
 40
0
 40
0
 40
1
 40
1
 40
1
 40
1
 10
0.508457
 20
9.872710
 30
0.0
 10
0.509391
 20
9.873097
 30
0.0
 10
0.510000
 20
9.874009
 30
0.0
 10
0.510000
 20
9.875020
 30
0.0
  0
SPLINE
  5
192
100
AcDbEntity
  8
0
 62
7
100
AcDbSpline
 70
8
 71
3
 72
8
 73
4
 74
0
 40
0
 40
0
 40
0
 40
0
 40
1
 40
1
 40
1
 40
1
 10
0.510000
 20
9.875020
 30
0.0
 10
0.510000
 20
9.875683
 30
0.0
 10
0.509737
 20
9.876319
 30
0.0
 10
0.509268
 20
9.876788
 30
0.0
  0
SPLINE
  5
193
100
AcDbEntity
  8
0
 62
7
100
AcDbSpline
 70
8
 71
3
 72
8
 73
4
 74
0
 40
0
 40
0
 40
0
 40
0
 40
1
 40
1
 40
1
 40
1
 10
0.509268
 20
9.876788
 30
0.0
 10
0.508799
 20
9.877257
 30
0.0
 10
0.508163
 20
9.877520
 30
0.0
 10
0.507500
 20
9.877520
 30
0.0
  0
LWPOLYLINE
  5
194
100
AcDbEntity
  8
0
 62
7
100
AcDbPolyline
 90
1
 70
1
 10
0.432500
 20
1.965020
 30
0.0
  0
LWPOLYLINE
  5
195
100
AcDbEntity
  8
0
 62
7
100
AcDbPolyline
 90
1
 70
1
 10
0.507500
 20
9.877520
 30
0.0
  0
SPLINE
  5
196
100
AcDbEntity
  8
0
 62
7
100
AcDbSpline
 70
8
 71
3
 72
8
 73
4
 74
0
 40
0
 40
0
 40
0
 40
0
 40
1
 40
1
 40
1
 40
1
 10
9.582500
 20
12.345020
 30
0.0
 10
9.639662
 20
12.345020
 30
0.0
 10
9.692483
 20
12.375516
 30
0.0
 10
9.721064
 20
12.425020
 30
0.0
  0
SPLINE
  5
197
100
AcDbEntity
  8
0
 62
7
100
AcDbSpline
 70
8
 71
3
 72
8
 73
4
 74
0
 40
0
 40
0
 40
0
 40
0
 40
1
 40
1
 40
1
 40
1
 10
9.721064
 20
12.425020
 30
0.0
 10
9.749645
 20
12.474524
 30
0.0
 10
9.749645
 20
12.535516
 30
0.0
 10
9.721064
 20
12.585020
 30
0.0
  0
SPLINE
  5
198
100
AcDbEntity
  8
0
 62
7
100
AcDbSpline
 70
8
 71
3
 72
8
 73
4
 74
0
 40
0
 40
0
 40
0
 40
0
 40
1
 40
1
 40
1
 40
1
 10
9.721064
 20
12.585020
 30
0.0
 10
9.692483
 20
12.634524
 30
0.0
 10
9.639662
 20
12.665020
 30
0.0
 10
9.582500
 20
12.665020
 30
0.0
  0
SPLINE
  5
199
100
AcDbEntity
  8
0
 62
7
100
AcDbSpline
 70
8
 71
3
 72
8
 73
4
 74
0
 40
0
 40
0
 40
0
 40
0
 40
1
 40
1
 40
1
 40
1
 10
0.817500
 20
0.195020
 30
0.0
 10
0.874662
 20
0.195020
 30
0.0
 10
0.927483
 20
0.225516
 30
0.0
 10
0.956064
 20
0.275020
 30
0.0
  0
SPLINE
  5
19a
100
AcDbEntity
  8
0
 62
7
100
AcDbSpline
 70
8
 71
3
 72
8
 73
4
 74
0
 40
0
 40
0
 40
0
 40
0
 40
1
 40
1
 40
1
 40
1
 10
0.956064
 20
0.275020
 30
0.0
 10
0.984645
 20
0.324524
 30
0.0
 10
0.984645
 20
0.385516
 30
0.0
 10
0.956064
 20
0.435020
 30
0.0
  0
SPLINE
  5
19b
100
AcDbEntity
  8
0
 62
7
100
AcDbSpline
 70
8
 71
3
 72
8
 73
4
 74
0
 40
0
 40
0
 40
0
 40
0
 40
1
 40
1
 40
1
 40
1
 10
0.956064
 20
0.435020
 30
0.0
 10
0.927483
 20
0.484524
 30
0.0
 10
0.874662
 20
0.515020
 30
0.0
 10
0.817500
 20
0.515020
 30
0.0
  0
LWPOLYLINE
  5
19c
100
AcDbEntity
  8
0
 62
7
100
AcDbPolyline
 90
2
 70
0
 10
9.582500
 20
0.510020
 30
0.0
 10
9.352500
 20
0.510020
 30
0.0
  0
ENDSEC
  0
SECTION
  2
OBJECTS
  0
DICTIONARY
  5
C
330
0
100
AcDbDictionary
  3
ACAD_GROUP
350
D
  3
ACAD_MLINESTYLE
350
17
  0
DICTIONARY
  5
D
330
C
100
AcDbDictionary
  0
DICTIONARY
  5
1A
330
C
100
AcDbDictionary
  0
DICTIONARY
  5
17
330
C
100
AcDbDictionary
  3
STANDARD
350
18
  0
DICTIONARY
  5
19
330
C
100
AcDbDictionary
  0
ENDSEC
  0
EOF
