  0
SECTION
  2
HEADER
  9
$ACADVER
  1
AC1014
  9
$HANDSEED
  5
FFFF
  9
$INSUNITS
 70
     5
  9
$MEASUREMENT
 70
     1
  0
ENDSEC
  0
SECTION
  2
TABLES
  0
TABLE
  2
VPORT
  5
8
330
0
100
AcDbSymbolTable
 70
     4
  0
VPORT
  5
2E
330
8
100
AcDbSymbolTableRecord
100
AcDbViewportTableRecord
  2
*ACTIVE
 70
     0
 10
0.0
 20
0.0
 11
1.0
 21
1.0
 12
210.0
 22
148.5
 13
0.0
 23
0.0
 14
10.0
 24
10.0
 15
10.0
 25
10.0
 16
0.0
 26
0.0
 36
1.0
 17
0.0
 27
0.0
 37
0.0
 40
341.0
 41
1.24
 42
50.0
 43
0.0
 44
0.0
 50
0.0
 51
0.0
 71
     0
 72
   100
 73
     1
 74
     3
 75
     0
 76
     0
 77
     0
 78
     0
  0
ENDTAB
  0
TABLE
  2
LTYPE
  5
5
330
0
100
AcDbSymbolTable
 70
     1
  0
LTYPE
  5
14
330
5
100
AcDbSymbolTableRecord
100
AcDbLinetypeTableRecord
  2
BYBLOCK
 70
     0
  3

 72
    65
 73
     0
 40
0.0
  0
LTYPE
  5
15
330
5
100
AcDbSymbolTableRecord
100
AcDbLinetypeTableRecord
  2
BYLAYER
 70
     0
  3

 72
    65
 73
     0
 40
0.0
  0
LTYPE
  5
16
330
5
100
AcDbSymbolTableRecord
100
AcDbLinetypeTableRecord
  2
CONTINUOUS
 70
     0
  3
Solid line
 72
    65
 73
     0
 40
0.0
  0
ENDTAB
  0
TABLE
  2
LAYER
  5
2
100
AcDbSymbolTable
 70
1
  0
LAYER
  5
50
100
AcDbSymbolTableRecord
100
AcDbLayerTableRecord
  2
0
 70
0
  6
CONTINUOUS
  0
ENDTAB
  0
TABLE
  2
STYLE
  5
3
330
0
100
AcDbSymbolTable
 70
     1
  0
STYLE
  5
11
330
3
100
AcDbSymbolTableRecord
100
AcDbTextStyleTableRecord
  2
STANDARD
 70
     0
 40
0.0
 41
1.0
 50
0.0
 71
     0
 42
2.5
  3
txt
  4

  0
ENDTAB
  0
TABLE
  2
VIEW
  5
6
330
0
100
AcDbSymbolTable
 70
     0
  0
ENDTAB
  0
TABLE
  2
UCS
  5
7
330
0
100
AcDbSymbolTable
 70
     0
  0
ENDTAB
  0
TABLE
  2
APPID
  5
9
330
0
100
AcDbSymbolTable
 70
     2
  0
APPID
  5
12
330
9
100
AcDbSymbolTableRecord
100
AcDbRegAppTableRecord
  2
ACAD
 70
     0
  0
ENDTAB
  0
TABLE
  2
DIMSTYLE
  5
A
330
0
100
AcDbSymbolTable
 70
     1
  0
DIMSTYLE
105
27
330
A
100
AcDbSymbolTableRecord
100
AcDbDimStyleTableRecord
  2
ISO-25
 70
     0
  3

  4

  5

  6

  7

 40
1.0
 41
2.5
 42
0.625
 43
3.75
 44
1.25
 45
0.0
 46
0.0
 47
0.0
 48
0.0
140
2.5
141
2.5
142
0.0
143
0.03937007874016
144
1.0
145
0.0
146
1.0
147
0.625
 71
     0
 72
     0
 73
     0
 74
     0
 75
     0
 76
     0
 77
     1
 78
     8
170
     0
171
     3
172
     1
173
     0
174
     0
175
     0
176
     0
177
     0
178
     0
270
     2
271
     2
272
     2
273
     2
274
     3
340
11
275
     0
280
     0
281
     0
282
     0
283
     0
284
     8
285
     0
286
     0
287
     3
288
     0
  0
ENDTAB
  0
TABLE
  2
BLOCK_RECORD
  5
1
330
0
100
AcDbSymbolTable
 70
     1
  0
BLOCK_RECORD
  5
1F
330
1
100
AcDbSymbolTableRecord
100
AcDbBlockTableRecord
  2
*MODEL_SPACE
  0
BLOCK_RECORD
  5
1B
330
1
100
AcDbSymbolTableRecord
100
AcDbBlockTableRecord
  2
*PAPER_SPACE
  0
ENDTAB
  0
ENDSEC
  0
SECTION
  2
BLOCKS
  0
BLOCK
  5
20
330
1F
100
AcDbEntity
  8
0
100
AcDbBlockBegin
  2
*MODEL_SPACE
 70
     0
 10
0.0
 20
0.0
 30
0.0
  3
*MODEL_SPACE
  1

  0
ENDBLK
  5
21
330
1F
100
AcDbEntity
  8
0
100
AcDbBlockEnd
  0
BLOCK
  5
1C
330
1B
100
AcDbEntity
 67
     1
  8
0
100
AcDbBlockBegin
  2
*PAPER_SPACE
  1

  0
ENDBLK
  5
1D
330
1B
100
AcDbEntity
 67
     1
  8
0
100
AcDbBlockEnd
  0
ENDSEC
  0
SECTION
  2
ENTITIES
  0
SPLINE
  5
100
100
AcDbEntity
  8
0
 62
7
100
AcDbSpline
 70
8
 71
3
 72
8
 73
4
 74
0
 40
0
 40
0
 40
0
 40
0
 40
1
 40
1
 40
1
 40
1
 10
9.467500
 20
0.510020
 30
0.0
 10
9.402786
 20
0.510020
 30
0.0
 10
9.344444
 20
0.471037
 30
0.0
 10
9.319679
 20
0.411249
 30
0.0
  0
SPLINE
  5
101
100
AcDbEntity
  8
0
 62
7
100
AcDbSpline
 70
8
 71
3
 72
8
 73
4
 74
0
 40
0
 40
0
 40
0
 40
0
 40
1
 40
1
 40
1
 40
1
 10
9.319679
 20
0.411249
 30
0.0
 10
9.294914
 20
0.351461
 30
0.0
 10
9.308603
 20
0.282643
 30
0.0
 10
9.354363
 20
0.236883
 30
0.0
  0
SPLINE
  5
102
100
AcDbEntity
  8
0
 62
7
100
AcDbSpline
 70
8
 71
3
 72
8
 73
4
 74
0
 40
0
 40
0
 40
0
 40
0
 40
1
 40
1
 40
1
 40
1
 10
9.354363
 20
0.236883
 30
0.0
 10
9.400123
 20
0.191123
 30
0.0
 10
9.468941
 20
0.177434
 30
0.0
 10
9.528729
 20
0.202199
 30
0.0
  0
SPLINE
  5
103
100
AcDbEntity
  8
0
 62
7
100
AcDbSpline
 70
8
 71
3
 72
8
 73
4
 74
0
 40
0
 40
0
 40
0
 40
0
 40
1
 40
1
 40
1
 40
1
 10
9.528729
 20
0.202199
 30
0.0
 10
9.588517
 20
0.226964
 30
0.0
 10
9.627500
 20
0.285306
 30
0.0
 10
9.627500
 20
0.350020
 30
0.0
  0
SPLINE
  5
104
100
AcDbEntity
  8
0
 62
7
100
AcDbSpline
 70
8
 71
3
 72
8
 73
4
 74
0
 40
0
 40
0
 40
0
 40
0
 40
1
 40
1
 40
1
 40
1
 10
9.627500
 20
0.350020
 30
0.0
 10
9.627500
 20
0.392455
 30
0.0
 10
9.610643
 20
0.433151
 30
0.0
 10
9.580637
 20
0.463157
 30
0.0
  0
SPLINE
  5
105
100
AcDbEntity
  8
0
 62
7
100
AcDbSpline
 70
8
 71
3
 72
8
 73
4
 74
0
 40
0
 40
0
 40
0
 40
0
 40
1
 40
1
 40
1
 40
1
 10
9.580637
 20
0.463157
 30
0.0
 10
9.550631
 20
0.493163
 30
0.0
 10
9.509935
 20
0.510020
 30
0.0
 10
9.467500
 20
0.510020
 30
0.0
  0
LWPOLYLINE
  5
106
100
AcDbEntity
  8
0
 62
7
100
AcDbPolyline
 90
2
 70
0
 10
1.197500
 20
2.960020
 30
0.0
 10
1.092500
 20
3.585020
 30
0.0
  0
LWPOLYLINE
  5
107
100
AcDbEntity
  8
0
 62
7
100
AcDbPolyline
 90
1
 70
1
 10
9.467500
 20
0.510020
 30
0.0
  0
SPLINE
  5
108
100
AcDbEntity
  8
0
 62
7
100
AcDbSpline
 70
8
 71
3
 72
8
 73
4
 74
0
 40
0
 40
0
 40
0
 40
0
 40
1
 40
1
 40
1
 40
1
 10
0.702500
 20
0.515020
 30
0.0
 10
0.637786
 20
0.515020
 30
0.0
 10
0.579444
 20
0.476037
 30
0.0
 10
0.554679
 20
0.416249
 30
0.0
  0
SPLINE
  5
109
100
AcDbEntity
  8
0
 62
7
100
AcDbSpline
 70
8
 71
3
 72
8
 73
4
 74
0
 40
0
 40
0
 40
0
 40
0
 40
1
 40
1
 40
1
 40
1
 10
0.554679
 20
0.416249
 30
0.0
 10
0.529914
 20
0.356461
 30
0.0
 10
0.543603
 20
0.287643
 30
0.0
 10
0.589363
 20
0.241883
 30
0.0
  0
SPLINE
  5
10a
100
AcDbEntity
  8
0
 62
7
100
AcDbSpline
 70
8
 71
3
 72
8
 73
4
 74
0
 40
0
 40
0
 40
0
 40
0
 40
1
 40
1
 40
1
 40
1
 10
0.589363
 20
0.241883
 30
0.0
 10
0.635123
 20
0.196123
 30
0.0
 10
0.703941
 20
0.182434
 30
0.0
 10
0.763729
 20
0.207199
 30
0.0
  0
SPLINE
  5
10b
100
AcDbEntity
  8
0
 62
7
100
AcDbSpline
 70
8
 71
3
 72
8
 73
4
 74
0
 40
0
 40
0
 40
0
 40
0
 40
1
 40
1
 40
1
 40
1
 10
0.763729
 20
0.207199
 30
0.0
 10
0.823517
 20
0.231964
 30
0.0
 10
0.862500
 20
0.290306
 30
0.0
 10
0.862500
 20
0.355020
 30
0.0
  0
SPLINE
  5
10c
100
AcDbEntity
  8
0
 62
7
100
AcDbSpline
 70
8
 71
3
 72
8
 73
4
 74
0
 40
0
 40
0
 40
0
 40
0
 40
1
 40
1
 40
1
 40
1
 10
0.862500
 20
0.355020
 30
0.0
 10
0.862500
 20
0.397455
 30
0.0
 10
0.845643
 20
0.438151
 30
0.0
 10
0.815637
 20
0.468157
 30
0.0
  0
SPLINE
  5
10d
100
AcDbEntity
  8
0
 62
7
100
AcDbSpline
 70
8
 71
3
 72
8
 73
4
 74
0
 40
0
 40
0
 40
0
 40
0
 40
1
 40
1
 40
1
 40
1
 10
0.815637
 20
0.468157
 30
0.0
 10
0.785631
 20
0.498163
 30
0.0
 10
0.744935
 20
0.515020
 30
0.0
 10
0.702500
 20
0.515020
 30
0.0
  0
LWPOLYLINE
  5
10e
100
AcDbEntity
  8
0
 62
7
100
AcDbPolyline
 90
2
 70
0
 10
5.062500
 20
5.585020
 30
0.0
 10
5.062500
 20
5.970020
 30
0.0
  0
SPLINE
  5
10f
100
AcDbEntity
  8
0
 62
7
100
AcDbSpline
 70
8
 71
3
 72
8
 73
4
 74
0
 40
0
 40
0
 40
0
 40
0
 40
1
 40
1
 40
1
 40
1
 10
9.467500
 20
12.665020
 30
0.0
 10
9.402786
 20
12.665020
 30
0.0
 10
9.344444
 20
12.626037
 30
0.0
 10
9.319679
 20
12.566249
 30
0.0
  0
SPLINE
  5
110
100
AcDbEntity
  8
0
 62
7
100
AcDbSpline
 70
8
 71
3
 72
8
 73
4
 74
0
 40
0
 40
0
 40
0
 40
0
 40
1
 40
1
 40
1
 40
1
 10
9.319679
 20
12.566249
 30
0.0
 10
9.294914
 20
12.506461
 30
0.0
 10
9.308603
 20
12.437643
 30
0.0
 10
9.354363
 20
12.391883
 30
0.0
  0
SPLINE
  5
111
100
AcDbEntity
  8
0
 62
7
100
AcDbSpline
 70
8
 71
3
 72
8
 73
4
 74
0
 40
0
 40
0
 40
0
 40
0
 40
1
 40
1
 40
1
 40
1
 10
9.354363
 20
12.391883
 30
0.0
 10
9.400123
 20
12.346123
 30
0.0
 10
9.468941
 20
12.332434
 30
0.0
 10
9.528729
 20
12.357199
 30
0.0
  0
SPLINE
  5
112
100
AcDbEntity
  8
0
 62
7
100
AcDbSpline
 70
8
 71
3
 72
8
 73
4
 74
0
 40
0
 40
0
 40
0
 40
0
 40
1
 40
1
 40
1
 40
1
 10
9.528729
 20
12.357199
 30
0.0
 10
9.588517
 20
12.381964
 30
0.0
 10
9.627500
 20
12.440306
 30
0.0
 10
9.627500
 20
12.505020
 30
0.0
  0
SPLINE
  5
113
100
AcDbEntity
  8
0
 62
7
100
AcDbSpline
 70
8
 71
3
 72
8
 73
4
 74
0
 40
0
 40
0
 40
0
 40
0
 40
1
 40
1
 40
1
 40
1
 10
9.627500
 20
12.505020
 30
0.0
 10
9.627500
 20
12.547455
 30
0.0
 10
9.610643
 20
12.588151
 30
0.0
 10
9.580637
 20
12.618157
 30
0.0
  0
SPLINE
  5
114
100
AcDbEntity
  8
0
 62
7
100
AcDbSpline
 70
8
 71
3
 72
8
 73
4
 74
0
 40
0
 40
0
 40
0
 40
0
 40
1
 40
1
 40
1
 40
1
 10
9.580637
 20
12.618157
 30
0.0
 10
9.550631
 20
12.648163
 30
0.0
 10
9.509935
 20
12.665020
 30
0.0
 10
9.467500
 20
12.665020
 30
0.0
  0
LWPOLYLINE
  5
115
100
AcDbEntity
  8
0
 62
7
100
AcDbPolyline
 90
1
 70
1
 10
0.702500
 20
0.515020
 30
0.0
  0
LWPOLYLINE
  5
116
100
AcDbEntity
  8
0
 62
7
100
AcDbPolyline
 90
1
 70
1
 10
9.467500
 20
12.665020
 30
0.0
  0
SPLINE
  5
117
100
AcDbEntity
  8
0
 62
7
100
AcDbSpline
 70
8
 71
3
 72
8
 73
4
 74
0
 40
0
 40
0
 40
0
 40
0
 40
1
 40
1
 40
1
 40
1
 10
0.702500
 20
12.670020
 30
0.0
 10
0.637786
 20
12.670020
 30
0.0
 10
0.579444
 20
12.631037
 30
0.0
 10
0.554679
 20
12.571249
 30
0.0
  0
SPLINE
  5
118
100
AcDbEntity
  8
0
 62
7
100
AcDbSpline
 70
8
 71
3
 72
8
 73
4
 74
0
 40
0
 40
0
 40
0
 40
0
 40
1
 40
1
 40
1
 40
1
 10
0.554679
 20
12.571249
 30
0.0
 10
0.529914
 20
12.511461
 30
0.0
 10
0.543603
 20
12.442643
 30
0.0
 10
0.589363
 20
12.396883
 30
0.0
  0
SPLINE
  5
119
100
AcDbEntity
  8
0
 62
7
100
AcDbSpline
 70
8
 71
3
 72
8
 73
4
 74
0
 40
0
 40
0
 40
0
 40
0
 40
1
 40
1
 40
1
 40
1
 10
0.589363
 20
12.396883
 30
0.0
 10
0.635123
 20
12.351123
 30
0.0
 10
0.703941
 20
12.337434
 30
0.0
 10
0.763729
 20
12.362199
 30
0.0
  0
SPLINE
  5
11a
100
AcDbEntity
  8
0
 62
7
100
AcDbSpline
 70
8
 71
3
 72
8
 73
4
 74
0
 40
0
 40
0
 40
0
 40
0
 40
1
 40
1
 40
1
 40
1
 10
0.763729
 20
12.362199
 30
0.0
 10
0.823517
 20
12.386964
 30
0.0
 10
0.862500
 20
12.445306
 30
0.0
 10
0.862500
 20
12.510020
 30
0.0
  0
SPLINE
  5
11b
100
AcDbEntity
  8
0
 62
7
100
AcDbSpline
 70
8
 71
3
 72
8
 73
4
 74
0
 40
0
 40
0
 40
0
 40
0
 40
1
 40
1
 40
1
 40
1
 10
0.862500
 20
12.510020
 30
0.0
 10
0.862500
 20
12.552455
 30
0.0
 10
0.845643
 20
12.593151
 30
0.0
 10
0.815637
 20
12.623157
 30
0.0
  0
SPLINE
  5
11c
100
AcDbEntity
  8
0
 62
7
100
AcDbSpline
 70
8
 71
3
 72
8
 73
4
 74
0
 40
0
 40
0
 40
0
 40
0
 40
1
 40
1
 40
1
 40
1
 10
0.815637
 20
12.623157
 30
0.0
 10
0.785631
 20
12.653163
 30
0.0
 10
0.744935
 20
12.670020
 30
0.0
 10
0.702500
 20
12.670020
 30
0.0
  0
LWPOLYLINE
  5
11d
100
AcDbEntity
  8
0
 62
7
100
AcDbPolyline
 90
2
 70
0
 10
9.080000
 20
3.592520
 30
0.0
 10
8.975000
 20
2.967520
 30
0.0
  0
LWPOLYLINE
  5
11e
100
AcDbEntity
  8
0
 62
7
100
AcDbPolyline
 90
1
 70
1
 10
0.702500
 20
12.670020
 30
0.0
  0
LWPOLYLINE
  5
11f
100
AcDbEntity
  8
0
 62
7
100
AcDbPolyline
 90
3
 70
0
 10
0.799405
 20
11.362544
 30
0.0
 10
0.866071
 20
11.162544
 30
0.0
 10
0.932738
 20
11.362544
 30
0.0
  0
LWPOLYLINE
  5
120
100
AcDbEntity
  8
0
 62
7
100
AcDbPolyline
 90
2
 70
0
 10
0.999405
 20
11.162544
 30
0.0
 10
0.999405
 20
11.362544
 30
0.0
  0
LWPOLYLINE
  5
121
100
AcDbEntity
  8
0
 62
7
100
AcDbPolyline
 90
12
 70
1
 10
1.094643
 20
11.162544
 30
0.0
 10
1.094643
 20
11.362544
 30
0.0
 10
1.142262
 20
11.362544
 30
0.0
 10
1.170833
 20
11.353020
 30
0.0
 10
1.189881
 20
11.333972
 30
0.0
 10
1.199405
 20
11.314925
 30
0.0
 10
1.208929
 20
11.276830
 30
0.0
 10
1.208929
 20
11.248258
 30
0.0
 10
1.199405
 20
11.210163
 30
0.0
 10
1.189881
 20
11.191115
 30
0.0
 10
1.170833
 20
11.172068
 30
0.0
 10
1.142262
 20
11.162544
 30
0.0
  0
LWPOLYLINE
  5
122
100
AcDbEntity
  8
0
 62
7
100
AcDbPolyline
 90
2
 70
0
 10
1.294643
 20
11.267306
 30
0.0
 10
1.361310
 20
11.267306
 30
0.0
  0
LWPOLYLINE
  5
123
100
AcDbEntity
  8
0
 62
7
100
AcDbPolyline
 90
4
 70
0
 10
1.389881
 20
11.162544
 30
0.0
 10
1.294643
 20
11.162544
 30
0.0
 10
1.294643
 20
11.362544
 30
0.0
 10
1.389881
 20
11.362544
 30
0.0
  0
LWPOLYLINE
  5
124
100
AcDbEntity
  8
0
 62
7
100
AcDbPolyline
 90
16
 70
1
 10
1.513690
 20
11.362544
 30
0.0
 10
1.551786
 20
11.362544
 30
0.0
 10
1.570833
 20
11.353020
 30
0.0
 10
1.589881
 20
11.333972
 30
0.0
 10
1.599405
 20
11.295877
 30
0.0
 10
1.599405
 20
11.229211
 30
0.0
 10
1.589881
 20
11.191115
 30
0.0
 10
1.570833
 20
11.172068
 30
0.0
 10
1.551786
 20
11.162544
 30
0.0
 10
1.513690
 20
11.162544
 30
0.0
 10
1.494643
 20
11.172068
 30
0.0
 10
1.475595
 20
11.191115
 30
0.0
 10
1.466071
 20
11.229211
 30
0.0
 10
1.466071
 20
11.295877
 30
0.0
 10
1.475595
 20
11.333972
 30
0.0
 10
1.494643
 20
11.353020
 30
0.0
  0
LWPOLYLINE
  5
125
100
AcDbEntity
  8
0
 62
7
100
AcDbPolyline
 90
2
 70
0
 10
1.637500
 20
11.143496
 30
0.0
 10
1.789881
 20
11.143496
 30
0.0
  0
LWPOLYLINE
  5
126
100
AcDbEntity
  8
0
 62
7
100
AcDbPolyline
 90
2
 70
0
 10
1.837500
 20
11.162544
 30
0.0
 10
1.837500
 20
11.362544
 30
0.0
  0
LWPOLYLINE
  5
127
100
AcDbEntity
  8
0
 62
7
100
AcDbPolyline
 90
4
 70
0
 10
1.932738
 20
11.162544
 30
0.0
 10
1.932738
 20
11.362544
 30
0.0
 10
2.047024
 20
11.162544
 30
0.0
 10
2.047024
 20
11.362544
 30
0.0
  0
LWPOLYLINE
  5
128
100
AcDbEntity
  8
0
 62
7
100
AcDbPolyline
 90
3
 70
0
 10
7.900071
 20
11.337544
 30
0.0
 10
7.966738
 20
11.137544
 30
0.0
 10
8.033405
 20
11.337544
 30
0.0
  0
LWPOLYLINE
  5
129
100
AcDbEntity
  8
0
 62
7
100
AcDbPolyline
 90
2
 70
0
 10
8.100071
 20
11.137544
 30
0.0
 10
8.100071
 20
11.337544
 30
0.0
  0
LWPOLYLINE
  5
12a
100
AcDbEntity
  8
0
 62
7
100
AcDbPolyline
 90
12
 70
1
 10
8.195310
 20
11.137544
 30
0.0
 10
8.195310
 20
11.337544
 30
0.0
 10
8.242929
 20
11.337544
 30
0.0
 10
8.271500
 20
11.328020
 30
0.0
 10
8.290548
 20
11.308972
 30
0.0
 10
8.300071
 20
11.289925
 30
0.0
 10
8.309595
 20
11.251830
 30
0.0
 10
8.309595
 20
11.223258
 30
0.0
 10
8.300071
 20
11.185163
 30
0.0
 10
8.290548
 20
11.166115
 30
0.0
 10
8.271500
 20
11.147068
 30
0.0
 10
8.242929
 20
11.137544
 30
0.0
  0
LWPOLYLINE
  5
12b
100
AcDbEntity
  8
0
 62
7
100
AcDbPolyline
 90
2
 70
0
 10
8.395310
 20
11.242306
 30
0.0
 10
8.461976
 20
11.242306
 30
0.0
  0
LWPOLYLINE
  5
12c
100
AcDbEntity
  8
0
 62
7
100
AcDbPolyline
 90
4
 70
0
 10
8.490548
 20
11.137544
 30
0.0
 10
8.395310
 20
11.137544
 30
0.0
 10
8.395310
 20
11.337544
 30
0.0
 10
8.490548
 20
11.337544
 30
0.0
  0
LWPOLYLINE
  5
12d
100
AcDbEntity
  8
0
 62
7
100
AcDbPolyline
 90
16
 70
1
 10
8.614357
 20
11.337544
 30
0.0
 10
8.652452
 20
11.337544
 30
0.0
 10
8.671500
 20
11.328020
 30
0.0
 10
8.690548
 20
11.308972
 30
0.0
 10
8.700071
 20
11.270877
 30
0.0
 10
8.700071
 20
11.204211
 30
0.0
 10
8.690548
 20
11.166115
 30
0.0
 10
8.671500
 20
11.147068
 30
0.0
 10
8.652452
 20
11.137544
 30
0.0
 10
8.614357
 20
11.137544
 30
0.0
 10
8.595310
 20
11.147068
 30
0.0
 10
8.576262
 20
11.166115
 30
0.0
 10
8.566738
 20
11.204211
 30
0.0
 10
8.566738
 20
11.270877
 30
0.0
 10
8.576262
 20
11.308972
 30
0.0
 10
8.595310
 20
11.328020
 30
0.0
  0
LWPOLYLINE
  5
12e
100
AcDbEntity
  8
0
 62
7
100
AcDbPolyline
 90
2
 70
0
 10
8.738167
 20
11.118496
 30
0.0
 10
8.890548
 20
11.118496
 30
0.0
  0
LWPOLYLINE
  5
12f
100
AcDbEntity
  8
0
 62
7
100
AcDbPolyline
 90
16
 70
1
 10
8.976262
 20
11.337544
 30
0.0
 10
9.014357
 20
11.337544
 30
0.0
 10
9.033405
 20
11.328020
 30
0.0
 10
9.052452
 20
11.308972
 30
0.0
 10
9.061976
 20
11.270877
 30
0.0
 10
9.061976
 20
11.204211
 30
0.0
 10
9.052452
 20
11.166115
 30
0.0
 10
9.033405
 20
11.147068
 30
0.0
 10
9.014357
 20
11.137544
 30
0.0
 10
8.976262
 20
11.137544
 30
0.0
 10
8.957214
 20
11.147068
 30
0.0
 10
8.938167
 20
11.166115
 30
0.0
 10
8.928643
 20
11.204211
 30
0.0
 10
8.928643
 20
11.270877
 30
0.0
 10
8.938167
 20
11.308972
 30
0.0
 10
8.957214
 20
11.328020
 30
0.0
  0
LWPOLYLINE
  5
130
100
AcDbEntity
  8
0
 62
7
100
AcDbPolyline
 90
10
 70
0
 10
9.147690
 20
11.337544
 30
0.0
 10
9.147690
 20
11.175639
 30
0.0
 10
9.157214
 20
11.156592
 30
0.0
 10
9.166738
 20
11.147068
 30
0.0
 10
9.185786
 20
11.137544
 30
0.0
 10
9.223881
 20
11.137544
 30
0.0
 10
9.242929
 20
11.147068
 30
0.0
 10
9.252452
 20
11.156592
 30
0.0
 10
9.261976
 20
11.175639
 30
0.0
 10
9.261976
 20
11.337544
 30
0.0
  0
LWPOLYLINE
  5
131
100
AcDbEntity
  8
0
 62
7
100
AcDbPolyline
 90
2
 70
0
 10
9.328643
 20
11.337544
 30
0.0
 10
9.442929
 20
11.337544
 30
0.0
  0
LWPOLYLINE
  5
132
100
AcDbEntity
  8
0
 62
7
100
AcDbPolyline
 90
2
 70
0
 10
9.385786
 20
11.137544
 30
0.0
 10
9.385786
 20
11.337544
 30
0.0
  0
LWPOLYLINE
  5
133
100
AcDbEntity
  8
0
 62
7
100
AcDbPolyline
 90
3
 70
0
 10
7.351595
 20
1.674544
 30
0.0
 10
7.418262
 20
1.474544
 30
0.0
 10
7.484929
 20
1.674544
 30
0.0
  0
LWPOLYLINE
  5
134
100
AcDbEntity
  8
0
 62
7
100
AcDbPolyline
 90
2
 70
0
 10
7.551595
 20
1.474544
 30
0.0
 10
7.551595
 20
1.674544
 30
0.0
  0
LWPOLYLINE
  5
135
100
AcDbEntity
  8
0
 62
7
100
AcDbPolyline
 90
12
 70
1
 10
7.646833
 20
1.474544
 30
0.0
 10
7.646833
 20
1.674544
 30
0.0
 10
7.694452
 20
1.674544
 30
0.0
 10
7.723024
 20
1.665020
 30
0.0
 10
7.742071
 20
1.645972
 30
0.0
 10
7.751595
 20
1.626925
 30
0.0
 10
7.761119
 20
1.588830
 30
0.0
 10
7.761119
 20
1.560258
 30
0.0
 10
7.751595
 20
1.522163
 30
0.0
 10
7.742071
 20
1.503115
 30
0.0
 10
7.723024
 20
1.484068
 30
0.0
 10
7.694452
 20
1.474544
 30
0.0
  0
LWPOLYLINE
  5
136
100
AcDbEntity
  8
0
 62
7
100
AcDbPolyline
 90
2
 70
0
 10
7.846833
 20
1.579306
 30
0.0
 10
7.913500
 20
1.579306
 30
0.0
  0
LWPOLYLINE
  5
137
100
AcDbEntity
  8
0
 62
7
100
AcDbPolyline
 90
4
 70
0
 10
7.942071
 20
1.474544
 30
0.0
 10
7.846833
 20
1.474544
 30
0.0
 10
7.846833
 20
1.674544
 30
0.0
 10
7.942071
 20
1.674544
 30
0.0
  0
LWPOLYLINE
  5
138
100
AcDbEntity
  8
0
 62
7
100
AcDbPolyline
 90
16
 70
1
 10
8.065881
 20
1.674544
 30
0.0
 10
8.103976
 20
1.674544
 30
0.0
 10
8.123024
 20
1.665020
 30
0.0
 10
8.142071
 20
1.645972
 30
0.0
 10
8.151595
 20
1.607877
 30
0.0
 10
8.151595
 20
1.541211
 30
0.0
 10
8.142071
 20
1.503115
 30
0.0
 10
8.123024
 20
1.484068
 30
0.0
 10
8.103976
 20
1.474544
 30
0.0
 10
8.065881
 20
1.474544
 30
0.0
 10
8.046833
 20
1.484068
 30
0.0
 10
8.027786
 20
1.503115
 30
0.0
 10
8.018262
 20
1.541211
 30
0.0
 10
8.018262
 20
1.607877
 30
0.0
 10
8.027786
 20
1.645972
 30
0.0
 10
8.046833
 20
1.665020
 30
0.0
  0
LWPOLYLINE
  5
139
100
AcDbEntity
  8
0
 62
7
100
AcDbPolyline
 90
2
 70
0
 10
8.189690
 20
1.455496
 30
0.0
 10
8.342071
 20
1.455496
 30
0.0
  0
LWPOLYLINE
  5
13a
100
AcDbEntity
  8
0
 62
7
100
AcDbPolyline
 90
2
 70
0
 10
8.503976
 20
1.474544
 30
0.0
 10
8.437310
 20
1.569782
 30
0.0
  0
LWPOLYLINE
  5
13b
100
AcDbEntity
  8
0
 62
7
100
AcDbPolyline
 90
11
 70
0
 10
8.389690
 20
1.474544
 30
0.0
 10
8.389690
 20
1.674544
 30
0.0
 10
8.465881
 20
1.674544
 30
0.0
 10
8.484929
 20
1.665020
 30
0.0
 10
8.494452
 20
1.655496
 30
0.0
 10
8.503976
 20
1.636449
 30
0.0
 10
8.503976
 20
1.607877
 30
0.0
 10
8.494452
 20
1.588830
 30
0.0
 10
8.484929
 20
1.579306
 30
0.0
 10
8.465881
 20
1.569782
 30
0.0
 10
8.389690
 20
1.569782
 30
0.0
  0
LWPOLYLINE
  5
13c
100
AcDbEntity
  8
0
 62
7
100
AcDbPolyline
 90
2
 70
0
 10
8.589690
 20
1.579306
 30
0.0
 10
8.656357
 20
1.579306
 30
0.0
  0
LWPOLYLINE
  5
13d
100
AcDbEntity
  8
0
 62
7
100
AcDbPolyline
 90
4
 70
0
 10
8.684929
 20
1.474544
 30
0.0
 10
8.589690
 20
1.474544
 30
0.0
 10
8.589690
 20
1.674544
 30
0.0
 10
8.684929
 20
1.674544
 30
0.0
  0
LWPOLYLINE
  5
13e
100
AcDbEntity
  8
0
 62
7
100
AcDbPolyline
 90
2
 70
0
 10
8.742071
 20
1.674544
 30
0.0
 10
8.856357
 20
1.674544
 30
0.0
  0
LWPOLYLINE
  5
13f
100
AcDbEntity
  8
0
 62
7
100
AcDbPolyline
 90
2
 70
0
 10
8.799214
 20
1.474544
 30
0.0
 10
8.799214
 20
1.674544
 30
0.0
  0
LWPOLYLINE
  5
140
100
AcDbEntity
  8
0
 62
7
100
AcDbPolyline
 90
10
 70
0
 10
8.923024
 20
1.674544
 30
0.0
 10
8.923024
 20
1.512639
 30
0.0
 10
8.932548
 20
1.493591
 30
0.0
 10
8.942071
 20
1.484068
 30
0.0
 10
8.961119
 20
1.474544
 30
0.0
 10
8.999214
 20
1.474544
 30
0.0
 10
9.018262
 20
1.484068
 30
0.0
 10
9.027786
 20
1.493591
 30
0.0
 10
9.037310
 20
1.512639
 30
0.0
 10
9.037310
 20
1.674544
 30
0.0
  0
LWPOLYLINE
  5
141
100
AcDbEntity
  8
0
 62
7
100
AcDbPolyline
 90
2
 70
0
 10
9.246833
 20
1.474544
 30
0.0
 10
9.180167
 20
1.569782
 30
0.0
  0
LWPOLYLINE
  5
142
100
AcDbEntity
  8
0
 62
7
100
AcDbPolyline
 90
11
 70
0
 10
9.132548
 20
1.474544
 30
0.0
 10
9.132548
 20
1.674544
 30
0.0
 10
9.208738
 20
1.674544
 30
0.0
 10
9.227786
 20
1.665020
 30
0.0
 10
9.237310
 20
1.655496
 30
0.0
 10
9.246833
 20
1.636449
 30
0.0
 10
9.246833
 20
1.607877
 30
0.0
 10
9.237310
 20
1.588830
 30
0.0
 10
9.227786
 20
1.579306
 30
0.0
 10
9.208738
 20
1.569782
 30
0.0
 10
9.132548
 20
1.569782
 30
0.0
  0
LWPOLYLINE
  5
143
100
AcDbEntity
  8
0
 62
7
100
AcDbPolyline
 90
4
 70
0
 10
9.332548
 20
1.474544
 30
0.0
 10
9.332548
 20
1.674544
 30
0.0
 10
9.446833
 20
1.474544
 30
0.0
 10
9.446833
 20
1.674544
 30
0.0
  0
LWPOLYLINE
  5
144
100
AcDbEntity
  8
0
 62
7
100
AcDbPolyline
 90
12
 70
1
 10
4.492262
 20
4.374544
 30
0.0
 10
4.492262
 20
4.574544
 30
0.0
 10
4.539881
 20
4.574544
 30
0.0
 10
4.568452
 20
4.565020
 30
0.0
 10
4.587500
 20
4.545972
 30
0.0
 10
4.597024
 20
4.526925
 30
0.0
 10
4.606548
 20
4.488830
 30
0.0
 10
4.606548
 20
4.460258
 30
0.0
 10
4.597024
 20
4.422163
 30
0.0
 10
4.587500
 20
4.403115
 30
0.0
 10
4.568452
 20
4.384068
 30
0.0
 10
4.539881
 20
4.374544
 30
0.0
  0
LWPOLYLINE
  5
145
100
AcDbEntity
  8
0
 62
7
100
AcDbPolyline
 90
2
 70
0
 10
4.806548
 20
4.374544
 30
0.0
 10
4.739881
 20
4.469782
 30
0.0
  0
LWPOLYLINE
  5
146
100
AcDbEntity
  8
0
 62
7
100
AcDbPolyline
 90
11
 70
0
 10
4.692262
 20
4.374544
 30
0.0
 10
4.692262
 20
4.574544
 30
0.0
 10
4.768452
 20
4.574544
 30
0.0
 10
4.787500
 20
4.565020
 30
0.0
 10
4.797024
 20
4.555496
 30
0.0
 10
4.806548
 20
4.536449
 30
0.0
 10
4.806548
 20
4.507877
 30
0.0
 10
4.797024
 20
4.488830
 30
0.0
 10
4.787500
 20
4.479306
 30
0.0
 10
4.768452
 20
4.469782
 30
0.0
 10
4.692262
 20
4.469782
 30
0.0
  0
LWPOLYLINE
  5
147
100
AcDbEntity
  8
0
 62
7
100
AcDbPolyline
 90
2
 70
0
 10
4.930357
 20
4.469782
 30
0.0
 10
4.930357
 20
4.374544
 30
0.0
  0
LWPOLYLINE
  5
148
100
AcDbEntity
  8
0
 62
7
100
AcDbPolyline
 90
3
 70
0
 10
4.863690
 20
4.574544
 30
0.0
 10
4.930357
 20
4.469782
 30
0.0
 10
4.997024
 20
4.574544
 30
0.0
  0
LWPOLYLINE
  5
149
100
AcDbEntity
  8
0
 62
7
100
AcDbPolyline
 90
2
 70
0
 10
5.016071
 20
4.355496
 30
0.0
 10
5.168452
 20
4.355496
 30
0.0
  0
LWPOLYLINE
  5
14a
100
AcDbEntity
  8
0
 62
7
100
AcDbPolyline
 90
5
 70
0
 10
5.197024
 20
4.574544
 30
0.0
 10
5.244643
 20
4.374544
 30
0.0
 10
5.282738
 20
4.517401
 30
0.0
 10
5.320833
 20
4.374544
 30
0.0
 10
5.368452
 20
4.574544
 30
0.0
  0
LWPOLYLINE
  5
14b
100
AcDbEntity
  8
0
 62
7
100
AcDbPolyline
 90
2
 70
0
 10
5.444643
 20
4.479306
 30
0.0
 10
5.511310
 20
4.479306
 30
0.0
  0
LWPOLYLINE
  5
14c
100
AcDbEntity
  8
0
 62
7
100
AcDbPolyline
 90
4
 70
0
 10
5.539881
 20
4.374544
 30
0.0
 10
5.444643
 20
4.374544
 30
0.0
 10
5.444643
 20
4.574544
 30
0.0
 10
5.539881
 20
4.574544
 30
0.0
  0
LWPOLYLINE
  5
14d
100
AcDbEntity
  8
0
 62
7
100
AcDbPolyline
 90
2
 70
0
 10
5.597024
 20
4.574544
 30
0.0
 10
5.711310
 20
4.574544
 30
0.0
  0
LWPOLYLINE
  5
14e
100
AcDbEntity
  8
0
 62
7
100
AcDbPolyline
 90
2
 70
0
 10
5.654167
 20
4.374544
 30
0.0
 10
5.654167
 20
4.574544
 30
0.0
  0
LWPOLYLINE
  5
14f
100
AcDbEntity
  8
0
 62
7
100
AcDbPolyline
 90
16
 70
0
 10
4.754643
 20
6.786449
 30
0.0
 10
4.747500
 20
6.779306
 30
0.0
 10
4.726071
 20
6.772163
 30
0.0
 10
4.711786
 20
6.772163
 30
0.0
 10
4.690357
 20
6.779306
 30
0.0
 10
4.676071
 20
6.793591
 30
0.0
 10
4.668929
 20
6.807877
 30
0.0
 10
4.661786
 20
6.836449
 30
0.0
 10
4.661786
 20
6.857877
 30
0.0
 10
4.668929
 20
6.886449
 30
0.0
 10
4.676071
 20
6.900734
 30
0.0
 10
4.690357
 20
6.915020
 30
0.0
 10
4.711786
 20
6.922163
 30
0.0
 10
4.726071
 20
6.922163
 30
0.0
 10
4.747500
 20
6.915020
 30
0.0
 10
4.754643
 20
6.907877
 30
0.0
  0
LWPOLYLINE
  5
150
100
AcDbEntity
  8
0
 62
7
100
AcDbPolyline
 90
3
 70
0
 10
4.797500
 20
6.922163
 30
0.0
 10
4.847500
 20
6.772163
 30
0.0
 10
4.897500
 20
6.922163
 30
0.0
  0
LWPOLYLINE
  5
151
100
AcDbEntity
  8
0
 62
7
100
AcDbPolyline
 90
20
 70
1
 10
5.090357
 20
6.922163
 30
0.0
 10
5.104643
 20
6.922163
 30
0.0
 10
5.118929
 20
6.915020
 30
0.0
 10
5.126071
 20
6.907877
 30
0.0
 10
5.133214
 20
6.893592
 30
0.0
 10
5.140357
 20
6.865020
 30
0.0
 10
5.140357
 20
6.829306
 30
0.0
 10
5.133214
 20
6.800734
 30
0.0
 10
5.126071
 20
6.786449
 30
0.0
 10
5.118929
 20
6.779306
 30
0.0
 10
5.104643
 20
6.772163
 30
0.0
 10
5.090357
 20
6.772163
 30
0.0
 10
5.076071
 20
6.779306
 30
0.0
 10
5.068929
 20
6.786449
 30
0.0
 10
5.061786
 20
6.800734
 30
0.0
 10
5.054643
 20
6.829306
 30
0.0
 10
5.054643
 20
6.865020
 30
0.0
 10
5.061786
 20
6.893592
 30
0.0
 10
5.068929
 20
6.907877
 30
0.0
 10
5.076071
 20
6.915020
 30
0.0
  0
LWPOLYLINE
  5
152
100
AcDbEntity
  8
0
 62
7
100
AcDbPolyline
 90
2
 70
0
 10
5.204643
 20
6.829306
 30
0.0
 10
5.318929
 20
6.829306
 30
0.0
  0
LWPOLYLINE
  5
153
100
AcDbEntity
  8
0
 62
7
100
AcDbPolyline
 90
2
 70
0
 10
5.468929
 20
6.772163
 30
0.0
 10
5.383214
 20
6.772163
 30
0.0
  0
LWPOLYLINE
  5
154
100
AcDbEntity
  8
0
 62
7
100
AcDbPolyline
 90
5
 70
0
 10
5.426071
 20
6.772163
 30
0.0
 10
5.426071
 20
6.922163
 30
0.0
 10
5.411786
 20
6.900734
 30
0.0
 10
5.397500
 20
6.886449
 30
0.0
 10
5.383214
 20
6.879306
 30
0.0
  0
LWPOLYLINE
  5
155
100
AcDbEntity
  8
0
 62
7
100
AcDbPolyline
 90
3
 70
0
 10
5.518929
 20
6.872163
 30
0.0
 10
5.554643
 20
6.772163
 30
0.0
 10
5.590357
 20
6.872163
 30
0.0
  0
LWPOLYLINE
  5
156
100
AcDbEntity
  8
0
 62
7
100
AcDbPolyline
 90
6
 70
0
 10
4.164214
 20
1.486306
 30
0.0
 10
4.168976
 20
1.481544
 30
0.0
 10
4.164214
 20
1.476782
 30
0.0
 10
4.159452
 20
1.481544
 30
0.0
 10
4.164214
 20
1.486306
 30
0.0
 10
4.164214
 20
1.476782
 30
0.0
  0
LWPOLYLINE
  5
157
100
AcDbEntity
  8
0
 62
7
100
AcDbPolyline
 90
6
 70
0
 10
4.211833
 20
1.486306
 30
0.0
 10
4.216595
 20
1.481544
 30
0.0
 10
4.211833
 20
1.476782
 30
0.0
 10
4.207071
 20
1.481544
 30
0.0
 10
4.211833
 20
1.486306
 30
0.0
 10
4.211833
 20
1.476782
 30
0.0
  0
LWPOLYLINE
  5
158
100
AcDbEntity
  8
0
 62
7
100
AcDbPolyline
 90
6
 70
0
 10
4.259452
 20
1.486306
 30
0.0
 10
4.264214
 20
1.481544
 30
0.0
 10
4.259452
 20
1.476782
 30
0.0
 10
4.254690
 20
1.481544
 30
0.0
 10
4.259452
 20
1.486306
 30
0.0
 10
4.259452
 20
1.476782
 30
0.0
  0
LWPOLYLINE
  5
159
100
AcDbEntity
  8
0
 62
7
100
AcDbPolyline
 90
19
 70
0
 10
4.340405
 20
1.529163
 30
0.0
 10
4.354690
 20
1.524401
 30
0.0
 10
4.359452
 20
1.519639
 30
0.0
 10
4.364214
 20
1.510115
 30
0.0
 10
4.364214
 20
1.495830
 30
0.0
 10
4.359452
 20
1.486306
 30
0.0
 10
4.354690
 20
1.481544
 30
0.0
 10
4.345167
 20
1.476782
 30
0.0
 10
4.307071
 20
1.476782
 30
0.0
 10
4.307071
 20
1.576782
 30
0.0
 10
4.340405
 20
1.576782
 30
0.0
 10
4.349929
 20
1.572020
 30
0.0
 10
4.354690
 20
1.567258
 30
0.0
 10
4.359452
 20
1.557734
 30
0.0
 10
4.359452
 20
1.548210
 30
0.0
 10
4.354690
 20
1.538687
 30
0.0
 10
4.349929
 20
1.533925
 30
0.0
 10
4.340405
 20
1.529163
 30
0.0
 10
4.307071
 20
1.529163
 30
0.0
  0
LWPOLYLINE
  5
15a
100
AcDbEntity
  8
0
 62
7
100
AcDbPolyline
 90
3
 70
0
 10
4.454690
 20
1.476782
 30
0.0
 10
4.407071
 20
1.476782
 30
0.0
 10
4.407071
 20
1.576782
 30
0.0
  0
LWPOLYLINE
  5
15b
100
AcDbEntity
  8
0
 62
7
100
AcDbPolyline
 90
2
 70
0
 10
4.483262
 20
1.505353
 30
0.0
 10
4.530881
 20
1.505353
 30
0.0
  0
LWPOLYLINE
  5
15c
100
AcDbEntity
  8
0
 62
7
100
AcDbPolyline
 90
3
 70
0
 10
4.473738
 20
1.476782
 30
0.0
 10
4.507071
 20
1.576782
 30
0.0
 10
4.540405
 20
1.476782
 30
0.0
  0
LWPOLYLINE
  5
15d
100
AcDbEntity
  8
0
 62
7
100
AcDbPolyline
 90
4
 70
0
 10
4.573738
 20
1.476782
 30
0.0
 10
4.573738
 20
1.576782
 30
0.0
 10
4.630881
 20
1.476782
 30
0.0
 10
4.630881
 20
1.576782
 30
0.0
  0
LWPOLYLINE
  5
15e
100
AcDbEntity
  8
0
 62
7
100
AcDbPolyline
 90
2
 70
0
 10
4.678500
 20
1.476782
 30
0.0
 10
4.678500
 20
1.576782
 30
0.0
  0
LWPOLYLINE
  5
15f
100
AcDbEntity
  8
0
 62
7
100
AcDbPolyline
 90
2
 70
0
 10
4.735643
 20
1.476782
 30
0.0
 10
4.692786
 20
1.533925
 30
0.0
  0
LWPOLYLINE
  5
160
100
AcDbEntity
  8
0
 62
7
100
AcDbPolyline
 90
2
 70
0
 10
4.735643
 20
1.576782
 30
0.0
 10
4.678500
 20
1.519639
 30
0.0
  0
LWPOLYLINE
  5
161
100
AcDbEntity
  8
0
 62
7
100
AcDbPolyline
 90
2
 70
0
 10
4.778500
 20
1.476782
 30
0.0
 10
4.778500
 20
1.576782
 30
0.0
  0
LWPOLYLINE
  5
162
100
AcDbEntity
  8
0
 62
7
100
AcDbPolyline
 90
4
 70
0
 10
4.826119
 20
1.476782
 30
0.0
 10
4.826119
 20
1.576782
 30
0.0
 10
4.883262
 20
1.476782
 30
0.0
 10
4.883262
 20
1.576782
 30
0.0
  0
LWPOLYLINE
  5
163
100
AcDbEntity
  8
0
 62
7
100
AcDbPolyline
 90
17
 70
0
 10
4.983262
 20
1.572020
 30
0.0
 10
4.973738
 20
1.576782
 30
0.0
 10
4.959452
 20
1.576782
 30
0.0
 10
4.945167
 20
1.572020
 30
0.0
 10
4.935643
 20
1.562496
 30
0.0
 10
4.930881
 20
1.552972
 30
0.0
 10
4.926119
 20
1.533925
 30
0.0
 10
4.926119
 20
1.519639
 30
0.0
 10
4.930881
 20
1.500591
 30
0.0
 10
4.935643
 20
1.491068
 30
0.0
 10
4.945167
 20
1.481544
 30
0.0
 10
4.959452
 20
1.476782
 30
0.0
 10
4.968976
 20
1.476782
 30
0.0
 10
4.983262
 20
1.481544
 30
0.0
 10
4.988024
 20
1.486306
 30
0.0
 10
4.988024
 20
1.519639
 30
0.0
 10
4.968976
 20
1.519639
 30
0.0
  0
LWPOLYLINE
  5
164
100
AcDbEntity
  8
0
 62
7
100
AcDbPolyline
 90
16
 70
0
 10
5.164214
 20
1.486306
 30
0.0
 10
5.159452
 20
1.481544
 30
0.0
 10
5.145167
 20
1.476782
 30
0.0
 10
5.135643
 20
1.476782
 30
0.0
 10
5.121357
 20
1.481544
 30
0.0
 10
5.111833
 20
1.491068
 30
0.0
 10
5.107071
 20
1.500591
 30
0.0
 10
5.102310
 20
1.519639
 30
0.0
 10
5.102310
 20
1.533925
 30
0.0
 10
5.107071
 20
1.552972
 30
0.0
 10
5.111833
 20
1.562496
 30
0.0
 10
5.121357
 20
1.572020
 30
0.0
 10
5.135643
 20
1.576782
 30
0.0
 10
5.145167
 20
1.576782
 30
0.0
 10
5.159452
 20
1.572020
 30
0.0
 10
5.164214
 20
1.567258
 30
0.0
  0
LWPOLYLINE
  5
165
100
AcDbEntity
  8
0
 62
7
100
AcDbPolyline
 90
2
 70
0
 10
5.202310
 20
1.505353
 30
0.0
 10
5.249929
 20
1.505353
 30
0.0
  0
LWPOLYLINE
  5
166
100
AcDbEntity
  8
0
 62
7
100
AcDbPolyline
 90
3
 70
0
 10
5.192786
 20
1.476782
 30
0.0
 10
5.226119
 20
1.576782
 30
0.0
 10
5.259452
 20
1.476782
 30
0.0
  0
LWPOLYLINE
  5
167
100
AcDbEntity
  8
0
 62
7
100
AcDbPolyline
 90
3
 70
0
 10
5.340405
 20
1.476782
 30
0.0
 10
5.292786
 20
1.476782
 30
0.0
 10
5.292786
 20
1.576782
 30
0.0
  0
LWPOLYLINE
  5
168
100
AcDbEntity
  8
0
 62
7
100
AcDbPolyline
 90
2
 70
0
 10
5.373738
 20
1.476782
 30
0.0
 10
5.373738
 20
1.576782
 30
0.0
  0
LWPOLYLINE
  5
169
100
AcDbEntity
  8
0
 62
7
100
AcDbPolyline
 90
19
 70
0
 10
5.454690
 20
1.529163
 30
0.0
 10
5.468976
 20
1.524401
 30
0.0
 10
5.473738
 20
1.519639
 30
0.0
 10
5.478500
 20
1.510115
 30
0.0
 10
5.478500
 20
1.495830
 30
0.0
 10
5.473738
 20
1.486306
 30
0.0
 10
5.468976
 20
1.481544
 30
0.0
 10
5.459452
 20
1.476782
 30
0.0
 10
5.421357
 20
1.476782
 30
0.0
 10
5.421357
 20
1.576782
 30
0.0
 10
5.454690
 20
1.576782
 30
0.0
 10
5.464214
 20
1.572020
 30
0.0
 10
5.468976
 20
1.567258
 30
0.0
 10
5.473738
 20
1.557734
 30
0.0
 10
5.473738
 20
1.548210
 30
0.0
 10
5.468976
 20
1.538687
 30
0.0
 10
5.464214
 20
1.533925
 30
0.0
 10
5.454690
 20
1.529163
 30
0.0
 10
5.421357
 20
1.529163
 30
0.0
  0
LWPOLYLINE
  5
16a
100
AcDbEntity
  8
0
 62
7
100
AcDbPolyline
 90
2
 70
0
 10
5.578500
 20
1.476782
 30
0.0
 10
5.545167
 20
1.524401
 30
0.0
  0
LWPOLYLINE
  5
16b
100
AcDbEntity
  8
0
 62
7
100
AcDbPolyline
 90
11
 70
0
 10
5.521357
 20
1.476782
 30
0.0
 10
5.521357
 20
1.576782
 30
0.0
 10
5.559452
 20
1.576782
 30
0.0
 10
5.568976
 20
1.572020
 30
0.0
 10
5.573738
 20
1.567258
 30
0.0
 10
5.578500
 20
1.557734
 30
0.0
 10
5.578500
 20
1.543449
 30
0.0
 10
5.573738
 20
1.533925
 30
0.0
 10
5.568976
 20
1.529163
 30
0.0
 10
5.559452
 20
1.524401
 30
0.0
 10
5.521357
 20
1.524401
 30
0.0
  0
LWPOLYLINE
  5
16c
100
AcDbEntity
  8
0
 62
7
100
AcDbPolyline
 90
2
 70
0
 10
5.616595
 20
1.505353
 30
0.0
 10
5.664214
 20
1.505353
 30
0.0
  0
LWPOLYLINE
  5
16d
100
AcDbEntity
  8
0
 62
7
100
AcDbPolyline
 90
3
 70
0
 10
5.607071
 20
1.476782
 30
0.0
 10
5.640405
 20
1.576782
 30
0.0
 10
5.673738
 20
1.476782
 30
0.0
  0
LWPOLYLINE
  5
16e
100
AcDbEntity
  8
0
 62
7
100
AcDbPolyline
 90
2
 70
0
 10
5.692786
 20
1.576782
 30
0.0
 10
5.749929
 20
1.576782
 30
0.0
  0
LWPOLYLINE
  5
16f
100
AcDbEntity
  8
0
 62
7
100
AcDbPolyline
 90
2
 70
0
 10
5.721357
 20
1.476782
 30
0.0
 10
5.721357
 20
1.576782
 30
0.0
  0
LWPOLYLINE
  5
170
100
AcDbEntity
  8
0
 62
7
100
AcDbPolyline
 90
2
 70
0
 10
5.783262
 20
1.476782
 30
0.0
 10
5.783262
 20
1.576782
 30
0.0
  0
LWPOLYLINE
  5
171
100
AcDbEntity
  8
0
 62
7
100
AcDbPolyline
 90
16
 70
1
 10
5.849929
 20
1.576782
 30
0.0
 10
5.868976
 20
1.576782
 30
0.0
 10
5.878500
 20
1.572020
 30
0.0
 10
5.888024
 20
1.562496
 30
0.0
 10
5.892786
 20
1.543449
 30
0.0
 10
5.892786
 20
1.510115
 30
0.0
 10
5.888024
 20
1.491068
 30
0.0
 10
5.878500
 20
1.481544
 30
0.0
 10
5.868976
 20
1.476782
 30
0.0
 10
5.849929
 20
1.476782
 30
0.0
 10
5.840405
 20
1.481544
 30
0.0
 10
5.830881
 20
1.491068
 30
0.0
 10
5.826119
 20
1.510115
 30
0.0
 10
5.826119
 20
1.543449
 30
0.0
 10
5.830881
 20
1.562496
 30
0.0
 10
5.840405
 20
1.572020
 30
0.0
  0
LWPOLYLINE
  5
172
100
AcDbEntity
  8
0
 62
7
100
AcDbPolyline
 90
4
 70
0
 10
5.935643
 20
1.476782
 30
0.0
 10
5.935643
 20
1.576782
 30
0.0
 10
5.992786
 20
1.476782
 30
0.0
 10
5.992786
 20
1.576782
 30
0.0
  0
LWPOLYLINE
  5
173
100
AcDbEntity
  8
0
 62
7
100
AcDbPolyline
 90
4
 70
0
 10
6.104357
 20
1.653306
 30
0.0
 10
6.175786
 20
1.653306
 30
0.0
 10
6.175786
 20
2.081877
 30
0.0
 10
6.104357
 20
2.081877
 30
0.0
  0
LWPOLYLINE
  5
174
100
AcDbEntity
  8
0
 62
7
100
AcDbPolyline
 90
2
 70
0
 10
4.128929
 20
0.317163
 30
0.0
 10
4.128929
 20
0.217163
 30
0.0
  0
LWPOLYLINE
  5
175
100
AcDbEntity
  8
0
 62
7
100
AcDbPolyline
 90
7
 70
0
 10
4.064643
 20
0.317163
 30
0.0
 10
4.064643
 20
0.238592
 30
0.0
 10
4.071786
 20
0.224306
 30
0.0
 10
4.086071
 20
0.217163
 30
0.0
 10
4.107500
 20
0.217163
 30
0.0
 10
4.121786
 20
0.224306
 30
0.0
 10
4.128929
 20
0.231449
 30
0.0
  0
LWPOLYLINE
  5
176
100
AcDbEntity
  8
0
 62
7
100
AcDbPolyline
 90
2
 70
0
 10
4.200357
 20
0.317163
 30
0.0
 10
4.200357
 20
0.217163
 30
0.0
  0
LWPOLYLINE
  5
177
100
AcDbEntity
  8
0
 62
7
100
AcDbPolyline
 90
7
 70
0
 10
4.200357
 20
0.302877
 30
0.0
 10
4.207500
 20
0.310020
 30
0.0
 10
4.221786
 20
0.317163
 30
0.0
 10
4.243214
 20
0.317163
 30
0.0
 10
4.257500
 20
0.310020
 30
0.0
 10
4.264643
 20
0.295734
 30
0.0
 10
4.264643
 20
0.217163
 30
0.0
  0
LWPOLYLINE
  5
178
100
AcDbEntity
  8
0
 62
7
100
AcDbPolyline
 90
2
 70
0
 10
4.400357
 20
0.217163
 30
0.0
 10
4.400357
 20
0.367163
 30
0.0
  0
LWPOLYLINE
  5
179
100
AcDbEntity
  8
0
 62
7
100
AcDbPolyline
 90
12
 70
0
 10
4.400357
 20
0.224306
 30
0.0
 10
4.386071
 20
0.217163
 30
0.0
 10
4.357500
 20
0.217163
 30
0.0
 10
4.343214
 20
0.224306
 30
0.0
 10
4.336071
 20
0.231449
 30
0.0
 10
4.328928
 20
0.245734
 30
0.0
 10
4.328928
 20
0.288591
 30
0.0
 10
4.336071
 20
0.302877
 30
0.0
 10
4.343214
 20
0.310020
 30
0.0
 10
4.357500
 20
0.317163
 30
0.0
 10
4.386071
 20
0.317163
 30
0.0
 10
4.400357
 20
0.310020
 30
0.0
  0
LWPOLYLINE
  5
17a
100
AcDbEntity
  8
0
 62
7
100
AcDbPolyline
 90
13
 70
0
 10
4.528929
 20
0.224306
 30
0.0
 10
4.514643
 20
0.217163
 30
0.0
 10
4.486071
 20
0.217163
 30
0.0
 10
4.471786
 20
0.224306
 30
0.0
 10
4.464643
 20
0.238592
 30
0.0
 10
4.464643
 20
0.295734
 30
0.0
 10
4.471786
 20
0.310020
 30
0.0
 10
4.486071
 20
0.317163
 30
0.0
 10
4.514643
 20
0.317163
 30
0.0
 10
4.528929
 20
0.310020
 30
0.0
 10
4.536071
 20
0.295734
 30
0.0
 10
4.536071
 20
0.281449
 30
0.0
 10
4.464643
 20
0.267163
 30
0.0
  0
LWPOLYLINE
  5
17b
100
AcDbEntity
  8
0
 62
7
100
AcDbPolyline
 90
2
 70
0
 10
4.600357
 20
0.217163
 30
0.0
 10
4.600357
 20
0.317163
 30
0.0
  0
LWPOLYLINE
  5
17c
100
AcDbEntity
  8
0
 62
7
100
AcDbPolyline
 90
5
 70
0
 10
4.600357
 20
0.288591
 30
0.0
 10
4.607500
 20
0.302877
 30
0.0
 10
4.614643
 20
0.310020
 30
0.0
 10
4.628929
 20
0.317163
 30
0.0
 10
4.643214
 20
0.317163
 30
0.0
  0
LWPOLYLINE
  5
17d
100
AcDbEntity
  8
0
 62
7
100
AcDbPolyline
 90
16
 70
0
 10
4.686071
 20
0.224306
 30
0.0
 10
4.700357
 20
0.217163
 30
0.0
 10
4.728929
 20
0.217163
 30
0.0
 10
4.743214
 20
0.224306
 30
0.0
 10
4.750357
 20
0.238592
 30
0.0
 10
4.750357
 20
0.245734
 30
0.0
 10
4.743214
 20
0.260020
 30
0.0
 10
4.728929
 20
0.267163
 30
0.0
 10
4.707500
 20
0.267163
 30
0.0
 10
4.693214
 20
0.274306
 30
0.0
 10
4.686071
 20
0.288591
 30
0.0
 10
4.686071
 20
0.295734
 30
0.0
 10
4.693214
 20
0.310020
 30
0.0
 10
4.707500
 20
0.317163
 30
0.0
 10
4.728929
 20
0.317163
 30
0.0
 10
4.743214
 20
0.310020
 30
0.0
  0
LWPOLYLINE
  5
17e
100
AcDbEntity
  8
0
 62
7
100
AcDbPolyline
 90
12
 70
0
 10
4.878929
 20
0.224306
 30
0.0
 10
4.864643
 20
0.217163
 30
0.0
 10
4.836071
 20
0.217163
 30
0.0
 10
4.821786
 20
0.224306
 30
0.0
 10
4.814643
 20
0.231449
 30
0.0
 10
4.807500
 20
0.245734
 30
0.0
 10
4.807500
 20
0.288591
 30
0.0
 10
4.814643
 20
0.302877
 30
0.0
 10
4.821786
 20
0.310020
 30
0.0
 10
4.836071
 20
0.317163
 30
0.0
 10
4.864643
 20
0.317163
 30
0.0
 10
4.878929
 20
0.310020
 30
0.0
  0
LWPOLYLINE
  5
17f
100
AcDbEntity
  8
0
 62
7
100
AcDbPolyline
 90
16
 70
1
 10
4.964643
 20
0.217163
 30
0.0
 10
4.950357
 20
0.224306
 30
0.0
 10
4.943214
 20
0.231449
 30
0.0
 10
4.936071
 20
0.245734
 30
0.0
 10
4.936071
 20
0.288591
 30
0.0
 10
4.943214
 20
0.302877
 30
0.0
 10
4.950357
 20
0.310020
 30
0.0
 10
4.964643
 20
0.317163
 30
0.0
 10
4.986071
 20
0.317163
 30
0.0
 10
5.000357
 20
0.310020
 30
0.0
 10
5.007500
 20
0.302877
 30
0.0
 10
5.014643
 20
0.288591
 30
0.0
 10
5.014643
 20
0.245734
 30
0.0
 10
5.007500
 20
0.231449
 30
0.0
 10
5.000357
 20
0.224306
 30
0.0
 10
4.986071
 20
0.217163
 30
0.0
  0
LWPOLYLINE
  5
180
100
AcDbEntity
  8
0
 62
7
100
AcDbPolyline
 90
2
 70
0
 10
5.078929
 20
0.217163
 30
0.0
 10
5.078929
 20
0.317163
 30
0.0
  0
LWPOLYLINE
  5
181
100
AcDbEntity
  8
0
 62
7
100
AcDbPolyline
 90
5
 70
0
 10
5.078929
 20
0.288591
 30
0.0
 10
5.086071
 20
0.302877
 30
0.0
 10
5.093214
 20
0.310020
 30
0.0
 10
5.107500
 20
0.317163
 30
0.0
 10
5.121786
 20
0.317163
 30
0.0
  0
LWPOLYLINE
  5
182
100
AcDbEntity
  8
0
 62
7
100
AcDbPolyline
 90
13
 70
0
 10
5.228929
 20
0.224306
 30
0.0
 10
5.214643
 20
0.217163
 30
0.0
 10
5.186071
 20
0.217163
 30
0.0
 10
5.171786
 20
0.224306
 30
0.0
 10
5.164643
 20
0.238592
 30
0.0
 10
5.164643
 20
0.295734
 30
0.0
 10
5.171786
 20
0.310020
 30
0.0
 10
5.186071
 20
0.317163
 30
0.0
 10
5.214643
 20
0.317163
 30
0.0
 10
5.228929
 20
0.310020
 30
0.0
 10
5.236071
 20
0.295734
 30
0.0
 10
5.236071
 20
0.281449
 30
0.0
 10
5.164643
 20
0.267163
 30
0.0
  0
LWPOLYLINE
  5
183
100
AcDbEntity
  8
0
 62
7
100
AcDbPolyline
 90
16
 70
0
 10
5.293214
 20
0.224306
 30
0.0
 10
5.307500
 20
0.217163
 30
0.0
 10
5.336071
 20
0.217163
 30
0.0
 10
5.350357
 20
0.224306
 30
0.0
 10
5.357500
 20
0.238592
 30
0.0
 10
5.357500
 20
0.245734
 30
0.0
 10
5.350357
 20
0.260020
 30
0.0
 10
5.336071
 20
0.267163
 30
0.0
 10
5.314643
 20
0.267163
 30
0.0
 10
5.300357
 20
0.274306
 30
0.0
 10
5.293214
 20
0.288591
 30
0.0
 10
5.293214
 20
0.295734
 30
0.0
 10
5.300357
 20
0.310020
 30
0.0
 10
5.314643
 20
0.317163
 30
0.0
 10
5.336071
 20
0.317163
 30
0.0
 10
5.350357
 20
0.310020
 30
0.0
  0
LWPOLYLINE
  5
184
100
AcDbEntity
  8
0
 62
7
100
AcDbPolyline
 90
6
 70
0
 10
5.421786
 20
0.231449
 30
0.0
 10
5.428929
 20
0.224306
 30
0.0
 10
5.421786
 20
0.217163
 30
0.0
 10
5.414643
 20
0.224306
 30
0.0
 10
5.421786
 20
0.231449
 30
0.0
 10
5.421786
 20
0.217163
 30
0.0
  0
LWPOLYLINE
  5
185
100
AcDbEntity
  8
0
 62
7
100
AcDbPolyline
 90
16
 70
0
 10
5.486071
 20
0.224306
 30
0.0
 10
5.500357
 20
0.217163
 30
0.0
 10
5.528929
 20
0.217163
 30
0.0
 10
5.543214
 20
0.224306
 30
0.0
 10
5.550357
 20
0.238592
 30
0.0
 10
5.550357
 20
0.245734
 30
0.0
 10
5.543214
 20
0.260020
 30
0.0
 10
5.528929
 20
0.267163
 30
0.0
 10
5.507500
 20
0.267163
 30
0.0
 10
5.493214
 20
0.274306
 30
0.0
 10
5.486071
 20
0.288591
 30
0.0
 10
5.486071
 20
0.295734
 30
0.0
 10
5.493214
 20
0.310020
 30
0.0
 10
5.507500
 20
0.317163
 30
0.0
 10
5.528929
 20
0.317163
 30
0.0
 10
5.543214
 20
0.310020
 30
0.0
  0
LWPOLYLINE
  5
186
100
AcDbEntity
  8
0
 62
7
100
AcDbPolyline
 90
2
 70
0
 10
5.614643
 20
0.217163
 30
0.0
 10
5.614643
 20
0.367163
 30
0.0
  0
LWPOLYLINE
  5
187
100
AcDbEntity
  8
0
 62
7
100
AcDbPolyline
 90
7
 70
0
 10
5.678929
 20
0.217163
 30
0.0
 10
5.678929
 20
0.295734
 30
0.0
 10
5.671786
 20
0.310020
 30
0.0
 10
5.657500
 20
0.317163
 30
0.0
 10
5.636071
 20
0.317163
 30
0.0
 10
5.621786
 20
0.310020
 30
0.0
 10
5.614643
 20
0.302877
 30
0.0
  0
LWPOLYLINE
  5
188
100
AcDbEntity
  8
0
 62
7
100
AcDbPolyline
 90
16
 70
1
 10
5.771786
 20
0.217163
 30
0.0
 10
5.757500
 20
0.224306
 30
0.0
 10
5.750357
 20
0.231449
 30
0.0
 10
5.743214
 20
0.245734
 30
0.0
 10
5.743214
 20
0.288591
 30
0.0
 10
5.750357
 20
0.302877
 30
0.0
 10
5.757500
 20
0.310020
 30
0.0
 10
5.771786
 20
0.317163
 30
0.0
 10
5.793214
 20
0.317163
 30
0.0
 10
5.807500
 20
0.310020
 30
0.0
 10
5.814643
 20
0.302877
 30
0.0
 10
5.821786
 20
0.288591
 30
0.0
 10
5.821786
 20
0.245734
 30
0.0
 10
5.814643
 20
0.231449
 30
0.0
 10
5.807500
 20
0.224306
 30
0.0
 10
5.793214
 20
0.217163
 30
0.0
  0
LWPOLYLINE
  5
189
100
AcDbEntity
  8
0
 62
7
100
AcDbPolyline
 90
2
 70
0
 10
5.886071
 20
0.317163
 30
0.0
 10
5.886071
 20
0.167163
 30
0.0
  0
LWPOLYLINE
  5
18a
100
AcDbEntity
  8
0
 62
7
100
AcDbPolyline
 90
12
 70
0
 10
5.886071
 20
0.310020
 30
0.0
 10
5.900357
 20
0.317163
 30
0.0
 10
5.928929
 20
0.317163
 30
0.0
 10
5.943214
 20
0.310020
 30
0.0
 10
5.950357
 20
0.302877
 30
0.0
 10
5.957500
 20
0.288591
 30
0.0
 10
5.957500
 20
0.245734
 30
0.0
 10
5.950357
 20
0.231449
 30
0.0
 10
5.943214
 20
0.224306
 30
0.0
 10
5.928929
 20
0.217163
 30
0.0
 10
5.900357
 20
0.217163
 30
0.0
 10
5.886071
 20
0.224306
 30
0.0
  0
LWPOLYLINE
  5
18b
100
AcDbEntity
  8
0
 62
7
100
AcDbPolyline
 90
4
 70
0
 10
3.433786
 20
3.470877
 30
0.0
 10
3.433786
 20
3.542306
 30
0.0
 10
3.862357
 20
3.542306
 30
0.0
 10
3.862357
 20
3.470877
 30
0.0
  0
LWPOLYLINE
  5
18c
100
AcDbEntity
  8
0
 62
7
100
AcDbPolyline
 90
20
 70
0
 10
3.749405
 20
12.130615
 30
0.0
 10
3.806548
 20
12.111568
 30
0.0
 10
3.901786
 20
12.111568
 30
0.0
 10
3.939881
 20
12.130615
 30
0.0
 10
3.958929
 20
12.149663
 30
0.0
 10
3.977976
 20
12.187758
 30
0.0
 10
3.977976
 20
12.225853
 30
0.0
 10
3.958929
 20
12.263949
 30
0.0
 10
3.939881
 20
12.282996
 30
0.0
 10
3.901786
 20
12.302044
 30
0.0
 10
3.825595
 20
12.321091
 30
0.0
 10
3.787500
 20
12.340139
 30
0.0
 10
3.768452
 20
12.359187
 30
0.0
 10
3.749405
 20
12.397282
 30
0.0
 10
3.749405
 20
12.435377
 30
0.0
 10
3.768452
 20
12.473472
 30
0.0
 10
3.787500
 20
12.492520
 30
0.0
 10
3.825595
 20
12.511568
 30
0.0
 10
3.920833
 20
12.511568
 30
0.0
 10
3.977976
 20
12.492520
 30
0.0
  0
LWPOLYLINE
  5
18d
100
AcDbEntity
  8
0
 62
7
100
AcDbPolyline
 90
2
 70
0
 10
4.225595
 20
12.302044
 30
0.0
 10
4.225595
 20
12.111568
 30
0.0
  0
LWPOLYLINE
  5
18e
100
AcDbEntity
  8
0
 62
7
100
AcDbPolyline
 90
3
 70
0
 10
4.092262
 20
12.511568
 30
0.0
 10
4.225595
 20
12.302044
 30
0.0
 10
4.358929
 20
12.511568
 30
0.0
  0
LWPOLYLINE
  5
18f
100
AcDbEntity
  8
0
 62
7
100
AcDbPolyline
 90
4
 70
0
 10
4.492262
 20
12.111568
 30
0.0
 10
4.492262
 20
12.511568
 30
0.0
 10
4.720833
 20
12.111568
 30
0.0
 10
4.720833
 20
12.511568
 30
0.0
  0
LWPOLYLINE
  5
190
100
AcDbEntity
  8
0
 62
7
100
AcDbPolyline
 90
16
 70
0
 10
5.139881
 20
12.149663
 30
0.0
 10
5.120833
 20
12.130615
 30
0.0
 10
5.063690
 20
12.111568
 30
0.0
 10
5.025595
 20
12.111568
 30
0.0
 10
4.968452
 20
12.130615
 30
0.0
 10
4.930357
 20
12.168710
 30
0.0
 10
4.911310
 20
12.206806
 30
0.0
 10
4.892262
 20
12.282996
 30
0.0
 10
4.892262
 20
12.340139
 30
0.0
 10
4.911310
 20
12.416330
 30
0.0
 10
4.930357
 20
12.454425
 30
0.0
 10
4.968452
 20
12.492520
 30
0.0
 10
5.025595
 20
12.511568
 30
0.0
 10
5.063690
 20
12.511568
 30
0.0
 10
5.120833
 20
12.492520
 30
0.0
 10
5.139881
 20
12.473472
 30
0.0
  0
LWPOLYLINE
  5
191
100
AcDbEntity
  8
0
 62
7
100
AcDbPolyline
 90
2
 70
0
 10
5.216071
 20
12.073472
 30
0.0
 10
5.520833
 20
12.073472
 30
0.0
  0
LWPOLYLINE
  5
192
100
AcDbEntity
  8
0
 62
7
100
AcDbPolyline
 90
16
 70
1
 10
5.692262
 20
12.511568
 30
0.0
 10
5.768452
 20
12.511568
 30
0.0
 10
5.806548
 20
12.492520
 30
0.0
 10
5.844643
 20
12.454425
 30
0.0
 10
5.863690
 20
12.378234
 30
0.0
 10
5.863690
 20
12.244901
 30
0.0
 10
5.844643
 20
12.168710
 30
0.0
 10
5.806548
 20
12.130615
 30
0.0
 10
5.768452
 20
12.111568
 30
0.0
 10
5.692262
 20
12.111568
 30
0.0
 10
5.654167
 20
12.130615
 30
0.0
 10
5.616071
 20
12.168710
 30
0.0
 10
5.597024
 20
12.244901
 30
0.0
 10
5.597024
 20
12.378234
 30
0.0
 10
5.616071
 20
12.454425
 30
0.0
 10
5.654167
 20
12.492520
 30
0.0
  0
LWPOLYLINE
  5
193
100
AcDbEntity
  8
0
 62
7
100
AcDbPolyline
 90
11
 70
0
 10
6.035119
 20
12.111568
 30
0.0
 10
6.035119
 20
12.511568
 30
0.0
 10
6.187500
 20
12.511568
 30
0.0
 10
6.225595
 20
12.492520
 30
0.0
 10
6.244643
 20
12.473472
 30
0.0
 10
6.263690
 20
12.435377
 30
0.0
 10
6.263690
 20
12.378234
 30
0.0
 10
6.244643
 20
12.340139
 30
0.0
 10
6.225595
 20
12.321091
 30
0.0
 10
6.187500
 20
12.302044
 30
0.0
 10
6.035119
 20
12.302044
 30
0.0
  0
LWPOLYLINE
  5
194
100
AcDbEntity
  8
0
 62
7
100
AcDbPolyline
 90
2
 70
0
 10
6.435119
 20
12.321091
 30
0.0
 10
6.568452
 20
12.321091
 30
0.0
  0
LWPOLYLINE
  5
195
100
AcDbEntity
  8
0
 62
7
100
AcDbPolyline
 90
4
 70
0
 10
6.625595
 20
12.111568
 30
0.0
 10
6.435119
 20
12.111568
 30
0.0
 10
6.435119
 20
12.511568
 30
0.0
 10
6.625595
 20
12.511568
 30
0.0
  0
LWPOLYLINE
  5
196
100
AcDbEntity
  8
0
 62
7
100
AcDbPolyline
 90
3
 70
0
 10
0.727310
 20
1.593544
 30
0.0
 10
0.793976
 20
1.393544
 30
0.0
 10
0.860643
 20
1.593544
 30
0.0
  0
LWPOLYLINE
  5
197
100
AcDbEntity
  8
0
 62
7
100
AcDbPolyline
 90
2
 70
0
 10
0.927310
 20
1.393544
 30
0.0
 10
0.927310
 20
1.593544
 30
0.0
  0
LWPOLYLINE
  5
198
100
AcDbEntity
  8
0
 62
7
100
AcDbPolyline
 90
12
 70
1
 10
1.022548
 20
1.393544
 30
0.0
 10
1.022548
 20
1.593544
 30
0.0
 10
1.070167
 20
1.593544
 30
0.0
 10
1.098738
 20
1.584020
 30
0.0
 10
1.117786
 20
1.564972
 30
0.0
 10
1.127310
 20
1.545925
 30
0.0
 10
1.136833
 20
1.507830
 30
0.0
 10
1.136833
 20
1.479258
 30
0.0
 10
1.127310
 20
1.441163
 30
0.0
 10
1.117786
 20
1.422115
 30
0.0
 10
1.098738
 20
1.403068
 30
0.0
 10
1.070167
 20
1.393544
 30
0.0
  0
LWPOLYLINE
  5
199
100
AcDbEntity
  8
0
 62
7
100
AcDbPolyline
 90
2
 70
0
 10
1.222548
 20
1.498306
 30
0.0
 10
1.289214
 20
1.498306
 30
0.0
  0
LWPOLYLINE
  5
19a
100
AcDbEntity
  8
0
 62
7
100
AcDbPolyline
 90
4
 70
0
 10
1.317786
 20
1.393544
 30
0.0
 10
1.222548
 20
1.393544
 30
0.0
 10
1.222548
 20
1.593544
 30
0.0
 10
1.317786
 20
1.593544
 30
0.0
  0
LWPOLYLINE
  5
19b
100
AcDbEntity
  8
0
 62
7
100
AcDbPolyline
 90
16
 70
1
 10
1.441595
 20
1.593544
 30
0.0
 10
1.479690
 20
1.593544
 30
0.0
 10
1.498738
 20
1.584020
 30
0.0
 10
1.517786
 20
1.564972
 30
0.0
 10
1.527310
 20
1.526877
 30
0.0
 10
1.527310
 20
1.460210
 30
0.0
 10
1.517786
 20
1.422115
 30
0.0
 10
1.498738
 20
1.403068
 30
0.0
 10
1.479690
 20
1.393544
 30
0.0
 10
1.441595
 20
1.393544
 30
0.0
 10
1.422548
 20
1.403068
 30
0.0
 10
1.403500
 20
1.422115
 30
0.0
 10
1.393976
 20
1.460210
 30
0.0
 10
1.393976
 20
1.526877
 30
0.0
 10
1.403500
 20
1.564972
 30
0.0
 10
1.422548
 20
1.584020
 30
0.0
  0
LWPOLYLINE
  5
19c
100
AcDbEntity
  8
0
 62
7
100
AcDbPolyline
 90
2
 70
0
 10
1.565405
 20
1.374496
 30
0.0
 10
1.717786
 20
1.374496
 30
0.0
  0
LWPOLYLINE
  5
19d
100
AcDbEntity
  8
0
 62
7
100
AcDbPolyline
 90
20
 70
0
 10
1.755881
 20
1.403068
 30
0.0
 10
1.784452
 20
1.393544
 30
0.0
 10
1.832071
 20
1.393544
 30
0.0
 10
1.851119
 20
1.403068
 30
0.0
 10
1.860643
 20
1.412591
 30
0.0
 10
1.870167
 20
1.431639
 30
0.0
 10
1.870167
 20
1.450687
 30
0.0
 10
1.860643
 20
1.469734
 30
0.0
 10
1.851119
 20
1.479258
 30
0.0
 10
1.832071
 20
1.488782
 30
0.0
 10
1.793976
 20
1.498306
 30
0.0
 10
1.774929
 20
1.507830
 30
0.0
 10
1.765405
 20
1.517353
 30
0.0
 10
1.755881
 20
1.536401
 30
0.0
 10
1.755881
 20
1.555449
 30
0.0
 10
1.765405
 20
1.574496
 30
0.0
 10
1.774929
 20
1.584020
 30
0.0
 10
1.793976
 20
1.593544
 30
0.0
 10
1.841595
 20
1.593544
 30
0.0
 10
1.870167
 20
1.584020
 30
0.0
  0
LWPOLYLINE
  5
19e
100
AcDbEntity
  8
0
 62
7
100
AcDbPolyline
 90
2
 70
0
 10
1.955881
 20
1.498306
 30
0.0
 10
2.022548
 20
1.498306
 30
0.0
  0
LWPOLYLINE
  5
19f
100
AcDbEntity
  8
0
 62
7
100
AcDbPolyline
 90
4
 70
0
 10
2.051119
 20
1.393544
 30
0.0
 10
1.955881
 20
1.393544
 30
0.0
 10
1.955881
 20
1.593544
 30
0.0
 10
2.051119
 20
1.593544
 30
0.0
  0
LWPOLYLINE
  5
1a0
100
AcDbEntity
  8
0
 62
7
100
AcDbPolyline
 90
4
 70
0
 10
2.136833
 20
1.393544
 30
0.0
 10
2.136833
 20
1.593544
 30
0.0
 10
2.251119
 20
1.393544
 30
0.0
 10
2.251119
 20
1.593544
 30
0.0
  0
LWPOLYLINE
  5
1a1
100
AcDbEntity
  8
0
 62
7
100
AcDbPolyline
 90
12
 70
1
 10
2.346357
 20
1.393544
 30
0.0
 10
2.346357
 20
1.593544
 30
0.0
 10
2.393976
 20
1.593544
 30
0.0
 10
2.422548
 20
1.584020
 30
0.0
 10
2.441595
 20
1.564972
 30
0.0
 10
2.451119
 20
1.545925
 30
0.0
 10
2.460643
 20
1.507830
 30
0.0
 10
2.460643
 20
1.479258
 30
0.0
 10
2.451119
 20
1.441163
 30
0.0
 10
2.441595
 20
1.422115
 30
0.0
 10
2.422548
 20
1.403068
 30
0.0
 10
2.393976
 20
1.393544
 30
0.0
  0
LWPOLYLINE
  5
1a2
100
AcDbEntity
  8
0
 62
7
100
AcDbPolyline
 90
4
 70
0
 10
3.443786
 20
1.651163
 30
0.0
 10
3.443786
 20
1.579734
 30
0.0
 10
3.872357
 20
1.579734
 30
0.0
 10
3.872357
 20
1.651163
 30
0.0
  0
LWPOLYLINE
  5
1a3
100
AcDbEntity
  8
0
 62
7
100
AcDbPolyline
 90
13
 70
0
 10
4.513357
 20
11.598056
 30
0.0
 10
4.499071
 20
11.590913
 30
0.0
 10
4.470500
 20
11.590913
 30
0.0
 10
4.456214
 20
11.598056
 30
0.0
 10
4.449071
 20
11.612341
 30
0.0
 10
4.449071
 20
11.669484
 30
0.0
 10
4.456214
 20
11.683770
 30
0.0
 10
4.470500
 20
11.690913
 30
0.0
 10
4.499071
 20
11.690913
 30
0.0
 10
4.513357
 20
11.683770
 30
0.0
 10
4.520500
 20
11.669484
 30
0.0
 10
4.520500
 20
11.655199
 30
0.0
 10
4.449071
 20
11.640913
 30
0.0
  0
LWPOLYLINE
  5
1a4
100
AcDbEntity
  8
0
 62
7
100
AcDbPolyline
 90
2
 70
0
 10
4.563357
 20
11.690913
 30
0.0
 10
4.620500
 20
11.690913
 30
0.0
  0
LWPOLYLINE
  5
1a5
100
AcDbEntity
  8
0
 62
7
100
AcDbPolyline
 90
5
 70
0
 10
4.584786
 20
11.590913
 30
0.0
 10
4.584786
 20
11.719484
 30
0.0
 10
4.591929
 20
11.733770
 30
0.0
 10
4.606214
 20
11.740913
 30
0.0
 10
4.620500
 20
11.740913
 30
0.0
  0
LWPOLYLINE
  5
1a6
100
AcDbEntity
  8
0
 62
7
100
AcDbPolyline
 90
2
 70
0
 10
4.649071
 20
11.690913
 30
0.0
 10
4.706214
 20
11.690913
 30
0.0
  0
LWPOLYLINE
  5
1a7
100
AcDbEntity
  8
0
 62
7
100
AcDbPolyline
 90
5
 70
0
 10
4.670500
 20
11.590913
 30
0.0
 10
4.670500
 20
11.719484
 30
0.0
 10
4.677643
 20
11.733770
 30
0.0
 10
4.691929
 20
11.740913
 30
0.0
 10
4.706214
 20
11.740913
 30
0.0
  0
LWPOLYLINE
  5
1a8
100
AcDbEntity
  8
0
 62
7
100
AcDbPolyline
 90
13
 70
0
 10
4.813357
 20
11.598056
 30
0.0
 10
4.799071
 20
11.590913
 30
0.0
 10
4.770500
 20
11.590913
 30
0.0
 10
4.756214
 20
11.598056
 30
0.0
 10
4.749071
 20
11.612341
 30
0.0
 10
4.749071
 20
11.669484
 30
0.0
 10
4.756214
 20
11.683770
 30
0.0
 10
4.770500
 20
11.690913
 30
0.0
 10
4.799071
 20
11.690913
 30
0.0
 10
4.813357
 20
11.683770
 30
0.0
 10
4.820500
 20
11.669484
 30
0.0
 10
4.820500
 20
11.655199
 30
0.0
 10
4.749071
 20
11.640913
 30
0.0
  0
LWPOLYLINE
  5
1a9
100
AcDbEntity
  8
0
 62
7
100
AcDbPolyline
 90
12
 70
0
 10
4.949071
 20
11.598056
 30
0.0
 10
4.934786
 20
11.590913
 30
0.0
 10
4.906214
 20
11.590913
 30
0.0
 10
4.891929
 20
11.598056
 30
0.0
 10
4.884786
 20
11.605199
 30
0.0
 10
4.877643
 20
11.619484
 30
0.0
 10
4.877643
 20
11.662342
 30
0.0
 10
4.884786
 20
11.676627
 30
0.0
 10
4.891929
 20
11.683770
 30
0.0
 10
4.906214
 20
11.690913
 30
0.0
 10
4.934786
 20
11.690913
 30
0.0
 10
4.949071
 20
11.683770
 30
0.0
  0
LWPOLYLINE
  5
1aa
100
AcDbEntity
  8
0
 62
7
100
AcDbPolyline
 90
2
 70
0
 10
4.991929
 20
11.690913
 30
0.0
 10
5.049071
 20
11.690913
 30
0.0
  0
LWPOLYLINE
  5
1ab
100
AcDbEntity
  8
0
 62
7
100
AcDbPolyline
 90
5
 70
0
 10
5.013357
 20
11.740913
 30
0.0
 10
5.013357
 20
11.612341
 30
0.0
 10
5.020500
 20
11.598056
 30
0.0
 10
5.034786
 20
11.590913
 30
0.0
 10
5.049071
 20
11.590913
 30
0.0
  0
LWPOLYLINE
  5
1ac
100
AcDbEntity
  8
0
 62
7
100
AcDbPolyline
 90
2
 70
0
 10
5.320500
 20
11.748056
 30
0.0
 10
5.191929
 20
11.555199
 30
0.0
  0
LWPOLYLINE
  5
1ad
100
AcDbEntity
  8
0
 62
7
100
AcDbPolyline
 90
16
 70
0
 10
5.477643
 20
11.598056
 30
0.0
 10
5.491929
 20
11.590913
 30
0.0
 10
5.520500
 20
11.590913
 30
0.0
 10
5.534786
 20
11.598056
 30
0.0
 10
5.541929
 20
11.612341
 30
0.0
 10
5.541929
 20
11.619484
 30
0.0
 10
5.534786
 20
11.633770
 30
0.0
 10
5.520500
 20
11.640913
 30
0.0
 10
5.499071
 20
11.640913
 30
0.0
 10
5.484786
 20
11.648056
 30
0.0
 10
5.477643
 20
11.662342
 30
0.0
 10
5.477643
 20
11.669484
 30
0.0
 10
5.484786
 20
11.683770
 30
0.0
 10
5.499071
 20
11.690913
 30
0.0
 10
5.520500
 20
11.690913
 30
0.0
 10
5.534786
 20
11.683770
 30
0.0
  0
LWPOLYLINE
  5
1ae
100
AcDbEntity
  8
0
 62
7
100
AcDbPolyline
 90
13
 70
0
 10
5.663357
 20
11.598056
 30
0.0
 10
5.649071
 20
11.590913
 30
0.0
 10
5.620500
 20
11.590913
 30
0.0
 10
5.606214
 20
11.598056
 30
0.0
 10
5.599071
 20
11.612341
 30
0.0
 10
5.599071
 20
11.669484
 30
0.0
 10
5.606214
 20
11.683770
 30
0.0
 10
5.620500
 20
11.690913
 30
0.0
 10
5.649071
 20
11.690913
 30
0.0
 10
5.663357
 20
11.683770
 30
0.0
 10
5.670500
 20
11.669484
 30
0.0
 10
5.670500
 20
11.655199
 30
0.0
 10
5.599071
 20
11.640913
 30
0.0
  0
LWPOLYLINE
  5
1af
100
AcDbEntity
  8
0
 62
7
100
AcDbPolyline
 90
2
 70
0
 10
5.734786
 20
11.690913
 30
0.0
 10
5.734786
 20
11.590913
 30
0.0
  0
LWPOLYLINE
  5
1b0
100
AcDbEntity
  8
0
 62
7
100
AcDbPolyline
 90
7
 70
0
 10
5.734786
 20
11.676627
 30
0.0
 10
5.741929
 20
11.683770
 30
0.0
 10
5.756214
 20
11.690913
 30
0.0
 10
5.777643
 20
11.690913
 30
0.0
 10
5.791929
 20
11.683770
 30
0.0
 10
5.799071
 20
11.669484
 30
0.0
 10
5.799071
 20
11.590913
 30
0.0
  0
LWPOLYLINE
  5
1b1
100
AcDbEntity
  8
0
 62
7
100
AcDbPolyline
 90
2
 70
0
 10
5.934786
 20
11.590913
 30
0.0
 10
5.934786
 20
11.740913
 30
0.0
  0
LWPOLYLINE
  5
1b2
100
AcDbEntity
  8
0
 62
7
100
AcDbPolyline
 90
12
 70
0
 10
5.934786
 20
11.598056
 30
0.0
 10
5.920500
 20
11.590913
 30
0.0
 10
5.891929
 20
11.590913
 30
0.0
 10
5.877643
 20
11.598056
 30
0.0
 10
5.870500
 20
11.605199
 30
0.0
 10
5.863357
 20
11.619484
 30
0.0
 10
5.863357
 20
11.662342
 30
0.0
 10
5.870500
 20
11.676627
 30
0.0
 10
5.877643
 20
11.683770
 30
0.0
 10
5.891929
 20
11.690913
 30
0.0
 10
5.920500
 20
11.690913
 30
0.0
 10
5.934786
 20
11.683770
 30
0.0
  0
LWPOLYLINE
  5
1b3
100
AcDbEntity
  8
0
 62
7
100
AcDbPolyline
 90
29
 70
0
 10
4.502643
 20
11.349413
 30
0.0
 10
4.495500
 20
11.349413
 30
0.0
 10
4.481214
 20
11.356556
 30
0.0
 10
4.459786
 20
11.377984
 30
0.0
 10
4.424071
 20
11.420841
 30
0.0
 10
4.409786
 20
11.442270
 30
0.0
 10
4.402643
 20
11.463699
 30
0.0
 10
4.402643
 20
11.477984
 30
0.0
 10
4.409786
 20
11.492270
 30
0.0
 10
4.424071
 20
11.499413
 30
0.0
 10
4.431214
 20
11.499413
 30
0.0
 10
4.445500
 20
11.492270
 30
0.0
 10
4.452643
 20
11.477984
 30
0.0
 10
4.452643
 20
11.470842
 30
0.0
 10
4.445500
 20
11.456556
 30
0.0
 10
4.438357
 20
11.449413
 30
0.0
 10
4.395500
 20
11.420841
 30
0.0
 10
4.388357
 20
11.413699
 30
0.0
 10
4.381214
 20
11.399413
 30
0.0
 10
4.381214
 20
11.377984
 30
0.0
 10
4.388357
 20
11.363699
 30
0.0
 10
4.395500
 20
11.356556
 30
0.0
 10
4.409786
 20
11.349413
 30
0.0
 10
4.431214
 20
11.349413
 30
0.0
 10
4.445500
 20
11.356556
 30
0.0
 10
4.452643
 20
11.363699
 30
0.0
 10
4.474071
 20
11.392270
 30
0.0
 10
4.481214
 20
11.413699
 30
0.0
 10
4.481214
 20
11.427984
 30
0.0
  0
LWPOLYLINE
  5
1b4
100
AcDbEntity
  8
0
 62
7
100
AcDbPolyline
 90
16
 70
0
 10
4.674071
 20
11.356556
 30
0.0
 10
4.688357
 20
11.349413
 30
0.0
 10
4.716929
 20
11.349413
 30
0.0
 10
4.731214
 20
11.356556
 30
0.0
 10
4.738357
 20
11.370842
 30
0.0
 10
4.738357
 20
11.377984
 30
0.0
 10
4.731214
 20
11.392270
 30
0.0
 10
4.716929
 20
11.399413
 30
0.0
 10
4.695500
 20
11.399413
 30
0.0
 10
4.681214
 20
11.406556
 30
0.0
 10
4.674071
 20
11.420841
 30
0.0
 10
4.674071
 20
11.427984
 30
0.0
 10
4.681214
 20
11.442270
 30
0.0
 10
4.695500
 20
11.449413
 30
0.0
 10
4.716929
 20
11.449413
 30
0.0
 10
4.731214
 20
11.442270
 30
0.0
  0
LWPOLYLINE
  5
1b5
100
AcDbEntity
  8
0
 62
7
100
AcDbPolyline
 90
2
 70
0
 10
4.788357
 20
11.449413
 30
0.0
 10
4.824071
 20
11.349413
 30
0.0
  0
LWPOLYLINE
  5
1b6
100
AcDbEntity
  8
0
 62
7
100
AcDbPolyline
 90
5
 70
0
 10
4.859786
 20
11.449413
 30
0.0
 10
4.824071
 20
11.349413
 30
0.0
 10
4.809786
 20
11.313699
 30
0.0
 10
4.802643
 20
11.306556
 30
0.0
 10
4.788357
 20
11.299413
 30
0.0
  0
LWPOLYLINE
  5
1b7
100
AcDbEntity
  8
0
 62
7
100
AcDbPolyline
 90
2
 70
0
 10
4.916929
 20
11.449413
 30
0.0
 10
4.916929
 20
11.349413
 30
0.0
  0
LWPOLYLINE
  5
1b8
100
AcDbEntity
  8
0
 62
7
100
AcDbPolyline
 90
7
 70
0
 10
4.916929
 20
11.435127
 30
0.0
 10
4.924071
 20
11.442270
 30
0.0
 10
4.938357
 20
11.449413
 30
0.0
 10
4.959786
 20
11.449413
 30
0.0
 10
4.974071
 20
11.442270
 30
0.0
 10
4.981214
 20
11.427984
 30
0.0
 10
4.981214
 20
11.349413
 30
0.0
  0
LWPOLYLINE
  5
1b9
100
AcDbEntity
  8
0
 62
7
100
AcDbPolyline
 90
12
 70
0
 10
5.116929
 20
11.356556
 30
0.0
 10
5.102643
 20
11.349413
 30
0.0
 10
5.074071
 20
11.349413
 30
0.0
 10
5.059786
 20
11.356556
 30
0.0
 10
5.052643
 20
11.363699
 30
0.0
 10
5.045500
 20
11.377984
 30
0.0
 10
5.045500
 20
11.420841
 30
0.0
 10
5.052643
 20
11.435127
 30
0.0
 10
5.059786
 20
11.442270
 30
0.0
 10
5.074071
 20
11.449413
 30
0.0
 10
5.102643
 20
11.449413
 30
0.0
 10
5.116929
 20
11.442270
 30
0.0
  0
LWPOLYLINE
  5
1ba
100
AcDbEntity
  8
0
 62
7
100
AcDbPolyline
 90
2
 70
0
 10
5.295500
 20
11.349413
 30
0.0
 10
5.295500
 20
11.449413
 30
0.0
  0
LWPOLYLINE
  5
1bb
100
AcDbEntity
  8
0
 62
7
100
AcDbPolyline
 90
5
 70
0
 10
5.295500
 20
11.420841
 30
0.0
 10
5.302643
 20
11.435127
 30
0.0
 10
5.309786
 20
11.442270
 30
0.0
 10
5.324071
 20
11.449413
 30
0.0
 10
5.338357
 20
11.449413
 30
0.0
  0
LWPOLYLINE
  5
1bc
100
AcDbEntity
  8
0
 62
7
100
AcDbPolyline
 90
13
 70
0
 10
5.445500
 20
11.356556
 30
0.0
 10
5.431214
 20
11.349413
 30
0.0
 10
5.402643
 20
11.349413
 30
0.0
 10
5.388357
 20
11.356556
 30
0.0
 10
5.381214
 20
11.370842
 30
0.0
 10
5.381214
 20
11.427984
 30
0.0
 10
5.388357
 20
11.442270
 30
0.0
 10
5.402643
 20
11.449413
 30
0.0
 10
5.431214
 20
11.449413
 30
0.0
 10
5.445500
 20
11.442270
 30
0.0
 10
5.452643
 20
11.427984
 30
0.0
 10
5.452643
 20
11.413699
 30
0.0
 10
5.381214
 20
11.399413
 30
0.0
  0
LWPOLYLINE
  5
1bd
100
AcDbEntity
  8
0
 62
7
100
AcDbPolyline
 90
16
 70
0
 10
5.509786
 20
11.356556
 30
0.0
 10
5.524071
 20
11.349413
 30
0.0
 10
5.552643
 20
11.349413
 30
0.0
 10
5.566929
 20
11.356556
 30
0.0
 10
5.574071
 20
11.370842
 30
0.0
 10
5.574071
 20
11.377984
 30
0.0
 10
5.566929
 20
11.392270
 30
0.0
 10
5.552643
 20
11.399413
 30
0.0
 10
5.531214
 20
11.399413
 30
0.0
 10
5.516929
 20
11.406556
 30
0.0
 10
5.509786
 20
11.420841
 30
0.0
 10
5.509786
 20
11.427984
 30
0.0
 10
5.516929
 20
11.442270
 30
0.0
 10
5.531214
 20
11.449413
 30
0.0
 10
5.552643
 20
11.449413
 30
0.0
 10
5.566929
 20
11.442270
 30
0.0
  0
LWPOLYLINE
  5
1be
100
AcDbEntity
  8
0
 62
7
100
AcDbPolyline
 90
2
 70
0
 10
5.616929
 20
11.449413
 30
0.0
 10
5.674071
 20
11.449413
 30
0.0
  0
LWPOLYLINE
  5
1bf
100
AcDbEntity
  8
0
 62
7
100
AcDbPolyline
 90
5
 70
0
 10
5.638357
 20
11.499413
 30
0.0
 10
5.638357
 20
11.370842
 30
0.0
 10
5.645500
 20
11.356556
 30
0.0
 10
5.659786
 20
11.349413
 30
0.0
 10
5.674071
 20
11.349413
 30
0.0
  0
LWPOLYLINE
  5
1c0
100
AcDbEntity
  8
0
 62
7
100
AcDbPolyline
 90
16
 70
1
 10
5.745500
 20
11.349413
 30
0.0
 10
5.731214
 20
11.356556
 30
0.0
 10
5.724071
 20
11.363699
 30
0.0
 10
5.716929
 20
11.377984
 30
0.0
 10
5.716929
 20
11.420841
 30
0.0
 10
5.724071
 20
11.435127
 30
0.0
 10
5.731214
 20
11.442270
 30
0.0
 10
5.745500
 20
11.449413
 30
0.0
 10
5.766929
 20
11.449413
 30
0.0
 10
5.781214
 20
11.442270
 30
0.0
 10
5.788357
 20
11.435127
 30
0.0
 10
5.795500
 20
11.420841
 30
0.0
 10
5.795500
 20
11.377984
 30
0.0
 10
5.788357
 20
11.363699
 30
0.0
 10
5.781214
 20
11.356556
 30
0.0
 10
5.766929
 20
11.349413
 30
0.0
  0
LWPOLYLINE
  5
1c1
100
AcDbEntity
  8
0
 62
7
100
AcDbPolyline
 90
2
 70
0
 10
5.859786
 20
11.349413
 30
0.0
 10
5.859786
 20
11.449413
 30
0.0
  0
LWPOLYLINE
  5
1c2
100
AcDbEntity
  8
0
 62
7
100
AcDbPolyline
 90
5
 70
0
 10
5.859786
 20
11.420841
 30
0.0
 10
5.866929
 20
11.435127
 30
0.0
 10
5.874071
 20
11.442270
 30
0.0
 10
5.888357
 20
11.449413
 30
0.0
 10
5.902643
 20
11.449413
 30
0.0
  0
LWPOLYLINE
  5
1c3
100
AcDbEntity
  8
0
 62
7
100
AcDbPolyline
 90
13
 70
0
 10
6.009786
 20
11.356556
 30
0.0
 10
5.995500
 20
11.349413
 30
0.0
 10
5.966929
 20
11.349413
 30
0.0
 10
5.952643
 20
11.356556
 30
0.0
 10
5.945500
 20
11.370842
 30
0.0
 10
5.945500
 20
11.427984
 30
0.0
 10
5.952643
 20
11.442270
 30
0.0
 10
5.966929
 20
11.449413
 30
0.0
 10
5.995500
 20
11.449413
 30
0.0
 10
6.009786
 20
11.442270
 30
0.0
 10
6.016929
 20
11.427984
 30
0.0
 10
6.016929
 20
11.413699
 30
0.0
 10
5.945500
 20
11.399413
 30
0.0
  0
LWPOLYLINE
  5
1c4
100
AcDbEntity
  8
0
 62
7
100
AcDbPolyline
 90
4
 70
0
 10
5.705643
 20
3.036306
 30
0.0
 10
5.634214
 20
3.036306
 30
0.0
 10
5.634214
 20
3.464877
 30
0.0
 10
5.705643
 20
3.464877
 30
0.0
  0
LWPOLYLINE
  5
1c5
100
AcDbEntity
  8
0
 62
7
100
AcDbPolyline
 90
2
 70
0
 10
4.057500
 20
0.511210
 30
0.0
 10
4.438452
 20
0.511210
 30
0.0
  0
LWPOLYLINE
  5
1c6
100
AcDbEntity
  8
0
 62
7
100
AcDbPolyline
 90
3
 70
0
 10
4.486071
 20
1.011210
 30
0.0
 10
4.581310
 20
1.082639
 30
0.0
 10
4.676548
 20
1.011210
 30
0.0
  0
LWPOLYLINE
  5
1c7
100
AcDbEntity
  8
0
 62
7
100
AcDbPolyline
 90
20
 70
1
 10
5.319405
 20
1.058830
 30
0.0
 10
5.367024
 20
1.058830
 30
0.0
 10
5.414643
 20
1.035020
 30
0.0
 10
5.438452
 20
1.011210
 30
0.0
 10
5.462262
 20
0.963591
 30
0.0
 10
5.486071
 20
0.868353
 30
0.0
 10
5.486071
 20
0.749306
 30
0.0
 10
5.462262
 20
0.654068
 30
0.0
 10
5.438452
 20
0.606449
 30
0.0
 10
5.414643
 20
0.582639
 30
0.0
 10
5.367024
 20
0.558830
 30
0.0
 10
5.319405
 20
0.558830
 30
0.0
 10
5.271786
 20
0.582639
 30
0.0
 10
5.247976
 20
0.606449
 30
0.0
 10
5.224167
 20
0.654068
 30
0.0
 10
5.200357
 20
0.749306
 30
0.0
 10
5.200357
 20
0.868353
 30
0.0
 10
5.224167
 20
0.963591
 30
0.0
 10
5.247976
 20
1.011210
 30
0.0
 10
5.271786
 20
1.035020
 30
0.0
  0
LWPOLYLINE
  5
1c8
100
AcDbEntity
  8
0
 62
7
100
AcDbPolyline
 90
2
 70
0
 10
5.914643
 20
0.892163
 30
0.0
 10
5.914643
 20
0.558830
 30
0.0
  0
LWPOLYLINE
  5
1c9
100
AcDbEntity
  8
0
 62
7
100
AcDbPolyline
 90
3
 70
0
 10
5.795595
 20
1.082639
 30
0.0
 10
5.676548
 20
0.725496
 30
0.0
 10
5.986071
 20
0.725496
 30
0.0
  0
ENDSEC
  0
SECTION
  2
OBJECTS
  0
DICTIONARY
  5
C
330
0
100
AcDbDictionary
  3
ACAD_GROUP
350
D
  3
ACAD_MLINESTYLE
350
17
  0
DICTIONARY
  5
D
330
C
100
AcDbDictionary
  0
DICTIONARY
  5
1A
330
C
100
AcDbDictionary
  0
DICTIONARY
  5
17
330
C
100
AcDbDictionary
  3
STANDARD
350
18
  0
DICTIONARY
  5
19
330
C
100
AcDbDictionary
  0
ENDSEC
  0
EOF
