G04 #@! TF.GenerationSoftware,KiCad,Pcbnew,(5.1.4-0-10_14)*
G04 #@! TF.CreationDate,2021-07-08T18:48:46+12:00*
G04 #@! TF.ProjectId,Sync-Ope-proto,53796e63-2d4f-4706-952d-70726f746f2e,0.2*
G04 #@! TF.SameCoordinates,Original*
G04 #@! TF.FileFunction,Paste,Top*
G04 #@! TF.FilePolarity,Positive*
%FSLAX46Y46*%
G04 Gerber Fmt 4.6, Leading zero omitted, Abs format (unit mm)*
G04 Created by KiCad (PCBNEW (5.1.4-0-10_14)) date 2021-07-08 18:48:46*
%MOMM*%
%LPD*%
G04 APERTURE LIST*
%ADD10C,0.100000*%
%ADD11C,0.600000*%
G04 APERTURE END LIST*
D10*
G36*
X116409703Y-89550722D02*
G01*
X116424264Y-89552882D01*
X116438543Y-89556459D01*
X116452403Y-89561418D01*
X116465710Y-89567712D01*
X116478336Y-89575280D01*
X116490159Y-89584048D01*
X116501066Y-89593934D01*
X116510952Y-89604841D01*
X116519720Y-89616664D01*
X116527288Y-89629290D01*
X116533582Y-89642597D01*
X116538541Y-89656457D01*
X116542118Y-89670736D01*
X116544278Y-89685297D01*
X116545000Y-89700000D01*
X116545000Y-91350000D01*
X116544278Y-91364703D01*
X116542118Y-91379264D01*
X116538541Y-91393543D01*
X116533582Y-91407403D01*
X116527288Y-91420710D01*
X116519720Y-91433336D01*
X116510952Y-91445159D01*
X116501066Y-91456066D01*
X116490159Y-91465952D01*
X116478336Y-91474720D01*
X116465710Y-91482288D01*
X116452403Y-91488582D01*
X116438543Y-91493541D01*
X116424264Y-91497118D01*
X116409703Y-91499278D01*
X116395000Y-91500000D01*
X116095000Y-91500000D01*
X116080297Y-91499278D01*
X116065736Y-91497118D01*
X116051457Y-91493541D01*
X116037597Y-91488582D01*
X116024290Y-91482288D01*
X116011664Y-91474720D01*
X115999841Y-91465952D01*
X115988934Y-91456066D01*
X115979048Y-91445159D01*
X115970280Y-91433336D01*
X115962712Y-91420710D01*
X115956418Y-91407403D01*
X115951459Y-91393543D01*
X115947882Y-91379264D01*
X115945722Y-91364703D01*
X115945000Y-91350000D01*
X115945000Y-89700000D01*
X115945722Y-89685297D01*
X115947882Y-89670736D01*
X115951459Y-89656457D01*
X115956418Y-89642597D01*
X115962712Y-89629290D01*
X115970280Y-89616664D01*
X115979048Y-89604841D01*
X115988934Y-89593934D01*
X115999841Y-89584048D01*
X116011664Y-89575280D01*
X116024290Y-89567712D01*
X116037597Y-89561418D01*
X116051457Y-89556459D01*
X116065736Y-89552882D01*
X116080297Y-89550722D01*
X116095000Y-89550000D01*
X116395000Y-89550000D01*
X116409703Y-89550722D01*
X116409703Y-89550722D01*
G37*
D11*
X116245000Y-90525000D03*
D10*
G36*
X117679703Y-89550722D02*
G01*
X117694264Y-89552882D01*
X117708543Y-89556459D01*
X117722403Y-89561418D01*
X117735710Y-89567712D01*
X117748336Y-89575280D01*
X117760159Y-89584048D01*
X117771066Y-89593934D01*
X117780952Y-89604841D01*
X117789720Y-89616664D01*
X117797288Y-89629290D01*
X117803582Y-89642597D01*
X117808541Y-89656457D01*
X117812118Y-89670736D01*
X117814278Y-89685297D01*
X117815000Y-89700000D01*
X117815000Y-91350000D01*
X117814278Y-91364703D01*
X117812118Y-91379264D01*
X117808541Y-91393543D01*
X117803582Y-91407403D01*
X117797288Y-91420710D01*
X117789720Y-91433336D01*
X117780952Y-91445159D01*
X117771066Y-91456066D01*
X117760159Y-91465952D01*
X117748336Y-91474720D01*
X117735710Y-91482288D01*
X117722403Y-91488582D01*
X117708543Y-91493541D01*
X117694264Y-91497118D01*
X117679703Y-91499278D01*
X117665000Y-91500000D01*
X117365000Y-91500000D01*
X117350297Y-91499278D01*
X117335736Y-91497118D01*
X117321457Y-91493541D01*
X117307597Y-91488582D01*
X117294290Y-91482288D01*
X117281664Y-91474720D01*
X117269841Y-91465952D01*
X117258934Y-91456066D01*
X117249048Y-91445159D01*
X117240280Y-91433336D01*
X117232712Y-91420710D01*
X117226418Y-91407403D01*
X117221459Y-91393543D01*
X117217882Y-91379264D01*
X117215722Y-91364703D01*
X117215000Y-91350000D01*
X117215000Y-89700000D01*
X117215722Y-89685297D01*
X117217882Y-89670736D01*
X117221459Y-89656457D01*
X117226418Y-89642597D01*
X117232712Y-89629290D01*
X117240280Y-89616664D01*
X117249048Y-89604841D01*
X117258934Y-89593934D01*
X117269841Y-89584048D01*
X117281664Y-89575280D01*
X117294290Y-89567712D01*
X117307597Y-89561418D01*
X117321457Y-89556459D01*
X117335736Y-89552882D01*
X117350297Y-89550722D01*
X117365000Y-89550000D01*
X117665000Y-89550000D01*
X117679703Y-89550722D01*
X117679703Y-89550722D01*
G37*
D11*
X117515000Y-90525000D03*
D10*
G36*
X118949703Y-89550722D02*
G01*
X118964264Y-89552882D01*
X118978543Y-89556459D01*
X118992403Y-89561418D01*
X119005710Y-89567712D01*
X119018336Y-89575280D01*
X119030159Y-89584048D01*
X119041066Y-89593934D01*
X119050952Y-89604841D01*
X119059720Y-89616664D01*
X119067288Y-89629290D01*
X119073582Y-89642597D01*
X119078541Y-89656457D01*
X119082118Y-89670736D01*
X119084278Y-89685297D01*
X119085000Y-89700000D01*
X119085000Y-91350000D01*
X119084278Y-91364703D01*
X119082118Y-91379264D01*
X119078541Y-91393543D01*
X119073582Y-91407403D01*
X119067288Y-91420710D01*
X119059720Y-91433336D01*
X119050952Y-91445159D01*
X119041066Y-91456066D01*
X119030159Y-91465952D01*
X119018336Y-91474720D01*
X119005710Y-91482288D01*
X118992403Y-91488582D01*
X118978543Y-91493541D01*
X118964264Y-91497118D01*
X118949703Y-91499278D01*
X118935000Y-91500000D01*
X118635000Y-91500000D01*
X118620297Y-91499278D01*
X118605736Y-91497118D01*
X118591457Y-91493541D01*
X118577597Y-91488582D01*
X118564290Y-91482288D01*
X118551664Y-91474720D01*
X118539841Y-91465952D01*
X118528934Y-91456066D01*
X118519048Y-91445159D01*
X118510280Y-91433336D01*
X118502712Y-91420710D01*
X118496418Y-91407403D01*
X118491459Y-91393543D01*
X118487882Y-91379264D01*
X118485722Y-91364703D01*
X118485000Y-91350000D01*
X118485000Y-89700000D01*
X118485722Y-89685297D01*
X118487882Y-89670736D01*
X118491459Y-89656457D01*
X118496418Y-89642597D01*
X118502712Y-89629290D01*
X118510280Y-89616664D01*
X118519048Y-89604841D01*
X118528934Y-89593934D01*
X118539841Y-89584048D01*
X118551664Y-89575280D01*
X118564290Y-89567712D01*
X118577597Y-89561418D01*
X118591457Y-89556459D01*
X118605736Y-89552882D01*
X118620297Y-89550722D01*
X118635000Y-89550000D01*
X118935000Y-89550000D01*
X118949703Y-89550722D01*
X118949703Y-89550722D01*
G37*
D11*
X118785000Y-90525000D03*
D10*
G36*
X120219703Y-89550722D02*
G01*
X120234264Y-89552882D01*
X120248543Y-89556459D01*
X120262403Y-89561418D01*
X120275710Y-89567712D01*
X120288336Y-89575280D01*
X120300159Y-89584048D01*
X120311066Y-89593934D01*
X120320952Y-89604841D01*
X120329720Y-89616664D01*
X120337288Y-89629290D01*
X120343582Y-89642597D01*
X120348541Y-89656457D01*
X120352118Y-89670736D01*
X120354278Y-89685297D01*
X120355000Y-89700000D01*
X120355000Y-91350000D01*
X120354278Y-91364703D01*
X120352118Y-91379264D01*
X120348541Y-91393543D01*
X120343582Y-91407403D01*
X120337288Y-91420710D01*
X120329720Y-91433336D01*
X120320952Y-91445159D01*
X120311066Y-91456066D01*
X120300159Y-91465952D01*
X120288336Y-91474720D01*
X120275710Y-91482288D01*
X120262403Y-91488582D01*
X120248543Y-91493541D01*
X120234264Y-91497118D01*
X120219703Y-91499278D01*
X120205000Y-91500000D01*
X119905000Y-91500000D01*
X119890297Y-91499278D01*
X119875736Y-91497118D01*
X119861457Y-91493541D01*
X119847597Y-91488582D01*
X119834290Y-91482288D01*
X119821664Y-91474720D01*
X119809841Y-91465952D01*
X119798934Y-91456066D01*
X119789048Y-91445159D01*
X119780280Y-91433336D01*
X119772712Y-91420710D01*
X119766418Y-91407403D01*
X119761459Y-91393543D01*
X119757882Y-91379264D01*
X119755722Y-91364703D01*
X119755000Y-91350000D01*
X119755000Y-89700000D01*
X119755722Y-89685297D01*
X119757882Y-89670736D01*
X119761459Y-89656457D01*
X119766418Y-89642597D01*
X119772712Y-89629290D01*
X119780280Y-89616664D01*
X119789048Y-89604841D01*
X119798934Y-89593934D01*
X119809841Y-89584048D01*
X119821664Y-89575280D01*
X119834290Y-89567712D01*
X119847597Y-89561418D01*
X119861457Y-89556459D01*
X119875736Y-89552882D01*
X119890297Y-89550722D01*
X119905000Y-89550000D01*
X120205000Y-89550000D01*
X120219703Y-89550722D01*
X120219703Y-89550722D01*
G37*
D11*
X120055000Y-90525000D03*
D10*
G36*
X120219703Y-84600722D02*
G01*
X120234264Y-84602882D01*
X120248543Y-84606459D01*
X120262403Y-84611418D01*
X120275710Y-84617712D01*
X120288336Y-84625280D01*
X120300159Y-84634048D01*
X120311066Y-84643934D01*
X120320952Y-84654841D01*
X120329720Y-84666664D01*
X120337288Y-84679290D01*
X120343582Y-84692597D01*
X120348541Y-84706457D01*
X120352118Y-84720736D01*
X120354278Y-84735297D01*
X120355000Y-84750000D01*
X120355000Y-86400000D01*
X120354278Y-86414703D01*
X120352118Y-86429264D01*
X120348541Y-86443543D01*
X120343582Y-86457403D01*
X120337288Y-86470710D01*
X120329720Y-86483336D01*
X120320952Y-86495159D01*
X120311066Y-86506066D01*
X120300159Y-86515952D01*
X120288336Y-86524720D01*
X120275710Y-86532288D01*
X120262403Y-86538582D01*
X120248543Y-86543541D01*
X120234264Y-86547118D01*
X120219703Y-86549278D01*
X120205000Y-86550000D01*
X119905000Y-86550000D01*
X119890297Y-86549278D01*
X119875736Y-86547118D01*
X119861457Y-86543541D01*
X119847597Y-86538582D01*
X119834290Y-86532288D01*
X119821664Y-86524720D01*
X119809841Y-86515952D01*
X119798934Y-86506066D01*
X119789048Y-86495159D01*
X119780280Y-86483336D01*
X119772712Y-86470710D01*
X119766418Y-86457403D01*
X119761459Y-86443543D01*
X119757882Y-86429264D01*
X119755722Y-86414703D01*
X119755000Y-86400000D01*
X119755000Y-84750000D01*
X119755722Y-84735297D01*
X119757882Y-84720736D01*
X119761459Y-84706457D01*
X119766418Y-84692597D01*
X119772712Y-84679290D01*
X119780280Y-84666664D01*
X119789048Y-84654841D01*
X119798934Y-84643934D01*
X119809841Y-84634048D01*
X119821664Y-84625280D01*
X119834290Y-84617712D01*
X119847597Y-84611418D01*
X119861457Y-84606459D01*
X119875736Y-84602882D01*
X119890297Y-84600722D01*
X119905000Y-84600000D01*
X120205000Y-84600000D01*
X120219703Y-84600722D01*
X120219703Y-84600722D01*
G37*
D11*
X120055000Y-85575000D03*
D10*
G36*
X118949703Y-84600722D02*
G01*
X118964264Y-84602882D01*
X118978543Y-84606459D01*
X118992403Y-84611418D01*
X119005710Y-84617712D01*
X119018336Y-84625280D01*
X119030159Y-84634048D01*
X119041066Y-84643934D01*
X119050952Y-84654841D01*
X119059720Y-84666664D01*
X119067288Y-84679290D01*
X119073582Y-84692597D01*
X119078541Y-84706457D01*
X119082118Y-84720736D01*
X119084278Y-84735297D01*
X119085000Y-84750000D01*
X119085000Y-86400000D01*
X119084278Y-86414703D01*
X119082118Y-86429264D01*
X119078541Y-86443543D01*
X119073582Y-86457403D01*
X119067288Y-86470710D01*
X119059720Y-86483336D01*
X119050952Y-86495159D01*
X119041066Y-86506066D01*
X119030159Y-86515952D01*
X119018336Y-86524720D01*
X119005710Y-86532288D01*
X118992403Y-86538582D01*
X118978543Y-86543541D01*
X118964264Y-86547118D01*
X118949703Y-86549278D01*
X118935000Y-86550000D01*
X118635000Y-86550000D01*
X118620297Y-86549278D01*
X118605736Y-86547118D01*
X118591457Y-86543541D01*
X118577597Y-86538582D01*
X118564290Y-86532288D01*
X118551664Y-86524720D01*
X118539841Y-86515952D01*
X118528934Y-86506066D01*
X118519048Y-86495159D01*
X118510280Y-86483336D01*
X118502712Y-86470710D01*
X118496418Y-86457403D01*
X118491459Y-86443543D01*
X118487882Y-86429264D01*
X118485722Y-86414703D01*
X118485000Y-86400000D01*
X118485000Y-84750000D01*
X118485722Y-84735297D01*
X118487882Y-84720736D01*
X118491459Y-84706457D01*
X118496418Y-84692597D01*
X118502712Y-84679290D01*
X118510280Y-84666664D01*
X118519048Y-84654841D01*
X118528934Y-84643934D01*
X118539841Y-84634048D01*
X118551664Y-84625280D01*
X118564290Y-84617712D01*
X118577597Y-84611418D01*
X118591457Y-84606459D01*
X118605736Y-84602882D01*
X118620297Y-84600722D01*
X118635000Y-84600000D01*
X118935000Y-84600000D01*
X118949703Y-84600722D01*
X118949703Y-84600722D01*
G37*
D11*
X118785000Y-85575000D03*
D10*
G36*
X117679703Y-84600722D02*
G01*
X117694264Y-84602882D01*
X117708543Y-84606459D01*
X117722403Y-84611418D01*
X117735710Y-84617712D01*
X117748336Y-84625280D01*
X117760159Y-84634048D01*
X117771066Y-84643934D01*
X117780952Y-84654841D01*
X117789720Y-84666664D01*
X117797288Y-84679290D01*
X117803582Y-84692597D01*
X117808541Y-84706457D01*
X117812118Y-84720736D01*
X117814278Y-84735297D01*
X117815000Y-84750000D01*
X117815000Y-86400000D01*
X117814278Y-86414703D01*
X117812118Y-86429264D01*
X117808541Y-86443543D01*
X117803582Y-86457403D01*
X117797288Y-86470710D01*
X117789720Y-86483336D01*
X117780952Y-86495159D01*
X117771066Y-86506066D01*
X117760159Y-86515952D01*
X117748336Y-86524720D01*
X117735710Y-86532288D01*
X117722403Y-86538582D01*
X117708543Y-86543541D01*
X117694264Y-86547118D01*
X117679703Y-86549278D01*
X117665000Y-86550000D01*
X117365000Y-86550000D01*
X117350297Y-86549278D01*
X117335736Y-86547118D01*
X117321457Y-86543541D01*
X117307597Y-86538582D01*
X117294290Y-86532288D01*
X117281664Y-86524720D01*
X117269841Y-86515952D01*
X117258934Y-86506066D01*
X117249048Y-86495159D01*
X117240280Y-86483336D01*
X117232712Y-86470710D01*
X117226418Y-86457403D01*
X117221459Y-86443543D01*
X117217882Y-86429264D01*
X117215722Y-86414703D01*
X117215000Y-86400000D01*
X117215000Y-84750000D01*
X117215722Y-84735297D01*
X117217882Y-84720736D01*
X117221459Y-84706457D01*
X117226418Y-84692597D01*
X117232712Y-84679290D01*
X117240280Y-84666664D01*
X117249048Y-84654841D01*
X117258934Y-84643934D01*
X117269841Y-84634048D01*
X117281664Y-84625280D01*
X117294290Y-84617712D01*
X117307597Y-84611418D01*
X117321457Y-84606459D01*
X117335736Y-84602882D01*
X117350297Y-84600722D01*
X117365000Y-84600000D01*
X117665000Y-84600000D01*
X117679703Y-84600722D01*
X117679703Y-84600722D01*
G37*
D11*
X117515000Y-85575000D03*
D10*
G36*
X116409703Y-84600722D02*
G01*
X116424264Y-84602882D01*
X116438543Y-84606459D01*
X116452403Y-84611418D01*
X116465710Y-84617712D01*
X116478336Y-84625280D01*
X116490159Y-84634048D01*
X116501066Y-84643934D01*
X116510952Y-84654841D01*
X116519720Y-84666664D01*
X116527288Y-84679290D01*
X116533582Y-84692597D01*
X116538541Y-84706457D01*
X116542118Y-84720736D01*
X116544278Y-84735297D01*
X116545000Y-84750000D01*
X116545000Y-86400000D01*
X116544278Y-86414703D01*
X116542118Y-86429264D01*
X116538541Y-86443543D01*
X116533582Y-86457403D01*
X116527288Y-86470710D01*
X116519720Y-86483336D01*
X116510952Y-86495159D01*
X116501066Y-86506066D01*
X116490159Y-86515952D01*
X116478336Y-86524720D01*
X116465710Y-86532288D01*
X116452403Y-86538582D01*
X116438543Y-86543541D01*
X116424264Y-86547118D01*
X116409703Y-86549278D01*
X116395000Y-86550000D01*
X116095000Y-86550000D01*
X116080297Y-86549278D01*
X116065736Y-86547118D01*
X116051457Y-86543541D01*
X116037597Y-86538582D01*
X116024290Y-86532288D01*
X116011664Y-86524720D01*
X115999841Y-86515952D01*
X115988934Y-86506066D01*
X115979048Y-86495159D01*
X115970280Y-86483336D01*
X115962712Y-86470710D01*
X115956418Y-86457403D01*
X115951459Y-86443543D01*
X115947882Y-86429264D01*
X115945722Y-86414703D01*
X115945000Y-86400000D01*
X115945000Y-84750000D01*
X115945722Y-84735297D01*
X115947882Y-84720736D01*
X115951459Y-84706457D01*
X115956418Y-84692597D01*
X115962712Y-84679290D01*
X115970280Y-84666664D01*
X115979048Y-84654841D01*
X115988934Y-84643934D01*
X115999841Y-84634048D01*
X116011664Y-84625280D01*
X116024290Y-84617712D01*
X116037597Y-84611418D01*
X116051457Y-84606459D01*
X116065736Y-84602882D01*
X116080297Y-84600722D01*
X116095000Y-84600000D01*
X116395000Y-84600000D01*
X116409703Y-84600722D01*
X116409703Y-84600722D01*
G37*
D11*
X116245000Y-85575000D03*
D10*
G36*
X130909703Y-112700722D02*
G01*
X130924264Y-112702882D01*
X130938543Y-112706459D01*
X130952403Y-112711418D01*
X130965710Y-112717712D01*
X130978336Y-112725280D01*
X130990159Y-112734048D01*
X131001066Y-112743934D01*
X131010952Y-112754841D01*
X131019720Y-112766664D01*
X131027288Y-112779290D01*
X131033582Y-112792597D01*
X131038541Y-112806457D01*
X131042118Y-112820736D01*
X131044278Y-112835297D01*
X131045000Y-112850000D01*
X131045000Y-114500000D01*
X131044278Y-114514703D01*
X131042118Y-114529264D01*
X131038541Y-114543543D01*
X131033582Y-114557403D01*
X131027288Y-114570710D01*
X131019720Y-114583336D01*
X131010952Y-114595159D01*
X131001066Y-114606066D01*
X130990159Y-114615952D01*
X130978336Y-114624720D01*
X130965710Y-114632288D01*
X130952403Y-114638582D01*
X130938543Y-114643541D01*
X130924264Y-114647118D01*
X130909703Y-114649278D01*
X130895000Y-114650000D01*
X130595000Y-114650000D01*
X130580297Y-114649278D01*
X130565736Y-114647118D01*
X130551457Y-114643541D01*
X130537597Y-114638582D01*
X130524290Y-114632288D01*
X130511664Y-114624720D01*
X130499841Y-114615952D01*
X130488934Y-114606066D01*
X130479048Y-114595159D01*
X130470280Y-114583336D01*
X130462712Y-114570710D01*
X130456418Y-114557403D01*
X130451459Y-114543543D01*
X130447882Y-114529264D01*
X130445722Y-114514703D01*
X130445000Y-114500000D01*
X130445000Y-112850000D01*
X130445722Y-112835297D01*
X130447882Y-112820736D01*
X130451459Y-112806457D01*
X130456418Y-112792597D01*
X130462712Y-112779290D01*
X130470280Y-112766664D01*
X130479048Y-112754841D01*
X130488934Y-112743934D01*
X130499841Y-112734048D01*
X130511664Y-112725280D01*
X130524290Y-112717712D01*
X130537597Y-112711418D01*
X130551457Y-112706459D01*
X130565736Y-112702882D01*
X130580297Y-112700722D01*
X130595000Y-112700000D01*
X130895000Y-112700000D01*
X130909703Y-112700722D01*
X130909703Y-112700722D01*
G37*
D11*
X130745000Y-113675000D03*
D10*
G36*
X132179703Y-112700722D02*
G01*
X132194264Y-112702882D01*
X132208543Y-112706459D01*
X132222403Y-112711418D01*
X132235710Y-112717712D01*
X132248336Y-112725280D01*
X132260159Y-112734048D01*
X132271066Y-112743934D01*
X132280952Y-112754841D01*
X132289720Y-112766664D01*
X132297288Y-112779290D01*
X132303582Y-112792597D01*
X132308541Y-112806457D01*
X132312118Y-112820736D01*
X132314278Y-112835297D01*
X132315000Y-112850000D01*
X132315000Y-114500000D01*
X132314278Y-114514703D01*
X132312118Y-114529264D01*
X132308541Y-114543543D01*
X132303582Y-114557403D01*
X132297288Y-114570710D01*
X132289720Y-114583336D01*
X132280952Y-114595159D01*
X132271066Y-114606066D01*
X132260159Y-114615952D01*
X132248336Y-114624720D01*
X132235710Y-114632288D01*
X132222403Y-114638582D01*
X132208543Y-114643541D01*
X132194264Y-114647118D01*
X132179703Y-114649278D01*
X132165000Y-114650000D01*
X131865000Y-114650000D01*
X131850297Y-114649278D01*
X131835736Y-114647118D01*
X131821457Y-114643541D01*
X131807597Y-114638582D01*
X131794290Y-114632288D01*
X131781664Y-114624720D01*
X131769841Y-114615952D01*
X131758934Y-114606066D01*
X131749048Y-114595159D01*
X131740280Y-114583336D01*
X131732712Y-114570710D01*
X131726418Y-114557403D01*
X131721459Y-114543543D01*
X131717882Y-114529264D01*
X131715722Y-114514703D01*
X131715000Y-114500000D01*
X131715000Y-112850000D01*
X131715722Y-112835297D01*
X131717882Y-112820736D01*
X131721459Y-112806457D01*
X131726418Y-112792597D01*
X131732712Y-112779290D01*
X131740280Y-112766664D01*
X131749048Y-112754841D01*
X131758934Y-112743934D01*
X131769841Y-112734048D01*
X131781664Y-112725280D01*
X131794290Y-112717712D01*
X131807597Y-112711418D01*
X131821457Y-112706459D01*
X131835736Y-112702882D01*
X131850297Y-112700722D01*
X131865000Y-112700000D01*
X132165000Y-112700000D01*
X132179703Y-112700722D01*
X132179703Y-112700722D01*
G37*
D11*
X132015000Y-113675000D03*
D10*
G36*
X133449703Y-112700722D02*
G01*
X133464264Y-112702882D01*
X133478543Y-112706459D01*
X133492403Y-112711418D01*
X133505710Y-112717712D01*
X133518336Y-112725280D01*
X133530159Y-112734048D01*
X133541066Y-112743934D01*
X133550952Y-112754841D01*
X133559720Y-112766664D01*
X133567288Y-112779290D01*
X133573582Y-112792597D01*
X133578541Y-112806457D01*
X133582118Y-112820736D01*
X133584278Y-112835297D01*
X133585000Y-112850000D01*
X133585000Y-114500000D01*
X133584278Y-114514703D01*
X133582118Y-114529264D01*
X133578541Y-114543543D01*
X133573582Y-114557403D01*
X133567288Y-114570710D01*
X133559720Y-114583336D01*
X133550952Y-114595159D01*
X133541066Y-114606066D01*
X133530159Y-114615952D01*
X133518336Y-114624720D01*
X133505710Y-114632288D01*
X133492403Y-114638582D01*
X133478543Y-114643541D01*
X133464264Y-114647118D01*
X133449703Y-114649278D01*
X133435000Y-114650000D01*
X133135000Y-114650000D01*
X133120297Y-114649278D01*
X133105736Y-114647118D01*
X133091457Y-114643541D01*
X133077597Y-114638582D01*
X133064290Y-114632288D01*
X133051664Y-114624720D01*
X133039841Y-114615952D01*
X133028934Y-114606066D01*
X133019048Y-114595159D01*
X133010280Y-114583336D01*
X133002712Y-114570710D01*
X132996418Y-114557403D01*
X132991459Y-114543543D01*
X132987882Y-114529264D01*
X132985722Y-114514703D01*
X132985000Y-114500000D01*
X132985000Y-112850000D01*
X132985722Y-112835297D01*
X132987882Y-112820736D01*
X132991459Y-112806457D01*
X132996418Y-112792597D01*
X133002712Y-112779290D01*
X133010280Y-112766664D01*
X133019048Y-112754841D01*
X133028934Y-112743934D01*
X133039841Y-112734048D01*
X133051664Y-112725280D01*
X133064290Y-112717712D01*
X133077597Y-112711418D01*
X133091457Y-112706459D01*
X133105736Y-112702882D01*
X133120297Y-112700722D01*
X133135000Y-112700000D01*
X133435000Y-112700000D01*
X133449703Y-112700722D01*
X133449703Y-112700722D01*
G37*
D11*
X133285000Y-113675000D03*
D10*
G36*
X134719703Y-112700722D02*
G01*
X134734264Y-112702882D01*
X134748543Y-112706459D01*
X134762403Y-112711418D01*
X134775710Y-112717712D01*
X134788336Y-112725280D01*
X134800159Y-112734048D01*
X134811066Y-112743934D01*
X134820952Y-112754841D01*
X134829720Y-112766664D01*
X134837288Y-112779290D01*
X134843582Y-112792597D01*
X134848541Y-112806457D01*
X134852118Y-112820736D01*
X134854278Y-112835297D01*
X134855000Y-112850000D01*
X134855000Y-114500000D01*
X134854278Y-114514703D01*
X134852118Y-114529264D01*
X134848541Y-114543543D01*
X134843582Y-114557403D01*
X134837288Y-114570710D01*
X134829720Y-114583336D01*
X134820952Y-114595159D01*
X134811066Y-114606066D01*
X134800159Y-114615952D01*
X134788336Y-114624720D01*
X134775710Y-114632288D01*
X134762403Y-114638582D01*
X134748543Y-114643541D01*
X134734264Y-114647118D01*
X134719703Y-114649278D01*
X134705000Y-114650000D01*
X134405000Y-114650000D01*
X134390297Y-114649278D01*
X134375736Y-114647118D01*
X134361457Y-114643541D01*
X134347597Y-114638582D01*
X134334290Y-114632288D01*
X134321664Y-114624720D01*
X134309841Y-114615952D01*
X134298934Y-114606066D01*
X134289048Y-114595159D01*
X134280280Y-114583336D01*
X134272712Y-114570710D01*
X134266418Y-114557403D01*
X134261459Y-114543543D01*
X134257882Y-114529264D01*
X134255722Y-114514703D01*
X134255000Y-114500000D01*
X134255000Y-112850000D01*
X134255722Y-112835297D01*
X134257882Y-112820736D01*
X134261459Y-112806457D01*
X134266418Y-112792597D01*
X134272712Y-112779290D01*
X134280280Y-112766664D01*
X134289048Y-112754841D01*
X134298934Y-112743934D01*
X134309841Y-112734048D01*
X134321664Y-112725280D01*
X134334290Y-112717712D01*
X134347597Y-112711418D01*
X134361457Y-112706459D01*
X134375736Y-112702882D01*
X134390297Y-112700722D01*
X134405000Y-112700000D01*
X134705000Y-112700000D01*
X134719703Y-112700722D01*
X134719703Y-112700722D01*
G37*
D11*
X134555000Y-113675000D03*
D10*
G36*
X134719703Y-117650722D02*
G01*
X134734264Y-117652882D01*
X134748543Y-117656459D01*
X134762403Y-117661418D01*
X134775710Y-117667712D01*
X134788336Y-117675280D01*
X134800159Y-117684048D01*
X134811066Y-117693934D01*
X134820952Y-117704841D01*
X134829720Y-117716664D01*
X134837288Y-117729290D01*
X134843582Y-117742597D01*
X134848541Y-117756457D01*
X134852118Y-117770736D01*
X134854278Y-117785297D01*
X134855000Y-117800000D01*
X134855000Y-119450000D01*
X134854278Y-119464703D01*
X134852118Y-119479264D01*
X134848541Y-119493543D01*
X134843582Y-119507403D01*
X134837288Y-119520710D01*
X134829720Y-119533336D01*
X134820952Y-119545159D01*
X134811066Y-119556066D01*
X134800159Y-119565952D01*
X134788336Y-119574720D01*
X134775710Y-119582288D01*
X134762403Y-119588582D01*
X134748543Y-119593541D01*
X134734264Y-119597118D01*
X134719703Y-119599278D01*
X134705000Y-119600000D01*
X134405000Y-119600000D01*
X134390297Y-119599278D01*
X134375736Y-119597118D01*
X134361457Y-119593541D01*
X134347597Y-119588582D01*
X134334290Y-119582288D01*
X134321664Y-119574720D01*
X134309841Y-119565952D01*
X134298934Y-119556066D01*
X134289048Y-119545159D01*
X134280280Y-119533336D01*
X134272712Y-119520710D01*
X134266418Y-119507403D01*
X134261459Y-119493543D01*
X134257882Y-119479264D01*
X134255722Y-119464703D01*
X134255000Y-119450000D01*
X134255000Y-117800000D01*
X134255722Y-117785297D01*
X134257882Y-117770736D01*
X134261459Y-117756457D01*
X134266418Y-117742597D01*
X134272712Y-117729290D01*
X134280280Y-117716664D01*
X134289048Y-117704841D01*
X134298934Y-117693934D01*
X134309841Y-117684048D01*
X134321664Y-117675280D01*
X134334290Y-117667712D01*
X134347597Y-117661418D01*
X134361457Y-117656459D01*
X134375736Y-117652882D01*
X134390297Y-117650722D01*
X134405000Y-117650000D01*
X134705000Y-117650000D01*
X134719703Y-117650722D01*
X134719703Y-117650722D01*
G37*
D11*
X134555000Y-118625000D03*
D10*
G36*
X133449703Y-117650722D02*
G01*
X133464264Y-117652882D01*
X133478543Y-117656459D01*
X133492403Y-117661418D01*
X133505710Y-117667712D01*
X133518336Y-117675280D01*
X133530159Y-117684048D01*
X133541066Y-117693934D01*
X133550952Y-117704841D01*
X133559720Y-117716664D01*
X133567288Y-117729290D01*
X133573582Y-117742597D01*
X133578541Y-117756457D01*
X133582118Y-117770736D01*
X133584278Y-117785297D01*
X133585000Y-117800000D01*
X133585000Y-119450000D01*
X133584278Y-119464703D01*
X133582118Y-119479264D01*
X133578541Y-119493543D01*
X133573582Y-119507403D01*
X133567288Y-119520710D01*
X133559720Y-119533336D01*
X133550952Y-119545159D01*
X133541066Y-119556066D01*
X133530159Y-119565952D01*
X133518336Y-119574720D01*
X133505710Y-119582288D01*
X133492403Y-119588582D01*
X133478543Y-119593541D01*
X133464264Y-119597118D01*
X133449703Y-119599278D01*
X133435000Y-119600000D01*
X133135000Y-119600000D01*
X133120297Y-119599278D01*
X133105736Y-119597118D01*
X133091457Y-119593541D01*
X133077597Y-119588582D01*
X133064290Y-119582288D01*
X133051664Y-119574720D01*
X133039841Y-119565952D01*
X133028934Y-119556066D01*
X133019048Y-119545159D01*
X133010280Y-119533336D01*
X133002712Y-119520710D01*
X132996418Y-119507403D01*
X132991459Y-119493543D01*
X132987882Y-119479264D01*
X132985722Y-119464703D01*
X132985000Y-119450000D01*
X132985000Y-117800000D01*
X132985722Y-117785297D01*
X132987882Y-117770736D01*
X132991459Y-117756457D01*
X132996418Y-117742597D01*
X133002712Y-117729290D01*
X133010280Y-117716664D01*
X133019048Y-117704841D01*
X133028934Y-117693934D01*
X133039841Y-117684048D01*
X133051664Y-117675280D01*
X133064290Y-117667712D01*
X133077597Y-117661418D01*
X133091457Y-117656459D01*
X133105736Y-117652882D01*
X133120297Y-117650722D01*
X133135000Y-117650000D01*
X133435000Y-117650000D01*
X133449703Y-117650722D01*
X133449703Y-117650722D01*
G37*
D11*
X133285000Y-118625000D03*
D10*
G36*
X132179703Y-117650722D02*
G01*
X132194264Y-117652882D01*
X132208543Y-117656459D01*
X132222403Y-117661418D01*
X132235710Y-117667712D01*
X132248336Y-117675280D01*
X132260159Y-117684048D01*
X132271066Y-117693934D01*
X132280952Y-117704841D01*
X132289720Y-117716664D01*
X132297288Y-117729290D01*
X132303582Y-117742597D01*
X132308541Y-117756457D01*
X132312118Y-117770736D01*
X132314278Y-117785297D01*
X132315000Y-117800000D01*
X132315000Y-119450000D01*
X132314278Y-119464703D01*
X132312118Y-119479264D01*
X132308541Y-119493543D01*
X132303582Y-119507403D01*
X132297288Y-119520710D01*
X132289720Y-119533336D01*
X132280952Y-119545159D01*
X132271066Y-119556066D01*
X132260159Y-119565952D01*
X132248336Y-119574720D01*
X132235710Y-119582288D01*
X132222403Y-119588582D01*
X132208543Y-119593541D01*
X132194264Y-119597118D01*
X132179703Y-119599278D01*
X132165000Y-119600000D01*
X131865000Y-119600000D01*
X131850297Y-119599278D01*
X131835736Y-119597118D01*
X131821457Y-119593541D01*
X131807597Y-119588582D01*
X131794290Y-119582288D01*
X131781664Y-119574720D01*
X131769841Y-119565952D01*
X131758934Y-119556066D01*
X131749048Y-119545159D01*
X131740280Y-119533336D01*
X131732712Y-119520710D01*
X131726418Y-119507403D01*
X131721459Y-119493543D01*
X131717882Y-119479264D01*
X131715722Y-119464703D01*
X131715000Y-119450000D01*
X131715000Y-117800000D01*
X131715722Y-117785297D01*
X131717882Y-117770736D01*
X131721459Y-117756457D01*
X131726418Y-117742597D01*
X131732712Y-117729290D01*
X131740280Y-117716664D01*
X131749048Y-117704841D01*
X131758934Y-117693934D01*
X131769841Y-117684048D01*
X131781664Y-117675280D01*
X131794290Y-117667712D01*
X131807597Y-117661418D01*
X131821457Y-117656459D01*
X131835736Y-117652882D01*
X131850297Y-117650722D01*
X131865000Y-117650000D01*
X132165000Y-117650000D01*
X132179703Y-117650722D01*
X132179703Y-117650722D01*
G37*
D11*
X132015000Y-118625000D03*
D10*
G36*
X130909703Y-117650722D02*
G01*
X130924264Y-117652882D01*
X130938543Y-117656459D01*
X130952403Y-117661418D01*
X130965710Y-117667712D01*
X130978336Y-117675280D01*
X130990159Y-117684048D01*
X131001066Y-117693934D01*
X131010952Y-117704841D01*
X131019720Y-117716664D01*
X131027288Y-117729290D01*
X131033582Y-117742597D01*
X131038541Y-117756457D01*
X131042118Y-117770736D01*
X131044278Y-117785297D01*
X131045000Y-117800000D01*
X131045000Y-119450000D01*
X131044278Y-119464703D01*
X131042118Y-119479264D01*
X131038541Y-119493543D01*
X131033582Y-119507403D01*
X131027288Y-119520710D01*
X131019720Y-119533336D01*
X131010952Y-119545159D01*
X131001066Y-119556066D01*
X130990159Y-119565952D01*
X130978336Y-119574720D01*
X130965710Y-119582288D01*
X130952403Y-119588582D01*
X130938543Y-119593541D01*
X130924264Y-119597118D01*
X130909703Y-119599278D01*
X130895000Y-119600000D01*
X130595000Y-119600000D01*
X130580297Y-119599278D01*
X130565736Y-119597118D01*
X130551457Y-119593541D01*
X130537597Y-119588582D01*
X130524290Y-119582288D01*
X130511664Y-119574720D01*
X130499841Y-119565952D01*
X130488934Y-119556066D01*
X130479048Y-119545159D01*
X130470280Y-119533336D01*
X130462712Y-119520710D01*
X130456418Y-119507403D01*
X130451459Y-119493543D01*
X130447882Y-119479264D01*
X130445722Y-119464703D01*
X130445000Y-119450000D01*
X130445000Y-117800000D01*
X130445722Y-117785297D01*
X130447882Y-117770736D01*
X130451459Y-117756457D01*
X130456418Y-117742597D01*
X130462712Y-117729290D01*
X130470280Y-117716664D01*
X130479048Y-117704841D01*
X130488934Y-117693934D01*
X130499841Y-117684048D01*
X130511664Y-117675280D01*
X130524290Y-117667712D01*
X130537597Y-117661418D01*
X130551457Y-117656459D01*
X130565736Y-117652882D01*
X130580297Y-117650722D01*
X130595000Y-117650000D01*
X130895000Y-117650000D01*
X130909703Y-117650722D01*
X130909703Y-117650722D01*
G37*
D11*
X130745000Y-118625000D03*
M02*
