G04 #@! TF.GenerationSoftware,KiCad,Pcbnew,(5.1.4-0-10_14)*
G04 #@! TF.CreationDate,2021-07-08T18:48:46+12:00*
G04 #@! TF.ProjectId,Sync-Ope-proto,53796e63-2d4f-4706-952d-70726f746f2e,0.2*
G04 #@! TF.SameCoordinates,Original*
G04 #@! TF.FileFunction,Legend,Top*
G04 #@! TF.FilePolarity,Positive*
%FSLAX46Y46*%
G04 Gerber Fmt 4.6, Leading zero omitted, Abs format (unit mm)*
G04 Created by KiCad (PCBNEW (5.1.4-0-10_14)) date 2021-07-08 18:48:46*
%MOMM*%
%LPD*%
G04 APERTURE LIST*
%ADD10C,0.150000*%
%ADD11C,0.250000*%
%ADD12C,0.120000*%
%ADD13C,0.127000*%
%ADD14C,0.400000*%
G04 APERTURE END LIST*
D10*
X145142857Y-85528571D02*
X145500000Y-87028571D01*
X145785714Y-85957142D01*
X146071428Y-87028571D01*
X146428571Y-85528571D01*
X147000000Y-86242857D02*
X147500000Y-86242857D01*
X147714285Y-87028571D02*
X147000000Y-87028571D01*
X147000000Y-85528571D01*
X147714285Y-85528571D01*
X148142857Y-85528571D02*
X149000000Y-85528571D01*
X148571428Y-87028571D02*
X148571428Y-85528571D01*
X149142857Y-87171428D02*
X150285714Y-87171428D01*
X150642857Y-87028571D02*
X150642857Y-85528571D01*
X151000000Y-85528571D01*
X151214285Y-85600000D01*
X151357142Y-85742857D01*
X151428571Y-85885714D01*
X151500000Y-86171428D01*
X151500000Y-86385714D01*
X151428571Y-86671428D01*
X151357142Y-86814285D01*
X151214285Y-86957142D01*
X151000000Y-87028571D01*
X150642857Y-87028571D01*
X153000000Y-87028571D02*
X152500000Y-86314285D01*
X152142857Y-87028571D02*
X152142857Y-85528571D01*
X152714285Y-85528571D01*
X152857142Y-85600000D01*
X152928571Y-85671428D01*
X153000000Y-85814285D01*
X153000000Y-86028571D01*
X152928571Y-86171428D01*
X152857142Y-86242857D01*
X152714285Y-86314285D01*
X152142857Y-86314285D01*
X153928571Y-86314285D02*
X153928571Y-87028571D01*
X153428571Y-85528571D02*
X153928571Y-86314285D01*
X154428571Y-85528571D01*
X147907142Y-127985714D02*
X147835714Y-128057142D01*
X147621428Y-128128571D01*
X147478571Y-128128571D01*
X147264285Y-128057142D01*
X147121428Y-127914285D01*
X147050000Y-127771428D01*
X146978571Y-127485714D01*
X146978571Y-127271428D01*
X147050000Y-126985714D01*
X147121428Y-126842857D01*
X147264285Y-126700000D01*
X147478571Y-126628571D01*
X147621428Y-126628571D01*
X147835714Y-126700000D01*
X147907142Y-126771428D01*
X148335714Y-126628571D02*
X148835714Y-128128571D01*
X149335714Y-126628571D01*
X149478571Y-128271428D02*
X150621428Y-128271428D01*
X150978571Y-128128571D02*
X150978571Y-126628571D01*
X151692857Y-128128571D02*
X151692857Y-126628571D01*
X152550000Y-128128571D01*
X152550000Y-126628571D01*
D11*
X145550000Y-64938095D02*
X144807142Y-64938095D01*
X145178571Y-64938095D02*
X145178571Y-63638095D01*
X145054761Y-63823809D01*
X144930952Y-63947619D01*
X144807142Y-64009523D01*
X146045238Y-63761904D02*
X146107142Y-63700000D01*
X146230952Y-63638095D01*
X146540476Y-63638095D01*
X146664285Y-63700000D01*
X146726190Y-63761904D01*
X146788095Y-63885714D01*
X146788095Y-64009523D01*
X146726190Y-64195238D01*
X145983333Y-64938095D01*
X146788095Y-64938095D01*
X147345238Y-64442857D02*
X148335714Y-64442857D01*
X149635714Y-64938095D02*
X148892857Y-64938095D01*
X149264285Y-64938095D02*
X149264285Y-63638095D01*
X149140476Y-63823809D01*
X149016666Y-63947619D01*
X148892857Y-64009523D01*
X150811904Y-63638095D02*
X150192857Y-63638095D01*
X150130952Y-64257142D01*
X150192857Y-64195238D01*
X150316666Y-64133333D01*
X150626190Y-64133333D01*
X150750000Y-64195238D01*
X150811904Y-64257142D01*
X150873809Y-64380952D01*
X150873809Y-64690476D01*
X150811904Y-64814285D01*
X150750000Y-64876190D01*
X150626190Y-64938095D01*
X150316666Y-64938095D01*
X150192857Y-64876190D01*
X150130952Y-64814285D01*
X151245238Y-63638095D02*
X151678571Y-64938095D01*
X152111904Y-63638095D01*
X153473809Y-64566666D02*
X154092857Y-64566666D01*
X153350000Y-64938095D02*
X153783333Y-63638095D01*
X154216666Y-64938095D01*
X155392857Y-64814285D02*
X155330952Y-64876190D01*
X155145238Y-64938095D01*
X155021428Y-64938095D01*
X154835714Y-64876190D01*
X154711904Y-64752380D01*
X154650000Y-64628571D01*
X154588095Y-64380952D01*
X154588095Y-64195238D01*
X154650000Y-63947619D01*
X154711904Y-63823809D01*
X154835714Y-63700000D01*
X155021428Y-63638095D01*
X155145238Y-63638095D01*
X155330952Y-63700000D01*
X155392857Y-63761904D01*
D10*
X125550000Y-116171428D02*
X126311904Y-116171428D01*
X126788095Y-115885714D02*
X127550000Y-116171428D01*
X126788095Y-116457142D01*
X133050000Y-116128571D02*
X132288095Y-116128571D01*
X131811904Y-116414285D02*
X131050000Y-116128571D01*
X131811904Y-115842857D01*
X118750000Y-88128571D02*
X117988095Y-88128571D01*
X117511904Y-88414285D02*
X116750000Y-88128571D01*
X117511904Y-87842857D01*
X111450000Y-88171428D02*
X112211904Y-88171428D01*
X112688095Y-87885714D02*
X113450000Y-88171428D01*
X112688095Y-88457142D01*
X105538095Y-119400000D02*
X105442857Y-119352380D01*
X105300000Y-119352380D01*
X105157142Y-119400000D01*
X105061904Y-119495238D01*
X105014285Y-119590476D01*
X104966666Y-119780952D01*
X104966666Y-119923809D01*
X105014285Y-120114285D01*
X105061904Y-120209523D01*
X105157142Y-120304761D01*
X105300000Y-120352380D01*
X105395238Y-120352380D01*
X105538095Y-120304761D01*
X105585714Y-120257142D01*
X105585714Y-119923809D01*
X105395238Y-119923809D01*
X106014285Y-120352380D02*
X106014285Y-119352380D01*
X106585714Y-120352380D01*
X106585714Y-119352380D01*
X107061904Y-120352380D02*
X107061904Y-119352380D01*
X107300000Y-119352380D01*
X107442857Y-119400000D01*
X107538095Y-119495238D01*
X107585714Y-119590476D01*
X107633333Y-119780952D01*
X107633333Y-119923809D01*
X107585714Y-120114285D01*
X107538095Y-120209523D01*
X107442857Y-120304761D01*
X107300000Y-120352380D01*
X107061904Y-120352380D01*
X105061904Y-122471428D02*
X105823809Y-122471428D01*
X106776190Y-121852380D02*
X106300000Y-121852380D01*
X106252380Y-122328571D01*
X106300000Y-122280952D01*
X106395238Y-122233333D01*
X106633333Y-122233333D01*
X106728571Y-122280952D01*
X106776190Y-122328571D01*
X106823809Y-122423809D01*
X106823809Y-122661904D01*
X106776190Y-122757142D01*
X106728571Y-122804761D01*
X106633333Y-122852380D01*
X106395238Y-122852380D01*
X106300000Y-122804761D01*
X106252380Y-122757142D01*
X107157142Y-122185714D02*
X107395238Y-122852380D01*
X107633333Y-122185714D01*
X105061904Y-117471428D02*
X105823809Y-117471428D01*
X105442857Y-117852380D02*
X105442857Y-117090476D01*
X106776190Y-116852380D02*
X106300000Y-116852380D01*
X106252380Y-117328571D01*
X106300000Y-117280952D01*
X106395238Y-117233333D01*
X106633333Y-117233333D01*
X106728571Y-117280952D01*
X106776190Y-117328571D01*
X106823809Y-117423809D01*
X106823809Y-117661904D01*
X106776190Y-117757142D01*
X106728571Y-117804761D01*
X106633333Y-117852380D01*
X106395238Y-117852380D01*
X106300000Y-117804761D01*
X106252380Y-117757142D01*
X107157142Y-117185714D02*
X107395238Y-117852380D01*
X107633333Y-117185714D01*
D12*
X147550000Y-92500000D02*
X151450000Y-90450000D01*
X147550000Y-88200000D02*
X147550000Y-92500000D01*
X151550000Y-90350000D02*
X147550000Y-88200000D01*
X151550000Y-87600000D02*
X151550000Y-93250000D01*
X152700000Y-74550000D02*
X152700000Y-79550000D01*
X150200000Y-74500000D02*
X150200000Y-79600000D01*
X142650000Y-74500000D02*
X142650000Y-79600000D01*
D10*
X174035714Y-147678571D02*
X174535714Y-149178571D01*
X175035714Y-147678571D01*
X175535714Y-149178571D02*
X175535714Y-147678571D01*
X176250000Y-149178571D02*
X176250000Y-147678571D01*
X176607142Y-147678571D01*
X176821428Y-147750000D01*
X176964285Y-147892857D01*
X177035714Y-148035714D01*
X177107142Y-148321428D01*
X177107142Y-148535714D01*
X177035714Y-148821428D01*
X176964285Y-148964285D01*
X176821428Y-149107142D01*
X176607142Y-149178571D01*
X176250000Y-149178571D01*
X177750000Y-148392857D02*
X178250000Y-148392857D01*
X178464285Y-149178571D02*
X177750000Y-149178571D01*
X177750000Y-147678571D01*
X178464285Y-147678571D01*
X179392857Y-147678571D02*
X179678571Y-147678571D01*
X179821428Y-147750000D01*
X179964285Y-147892857D01*
X180035714Y-148178571D01*
X180035714Y-148678571D01*
X179964285Y-148964285D01*
X179821428Y-149107142D01*
X179678571Y-149178571D01*
X179392857Y-149178571D01*
X179250000Y-149107142D01*
X179107142Y-148964285D01*
X179035714Y-148678571D01*
X179035714Y-148178571D01*
X179107142Y-147892857D01*
X179250000Y-147750000D01*
X179392857Y-147678571D01*
X180321428Y-149321428D02*
X181464285Y-149321428D01*
X182678571Y-149178571D02*
X182178571Y-148464285D01*
X181821428Y-149178571D02*
X181821428Y-147678571D01*
X182392857Y-147678571D01*
X182535714Y-147750000D01*
X182607142Y-147821428D01*
X182678571Y-147964285D01*
X182678571Y-148178571D01*
X182607142Y-148321428D01*
X182535714Y-148392857D01*
X182392857Y-148464285D01*
X181821428Y-148464285D01*
X183321428Y-148392857D02*
X183821428Y-148392857D01*
X184035714Y-149178571D02*
X183321428Y-149178571D01*
X183321428Y-147678571D01*
X184035714Y-147678571D01*
X184464285Y-147678571D02*
X185321428Y-147678571D01*
X184892857Y-149178571D02*
X184892857Y-147678571D01*
X185821428Y-147678571D02*
X185821428Y-148892857D01*
X185892857Y-149035714D01*
X185964285Y-149107142D01*
X186107142Y-149178571D01*
X186392857Y-149178571D01*
X186535714Y-149107142D01*
X186607142Y-149035714D01*
X186678571Y-148892857D01*
X186678571Y-147678571D01*
X188250000Y-149178571D02*
X187750000Y-148464285D01*
X187392857Y-149178571D02*
X187392857Y-147678571D01*
X187964285Y-147678571D01*
X188107142Y-147750000D01*
X188178571Y-147821428D01*
X188250000Y-147964285D01*
X188250000Y-148178571D01*
X188178571Y-148321428D01*
X188107142Y-148392857D01*
X187964285Y-148464285D01*
X187392857Y-148464285D01*
X188892857Y-149178571D02*
X188892857Y-147678571D01*
X189750000Y-149178571D01*
X189750000Y-147678571D01*
X181714285Y-50928571D02*
X182214285Y-52428571D01*
X182714285Y-50928571D01*
X183214285Y-52428571D02*
X183214285Y-50928571D01*
X183928571Y-52428571D02*
X183928571Y-50928571D01*
X184285714Y-50928571D01*
X184500000Y-51000000D01*
X184642857Y-51142857D01*
X184714285Y-51285714D01*
X184785714Y-51571428D01*
X184785714Y-51785714D01*
X184714285Y-52071428D01*
X184642857Y-52214285D01*
X184500000Y-52357142D01*
X184285714Y-52428571D01*
X183928571Y-52428571D01*
X185428571Y-51642857D02*
X185928571Y-51642857D01*
X186142857Y-52428571D02*
X185428571Y-52428571D01*
X185428571Y-50928571D01*
X186142857Y-50928571D01*
X187071428Y-50928571D02*
X187357142Y-50928571D01*
X187500000Y-51000000D01*
X187642857Y-51142857D01*
X187714285Y-51428571D01*
X187714285Y-51928571D01*
X187642857Y-52214285D01*
X187500000Y-52357142D01*
X187357142Y-52428571D01*
X187071428Y-52428571D01*
X186928571Y-52357142D01*
X186785714Y-52214285D01*
X186714285Y-51928571D01*
X186714285Y-51428571D01*
X186785714Y-51142857D01*
X186928571Y-51000000D01*
X187071428Y-50928571D01*
X188000000Y-52571428D02*
X189142857Y-52571428D01*
X189785714Y-50928571D02*
X190071428Y-50928571D01*
X190214285Y-51000000D01*
X190357142Y-51142857D01*
X190428571Y-51428571D01*
X190428571Y-51928571D01*
X190357142Y-52214285D01*
X190214285Y-52357142D01*
X190071428Y-52428571D01*
X189785714Y-52428571D01*
X189642857Y-52357142D01*
X189500000Y-52214285D01*
X189428571Y-51928571D01*
X189428571Y-51428571D01*
X189500000Y-51142857D01*
X189642857Y-51000000D01*
X189785714Y-50928571D01*
X191071428Y-50928571D02*
X191071428Y-52142857D01*
X191142857Y-52285714D01*
X191214285Y-52357142D01*
X191357142Y-52428571D01*
X191642857Y-52428571D01*
X191785714Y-52357142D01*
X191857142Y-52285714D01*
X191928571Y-52142857D01*
X191928571Y-50928571D01*
X192428571Y-50928571D02*
X193285714Y-50928571D01*
X192857142Y-52428571D02*
X192857142Y-50928571D01*
X107214285Y-51428571D02*
X107714285Y-52928571D01*
X108214285Y-51428571D01*
X108714285Y-52928571D02*
X108714285Y-51428571D01*
X109428571Y-52928571D02*
X109428571Y-51428571D01*
X109785714Y-51428571D01*
X110000000Y-51500000D01*
X110142857Y-51642857D01*
X110214285Y-51785714D01*
X110285714Y-52071428D01*
X110285714Y-52285714D01*
X110214285Y-52571428D01*
X110142857Y-52714285D01*
X110000000Y-52857142D01*
X109785714Y-52928571D01*
X109428571Y-52928571D01*
X110928571Y-52142857D02*
X111428571Y-52142857D01*
X111642857Y-52928571D02*
X110928571Y-52928571D01*
X110928571Y-51428571D01*
X111642857Y-51428571D01*
X112571428Y-51428571D02*
X112857142Y-51428571D01*
X113000000Y-51500000D01*
X113142857Y-51642857D01*
X113214285Y-51928571D01*
X113214285Y-52428571D01*
X113142857Y-52714285D01*
X113000000Y-52857142D01*
X112857142Y-52928571D01*
X112571428Y-52928571D01*
X112428571Y-52857142D01*
X112285714Y-52714285D01*
X112214285Y-52428571D01*
X112214285Y-51928571D01*
X112285714Y-51642857D01*
X112428571Y-51500000D01*
X112571428Y-51428571D01*
X113500000Y-53071428D02*
X114642857Y-53071428D01*
X115000000Y-52928571D02*
X115000000Y-51428571D01*
X115714285Y-52928571D02*
X115714285Y-51428571D01*
X116571428Y-52928571D01*
X116571428Y-51428571D01*
X110428571Y-147178571D02*
X110928571Y-148678571D01*
X111428571Y-147178571D01*
X111928571Y-148678571D02*
X111928571Y-147178571D01*
X112642857Y-148678571D02*
X112642857Y-147178571D01*
X113000000Y-147178571D01*
X113214285Y-147250000D01*
X113357142Y-147392857D01*
X113428571Y-147535714D01*
X113500000Y-147821428D01*
X113500000Y-148035714D01*
X113428571Y-148321428D01*
X113357142Y-148464285D01*
X113214285Y-148607142D01*
X113000000Y-148678571D01*
X112642857Y-148678571D01*
X114142857Y-147892857D02*
X114642857Y-147892857D01*
X114857142Y-148678571D02*
X114142857Y-148678571D01*
X114142857Y-147178571D01*
X114857142Y-147178571D01*
X115785714Y-147178571D02*
X116071428Y-147178571D01*
X116214285Y-147250000D01*
X116357142Y-147392857D01*
X116428571Y-147678571D01*
X116428571Y-148178571D01*
X116357142Y-148464285D01*
X116214285Y-148607142D01*
X116071428Y-148678571D01*
X115785714Y-148678571D01*
X115642857Y-148607142D01*
X115500000Y-148464285D01*
X115428571Y-148178571D01*
X115428571Y-147678571D01*
X115500000Y-147392857D01*
X115642857Y-147250000D01*
X115785714Y-147178571D01*
X116714285Y-148821428D02*
X117857142Y-148821428D01*
X118142857Y-148607142D02*
X118357142Y-148678571D01*
X118714285Y-148678571D01*
X118857142Y-148607142D01*
X118928571Y-148535714D01*
X119000000Y-148392857D01*
X119000000Y-148250000D01*
X118928571Y-148107142D01*
X118857142Y-148035714D01*
X118714285Y-147964285D01*
X118428571Y-147892857D01*
X118285714Y-147821428D01*
X118214285Y-147750000D01*
X118142857Y-147607142D01*
X118142857Y-147464285D01*
X118214285Y-147321428D01*
X118285714Y-147250000D01*
X118428571Y-147178571D01*
X118785714Y-147178571D01*
X119000000Y-147250000D01*
X119642857Y-147892857D02*
X120142857Y-147892857D01*
X120357142Y-148678571D02*
X119642857Y-148678571D01*
X119642857Y-147178571D01*
X120357142Y-147178571D01*
X121000000Y-148678571D02*
X121000000Y-147178571D01*
X121857142Y-148678571D01*
X121857142Y-147178571D01*
X122571428Y-148678571D02*
X122571428Y-147178571D01*
X122928571Y-147178571D01*
X123142857Y-147250000D01*
X123285714Y-147392857D01*
X123357142Y-147535714D01*
X123428571Y-147821428D01*
X123428571Y-148035714D01*
X123357142Y-148321428D01*
X123285714Y-148464285D01*
X123142857Y-148607142D01*
X122928571Y-148678571D01*
X122571428Y-148678571D01*
X136976190Y-143734523D02*
X137166666Y-143829761D01*
X137547619Y-143829761D01*
X137738095Y-143734523D01*
X137833333Y-143544047D01*
X137833333Y-143448809D01*
X137738095Y-143258333D01*
X137547619Y-143163095D01*
X137261904Y-143163095D01*
X137071428Y-143067857D01*
X136976190Y-142877380D01*
X136976190Y-142782142D01*
X137071428Y-142591666D01*
X137261904Y-142496428D01*
X137547619Y-142496428D01*
X137738095Y-142591666D01*
X138500000Y-142496428D02*
X138976190Y-143829761D01*
X139452380Y-142496428D02*
X138976190Y-143829761D01*
X138785714Y-144305952D01*
X138690476Y-144401190D01*
X138500000Y-144496428D01*
X140214285Y-142496428D02*
X140214285Y-143829761D01*
X140214285Y-142686904D02*
X140309523Y-142591666D01*
X140500000Y-142496428D01*
X140785714Y-142496428D01*
X140976190Y-142591666D01*
X141071428Y-142782142D01*
X141071428Y-143829761D01*
X142880952Y-143734523D02*
X142690476Y-143829761D01*
X142309523Y-143829761D01*
X142119047Y-143734523D01*
X142023809Y-143639285D01*
X141928571Y-143448809D01*
X141928571Y-142877380D01*
X142023809Y-142686904D01*
X142119047Y-142591666D01*
X142309523Y-142496428D01*
X142690476Y-142496428D01*
X142880952Y-142591666D01*
X143261904Y-144020238D02*
X144785714Y-144020238D01*
X145547619Y-143829761D02*
X145357142Y-143734523D01*
X145261904Y-143639285D01*
X145166666Y-143448809D01*
X145166666Y-142877380D01*
X145261904Y-142686904D01*
X145357142Y-142591666D01*
X145547619Y-142496428D01*
X145833333Y-142496428D01*
X146023809Y-142591666D01*
X146119047Y-142686904D01*
X146214285Y-142877380D01*
X146214285Y-143448809D01*
X146119047Y-143639285D01*
X146023809Y-143734523D01*
X145833333Y-143829761D01*
X145547619Y-143829761D01*
X147071428Y-142496428D02*
X147071428Y-144496428D01*
X147071428Y-142591666D02*
X147261904Y-142496428D01*
X147642857Y-142496428D01*
X147833333Y-142591666D01*
X147928571Y-142686904D01*
X148023809Y-142877380D01*
X148023809Y-143448809D01*
X147928571Y-143639285D01*
X147833333Y-143734523D01*
X147642857Y-143829761D01*
X147261904Y-143829761D01*
X147071428Y-143734523D01*
X149642857Y-143734523D02*
X149452380Y-143829761D01*
X149071428Y-143829761D01*
X148880952Y-143734523D01*
X148785714Y-143544047D01*
X148785714Y-142782142D01*
X148880952Y-142591666D01*
X149071428Y-142496428D01*
X149452380Y-142496428D01*
X149642857Y-142591666D01*
X149738095Y-142782142D01*
X149738095Y-142972619D01*
X148785714Y-143163095D01*
X152500000Y-141829761D02*
X152690476Y-141829761D01*
X152880952Y-141925000D01*
X152976190Y-142020238D01*
X153071428Y-142210714D01*
X153166666Y-142591666D01*
X153166666Y-143067857D01*
X153071428Y-143448809D01*
X152976190Y-143639285D01*
X152880952Y-143734523D01*
X152690476Y-143829761D01*
X152500000Y-143829761D01*
X152309523Y-143734523D01*
X152214285Y-143639285D01*
X152119047Y-143448809D01*
X152023809Y-143067857D01*
X152023809Y-142591666D01*
X152119047Y-142210714D01*
X152214285Y-142020238D01*
X152309523Y-141925000D01*
X152500000Y-141829761D01*
X153547619Y-144020238D02*
X155071428Y-144020238D01*
X155357142Y-141829761D02*
X156595238Y-141829761D01*
X155928571Y-142591666D01*
X156214285Y-142591666D01*
X156404761Y-142686904D01*
X156500000Y-142782142D01*
X156595238Y-142972619D01*
X156595238Y-143448809D01*
X156500000Y-143639285D01*
X156404761Y-143734523D01*
X156214285Y-143829761D01*
X155642857Y-143829761D01*
X155452380Y-143734523D01*
X155357142Y-143639285D01*
X156976190Y-144020238D02*
X158500000Y-144020238D01*
X159357142Y-141829761D02*
X159547619Y-141829761D01*
X159738095Y-141925000D01*
X159833333Y-142020238D01*
X159928571Y-142210714D01*
X160023809Y-142591666D01*
X160023809Y-143067857D01*
X159928571Y-143448809D01*
X159833333Y-143639285D01*
X159738095Y-143734523D01*
X159547619Y-143829761D01*
X159357142Y-143829761D01*
X159166666Y-143734523D01*
X159071428Y-143639285D01*
X158976190Y-143448809D01*
X158880952Y-143067857D01*
X158880952Y-142591666D01*
X158976190Y-142210714D01*
X159071428Y-142020238D01*
X159166666Y-141925000D01*
X159357142Y-141829761D01*
X129738095Y-145075000D02*
X129547619Y-144979761D01*
X129261904Y-144979761D01*
X128976190Y-145075000D01*
X128785714Y-145265476D01*
X128690476Y-145455952D01*
X128595238Y-145836904D01*
X128595238Y-146122619D01*
X128690476Y-146503571D01*
X128785714Y-146694047D01*
X128976190Y-146884523D01*
X129261904Y-146979761D01*
X129452380Y-146979761D01*
X129738095Y-146884523D01*
X129833333Y-146789285D01*
X129833333Y-146122619D01*
X129452380Y-146122619D01*
X131547619Y-146979761D02*
X131547619Y-145932142D01*
X131452380Y-145741666D01*
X131261904Y-145646428D01*
X130880952Y-145646428D01*
X130690476Y-145741666D01*
X131547619Y-146884523D02*
X131357142Y-146979761D01*
X130880952Y-146979761D01*
X130690476Y-146884523D01*
X130595238Y-146694047D01*
X130595238Y-146503571D01*
X130690476Y-146313095D01*
X130880952Y-146217857D01*
X131357142Y-146217857D01*
X131547619Y-146122619D01*
X133261904Y-146884523D02*
X133071428Y-146979761D01*
X132690476Y-146979761D01*
X132500000Y-146884523D01*
X132404761Y-146694047D01*
X132404761Y-145932142D01*
X132500000Y-145741666D01*
X132690476Y-145646428D01*
X133071428Y-145646428D01*
X133261904Y-145741666D01*
X133357142Y-145932142D01*
X133357142Y-146122619D01*
X132404761Y-146313095D01*
X132500000Y-144979761D02*
X132595238Y-145075000D01*
X132500000Y-145170238D01*
X132404761Y-145075000D01*
X132500000Y-144979761D01*
X132500000Y-145170238D01*
X133261904Y-144979761D02*
X133357142Y-145075000D01*
X133261904Y-145170238D01*
X133166666Y-145075000D01*
X133261904Y-144979761D01*
X133261904Y-145170238D01*
X134500000Y-146979761D02*
X134309523Y-146884523D01*
X134214285Y-146694047D01*
X134214285Y-144979761D01*
X137357142Y-144979761D02*
X137357142Y-146408333D01*
X137261904Y-146694047D01*
X137071428Y-146884523D01*
X136785714Y-146979761D01*
X136595238Y-146979761D01*
X139166666Y-146979761D02*
X139166666Y-145932142D01*
X139071428Y-145741666D01*
X138880952Y-145646428D01*
X138500000Y-145646428D01*
X138309523Y-145741666D01*
X139166666Y-146884523D02*
X138976190Y-146979761D01*
X138500000Y-146979761D01*
X138309523Y-146884523D01*
X138214285Y-146694047D01*
X138214285Y-146503571D01*
X138309523Y-146313095D01*
X138500000Y-146217857D01*
X138976190Y-146217857D01*
X139166666Y-146122619D01*
X139833333Y-145646428D02*
X140595238Y-145646428D01*
X140119047Y-144979761D02*
X140119047Y-146694047D01*
X140214285Y-146884523D01*
X140404761Y-146979761D01*
X140595238Y-146979761D01*
X141547619Y-146979761D02*
X141357142Y-146884523D01*
X141261904Y-146789285D01*
X141166666Y-146598809D01*
X141166666Y-146027380D01*
X141261904Y-145836904D01*
X141357142Y-145741666D01*
X141547619Y-145646428D01*
X141833333Y-145646428D01*
X142023809Y-145741666D01*
X142119047Y-145836904D01*
X142214285Y-146027380D01*
X142214285Y-146598809D01*
X142119047Y-146789285D01*
X142023809Y-146884523D01*
X141833333Y-146979761D01*
X141547619Y-146979761D01*
X143071428Y-145646428D02*
X143071428Y-146979761D01*
X143071428Y-145836904D02*
X143166666Y-145741666D01*
X143357142Y-145646428D01*
X143642857Y-145646428D01*
X143833333Y-145741666D01*
X143928571Y-145932142D01*
X143928571Y-146979761D01*
X148023809Y-146979761D02*
X147928571Y-146979761D01*
X147738095Y-146884523D01*
X147452380Y-146598809D01*
X146976190Y-146027380D01*
X146785714Y-145741666D01*
X146690476Y-145455952D01*
X146690476Y-145265476D01*
X146785714Y-145075000D01*
X146976190Y-144979761D01*
X147071428Y-144979761D01*
X147261904Y-145075000D01*
X147357142Y-145265476D01*
X147357142Y-145360714D01*
X147261904Y-145551190D01*
X147166666Y-145646428D01*
X146595238Y-146027380D01*
X146500000Y-146122619D01*
X146404761Y-146313095D01*
X146404761Y-146598809D01*
X146500000Y-146789285D01*
X146595238Y-146884523D01*
X146785714Y-146979761D01*
X147071428Y-146979761D01*
X147261904Y-146884523D01*
X147357142Y-146789285D01*
X147642857Y-146408333D01*
X147738095Y-146122619D01*
X147738095Y-145932142D01*
X151261904Y-146884523D02*
X151071428Y-146979761D01*
X150690476Y-146979761D01*
X150500000Y-146884523D01*
X150404761Y-146789285D01*
X150309523Y-146598809D01*
X150309523Y-146027380D01*
X150404761Y-145836904D01*
X150500000Y-145741666D01*
X150690476Y-145646428D01*
X151071428Y-145646428D01*
X151261904Y-145741666D01*
X151928571Y-145646428D02*
X152404761Y-146979761D01*
X152880952Y-145646428D02*
X152404761Y-146979761D01*
X152214285Y-147455952D01*
X152119047Y-147551190D01*
X151928571Y-147646428D01*
X153642857Y-146979761D02*
X153642857Y-144979761D01*
X153642857Y-145741666D02*
X153833333Y-145646428D01*
X154214285Y-145646428D01*
X154404761Y-145741666D01*
X154500000Y-145836904D01*
X154595238Y-146027380D01*
X154595238Y-146598809D01*
X154500000Y-146789285D01*
X154404761Y-146884523D01*
X154214285Y-146979761D01*
X153833333Y-146979761D01*
X153642857Y-146884523D01*
X156214285Y-146884523D02*
X156023809Y-146979761D01*
X155642857Y-146979761D01*
X155452380Y-146884523D01*
X155357142Y-146694047D01*
X155357142Y-145932142D01*
X155452380Y-145741666D01*
X155642857Y-145646428D01*
X156023809Y-145646428D01*
X156214285Y-145741666D01*
X156309523Y-145932142D01*
X156309523Y-146122619D01*
X155357142Y-146313095D01*
X157166666Y-146979761D02*
X157166666Y-145646428D01*
X157166666Y-146027380D02*
X157261904Y-145836904D01*
X157357142Y-145741666D01*
X157547619Y-145646428D01*
X157738095Y-145646428D01*
X158404761Y-146979761D02*
X158404761Y-144979761D01*
X158404761Y-145741666D02*
X158595238Y-145646428D01*
X158976190Y-145646428D01*
X159166666Y-145741666D01*
X159261904Y-145836904D01*
X159357142Y-146027380D01*
X159357142Y-146598809D01*
X159261904Y-146789285D01*
X159166666Y-146884523D01*
X158976190Y-146979761D01*
X158595238Y-146979761D01*
X158404761Y-146884523D01*
X160500000Y-146979761D02*
X160309523Y-146884523D01*
X160214285Y-146789285D01*
X160119047Y-146598809D01*
X160119047Y-146027380D01*
X160214285Y-145836904D01*
X160309523Y-145741666D01*
X160500000Y-145646428D01*
X160785714Y-145646428D01*
X160976190Y-145741666D01*
X161071428Y-145836904D01*
X161166666Y-146027380D01*
X161166666Y-146598809D01*
X161071428Y-146789285D01*
X160976190Y-146884523D01*
X160785714Y-146979761D01*
X160500000Y-146979761D01*
X161833333Y-145646428D02*
X162309523Y-146979761D01*
X162785714Y-145646428D02*
X162309523Y-146979761D01*
X162119047Y-147455952D01*
X162023809Y-147551190D01*
X161833333Y-147646428D01*
X164404761Y-144979761D02*
X164023809Y-144979761D01*
X163833333Y-145075000D01*
X163738095Y-145170238D01*
X163547619Y-145455952D01*
X163452380Y-145836904D01*
X163452380Y-146598809D01*
X163547619Y-146789285D01*
X163642857Y-146884523D01*
X163833333Y-146979761D01*
X164214285Y-146979761D01*
X164404761Y-146884523D01*
X164500000Y-146789285D01*
X164595238Y-146598809D01*
X164595238Y-146122619D01*
X164500000Y-145932142D01*
X164404761Y-145836904D01*
X164214285Y-145741666D01*
X163833333Y-145741666D01*
X163642857Y-145836904D01*
X163547619Y-145932142D01*
X163452380Y-146122619D01*
X166309523Y-144979761D02*
X165928571Y-144979761D01*
X165738095Y-145075000D01*
X165642857Y-145170238D01*
X165452380Y-145455952D01*
X165357142Y-145836904D01*
X165357142Y-146598809D01*
X165452380Y-146789285D01*
X165547619Y-146884523D01*
X165738095Y-146979761D01*
X166119047Y-146979761D01*
X166309523Y-146884523D01*
X166404761Y-146789285D01*
X166500000Y-146598809D01*
X166500000Y-146122619D01*
X166404761Y-145932142D01*
X166309523Y-145836904D01*
X166119047Y-145741666D01*
X165738095Y-145741666D01*
X165547619Y-145836904D01*
X165452380Y-145932142D01*
X165357142Y-146122619D01*
X168214285Y-144979761D02*
X167833333Y-144979761D01*
X167642857Y-145075000D01*
X167547619Y-145170238D01*
X167357142Y-145455952D01*
X167261904Y-145836904D01*
X167261904Y-146598809D01*
X167357142Y-146789285D01*
X167452380Y-146884523D01*
X167642857Y-146979761D01*
X168023809Y-146979761D01*
X168214285Y-146884523D01*
X168309523Y-146789285D01*
X168404761Y-146598809D01*
X168404761Y-146122619D01*
X168309523Y-145932142D01*
X168214285Y-145836904D01*
X168023809Y-145741666D01*
X167642857Y-145741666D01*
X167452380Y-145836904D01*
X167357142Y-145932142D01*
X167261904Y-146122619D01*
D12*
X181660000Y-100270000D02*
X180410000Y-100270000D01*
X181660000Y-120710000D02*
X181660000Y-100270000D01*
X177160000Y-120710000D02*
X181660000Y-120710000D01*
X177160000Y-100270000D02*
X177160000Y-120710000D01*
X178410000Y-100270000D02*
X177160000Y-100270000D01*
X180410000Y-100270000D02*
G75*
G02X178410000Y-100270000I-1000000J0D01*
G01*
X115230000Y-95345000D02*
X115230000Y-95330000D01*
X115230000Y-97470000D02*
X115230000Y-97455000D01*
X119770000Y-95345000D02*
X119770000Y-95330000D01*
X119770000Y-97470000D02*
X119770000Y-97455000D01*
X119770000Y-95330000D02*
X115230000Y-95330000D01*
X119770000Y-97470000D02*
X115230000Y-97470000D01*
X181770000Y-75270000D02*
X177230000Y-75270000D01*
X181770000Y-73130000D02*
X177230000Y-73130000D01*
X181770000Y-75270000D02*
X181770000Y-75255000D01*
X181770000Y-73145000D02*
X181770000Y-73130000D01*
X177230000Y-75270000D02*
X177230000Y-75255000D01*
X177230000Y-73145000D02*
X177230000Y-73130000D01*
X169195000Y-57520000D02*
X169180000Y-57520000D01*
X171320000Y-57520000D02*
X171305000Y-57520000D01*
X169195000Y-52980000D02*
X169180000Y-52980000D01*
X171320000Y-52980000D02*
X171305000Y-52980000D01*
X169180000Y-52980000D02*
X169180000Y-57520000D01*
X171320000Y-52980000D02*
X171320000Y-57520000D01*
X130645000Y-56870000D02*
X130630000Y-56870000D01*
X132770000Y-56870000D02*
X132755000Y-56870000D01*
X130645000Y-52330000D02*
X130630000Y-52330000D01*
X132770000Y-52330000D02*
X132755000Y-52330000D01*
X130630000Y-52330000D02*
X130630000Y-56870000D01*
X132770000Y-52330000D02*
X132770000Y-56870000D01*
X130730000Y-64970000D02*
X130730000Y-60430000D01*
X132870000Y-64970000D02*
X132870000Y-60430000D01*
X130730000Y-64970000D02*
X130745000Y-64970000D01*
X132855000Y-64970000D02*
X132870000Y-64970000D01*
X130730000Y-60430000D02*
X130745000Y-60430000D01*
X132855000Y-60430000D02*
X132870000Y-60430000D01*
X171270000Y-71250000D02*
G75*
G03X171270000Y-71250000I-3870000J0D01*
G01*
X171230000Y-71250000D02*
X163570000Y-71250000D01*
X171230000Y-71290000D02*
X163570000Y-71290000D01*
X171230000Y-71330000D02*
X163570000Y-71330000D01*
X171229000Y-71370000D02*
X163571000Y-71370000D01*
X171227000Y-71410000D02*
X163573000Y-71410000D01*
X171225000Y-71450000D02*
X163575000Y-71450000D01*
X171223000Y-71490000D02*
X168440000Y-71490000D01*
X166360000Y-71490000D02*
X163577000Y-71490000D01*
X171220000Y-71530000D02*
X168440000Y-71530000D01*
X166360000Y-71530000D02*
X163580000Y-71530000D01*
X171217000Y-71570000D02*
X168440000Y-71570000D01*
X166360000Y-71570000D02*
X163583000Y-71570000D01*
X171214000Y-71610000D02*
X168440000Y-71610000D01*
X166360000Y-71610000D02*
X163586000Y-71610000D01*
X171210000Y-71650000D02*
X168440000Y-71650000D01*
X166360000Y-71650000D02*
X163590000Y-71650000D01*
X171205000Y-71690000D02*
X168440000Y-71690000D01*
X166360000Y-71690000D02*
X163595000Y-71690000D01*
X171201000Y-71730000D02*
X168440000Y-71730000D01*
X166360000Y-71730000D02*
X163599000Y-71730000D01*
X171195000Y-71770000D02*
X168440000Y-71770000D01*
X166360000Y-71770000D02*
X163605000Y-71770000D01*
X171190000Y-71810000D02*
X168440000Y-71810000D01*
X166360000Y-71810000D02*
X163610000Y-71810000D01*
X171184000Y-71850000D02*
X168440000Y-71850000D01*
X166360000Y-71850000D02*
X163616000Y-71850000D01*
X171177000Y-71890000D02*
X168440000Y-71890000D01*
X166360000Y-71890000D02*
X163623000Y-71890000D01*
X171170000Y-71930000D02*
X168440000Y-71930000D01*
X166360000Y-71930000D02*
X163630000Y-71930000D01*
X171163000Y-71971000D02*
X168440000Y-71971000D01*
X166360000Y-71971000D02*
X163637000Y-71971000D01*
X171155000Y-72011000D02*
X168440000Y-72011000D01*
X166360000Y-72011000D02*
X163645000Y-72011000D01*
X171147000Y-72051000D02*
X168440000Y-72051000D01*
X166360000Y-72051000D02*
X163653000Y-72051000D01*
X171138000Y-72091000D02*
X168440000Y-72091000D01*
X166360000Y-72091000D02*
X163662000Y-72091000D01*
X171129000Y-72131000D02*
X168440000Y-72131000D01*
X166360000Y-72131000D02*
X163671000Y-72131000D01*
X171120000Y-72171000D02*
X168440000Y-72171000D01*
X166360000Y-72171000D02*
X163680000Y-72171000D01*
X171110000Y-72211000D02*
X168440000Y-72211000D01*
X166360000Y-72211000D02*
X163690000Y-72211000D01*
X171099000Y-72251000D02*
X168440000Y-72251000D01*
X166360000Y-72251000D02*
X163701000Y-72251000D01*
X171088000Y-72291000D02*
X168440000Y-72291000D01*
X166360000Y-72291000D02*
X163712000Y-72291000D01*
X171077000Y-72331000D02*
X168440000Y-72331000D01*
X166360000Y-72331000D02*
X163723000Y-72331000D01*
X171065000Y-72371000D02*
X168440000Y-72371000D01*
X166360000Y-72371000D02*
X163735000Y-72371000D01*
X171053000Y-72411000D02*
X168440000Y-72411000D01*
X166360000Y-72411000D02*
X163747000Y-72411000D01*
X171040000Y-72451000D02*
X168440000Y-72451000D01*
X166360000Y-72451000D02*
X163760000Y-72451000D01*
X171026000Y-72491000D02*
X168440000Y-72491000D01*
X166360000Y-72491000D02*
X163774000Y-72491000D01*
X171013000Y-72531000D02*
X168440000Y-72531000D01*
X166360000Y-72531000D02*
X163787000Y-72531000D01*
X170998000Y-72571000D02*
X168440000Y-72571000D01*
X166360000Y-72571000D02*
X163802000Y-72571000D01*
X170984000Y-72611000D02*
X168440000Y-72611000D01*
X166360000Y-72611000D02*
X163816000Y-72611000D01*
X170968000Y-72651000D02*
X168440000Y-72651000D01*
X166360000Y-72651000D02*
X163832000Y-72651000D01*
X170953000Y-72691000D02*
X168440000Y-72691000D01*
X166360000Y-72691000D02*
X163847000Y-72691000D01*
X170936000Y-72731000D02*
X168440000Y-72731000D01*
X166360000Y-72731000D02*
X163864000Y-72731000D01*
X170920000Y-72771000D02*
X168440000Y-72771000D01*
X166360000Y-72771000D02*
X163880000Y-72771000D01*
X170902000Y-72811000D02*
X168440000Y-72811000D01*
X166360000Y-72811000D02*
X163898000Y-72811000D01*
X170884000Y-72851000D02*
X168440000Y-72851000D01*
X166360000Y-72851000D02*
X163916000Y-72851000D01*
X170866000Y-72891000D02*
X168440000Y-72891000D01*
X166360000Y-72891000D02*
X163934000Y-72891000D01*
X170847000Y-72931000D02*
X168440000Y-72931000D01*
X166360000Y-72931000D02*
X163953000Y-72931000D01*
X170827000Y-72971000D02*
X168440000Y-72971000D01*
X166360000Y-72971000D02*
X163973000Y-72971000D01*
X170807000Y-73011000D02*
X168440000Y-73011000D01*
X166360000Y-73011000D02*
X163993000Y-73011000D01*
X170786000Y-73051000D02*
X168440000Y-73051000D01*
X166360000Y-73051000D02*
X164014000Y-73051000D01*
X170765000Y-73091000D02*
X168440000Y-73091000D01*
X166360000Y-73091000D02*
X164035000Y-73091000D01*
X170743000Y-73131000D02*
X168440000Y-73131000D01*
X166360000Y-73131000D02*
X164057000Y-73131000D01*
X170721000Y-73171000D02*
X168440000Y-73171000D01*
X166360000Y-73171000D02*
X164079000Y-73171000D01*
X170697000Y-73211000D02*
X168440000Y-73211000D01*
X166360000Y-73211000D02*
X164103000Y-73211000D01*
X170674000Y-73251000D02*
X168440000Y-73251000D01*
X166360000Y-73251000D02*
X164126000Y-73251000D01*
X170649000Y-73291000D02*
X168440000Y-73291000D01*
X166360000Y-73291000D02*
X164151000Y-73291000D01*
X170624000Y-73331000D02*
X168440000Y-73331000D01*
X166360000Y-73331000D02*
X164176000Y-73331000D01*
X170598000Y-73371000D02*
X168440000Y-73371000D01*
X166360000Y-73371000D02*
X164202000Y-73371000D01*
X170572000Y-73411000D02*
X168440000Y-73411000D01*
X166360000Y-73411000D02*
X164228000Y-73411000D01*
X170544000Y-73451000D02*
X168440000Y-73451000D01*
X166360000Y-73451000D02*
X164256000Y-73451000D01*
X170516000Y-73491000D02*
X168440000Y-73491000D01*
X166360000Y-73491000D02*
X164284000Y-73491000D01*
X170488000Y-73531000D02*
X168440000Y-73531000D01*
X166360000Y-73531000D02*
X164312000Y-73531000D01*
X170458000Y-73571000D02*
X164342000Y-73571000D01*
X170428000Y-73611000D02*
X164372000Y-73611000D01*
X170396000Y-73651000D02*
X164404000Y-73651000D01*
X170364000Y-73691000D02*
X164436000Y-73691000D01*
X170331000Y-73731000D02*
X164469000Y-73731000D01*
X170298000Y-73771000D02*
X164502000Y-73771000D01*
X170263000Y-73811000D02*
X164537000Y-73811000D01*
X170227000Y-73851000D02*
X164573000Y-73851000D01*
X170190000Y-73891000D02*
X164610000Y-73891000D01*
X170152000Y-73931000D02*
X164648000Y-73931000D01*
X170113000Y-73971000D02*
X164687000Y-73971000D01*
X170073000Y-74011000D02*
X164727000Y-74011000D01*
X170032000Y-74051000D02*
X164768000Y-74051000D01*
X169989000Y-74091000D02*
X164811000Y-74091000D01*
X169946000Y-74131000D02*
X164854000Y-74131000D01*
X169900000Y-74171000D02*
X164900000Y-74171000D01*
X169854000Y-74211000D02*
X164946000Y-74211000D01*
X169805000Y-74251000D02*
X164995000Y-74251000D01*
X169755000Y-74291000D02*
X165045000Y-74291000D01*
X169704000Y-74331000D02*
X165096000Y-74331000D01*
X169650000Y-74371000D02*
X165150000Y-74371000D01*
X169595000Y-74411000D02*
X165205000Y-74411000D01*
X169537000Y-74451000D02*
X165263000Y-74451000D01*
X169477000Y-74491000D02*
X165323000Y-74491000D01*
X169414000Y-74531000D02*
X165386000Y-74531000D01*
X169349000Y-74571000D02*
X165451000Y-74571000D01*
X169281000Y-74611000D02*
X165519000Y-74611000D01*
X169209000Y-74651000D02*
X165591000Y-74651000D01*
X169133000Y-74691000D02*
X165667000Y-74691000D01*
X169054000Y-74731000D02*
X165746000Y-74731000D01*
X168969000Y-74771000D02*
X165831000Y-74771000D01*
X168878000Y-74811000D02*
X165922000Y-74811000D01*
X168781000Y-74851000D02*
X166019000Y-74851000D01*
X168675000Y-74891000D02*
X166125000Y-74891000D01*
X168558000Y-74931000D02*
X166242000Y-74931000D01*
X168428000Y-74971000D02*
X166372000Y-74971000D01*
X168277000Y-75011000D02*
X166523000Y-75011000D01*
X168093000Y-75051000D02*
X166707000Y-75051000D01*
X167841000Y-75091000D02*
X166959000Y-75091000D01*
X169575000Y-67107789D02*
X169575000Y-67857789D01*
X169950000Y-67482789D02*
X169200000Y-67482789D01*
X134950000Y-67882789D02*
X134200000Y-67882789D01*
X134575000Y-67507789D02*
X134575000Y-68257789D01*
X132841000Y-75491000D02*
X131959000Y-75491000D01*
X133093000Y-75451000D02*
X131707000Y-75451000D01*
X133277000Y-75411000D02*
X131523000Y-75411000D01*
X133428000Y-75371000D02*
X131372000Y-75371000D01*
X133558000Y-75331000D02*
X131242000Y-75331000D01*
X133675000Y-75291000D02*
X131125000Y-75291000D01*
X133781000Y-75251000D02*
X131019000Y-75251000D01*
X133878000Y-75211000D02*
X130922000Y-75211000D01*
X133969000Y-75171000D02*
X130831000Y-75171000D01*
X134054000Y-75131000D02*
X130746000Y-75131000D01*
X134133000Y-75091000D02*
X130667000Y-75091000D01*
X134209000Y-75051000D02*
X130591000Y-75051000D01*
X134281000Y-75011000D02*
X130519000Y-75011000D01*
X134349000Y-74971000D02*
X130451000Y-74971000D01*
X134414000Y-74931000D02*
X130386000Y-74931000D01*
X134477000Y-74891000D02*
X130323000Y-74891000D01*
X134537000Y-74851000D02*
X130263000Y-74851000D01*
X134595000Y-74811000D02*
X130205000Y-74811000D01*
X134650000Y-74771000D02*
X130150000Y-74771000D01*
X134704000Y-74731000D02*
X130096000Y-74731000D01*
X134755000Y-74691000D02*
X130045000Y-74691000D01*
X134805000Y-74651000D02*
X129995000Y-74651000D01*
X134854000Y-74611000D02*
X129946000Y-74611000D01*
X134900000Y-74571000D02*
X129900000Y-74571000D01*
X134946000Y-74531000D02*
X129854000Y-74531000D01*
X134989000Y-74491000D02*
X129811000Y-74491000D01*
X135032000Y-74451000D02*
X129768000Y-74451000D01*
X135073000Y-74411000D02*
X129727000Y-74411000D01*
X135113000Y-74371000D02*
X129687000Y-74371000D01*
X135152000Y-74331000D02*
X129648000Y-74331000D01*
X135190000Y-74291000D02*
X129610000Y-74291000D01*
X135227000Y-74251000D02*
X129573000Y-74251000D01*
X135263000Y-74211000D02*
X129537000Y-74211000D01*
X135298000Y-74171000D02*
X129502000Y-74171000D01*
X135331000Y-74131000D02*
X129469000Y-74131000D01*
X135364000Y-74091000D02*
X129436000Y-74091000D01*
X135396000Y-74051000D02*
X129404000Y-74051000D01*
X135428000Y-74011000D02*
X129372000Y-74011000D01*
X135458000Y-73971000D02*
X129342000Y-73971000D01*
X131360000Y-73931000D02*
X129312000Y-73931000D01*
X135488000Y-73931000D02*
X133440000Y-73931000D01*
X131360000Y-73891000D02*
X129284000Y-73891000D01*
X135516000Y-73891000D02*
X133440000Y-73891000D01*
X131360000Y-73851000D02*
X129256000Y-73851000D01*
X135544000Y-73851000D02*
X133440000Y-73851000D01*
X131360000Y-73811000D02*
X129228000Y-73811000D01*
X135572000Y-73811000D02*
X133440000Y-73811000D01*
X131360000Y-73771000D02*
X129202000Y-73771000D01*
X135598000Y-73771000D02*
X133440000Y-73771000D01*
X131360000Y-73731000D02*
X129176000Y-73731000D01*
X135624000Y-73731000D02*
X133440000Y-73731000D01*
X131360000Y-73691000D02*
X129151000Y-73691000D01*
X135649000Y-73691000D02*
X133440000Y-73691000D01*
X131360000Y-73651000D02*
X129126000Y-73651000D01*
X135674000Y-73651000D02*
X133440000Y-73651000D01*
X131360000Y-73611000D02*
X129103000Y-73611000D01*
X135697000Y-73611000D02*
X133440000Y-73611000D01*
X131360000Y-73571000D02*
X129079000Y-73571000D01*
X135721000Y-73571000D02*
X133440000Y-73571000D01*
X131360000Y-73531000D02*
X129057000Y-73531000D01*
X135743000Y-73531000D02*
X133440000Y-73531000D01*
X131360000Y-73491000D02*
X129035000Y-73491000D01*
X135765000Y-73491000D02*
X133440000Y-73491000D01*
X131360000Y-73451000D02*
X129014000Y-73451000D01*
X135786000Y-73451000D02*
X133440000Y-73451000D01*
X131360000Y-73411000D02*
X128993000Y-73411000D01*
X135807000Y-73411000D02*
X133440000Y-73411000D01*
X131360000Y-73371000D02*
X128973000Y-73371000D01*
X135827000Y-73371000D02*
X133440000Y-73371000D01*
X131360000Y-73331000D02*
X128953000Y-73331000D01*
X135847000Y-73331000D02*
X133440000Y-73331000D01*
X131360000Y-73291000D02*
X128934000Y-73291000D01*
X135866000Y-73291000D02*
X133440000Y-73291000D01*
X131360000Y-73251000D02*
X128916000Y-73251000D01*
X135884000Y-73251000D02*
X133440000Y-73251000D01*
X131360000Y-73211000D02*
X128898000Y-73211000D01*
X135902000Y-73211000D02*
X133440000Y-73211000D01*
X131360000Y-73171000D02*
X128880000Y-73171000D01*
X135920000Y-73171000D02*
X133440000Y-73171000D01*
X131360000Y-73131000D02*
X128864000Y-73131000D01*
X135936000Y-73131000D02*
X133440000Y-73131000D01*
X131360000Y-73091000D02*
X128847000Y-73091000D01*
X135953000Y-73091000D02*
X133440000Y-73091000D01*
X131360000Y-73051000D02*
X128832000Y-73051000D01*
X135968000Y-73051000D02*
X133440000Y-73051000D01*
X131360000Y-73011000D02*
X128816000Y-73011000D01*
X135984000Y-73011000D02*
X133440000Y-73011000D01*
X131360000Y-72971000D02*
X128802000Y-72971000D01*
X135998000Y-72971000D02*
X133440000Y-72971000D01*
X131360000Y-72931000D02*
X128787000Y-72931000D01*
X136013000Y-72931000D02*
X133440000Y-72931000D01*
X131360000Y-72891000D02*
X128774000Y-72891000D01*
X136026000Y-72891000D02*
X133440000Y-72891000D01*
X131360000Y-72851000D02*
X128760000Y-72851000D01*
X136040000Y-72851000D02*
X133440000Y-72851000D01*
X131360000Y-72811000D02*
X128747000Y-72811000D01*
X136053000Y-72811000D02*
X133440000Y-72811000D01*
X131360000Y-72771000D02*
X128735000Y-72771000D01*
X136065000Y-72771000D02*
X133440000Y-72771000D01*
X131360000Y-72731000D02*
X128723000Y-72731000D01*
X136077000Y-72731000D02*
X133440000Y-72731000D01*
X131360000Y-72691000D02*
X128712000Y-72691000D01*
X136088000Y-72691000D02*
X133440000Y-72691000D01*
X131360000Y-72651000D02*
X128701000Y-72651000D01*
X136099000Y-72651000D02*
X133440000Y-72651000D01*
X131360000Y-72611000D02*
X128690000Y-72611000D01*
X136110000Y-72611000D02*
X133440000Y-72611000D01*
X131360000Y-72571000D02*
X128680000Y-72571000D01*
X136120000Y-72571000D02*
X133440000Y-72571000D01*
X131360000Y-72531000D02*
X128671000Y-72531000D01*
X136129000Y-72531000D02*
X133440000Y-72531000D01*
X131360000Y-72491000D02*
X128662000Y-72491000D01*
X136138000Y-72491000D02*
X133440000Y-72491000D01*
X131360000Y-72451000D02*
X128653000Y-72451000D01*
X136147000Y-72451000D02*
X133440000Y-72451000D01*
X131360000Y-72411000D02*
X128645000Y-72411000D01*
X136155000Y-72411000D02*
X133440000Y-72411000D01*
X131360000Y-72371000D02*
X128637000Y-72371000D01*
X136163000Y-72371000D02*
X133440000Y-72371000D01*
X131360000Y-72330000D02*
X128630000Y-72330000D01*
X136170000Y-72330000D02*
X133440000Y-72330000D01*
X131360000Y-72290000D02*
X128623000Y-72290000D01*
X136177000Y-72290000D02*
X133440000Y-72290000D01*
X131360000Y-72250000D02*
X128616000Y-72250000D01*
X136184000Y-72250000D02*
X133440000Y-72250000D01*
X131360000Y-72210000D02*
X128610000Y-72210000D01*
X136190000Y-72210000D02*
X133440000Y-72210000D01*
X131360000Y-72170000D02*
X128605000Y-72170000D01*
X136195000Y-72170000D02*
X133440000Y-72170000D01*
X131360000Y-72130000D02*
X128599000Y-72130000D01*
X136201000Y-72130000D02*
X133440000Y-72130000D01*
X131360000Y-72090000D02*
X128595000Y-72090000D01*
X136205000Y-72090000D02*
X133440000Y-72090000D01*
X131360000Y-72050000D02*
X128590000Y-72050000D01*
X136210000Y-72050000D02*
X133440000Y-72050000D01*
X131360000Y-72010000D02*
X128586000Y-72010000D01*
X136214000Y-72010000D02*
X133440000Y-72010000D01*
X131360000Y-71970000D02*
X128583000Y-71970000D01*
X136217000Y-71970000D02*
X133440000Y-71970000D01*
X131360000Y-71930000D02*
X128580000Y-71930000D01*
X136220000Y-71930000D02*
X133440000Y-71930000D01*
X131360000Y-71890000D02*
X128577000Y-71890000D01*
X136223000Y-71890000D02*
X133440000Y-71890000D01*
X136225000Y-71850000D02*
X128575000Y-71850000D01*
X136227000Y-71810000D02*
X128573000Y-71810000D01*
X136229000Y-71770000D02*
X128571000Y-71770000D01*
X136230000Y-71730000D02*
X128570000Y-71730000D01*
X136230000Y-71690000D02*
X128570000Y-71690000D01*
X136230000Y-71650000D02*
X128570000Y-71650000D01*
X136270000Y-71650000D02*
G75*
G03X136270000Y-71650000I-3870000J0D01*
G01*
X165620000Y-54750000D02*
G75*
G03X165620000Y-54750000I-3870000J0D01*
G01*
X165580000Y-54750000D02*
X157920000Y-54750000D01*
X165580000Y-54790000D02*
X157920000Y-54790000D01*
X165580000Y-54830000D02*
X157920000Y-54830000D01*
X165579000Y-54870000D02*
X157921000Y-54870000D01*
X165577000Y-54910000D02*
X157923000Y-54910000D01*
X165575000Y-54950000D02*
X157925000Y-54950000D01*
X165573000Y-54990000D02*
X162790000Y-54990000D01*
X160710000Y-54990000D02*
X157927000Y-54990000D01*
X165570000Y-55030000D02*
X162790000Y-55030000D01*
X160710000Y-55030000D02*
X157930000Y-55030000D01*
X165567000Y-55070000D02*
X162790000Y-55070000D01*
X160710000Y-55070000D02*
X157933000Y-55070000D01*
X165564000Y-55110000D02*
X162790000Y-55110000D01*
X160710000Y-55110000D02*
X157936000Y-55110000D01*
X165560000Y-55150000D02*
X162790000Y-55150000D01*
X160710000Y-55150000D02*
X157940000Y-55150000D01*
X165555000Y-55190000D02*
X162790000Y-55190000D01*
X160710000Y-55190000D02*
X157945000Y-55190000D01*
X165551000Y-55230000D02*
X162790000Y-55230000D01*
X160710000Y-55230000D02*
X157949000Y-55230000D01*
X165545000Y-55270000D02*
X162790000Y-55270000D01*
X160710000Y-55270000D02*
X157955000Y-55270000D01*
X165540000Y-55310000D02*
X162790000Y-55310000D01*
X160710000Y-55310000D02*
X157960000Y-55310000D01*
X165534000Y-55350000D02*
X162790000Y-55350000D01*
X160710000Y-55350000D02*
X157966000Y-55350000D01*
X165527000Y-55390000D02*
X162790000Y-55390000D01*
X160710000Y-55390000D02*
X157973000Y-55390000D01*
X165520000Y-55430000D02*
X162790000Y-55430000D01*
X160710000Y-55430000D02*
X157980000Y-55430000D01*
X165513000Y-55471000D02*
X162790000Y-55471000D01*
X160710000Y-55471000D02*
X157987000Y-55471000D01*
X165505000Y-55511000D02*
X162790000Y-55511000D01*
X160710000Y-55511000D02*
X157995000Y-55511000D01*
X165497000Y-55551000D02*
X162790000Y-55551000D01*
X160710000Y-55551000D02*
X158003000Y-55551000D01*
X165488000Y-55591000D02*
X162790000Y-55591000D01*
X160710000Y-55591000D02*
X158012000Y-55591000D01*
X165479000Y-55631000D02*
X162790000Y-55631000D01*
X160710000Y-55631000D02*
X158021000Y-55631000D01*
X165470000Y-55671000D02*
X162790000Y-55671000D01*
X160710000Y-55671000D02*
X158030000Y-55671000D01*
X165460000Y-55711000D02*
X162790000Y-55711000D01*
X160710000Y-55711000D02*
X158040000Y-55711000D01*
X165449000Y-55751000D02*
X162790000Y-55751000D01*
X160710000Y-55751000D02*
X158051000Y-55751000D01*
X165438000Y-55791000D02*
X162790000Y-55791000D01*
X160710000Y-55791000D02*
X158062000Y-55791000D01*
X165427000Y-55831000D02*
X162790000Y-55831000D01*
X160710000Y-55831000D02*
X158073000Y-55831000D01*
X165415000Y-55871000D02*
X162790000Y-55871000D01*
X160710000Y-55871000D02*
X158085000Y-55871000D01*
X165403000Y-55911000D02*
X162790000Y-55911000D01*
X160710000Y-55911000D02*
X158097000Y-55911000D01*
X165390000Y-55951000D02*
X162790000Y-55951000D01*
X160710000Y-55951000D02*
X158110000Y-55951000D01*
X165376000Y-55991000D02*
X162790000Y-55991000D01*
X160710000Y-55991000D02*
X158124000Y-55991000D01*
X165363000Y-56031000D02*
X162790000Y-56031000D01*
X160710000Y-56031000D02*
X158137000Y-56031000D01*
X165348000Y-56071000D02*
X162790000Y-56071000D01*
X160710000Y-56071000D02*
X158152000Y-56071000D01*
X165334000Y-56111000D02*
X162790000Y-56111000D01*
X160710000Y-56111000D02*
X158166000Y-56111000D01*
X165318000Y-56151000D02*
X162790000Y-56151000D01*
X160710000Y-56151000D02*
X158182000Y-56151000D01*
X165303000Y-56191000D02*
X162790000Y-56191000D01*
X160710000Y-56191000D02*
X158197000Y-56191000D01*
X165286000Y-56231000D02*
X162790000Y-56231000D01*
X160710000Y-56231000D02*
X158214000Y-56231000D01*
X165270000Y-56271000D02*
X162790000Y-56271000D01*
X160710000Y-56271000D02*
X158230000Y-56271000D01*
X165252000Y-56311000D02*
X162790000Y-56311000D01*
X160710000Y-56311000D02*
X158248000Y-56311000D01*
X165234000Y-56351000D02*
X162790000Y-56351000D01*
X160710000Y-56351000D02*
X158266000Y-56351000D01*
X165216000Y-56391000D02*
X162790000Y-56391000D01*
X160710000Y-56391000D02*
X158284000Y-56391000D01*
X165197000Y-56431000D02*
X162790000Y-56431000D01*
X160710000Y-56431000D02*
X158303000Y-56431000D01*
X165177000Y-56471000D02*
X162790000Y-56471000D01*
X160710000Y-56471000D02*
X158323000Y-56471000D01*
X165157000Y-56511000D02*
X162790000Y-56511000D01*
X160710000Y-56511000D02*
X158343000Y-56511000D01*
X165136000Y-56551000D02*
X162790000Y-56551000D01*
X160710000Y-56551000D02*
X158364000Y-56551000D01*
X165115000Y-56591000D02*
X162790000Y-56591000D01*
X160710000Y-56591000D02*
X158385000Y-56591000D01*
X165093000Y-56631000D02*
X162790000Y-56631000D01*
X160710000Y-56631000D02*
X158407000Y-56631000D01*
X165071000Y-56671000D02*
X162790000Y-56671000D01*
X160710000Y-56671000D02*
X158429000Y-56671000D01*
X165047000Y-56711000D02*
X162790000Y-56711000D01*
X160710000Y-56711000D02*
X158453000Y-56711000D01*
X165024000Y-56751000D02*
X162790000Y-56751000D01*
X160710000Y-56751000D02*
X158476000Y-56751000D01*
X164999000Y-56791000D02*
X162790000Y-56791000D01*
X160710000Y-56791000D02*
X158501000Y-56791000D01*
X164974000Y-56831000D02*
X162790000Y-56831000D01*
X160710000Y-56831000D02*
X158526000Y-56831000D01*
X164948000Y-56871000D02*
X162790000Y-56871000D01*
X160710000Y-56871000D02*
X158552000Y-56871000D01*
X164922000Y-56911000D02*
X162790000Y-56911000D01*
X160710000Y-56911000D02*
X158578000Y-56911000D01*
X164894000Y-56951000D02*
X162790000Y-56951000D01*
X160710000Y-56951000D02*
X158606000Y-56951000D01*
X164866000Y-56991000D02*
X162790000Y-56991000D01*
X160710000Y-56991000D02*
X158634000Y-56991000D01*
X164838000Y-57031000D02*
X162790000Y-57031000D01*
X160710000Y-57031000D02*
X158662000Y-57031000D01*
X164808000Y-57071000D02*
X158692000Y-57071000D01*
X164778000Y-57111000D02*
X158722000Y-57111000D01*
X164746000Y-57151000D02*
X158754000Y-57151000D01*
X164714000Y-57191000D02*
X158786000Y-57191000D01*
X164681000Y-57231000D02*
X158819000Y-57231000D01*
X164648000Y-57271000D02*
X158852000Y-57271000D01*
X164613000Y-57311000D02*
X158887000Y-57311000D01*
X164577000Y-57351000D02*
X158923000Y-57351000D01*
X164540000Y-57391000D02*
X158960000Y-57391000D01*
X164502000Y-57431000D02*
X158998000Y-57431000D01*
X164463000Y-57471000D02*
X159037000Y-57471000D01*
X164423000Y-57511000D02*
X159077000Y-57511000D01*
X164382000Y-57551000D02*
X159118000Y-57551000D01*
X164339000Y-57591000D02*
X159161000Y-57591000D01*
X164296000Y-57631000D02*
X159204000Y-57631000D01*
X164250000Y-57671000D02*
X159250000Y-57671000D01*
X164204000Y-57711000D02*
X159296000Y-57711000D01*
X164155000Y-57751000D02*
X159345000Y-57751000D01*
X164105000Y-57791000D02*
X159395000Y-57791000D01*
X164054000Y-57831000D02*
X159446000Y-57831000D01*
X164000000Y-57871000D02*
X159500000Y-57871000D01*
X163945000Y-57911000D02*
X159555000Y-57911000D01*
X163887000Y-57951000D02*
X159613000Y-57951000D01*
X163827000Y-57991000D02*
X159673000Y-57991000D01*
X163764000Y-58031000D02*
X159736000Y-58031000D01*
X163699000Y-58071000D02*
X159801000Y-58071000D01*
X163631000Y-58111000D02*
X159869000Y-58111000D01*
X163559000Y-58151000D02*
X159941000Y-58151000D01*
X163483000Y-58191000D02*
X160017000Y-58191000D01*
X163404000Y-58231000D02*
X160096000Y-58231000D01*
X163319000Y-58271000D02*
X160181000Y-58271000D01*
X163228000Y-58311000D02*
X160272000Y-58311000D01*
X163131000Y-58351000D02*
X160369000Y-58351000D01*
X163025000Y-58391000D02*
X160475000Y-58391000D01*
X162908000Y-58431000D02*
X160592000Y-58431000D01*
X162778000Y-58471000D02*
X160722000Y-58471000D01*
X162627000Y-58511000D02*
X160873000Y-58511000D01*
X162443000Y-58551000D02*
X161057000Y-58551000D01*
X162191000Y-58591000D02*
X161309000Y-58591000D01*
X163925000Y-50607789D02*
X163925000Y-51357789D01*
X164300000Y-50982789D02*
X163550000Y-50982789D01*
X140800000Y-50982789D02*
X140050000Y-50982789D01*
X140425000Y-50607789D02*
X140425000Y-51357789D01*
X138691000Y-58591000D02*
X137809000Y-58591000D01*
X138943000Y-58551000D02*
X137557000Y-58551000D01*
X139127000Y-58511000D02*
X137373000Y-58511000D01*
X139278000Y-58471000D02*
X137222000Y-58471000D01*
X139408000Y-58431000D02*
X137092000Y-58431000D01*
X139525000Y-58391000D02*
X136975000Y-58391000D01*
X139631000Y-58351000D02*
X136869000Y-58351000D01*
X139728000Y-58311000D02*
X136772000Y-58311000D01*
X139819000Y-58271000D02*
X136681000Y-58271000D01*
X139904000Y-58231000D02*
X136596000Y-58231000D01*
X139983000Y-58191000D02*
X136517000Y-58191000D01*
X140059000Y-58151000D02*
X136441000Y-58151000D01*
X140131000Y-58111000D02*
X136369000Y-58111000D01*
X140199000Y-58071000D02*
X136301000Y-58071000D01*
X140264000Y-58031000D02*
X136236000Y-58031000D01*
X140327000Y-57991000D02*
X136173000Y-57991000D01*
X140387000Y-57951000D02*
X136113000Y-57951000D01*
X140445000Y-57911000D02*
X136055000Y-57911000D01*
X140500000Y-57871000D02*
X136000000Y-57871000D01*
X140554000Y-57831000D02*
X135946000Y-57831000D01*
X140605000Y-57791000D02*
X135895000Y-57791000D01*
X140655000Y-57751000D02*
X135845000Y-57751000D01*
X140704000Y-57711000D02*
X135796000Y-57711000D01*
X140750000Y-57671000D02*
X135750000Y-57671000D01*
X140796000Y-57631000D02*
X135704000Y-57631000D01*
X140839000Y-57591000D02*
X135661000Y-57591000D01*
X140882000Y-57551000D02*
X135618000Y-57551000D01*
X140923000Y-57511000D02*
X135577000Y-57511000D01*
X140963000Y-57471000D02*
X135537000Y-57471000D01*
X141002000Y-57431000D02*
X135498000Y-57431000D01*
X141040000Y-57391000D02*
X135460000Y-57391000D01*
X141077000Y-57351000D02*
X135423000Y-57351000D01*
X141113000Y-57311000D02*
X135387000Y-57311000D01*
X141148000Y-57271000D02*
X135352000Y-57271000D01*
X141181000Y-57231000D02*
X135319000Y-57231000D01*
X141214000Y-57191000D02*
X135286000Y-57191000D01*
X141246000Y-57151000D02*
X135254000Y-57151000D01*
X141278000Y-57111000D02*
X135222000Y-57111000D01*
X141308000Y-57071000D02*
X135192000Y-57071000D01*
X137210000Y-57031000D02*
X135162000Y-57031000D01*
X141338000Y-57031000D02*
X139290000Y-57031000D01*
X137210000Y-56991000D02*
X135134000Y-56991000D01*
X141366000Y-56991000D02*
X139290000Y-56991000D01*
X137210000Y-56951000D02*
X135106000Y-56951000D01*
X141394000Y-56951000D02*
X139290000Y-56951000D01*
X137210000Y-56911000D02*
X135078000Y-56911000D01*
X141422000Y-56911000D02*
X139290000Y-56911000D01*
X137210000Y-56871000D02*
X135052000Y-56871000D01*
X141448000Y-56871000D02*
X139290000Y-56871000D01*
X137210000Y-56831000D02*
X135026000Y-56831000D01*
X141474000Y-56831000D02*
X139290000Y-56831000D01*
X137210000Y-56791000D02*
X135001000Y-56791000D01*
X141499000Y-56791000D02*
X139290000Y-56791000D01*
X137210000Y-56751000D02*
X134976000Y-56751000D01*
X141524000Y-56751000D02*
X139290000Y-56751000D01*
X137210000Y-56711000D02*
X134953000Y-56711000D01*
X141547000Y-56711000D02*
X139290000Y-56711000D01*
X137210000Y-56671000D02*
X134929000Y-56671000D01*
X141571000Y-56671000D02*
X139290000Y-56671000D01*
X137210000Y-56631000D02*
X134907000Y-56631000D01*
X141593000Y-56631000D02*
X139290000Y-56631000D01*
X137210000Y-56591000D02*
X134885000Y-56591000D01*
X141615000Y-56591000D02*
X139290000Y-56591000D01*
X137210000Y-56551000D02*
X134864000Y-56551000D01*
X141636000Y-56551000D02*
X139290000Y-56551000D01*
X137210000Y-56511000D02*
X134843000Y-56511000D01*
X141657000Y-56511000D02*
X139290000Y-56511000D01*
X137210000Y-56471000D02*
X134823000Y-56471000D01*
X141677000Y-56471000D02*
X139290000Y-56471000D01*
X137210000Y-56431000D02*
X134803000Y-56431000D01*
X141697000Y-56431000D02*
X139290000Y-56431000D01*
X137210000Y-56391000D02*
X134784000Y-56391000D01*
X141716000Y-56391000D02*
X139290000Y-56391000D01*
X137210000Y-56351000D02*
X134766000Y-56351000D01*
X141734000Y-56351000D02*
X139290000Y-56351000D01*
X137210000Y-56311000D02*
X134748000Y-56311000D01*
X141752000Y-56311000D02*
X139290000Y-56311000D01*
X137210000Y-56271000D02*
X134730000Y-56271000D01*
X141770000Y-56271000D02*
X139290000Y-56271000D01*
X137210000Y-56231000D02*
X134714000Y-56231000D01*
X141786000Y-56231000D02*
X139290000Y-56231000D01*
X137210000Y-56191000D02*
X134697000Y-56191000D01*
X141803000Y-56191000D02*
X139290000Y-56191000D01*
X137210000Y-56151000D02*
X134682000Y-56151000D01*
X141818000Y-56151000D02*
X139290000Y-56151000D01*
X137210000Y-56111000D02*
X134666000Y-56111000D01*
X141834000Y-56111000D02*
X139290000Y-56111000D01*
X137210000Y-56071000D02*
X134652000Y-56071000D01*
X141848000Y-56071000D02*
X139290000Y-56071000D01*
X137210000Y-56031000D02*
X134637000Y-56031000D01*
X141863000Y-56031000D02*
X139290000Y-56031000D01*
X137210000Y-55991000D02*
X134624000Y-55991000D01*
X141876000Y-55991000D02*
X139290000Y-55991000D01*
X137210000Y-55951000D02*
X134610000Y-55951000D01*
X141890000Y-55951000D02*
X139290000Y-55951000D01*
X137210000Y-55911000D02*
X134597000Y-55911000D01*
X141903000Y-55911000D02*
X139290000Y-55911000D01*
X137210000Y-55871000D02*
X134585000Y-55871000D01*
X141915000Y-55871000D02*
X139290000Y-55871000D01*
X137210000Y-55831000D02*
X134573000Y-55831000D01*
X141927000Y-55831000D02*
X139290000Y-55831000D01*
X137210000Y-55791000D02*
X134562000Y-55791000D01*
X141938000Y-55791000D02*
X139290000Y-55791000D01*
X137210000Y-55751000D02*
X134551000Y-55751000D01*
X141949000Y-55751000D02*
X139290000Y-55751000D01*
X137210000Y-55711000D02*
X134540000Y-55711000D01*
X141960000Y-55711000D02*
X139290000Y-55711000D01*
X137210000Y-55671000D02*
X134530000Y-55671000D01*
X141970000Y-55671000D02*
X139290000Y-55671000D01*
X137210000Y-55631000D02*
X134521000Y-55631000D01*
X141979000Y-55631000D02*
X139290000Y-55631000D01*
X137210000Y-55591000D02*
X134512000Y-55591000D01*
X141988000Y-55591000D02*
X139290000Y-55591000D01*
X137210000Y-55551000D02*
X134503000Y-55551000D01*
X141997000Y-55551000D02*
X139290000Y-55551000D01*
X137210000Y-55511000D02*
X134495000Y-55511000D01*
X142005000Y-55511000D02*
X139290000Y-55511000D01*
X137210000Y-55471000D02*
X134487000Y-55471000D01*
X142013000Y-55471000D02*
X139290000Y-55471000D01*
X137210000Y-55430000D02*
X134480000Y-55430000D01*
X142020000Y-55430000D02*
X139290000Y-55430000D01*
X137210000Y-55390000D02*
X134473000Y-55390000D01*
X142027000Y-55390000D02*
X139290000Y-55390000D01*
X137210000Y-55350000D02*
X134466000Y-55350000D01*
X142034000Y-55350000D02*
X139290000Y-55350000D01*
X137210000Y-55310000D02*
X134460000Y-55310000D01*
X142040000Y-55310000D02*
X139290000Y-55310000D01*
X137210000Y-55270000D02*
X134455000Y-55270000D01*
X142045000Y-55270000D02*
X139290000Y-55270000D01*
X137210000Y-55230000D02*
X134449000Y-55230000D01*
X142051000Y-55230000D02*
X139290000Y-55230000D01*
X137210000Y-55190000D02*
X134445000Y-55190000D01*
X142055000Y-55190000D02*
X139290000Y-55190000D01*
X137210000Y-55150000D02*
X134440000Y-55150000D01*
X142060000Y-55150000D02*
X139290000Y-55150000D01*
X137210000Y-55110000D02*
X134436000Y-55110000D01*
X142064000Y-55110000D02*
X139290000Y-55110000D01*
X137210000Y-55070000D02*
X134433000Y-55070000D01*
X142067000Y-55070000D02*
X139290000Y-55070000D01*
X137210000Y-55030000D02*
X134430000Y-55030000D01*
X142070000Y-55030000D02*
X139290000Y-55030000D01*
X137210000Y-54990000D02*
X134427000Y-54990000D01*
X142073000Y-54990000D02*
X139290000Y-54990000D01*
X142075000Y-54950000D02*
X134425000Y-54950000D01*
X142077000Y-54910000D02*
X134423000Y-54910000D01*
X142079000Y-54870000D02*
X134421000Y-54870000D01*
X142080000Y-54830000D02*
X134420000Y-54830000D01*
X142080000Y-54790000D02*
X134420000Y-54790000D01*
X142080000Y-54750000D02*
X134420000Y-54750000D01*
X142120000Y-54750000D02*
G75*
G03X142120000Y-54750000I-3870000J0D01*
G01*
X158840000Y-70120000D02*
X158840000Y-67880000D01*
X158840000Y-67880000D02*
X154600000Y-67880000D01*
X154600000Y-67880000D02*
X154600000Y-70120000D01*
X154600000Y-70120000D02*
X158840000Y-70120000D01*
X160760000Y-69000000D02*
X158840000Y-69000000D01*
X152680000Y-69000000D02*
X154600000Y-69000000D01*
X158120000Y-70120000D02*
X158120000Y-67880000D01*
X158000000Y-70120000D02*
X158000000Y-67880000D01*
X158240000Y-70120000D02*
X158240000Y-67880000D01*
X144640000Y-70120000D02*
X144640000Y-67880000D01*
X144400000Y-70120000D02*
X144400000Y-67880000D01*
X144520000Y-70120000D02*
X144520000Y-67880000D01*
X139080000Y-69000000D02*
X141000000Y-69000000D01*
X147160000Y-69000000D02*
X145240000Y-69000000D01*
X141000000Y-70120000D02*
X145240000Y-70120000D01*
X141000000Y-67880000D02*
X141000000Y-70120000D01*
X145240000Y-67880000D02*
X141000000Y-67880000D01*
X145240000Y-70120000D02*
X145240000Y-67880000D01*
X198820000Y-112340000D02*
X196580000Y-112340000D01*
X196580000Y-112340000D02*
X196580000Y-116580000D01*
X196580000Y-116580000D02*
X198820000Y-116580000D01*
X198820000Y-116580000D02*
X198820000Y-112340000D01*
X197700000Y-111690000D02*
X197700000Y-112340000D01*
X197700000Y-117230000D02*
X197700000Y-116580000D01*
X198820000Y-113060000D02*
X196580000Y-113060000D01*
X198820000Y-113180000D02*
X196580000Y-113180000D01*
X198820000Y-112940000D02*
X196580000Y-112940000D01*
X194620000Y-112940000D02*
X192380000Y-112940000D01*
X194620000Y-113180000D02*
X192380000Y-113180000D01*
X194620000Y-113060000D02*
X192380000Y-113060000D01*
X193500000Y-117230000D02*
X193500000Y-116580000D01*
X193500000Y-111690000D02*
X193500000Y-112340000D01*
X194620000Y-116580000D02*
X194620000Y-112340000D01*
X192380000Y-116580000D02*
X194620000Y-116580000D01*
X192380000Y-112340000D02*
X192380000Y-116580000D01*
X194620000Y-112340000D02*
X192380000Y-112340000D01*
X160360000Y-79680000D02*
X160360000Y-74480000D01*
X142520000Y-79680000D02*
X160360000Y-79680000D01*
X139920000Y-74480000D02*
X160360000Y-74480000D01*
X142520000Y-79680000D02*
X142520000Y-77080000D01*
X142520000Y-77080000D02*
X139920000Y-77080000D01*
X139920000Y-77080000D02*
X139920000Y-74480000D01*
X141250000Y-79680000D02*
X139920000Y-79680000D01*
X139920000Y-79680000D02*
X139920000Y-78350000D01*
X125500000Y-132980000D02*
X125500000Y-143480000D01*
X134500000Y-132980000D02*
X134500000Y-143480000D01*
X134500000Y-143480000D02*
X130500000Y-143480000D01*
X129500000Y-143480000D02*
X125500000Y-143480000D01*
X134500000Y-132980000D02*
X130350000Y-132980000D01*
X129650000Y-132980000D02*
X125500000Y-132980000D01*
X131800000Y-137480000D02*
G75*
G03X131800000Y-137480000I-1800000J0D01*
G01*
X128940000Y-130000000D02*
X128940000Y-130800000D01*
X128940000Y-130000000D02*
X129800000Y-130000000D01*
X164900000Y-132980000D02*
X164900000Y-143480000D01*
X173900000Y-132980000D02*
X173900000Y-143480000D01*
X173900000Y-143480000D02*
X169900000Y-143480000D01*
X168900000Y-143480000D02*
X164900000Y-143480000D01*
X173900000Y-132980000D02*
X169750000Y-132980000D01*
X169050000Y-132980000D02*
X164900000Y-132980000D01*
X171200000Y-137480000D02*
G75*
G03X171200000Y-137480000I-1800000J0D01*
G01*
X168340000Y-130000000D02*
X168340000Y-130800000D01*
X168340000Y-130000000D02*
X169200000Y-130000000D01*
X153750000Y-61350000D02*
X154800000Y-61350000D01*
X154800000Y-60300000D02*
X154800000Y-61350000D01*
X145400000Y-55250000D02*
X145400000Y-46450000D01*
X145400000Y-46450000D02*
X154600000Y-46450000D01*
X148100000Y-61150000D02*
X145400000Y-61150000D01*
X145400000Y-61150000D02*
X145400000Y-59250000D01*
X154600000Y-46450000D02*
X154600000Y-61150000D01*
X154600000Y-61150000D02*
X152000000Y-61150000D01*
X108880000Y-72450000D02*
X107930000Y-72450000D01*
X103140000Y-72450000D02*
X104090000Y-72450000D01*
X107930000Y-71530000D02*
X104090000Y-71530000D01*
X107930000Y-73370000D02*
X107930000Y-71530000D01*
X104090000Y-73370000D02*
X107930000Y-73370000D01*
X104090000Y-71530000D02*
X104090000Y-73370000D01*
X104190000Y-75380000D02*
X104190000Y-77220000D01*
X104190000Y-77220000D02*
X108030000Y-77220000D01*
X108030000Y-77220000D02*
X108030000Y-75380000D01*
X108030000Y-75380000D02*
X104190000Y-75380000D01*
X103240000Y-76300000D02*
X104190000Y-76300000D01*
X108980000Y-76300000D02*
X108030000Y-76300000D01*
X107960000Y-81070000D02*
X107960000Y-79230000D01*
X107960000Y-79230000D02*
X104120000Y-79230000D01*
X104120000Y-79230000D02*
X104120000Y-81070000D01*
X104120000Y-81070000D02*
X107960000Y-81070000D01*
X108910000Y-80150000D02*
X107960000Y-80150000D01*
X103170000Y-80150000D02*
X104120000Y-80150000D01*
X126120000Y-87000000D02*
X127070000Y-87000000D01*
X131860000Y-87000000D02*
X130910000Y-87000000D01*
X127070000Y-87920000D02*
X130910000Y-87920000D01*
X127070000Y-86080000D02*
X127070000Y-87920000D01*
X130910000Y-86080000D02*
X127070000Y-86080000D01*
X130910000Y-87920000D02*
X130910000Y-86080000D01*
X103320000Y-96350000D02*
X104270000Y-96350000D01*
X109060000Y-96350000D02*
X108110000Y-96350000D01*
X104270000Y-97270000D02*
X108110000Y-97270000D01*
X104270000Y-95430000D02*
X104270000Y-97270000D01*
X108110000Y-95430000D02*
X104270000Y-95430000D01*
X108110000Y-97270000D02*
X108110000Y-95430000D01*
X127090000Y-89480000D02*
X127090000Y-91320000D01*
X127090000Y-91320000D02*
X130930000Y-91320000D01*
X130930000Y-91320000D02*
X130930000Y-89480000D01*
X130930000Y-89480000D02*
X127090000Y-89480000D01*
X126140000Y-90400000D02*
X127090000Y-90400000D01*
X131880000Y-90400000D02*
X130930000Y-90400000D01*
X160370000Y-86990000D02*
X158530000Y-86990000D01*
X158530000Y-86990000D02*
X158530000Y-90830000D01*
X158530000Y-90830000D02*
X160370000Y-90830000D01*
X160370000Y-90830000D02*
X160370000Y-86990000D01*
X159450000Y-86040000D02*
X159450000Y-86990000D01*
X159450000Y-91780000D02*
X159450000Y-90830000D01*
X193450000Y-99670000D02*
X193450000Y-100620000D01*
X193450000Y-105410000D02*
X193450000Y-104460000D01*
X192530000Y-100620000D02*
X192530000Y-104460000D01*
X194370000Y-100620000D02*
X192530000Y-100620000D01*
X194370000Y-104460000D02*
X194370000Y-100620000D01*
X192530000Y-104460000D02*
X194370000Y-104460000D01*
X197700000Y-124520000D02*
X197700000Y-125470000D01*
X197700000Y-130260000D02*
X197700000Y-129310000D01*
X196780000Y-125470000D02*
X196780000Y-129310000D01*
X198620000Y-125470000D02*
X196780000Y-125470000D01*
X198620000Y-129310000D02*
X198620000Y-125470000D01*
X196780000Y-129310000D02*
X198620000Y-129310000D01*
X187690000Y-95030000D02*
X187690000Y-96870000D01*
X187690000Y-96870000D02*
X191530000Y-96870000D01*
X191530000Y-96870000D02*
X191530000Y-95030000D01*
X191530000Y-95030000D02*
X187690000Y-95030000D01*
X186740000Y-95950000D02*
X187690000Y-95950000D01*
X192480000Y-95950000D02*
X191530000Y-95950000D01*
X186520000Y-74200000D02*
X187470000Y-74200000D01*
X192260000Y-74200000D02*
X191310000Y-74200000D01*
X187470000Y-75120000D02*
X191310000Y-75120000D01*
X187470000Y-73280000D02*
X187470000Y-75120000D01*
X191310000Y-73280000D02*
X187470000Y-73280000D01*
X191310000Y-75120000D02*
X191310000Y-73280000D01*
X162830000Y-90860000D02*
X164670000Y-90860000D01*
X164670000Y-90860000D02*
X164670000Y-87020000D01*
X164670000Y-87020000D02*
X162830000Y-87020000D01*
X162830000Y-87020000D02*
X162830000Y-90860000D01*
X163750000Y-91810000D02*
X163750000Y-90860000D01*
X163750000Y-86070000D02*
X163750000Y-87020000D01*
X186520000Y-77900000D02*
X187470000Y-77900000D01*
X192260000Y-77900000D02*
X191310000Y-77900000D01*
X187470000Y-78820000D02*
X191310000Y-78820000D01*
X187470000Y-76980000D02*
X187470000Y-78820000D01*
X191310000Y-76980000D02*
X187470000Y-76980000D01*
X191310000Y-78820000D02*
X191310000Y-76980000D01*
X191310000Y-71220000D02*
X191310000Y-69380000D01*
X191310000Y-69380000D02*
X187470000Y-69380000D01*
X187470000Y-69380000D02*
X187470000Y-71220000D01*
X187470000Y-71220000D02*
X191310000Y-71220000D01*
X192260000Y-70300000D02*
X191310000Y-70300000D01*
X186520000Y-70300000D02*
X187470000Y-70300000D01*
X144979000Y-106870000D02*
X144979000Y-102933000D01*
X144979000Y-98566000D02*
X144979000Y-94630000D01*
X155020000Y-106870000D02*
X155020000Y-102933000D01*
X155020000Y-98566000D02*
X155020000Y-94630000D01*
X144979000Y-106870000D02*
X146629000Y-106870000D01*
X148371000Y-106870000D02*
X149130000Y-106870000D01*
X150871000Y-106870000D02*
X151630000Y-106870000D01*
X153370000Y-106870000D02*
X155020000Y-106870000D01*
X144979000Y-94630000D02*
X155020000Y-94630000D01*
X176270000Y-86990000D02*
G75*
G02X176270000Y-88990000I0J-1000000D01*
G01*
X176270000Y-88990000D02*
X176270000Y-90240000D01*
X176270000Y-90240000D02*
X194170000Y-90240000D01*
X194170000Y-90240000D02*
X194170000Y-85740000D01*
X194170000Y-85740000D02*
X176270000Y-85740000D01*
X176270000Y-85740000D02*
X176270000Y-86990000D01*
X176210000Y-93240000D02*
X194230000Y-93240000D01*
X194230000Y-93240000D02*
X194230000Y-82740000D01*
X194230000Y-82740000D02*
X176210000Y-82740000D01*
X176210000Y-82740000D02*
X176210000Y-93240000D01*
X162991000Y-61930000D02*
X162991000Y-63440000D01*
X159290000Y-61930000D02*
X159290000Y-63440000D01*
X156020000Y-63440000D02*
X166260000Y-63440000D01*
X166260000Y-61930000D02*
X166260000Y-66571000D01*
X156020000Y-61930000D02*
X156020000Y-66571000D01*
X156020000Y-66571000D02*
X166260000Y-66571000D01*
X156020000Y-61930000D02*
X166260000Y-61930000D01*
X134020000Y-61730000D02*
X144260000Y-61730000D01*
X134020000Y-66371000D02*
X144260000Y-66371000D01*
X134020000Y-61730000D02*
X134020000Y-66371000D01*
X144260000Y-61730000D02*
X144260000Y-66371000D01*
X134020000Y-63240000D02*
X144260000Y-63240000D01*
X137290000Y-61730000D02*
X137290000Y-63240000D01*
X140991000Y-61730000D02*
X140991000Y-63240000D01*
X162220000Y-129120000D02*
X157280000Y-129120000D01*
X162220000Y-126380000D02*
X157280000Y-126380000D01*
X162220000Y-129120000D02*
X162220000Y-128805000D01*
X162220000Y-126695000D02*
X162220000Y-126380000D01*
X157280000Y-129120000D02*
X157280000Y-128805000D01*
X157280000Y-126695000D02*
X157280000Y-126380000D01*
X134730000Y-101430000D02*
X139270000Y-101430000D01*
X134730000Y-103570000D02*
X139270000Y-103570000D01*
X134730000Y-101430000D02*
X134730000Y-101445000D01*
X134730000Y-103555000D02*
X134730000Y-103570000D01*
X139270000Y-101430000D02*
X139270000Y-101445000D01*
X139270000Y-103555000D02*
X139270000Y-103570000D01*
X139270000Y-110255000D02*
X139270000Y-110270000D01*
X139270000Y-108130000D02*
X139270000Y-108145000D01*
X134730000Y-110255000D02*
X134730000Y-110270000D01*
X134730000Y-108130000D02*
X134730000Y-108145000D01*
X134730000Y-110270000D02*
X139270000Y-110270000D01*
X134730000Y-108130000D02*
X139270000Y-108130000D01*
X182970000Y-99770000D02*
X178430000Y-99770000D01*
X182970000Y-97630000D02*
X178430000Y-97630000D01*
X182970000Y-99770000D02*
X182970000Y-99755000D01*
X182970000Y-97645000D02*
X182970000Y-97630000D01*
X178430000Y-99770000D02*
X178430000Y-99755000D01*
X178430000Y-97645000D02*
X178430000Y-97630000D01*
X101580000Y-93620000D02*
X101580000Y-89080000D01*
X103720000Y-93620000D02*
X103720000Y-89080000D01*
X101580000Y-93620000D02*
X101595000Y-93620000D01*
X103705000Y-93620000D02*
X103720000Y-93620000D01*
X101580000Y-89080000D02*
X101595000Y-89080000D01*
X103705000Y-89080000D02*
X103720000Y-89080000D01*
X133245000Y-126120000D02*
X133230000Y-126120000D01*
X135370000Y-126120000D02*
X135355000Y-126120000D01*
X133245000Y-121580000D02*
X133230000Y-121580000D01*
X135370000Y-121580000D02*
X135355000Y-121580000D01*
X133230000Y-121580000D02*
X133230000Y-126120000D01*
X135370000Y-121580000D02*
X135370000Y-126120000D01*
X160380000Y-139120000D02*
X160380000Y-134580000D01*
X162520000Y-139120000D02*
X162520000Y-134580000D01*
X160380000Y-139120000D02*
X160395000Y-139120000D01*
X162505000Y-139120000D02*
X162520000Y-139120000D01*
X160380000Y-134580000D02*
X160395000Y-134580000D01*
X162505000Y-134580000D02*
X162520000Y-134580000D01*
X198755000Y-79330000D02*
X198770000Y-79330000D01*
X196630000Y-79330000D02*
X196645000Y-79330000D01*
X198755000Y-83870000D02*
X198770000Y-83870000D01*
X196630000Y-83870000D02*
X196645000Y-83870000D01*
X198770000Y-83870000D02*
X198770000Y-79330000D01*
X196630000Y-83870000D02*
X196630000Y-79330000D01*
X116830000Y-92345000D02*
X116830000Y-92330000D01*
X116830000Y-94470000D02*
X116830000Y-94455000D01*
X121370000Y-92345000D02*
X121370000Y-92330000D01*
X121370000Y-94470000D02*
X121370000Y-94455000D01*
X121370000Y-92330000D02*
X116830000Y-92330000D01*
X121370000Y-94470000D02*
X116830000Y-94470000D01*
X198770000Y-87030000D02*
X198770000Y-91570000D01*
X196630000Y-87030000D02*
X196630000Y-91570000D01*
X198770000Y-87030000D02*
X198755000Y-87030000D01*
X196645000Y-87030000D02*
X196630000Y-87030000D01*
X198770000Y-91570000D02*
X198755000Y-91570000D01*
X196645000Y-91570000D02*
X196630000Y-91570000D01*
X148357665Y-91678608D02*
G75*
G03X151590000Y-91835516I1672335J1078608D01*
G01*
X148357665Y-89521392D02*
G75*
G02X151590000Y-89364484I1672335J-1078608D01*
G01*
X148988870Y-91679837D02*
G75*
G03X151070961Y-91680000I1041130J1079837D01*
G01*
X148988870Y-89520163D02*
G75*
G02X151070961Y-89520000I1041130J-1079837D01*
G01*
X151590000Y-91836000D02*
X151590000Y-91680000D01*
X151590000Y-89520000D02*
X151590000Y-89364000D01*
D13*
X117600000Y-62015000D02*
X117600000Y-63385000D01*
X117600000Y-57115000D02*
X117600000Y-58485000D01*
X106900000Y-57115000D02*
X106900000Y-58485000D01*
X106900000Y-62015000D02*
X106900000Y-63385000D01*
X116132076Y-63387372D02*
G75*
G02X108366000Y-63385000I-3882076J3151223D01*
G01*
X108367924Y-57112628D02*
G75*
G02X116134000Y-57115000I3882076J-3151223D01*
G01*
X117600000Y-63385000D02*
X116134000Y-63385000D01*
X108366000Y-63385000D02*
X106900000Y-63385000D01*
X108366000Y-57115000D02*
X106900000Y-57115000D01*
X117600000Y-57115000D02*
X116134000Y-57115000D01*
D14*
X105050000Y-60250000D02*
G75*
G03X105050000Y-60250000I-200000J0D01*
G01*
D12*
X145400000Y-113280000D02*
X145400000Y-123780000D01*
X154400000Y-113280000D02*
X154400000Y-123780000D01*
X154400000Y-123780000D02*
X150400000Y-123780000D01*
X149400000Y-123780000D02*
X145400000Y-123780000D01*
X154400000Y-113280000D02*
X150250000Y-113280000D01*
X149550000Y-113280000D02*
X145400000Y-113280000D01*
X151700000Y-117780000D02*
G75*
G03X151700000Y-117780000I-1800000J0D01*
G01*
X148840000Y-110300000D02*
X148840000Y-111100000D01*
X148840000Y-110300000D02*
X149700000Y-110300000D01*
D13*
X193100000Y-62015000D02*
X193100000Y-63385000D01*
X193100000Y-57115000D02*
X193100000Y-58485000D01*
X182400000Y-57115000D02*
X182400000Y-58485000D01*
X182400000Y-62015000D02*
X182400000Y-63385000D01*
X191632076Y-63387372D02*
G75*
G02X183866000Y-63385000I-3882076J3151223D01*
G01*
X183867924Y-57112628D02*
G75*
G02X191634000Y-57115000I3882076J-3151223D01*
G01*
X193100000Y-63385000D02*
X191634000Y-63385000D01*
X183866000Y-63385000D02*
X182400000Y-63385000D01*
X183866000Y-57115000D02*
X182400000Y-57115000D01*
X193100000Y-57115000D02*
X191634000Y-57115000D01*
D14*
X180550000Y-60250000D02*
G75*
G03X180550000Y-60250000I-200000J0D01*
G01*
D12*
X103730000Y-116240000D02*
X101070000Y-116240000D01*
X103730000Y-121380000D02*
X103730000Y-116240000D01*
X101070000Y-121380000D02*
X101070000Y-116240000D01*
X103730000Y-121380000D02*
X101070000Y-121380000D01*
X103730000Y-122650000D02*
X103730000Y-123980000D01*
X103730000Y-123980000D02*
X102400000Y-123980000D01*
D14*
X180600000Y-139800000D02*
G75*
G03X180600000Y-139800000I-200000J0D01*
G01*
D13*
X193150000Y-136665000D02*
X191684000Y-136665000D01*
X183916000Y-136665000D02*
X182450000Y-136665000D01*
X183916000Y-142935000D02*
X182450000Y-142935000D01*
X193150000Y-142935000D02*
X191684000Y-142935000D01*
X183917924Y-136662628D02*
G75*
G02X191684000Y-136665000I3882076J-3151223D01*
G01*
X191682076Y-142937372D02*
G75*
G02X183916000Y-142935000I-3882076J3151223D01*
G01*
X182450000Y-141565000D02*
X182450000Y-142935000D01*
X182450000Y-136665000D02*
X182450000Y-138035000D01*
X193150000Y-136665000D02*
X193150000Y-138035000D01*
X193150000Y-141565000D02*
X193150000Y-142935000D01*
D14*
X105050000Y-139300000D02*
G75*
G03X105050000Y-139300000I-200000J0D01*
G01*
D13*
X117600000Y-136165000D02*
X116134000Y-136165000D01*
X108366000Y-136165000D02*
X106900000Y-136165000D01*
X108366000Y-142435000D02*
X106900000Y-142435000D01*
X117600000Y-142435000D02*
X116134000Y-142435000D01*
X108367924Y-136162628D02*
G75*
G02X116134000Y-136165000I3882076J-3151223D01*
G01*
X116132076Y-142437372D02*
G75*
G02X108366000Y-142435000I-3882076J3151223D01*
G01*
X106900000Y-141065000D02*
X106900000Y-142435000D01*
X106900000Y-136165000D02*
X106900000Y-137535000D01*
X117600000Y-136165000D02*
X117600000Y-137535000D01*
X117600000Y-141065000D02*
X117600000Y-142435000D01*
D12*
X127140000Y-92930000D02*
X127140000Y-94770000D01*
X127140000Y-94770000D02*
X130980000Y-94770000D01*
X130980000Y-94770000D02*
X130980000Y-92930000D01*
X130980000Y-92930000D02*
X127140000Y-92930000D01*
X126190000Y-93850000D02*
X127140000Y-93850000D01*
X131930000Y-93850000D02*
X130980000Y-93850000D01*
X158020000Y-114500000D02*
X158970000Y-114500000D01*
X163760000Y-114500000D02*
X162810000Y-114500000D01*
X158970000Y-115420000D02*
X162810000Y-115420000D01*
X158970000Y-113580000D02*
X158970000Y-115420000D01*
X162810000Y-113580000D02*
X158970000Y-113580000D01*
X162810000Y-115420000D02*
X162810000Y-113580000D01*
X141080000Y-105800000D02*
X140130000Y-105800000D01*
X135340000Y-105800000D02*
X136290000Y-105800000D01*
X140130000Y-104880000D02*
X136290000Y-104880000D01*
X140130000Y-106720000D02*
X140130000Y-104880000D01*
X136290000Y-106720000D02*
X140130000Y-106720000D01*
X136290000Y-104880000D02*
X136290000Y-106720000D01*
X156520000Y-87140000D02*
X154680000Y-87140000D01*
X154680000Y-87140000D02*
X154680000Y-90980000D01*
X154680000Y-90980000D02*
X156520000Y-90980000D01*
X156520000Y-90980000D02*
X156520000Y-87140000D01*
X155600000Y-86190000D02*
X155600000Y-87140000D01*
X155600000Y-91930000D02*
X155600000Y-90980000D01*
X163200000Y-116350000D02*
X163200000Y-123100000D01*
X156200000Y-116350000D02*
X156200000Y-123100000D01*
X163200000Y-116350000D02*
X156200000Y-116350000D01*
X163200000Y-123100000D02*
X156200000Y-123100000D01*
X114980000Y-89110000D02*
G75*
G02X114980000Y-87110000I0J1000000D01*
G01*
X114980000Y-87110000D02*
X114980000Y-85860000D01*
X114980000Y-85860000D02*
X104700000Y-85860000D01*
X104700000Y-85860000D02*
X104700000Y-90360000D01*
X104700000Y-90360000D02*
X114980000Y-90360000D01*
X114980000Y-90360000D02*
X114980000Y-89110000D01*
X120710000Y-88050000D02*
X120710000Y-86100000D01*
X120710000Y-88050000D02*
X120710000Y-90000000D01*
X115590000Y-88050000D02*
X115590000Y-86100000D01*
X115590000Y-88050000D02*
X115590000Y-91500000D01*
X159230000Y-136160000D02*
G75*
G02X159230000Y-134160000I0J1000000D01*
G01*
X159230000Y-134160000D02*
X159230000Y-132910000D01*
X159230000Y-132910000D02*
X138790000Y-132910000D01*
X138790000Y-132910000D02*
X138790000Y-137410000D01*
X138790000Y-137410000D02*
X159230000Y-137410000D01*
X159230000Y-137410000D02*
X159230000Y-136160000D01*
X130090000Y-116150000D02*
X130090000Y-119600000D01*
X130090000Y-116150000D02*
X130090000Y-114200000D01*
X135210000Y-116150000D02*
X135210000Y-118100000D01*
X135210000Y-116150000D02*
X135210000Y-114200000D01*
X129480000Y-118460000D02*
X129480000Y-117210000D01*
X119200000Y-118460000D02*
X129480000Y-118460000D01*
X119200000Y-113960000D02*
X119200000Y-118460000D01*
X129480000Y-113960000D02*
X119200000Y-113960000D01*
X129480000Y-115210000D02*
X129480000Y-113960000D01*
X129480000Y-117210000D02*
G75*
G02X129480000Y-115210000I0J1000000D01*
G01*
X159040000Y-123630000D02*
X159040000Y-125470000D01*
X159040000Y-125470000D02*
X162880000Y-125470000D01*
X162880000Y-125470000D02*
X162880000Y-123630000D01*
X162880000Y-123630000D02*
X159040000Y-123630000D01*
X158090000Y-124550000D02*
X159040000Y-124550000D01*
X163830000Y-124550000D02*
X162880000Y-124550000D01*
D10*
X178648095Y-109952380D02*
X178648095Y-110761904D01*
X178695714Y-110857142D01*
X178743333Y-110904761D01*
X178838571Y-110952380D01*
X179029047Y-110952380D01*
X179124285Y-110904761D01*
X179171904Y-110857142D01*
X179219523Y-110761904D01*
X179219523Y-109952380D01*
X179600476Y-109952380D02*
X180267142Y-109952380D01*
X179838571Y-110952380D01*
X117383333Y-96857142D02*
X117335714Y-96904761D01*
X117192857Y-96952380D01*
X117097619Y-96952380D01*
X116954761Y-96904761D01*
X116859523Y-96809523D01*
X116811904Y-96714285D01*
X116764285Y-96523809D01*
X116764285Y-96380952D01*
X116811904Y-96190476D01*
X116859523Y-96095238D01*
X116954761Y-96000000D01*
X117097619Y-95952380D01*
X117192857Y-95952380D01*
X117335714Y-96000000D01*
X117383333Y-96047619D01*
X117764285Y-96047619D02*
X117811904Y-96000000D01*
X117907142Y-95952380D01*
X118145238Y-95952380D01*
X118240476Y-96000000D01*
X118288095Y-96047619D01*
X118335714Y-96142857D01*
X118335714Y-96238095D01*
X118288095Y-96380952D01*
X117716666Y-96952380D01*
X118335714Y-96952380D01*
X179383333Y-74557142D02*
X179335714Y-74604761D01*
X179192857Y-74652380D01*
X179097619Y-74652380D01*
X178954761Y-74604761D01*
X178859523Y-74509523D01*
X178811904Y-74414285D01*
X178764285Y-74223809D01*
X178764285Y-74080952D01*
X178811904Y-73890476D01*
X178859523Y-73795238D01*
X178954761Y-73700000D01*
X179097619Y-73652380D01*
X179192857Y-73652380D01*
X179335714Y-73700000D01*
X179383333Y-73747619D01*
X180288095Y-73652380D02*
X179811904Y-73652380D01*
X179764285Y-74128571D01*
X179811904Y-74080952D01*
X179907142Y-74033333D01*
X180145238Y-74033333D01*
X180240476Y-74080952D01*
X180288095Y-74128571D01*
X180335714Y-74223809D01*
X180335714Y-74461904D01*
X180288095Y-74557142D01*
X180240476Y-74604761D01*
X180145238Y-74652380D01*
X179907142Y-74652380D01*
X179811904Y-74604761D01*
X179764285Y-74557142D01*
X170657142Y-55466666D02*
X170704761Y-55514285D01*
X170752380Y-55657142D01*
X170752380Y-55752380D01*
X170704761Y-55895238D01*
X170609523Y-55990476D01*
X170514285Y-56038095D01*
X170323809Y-56085714D01*
X170180952Y-56085714D01*
X169990476Y-56038095D01*
X169895238Y-55990476D01*
X169800000Y-55895238D01*
X169752380Y-55752380D01*
X169752380Y-55657142D01*
X169800000Y-55514285D01*
X169847619Y-55466666D01*
X169752380Y-54609523D02*
X169752380Y-54800000D01*
X169800000Y-54895238D01*
X169847619Y-54942857D01*
X169990476Y-55038095D01*
X170180952Y-55085714D01*
X170561904Y-55085714D01*
X170657142Y-55038095D01*
X170704761Y-54990476D01*
X170752380Y-54895238D01*
X170752380Y-54704761D01*
X170704761Y-54609523D01*
X170657142Y-54561904D01*
X170561904Y-54514285D01*
X170323809Y-54514285D01*
X170228571Y-54561904D01*
X170180952Y-54609523D01*
X170133333Y-54704761D01*
X170133333Y-54895238D01*
X170180952Y-54990476D01*
X170228571Y-55038095D01*
X170323809Y-55085714D01*
X132057142Y-54816666D02*
X132104761Y-54864285D01*
X132152380Y-55007142D01*
X132152380Y-55102380D01*
X132104761Y-55245238D01*
X132009523Y-55340476D01*
X131914285Y-55388095D01*
X131723809Y-55435714D01*
X131580952Y-55435714D01*
X131390476Y-55388095D01*
X131295238Y-55340476D01*
X131200000Y-55245238D01*
X131152380Y-55102380D01*
X131152380Y-55007142D01*
X131200000Y-54864285D01*
X131247619Y-54816666D01*
X131580952Y-54245238D02*
X131533333Y-54340476D01*
X131485714Y-54388095D01*
X131390476Y-54435714D01*
X131342857Y-54435714D01*
X131247619Y-54388095D01*
X131200000Y-54340476D01*
X131152380Y-54245238D01*
X131152380Y-54054761D01*
X131200000Y-53959523D01*
X131247619Y-53911904D01*
X131342857Y-53864285D01*
X131390476Y-53864285D01*
X131485714Y-53911904D01*
X131533333Y-53959523D01*
X131580952Y-54054761D01*
X131580952Y-54245238D01*
X131628571Y-54340476D01*
X131676190Y-54388095D01*
X131771428Y-54435714D01*
X131961904Y-54435714D01*
X132057142Y-54388095D01*
X132104761Y-54340476D01*
X132152380Y-54245238D01*
X132152380Y-54054761D01*
X132104761Y-53959523D01*
X132057142Y-53911904D01*
X131961904Y-53864285D01*
X131771428Y-53864285D01*
X131676190Y-53911904D01*
X131628571Y-53959523D01*
X131580952Y-54054761D01*
X132157142Y-62816666D02*
X132204761Y-62864285D01*
X132252380Y-63007142D01*
X132252380Y-63102380D01*
X132204761Y-63245238D01*
X132109523Y-63340476D01*
X132014285Y-63388095D01*
X131823809Y-63435714D01*
X131680952Y-63435714D01*
X131490476Y-63388095D01*
X131395238Y-63340476D01*
X131300000Y-63245238D01*
X131252380Y-63102380D01*
X131252380Y-63007142D01*
X131300000Y-62864285D01*
X131347619Y-62816666D01*
X132252380Y-62340476D02*
X132252380Y-62150000D01*
X132204761Y-62054761D01*
X132157142Y-62007142D01*
X132014285Y-61911904D01*
X131823809Y-61864285D01*
X131442857Y-61864285D01*
X131347619Y-61911904D01*
X131300000Y-61959523D01*
X131252380Y-62054761D01*
X131252380Y-62245238D01*
X131300000Y-62340476D01*
X131347619Y-62388095D01*
X131442857Y-62435714D01*
X131680952Y-62435714D01*
X131776190Y-62388095D01*
X131823809Y-62340476D01*
X131871428Y-62245238D01*
X131871428Y-62054761D01*
X131823809Y-61959523D01*
X131776190Y-61911904D01*
X131680952Y-61864285D01*
X172707142Y-70242857D02*
X172754761Y-70290476D01*
X172802380Y-70433333D01*
X172802380Y-70528571D01*
X172754761Y-70671428D01*
X172659523Y-70766666D01*
X172564285Y-70814285D01*
X172373809Y-70861904D01*
X172230952Y-70861904D01*
X172040476Y-70814285D01*
X171945238Y-70766666D01*
X171850000Y-70671428D01*
X171802380Y-70528571D01*
X171802380Y-70433333D01*
X171850000Y-70290476D01*
X171897619Y-70242857D01*
X172802380Y-69290476D02*
X172802380Y-69861904D01*
X172802380Y-69576190D02*
X171802380Y-69576190D01*
X171945238Y-69671428D01*
X172040476Y-69766666D01*
X172088095Y-69861904D01*
X171802380Y-68671428D02*
X171802380Y-68576190D01*
X171850000Y-68480952D01*
X171897619Y-68433333D01*
X171992857Y-68385714D01*
X172183333Y-68338095D01*
X172421428Y-68338095D01*
X172611904Y-68385714D01*
X172707142Y-68433333D01*
X172754761Y-68480952D01*
X172802380Y-68576190D01*
X172802380Y-68671428D01*
X172754761Y-68766666D01*
X172707142Y-68814285D01*
X172611904Y-68861904D01*
X172421428Y-68909523D01*
X172183333Y-68909523D01*
X171992857Y-68861904D01*
X171897619Y-68814285D01*
X171850000Y-68766666D01*
X171802380Y-68671428D01*
X137757142Y-72292857D02*
X137804761Y-72340476D01*
X137852380Y-72483333D01*
X137852380Y-72578571D01*
X137804761Y-72721428D01*
X137709523Y-72816666D01*
X137614285Y-72864285D01*
X137423809Y-72911904D01*
X137280952Y-72911904D01*
X137090476Y-72864285D01*
X136995238Y-72816666D01*
X136900000Y-72721428D01*
X136852380Y-72578571D01*
X136852380Y-72483333D01*
X136900000Y-72340476D01*
X136947619Y-72292857D01*
X137852380Y-71340476D02*
X137852380Y-71911904D01*
X137852380Y-71626190D02*
X136852380Y-71626190D01*
X136995238Y-71721428D01*
X137090476Y-71816666D01*
X137138095Y-71911904D01*
X137852380Y-70388095D02*
X137852380Y-70959523D01*
X137852380Y-70673809D02*
X136852380Y-70673809D01*
X136995238Y-70769047D01*
X137090476Y-70864285D01*
X137138095Y-70959523D01*
X167107142Y-53242857D02*
X167154761Y-53290476D01*
X167202380Y-53433333D01*
X167202380Y-53528571D01*
X167154761Y-53671428D01*
X167059523Y-53766666D01*
X166964285Y-53814285D01*
X166773809Y-53861904D01*
X166630952Y-53861904D01*
X166440476Y-53814285D01*
X166345238Y-53766666D01*
X166250000Y-53671428D01*
X166202380Y-53528571D01*
X166202380Y-53433333D01*
X166250000Y-53290476D01*
X166297619Y-53242857D01*
X167202380Y-52290476D02*
X167202380Y-52861904D01*
X167202380Y-52576190D02*
X166202380Y-52576190D01*
X166345238Y-52671428D01*
X166440476Y-52766666D01*
X166488095Y-52861904D01*
X166297619Y-51909523D02*
X166250000Y-51861904D01*
X166202380Y-51766666D01*
X166202380Y-51528571D01*
X166250000Y-51433333D01*
X166297619Y-51385714D01*
X166392857Y-51338095D01*
X166488095Y-51338095D01*
X166630952Y-51385714D01*
X167202380Y-51957142D01*
X167202380Y-51338095D01*
X143557142Y-53492857D02*
X143604761Y-53540476D01*
X143652380Y-53683333D01*
X143652380Y-53778571D01*
X143604761Y-53921428D01*
X143509523Y-54016666D01*
X143414285Y-54064285D01*
X143223809Y-54111904D01*
X143080952Y-54111904D01*
X142890476Y-54064285D01*
X142795238Y-54016666D01*
X142700000Y-53921428D01*
X142652380Y-53778571D01*
X142652380Y-53683333D01*
X142700000Y-53540476D01*
X142747619Y-53492857D01*
X143652380Y-52540476D02*
X143652380Y-53111904D01*
X143652380Y-52826190D02*
X142652380Y-52826190D01*
X142795238Y-52921428D01*
X142890476Y-53016666D01*
X142938095Y-53111904D01*
X142652380Y-52207142D02*
X142652380Y-51588095D01*
X143033333Y-51921428D01*
X143033333Y-51778571D01*
X143080952Y-51683333D01*
X143128571Y-51635714D01*
X143223809Y-51588095D01*
X143461904Y-51588095D01*
X143557142Y-51635714D01*
X143604761Y-51683333D01*
X143652380Y-51778571D01*
X143652380Y-52064285D01*
X143604761Y-52159523D01*
X143557142Y-52207142D01*
X155811904Y-69452380D02*
X155811904Y-68452380D01*
X156050000Y-68452380D01*
X156192857Y-68500000D01*
X156288095Y-68595238D01*
X156335714Y-68690476D01*
X156383333Y-68880952D01*
X156383333Y-69023809D01*
X156335714Y-69214285D01*
X156288095Y-69309523D01*
X156192857Y-69404761D01*
X156050000Y-69452380D01*
X155811904Y-69452380D01*
X157240476Y-68785714D02*
X157240476Y-69452380D01*
X157002380Y-68404761D02*
X156764285Y-69119047D01*
X157383333Y-69119047D01*
X161538095Y-71252380D02*
X161538095Y-70252380D01*
X162109523Y-71252380D02*
X161680952Y-70680952D01*
X162109523Y-70252380D02*
X161538095Y-70823809D01*
X142111904Y-69502380D02*
X142111904Y-68502380D01*
X142350000Y-68502380D01*
X142492857Y-68550000D01*
X142588095Y-68645238D01*
X142635714Y-68740476D01*
X142683333Y-68930952D01*
X142683333Y-69073809D01*
X142635714Y-69264285D01*
X142588095Y-69359523D01*
X142492857Y-69454761D01*
X142350000Y-69502380D01*
X142111904Y-69502380D01*
X143588095Y-68502380D02*
X143111904Y-68502380D01*
X143064285Y-68978571D01*
X143111904Y-68930952D01*
X143207142Y-68883333D01*
X143445238Y-68883333D01*
X143540476Y-68930952D01*
X143588095Y-68978571D01*
X143635714Y-69073809D01*
X143635714Y-69311904D01*
X143588095Y-69407142D01*
X143540476Y-69454761D01*
X143445238Y-69502380D01*
X143207142Y-69502380D01*
X143111904Y-69454761D01*
X143064285Y-69407142D01*
X147938095Y-71252380D02*
X147938095Y-70252380D01*
X148509523Y-71252380D02*
X148080952Y-70680952D01*
X148509523Y-70252380D02*
X147938095Y-70823809D01*
X198102380Y-115438095D02*
X197102380Y-115438095D01*
X197102380Y-115200000D01*
X197150000Y-115057142D01*
X197245238Y-114961904D01*
X197340476Y-114914285D01*
X197530952Y-114866666D01*
X197673809Y-114866666D01*
X197864285Y-114914285D01*
X197959523Y-114961904D01*
X198054761Y-115057142D01*
X198102380Y-115200000D01*
X198102380Y-115438095D01*
X197102380Y-114009523D02*
X197102380Y-114200000D01*
X197150000Y-114295238D01*
X197197619Y-114342857D01*
X197340476Y-114438095D01*
X197530952Y-114485714D01*
X197911904Y-114485714D01*
X198007142Y-114438095D01*
X198054761Y-114390476D01*
X198102380Y-114295238D01*
X198102380Y-114104761D01*
X198054761Y-114009523D01*
X198007142Y-113961904D01*
X197911904Y-113914285D01*
X197673809Y-113914285D01*
X197578571Y-113961904D01*
X197530952Y-114009523D01*
X197483333Y-114104761D01*
X197483333Y-114295238D01*
X197530952Y-114390476D01*
X197578571Y-114438095D01*
X197673809Y-114485714D01*
X199952380Y-110911904D02*
X198952380Y-110911904D01*
X199952380Y-110340476D02*
X199380952Y-110769047D01*
X198952380Y-110340476D02*
X199523809Y-110911904D01*
X194002380Y-115438095D02*
X193002380Y-115438095D01*
X193002380Y-115200000D01*
X193050000Y-115057142D01*
X193145238Y-114961904D01*
X193240476Y-114914285D01*
X193430952Y-114866666D01*
X193573809Y-114866666D01*
X193764285Y-114914285D01*
X193859523Y-114961904D01*
X193954761Y-115057142D01*
X194002380Y-115200000D01*
X194002380Y-115438095D01*
X193002380Y-114533333D02*
X193002380Y-113866666D01*
X194002380Y-114295238D01*
X195752380Y-110911904D02*
X194752380Y-110911904D01*
X195752380Y-110340476D02*
X195180952Y-110769047D01*
X194752380Y-110340476D02*
X195323809Y-110911904D01*
X125636666Y-131532380D02*
X125636666Y-132246666D01*
X125589047Y-132389523D01*
X125493809Y-132484761D01*
X125350952Y-132532380D01*
X125255714Y-132532380D01*
X126017619Y-131532380D02*
X126636666Y-131532380D01*
X126303333Y-131913333D01*
X126446190Y-131913333D01*
X126541428Y-131960952D01*
X126589047Y-132008571D01*
X126636666Y-132103809D01*
X126636666Y-132341904D01*
X126589047Y-132437142D01*
X126541428Y-132484761D01*
X126446190Y-132532380D01*
X126160476Y-132532380D01*
X126065238Y-132484761D01*
X126017619Y-132437142D01*
X165036666Y-131532380D02*
X165036666Y-132246666D01*
X164989047Y-132389523D01*
X164893809Y-132484761D01*
X164750952Y-132532380D01*
X164655714Y-132532380D01*
X165941428Y-131865714D02*
X165941428Y-132532380D01*
X165703333Y-131484761D02*
X165465238Y-132199047D01*
X166084285Y-132199047D01*
X152452380Y-57583333D02*
X153166666Y-57583333D01*
X153309523Y-57630952D01*
X153404761Y-57726190D01*
X153452380Y-57869047D01*
X153452380Y-57964285D01*
X152452380Y-57202380D02*
X152452380Y-56535714D01*
X153452380Y-56964285D01*
X105843333Y-72902380D02*
X105510000Y-72426190D01*
X105271904Y-72902380D02*
X105271904Y-71902380D01*
X105652857Y-71902380D01*
X105748095Y-71950000D01*
X105795714Y-71997619D01*
X105843333Y-72092857D01*
X105843333Y-72235714D01*
X105795714Y-72330952D01*
X105748095Y-72378571D01*
X105652857Y-72426190D01*
X105271904Y-72426190D01*
X106795714Y-72902380D02*
X106224285Y-72902380D01*
X106510000Y-72902380D02*
X106510000Y-71902380D01*
X106414761Y-72045238D01*
X106319523Y-72140476D01*
X106224285Y-72188095D01*
X105983333Y-76752380D02*
X105650000Y-76276190D01*
X105411904Y-76752380D02*
X105411904Y-75752380D01*
X105792857Y-75752380D01*
X105888095Y-75800000D01*
X105935714Y-75847619D01*
X105983333Y-75942857D01*
X105983333Y-76085714D01*
X105935714Y-76180952D01*
X105888095Y-76228571D01*
X105792857Y-76276190D01*
X105411904Y-76276190D01*
X106364285Y-75847619D02*
X106411904Y-75800000D01*
X106507142Y-75752380D01*
X106745238Y-75752380D01*
X106840476Y-75800000D01*
X106888095Y-75847619D01*
X106935714Y-75942857D01*
X106935714Y-76038095D01*
X106888095Y-76180952D01*
X106316666Y-76752380D01*
X106935714Y-76752380D01*
X105933333Y-80602380D02*
X105600000Y-80126190D01*
X105361904Y-80602380D02*
X105361904Y-79602380D01*
X105742857Y-79602380D01*
X105838095Y-79650000D01*
X105885714Y-79697619D01*
X105933333Y-79792857D01*
X105933333Y-79935714D01*
X105885714Y-80030952D01*
X105838095Y-80078571D01*
X105742857Y-80126190D01*
X105361904Y-80126190D01*
X106790476Y-79935714D02*
X106790476Y-80602380D01*
X106552380Y-79554761D02*
X106314285Y-80269047D01*
X106933333Y-80269047D01*
X128783333Y-87452380D02*
X128450000Y-86976190D01*
X128211904Y-87452380D02*
X128211904Y-86452380D01*
X128592857Y-86452380D01*
X128688095Y-86500000D01*
X128735714Y-86547619D01*
X128783333Y-86642857D01*
X128783333Y-86785714D01*
X128735714Y-86880952D01*
X128688095Y-86928571D01*
X128592857Y-86976190D01*
X128211904Y-86976190D01*
X129640476Y-86452380D02*
X129450000Y-86452380D01*
X129354761Y-86500000D01*
X129307142Y-86547619D01*
X129211904Y-86690476D01*
X129164285Y-86880952D01*
X129164285Y-87261904D01*
X129211904Y-87357142D01*
X129259523Y-87404761D01*
X129354761Y-87452380D01*
X129545238Y-87452380D01*
X129640476Y-87404761D01*
X129688095Y-87357142D01*
X129735714Y-87261904D01*
X129735714Y-87023809D01*
X129688095Y-86928571D01*
X129640476Y-86880952D01*
X129545238Y-86833333D01*
X129354761Y-86833333D01*
X129259523Y-86880952D01*
X129211904Y-86928571D01*
X129164285Y-87023809D01*
X106083333Y-96852380D02*
X105750000Y-96376190D01*
X105511904Y-96852380D02*
X105511904Y-95852380D01*
X105892857Y-95852380D01*
X105988095Y-95900000D01*
X106035714Y-95947619D01*
X106083333Y-96042857D01*
X106083333Y-96185714D01*
X106035714Y-96280952D01*
X105988095Y-96328571D01*
X105892857Y-96376190D01*
X105511904Y-96376190D01*
X106416666Y-95852380D02*
X107083333Y-95852380D01*
X106654761Y-96852380D01*
X128933333Y-90852380D02*
X128600000Y-90376190D01*
X128361904Y-90852380D02*
X128361904Y-89852380D01*
X128742857Y-89852380D01*
X128838095Y-89900000D01*
X128885714Y-89947619D01*
X128933333Y-90042857D01*
X128933333Y-90185714D01*
X128885714Y-90280952D01*
X128838095Y-90328571D01*
X128742857Y-90376190D01*
X128361904Y-90376190D01*
X129504761Y-90280952D02*
X129409523Y-90233333D01*
X129361904Y-90185714D01*
X129314285Y-90090476D01*
X129314285Y-90042857D01*
X129361904Y-89947619D01*
X129409523Y-89900000D01*
X129504761Y-89852380D01*
X129695238Y-89852380D01*
X129790476Y-89900000D01*
X129838095Y-89947619D01*
X129885714Y-90042857D01*
X129885714Y-90090476D01*
X129838095Y-90185714D01*
X129790476Y-90233333D01*
X129695238Y-90280952D01*
X129504761Y-90280952D01*
X129409523Y-90328571D01*
X129361904Y-90376190D01*
X129314285Y-90471428D01*
X129314285Y-90661904D01*
X129361904Y-90757142D01*
X129409523Y-90804761D01*
X129504761Y-90852380D01*
X129695238Y-90852380D01*
X129790476Y-90804761D01*
X129838095Y-90757142D01*
X129885714Y-90661904D01*
X129885714Y-90471428D01*
X129838095Y-90376190D01*
X129790476Y-90328571D01*
X129695238Y-90280952D01*
X159902380Y-89442857D02*
X159426190Y-89776190D01*
X159902380Y-90014285D02*
X158902380Y-90014285D01*
X158902380Y-89633333D01*
X158950000Y-89538095D01*
X158997619Y-89490476D01*
X159092857Y-89442857D01*
X159235714Y-89442857D01*
X159330952Y-89490476D01*
X159378571Y-89538095D01*
X159426190Y-89633333D01*
X159426190Y-90014285D01*
X159902380Y-88490476D02*
X159902380Y-89061904D01*
X159902380Y-88776190D02*
X158902380Y-88776190D01*
X159045238Y-88871428D01*
X159140476Y-88966666D01*
X159188095Y-89061904D01*
X159902380Y-87538095D02*
X159902380Y-88109523D01*
X159902380Y-87823809D02*
X158902380Y-87823809D01*
X159045238Y-87919047D01*
X159140476Y-88014285D01*
X159188095Y-88109523D01*
X193902380Y-103142857D02*
X193426190Y-103476190D01*
X193902380Y-103714285D02*
X192902380Y-103714285D01*
X192902380Y-103333333D01*
X192950000Y-103238095D01*
X192997619Y-103190476D01*
X193092857Y-103142857D01*
X193235714Y-103142857D01*
X193330952Y-103190476D01*
X193378571Y-103238095D01*
X193426190Y-103333333D01*
X193426190Y-103714285D01*
X193902380Y-102190476D02*
X193902380Y-102761904D01*
X193902380Y-102476190D02*
X192902380Y-102476190D01*
X193045238Y-102571428D01*
X193140476Y-102666666D01*
X193188095Y-102761904D01*
X192997619Y-101809523D02*
X192950000Y-101761904D01*
X192902380Y-101666666D01*
X192902380Y-101428571D01*
X192950000Y-101333333D01*
X192997619Y-101285714D01*
X193092857Y-101238095D01*
X193188095Y-101238095D01*
X193330952Y-101285714D01*
X193902380Y-101857142D01*
X193902380Y-101238095D01*
X198202380Y-127942857D02*
X197726190Y-128276190D01*
X198202380Y-128514285D02*
X197202380Y-128514285D01*
X197202380Y-128133333D01*
X197250000Y-128038095D01*
X197297619Y-127990476D01*
X197392857Y-127942857D01*
X197535714Y-127942857D01*
X197630952Y-127990476D01*
X197678571Y-128038095D01*
X197726190Y-128133333D01*
X197726190Y-128514285D01*
X198202380Y-126990476D02*
X198202380Y-127561904D01*
X198202380Y-127276190D02*
X197202380Y-127276190D01*
X197345238Y-127371428D01*
X197440476Y-127466666D01*
X197488095Y-127561904D01*
X197202380Y-126657142D02*
X197202380Y-126038095D01*
X197583333Y-126371428D01*
X197583333Y-126228571D01*
X197630952Y-126133333D01*
X197678571Y-126085714D01*
X197773809Y-126038095D01*
X198011904Y-126038095D01*
X198107142Y-126085714D01*
X198154761Y-126133333D01*
X198202380Y-126228571D01*
X198202380Y-126514285D01*
X198154761Y-126609523D01*
X198107142Y-126657142D01*
X188907142Y-96402380D02*
X188573809Y-95926190D01*
X188335714Y-96402380D02*
X188335714Y-95402380D01*
X188716666Y-95402380D01*
X188811904Y-95450000D01*
X188859523Y-95497619D01*
X188907142Y-95592857D01*
X188907142Y-95735714D01*
X188859523Y-95830952D01*
X188811904Y-95878571D01*
X188716666Y-95926190D01*
X188335714Y-95926190D01*
X189859523Y-96402380D02*
X189288095Y-96402380D01*
X189573809Y-96402380D02*
X189573809Y-95402380D01*
X189478571Y-95545238D01*
X189383333Y-95640476D01*
X189288095Y-95688095D01*
X190764285Y-95402380D02*
X190288095Y-95402380D01*
X190240476Y-95878571D01*
X190288095Y-95830952D01*
X190383333Y-95783333D01*
X190621428Y-95783333D01*
X190716666Y-95830952D01*
X190764285Y-95878571D01*
X190811904Y-95973809D01*
X190811904Y-96211904D01*
X190764285Y-96307142D01*
X190716666Y-96354761D01*
X190621428Y-96402380D01*
X190383333Y-96402380D01*
X190288095Y-96354761D01*
X190240476Y-96307142D01*
X188857142Y-74552380D02*
X188523809Y-74076190D01*
X188285714Y-74552380D02*
X188285714Y-73552380D01*
X188666666Y-73552380D01*
X188761904Y-73600000D01*
X188809523Y-73647619D01*
X188857142Y-73742857D01*
X188857142Y-73885714D01*
X188809523Y-73980952D01*
X188761904Y-74028571D01*
X188666666Y-74076190D01*
X188285714Y-74076190D01*
X189809523Y-74552380D02*
X189238095Y-74552380D01*
X189523809Y-74552380D02*
X189523809Y-73552380D01*
X189428571Y-73695238D01*
X189333333Y-73790476D01*
X189238095Y-73838095D01*
X190142857Y-73552380D02*
X190809523Y-73552380D01*
X190380952Y-74552380D01*
X164252380Y-89642857D02*
X163776190Y-89976190D01*
X164252380Y-90214285D02*
X163252380Y-90214285D01*
X163252380Y-89833333D01*
X163300000Y-89738095D01*
X163347619Y-89690476D01*
X163442857Y-89642857D01*
X163585714Y-89642857D01*
X163680952Y-89690476D01*
X163728571Y-89738095D01*
X163776190Y-89833333D01*
X163776190Y-90214285D01*
X164252380Y-88690476D02*
X164252380Y-89261904D01*
X164252380Y-88976190D02*
X163252380Y-88976190D01*
X163395238Y-89071428D01*
X163490476Y-89166666D01*
X163538095Y-89261904D01*
X163680952Y-88119047D02*
X163633333Y-88214285D01*
X163585714Y-88261904D01*
X163490476Y-88309523D01*
X163442857Y-88309523D01*
X163347619Y-88261904D01*
X163300000Y-88214285D01*
X163252380Y-88119047D01*
X163252380Y-87928571D01*
X163300000Y-87833333D01*
X163347619Y-87785714D01*
X163442857Y-87738095D01*
X163490476Y-87738095D01*
X163585714Y-87785714D01*
X163633333Y-87833333D01*
X163680952Y-87928571D01*
X163680952Y-88119047D01*
X163728571Y-88214285D01*
X163776190Y-88261904D01*
X163871428Y-88309523D01*
X164061904Y-88309523D01*
X164157142Y-88261904D01*
X164204761Y-88214285D01*
X164252380Y-88119047D01*
X164252380Y-87928571D01*
X164204761Y-87833333D01*
X164157142Y-87785714D01*
X164061904Y-87738095D01*
X163871428Y-87738095D01*
X163776190Y-87785714D01*
X163728571Y-87833333D01*
X163680952Y-87928571D01*
X188757142Y-78402380D02*
X188423809Y-77926190D01*
X188185714Y-78402380D02*
X188185714Y-77402380D01*
X188566666Y-77402380D01*
X188661904Y-77450000D01*
X188709523Y-77497619D01*
X188757142Y-77592857D01*
X188757142Y-77735714D01*
X188709523Y-77830952D01*
X188661904Y-77878571D01*
X188566666Y-77926190D01*
X188185714Y-77926190D01*
X189709523Y-78402380D02*
X189138095Y-78402380D01*
X189423809Y-78402380D02*
X189423809Y-77402380D01*
X189328571Y-77545238D01*
X189233333Y-77640476D01*
X189138095Y-77688095D01*
X190185714Y-78402380D02*
X190376190Y-78402380D01*
X190471428Y-78354761D01*
X190519047Y-78307142D01*
X190614285Y-78164285D01*
X190661904Y-77973809D01*
X190661904Y-77592857D01*
X190614285Y-77497619D01*
X190566666Y-77450000D01*
X190471428Y-77402380D01*
X190280952Y-77402380D01*
X190185714Y-77450000D01*
X190138095Y-77497619D01*
X190090476Y-77592857D01*
X190090476Y-77830952D01*
X190138095Y-77926190D01*
X190185714Y-77973809D01*
X190280952Y-78021428D01*
X190471428Y-78021428D01*
X190566666Y-77973809D01*
X190614285Y-77926190D01*
X190661904Y-77830952D01*
X188707142Y-70752380D02*
X188373809Y-70276190D01*
X188135714Y-70752380D02*
X188135714Y-69752380D01*
X188516666Y-69752380D01*
X188611904Y-69800000D01*
X188659523Y-69847619D01*
X188707142Y-69942857D01*
X188707142Y-70085714D01*
X188659523Y-70180952D01*
X188611904Y-70228571D01*
X188516666Y-70276190D01*
X188135714Y-70276190D01*
X189088095Y-69847619D02*
X189135714Y-69800000D01*
X189230952Y-69752380D01*
X189469047Y-69752380D01*
X189564285Y-69800000D01*
X189611904Y-69847619D01*
X189659523Y-69942857D01*
X189659523Y-70038095D01*
X189611904Y-70180952D01*
X189040476Y-70752380D01*
X189659523Y-70752380D01*
X190278571Y-69752380D02*
X190373809Y-69752380D01*
X190469047Y-69800000D01*
X190516666Y-69847619D01*
X190564285Y-69942857D01*
X190611904Y-70133333D01*
X190611904Y-70371428D01*
X190564285Y-70561904D01*
X190516666Y-70657142D01*
X190469047Y-70704761D01*
X190373809Y-70752380D01*
X190278571Y-70752380D01*
X190183333Y-70704761D01*
X190135714Y-70657142D01*
X190088095Y-70561904D01*
X190040476Y-70371428D01*
X190040476Y-70133333D01*
X190088095Y-69942857D01*
X190135714Y-69847619D01*
X190183333Y-69800000D01*
X190278571Y-69752380D01*
X149354761Y-106152380D02*
X149021428Y-105676190D01*
X148783333Y-106152380D02*
X148783333Y-105152380D01*
X149164285Y-105152380D01*
X149259523Y-105200000D01*
X149307142Y-105247619D01*
X149354761Y-105342857D01*
X149354761Y-105485714D01*
X149307142Y-105580952D01*
X149259523Y-105628571D01*
X149164285Y-105676190D01*
X148783333Y-105676190D01*
X149640476Y-105152380D02*
X149973809Y-106152380D01*
X150307142Y-105152380D01*
X151164285Y-106152380D02*
X150592857Y-106152380D01*
X150878571Y-106152380D02*
X150878571Y-105152380D01*
X150783333Y-105295238D01*
X150688095Y-105390476D01*
X150592857Y-105438095D01*
X184652380Y-88711904D02*
X185461904Y-88711904D01*
X185557142Y-88664285D01*
X185604761Y-88616666D01*
X185652380Y-88521428D01*
X185652380Y-88330952D01*
X185604761Y-88235714D01*
X185557142Y-88188095D01*
X185461904Y-88140476D01*
X184652380Y-88140476D01*
X184652380Y-87188095D02*
X184652380Y-87664285D01*
X185128571Y-87711904D01*
X185080952Y-87664285D01*
X185033333Y-87569047D01*
X185033333Y-87330952D01*
X185080952Y-87235714D01*
X185128571Y-87188095D01*
X185223809Y-87140476D01*
X185461904Y-87140476D01*
X185557142Y-87188095D01*
X185604761Y-87235714D01*
X185652380Y-87330952D01*
X185652380Y-87569047D01*
X185604761Y-87664285D01*
X185557142Y-87711904D01*
X160378095Y-60382380D02*
X160378095Y-61191904D01*
X160425714Y-61287142D01*
X160473333Y-61334761D01*
X160568571Y-61382380D01*
X160759047Y-61382380D01*
X160854285Y-61334761D01*
X160901904Y-61287142D01*
X160949523Y-61191904D01*
X160949523Y-60382380D01*
X161330476Y-60382380D02*
X161949523Y-60382380D01*
X161616190Y-60763333D01*
X161759047Y-60763333D01*
X161854285Y-60810952D01*
X161901904Y-60858571D01*
X161949523Y-60953809D01*
X161949523Y-61191904D01*
X161901904Y-61287142D01*
X161854285Y-61334761D01*
X161759047Y-61382380D01*
X161473333Y-61382380D01*
X161378095Y-61334761D01*
X161330476Y-61287142D01*
X138378095Y-60182380D02*
X138378095Y-60991904D01*
X138425714Y-61087142D01*
X138473333Y-61134761D01*
X138568571Y-61182380D01*
X138759047Y-61182380D01*
X138854285Y-61134761D01*
X138901904Y-61087142D01*
X138949523Y-60991904D01*
X138949523Y-60182380D01*
X139854285Y-60515714D02*
X139854285Y-61182380D01*
X139616190Y-60134761D02*
X139378095Y-60849047D01*
X139997142Y-60849047D01*
X159583333Y-128032143D02*
X159535714Y-128079762D01*
X159392857Y-128127381D01*
X159297619Y-128127381D01*
X159154761Y-128079762D01*
X159059523Y-127984524D01*
X159011904Y-127889286D01*
X158964285Y-127698810D01*
X158964285Y-127555953D01*
X159011904Y-127365477D01*
X159059523Y-127270239D01*
X159154761Y-127175001D01*
X159297619Y-127127381D01*
X159392857Y-127127381D01*
X159535714Y-127175001D01*
X159583333Y-127222620D01*
X160535714Y-128127381D02*
X159964285Y-128127381D01*
X160250000Y-128127381D02*
X160250000Y-127127381D01*
X160154761Y-127270239D01*
X160059523Y-127365477D01*
X159964285Y-127413096D01*
X136718332Y-102932141D02*
X136670713Y-102979760D01*
X136527856Y-103027379D01*
X136432618Y-103027379D01*
X136289760Y-102979760D01*
X136194522Y-102884522D01*
X136146903Y-102789284D01*
X136099284Y-102598808D01*
X136099284Y-102455951D01*
X136146903Y-102265475D01*
X136194522Y-102170237D01*
X136289760Y-102074999D01*
X136432618Y-102027379D01*
X136527856Y-102027379D01*
X136670713Y-102074999D01*
X136718332Y-102122618D01*
X137051665Y-102027379D02*
X137670713Y-102027379D01*
X137337379Y-102408332D01*
X137480237Y-102408332D01*
X137575475Y-102455951D01*
X137623094Y-102503570D01*
X137670713Y-102598808D01*
X137670713Y-102836903D01*
X137623094Y-102932141D01*
X137575475Y-102979760D01*
X137480237Y-103027379D01*
X137194522Y-103027379D01*
X137099284Y-102979760D01*
X137051665Y-102932141D01*
X136833333Y-109557142D02*
X136785714Y-109604761D01*
X136642857Y-109652380D01*
X136547619Y-109652380D01*
X136404761Y-109604761D01*
X136309523Y-109509523D01*
X136261904Y-109414285D01*
X136214285Y-109223809D01*
X136214285Y-109080952D01*
X136261904Y-108890476D01*
X136309523Y-108795238D01*
X136404761Y-108700000D01*
X136547619Y-108652380D01*
X136642857Y-108652380D01*
X136785714Y-108700000D01*
X136833333Y-108747619D01*
X137690476Y-108985714D02*
X137690476Y-109652380D01*
X137452380Y-108604761D02*
X137214285Y-109319047D01*
X137833333Y-109319047D01*
X180433333Y-99057142D02*
X180385714Y-99104761D01*
X180242857Y-99152380D01*
X180147619Y-99152380D01*
X180004761Y-99104761D01*
X179909523Y-99009523D01*
X179861904Y-98914285D01*
X179814285Y-98723809D01*
X179814285Y-98580952D01*
X179861904Y-98390476D01*
X179909523Y-98295238D01*
X180004761Y-98200000D01*
X180147619Y-98152380D01*
X180242857Y-98152380D01*
X180385714Y-98200000D01*
X180433333Y-98247619D01*
X180766666Y-98152380D02*
X181433333Y-98152380D01*
X181004761Y-99152380D01*
X103007142Y-91892857D02*
X103054761Y-91940476D01*
X103102380Y-92083333D01*
X103102380Y-92178571D01*
X103054761Y-92321428D01*
X102959523Y-92416666D01*
X102864285Y-92464285D01*
X102673809Y-92511904D01*
X102530952Y-92511904D01*
X102340476Y-92464285D01*
X102245238Y-92416666D01*
X102150000Y-92321428D01*
X102102380Y-92178571D01*
X102102380Y-92083333D01*
X102150000Y-91940476D01*
X102197619Y-91892857D01*
X103102380Y-90940476D02*
X103102380Y-91511904D01*
X103102380Y-91226190D02*
X102102380Y-91226190D01*
X102245238Y-91321428D01*
X102340476Y-91416666D01*
X102388095Y-91511904D01*
X102435714Y-90083333D02*
X103102380Y-90083333D01*
X102054761Y-90321428D02*
X102769047Y-90559523D01*
X102769047Y-89940476D01*
X134732143Y-124617856D02*
X134779762Y-124665475D01*
X134827381Y-124808332D01*
X134827381Y-124903570D01*
X134779762Y-125046427D01*
X134684524Y-125141665D01*
X134589286Y-125189284D01*
X134398810Y-125236903D01*
X134255953Y-125236903D01*
X134065477Y-125189284D01*
X133970239Y-125141665D01*
X133875001Y-125046427D01*
X133827381Y-124903570D01*
X133827381Y-124808332D01*
X133875001Y-124665475D01*
X133922620Y-124617856D01*
X134827381Y-123665475D02*
X134827381Y-124236903D01*
X134827381Y-123951189D02*
X133827381Y-123951189D01*
X133970239Y-124046427D01*
X134065477Y-124141665D01*
X134113096Y-124236903D01*
X133827381Y-122760713D02*
X133827381Y-123236903D01*
X134303572Y-123284522D01*
X134255953Y-123236903D01*
X134208334Y-123141665D01*
X134208334Y-122903570D01*
X134255953Y-122808332D01*
X134303572Y-122760713D01*
X134398810Y-122713094D01*
X134636905Y-122713094D01*
X134732143Y-122760713D01*
X134779762Y-122808332D01*
X134827381Y-122903570D01*
X134827381Y-123141665D01*
X134779762Y-123236903D01*
X134732143Y-123284522D01*
X161782141Y-137467858D02*
X161829760Y-137515477D01*
X161877379Y-137658334D01*
X161877379Y-137753572D01*
X161829760Y-137896429D01*
X161734522Y-137991667D01*
X161639284Y-138039286D01*
X161448808Y-138086905D01*
X161305951Y-138086905D01*
X161115475Y-138039286D01*
X161020237Y-137991667D01*
X160924999Y-137896429D01*
X160877379Y-137753572D01*
X160877379Y-137658334D01*
X160924999Y-137515477D01*
X160972618Y-137467858D01*
X161877379Y-136515477D02*
X161877379Y-137086905D01*
X161877379Y-136801191D02*
X160877379Y-136801191D01*
X161020237Y-136896429D01*
X161115475Y-136991667D01*
X161163094Y-137086905D01*
X160877379Y-135658334D02*
X160877379Y-135848810D01*
X160924999Y-135944048D01*
X160972618Y-135991667D01*
X161115475Y-136086905D01*
X161305951Y-136134524D01*
X161686903Y-136134524D01*
X161782141Y-136086905D01*
X161829760Y-136039286D01*
X161877379Y-135944048D01*
X161877379Y-135753572D01*
X161829760Y-135658334D01*
X161782141Y-135610715D01*
X161686903Y-135563096D01*
X161448808Y-135563096D01*
X161353570Y-135610715D01*
X161305951Y-135658334D01*
X161258332Y-135753572D01*
X161258332Y-135944048D01*
X161305951Y-136039286D01*
X161353570Y-136086905D01*
X161448808Y-136134524D01*
X198082141Y-82267858D02*
X198129760Y-82315477D01*
X198177379Y-82458334D01*
X198177379Y-82553572D01*
X198129760Y-82696429D01*
X198034522Y-82791667D01*
X197939284Y-82839286D01*
X197748808Y-82886905D01*
X197605951Y-82886905D01*
X197415475Y-82839286D01*
X197320237Y-82791667D01*
X197224999Y-82696429D01*
X197177379Y-82553572D01*
X197177379Y-82458334D01*
X197224999Y-82315477D01*
X197272618Y-82267858D01*
X198177379Y-81315477D02*
X198177379Y-81886905D01*
X198177379Y-81601191D02*
X197177379Y-81601191D01*
X197320237Y-81696429D01*
X197415475Y-81791667D01*
X197463094Y-81886905D01*
X197177379Y-80982143D02*
X197177379Y-80315477D01*
X198177379Y-80744048D01*
X118557142Y-93757142D02*
X118509523Y-93804761D01*
X118366666Y-93852380D01*
X118271428Y-93852380D01*
X118128571Y-93804761D01*
X118033333Y-93709523D01*
X117985714Y-93614285D01*
X117938095Y-93423809D01*
X117938095Y-93280952D01*
X117985714Y-93090476D01*
X118033333Y-92995238D01*
X118128571Y-92900000D01*
X118271428Y-92852380D01*
X118366666Y-92852380D01*
X118509523Y-92900000D01*
X118557142Y-92947619D01*
X119509523Y-93852380D02*
X118938095Y-93852380D01*
X119223809Y-93852380D02*
X119223809Y-92852380D01*
X119128571Y-92995238D01*
X119033333Y-93090476D01*
X118938095Y-93138095D01*
X120080952Y-93280952D02*
X119985714Y-93233333D01*
X119938095Y-93185714D01*
X119890476Y-93090476D01*
X119890476Y-93042857D01*
X119938095Y-92947619D01*
X119985714Y-92900000D01*
X120080952Y-92852380D01*
X120271428Y-92852380D01*
X120366666Y-92900000D01*
X120414285Y-92947619D01*
X120461904Y-93042857D01*
X120461904Y-93090476D01*
X120414285Y-93185714D01*
X120366666Y-93233333D01*
X120271428Y-93280952D01*
X120080952Y-93280952D01*
X119985714Y-93328571D01*
X119938095Y-93376190D01*
X119890476Y-93471428D01*
X119890476Y-93661904D01*
X119938095Y-93757142D01*
X119985714Y-93804761D01*
X120080952Y-93852380D01*
X120271428Y-93852380D01*
X120366666Y-93804761D01*
X120414285Y-93757142D01*
X120461904Y-93661904D01*
X120461904Y-93471428D01*
X120414285Y-93376190D01*
X120366666Y-93328571D01*
X120271428Y-93280952D01*
X198032143Y-89947856D02*
X198079762Y-89995475D01*
X198127381Y-90138332D01*
X198127381Y-90233570D01*
X198079762Y-90376427D01*
X197984524Y-90471665D01*
X197889286Y-90519284D01*
X197698810Y-90566903D01*
X197555953Y-90566903D01*
X197365477Y-90519284D01*
X197270239Y-90471665D01*
X197175001Y-90376427D01*
X197127381Y-90233570D01*
X197127381Y-90138332D01*
X197175001Y-89995475D01*
X197222620Y-89947856D01*
X198127381Y-88995475D02*
X198127381Y-89566903D01*
X198127381Y-89281189D02*
X197127381Y-89281189D01*
X197270239Y-89376427D01*
X197365477Y-89471665D01*
X197413096Y-89566903D01*
X198127381Y-88519284D02*
X198127381Y-88328808D01*
X198079762Y-88233570D01*
X198032143Y-88185951D01*
X197889286Y-88090713D01*
X197698810Y-88043094D01*
X197317858Y-88043094D01*
X197222620Y-88090713D01*
X197175001Y-88138332D01*
X197127381Y-88233570D01*
X197127381Y-88424046D01*
X197175001Y-88519284D01*
X197222620Y-88566903D01*
X197317858Y-88614522D01*
X197555953Y-88614522D01*
X197651191Y-88566903D01*
X197698810Y-88519284D01*
X197746429Y-88424046D01*
X197746429Y-88233570D01*
X197698810Y-88138332D01*
X197651191Y-88090713D01*
X197555953Y-88043094D01*
X149291904Y-94012380D02*
X149291904Y-93012380D01*
X149530000Y-93012380D01*
X149672857Y-93060000D01*
X149768095Y-93155238D01*
X149815714Y-93250476D01*
X149863333Y-93440952D01*
X149863333Y-93583809D01*
X149815714Y-93774285D01*
X149768095Y-93869523D01*
X149672857Y-93964761D01*
X149530000Y-94012380D01*
X149291904Y-94012380D01*
X150815714Y-94012380D02*
X150244285Y-94012380D01*
X150530000Y-94012380D02*
X150530000Y-93012380D01*
X150434761Y-93155238D01*
X150339523Y-93250476D01*
X150244285Y-93298095D01*
X103566190Y-57701597D02*
X103566190Y-58416905D01*
X103518502Y-58559966D01*
X103423128Y-58655340D01*
X103280067Y-58703027D01*
X103184692Y-58703027D01*
X104567620Y-58703027D02*
X103995374Y-58703027D01*
X104281497Y-58703027D02*
X104281497Y-57701597D01*
X104186122Y-57844659D01*
X104090748Y-57940033D01*
X103995374Y-57987720D01*
X145536666Y-111832380D02*
X145536666Y-112546666D01*
X145489047Y-112689523D01*
X145393809Y-112784761D01*
X145250952Y-112832380D01*
X145155714Y-112832380D01*
X146489047Y-111832380D02*
X146012857Y-111832380D01*
X145965238Y-112308571D01*
X146012857Y-112260952D01*
X146108095Y-112213333D01*
X146346190Y-112213333D01*
X146441428Y-112260952D01*
X146489047Y-112308571D01*
X146536666Y-112403809D01*
X146536666Y-112641904D01*
X146489047Y-112737142D01*
X146441428Y-112784761D01*
X146346190Y-112832380D01*
X146108095Y-112832380D01*
X146012857Y-112784761D01*
X145965238Y-112737142D01*
X180066190Y-56401597D02*
X180066190Y-57116905D01*
X180018502Y-57259966D01*
X179923128Y-57355340D01*
X179780067Y-57403027D01*
X179684692Y-57403027D01*
X180972245Y-56401597D02*
X180781497Y-56401597D01*
X180686122Y-56449285D01*
X180638435Y-56496972D01*
X180543061Y-56640033D01*
X180495374Y-56830782D01*
X180495374Y-57212279D01*
X180543061Y-57307653D01*
X180590748Y-57355340D01*
X180686122Y-57403027D01*
X180876871Y-57403027D01*
X180972245Y-57355340D01*
X181019932Y-57307653D01*
X181067620Y-57212279D01*
X181067620Y-56973843D01*
X181019932Y-56878469D01*
X180972245Y-56830782D01*
X180876871Y-56783095D01*
X180686122Y-56783095D01*
X180590748Y-56830782D01*
X180543061Y-56878469D01*
X180495374Y-56973843D01*
X102066666Y-124432380D02*
X102066666Y-125146666D01*
X102019047Y-125289523D01*
X101923809Y-125384761D01*
X101780952Y-125432380D01*
X101685714Y-125432380D01*
X102685714Y-124860952D02*
X102590476Y-124813333D01*
X102542857Y-124765714D01*
X102495238Y-124670476D01*
X102495238Y-124622857D01*
X102542857Y-124527619D01*
X102590476Y-124480000D01*
X102685714Y-124432380D01*
X102876190Y-124432380D01*
X102971428Y-124480000D01*
X103019047Y-124527619D01*
X103066666Y-124622857D01*
X103066666Y-124670476D01*
X103019047Y-124765714D01*
X102971428Y-124813333D01*
X102876190Y-124860952D01*
X102685714Y-124860952D01*
X102590476Y-124908571D01*
X102542857Y-124956190D01*
X102495238Y-125051428D01*
X102495238Y-125241904D01*
X102542857Y-125337142D01*
X102590476Y-125384761D01*
X102685714Y-125432380D01*
X102876190Y-125432380D01*
X102971428Y-125384761D01*
X103019047Y-125337142D01*
X103066666Y-125241904D01*
X103066666Y-125051428D01*
X103019047Y-124956190D01*
X102971428Y-124908571D01*
X102876190Y-124860952D01*
X180416190Y-135801597D02*
X180416190Y-136516905D01*
X180368502Y-136659966D01*
X180273128Y-136755340D01*
X180130067Y-136803027D01*
X180034692Y-136803027D01*
X180940748Y-136803027D02*
X181131497Y-136803027D01*
X181226871Y-136755340D01*
X181274558Y-136707653D01*
X181369932Y-136564592D01*
X181417620Y-136373843D01*
X181417620Y-135992346D01*
X181369932Y-135896972D01*
X181322245Y-135849285D01*
X181226871Y-135801597D01*
X181036122Y-135801597D01*
X180940748Y-135849285D01*
X180893061Y-135896972D01*
X180845374Y-135992346D01*
X180845374Y-136230782D01*
X180893061Y-136326156D01*
X180940748Y-136373843D01*
X181036122Y-136421530D01*
X181226871Y-136421530D01*
X181322245Y-136373843D01*
X181369932Y-136326156D01*
X181417620Y-136230782D01*
X103739318Y-135651597D02*
X103739318Y-136366905D01*
X103691631Y-136509966D01*
X103596257Y-136605340D01*
X103453195Y-136653027D01*
X103357821Y-136653027D01*
X104740748Y-136653027D02*
X104168502Y-136653027D01*
X104454625Y-136653027D02*
X104454625Y-135651597D01*
X104359251Y-135794659D01*
X104263877Y-135890033D01*
X104168502Y-135937720D01*
X105360681Y-135651597D02*
X105456055Y-135651597D01*
X105551430Y-135699285D01*
X105599117Y-135746972D01*
X105646804Y-135842346D01*
X105694491Y-136033095D01*
X105694491Y-136271530D01*
X105646804Y-136462279D01*
X105599117Y-136557653D01*
X105551430Y-136605340D01*
X105456055Y-136653027D01*
X105360681Y-136653027D01*
X105265307Y-136605340D01*
X105217620Y-136557653D01*
X105169932Y-136462279D01*
X105122245Y-136271530D01*
X105122245Y-136033095D01*
X105169932Y-135842346D01*
X105217620Y-135746972D01*
X105265307Y-135699285D01*
X105360681Y-135651597D01*
X128893333Y-92382380D02*
X128560000Y-91906190D01*
X128321904Y-92382380D02*
X128321904Y-91382380D01*
X128702857Y-91382380D01*
X128798095Y-91430000D01*
X128845714Y-91477619D01*
X128893333Y-91572857D01*
X128893333Y-91715714D01*
X128845714Y-91810952D01*
X128798095Y-91858571D01*
X128702857Y-91906190D01*
X128321904Y-91906190D01*
X129226666Y-91382380D02*
X129845714Y-91382380D01*
X129512380Y-91763333D01*
X129655238Y-91763333D01*
X129750476Y-91810952D01*
X129798095Y-91858571D01*
X129845714Y-91953809D01*
X129845714Y-92191904D01*
X129798095Y-92287142D01*
X129750476Y-92334761D01*
X129655238Y-92382380D01*
X129369523Y-92382380D01*
X129274285Y-92334761D01*
X129226666Y-92287142D01*
X160723333Y-114977381D02*
X160390000Y-114501191D01*
X160151904Y-114977381D02*
X160151904Y-113977381D01*
X160532857Y-113977381D01*
X160628095Y-114025001D01*
X160675714Y-114072620D01*
X160723333Y-114167858D01*
X160723333Y-114310715D01*
X160675714Y-114405953D01*
X160628095Y-114453572D01*
X160532857Y-114501191D01*
X160151904Y-114501191D01*
X161628095Y-113977381D02*
X161151904Y-113977381D01*
X161104285Y-114453572D01*
X161151904Y-114405953D01*
X161247142Y-114358334D01*
X161485238Y-114358334D01*
X161580476Y-114405953D01*
X161628095Y-114453572D01*
X161675714Y-114548810D01*
X161675714Y-114786905D01*
X161628095Y-114882143D01*
X161580476Y-114929762D01*
X161485238Y-114977381D01*
X161247142Y-114977381D01*
X161151904Y-114929762D01*
X161104285Y-114882143D01*
X137567142Y-106277379D02*
X137233809Y-105801189D01*
X136995714Y-106277379D02*
X136995714Y-105277379D01*
X137376666Y-105277379D01*
X137471904Y-105324999D01*
X137519523Y-105372618D01*
X137567142Y-105467856D01*
X137567142Y-105610713D01*
X137519523Y-105705951D01*
X137471904Y-105753570D01*
X137376666Y-105801189D01*
X136995714Y-105801189D01*
X138519523Y-106277379D02*
X137948095Y-106277379D01*
X138233809Y-106277379D02*
X138233809Y-105277379D01*
X138138571Y-105420237D01*
X138043333Y-105515475D01*
X137948095Y-105563094D01*
X139376666Y-105610713D02*
X139376666Y-106277379D01*
X139138571Y-105229760D02*
X138900476Y-105944046D01*
X139519523Y-105944046D01*
X156127381Y-89702857D02*
X155651191Y-90036190D01*
X156127381Y-90274285D02*
X155127381Y-90274285D01*
X155127381Y-89893333D01*
X155175001Y-89798095D01*
X155222620Y-89750476D01*
X155317858Y-89702857D01*
X155460715Y-89702857D01*
X155555953Y-89750476D01*
X155603572Y-89798095D01*
X155651191Y-89893333D01*
X155651191Y-90274285D01*
X156127381Y-88750476D02*
X156127381Y-89321904D01*
X156127381Y-89036190D02*
X155127381Y-89036190D01*
X155270239Y-89131428D01*
X155365477Y-89226666D01*
X155413096Y-89321904D01*
X155127381Y-87893333D02*
X155127381Y-88083809D01*
X155175001Y-88179047D01*
X155222620Y-88226666D01*
X155365477Y-88321904D01*
X155555953Y-88369523D01*
X155936905Y-88369523D01*
X156032143Y-88321904D01*
X156079762Y-88274285D01*
X156127381Y-88179047D01*
X156127381Y-87988571D01*
X156079762Y-87893333D01*
X156032143Y-87845714D01*
X155936905Y-87798095D01*
X155698810Y-87798095D01*
X155603572Y-87845714D01*
X155555953Y-87893333D01*
X155508334Y-87988571D01*
X155508334Y-88179047D01*
X155555953Y-88274285D01*
X155603572Y-88321904D01*
X155698810Y-88369523D01*
X160304761Y-117752380D02*
X159971428Y-117276190D01*
X159733333Y-117752380D02*
X159733333Y-116752380D01*
X160114285Y-116752380D01*
X160209523Y-116800000D01*
X160257142Y-116847619D01*
X160304761Y-116942857D01*
X160304761Y-117085714D01*
X160257142Y-117180952D01*
X160209523Y-117228571D01*
X160114285Y-117276190D01*
X159733333Y-117276190D01*
X160590476Y-116752380D02*
X160923809Y-117752380D01*
X161257142Y-116752380D01*
X161542857Y-116847619D02*
X161590476Y-116800000D01*
X161685714Y-116752380D01*
X161923809Y-116752380D01*
X162019047Y-116800000D01*
X162066666Y-116847619D01*
X162114285Y-116942857D01*
X162114285Y-117038095D01*
X162066666Y-117180952D01*
X161495238Y-117752380D01*
X162114285Y-117752380D01*
X119202380Y-88711904D02*
X120011904Y-88711904D01*
X120107142Y-88664285D01*
X120154761Y-88616666D01*
X120202380Y-88521428D01*
X120202380Y-88330952D01*
X120154761Y-88235714D01*
X120107142Y-88188095D01*
X120011904Y-88140476D01*
X119202380Y-88140476D01*
X120202380Y-87140476D02*
X120202380Y-87711904D01*
X120202380Y-87426190D02*
X119202380Y-87426190D01*
X119345238Y-87521428D01*
X119440476Y-87616666D01*
X119488095Y-87711904D01*
X148552380Y-135811904D02*
X149361904Y-135811904D01*
X149457142Y-135764285D01*
X149504761Y-135716666D01*
X149552380Y-135621428D01*
X149552380Y-135430952D01*
X149504761Y-135335714D01*
X149457142Y-135288095D01*
X149361904Y-135240476D01*
X148552380Y-135240476D01*
X148647619Y-134811904D02*
X148600000Y-134764285D01*
X148552380Y-134669047D01*
X148552380Y-134430952D01*
X148600000Y-134335714D01*
X148647619Y-134288095D01*
X148742857Y-134240476D01*
X148838095Y-134240476D01*
X148980952Y-134288095D01*
X149552380Y-134859523D01*
X149552380Y-134240476D01*
X133602380Y-116961904D02*
X134411904Y-116961904D01*
X134507142Y-116914285D01*
X134554761Y-116866666D01*
X134602380Y-116771428D01*
X134602380Y-116580952D01*
X134554761Y-116485714D01*
X134507142Y-116438095D01*
X134411904Y-116390476D01*
X133602380Y-116390476D01*
X133602380Y-115485714D02*
X133602380Y-115676190D01*
X133650000Y-115771428D01*
X133697619Y-115819047D01*
X133840476Y-115914285D01*
X134030952Y-115961904D01*
X134411904Y-115961904D01*
X134507142Y-115914285D01*
X134554761Y-115866666D01*
X134602380Y-115771428D01*
X134602380Y-115580952D01*
X134554761Y-115485714D01*
X134507142Y-115438095D01*
X134411904Y-115390476D01*
X134173809Y-115390476D01*
X134078571Y-115438095D01*
X134030952Y-115485714D01*
X133983333Y-115580952D01*
X133983333Y-115771428D01*
X134030952Y-115866666D01*
X134078571Y-115914285D01*
X134173809Y-115961904D01*
X160683333Y-125002380D02*
X160350000Y-124526190D01*
X160111904Y-125002380D02*
X160111904Y-124002380D01*
X160492857Y-124002380D01*
X160588095Y-124050000D01*
X160635714Y-124097619D01*
X160683333Y-124192857D01*
X160683333Y-124335714D01*
X160635714Y-124430952D01*
X160588095Y-124478571D01*
X160492857Y-124526190D01*
X160111904Y-124526190D01*
X161159523Y-125002380D02*
X161350000Y-125002380D01*
X161445238Y-124954761D01*
X161492857Y-124907142D01*
X161588095Y-124764285D01*
X161635714Y-124573809D01*
X161635714Y-124192857D01*
X161588095Y-124097619D01*
X161540476Y-124050000D01*
X161445238Y-124002380D01*
X161254761Y-124002380D01*
X161159523Y-124050000D01*
X161111904Y-124097619D01*
X161064285Y-124192857D01*
X161064285Y-124430952D01*
X161111904Y-124526190D01*
X161159523Y-124573809D01*
X161254761Y-124621428D01*
X161445238Y-124621428D01*
X161540476Y-124573809D01*
X161588095Y-124526190D01*
X161635714Y-124430952D01*
M02*
