M48
; DRILL file {KiCad (5.1.4-0-10_14)} date 2021 July 08, Thursday 18:48:51
; FORMAT={-:-/ absolute / metric / decimal}
; #@! TF.CreationDate,2021-07-08T18:48:51+12:00
; #@! TF.GenerationSoftware,Kicad,Pcbnew,(5.1.4-0-10_14)
; #@! TF.FileFunction,Plated,1,2,PTH
FMAT,2
METRIC
T1C0.400
T2C0.700
T3C0.800
T4C0.900
T5C1.000
T6C1.100
T7C1.220
T8C1.420
T9C1.430
T10C1.700
T11C2.000
%
G90
G05
T1
X102.8Y-84.1
X131.2Y-84.9
X139.95Y-112.45
T2
X159.45Y-85.1
X159.45Y-92.72
X125.2Y-90.4
X132.82Y-90.4
X102.38Y-96.35
X110.0Y-96.35
X125.18Y-87.0
X132.8Y-87.0
X102.23Y-80.15
X109.85Y-80.15
X102.2Y-72.45
X109.82Y-72.45
X157.08Y-114.5
X164.7Y-114.5
X155.6Y-85.25
X155.6Y-92.87
X134.4Y-105.8
X142.02Y-105.8
X185.58Y-70.3
X193.2Y-70.3
X185.58Y-77.9
X193.2Y-77.9
X157.15Y-124.55
X164.77Y-124.55
X163.75Y-85.13
X163.75Y-92.75
X125.25Y-93.85
X132.87Y-93.85
X102.3Y-76.3
X109.92Y-76.3
X193.45Y-98.73
X193.45Y-106.35
X197.7Y-123.58
X197.7Y-131.2
X185.8Y-95.95
X193.42Y-95.95
X185.58Y-74.2
X193.2Y-74.2
T3
X177.6Y-84.18
X177.6Y-91.8
X180.14Y-84.18
X139.5Y-102.5
X157.25Y-127.75
X162.25Y-127.75
X134.5Y-102.5
X159.74Y-122.14
X162.28Y-119.6
X132.4Y-70.4
X132.4Y-72.9
X120.53Y-120.02
X157.2Y-119.6
X131.7Y-52.1
X128.15Y-112.4
X131.8Y-60.2
X120.53Y-112.4
X123.07Y-112.4
X123.07Y-120.02
X125.61Y-120.02
X128.15Y-120.02
X131.7Y-57.1
X125.61Y-112.4
X131.8Y-65.2
X106.03Y-84.3
X106.03Y-91.92
X108.57Y-84.3
X108.57Y-91.92
X111.11Y-84.3
X111.11Y-91.92
X113.65Y-84.3
X113.65Y-91.92
X170.25Y-52.75
X197.7Y-86.8
X167.4Y-70.0
X167.4Y-72.5
X193.5Y-110.65
X193.5Y-118.27
X175.6Y-101.6
X175.6Y-104.14
X175.6Y-106.68
X175.6Y-109.22
X175.6Y-111.76
X175.6Y-114.3
X175.6Y-116.84
X175.6Y-119.38
X183.22Y-101.6
X183.22Y-104.14
X183.22Y-106.68
X183.22Y-109.22
X183.22Y-111.76
X183.22Y-114.3
X183.22Y-116.84
X183.22Y-119.38
X197.7Y-91.8
X138.25Y-53.5
X138.25Y-56.0
X116.6Y-93.4
X121.6Y-93.4
X140.12Y-131.35
X140.12Y-138.97
X142.66Y-131.35
X142.66Y-138.97
X145.2Y-131.35
X145.2Y-138.97
X147.74Y-131.35
X147.74Y-138.97
X150.28Y-131.35
X187.76Y-91.8
X180.14Y-91.8
X182.68Y-84.18
X182.68Y-91.8
X192.84Y-91.8
X177.0Y-74.2
X152.82Y-131.35
X190.3Y-91.8
X155.36Y-131.35
X157.9Y-131.35
X115.0Y-96.4
X120.0Y-96.4
X192.84Y-84.18
X152.82Y-138.97
X155.36Y-138.97
X190.3Y-84.18
X157.9Y-138.97
X187.76Y-84.18
X182.0Y-74.2
X150.28Y-138.97
X170.25Y-57.75
X185.22Y-84.18
X185.22Y-91.8
X197.7Y-79.1
X197.7Y-84.1
X151.64Y-69.0
X161.45Y-134.35
X161.45Y-139.35
X161.8Y-69.0
X148.2Y-69.0
X161.75Y-56.0
X138.04Y-69.0
X161.75Y-53.5
X134.5Y-109.2
X102.65Y-93.85
X178.2Y-98.7
X134.3Y-121.35
X134.3Y-126.35
X183.2Y-98.7
X102.65Y-88.85
X197.7Y-110.65
X139.5Y-109.2
X197.7Y-118.27
T4
X148.76Y-90.6
X151.3Y-90.6
T5
X148.87Y-75.81
X151.41Y-78.35
X102.4Y-117.57
X102.4Y-120.11
X102.4Y-122.65
X147.5Y-107.75
X150.0Y-107.75
X152.5Y-107.75
X141.25Y-75.81
X141.25Y-78.35
X143.79Y-75.81
X143.79Y-78.35
X146.33Y-75.81
X146.33Y-78.35
X148.87Y-78.35
X151.41Y-75.81
X153.95Y-75.81
X153.95Y-78.35
X156.49Y-75.81
X156.49Y-78.35
X159.03Y-75.81
X159.03Y-78.35
T6
X136.6Y-65.0
X139.14Y-65.0
X141.68Y-65.0
X158.6Y-65.2
X161.14Y-65.2
X163.68Y-65.2
T7
X169.4Y-131.0
X149.9Y-111.3
X130.0Y-131.0
T8
X169.4Y-134.1
X149.9Y-114.4
X130.0Y-134.1
T9
X169.4Y-142.4
X149.9Y-122.7
X130.0Y-142.4
T10
X112.25Y-58.65
X112.25Y-137.7
X187.8Y-138.2
X187.75Y-58.65
T11
X107.1Y-60.25
X117.4Y-60.25
X107.1Y-139.3
X117.4Y-139.3
X182.65Y-139.8
X192.95Y-139.8
X182.6Y-60.25
X192.9Y-60.25
T5
G00X145.3Y-56.25
M15
G01X145.3Y-58.25
M16
G05
G00X151.0Y-54.25
M15
G01X149.0Y-54.25
M16
G05
G00X151.0Y-60.25
M15
G01X149.0Y-60.25
M16
G05
T0
M30
